<?xml version="1.0" encoding="UTF-8" standalone="no"?><!DOCTYPE svg PUBLIC "-//W3C//DTD SVG 1.1//EN" "http://www.w3.org/Graphics/SVG/1.1/DTD/svg11.dtd"><svg width="100%" height="100%" viewBox="0 0 217 217" version="1.1" xmlns="http://www.w3.org/2000/svg" xmlns:xlink="http://www.w3.org/1999/xlink" xml:space="preserve" xmlns:serif="http://www.serif.com/" style="fill-rule:evenodd;clip-rule:evenodd;stroke-linejoin:round;stroke-miterlimit:2;"><path d="M105.167,8.413c-34.792,1.583 -63.292,31.291 -63.5,66.208c-0.084,15.292 5.166,30.292 14.791,42.167c9.25,11.458 14.375,25.708 14.375,40.125l0,9.749l75,0l0,-9.75c0,-14.833 4.792,-28.708 13.542,-39.083c10.083,-12 15.625,-27.167 15.625,-42.833c0,-37.792 -31.708,-68.375 -69.833,-66.584Zm-9.334,199.917l25,0c9.864,0.002 18.444,-7.002 20.417,-16.666l-65.833,-0c1.972,9.664 10.552,16.668 20.416,16.666Zm-25,-33.333l75,-0l0,8.333l-75,0l0,-8.333Z" style="fill:#212529;fill-rule:nonzero;"/></svg>