<?xml version="1.0" encoding="UTF-8" standalone="no"?><!DOCTYPE svg PUBLIC "-//W3C//DTD SVG 1.1//EN" "http://www.w3.org/Graphics/SVG/1.1/DTD/svg11.dtd"><svg width="100%" height="100%" viewBox="0 0 1749 1241" version="1.1" xmlns="http://www.w3.org/2000/svg" xmlns:xlink="http://www.w3.org/1999/xlink" xml:space="preserve" xmlns:serif="http://www.serif.com/" style="fill-rule:evenodd;clip-rule:evenodd;stroke-linecap:round;stroke-linejoin:round;stroke-miterlimit:1.5;"><rect id="Artboard1" x="0" y="0" width="1748.03" height="1240.16" style="fill:none;"/><clipPath id="_clip1"><rect x="0" y="0" width="1748.03" height="1240.16"/></clipPath><g clip-path="url(#_clip1)"><g><rect x="-0" y="0" width="1748.03" height="1240.16" style="fill:#ada7ff;"/><g><path d="M1253.39,207.112c0,-19.571 -15.89,-35.461 -35.461,-35.461l-760.95,0c-19.571,0 -35.461,15.89 -35.461,35.461l0,164.421c0,19.571 15.89,35.461 35.461,35.461l760.95,0c19.571,0 35.461,-15.89 35.461,-35.461l0,-164.421Z" style="fill:#212529;stroke:#212529;stroke-width:25px;"/><path d="M1236.39,207.112c0,-19.571 -15.89,-35.461 -35.461,-35.461l-760.95,0c-19.571,0 -35.461,15.89 -35.461,35.461l0,164.421c0,19.571 15.89,35.461 35.461,35.461l760.95,0c19.571,0 35.461,-15.89 35.461,-35.461l0,-164.421Z" style="fill:#76f5c0;stroke:#212529;stroke-width:25px;"/><g><text x="650.07px" y="334.102px" style="font-family:'Inter-Regular_SemiBold', 'Inter', sans-serif;font-size:125px;">A</text><text x="739.587px" y="334.102px" style="font-family:'Inter-Regular_SemiBold', 'Inter', sans-serif;font-size:125px;">llo<tspan x="871.156px " y="334.102px ">w</tspan></text></g></g><g><rect x="338.809" y="327.596" width="963.296" height="963.296" style="fill:none;"/><rect x="459.168" y="447.955" width="722.437" height="722.437" style="fill:none;"/><path d="M1022.44,746.243c-8.795,-0.061 -17.373,2.765 -24.41,8.043l-23.987,18.343l-0,-30.196c0.064,-10.832 -4.206,-21.252 -11.853,-28.925c-7.672,-7.647 -18.093,-11.917 -28.925,-11.853c-10.425,0.021 -20.536,3.607 -28.644,10.16l-15.803,12.416l-7.478,-18.766c-2.978,-7.734 -8.184,-14.414 -14.957,-19.19c-14.26,-9.506 -33.06,-9.053 -46.846,1.129l-23.987,17.92l-0,-141.384c0.102,-10.812 -4.116,-21.23 -11.711,-28.926c-7.696,-7.595 -18.114,-11.813 -28.926,-11.711c-10.812,-0.102 -21.229,4.116 -28.925,11.711c-7.647,7.673 -11.917,18.094 -11.853,28.926l-0,232.253l-25.116,-22.576c-21.165,-19.19 -43.177,-35.981 -63.072,-44.165c-16.085,-6.632 -30.619,-7.055 -41.06,3.387c-21.448,21.588 9.03,67.022 51.784,130.941c22.576,33.582 48.115,71.961 71.256,114.292c22.717,40.778 49.526,69.139 78.452,87.764c32.171,20.742 67.164,29.349 102.298,29.349c0.141,0.001 0.283,0.001 0.424,0.001c95.441,-0 173.977,-78.536 173.977,-173.977c-0,-0.189 -0,-0.377 -0.001,-0.565l-0,-133.764c0.102,-10.812 -4.116,-21.23 -11.711,-28.926c-7.696,-7.594 -18.113,-11.812 -28.926,-11.711Zm-22.011,-26.668c7.189,-2.395 14.717,-3.615 22.295,-3.615c38.702,-0 70.55,31.847 70.55,70.55c-0,0.123 -0,0.247 -0.001,0.37l-0,133.764c0.001,0.235 0.001,0.471 0.001,0.706c-0,111.852 -92.039,203.891 -203.89,203.891c-0.236,-0 -0.472,-0 -0.707,-0.001c-40.496,-0 -81.133,-10.018 -118.525,-34.147c-37.19,-24.975 -67.633,-58.764 -88.611,-98.347l-0.141,-0.282c-21.44,-38.432 -44.701,-75.819 -69.704,-112.034c-50.797,-75.771 -86.919,-129.813 -47.975,-168.757c20.743,-20.741 46.282,-21.165 73.655,-9.877c15.38,6.209 31.043,16.227 46.564,28.221l-0,-165.936c-0.001,-0.095 -0.001,-0.189 -0.001,-0.284c-0,-38.702 31.848,-70.55 70.55,-70.55c0.142,0 0.283,0.001 0.424,0.001l0.142,0c38.703,0 70.55,31.848 70.55,70.551l-0,88.048c19.79,-5.301 40.941,-1.69 57.851,9.877c6.757,4.724 12.631,10.599 17.356,17.355c10.159,-4.763 21.232,-7.266 32.453,-7.337c30.304,-0.139 57.467,19.263 67.164,47.974l-0,-0.141Z" style="fill:#212529;fill-rule:nonzero;stroke:#212529;stroke-width:1.47px;stroke-linecap:butt;stroke-miterlimit:2;"/><path d="M973.905,772.629l-0,-30.196c0.101,-10.812 -4.117,-21.229 -11.712,-28.925c-7.672,-7.647 -18.093,-11.917 -28.925,-11.853c-10.425,0.021 -20.536,3.607 -28.644,10.16l-15.803,12.416l-7.478,-18.766c-2.978,-7.734 -8.184,-14.414 -14.957,-19.19c-14.26,-9.506 -33.06,-9.053 -46.846,1.129l-23.987,17.92l-0,-141.384c0.102,-10.812 -4.116,-21.23 -11.711,-28.926c-7.696,-7.595 -18.114,-11.813 -28.926,-11.711c-10.812,-0.102 -21.229,4.116 -28.925,11.711c-7.647,7.673 -11.917,18.094 -11.853,28.926l-0,232.253l-25.116,-22.576c-21.165,-19.19 -43.177,-35.981 -63.072,-44.165c-16.085,-6.632 -30.619,-7.055 -41.06,3.387c-21.448,21.588 9.03,67.022 51.784,130.941c22.576,33.582 48.115,71.961 71.256,114.292c22.717,40.778 49.526,69.139 78.452,87.764c32.171,20.742 67.164,29.349 102.298,29.349c0.141,0.001 0.283,0.001 0.424,0.001c95.441,-0 173.977,-78.536 173.977,-173.977c-0,-0.189 -0,-0.377 -0.001,-0.565l-0,-133.764c0.102,-10.812 -4.116,-21.23 -11.711,-28.926c-7.696,-7.594 -18.113,-11.812 -28.926,-11.711c-8.795,-0.061 -17.373,2.765 -24.41,8.043l-23.987,18.343l-0.141,-0Z" style="fill:#ffd3b3;"/></g></g></g></svg>