<?xml version="1.0" encoding="UTF-8" standalone="no"?>
<!DOCTYPE svg PUBLIC "-//W3C//DTD SVG 1.1//EN" "http://www.w3.org/Graphics/SVG/1.1/DTD/svg11.dtd">
<svg width="100%" height="100%" viewBox="0 0 1749 1241" version="1.1" xmlns="http://www.w3.org/2000/svg" xmlns:xlink="http://www.w3.org/1999/xlink" xml:space="preserve" xmlns:serif="http://www.serif.com/" style="fill-rule:evenodd;clip-rule:evenodd;stroke-linecap:round;stroke-linejoin:round;stroke-miterlimit:1.5;">
    <rect id="Artboard1" x="0" y="0" width="1748.03" height="1240.16" style="fill:none;"/>
    <g>
        <g>
            <rect x="-0" y="0" width="1748.03" height="1240.16" style="fill:rgb(173,167,255);"/>
            <g>
                <path d="M1253.39,207.112C1253.39,187.541 1237.5,171.651 1217.93,171.651L456.979,171.651C437.408,171.651 421.518,187.541 421.518,207.112L421.518,371.533C421.518,391.104 437.408,406.994 456.979,406.994L1217.93,406.994C1237.5,406.994 1253.39,391.104 1253.39,371.533L1253.39,207.112Z" style="fill:rgb(33,37,41);stroke:rgb(33,37,41);stroke-width:25px;"/>
                <path d="M1236.39,207.112C1236.39,187.541 1220.5,171.651 1200.93,171.651L439.979,171.651C420.408,171.651 404.518,187.541 404.518,207.112L404.518,371.533C404.518,391.104 420.408,406.994 439.979,406.994L1200.93,406.994C1220.5,406.994 1236.39,391.104 1236.39,371.533L1236.39,207.112Z" style="fill:rgb(118,245,192);stroke:rgb(33,37,41);stroke-width:25px;"/>
                <g transform="matrix(1,0,0,1,650.07,334.102)">
                    <g transform="matrix(125,0,0,125,0,0)">
                        <path d="M0.165,-0L0.024,-0L0.281,-0.727L0.443,-0.727L0.699,-0L0.559,-0L0.365,-0.578L0.359,-0.578L0.165,-0ZM0.17,-0.285L0.553,-0.285L0.553,-0.179L0.17,-0.179L0.17,-0.285Z" style="fill-rule:nonzero;"/>
                    </g>
                    <g transform="matrix(125,0,0,125,84.517,0)">
                        <rect x="0.066" y="-0.727" width="0.129" height="0.727" style="fill-rule:nonzero;"/>
                    </g>
                    <g transform="matrix(125,0,0,125,114.169,0)">
                        <rect x="0.066" y="-0.727" width="0.129" height="0.727" style="fill-rule:nonzero;"/>
                    </g>
                    <g transform="matrix(125,0,0,125,143.821,0)">
                        <path d="M0.304,0.011C0.251,0.011 0.205,-0.001 0.166,-0.024C0.126,-0.048 0.096,-0.081 0.075,-0.123C0.053,-0.165 0.043,-0.214 0.043,-0.27C0.043,-0.327 0.053,-0.376 0.075,-0.419C0.096,-0.461 0.126,-0.494 0.166,-0.517C0.205,-0.541 0.251,-0.553 0.304,-0.553C0.357,-0.553 0.403,-0.541 0.442,-0.517C0.482,-0.494 0.512,-0.461 0.533,-0.419C0.555,-0.376 0.565,-0.327 0.565,-0.27C0.565,-0.214 0.555,-0.165 0.533,-0.123C0.512,-0.081 0.482,-0.048 0.442,-0.024C0.403,-0.001 0.357,0.011 0.304,0.011ZM0.305,-0.092C0.334,-0.092 0.358,-0.1 0.377,-0.116C0.396,-0.132 0.411,-0.154 0.421,-0.181C0.43,-0.208 0.435,-0.238 0.435,-0.271C0.435,-0.304 0.43,-0.335 0.421,-0.362C0.411,-0.389 0.396,-0.41 0.377,-0.426C0.358,-0.443 0.334,-0.451 0.305,-0.451C0.275,-0.451 0.251,-0.443 0.231,-0.426C0.212,-0.41 0.197,-0.389 0.187,-0.362C0.178,-0.335 0.173,-0.304 0.173,-0.271C0.173,-0.238 0.178,-0.208 0.187,-0.181C0.197,-0.154 0.212,-0.132 0.231,-0.116C0.251,-0.1 0.275,-0.092 0.305,-0.092Z" style="fill-rule:nonzero;"/>
                    </g>
                    <g transform="matrix(125,0,0,125,216.087,0)">
                        <path d="M0.179,-0L0.024,-0.545L0.156,-0.545L0.251,-0.162L0.257,-0.162L0.354,-0.545L0.484,-0.545L0.582,-0.164L0.587,-0.164L0.682,-0.545L0.813,-0.545L0.659,-0L0.525,-0L0.422,-0.368L0.415,-0.368L0.313,-0L0.179,-0Z" style="fill-rule:nonzero;"/>
                    </g>
                </g>
            </g>
            <g>
                <rect x="338.809" y="327.596" width="963.296" height="963.296" style="fill:none;"/>
                <rect x="459.168" y="447.955" width="722.437" height="722.437" style="fill:none;"/>
                <path d="M1022.44,746.243C1013.64,746.182 1005.07,749.008 998.03,754.286L974.043,772.629L974.043,742.433C974.107,731.601 969.837,721.181 962.19,713.508C954.518,705.861 944.097,701.591 933.265,701.655C922.84,701.676 912.729,705.262 904.621,711.815L888.818,724.231L881.34,705.465C878.362,697.731 873.156,691.051 866.383,686.275C852.123,676.769 833.323,677.222 819.537,687.404L795.55,705.324L795.55,563.94C795.652,553.128 791.434,542.71 783.839,535.014C776.143,527.419 765.725,523.201 754.913,523.303C744.101,523.201 733.684,527.419 725.988,535.014C718.341,542.687 714.071,553.108 714.135,563.94L714.135,796.193L689.019,773.617C667.854,754.427 645.842,737.636 625.947,729.452C609.862,722.82 595.328,722.397 584.887,732.839C563.439,754.427 593.917,799.861 636.671,863.78C659.247,897.362 684.786,935.741 707.927,978.072C730.644,1018.85 757.453,1047.21 786.379,1065.84C818.55,1086.58 853.543,1095.18 888.677,1095.18C888.818,1095.19 888.96,1095.19 889.101,1095.19C984.542,1095.19 1063.08,1016.65 1063.08,921.209C1063.08,921.02 1063.08,920.832 1063.08,920.644L1063.08,786.88C1063.18,776.068 1058.96,765.65 1051.37,757.954C1043.67,750.36 1033.25,746.142 1022.44,746.243ZM1000.43,719.575C1007.62,717.18 1015.15,715.96 1022.72,715.96C1061.43,715.96 1093.27,747.807 1093.27,786.51C1093.27,786.633 1093.27,786.757 1093.27,786.88L1093.27,920.644C1093.27,920.879 1093.27,921.115 1093.27,921.35C1093.27,1033.2 1001.24,1125.24 889.384,1125.24C889.148,1125.24 888.912,1125.24 888.677,1125.24C848.181,1125.24 807.544,1115.22 770.152,1091.09C732.962,1066.12 702.519,1032.33 681.541,992.746L681.4,992.464C659.96,954.032 636.699,916.645 611.696,880.43C560.899,804.659 524.777,750.617 563.721,711.673C584.464,690.932 610.003,690.508 637.376,701.796C652.756,708.005 668.419,718.023 683.94,730.017L683.94,564.081C683.939,563.986 683.939,563.892 683.939,563.797C683.939,525.095 715.787,493.247 754.489,493.247C754.631,493.247 754.772,493.248 754.913,493.248L755.055,493.248C793.758,493.248 825.605,525.096 825.605,563.799L825.605,651.847C845.395,646.546 866.546,650.157 883.456,661.724C890.213,666.448 896.087,672.323 900.812,679.079C910.971,674.316 922.044,671.813 933.265,671.742C963.569,671.603 990.732,691.005 1000.43,719.716L1000.43,719.575Z" style="fill:rgb(33,37,41);fill-rule:nonzero;stroke:rgb(33,37,41);stroke-width:1.47px;stroke-linecap:butt;stroke-miterlimit:2;"/>
                <path d="M973.905,772.629L973.905,742.433C974.006,731.621 969.788,721.204 962.193,713.508C954.521,705.861 944.1,701.591 933.268,701.655C922.843,701.676 912.732,705.262 904.624,711.815L888.821,724.231L881.343,705.465C878.365,697.731 873.159,691.051 866.386,686.275C852.126,676.769 833.326,677.222 819.54,687.404L795.553,705.324L795.553,563.94C795.655,553.128 791.437,542.71 783.842,535.014C776.146,527.419 765.728,523.201 754.916,523.303C744.104,523.201 733.687,527.419 725.991,535.014C718.344,542.687 714.074,553.108 714.138,563.94L714.138,796.193L689.022,773.617C667.857,754.427 645.845,737.636 625.95,729.452C609.865,722.82 595.331,722.397 584.89,732.839C563.442,754.427 593.92,799.861 636.674,863.78C659.25,897.362 684.789,935.741 707.93,978.072C730.647,1018.85 757.456,1047.21 786.382,1065.84C818.553,1086.58 853.546,1095.18 888.68,1095.18C888.821,1095.19 888.963,1095.19 889.104,1095.19C984.545,1095.19 1063.08,1016.65 1063.08,921.209C1063.08,921.02 1063.08,920.832 1063.08,920.644L1063.08,786.88C1063.18,776.068 1058.96,765.65 1051.37,757.954C1043.67,750.36 1033.26,746.142 1022.44,746.243C1013.65,746.182 1005.07,749.008 998.033,754.286L974.046,772.629L973.905,772.629Z" style="fill:rgb(255,211,179);"/>
            </g>
        </g>
    </g>
</svg>
