<?xml version="1.0" encoding="UTF-8" standalone="no"?><!DOCTYPE svg PUBLIC "-//W3C//DTD SVG 1.1//EN" "http://www.w3.org/Graphics/SVG/1.1/DTD/svg11.dtd"><svg width="100%" height="100%" viewBox="0 0 7288 5171" version="1.1" xmlns="http://www.w3.org/2000/svg" xmlns:xlink="http://www.w3.org/1999/xlink" xml:space="preserve" xmlns:serif="http://www.serif.com/" style="fill-rule:evenodd;clip-rule:evenodd;stroke-linecap:round;stroke-linejoin:round;stroke-miterlimit:1.5;"><rect id="Artboard1" x="0" y="0" width="7283.46" height="5167.33" style="fill:none;"/><g><g><rect x="0" y="0" width="7283.46" height="5167.33" style="fill:#ada7ff;"/><g><path d="M5222.46,862.967c0,-81.546 -66.208,-147.754 -147.754,-147.754l-3170.62,-0c-81.546,-0 -147.754,66.208 -147.754,147.754l-0,685.087c-0,81.546 66.208,147.754 147.754,147.754l3170.62,0c81.546,0 147.754,-66.208 147.754,-147.754l0,-685.087Z" style="fill:#212529;stroke:#212529;stroke-width:104.17px;"/><path d="M5151.62,862.967c0,-81.546 -66.208,-147.754 -147.754,-147.754l-3170.62,-0c-81.546,-0 -147.754,66.208 -147.754,147.754l-0,685.087c-0,81.546 66.208,147.754 147.754,147.754l3170.62,0c81.546,0 147.754,-66.208 147.754,-147.754l0,-685.087Z" style="fill:#76f5c0;stroke:#212529;stroke-width:104.17px;"/><g><path d="M2794.59,1392.09l-73.245,-0l133.463,-378.788l84.64,-0l133.462,378.788l-73.245,-0l-101.058,-301.107l-2.959,-0l-101.058,301.107Zm2.367,-148.557l199.752,0l-0,55.192l-199.752,-0l0,-55.192Z" style="fill-rule:nonzero;"/><rect x="3095.11" y="1013.3" width="67.029" height="378.788" style="fill-rule:nonzero;"/><rect x="3218.66" y="1013.3" width="67.029" height="378.788" style="fill-rule:nonzero;"/><path d="M3466.2,1397.71c-27.718,0 -51.756,-6.116 -72.114,-18.348c-20.357,-12.232 -36.116,-29.334 -47.275,-51.307c-11.159,-21.973 -16.738,-47.583 -16.738,-76.829c-0,-29.396 5.579,-55.117 16.738,-77.164c11.159,-22.046 26.918,-39.185 47.275,-51.417c20.358,-12.232 44.396,-18.348 72.114,-18.348c27.718,-0 51.756,6.116 72.113,18.348c20.358,12.232 36.116,29.371 47.275,51.417c11.159,22.047 16.739,47.768 16.739,77.164c-0,29.246 -5.58,54.856 -16.739,76.829c-11.159,21.973 -26.917,39.075 -47.275,51.307c-20.357,12.232 -44.395,18.348 -72.113,18.348Zm0.295,-53.712c15.143,0 27.745,-4.155 37.805,-12.465c10.061,-8.311 17.595,-19.494 22.601,-33.551c5.006,-14.056 7.51,-29.741 7.51,-47.054c-0,-17.36 -2.504,-33.094 -7.51,-47.199c-5.006,-14.106 -12.54,-25.351 -22.601,-33.736c-10.06,-8.384 -22.662,-12.577 -37.805,-12.577c-15.338,0 -28.087,4.193 -38.247,12.577c-10.16,8.385 -17.743,19.63 -22.75,33.736c-5.006,14.105 -7.509,29.839 -7.509,47.199c-0,17.313 2.503,32.998 7.509,47.054c5.007,14.057 12.59,25.24 22.75,33.551c10.16,8.31 22.909,12.465 38.247,12.465Z" style="fill-rule:nonzero;"/><path d="M3702.06,1392.09l-80.346,-284.091l68.361,-0l49.863,199.751l2.665,0l50.897,-199.751l67.621,-0l51.048,198.714l2.664,-0l49.271,-198.714l68.361,-0l-80.346,284.091l-69.841,-0l-53.264,-191.909l-3.849,0l-53.264,191.909l-69.841,-0Z" style="fill-rule:nonzero;"/></g></g><g><rect x="1411.7" y="1364.98" width="4013.73" height="4013.73" style="fill:none;"/><rect x="1913.2" y="1866.48" width="3010.15" height="3010.15" style="fill:none;"/><path d="M4260.17,3109.35c-36.646,-0.254 -72.388,11.521 -101.709,33.512l-99.945,76.43l-0,-125.817c0.266,-45.133 -17.525,-88.55 -49.388,-120.521c-31.967,-31.862 -75.387,-49.654 -120.521,-49.387c-43.437,0.087 -85.566,15.029 -119.35,42.333l-65.846,51.733l-31.158,-78.191c-12.408,-32.225 -34.1,-60.059 -62.321,-79.959c-59.416,-39.608 -137.75,-37.721 -195.191,4.704l-99.946,74.667l-0,-589.1c0.425,-45.05 -17.15,-88.458 -48.796,-120.525c-32.067,-31.646 -75.475,-49.221 -120.525,-48.796c-45.05,-0.425 -88.454,17.15 -120.521,48.796c-31.862,31.971 -49.654,75.392 -49.387,120.525l-0,967.721l-104.65,-94.067c-88.188,-79.958 -179.905,-149.921 -262.8,-184.021c-67.021,-27.633 -127.58,-29.395 -171.084,14.113c-89.366,89.95 37.625,279.258 215.767,545.587c94.067,139.925 200.479,299.838 296.9,476.217c94.654,169.908 206.358,288.079 326.883,365.683c134.046,86.425 279.85,122.288 426.242,122.288c0.587,0.004 1.179,0.004 1.767,0.004c397.67,0 724.904,-327.233 724.904,-724.904c-0,-0.788 -0,-1.571 -0.004,-2.354l-0,-557.35c0.425,-45.05 -17.15,-88.459 -48.796,-120.525c-32.067,-31.642 -75.471,-49.217 -120.525,-48.796Zm-91.713,-111.117c29.954,-9.979 61.321,-15.062 92.896,-15.062c161.258,-0 293.958,132.696 293.958,293.958c0,0.513 0,1.029 -0.004,1.542l0,557.35c0.004,0.979 0.004,1.962 0.004,2.941c0,466.05 -383.495,849.546 -849.541,849.546c-0.984,0 -1.967,0 -2.946,-0.004c-168.733,0 -338.054,-41.742 -493.854,-142.279c-154.959,-104.063 -281.804,-244.85 -369.213,-409.779l-0.587,-1.175c-89.334,-160.134 -186.254,-315.913 -290.434,-466.809c-211.654,-315.712 -362.162,-540.887 -199.895,-703.154c86.429,-86.421 192.841,-88.187 306.895,-41.154c64.084,25.871 129.346,67.613 194.017,117.588l0,-691.4c-0.004,-0.396 -0.004,-0.788 -0.004,-1.184c-0,-161.258 132.7,-293.958 293.958,-293.958c0.592,-0 1.179,0.004 1.767,0.004l0.592,0c161.262,0 293.958,132.7 293.958,293.963l-0,366.866c82.458,-22.087 170.587,-7.041 241.046,41.154c28.154,19.684 52.629,44.163 72.316,72.313c42.33,-19.846 88.467,-30.275 135.221,-30.571c126.267,-0.579 239.446,80.263 279.85,199.892l0,-0.588Z" style="fill:#212529;fill-rule:nonzero;stroke:#212529;stroke-width:6.13px;stroke-linecap:butt;stroke-miterlimit:2;"/><path d="M4057.94,3219.29l-0.001,-125.817c0.421,-45.05 -17.154,-88.454 -48.799,-120.521c-31.967,-31.862 -75.388,-49.654 -120.521,-49.387c-43.438,0.087 -85.567,15.029 -119.35,42.333l-65.846,51.733l-31.158,-78.191c-12.409,-32.225 -34.1,-60.059 -62.321,-79.959c-59.417,-39.608 -137.75,-37.721 -195.192,4.704l-99.946,74.667l0,-589.1c0.425,-45.05 -17.15,-88.458 -48.796,-120.525c-32.066,-31.646 -75.475,-49.221 -120.525,-48.796c-45.05,-0.425 -88.454,17.15 -120.52,48.796c-31.863,31.971 -49.655,75.392 -49.388,120.525l0,967.721l-104.65,-94.067c-88.187,-79.958 -179.904,-149.921 -262.8,-184.021c-67.021,-27.633 -127.579,-29.395 -171.083,14.113c-89.367,89.95 37.625,279.258 215.766,545.587c94.067,139.925 200.48,299.838 296.9,476.217c94.655,169.908 206.359,288.079 326.884,365.683c134.046,86.425 279.85,122.288 426.241,122.288c0.588,0.004 1.18,0.004 1.767,0.004c397.671,0 724.904,-327.233 724.904,-724.904c0,-0.788 0,-1.571 -0.004,-2.354l0,-557.35c0.425,-45.05 -17.15,-88.459 -48.796,-120.525c-32.066,-31.642 -75.471,-49.217 -120.525,-48.796c-36.646,-0.254 -72.387,11.521 -101.708,33.512l-99.946,76.429l-0.587,0Z" style="fill:#ffd3b3;"/></g></g></g></svg>