<?xml version="1.0" encoding="UTF-8" standalone="no"?><!DOCTYPE svg PUBLIC "-//W3C//DTD SVG 1.1//EN" "http://www.w3.org/Graphics/SVG/1.1/DTD/svg11.dtd"><svg width="100%" height="100%" viewBox="0 0 559 559" version="1.1" xmlns="http://www.w3.org/2000/svg" xmlns:xlink="http://www.w3.org/1999/xlink" xml:space="preserve" xmlns:serif="http://www.serif.com/" style="fill-rule:evenodd;clip-rule:evenodd;stroke-linecap:round;stroke-linejoin:round;stroke-miterlimit:1.5;"><path d="M538.196,69.446c-0,-28.746 -23.338,-52.083 -52.083,-52.083l-416.667,-0c-28.746,-0 -52.084,23.337 -52.084,52.083l0,416.667c0,28.745 23.338,52.083 52.084,52.083l416.667,-0c28.745,-0 52.083,-23.338 52.083,-52.083l-0,-416.667Z" style="fill:#76f5c0;stroke:#212529;stroke-width:41.67px;"/><path d="M392.767,149.263l-165.5,161.362l-63.859,-62.662c-18.054,-16.971 -47.041,-16.971 -65.095,-0c-17.763,17.45 -17.763,46.02 -0,63.47l96.541,94.125c17.863,17.392 47.234,17.392 65.096,0l197.358,-192.825c17.675,-17.433 17.675,-45.9 0,-63.333c-18.008,-16.546 -46.462,-16.604 -64.541,-0.137Z" style="fill:#212529;fill-rule:nonzero;"/></svg>