<?xml version="1.0" encoding="UTF-8" standalone="no"?><!DOCTYPE svg PUBLIC "-//W3C//DTD SVG 1.1//EN" "http://www.w3.org/Graphics/SVG/1.1/DTD/svg11.dtd"><svg width="100%" height="100%" viewBox="0 0 200 200" version="1.1" xmlns="http://www.w3.org/2000/svg" xmlns:xlink="http://www.w3.org/1999/xlink" xml:space="preserve" xmlns:serif="http://www.serif.com/" style="fill-rule:evenodd;clip-rule:evenodd;stroke-linejoin:round;stroke-miterlimit:2;"><path d="M79.167,8.333l-58.334,0c-7.083,0 -12.5,5.834 -12.5,12.5l0,87.5c0,7.084 5.417,12.5 12.5,12.5l58.334,0c7.083,0 12.5,-5.416 12.5,-12.5l-0,-87.5c-0,-6.666 -5.417,-12.5 -12.5,-12.5Zm-0,129.167l-58.334,0c-7.083,0 -12.5,5.417 -12.5,12.5l0,29.167c0,7.083 5.417,12.5 12.5,12.5l58.334,-0c7.083,-0 12.5,-5.417 12.5,-12.5l-0,-29.167c-0,-7.083 -5.417,-12.5 -12.5,-12.5Zm104.166,-58.333l-62.5,-0c-7.083,-0 -12.5,5.416 -12.5,12.5l0,87.083c0,7.083 5.417,12.5 12.5,12.5l62.5,0c7.084,0 12.5,-5.417 12.5,-12.5l0,-87.083c0,-6.667 -5.416,-12.5 -12.5,-12.5Zm0,-70.834l-62.5,0c-7.083,0 -12.5,5.417 -12.5,12.5l0,29.584c0,7.083 5.417,12.5 12.5,12.5l62.5,-0c7.084,-0 12.5,-5.417 12.5,-12.5l0,-29.584c0,-6.666 -5.416,-12.5 -12.5,-12.5Z" style="fill:#212529;fill-rule:nonzero;"/></svg>