<?xml version="1.0" encoding="UTF-8" standalone="no"?><!DOCTYPE svg PUBLIC "-//W3C//DTD SVG 1.1//EN" "http://www.w3.org/Graphics/SVG/1.1/DTD/svg11.dtd"><svg width="100%" height="100%" viewBox="0 0 417 417" version="1.1" xmlns="http://www.w3.org/2000/svg" xmlns:xlink="http://www.w3.org/1999/xlink" xml:space="preserve" xmlns:serif="http://www.serif.com/" style="fill-rule:evenodd;clip-rule:evenodd;stroke-linejoin:round;stroke-miterlimit:2;"><path d="M391.554,103.983c-14.271,-14.187 -37.658,-14.187 -51.929,0l-132.212,130.371l-130.371,-130.371c-14.271,-14.187 -37.659,-14.187 -51.929,0c-6.967,6.913 -10.892,16.33 -10.892,26.146c-0,9.817 3.925,19.238 10.892,26.15l156.154,156.15c6.908,6.971 16.329,10.896 26.145,10.896c9.817,0 19.238,-3.925 26.15,-10.896l157.992,-156.15c6.967,-6.912 10.892,-16.333 10.892,-26.15c-0,-9.816 -3.925,-19.233 -10.892,-26.146Z" style="fill:#212529;fill-rule:nonzero;"/></svg>