<?xml version="1.0" encoding="UTF-8" standalone="no"?><!DOCTYPE svg PUBLIC "-//W3C//DTD SVG 1.1//EN" "http://www.w3.org/Graphics/SVG/1.1/DTD/svg11.dtd"><svg width="100%" height="100%" viewBox="0 0 1749 1241" version="1.1" xmlns="http://www.w3.org/2000/svg" xmlns:xlink="http://www.w3.org/1999/xlink" xml:space="preserve" xmlns:serif="http://www.serif.com/" style="fill-rule:evenodd;clip-rule:evenodd;stroke-linecap:round;stroke-linejoin:round;stroke-miterlimit:1.5;"><rect id="Artboard1" x="0" y="0" width="1748.03" height="1240.16" style="fill:none;"/><clipPath id="_clip1"><rect x="0" y="0" width="1748.03" height="1240.16"/></clipPath><g clip-path="url(#_clip1)"><g><rect x="-0" y="0" width="1748.03" height="1240.16" style="fill:#ada7ff;"/><g><path d="M1289.95,288.326c0,-69.179 -56.165,-125.345 -125.345,-125.345l-581.182,0c-69.179,0 -125.344,56.166 -125.344,125.345l0,1006.12c0,69.18 56.165,125.345 125.344,125.345l581.182,0c69.18,0 125.345,-56.165 125.345,-125.345l0,-1006.12Z" style="fill:#f8f9fa;stroke:#212529;stroke-width:25px;"/></g><g><text x="746.412px" y="342.541px" style="font-family:'Inter-Regular_Bold', 'Inter', sans-serif;font-size:100px;">F<tspan x="801.099px " y="342.541px ">o</tspan></text><text x="868.758px" y="342.541px" style="font-family:'Inter-Regular_Bold', 'Inter', sans-serif;font-size:100px;">rm</text></g><g><g><text x="599.195px" y="479.931px" style="font-family:'Inter-Regular_Bold', 'Inter', sans-serif;font-size:50px;">N</text><text x="638.838px" y="479.931px" style="font-family:'Inter-Regular_Bold', 'Inter', sans-serif;font-size:50px;">ame</text></g><path d="M1105.3,532.066c-0,-14.387 -11.681,-26.068 -26.068,-26.068l-462.611,0c-14.387,0 -26.068,11.681 -26.068,26.068l-0,52.136c-0,14.388 11.681,26.069 26.068,26.069l462.611,-0c14.387,-0 26.068,-11.681 26.068,-26.069l-0,-52.136Z" style="fill:#fff;stroke:#212529;stroke-width:12.5px;"/></g><g><g><g><text x="599.007px" y="696.283px" style="font-family:'Inter-Regular_Bold', 'Inter', sans-serif;font-size:50px;">E</text><text x="630.907px" y="696.283px" style="font-family:'Inter-Regular_Bold', 'Inter', sans-serif;font-size:50px;">mail</text></g><path d="M1105.3,748.418c-0,-14.388 -11.681,-26.068 -26.068,-26.068l-462.611,-0c-14.387,-0 -26.068,11.68 -26.068,26.068l-0,52.136c-0,14.387 11.681,26.068 26.068,26.068l462.611,-0c14.387,-0 26.068,-11.681 26.068,-26.068l-0,-52.136Z" style="fill:#fff;stroke:#212529;stroke-width:12.5px;"/><g><g><path d="M674.618,1027.53c-0,-8.149 -6.615,-14.764 -14.763,-14.764l-29.528,-0c-8.148,-0 -14.764,6.615 -14.764,14.764l-0,29.527c-0,8.148 6.616,14.764 14.764,14.764l29.528,-0c8.148,-0 14.763,-6.616 14.763,-14.764l-0,-29.527Z" style="fill:#fff;stroke:#212529;stroke-width:12.5px;"/><g><text x="594.875px" y="986.574px" style="font-family:'Inter-Regular_Bold', 'Inter', sans-serif;font-size:41.667px;">m</text><text x="632.764px" y="986.574px" style="font-family:'Inter-Regular_Bold', 'Inter', sans-serif;font-size:41.667px;">ale</text></g></g><g><path d="M836.82,1027.53c-0,-8.149 -6.616,-14.764 -14.764,-14.764l-29.528,-0c-8.148,-0 -14.763,6.615 -14.763,14.764l-0,29.527c-0,8.148 6.615,14.764 14.763,14.764l29.528,-0c8.148,-0 14.764,-6.616 14.764,-14.764l-0,-29.527Z" style="fill:#fff;stroke:#212529;stroke-width:12.5px;"/><g><text x="737.139px" y="986.574px" style="font-family:'Inter-Regular_Bold', 'Inter', sans-serif;font-size:41.667px;">f</text><text x="752.892px" y="986.574px" style="font-family:'Inter-Regular_Bold', 'Inter', sans-serif;font-size:41.667px;">emale</text></g></g><g><path d="M1065.75,1027.53c-0,-8.149 -6.616,-14.764 -14.764,-14.764l-29.528,-0c-8.148,-0 -14.763,6.615 -14.763,14.764l-0,29.527c-0,8.148 6.615,14.764 14.763,14.764l29.528,-0c8.148,-0 14.764,-6.616 14.764,-14.764l-0,-29.527Z" style="fill:#fff;stroke:#212529;stroke-width:12.5px;"/><g><text x="919.278px" y="986.574px" style="font-family:'Inter-Regular_Bold', 'Inter', sans-serif;font-size:41.667px;">n</text><text x="945.329px" y="986.574px" style="font-family:'Inter-Regular_Bold', 'Inter', sans-serif;font-size:41.667px;">on-binar<tspan x="1113.6px " y="986.574px ">y</tspan></text></g></g></g></g><g><text x="599.849px" y="914.745px" style="font-family:'Inter-Regular_Bold', 'Inter', sans-serif;font-size:50px;">G</text><text x="638.994px" y="914.745px" style="font-family:'Inter-Regular_Bold', 'Inter', sans-serif;font-size:50px;">ender</text></g></g></g></g></svg>