<?xml version="1.0" encoding="UTF-8" standalone="no"?><!DOCTYPE svg PUBLIC "-//W3C//DTD SVG 1.1//EN" "http://www.w3.org/Graphics/SVG/1.1/DTD/svg11.dtd"><svg width="100%" height="100%" viewBox="0 0 7284 5168" version="1.1" xmlns="http://www.w3.org/2000/svg" xmlns:xlink="http://www.w3.org/1999/xlink" xml:space="preserve" xmlns:serif="http://www.serif.com/" style="fill-rule:evenodd;clip-rule:evenodd;stroke-linecap:round;stroke-linejoin:round;stroke-miterlimit:1.5;"><rect id="Artboard2" x="0" y="0" width="7283.46" height="5167.33" style="fill:none;"/><clipPath id="_clip1"><rect id="Artboard21" serif:id="Artboard2" x="0" y="0" width="7283.46" height="5167.33"/></clipPath><g clip-path="url(#_clip1)"><rect id="Artboard1" x="0" y="0" width="7283.46" height="5167.33" style="fill:none;"/><g><g><rect x="0" y="0" width="7283.46" height="5167.33" style="fill:#ada7ff;"/><g><path d="M5374.79,1013.86c-0,-288.245 -234.021,-522.27 -522.271,-522.27l-2421.59,-0c-288.246,-0 -522.267,234.025 -522.267,522.27l0,4192.17c0,288.25 234.021,522.271 522.267,522.271l2421.59,-0c288.25,-0 522.271,-234.021 522.271,-522.271l-0,-4192.17Z" style="fill:#f8f9fa;stroke:#212529;stroke-width:104.17px;"/></g><g><g><path d="M3136.45,1177.25l-0,-303.03l200.519,-0l-0,52.793l-136.481,-0l0,72.206l123.224,0l0,52.793l-123.224,0l0,125.238l-64.038,0Z" style="fill-rule:nonzero;"/><path d="M3465.76,1181.63c-23.003,-0 -42.86,-4.897 -59.57,-14.692c-16.71,-9.795 -29.602,-23.487 -38.678,-41.074c-9.075,-17.588 -13.612,-38.062 -13.612,-61.422c-0,-23.436 4.537,-43.969 13.612,-61.596c9.076,-17.628 21.968,-31.34 38.678,-41.134c16.71,-9.795 36.567,-14.693 59.57,-14.693c23.004,0 42.861,4.898 59.571,14.693c16.71,9.794 29.602,23.506 38.678,41.134c9.075,17.627 13.612,38.16 13.612,61.596c0,23.36 -4.537,43.834 -13.612,61.422c-9.076,17.587 -21.968,31.279 -38.678,41.074c-16.71,9.795 -36.567,14.692 -59.571,14.692Zm0.357,-48.768c10.376,-0 19.085,-2.989 26.129,-8.967c7.044,-5.978 12.361,-14.145 15.951,-24.503c3.591,-10.357 5.386,-22.125 5.386,-35.303c-0,-13.238 -1.795,-25.041 -5.386,-35.409c-3.59,-10.367 -8.907,-18.56 -15.951,-24.577c-7.044,-6.017 -15.753,-9.026 -26.129,-9.026c-10.615,0 -19.504,3.009 -26.665,9.026c-7.162,6.017 -12.538,14.21 -16.128,24.577c-3.591,10.368 -5.386,22.171 -5.386,35.409c0,13.178 1.795,24.946 5.386,35.303c3.59,10.358 8.966,18.525 16.128,24.503c7.161,5.978 16.05,8.967 26.665,8.967Z" style="fill-rule:nonzero;"/><path d="M3611.71,1177.25l0,-227.273l61.077,0l-0,39.655l2.367,-0c4.143,-14.086 11.093,-24.749 20.849,-31.989c9.757,-7.241 20.997,-10.861 33.722,-10.861c3.157,0 6.555,0.183 10.195,0.547c3.64,0.365 6.83,0.882 9.572,1.553l0,56.018c-2.899,-0.947 -6.962,-1.755 -12.19,-2.425c-5.229,-0.671 -10.043,-1.006 -14.443,-1.006c-9.212,-0 -17.454,1.997 -24.724,5.992c-7.27,3.995 -12.997,9.539 -17.179,16.631c-4.182,7.093 -6.273,15.295 -6.273,24.607l-0,128.551l-62.973,0Z" style="fill-rule:nonzero;"/><path d="M3766.77,1177.25l0,-227.273l60.014,0l-0,40.129l2.603,-0c4.735,-13.377 12.646,-23.903 23.733,-31.577c11.087,-7.674 24.325,-11.511 39.713,-11.511c15.586,0 28.844,3.882 39.774,11.645c10.93,7.764 18.229,18.245 21.897,31.443l2.368,-0c4.636,-13.041 13.041,-23.483 25.214,-31.325c12.173,-7.842 26.575,-11.763 43.205,-11.763c21.208,0 38.466,6.738 51.773,20.212c13.306,13.475 19.96,32.543 19.96,57.203l-0,152.817l-62.973,0l0,-140.388c0,-12.686 -3.344,-22.171 -10.031,-28.455c-6.688,-6.284 -15.063,-9.426 -25.124,-9.426c-11.424,0 -20.357,3.626 -26.798,10.877c-6.441,7.251 -9.661,16.804 -9.661,28.66l-0,138.732l-61.079,0l-0,-141.809c-0,-11.147 -3.187,-20.01 -9.559,-26.59c-6.373,-6.58 -14.748,-9.87 -25.125,-9.87c-7.004,0 -13.287,1.737 -18.851,5.209c-5.563,3.473 -9.967,8.351 -13.212,14.635c-3.245,6.283 -4.868,13.637 -4.868,22.06l-0,136.365l-62.973,0Z" style="fill-rule:nonzero;"/></g></g><g><g><path d="M2582.93,1596.13l0,151.515l-27.698,0l-65.875,-95.349l-1.123,0l-0,95.349l-32.02,0l0,-151.515l28.053,-0l65.461,95.29l1.301,-0l0,-95.29l31.901,-0Z" style="fill-rule:nonzero;"/><path d="M2644.84,1749.77c-7.23,0 -13.683,-1.265 -19.36,-3.795c-5.677,-2.53 -10.153,-6.3 -13.428,-11.311c-3.275,-5.011 -4.912,-11.26 -4.912,-18.747c-0,-6.333 1.149,-11.638 3.447,-15.914c2.299,-4.276 5.446,-7.721 9.441,-10.335c3.995,-2.614 8.549,-4.597 13.664,-5.948c5.114,-1.352 10.488,-2.299 16.12,-2.842c6.58,-0.65 11.894,-1.284 15.943,-1.9c4.049,-0.617 6.991,-1.544 8.826,-2.782c1.835,-1.238 2.753,-3.07 2.753,-5.497l-0,-0.414c-0,-4.696 -1.475,-8.326 -4.424,-10.89c-2.95,-2.565 -7.098,-3.848 -12.444,-3.848c-5.672,0 -10.188,1.241 -13.547,3.722c-3.358,2.48 -5.571,5.6 -6.637,9.358l-29.177,-2.367c1.479,-6.905 4.387,-12.885 8.722,-17.941c4.335,-5.055 9.946,-8.952 16.831,-11.689c6.885,-2.737 14.86,-4.106 23.926,-4.106c6.342,0 12.403,0.742 18.184,2.227c5.781,1.485 10.925,3.773 15.433,6.865c4.508,3.093 8.071,7.068 10.69,11.926c2.619,4.858 3.929,10.676 3.929,17.453l-0,76.645l-29.889,0l0,-15.743l-0.888,-0c-1.834,3.531 -4.273,6.643 -7.316,9.336c-3.043,2.693 -6.718,4.789 -11.023,6.289c-4.306,1.499 -9.26,2.248 -14.864,2.248Zm9.056,-21.72c4.626,-0 8.713,-0.927 12.259,-2.782c3.546,-1.855 6.325,-4.365 8.338,-7.532c2.012,-3.166 3.019,-6.732 3.019,-10.697l-0,-12.074c-0.948,0.621 -2.282,1.193 -4.003,1.716c-1.721,0.523 -3.635,0.991 -5.741,1.406c-2.106,0.414 -4.217,0.784 -6.333,1.109c-2.116,0.326 -4.037,0.612 -5.763,0.859c-3.709,0.532 -6.947,1.393 -9.714,2.581c-2.767,1.189 -4.918,2.782 -6.452,4.78c-1.534,1.997 -2.301,4.476 -2.301,7.435c0,4.321 1.569,7.601 4.706,9.84c3.137,2.239 7.132,3.359 11.985,3.359Z" style="fill-rule:nonzero;"/><path d="M2729.95,1747.64l-0,-113.636l30.006,-0l0,20.064l1.302,-0c2.367,-6.689 6.323,-11.951 11.867,-15.788c5.543,-3.837 12.162,-5.756 19.856,-5.756c7.793,0 14.422,1.941 19.887,5.823c5.465,3.881 9.115,9.122 10.949,15.721l1.183,-0c2.319,-6.521 6.521,-11.741 12.607,-15.662c6.087,-3.921 13.288,-5.882 21.603,-5.882c10.604,0 19.233,3.369 25.886,10.106c6.654,6.737 9.98,16.271 9.98,28.602l0,76.408l-31.486,0l0,-70.194c0,-6.343 -1.672,-11.086 -5.016,-14.228c-3.343,-3.141 -7.531,-4.712 -12.561,-4.712c-5.713,-0 -10.179,1.812 -13.399,5.438c-3.221,3.625 -4.831,8.402 -4.831,14.33l-0,69.366l-30.54,0l0,-70.905c0,-5.573 -1.593,-10.005 -4.779,-13.295c-3.186,-3.289 -7.374,-4.934 -12.563,-4.934c-3.501,-0 -6.643,0.868 -9.425,2.604c-2.781,1.736 -4.983,4.175 -6.606,7.317c-1.623,3.142 -2.434,6.819 -2.434,11.031l0,68.182l-31.486,0Z" style="fill-rule:nonzero;"/><path d="M2962.78,1749.83c-11.659,0 -21.698,-2.369 -30.118,-7.109c-8.419,-4.739 -14.895,-11.486 -19.427,-20.241c-4.533,-8.754 -6.799,-19.129 -6.799,-31.124c-0,-11.699 2.274,-21.963 6.821,-30.792c4.548,-8.828 10.945,-15.709 19.191,-20.641c8.246,-4.932 17.943,-7.398 29.089,-7.398c7.517,0 14.516,1.194 20.997,3.581c6.481,2.387 12.147,5.98 17.001,10.779c4.853,4.799 8.641,10.809 11.363,18.03c2.723,7.22 4.084,15.659 4.084,25.316l0,8.641l-95.939,-0l-0,-19.531l66.288,-0c-0.03,-4.518 -1.034,-8.53 -3.012,-12.037c-1.977,-3.507 -4.705,-6.264 -8.182,-8.271c-3.478,-2.008 -7.5,-3.012 -12.067,-3.012c-4.765,0 -8.987,1.107 -12.666,3.322c-3.68,2.214 -6.558,5.157 -8.634,8.826c-2.076,3.67 -3.143,7.749 -3.203,12.237l0,18.584c0,5.623 1.056,10.482 3.166,14.575c2.111,4.094 5.09,7.246 8.937,9.455c3.847,2.209 8.395,3.314 13.643,3.314c3.522,0 6.73,-0.498 9.626,-1.494c2.895,-0.996 5.388,-2.473 7.479,-4.431c2.092,-1.958 3.67,-4.363 4.735,-7.214l29.118,1.894c-1.479,7.024 -4.493,13.137 -9.04,18.341c-4.547,5.203 -10.414,9.237 -17.6,12.103c-7.186,2.865 -15.47,4.297 -24.851,4.297Z" style="fill-rule:nonzero;"/></g><path d="M4595.96,1966.94c0,-59.946 -48.67,-108.617 -108.616,-108.617l-1927.55,0c-59.946,0 -108.617,48.671 -108.617,108.617l0,217.233c0,59.95 48.671,108.621 108.617,108.621l1927.55,-0c59.946,-0 108.616,-48.671 108.616,-108.621l0,-217.233Z" style="fill:#fff;stroke:#212529;stroke-width:52.08px;"/></g><path d="M2451.18,2662.69l0,-151.515l102.094,-0l0,26.396l-70.075,0l0,36.104l64.809,-0l-0,26.396l-64.809,0l0,36.222l70.371,0l0,26.397l-102.39,-0Z" style="fill-rule:nonzero;"/><path d="M2575.17,2662.69l0,-113.636l30.007,-0l-0,20.064l1.301,-0c2.368,-6.689 6.323,-11.951 11.867,-15.788c5.544,-3.838 12.162,-5.756 19.857,-5.756c7.792,-0 14.421,1.941 19.886,5.823c5.465,3.881 9.115,9.122 10.949,15.721l1.184,-0c2.318,-6.521 6.52,-11.741 12.607,-15.662c6.086,-3.922 13.287,-5.882 21.603,-5.882c10.604,-0 19.232,3.369 25.886,10.106c6.653,6.737 9.98,16.271 9.98,28.602l-0,76.408l-31.486,-0l-0,-70.194c-0,-6.343 -1.672,-11.086 -5.016,-14.228c-3.344,-3.142 -7.531,-4.712 -12.562,-4.712c-5.712,-0 -10.178,1.812 -13.399,5.438c-3.221,3.625 -4.831,8.402 -4.831,14.33l0,69.366l-30.539,-0l-0,-70.905c-0,-5.573 -1.593,-10.005 -4.78,-13.295c-3.186,-3.29 -7.373,-4.934 -12.562,-4.934c-3.502,-0 -6.644,0.868 -9.425,2.604c-2.782,1.736 -4.984,4.175 -6.607,7.317c-1.622,3.142 -2.434,6.819 -2.434,11.03l0,68.183l-31.486,-0Z" style="fill-rule:nonzero;"/><path d="M2788.65,2664.82c-7.23,0 -13.684,-1.265 -19.361,-3.795c-5.677,-2.53 -10.152,-6.3 -13.427,-11.311c-3.275,-5.011 -4.913,-11.26 -4.913,-18.747c0,-6.333 1.15,-11.638 3.448,-15.914c2.298,-4.276 5.445,-7.721 9.44,-10.335c3.995,-2.614 8.55,-4.597 13.664,-5.948c5.115,-1.352 10.488,-2.299 16.121,-2.842c6.58,-0.65 11.894,-1.284 15.943,-1.9c4.049,-0.617 6.991,-1.544 8.826,-2.782c1.835,-1.238 2.752,-3.071 2.752,-5.497l0,-0.414c0,-4.696 -1.474,-8.326 -4.424,-10.891c-2.949,-2.564 -7.097,-3.847 -12.444,-3.847c-5.672,0 -10.187,1.241 -13.546,3.721c-3.359,2.481 -5.571,5.601 -6.637,9.359l-29.178,-2.367c1.48,-6.905 4.387,-12.885 8.723,-17.941c4.335,-5.055 9.945,-8.952 16.831,-11.689c6.885,-2.737 14.86,-4.106 23.925,-4.106c6.343,-0 12.404,0.742 18.185,2.227c5.78,1.485 10.925,3.773 15.433,6.865c4.507,3.092 8.071,7.068 10.69,11.926c2.619,4.858 3.929,10.676 3.929,17.453l-0,76.645l-29.889,-0l-0,-15.743l-0.888,-0c-1.834,3.531 -4.273,6.643 -7.316,9.336c-3.043,2.693 -6.718,4.789 -11.023,6.288c-4.306,1.5 -9.261,2.249 -14.864,2.249Zm9.056,-21.72c4.626,-0 8.712,-0.928 12.258,-2.782c3.547,-1.855 6.326,-4.365 8.338,-7.532c2.013,-3.166 3.019,-6.732 3.019,-10.697l0,-12.074c-0.947,0.621 -2.281,1.193 -4.002,1.716c-1.722,0.523 -3.635,0.991 -5.741,1.405c-2.107,0.415 -4.218,0.785 -6.333,1.11c-2.116,0.326 -4.037,0.612 -5.763,0.859c-3.71,0.532 -6.948,1.393 -9.715,2.581c-2.767,1.189 -4.917,2.782 -6.451,4.78c-1.534,1.997 -2.301,4.476 -2.301,7.435c-0,4.321 1.568,7.601 4.705,9.84c3.137,2.239 7.132,3.359 11.986,3.359Z" style="fill-rule:nonzero;"/><path d="M2873.73,2662.69l0,-113.636l31.517,-0l-0,113.636l-31.517,-0Zm15.907,-128.285c-4.686,0 -8.706,-1.566 -12.06,-4.698c-3.353,-3.132 -5.03,-6.892 -5.03,-11.282c-0,-4.34 1.677,-8.076 5.03,-11.208c3.354,-3.132 7.349,-4.698 11.986,-4.698c4.734,-0 8.766,1.566 12.096,4.698c3.329,3.132 4.993,6.868 4.993,11.208c0,4.39 -1.664,8.15 -4.993,11.282c-3.33,3.132 -7.337,4.698 -12.022,4.698Z" style="fill-rule:nonzero;"/><rect x="2923.18" y="2511.17" width="31.486" height="151.515" style="fill-rule:nonzero;"/><path d="M4605.42,2868.41c-0,-59.95 -48.671,-108.616 -108.617,-108.616l-1927.55,-0c-59.946,-0 -108.616,48.666 -108.616,108.616l-0,217.234c-0,59.946 48.67,108.616 108.616,108.616l1927.55,0c59.946,0 108.617,-48.67 108.617,-108.616l-0,-217.234Z" style="fill:#fff;stroke:#212529;stroke-width:52.08px;"/><g><path d="M2721.46,3795.56c0,-33.954 -28.04,-61.517 -62.579,-61.517l-125.166,0c-34.538,0 -62.583,27.563 -62.583,61.517l0,123.029c0,33.95 28.045,61.517 62.583,61.517l125.166,-0c34.539,-0 62.579,-27.567 62.579,-61.517l0,-123.029Z" style="fill:#fff;stroke:#212529;stroke-width:52.54px;"/><path d="M2884.8,3919.29l0,-94.698l25.439,0l0,16.721l1.104,-0c2.007,-5.574 5.36,-9.96 10.06,-13.157c4.7,-3.198 10.311,-4.797 16.834,-4.797c6.607,0 12.227,1.618 16.86,4.853c4.633,3.234 7.727,7.601 9.282,13.101l1.004,-0c1.965,-5.434 5.528,-9.785 10.688,-13.052c5.16,-3.268 11.265,-4.902 18.314,-4.902c8.99,0 16.306,2.808 21.946,8.422c5.641,5.615 8.461,13.56 8.461,23.835l0,63.674l-26.693,0l-0,-58.495c-0,-5.286 -1.418,-9.239 -4.253,-11.857c-2.835,-2.618 -6.384,-3.927 -10.65,-3.927c-4.842,-0 -8.629,1.51 -11.359,4.532c-2.73,3.021 -4.095,7.002 -4.095,11.941l-0,57.806l-25.891,0l-0,-59.088c-0,-4.644 -1.351,-8.337 -4.052,-11.079c-2.701,-2.741 -6.251,-4.112 -10.65,-4.112c-2.969,-0 -5.633,0.723 -7.991,2.17c-2.358,1.447 -4.225,3.48 -5.601,6.098c-1.375,2.618 -2.063,5.682 -2.063,9.192l-0,56.819l-26.694,0Z" style="fill-rule:nonzero;"/><path d="M3065.79,3921.07c-6.13,0 -11.601,-1.054 -16.414,-3.162c-4.812,-2.108 -8.607,-5.251 -11.383,-9.427c-2.777,-4.176 -4.165,-9.383 -4.165,-15.622c-0,-5.278 0.974,-9.698 2.923,-13.262c1.948,-3.563 4.616,-6.434 8.003,-8.612c3.387,-2.179 7.248,-3.831 11.584,-4.957c4.336,-1.127 8.892,-1.916 13.667,-2.368c5.578,-0.542 10.084,-1.07 13.516,-1.584c3.433,-0.514 5.927,-1.286 7.483,-2.318c1.556,-1.032 2.333,-2.559 2.333,-4.581l0,-0.345c0,-3.913 -1.25,-6.938 -3.75,-9.075c-2.501,-2.138 -6.017,-3.206 -10.55,-3.206c-4.809,-0 -8.637,1.033 -11.484,3.101c-2.848,2.067 -4.724,4.666 -5.627,7.799l-24.737,-1.973c1.255,-5.755 3.72,-10.738 7.395,-14.951c3.675,-4.213 8.432,-7.46 14.269,-9.741c5.837,-2.281 12.599,-3.422 20.284,-3.422c5.377,0 10.516,0.619 15.417,1.856c4.9,1.237 9.261,3.144 13.083,5.721c3.822,2.577 6.843,5.89 9.063,9.938c2.221,4.049 3.331,8.897 3.331,14.544l-0,63.872l-25.339,0l-0,-13.119l-0.753,-0c-1.555,2.942 -3.622,5.536 -6.202,7.78c-2.581,2.244 -5.696,3.991 -9.346,5.24c-3.65,1.25 -7.85,1.874 -12.601,1.874Zm7.678,-18.1c3.922,-0 7.386,-0.773 10.392,-2.318c3.006,-1.546 5.363,-3.638 7.069,-6.277c1.706,-2.639 2.559,-5.61 2.559,-8.914l0,-10.062c-0.803,0.517 -1.934,0.994 -3.393,1.43c-1.459,0.435 -3.082,0.826 -4.867,1.171c-1.786,0.345 -3.576,0.654 -5.369,0.925c-1.794,0.271 -3.423,0.51 -4.886,0.715c-3.145,0.444 -5.89,1.161 -8.236,2.152c-2.346,0.99 -4.169,2.318 -5.469,3.983c-1.301,1.664 -1.951,3.73 -1.951,6.196c0,3.6 1.33,6.334 3.989,8.2c2.66,1.866 6.047,2.799 10.162,2.799Z" style="fill-rule:nonzero;"/><rect x="3137.95" y="3793.03" width="26.694" height="126.264" style="fill-rule:nonzero;"/><path d="M3223.7,3921.12c-9.885,-0 -18.396,-1.975 -25.534,-5.925c-7.137,-3.949 -12.627,-9.572 -16.47,-16.867c-3.843,-7.296 -5.764,-15.942 -5.764,-25.938c-0,-9.749 1.928,-18.302 5.783,-25.66c3.855,-7.357 9.279,-13.09 16.27,-17.2c6.991,-4.111 15.211,-6.166 24.661,-6.166c6.373,0 12.306,0.995 17.801,2.984c5.494,1.989 10.298,4.984 14.413,8.983c4.114,3.999 7.326,9.008 9.634,15.025c2.308,6.017 3.462,13.049 3.462,21.097l0,7.201l-81.336,-0l-0,-16.276l56.198,-0c-0.026,-3.765 -0.877,-7.109 -2.553,-10.031c-1.677,-2.922 -3.989,-5.22 -6.937,-6.893c-2.948,-1.673 -6.358,-2.509 -10.23,-2.509c-4.04,-0 -7.619,0.922 -10.738,2.768c-3.12,1.845 -5.56,4.297 -7.32,7.355c-1.76,3.058 -2.665,6.458 -2.715,10.198l-0,15.486c-0,4.686 0.894,8.735 2.684,12.146c1.789,3.412 4.315,6.038 7.576,7.879c3.262,1.842 7.117,2.762 11.567,2.762c2.985,0 5.705,-0.415 8.16,-1.245c2.455,-0.83 4.568,-2.061 6.341,-3.693c1.773,-1.632 3.111,-3.635 4.014,-6.011l24.686,1.578c-1.254,5.853 -3.809,10.948 -7.664,15.284c-3.855,4.336 -8.829,7.698 -14.921,10.086c-6.092,2.388 -13.115,3.582 -21.068,3.582Z" style="fill-rule:nonzero;"/></g><g><path d="M2721.46,4188.05c0,-33.954 -28.044,-61.516 -62.583,-61.516l-125.166,-0c-34.538,-0 -62.579,27.562 -62.579,61.516l0,123.03c0,33.95 28.041,61.516 62.579,61.516l125.166,0c34.539,0 62.583,-27.566 62.583,-61.516l0,-123.03Z" style="fill:#fff;stroke:#212529;stroke-width:52.54px;"/><path d="M2944.26,4220.04l-0,19.729l-59.46,-0l0,-19.729l59.46,0Zm-45.862,94.698l-0,-101.554c-0,-6.855 1.371,-12.548 4.114,-17.078c2.744,-4.529 6.498,-7.92 11.265,-10.172c4.767,-2.252 10.178,-3.378 16.232,-3.378c4.089,-0 7.842,0.312 11.259,0.937c3.416,0.625 5.952,1.184 7.607,1.677l-4.716,19.679c-1.054,-0.321 -2.345,-0.623 -3.876,-0.906c-1.53,-0.284 -3.098,-0.426 -4.704,-0.426c-3.914,0 -6.64,0.892 -8.179,2.676c-1.539,1.784 -2.308,4.278 -2.308,7.484l-0,101.061l-26.694,-0Z" style="fill-rule:nonzero;"/><path d="M2996.05,4316.57c-9.885,0 -18.396,-1.974 -25.534,-5.924c-7.138,-3.95 -12.628,-9.572 -16.47,-16.868c-3.843,-7.295 -5.764,-15.941 -5.764,-25.937c-0,-9.749 1.927,-18.303 5.783,-25.66c3.855,-7.357 9.278,-13.091 16.269,-17.201c6.992,-4.11 15.212,-6.165 24.662,-6.165c6.373,0 12.306,0.995 17.8,2.984c5.495,1.989 10.299,4.983 14.414,8.983c4.114,3.999 7.325,9.007 9.634,15.025c2.308,6.017 3.462,13.049 3.462,21.097l-0,7.2l-81.336,0l-0,-16.276l56.198,0c-0.026,-3.764 -0.877,-7.108 -2.553,-10.03c-1.677,-2.923 -3.989,-5.22 -6.937,-6.893c-2.949,-1.673 -6.358,-2.51 -10.23,-2.51c-4.04,0 -7.619,0.923 -10.739,2.768c-3.119,1.846 -5.559,4.298 -7.319,7.356c-1.76,3.058 -2.665,6.457 -2.716,10.197l0,15.487c0,4.686 0.895,8.735 2.685,12.146c1.789,3.412 4.315,6.038 7.576,7.879c3.262,1.841 7.117,2.762 11.566,2.762c2.986,-0 5.706,-0.415 8.161,-1.245c2.454,-0.83 4.568,-2.061 6.341,-3.693c1.773,-1.632 3.111,-3.636 4.014,-6.011l24.686,1.578c-1.254,5.853 -3.809,10.948 -7.664,15.284c-3.855,4.336 -8.829,7.698 -14.921,10.086c-6.093,2.387 -13.115,3.581 -21.068,3.581Z" style="fill-rule:nonzero;"/><path d="M3055.05,4314.74l0,-94.698l25.439,0l0,16.72l1.104,0c2.007,-5.573 5.36,-9.959 10.06,-13.157c4.7,-3.197 10.311,-4.796 16.834,-4.796c6.607,0 12.227,1.617 16.86,4.852c4.633,3.235 7.727,7.602 9.282,13.101l1.004,0c1.965,-5.433 5.528,-9.784 10.688,-13.052c5.16,-3.267 11.265,-4.901 18.314,-4.901c8.99,0 16.305,2.807 21.946,8.422c5.641,5.614 8.461,13.559 8.461,23.835l0,63.674l-26.694,-0l0,-58.496c0,-5.286 -1.417,-9.238 -4.252,-11.856c-2.835,-2.618 -6.385,-3.928 -10.65,-3.928c-4.842,0 -8.629,1.511 -11.359,4.532c-2.73,3.022 -4.095,7.002 -4.095,11.942l-0,57.806l-25.891,-0l-0,-59.088c-0,-4.644 -1.351,-8.338 -4.052,-11.079c-2.702,-2.742 -6.252,-4.113 -10.651,-4.113c-2.968,0 -5.632,0.724 -7.99,2.171c-2.358,1.447 -4.225,3.479 -5.601,6.098c-1.376,2.618 -2.063,5.682 -2.063,9.192l-0,56.819l-26.694,-0Z" style="fill-rule:nonzero;"/><path d="M3236.04,4316.52c-6.13,0 -11.601,-1.054 -16.414,-3.162c-4.813,-2.109 -8.607,-5.251 -11.384,-9.427c-2.776,-4.176 -4.164,-9.383 -4.164,-15.622c-0,-5.278 0.974,-9.699 2.923,-13.262c1.948,-3.563 4.616,-6.434 8.003,-8.612c3.387,-2.179 7.248,-3.831 11.584,-4.958c4.336,-1.126 8.892,-1.915 13.667,-2.368c5.578,-0.542 10.084,-1.069 13.516,-1.583c3.433,-0.514 5.927,-1.287 7.483,-2.318c1.555,-1.032 2.333,-2.559 2.333,-4.581l0,-0.345c0,-3.913 -1.25,-6.938 -3.75,-9.076c-2.501,-2.137 -6.017,-3.206 -10.55,-3.206c-4.809,0 -8.637,1.034 -11.484,3.101c-2.848,2.068 -4.724,4.667 -5.627,7.799l-24.737,-1.973c1.255,-5.754 3.72,-10.737 7.395,-14.95c3.675,-4.213 8.432,-7.46 14.269,-9.741c5.837,-2.281 12.599,-3.422 20.284,-3.422c5.377,0 10.516,0.619 15.416,1.856c4.901,1.237 9.262,3.144 13.084,5.721c3.822,2.577 6.843,5.89 9.063,9.938c2.221,4.049 3.331,8.897 3.331,14.544l-0,63.872l-25.339,-0l-0,-13.12l-0.753,0c-1.555,2.943 -3.623,5.536 -6.203,7.781c-2.58,2.244 -5.695,3.991 -9.345,5.24c-3.65,1.249 -7.851,1.874 -12.601,1.874Zm7.677,-18.101c3.922,0 7.387,-0.772 10.393,-2.318c3.006,-1.545 5.363,-3.637 7.069,-6.276c1.706,-2.639 2.559,-5.611 2.559,-8.915l0,-10.062c-0.803,0.518 -1.934,0.995 -3.393,1.43c-1.459,0.436 -3.082,0.827 -4.867,1.172c-1.786,0.345 -3.576,0.653 -5.369,0.925c-1.794,0.271 -3.423,0.509 -4.886,0.715c-3.145,0.444 -5.89,1.161 -8.236,2.151c-2.346,0.991 -4.169,2.319 -5.469,3.983c-1.301,1.665 -1.951,3.73 -1.951,6.196c-0,3.601 1.33,6.335 3.989,8.201c2.66,1.866 6.047,2.798 10.161,2.798Z" style="fill-rule:nonzero;"/><rect x="3308.2" y="4188.48" width="26.694" height="126.264" style="fill-rule:nonzero;"/><path d="M3393.95,4316.57c-9.885,0 -18.396,-1.974 -25.534,-5.924c-7.137,-3.95 -12.628,-9.572 -16.47,-16.868c-3.843,-7.295 -5.764,-15.941 -5.764,-25.937c-0,-9.749 1.927,-18.303 5.783,-25.66c3.855,-7.357 9.278,-13.091 16.27,-17.201c6.991,-4.11 15.211,-6.165 24.661,-6.165c6.373,0 12.306,0.995 17.801,2.984c5.494,1.989 10.298,4.983 14.413,8.983c4.114,3.999 7.325,9.007 9.634,15.025c2.308,6.017 3.462,13.049 3.462,21.097l0,7.2l-81.336,0l-0,-16.276l56.198,0c-0.026,-3.764 -0.877,-7.108 -2.553,-10.03c-1.677,-2.923 -3.989,-5.22 -6.937,-6.893c-2.948,-1.673 -6.358,-2.51 -10.23,-2.51c-4.04,0 -7.619,0.923 -10.739,2.768c-3.119,1.846 -5.559,4.298 -7.319,7.356c-1.76,3.058 -2.665,6.457 -2.715,10.197l-0,15.487c-0,4.686 0.894,8.735 2.684,12.146c1.789,3.412 4.315,6.038 7.576,7.879c3.262,1.841 7.117,2.762 11.566,2.762c2.986,-0 5.706,-0.415 8.161,-1.245c2.455,-0.83 4.568,-2.061 6.341,-3.693c1.773,-1.632 3.111,-3.636 4.014,-6.011l24.686,1.578c-1.254,5.853 -3.809,10.948 -7.664,15.284c-3.855,4.336 -8.829,7.698 -14.921,10.086c-6.092,2.387 -13.115,3.581 -21.068,3.581Z" style="fill-rule:nonzero;"/></g><g><path d="M2721.46,4580.54c0,-33.954 -28.044,-61.517 -62.583,-61.517l-125.166,0c-34.538,0 -62.579,27.563 -62.579,61.517l0,123.029c0,33.95 28.041,61.517 62.579,61.517l125.166,-0c34.539,-0 62.583,-27.567 62.583,-61.517l0,-123.029Z" style="fill:#fff;stroke:#212529;stroke-width:52.54px;"/><path d="M2911.5,4636.37l-0,54.747l-26.694,0l0,-94.698l25.439,0l0,16.721l1.104,-0c2.157,-5.525 5.743,-9.898 10.757,-13.12c5.013,-3.222 11.095,-4.834 18.245,-4.834c6.698,0 12.538,1.441 17.518,4.322c4.98,2.882 8.848,6.982 11.603,12.3c2.755,5.318 4.121,11.648 4.096,18.988l-0,60.321l-26.694,0l0,-55.635c0.025,-5.787 -1.482,-10.316 -4.522,-13.588c-3.04,-3.272 -7.235,-4.908 -12.588,-4.908c-3.596,0 -6.767,0.767 -9.515,2.3c-2.747,1.533 -4.886,3.744 -6.416,6.634c-1.531,2.889 -2.308,6.373 -2.333,10.45Z" style="fill-rule:nonzero;"/><path d="M3031.67,4692.94c-9.751,-0 -18.168,-2.041 -25.252,-6.122c-7.083,-4.081 -12.548,-9.786 -16.395,-17.114c-3.847,-7.329 -5.77,-15.859 -5.77,-25.593c0,-9.765 1.923,-18.32 5.77,-25.665c3.847,-7.345 9.312,-13.058 16.395,-17.14c7.084,-4.081 15.501,-6.122 25.252,-6.122c9.751,0 18.168,2.041 25.251,6.122c7.084,4.082 12.549,9.795 16.396,17.14c3.846,7.345 5.77,15.9 5.77,25.665c-0,9.734 -1.924,18.264 -5.77,25.593c-3.847,7.328 -9.312,13.033 -16.396,17.114c-7.083,4.081 -15.5,6.122 -25.251,6.122Zm0.151,-20.32c4.398,-0 8.09,-1.246 11.076,-3.737c2.986,-2.49 5.24,-5.894 6.762,-10.209c1.522,-4.316 2.283,-9.219 2.283,-14.71c-0,-5.516 -0.761,-10.434 -2.283,-14.754c-1.522,-4.32 -3.776,-7.733 -6.762,-10.24c-2.986,-2.508 -6.678,-3.761 -11.076,-3.761c-4.5,-0 -8.267,1.253 -11.303,3.761c-3.036,2.507 -5.315,5.92 -6.837,10.24c-1.522,4.32 -2.283,9.238 -2.283,14.754c0,5.491 0.761,10.394 2.283,14.71c1.522,4.315 3.801,7.719 6.837,10.209c3.036,2.491 6.803,3.737 11.303,3.737Z" style="fill-rule:nonzero;"/><path d="M3120.23,4636.37l-0,54.747l-26.694,0l0,-94.698l25.439,0l0,16.721l1.104,-0c2.157,-5.525 5.743,-9.898 10.757,-13.12c5.013,-3.222 11.095,-4.834 18.245,-4.834c6.698,0 12.538,1.441 17.518,4.322c4.98,2.882 8.848,6.982 11.603,12.3c2.755,5.318 4.121,11.648 4.096,18.988l-0,60.321l-26.694,0l0,-55.635c0.025,-5.787 -1.482,-10.316 -4.522,-13.588c-3.04,-3.272 -7.235,-4.908 -12.588,-4.908c-3.596,0 -6.767,0.767 -9.515,2.3c-2.747,1.533 -4.886,3.744 -6.416,6.634c-1.531,2.889 -2.308,6.373 -2.333,10.45Z" style="fill-rule:nonzero;"/><rect x="3198.31" y="4628.88" width="58.607" height="20.813" style="fill-rule:nonzero;"/><path d="M3278.69,4691.12l0,-126.263l26.694,-0l-0,47.497l0.802,-0c1.188,-2.582 2.898,-5.194 5.131,-7.837c2.233,-2.642 5.16,-4.858 8.781,-6.646c3.621,-1.788 8.116,-2.682 13.485,-2.682c7.058,0 13.549,1.797 19.474,5.389c5.926,3.592 10.667,8.997 14.226,16.214c3.558,7.218 5.338,16.244 5.338,27.078c-0,10.571 -1.73,19.482 -5.188,26.732c-3.458,7.25 -8.141,12.737 -14.049,16.461c-5.908,3.724 -12.525,5.586 -19.851,5.586c-5.185,-0 -9.582,-0.845 -13.191,-2.534c-3.609,-1.689 -6.561,-3.814 -8.856,-6.375c-2.296,-2.56 -4.062,-5.147 -5.3,-7.761l-1.154,-0l-0,15.141l-26.342,0Zm26.142,-47.349c0,5.623 0.796,10.528 2.389,14.717c1.593,4.188 3.893,7.444 6.9,9.766c3.006,2.322 6.65,3.483 10.932,3.483c4.382,0 8.077,-1.181 11.083,-3.545c3.006,-2.363 5.29,-5.647 6.849,-9.852c1.56,-4.205 2.34,-9.061 2.34,-14.569c0,-5.474 -0.771,-10.29 -2.315,-14.445c-1.543,-4.155 -3.818,-7.398 -6.824,-9.729c-3.006,-2.331 -6.717,-3.496 -11.133,-3.496c-4.315,0 -7.976,1.132 -10.982,3.397c-3.007,2.265 -5.299,5.467 -6.875,9.606c-1.576,4.139 -2.364,9.028 -2.364,14.667Z" style="fill-rule:nonzero;"/><path d="M3387.8,4691.12l-0,-94.698l26.719,0l0,94.698l-26.719,0Zm13.485,-106.905c-3.972,0 -7.38,-1.305 -10.224,-3.915c-2.843,-2.609 -4.265,-5.743 -4.265,-9.402c0,-3.616 1.422,-6.73 4.265,-9.34c2.844,-2.61 6.231,-3.915 10.161,-3.915c4.014,0 7.433,1.305 10.255,3.915c2.823,2.61 4.234,5.724 4.234,9.34c-0,3.659 -1.411,6.793 -4.234,9.402c-2.822,2.61 -6.22,3.915 -10.192,3.915Z" style="fill-rule:nonzero;"/><path d="M3456.42,4636.37l-0,54.747l-26.694,0l-0,-94.698l25.439,0l0,16.721l1.104,-0c2.157,-5.525 5.743,-9.898 10.756,-13.12c5.014,-3.222 11.096,-4.834 18.246,-4.834c6.698,0 12.537,1.441 17.517,4.322c4.981,2.882 8.848,6.982 11.604,12.3c2.755,5.318 4.121,11.648 4.096,18.988l-0,60.321l-26.694,0l0,-55.635c0.025,-5.787 -1.482,-10.316 -4.522,-13.588c-3.04,-3.272 -7.236,-4.908 -12.588,-4.908c-3.596,0 -6.768,0.767 -9.515,2.3c-2.747,1.533 -4.886,3.744 -6.416,6.634c-1.531,2.889 -2.309,6.373 -2.333,10.45Z" style="fill-rule:nonzero;"/><path d="M3560.53,4692.9c-6.129,-0 -11.601,-1.055 -16.414,-3.163c-4.812,-2.108 -8.607,-5.251 -11.383,-9.426c-2.777,-4.176 -4.165,-9.384 -4.165,-15.623c0,-5.278 0.974,-9.698 2.923,-13.262c1.949,-3.563 4.616,-6.434 8.003,-8.612c3.387,-2.178 7.249,-3.831 11.584,-4.957c4.336,-1.127 8.892,-1.916 13.667,-2.368c5.578,-0.542 10.084,-1.07 13.517,-1.584c3.432,-0.514 5.926,-1.286 7.482,-2.318c1.556,-1.032 2.333,-2.559 2.333,-4.581l0,-0.345c0,-3.913 -1.25,-6.938 -3.75,-9.075c-2.5,-2.138 -6.017,-3.206 -10.55,-3.206c-4.809,-0 -8.637,1.033 -11.484,3.101c-2.848,2.067 -4.723,4.667 -5.627,7.799l-24.737,-1.973c1.255,-5.754 3.72,-10.738 7.395,-14.951c3.676,-4.213 8.432,-7.46 14.269,-9.741c5.837,-2.281 12.599,-3.422 20.284,-3.422c5.377,0 10.516,0.619 15.417,1.856c4.9,1.237 9.262,3.145 13.083,5.721c3.822,2.577 6.843,5.89 9.063,9.938c2.221,4.049 3.331,8.897 3.331,14.545l-0,63.871l-25.339,0l-0,-13.119l-0.753,-0c-1.555,2.942 -3.622,5.536 -6.202,7.78c-2.58,2.244 -5.696,3.991 -9.346,5.24c-3.65,1.25 -7.85,1.875 -12.601,1.875Zm7.678,-18.101c3.922,-0 7.386,-0.773 10.392,-2.318c3.007,-1.546 5.363,-3.638 7.069,-6.277c1.706,-2.639 2.559,-5.61 2.559,-8.914l0,-10.062c-0.803,0.517 -1.934,0.994 -3.393,1.43c-1.459,0.436 -3.082,0.826 -4.867,1.171c-1.786,0.345 -3.575,0.654 -5.369,0.925c-1.794,0.271 -3.423,0.51 -4.886,0.715c-3.145,0.444 -5.89,1.161 -8.236,2.152c-2.345,0.991 -4.169,2.318 -5.469,3.983c-1.301,1.664 -1.951,3.73 -1.951,6.196c0,3.601 1.33,6.334 3.989,8.2c2.66,1.866 6.047,2.799 10.162,2.799Z" style="fill-rule:nonzero;"/><path d="M3632.69,4691.12l-0,-94.698l25.89,0l-0,16.523l1.003,0c1.756,-5.869 4.702,-10.312 8.838,-13.329c4.136,-3.016 8.9,-4.525 14.294,-4.525c1.338,0 2.779,0.076 4.322,0.228c1.543,0.152 2.895,0.368 4.058,0.647l-0,23.341c-1.229,-0.394 -2.952,-0.731 -5.168,-1.011c-2.216,-0.279 -4.257,-0.419 -6.122,-0.419c-3.905,0 -7.399,0.833 -10.48,2.497c-3.082,1.665 -5.51,3.975 -7.282,6.93c-1.773,2.955 -2.66,6.373 -2.66,10.253l0,53.563l-26.693,0Z" style="fill-rule:nonzero;"/><path d="M3717.89,4726.46c-3.387,0 -6.552,-0.256 -9.496,-0.77c-2.943,-0.514 -5.381,-1.153 -7.313,-1.918l6.021,-19.63c4.717,1.431 8.697,1.807 11.942,1.128c3.245,-0.678 5.821,-3.158 7.728,-7.441l1.555,-3.995l-34.572,-97.411l28.099,0l19.971,69.544l1.003,0l20.121,-69.544l28.299,0.099l-37.482,104.859c-1.789,5.03 -4.225,9.428 -7.307,13.193c-3.081,3.765 -6.956,6.687 -11.622,8.767c-4.667,2.08 -10.316,3.119 -16.947,3.119Z" style="fill-rule:nonzero;"/></g><path d="M2554.37,3460.49c-1.035,-3.561 -2.495,-6.735 -4.38,-9.522c-1.884,-2.786 -4.165,-5.164 -6.843,-7.131c-2.678,-1.968 -5.741,-3.463 -9.189,-4.484c-3.448,-1.021 -7.228,-1.531 -11.341,-1.531c-7.734,-0 -14.528,1.918 -20.383,5.756c-5.854,3.837 -10.411,9.425 -13.671,16.764c-3.26,7.339 -4.891,16.266 -4.891,26.782c0,10.574 1.603,19.561 4.809,26.959c3.206,7.398 7.744,13.031 13.613,16.898c5.869,3.867 12.809,5.801 20.819,5.801c7.23,-0 13.422,-1.293 18.576,-3.877c5.154,-2.585 9.098,-6.25 11.831,-10.995c2.732,-4.745 4.099,-10.333 4.099,-16.764l6.51,0.917l-39.004,-0l0,-24.088l63.388,-0l0,19.117c0,13.277 -2.814,24.697 -8.441,34.261c-5.628,9.564 -13.372,16.918 -23.231,22.062c-9.859,5.144 -21.161,7.716 -33.906,7.716c-14.215,-0 -26.693,-3.142 -37.435,-9.426c-10.742,-6.283 -19.114,-15.23 -25.117,-26.84c-6.002,-11.61 -9.004,-25.405 -9.004,-41.385c0,-12.311 1.793,-23.286 5.379,-32.923c3.586,-9.637 8.604,-17.812 15.055,-24.525c6.451,-6.713 13.973,-11.817 22.565,-15.314c8.592,-3.497 17.894,-5.245 27.906,-5.245c8.582,-0 16.575,1.24 23.978,3.721c7.403,2.48 13.978,5.992 19.723,10.535c5.746,4.542 10.444,9.93 14.094,16.165c3.65,6.234 5.988,13.099 7.013,20.596l-32.522,0Z" style="fill-rule:nonzero;"/><path d="M2659.81,3565.25c-11.66,-0 -21.699,-2.37 -30.118,-7.11c-8.419,-4.739 -14.895,-11.486 -19.428,-20.241c-4.532,-8.754 -6.799,-19.129 -6.799,-31.124c0,-11.699 2.274,-21.963 6.822,-30.792c4.547,-8.828 10.944,-15.708 19.19,-20.641c8.247,-4.932 17.943,-7.398 29.09,-7.398c7.517,0 14.516,1.194 20.996,3.581c6.481,2.387 12.148,5.98 17.001,10.779c4.853,4.799 8.641,10.809 11.364,18.03c2.723,7.22 4.084,15.659 4.084,25.316l-0,8.641l-95.94,0l0,-19.531l66.288,-0c-0.03,-4.518 -1.034,-8.53 -3.011,-12.037c-1.978,-3.507 -4.705,-6.264 -8.183,-8.271c-3.477,-2.008 -7.499,-3.012 -12.066,-3.012c-4.765,0 -8.987,1.108 -12.667,3.322c-3.679,2.215 -6.557,5.157 -8.633,8.826c-2.076,3.67 -3.144,7.749 -3.203,12.238l-0,18.583c-0,5.623 1.055,10.482 3.166,14.576c2.111,4.093 5.09,7.245 8.937,9.454c3.847,2.21 8.394,3.314 13.642,3.314c3.522,0 6.731,-0.498 9.626,-1.494c2.895,-0.996 5.389,-2.473 7.48,-4.431c2.091,-1.958 3.669,-4.363 4.734,-7.213l29.119,1.893c-1.48,7.024 -4.493,13.137 -9.04,18.341c-4.547,5.203 -10.414,9.237 -17.6,12.103c-7.187,2.865 -15.47,4.298 -24.851,4.298Z" style="fill-rule:nonzero;"/><path d="M2760.9,3497.37l0,65.696l-31.486,0l-0,-113.636l30.006,-0l0,20.064l1.302,-0c2.545,-6.629 6.774,-11.877 12.688,-15.744c5.914,-3.866 13.088,-5.8 21.522,-5.8c7.9,0 14.788,1.729 20.662,5.186c5.874,3.458 10.437,8.378 13.687,14.76c3.25,6.382 4.86,13.977 4.831,22.786l0,72.384l-31.486,0l-0,-66.762c0.029,-6.944 -1.749,-12.379 -5.334,-16.305c-3.586,-3.926 -8.535,-5.889 -14.848,-5.889c-4.242,-0 -7.983,0.92 -11.224,2.759c-3.24,1.84 -5.763,4.493 -7.568,7.961c-1.805,3.467 -2.723,7.647 -2.752,12.54Z" style="fill-rule:nonzero;"/><path d="M2893.18,3564.9c-8.641,-0 -16.447,-2.235 -23.415,-6.703c-6.969,-4.469 -12.493,-11.053 -16.572,-19.753c-4.079,-8.701 -6.119,-19.393 -6.119,-32.079c0,-13.001 2.099,-23.832 6.296,-32.493c4.197,-8.661 9.79,-15.146 16.779,-19.457c6.989,-4.311 14.647,-6.466 22.972,-6.466c6.333,0 11.635,1.073 15.906,3.218c4.271,2.146 7.723,4.804 10.357,7.975c2.635,3.172 4.652,6.306 6.052,9.404l0.947,0l-0,-56.996l31.486,0l0,151.515l-31.071,0l-0,-18.169l-1.362,-0c-1.46,3.136 -3.543,6.241 -6.251,9.313c-2.708,3.073 -6.19,5.623 -10.446,7.65c-4.257,2.027 -9.443,3.041 -15.559,3.041Zm10.002,-25.094c5.05,-0 9.349,-1.393 12.895,-4.18c3.547,-2.787 6.26,-6.693 8.139,-11.719c1.879,-5.026 2.819,-10.913 2.819,-17.66c-0,-6.767 -0.93,-12.634 -2.79,-17.601c-1.859,-4.967 -4.562,-8.809 -8.108,-11.527c-3.546,-2.717 -7.864,-4.076 -12.955,-4.076c-5.208,-0 -9.586,1.398 -13.132,4.195c-3.546,2.797 -6.229,6.688 -8.049,11.675c-1.82,4.986 -2.73,10.764 -2.73,17.334c0,6.609 0.92,12.436 2.76,17.482c1.839,5.046 4.532,8.987 8.078,11.823c3.546,2.836 7.904,4.254 13.073,4.254Z" style="fill-rule:nonzero;"/><path d="M3032.38,3565.25c-11.659,-0 -21.698,-2.37 -30.118,-7.11c-8.419,-4.739 -14.895,-11.486 -19.427,-20.241c-4.533,-8.754 -6.799,-19.129 -6.799,-31.124c-0,-11.699 2.273,-21.963 6.821,-30.792c4.548,-8.828 10.945,-15.708 19.191,-20.641c8.246,-4.932 17.943,-7.398 29.089,-7.398c7.517,0 14.516,1.194 20.997,3.581c6.48,2.387 12.147,5.98 17.001,10.779c4.853,4.799 8.641,10.809 11.363,18.03c2.723,7.22 4.084,15.659 4.084,25.316l0,8.641l-95.939,0l-0,-19.531l66.288,-0c-0.03,-4.518 -1.034,-8.53 -3.012,-12.037c-1.977,-3.507 -4.705,-6.264 -8.182,-8.271c-3.478,-2.008 -7.5,-3.012 -12.067,-3.012c-4.765,0 -8.987,1.108 -12.666,3.322c-3.68,2.215 -6.558,5.157 -8.634,8.826c-2.076,3.67 -3.144,7.749 -3.203,12.238l0,18.583c0,5.623 1.055,10.482 3.166,14.576c2.111,4.093 5.09,7.245 8.937,9.454c3.847,2.21 8.395,3.314 13.643,3.314c3.522,0 6.73,-0.498 9.626,-1.494c2.895,-0.996 5.388,-2.473 7.479,-4.431c2.091,-1.958 3.67,-4.363 4.735,-7.213l29.118,1.893c-1.479,7.024 -4.493,13.137 -9.04,18.341c-4.547,5.203 -10.414,9.237 -17.6,12.103c-7.186,2.865 -15.47,4.298 -24.851,4.298Z" style="fill-rule:nonzero;"/><path d="M3101.98,3563.06l0,-113.636l30.538,-0l0,19.827l1.184,-0c2.072,-7.043 5.547,-12.374 10.425,-15.995c4.878,-3.62 10.498,-5.43 16.861,-5.43c1.578,0 3.277,0.091 5.097,0.274c1.82,0.182 3.415,0.441 4.786,0.776l0,28.009c-1.449,-0.473 -3.481,-0.877 -6.095,-1.213c-2.614,-0.335 -5.021,-0.502 -7.222,-0.502c-4.606,-0 -8.726,0.998 -12.361,2.996c-3.636,1.997 -6.499,4.769 -8.59,8.315c-2.091,3.546 -3.137,7.648 -3.137,12.304l0,64.275l-31.486,0Z" style="fill-rule:nonzero;"/></g></g></g></svg>