<?xml version="1.0" encoding="UTF-8" standalone="no"?><!DOCTYPE svg PUBLIC "-//W3C//DTD SVG 1.1//EN" "http://www.w3.org/Graphics/SVG/1.1/DTD/svg11.dtd"><svg width="100%" height="100%" viewBox="0 0 1749 1276" version="1.1" xmlns="http://www.w3.org/2000/svg" xmlns:xlink="http://www.w3.org/1999/xlink" xml:space="preserve" xmlns:serif="http://www.serif.com/" style="fill-rule:evenodd;clip-rule:evenodd;stroke-linecap:round;stroke-linejoin:round;stroke-miterlimit:1.5;"><rect id="Artboard2" x="0" y="0" width="1748.03" height="1275.59" style="fill:none;"/><clipPath id="_clip1"><rect x="0" y="0" width="1748.03" height="1275.59"/></clipPath><g clip-path="url(#_clip1)"><rect x="-30.045" y="0" width="1808.12" height="1282.79" style="fill:#ada7ff;"/><path d="M1544.8,373.621c-0,-36.947 -29.997,-66.944 -66.944,-66.944l-1207.67,-0c-36.948,-0 -66.944,29.997 -66.944,66.944l-0,535.551c-0,36.947 29.996,66.944 66.944,66.944l1207.67,-0c36.947,-0 66.944,-29.997 66.944,-66.944l-0,-535.551Z" style="fill:#fff;stroke:#212529;stroke-width:25px;"/><g><path d="M407.148,481.652l0,-21.118l99.573,0l0,21.118l-37.121,-0l0,100.095l-25.33,-0l-0,-100.095l-37.122,-0Z" style="fill-rule:nonzero;"/><path d="M523.436,615.672c-3.196,-0 -6.183,-0.247 -8.961,-0.74c-2.778,-0.493 -5.078,-1.107 -6.901,-1.841l5.682,-18.844c4.451,1.373 8.207,1.734 11.269,1.083c3.062,-0.651 5.492,-3.033 7.292,-7.144l1.468,-3.835l-32.624,-93.514l26.516,0l18.845,66.762l0.947,-0l18.986,-66.762l26.704,0.095l-35.369,100.663c-1.689,4.83 -3.987,9.051 -6.895,12.666c-2.908,3.614 -6.564,6.419 -10.968,8.416c-4.403,1.997 -9.734,2.995 -15.991,2.995Z" style="fill-rule:nonzero;"/><path d="M600.827,615.837l0,-125l24.858,0l-0,15.294l1.089,0c1.12,-2.478 2.734,-4.986 4.841,-7.523c2.107,-2.537 4.869,-4.663 8.286,-6.38c3.417,-1.716 7.658,-2.574 12.725,-2.574c6.66,-0 12.786,1.724 18.377,5.172c5.591,3.449 10.066,8.638 13.424,15.566c3.358,6.929 5.036,15.594 5.036,25.994c0,10.149 -1.631,18.703 -4.894,25.663c-3.264,6.96 -7.683,12.228 -13.258,15.803c-5.575,3.575 -11.819,5.362 -18.732,5.362c-4.893,0 -9.042,-0.811 -12.447,-2.432c-3.406,-1.622 -6.191,-3.662 -8.357,-6.12c-2.167,-2.458 -3.833,-4.942 -5.001,-7.451l-0.758,-0l0,48.626l-25.189,0Zm24.668,-79.545c-0,5.398 0.752,10.107 2.255,14.128c1.503,4.021 3.674,7.146 6.511,9.375c2.837,2.229 6.276,3.344 10.316,3.344c4.135,0 7.622,-1.134 10.458,-3.403c2.837,-2.269 4.992,-5.422 6.463,-9.458c1.472,-4.037 2.208,-8.699 2.208,-13.986c-0,-5.256 -0.728,-9.878 -2.184,-13.867c-1.456,-3.99 -3.602,-7.103 -6.439,-9.34c-2.837,-2.238 -6.339,-3.356 -10.506,-3.356c-4.072,-0 -7.527,1.087 -10.364,3.261c-2.837,2.174 -4.999,5.248 -6.487,9.221c-1.487,3.974 -2.231,8.667 -2.231,14.081Z" style="fill-rule:nonzero;"/><path d="M743.441,583.498c-9.202,0 -17.145,-1.959 -23.828,-5.877c-6.684,-3.918 -11.841,-9.394 -15.472,-16.429c-3.63,-7.036 -5.445,-15.225 -5.445,-24.569c0,-9.375 1.815,-17.588 5.445,-24.639c3.631,-7.051 8.788,-12.535 15.472,-16.453c6.683,-3.918 14.626,-5.877 23.828,-5.877c9.201,-0 17.144,1.959 23.828,5.877c6.684,3.918 11.841,9.402 15.471,16.453c3.63,7.051 5.445,15.264 5.445,24.639c0,9.344 -1.815,17.533 -5.445,24.569c-3.63,7.035 -8.787,12.511 -15.471,16.429c-6.684,3.918 -14.627,5.877 -23.828,5.877Zm0.142,-19.507c4.151,-0 7.634,-1.196 10.452,-3.587c2.817,-2.391 4.944,-5.658 6.38,-9.801c1.437,-4.143 2.155,-8.85 2.155,-14.121c-0,-5.296 -0.718,-10.017 -2.155,-14.164c-1.436,-4.147 -3.563,-7.424 -6.38,-9.831c-2.818,-2.407 -6.301,-3.61 -10.452,-3.61c-4.246,0 -7.801,1.203 -10.666,3.61c-2.864,2.407 -5.015,5.684 -6.451,9.831c-1.436,4.147 -2.154,8.868 -2.154,14.164c-0,5.271 0.718,9.978 2.154,14.121c1.436,4.143 3.587,7.41 6.451,9.801c2.865,2.391 6.42,3.587 10.666,3.587Z" style="fill-rule:nonzero;"/><path d="M842.778,617.164c-8.167,-0 -15.169,-1.107 -21.005,-3.321c-5.835,-2.213 -10.468,-5.196 -13.897,-8.949c-3.429,-3.752 -5.652,-7.917 -6.67,-12.494l23.342,-3.125c0.695,1.634 1.808,3.194 3.339,4.682c1.53,1.487 3.568,2.704 6.113,3.651c2.545,0.947 5.661,1.421 9.346,1.421c5.469,-0 9.992,-1.302 13.571,-3.907c3.579,-2.604 5.368,-6.889 5.368,-12.855l0,-16.619l-1.041,0c-1.121,2.509 -2.79,4.894 -5.007,7.156c-2.217,2.261 -5.054,4.103 -8.511,5.528c-3.456,1.424 -7.599,2.137 -12.429,2.137c-6.818,-0 -13.019,-1.595 -18.602,-4.783c-5.583,-3.188 -10.026,-8.061 -13.329,-14.619c-3.303,-6.557 -4.954,-14.879 -4.954,-24.965c0,-10.306 1.679,-18.904 5.037,-25.792c3.358,-6.889 7.832,-12.054 13.424,-15.495c5.591,-3.441 11.716,-5.161 18.377,-5.161c5.066,-0 9.316,0.858 12.749,2.574c3.432,1.717 6.21,3.843 8.333,6.38c2.122,2.537 3.744,5.045 4.865,7.523l0.994,0l0,-15.294l25,0l-0,91.809c-0,7.552 -1.896,13.891 -5.688,19.016c-3.792,5.126 -9.03,8.991 -15.714,11.595c-6.684,2.604 -14.354,3.907 -23.011,3.907Zm0.521,-55.635c4.04,0 7.479,-1.016 10.316,-3.048c2.837,-2.032 5.007,-4.952 6.511,-8.759c1.503,-3.808 2.255,-8.379 2.255,-13.714c-0,-5.319 -0.744,-9.946 -2.232,-13.879c-1.487,-3.934 -3.65,-6.984 -6.487,-9.151c-2.837,-2.166 -6.291,-3.249 -10.363,-3.249c-4.167,-0 -7.669,1.115 -10.506,3.344c-2.837,2.23 -4.983,5.32 -6.439,9.269c-1.456,3.95 -2.184,8.505 -2.184,13.666c-0,5.224 0.736,9.744 2.207,13.559c1.472,3.816 3.626,6.763 6.463,8.843c2.837,2.079 6.323,3.119 10.459,3.119Z" style="fill-rule:nonzero;"/><path d="M903.384,581.747l0,-90.91l24.431,0l0,15.862l0.947,0c1.657,-5.634 4.437,-9.899 8.34,-12.795c3.902,-2.897 8.398,-4.345 13.488,-4.345c1.263,0 2.622,0.073 4.078,0.219c1.456,0.146 2.732,0.353 3.829,0.621l0,22.407c-1.159,-0.378 -2.785,-0.701 -4.876,-0.97c-2.091,-0.268 -4.017,-0.402 -5.777,-0.402c-3.685,0 -6.982,0.799 -9.89,2.397c-2.908,1.598 -5.198,3.816 -6.871,6.652c-1.673,2.837 -2.51,6.118 -2.51,9.843l0,51.421l-25.189,-0Z" style="fill-rule:nonzero;"/><path d="M991.31,583.451c-5.784,-0 -10.947,-1.012 -15.489,-3.036c-4.541,-2.024 -8.122,-5.041 -10.742,-9.05c-2.62,-4.008 -3.93,-9.008 -3.93,-14.997c0,-5.067 0.92,-9.31 2.759,-12.731c1.838,-3.421 4.356,-6.177 7.552,-8.268c3.196,-2.091 6.84,-3.677 10.931,-4.759c4.092,-1.081 8.39,-1.839 12.897,-2.273c5.263,-0.52 9.515,-1.027 12.754,-1.52c3.239,-0.493 5.593,-1.235 7.061,-2.226c1.468,-0.99 2.202,-2.456 2.202,-4.397l-0,-0.332c-0,-3.756 -1.18,-6.66 -3.54,-8.712c-2.359,-2.052 -5.677,-3.078 -9.955,-3.078c-4.537,0 -8.15,0.993 -10.837,2.977c-2.687,1.985 -4.457,4.481 -5.309,7.487l-23.343,-1.894c1.184,-5.524 3.51,-10.308 6.978,-14.352c3.469,-4.044 7.957,-7.162 13.465,-9.351c5.508,-2.19 11.888,-3.285 19.141,-3.285c5.074,-0 9.923,0.594 14.547,1.781c4.625,1.188 8.74,3.019 12.346,5.493c3.607,2.473 6.458,5.653 8.553,9.54c2.095,3.887 3.143,8.541 3.143,13.962l-0,61.317l-23.911,-0l-0,-12.595l-0.711,0c-1.467,2.825 -3.418,5.315 -5.853,7.469c-2.434,2.154 -5.374,3.831 -8.818,5.031c-3.445,1.199 -7.408,1.799 -11.891,1.799Zm7.245,-17.377c3.701,0 6.97,-0.741 9.807,-2.225c2.836,-1.484 5.06,-3.492 6.67,-6.025c1.61,-2.534 2.415,-5.386 2.415,-8.558l-0,-9.66c-0.758,0.497 -1.825,0.955 -3.202,1.373c-1.377,0.419 -2.908,0.793 -4.593,1.125c-1.685,0.331 -3.374,0.627 -5.066,0.888c-1.693,0.26 -3.23,0.489 -4.611,0.686c-2.967,0.426 -5.558,1.115 -7.771,2.066c-2.214,0.951 -3.934,2.225 -5.161,3.823c-1.227,1.598 -1.841,3.581 -1.841,5.948c-0,3.457 1.255,6.081 3.764,7.872c2.51,1.792 5.706,2.687 9.589,2.687Z" style="fill-rule:nonzero;"/><path d="M1059.4,615.837l-0,-125l24.857,0l-0,15.294l1.089,0c1.12,-2.478 2.734,-4.986 4.841,-7.523c2.107,-2.537 4.869,-4.663 8.286,-6.38c3.417,-1.716 7.659,-2.574 12.725,-2.574c6.66,-0 12.786,1.724 18.377,5.172c5.591,3.449 10.066,8.638 13.424,15.566c3.358,6.929 5.037,15.594 5.037,25.994c-0,10.149 -1.632,18.703 -4.895,25.663c-3.264,6.96 -7.683,12.228 -13.258,15.803c-5.575,3.575 -11.819,5.362 -18.732,5.362c-4.893,0 -9.042,-0.811 -12.447,-2.432c-3.405,-1.622 -6.191,-3.662 -8.357,-6.12c-2.166,-2.458 -3.833,-4.942 -5.001,-7.451l-0.757,-0l-0,48.626l-25.189,0Zm24.667,-79.545c0,5.398 0.752,10.107 2.255,14.128c1.503,4.021 3.674,7.146 6.511,9.375c2.837,2.229 6.276,3.344 10.316,3.344c4.135,0 7.622,-1.134 10.459,-3.403c2.836,-2.269 4.991,-5.422 6.462,-9.458c1.472,-4.037 2.208,-8.699 2.208,-13.986c-0,-5.256 -0.728,-9.878 -2.184,-13.867c-1.456,-3.99 -3.602,-7.103 -6.439,-9.34c-2.837,-2.238 -6.339,-3.356 -10.506,-3.356c-4.072,-0 -7.527,1.087 -10.364,3.261c-2.837,2.174 -4.999,5.248 -6.487,9.221c-1.487,3.974 -2.231,8.667 -2.231,14.081Z" style="fill-rule:nonzero;"/><path d="M1186.15,529.19l0,52.557l-25.189,-0l0,-121.213l24.479,0l-0,46.355l1.041,-0c2.083,-5.358 5.413,-9.57 9.99,-12.636c4.578,-3.066 10.307,-4.599 17.188,-4.599c6.337,-0 11.863,1.369 16.578,4.107c4.715,2.738 8.377,6.66 10.985,11.766c2.608,5.106 3.9,11.21 3.877,18.312l-0,57.908l-25.189,-0l-0,-53.41c0.023,-5.587 -1.391,-9.943 -4.244,-13.068c-2.853,-3.125 -6.852,-4.688 -11.997,-4.688c-3.417,0 -6.446,0.736 -9.085,2.208c-2.64,1.471 -4.7,3.594 -6.179,6.368c-1.48,2.774 -2.231,6.118 -2.255,10.033Z" style="fill-rule:nonzero;"/><path d="M1271.66,615.672c-3.196,-0 -6.183,-0.247 -8.96,-0.74c-2.778,-0.493 -5.078,-1.107 -6.901,-1.841l5.681,-18.844c4.451,1.373 8.207,1.734 11.269,1.083c3.062,-0.651 5.493,-3.033 7.292,-7.144l1.468,-3.835l-32.623,-93.514l26.515,0l18.845,66.762l0.947,-0l18.987,-66.762l26.703,0.095l-35.369,100.663c-1.688,4.83 -3.987,9.051 -6.895,12.666c-2.908,3.614 -6.564,6.419 -10.967,8.416c-4.404,1.997 -9.734,2.995 -15.992,2.995Z" style="fill-rule:nonzero;"/><g transform="matrix(4.16667,0,0,4.16667,-333.741,312.82)"><g transform="matrix(14,0,0,14,173.539,100.41)"><path d="M0.048,-0.649l0,-0.078l0.546,-0l-0,0.078l-0.229,-0l0,0.649l-0.088,-0l-0,-0.649l-0.229,-0Z" style="fill-rule:nonzero;"/></g><g transform="matrix(14,0,0,14,182.528,100.41)"><path d="M0.161,-0.328l-0,0.328l-0.084,-0l-0,-0.727l0.084,-0l-0,0.267l0.007,-0c0.012,-0.028 0.032,-0.051 0.057,-0.068c0.026,-0.016 0.06,-0.025 0.103,-0.025c0.037,0 0.07,0.008 0.098,0.023c0.028,0.014 0.049,0.037 0.065,0.067c0.015,0.031 0.023,0.07 0.023,0.116l0,0.347l-0.084,-0l0,-0.341c0,-0.043 -0.011,-0.077 -0.033,-0.101c-0.023,-0.023 -0.053,-0.035 -0.093,-0.035c-0.027,-0 -0.052,0.006 -0.074,0.017c-0.021,0.012 -0.038,0.029 -0.051,0.051c-0.012,0.022 -0.018,0.049 -0.018,0.081Z" style="fill-rule:nonzero;"/></g><g transform="matrix(14,0,0,14,190.801,100.41)"><path d="M0.305,0.011c-0.052,0 -0.097,-0.011 -0.135,-0.035c-0.038,-0.023 -0.068,-0.056 -0.088,-0.098c-0.021,-0.042 -0.031,-0.091 -0.031,-0.146c0,-0.056 0.01,-0.106 0.031,-0.148c0.02,-0.043 0.049,-0.076 0.086,-0.101c0.037,-0.024 0.08,-0.036 0.129,-0.036c0.028,0 0.056,0.005 0.084,0.015c0.028,0.009 0.053,0.024 0.076,0.046c0.022,0.021 0.041,0.049 0.054,0.084c0.014,0.034 0.02,0.077 0.02,0.128l0,0.036l-0.42,-0l-0,-0.073l0.335,0c0,-0.031 -0.006,-0.058 -0.018,-0.082c-0.012,-0.024 -0.03,-0.043 -0.052,-0.057c-0.022,-0.014 -0.049,-0.021 -0.079,-0.021c-0.034,-0 -0.062,0.008 -0.087,0.024c-0.024,0.017 -0.043,0.038 -0.056,0.065c-0.013,0.026 -0.019,0.054 -0.019,0.084l-0,0.048c-0,0.042 0.007,0.076 0.021,0.105c0.015,0.028 0.035,0.05 0.06,0.065c0.026,0.015 0.056,0.022 0.089,0.022c0.022,0 0.042,-0.003 0.06,-0.009c0.018,-0.007 0.034,-0.016 0.047,-0.029c0.013,-0.012 0.023,-0.028 0.03,-0.047l0.081,0.023c-0.009,0.027 -0.023,0.051 -0.043,0.072c-0.02,0.021 -0.045,0.037 -0.075,0.048c-0.029,0.012 -0.063,0.017 -0.1,0.017Z" style="fill-rule:nonzero;"/></g><g transform="matrix(14,0,0,14,202.892,100.41)"><path d="M0.283,0.011c-0.046,0 -0.086,-0.011 -0.121,-0.034c-0.035,-0.023 -0.062,-0.056 -0.081,-0.098c-0.02,-0.043 -0.03,-0.093 -0.03,-0.15c0,-0.058 0.01,-0.107 0.03,-0.149c0.019,-0.043 0.047,-0.075 0.082,-0.098c0.035,-0.023 0.075,-0.035 0.121,-0.035c0.036,0 0.064,0.006 0.084,0.018c0.021,0.012 0.037,0.025 0.048,0.04c0.011,0.015 0.02,0.027 0.026,0.036l0.007,0l-0,-0.268l0.084,-0l-0,0.727l-0.081,0l-0,-0.084l-0.01,0c-0.006,0.01 -0.015,0.023 -0.027,0.038c-0.011,0.015 -0.027,0.028 -0.048,0.04c-0.021,0.012 -0.049,0.017 -0.084,0.017Zm0.011,-0.075c0.034,0 0.062,-0.009 0.085,-0.026c0.023,-0.018 0.041,-0.043 0.053,-0.074c0.012,-0.031 0.018,-0.068 0.018,-0.109c0,-0.04 -0.006,-0.076 -0.017,-0.107c-0.012,-0.03 -0.03,-0.054 -0.053,-0.072c-0.023,-0.017 -0.052,-0.025 -0.086,-0.025c-0.035,-0 -0.065,0.009 -0.089,0.027c-0.023,0.018 -0.041,0.043 -0.052,0.073c-0.012,0.031 -0.018,0.066 -0.018,0.104c-0,0.039 0.006,0.074 0.018,0.106c0.012,0.032 0.03,0.057 0.053,0.075c0.024,0.019 0.053,0.028 0.088,0.028Z" style="fill-rule:nonzero;"/></g><g transform="matrix(14,0,0,14,211.582,100.41)"><path d="M0.305,0.011c-0.052,0 -0.097,-0.011 -0.135,-0.035c-0.038,-0.023 -0.068,-0.056 -0.088,-0.098c-0.021,-0.042 -0.031,-0.091 -0.031,-0.146c0,-0.056 0.01,-0.106 0.031,-0.148c0.02,-0.043 0.049,-0.076 0.086,-0.101c0.037,-0.024 0.08,-0.036 0.129,-0.036c0.028,0 0.056,0.005 0.084,0.015c0.028,0.009 0.053,0.024 0.076,0.046c0.022,0.021 0.041,0.049 0.054,0.084c0.014,0.034 0.02,0.077 0.02,0.128l0,0.036l-0.42,-0l-0,-0.073l0.335,0c0,-0.031 -0.006,-0.058 -0.018,-0.082c-0.012,-0.024 -0.03,-0.043 -0.052,-0.057c-0.022,-0.014 -0.049,-0.021 -0.079,-0.021c-0.034,-0 -0.062,0.008 -0.087,0.024c-0.024,0.017 -0.043,0.038 -0.056,0.065c-0.013,0.026 -0.019,0.054 -0.019,0.084l-0,0.048c-0,0.042 0.007,0.076 0.021,0.105c0.015,0.028 0.035,0.05 0.06,0.065c0.026,0.015 0.056,0.022 0.089,0.022c0.022,0 0.042,-0.003 0.06,-0.009c0.018,-0.007 0.034,-0.016 0.047,-0.029c0.013,-0.012 0.023,-0.028 0.03,-0.047l0.081,0.023c-0.009,0.027 -0.023,0.051 -0.043,0.072c-0.02,0.021 -0.045,0.037 -0.075,0.048c-0.029,0.012 -0.063,0.017 -0.1,0.017Z" style="fill-rule:nonzero;"/></g><g transform="matrix(14,0,0,14,219.735,100.41)"><path d="M0.463,-0.423l-0.075,0.021c-0.005,-0.013 -0.012,-0.025 -0.021,-0.037c-0.009,-0.012 -0.021,-0.022 -0.037,-0.029c-0.016,-0.008 -0.036,-0.012 -0.06,-0.012c-0.033,-0 -0.061,0.008 -0.083,0.023c-0.023,0.015 -0.034,0.034 -0.034,0.058c0,0.021 0.008,0.037 0.023,0.049c0.015,0.012 0.039,0.022 0.071,0.03l0.081,0.02c0.049,0.012 0.085,0.03 0.109,0.054c0.024,0.025 0.036,0.056 0.036,0.094c0,0.031 -0.009,0.059 -0.027,0.084c-0.018,0.024 -0.043,0.044 -0.075,0.058c-0.032,0.014 -0.069,0.021 -0.111,0.021c-0.056,0 -0.102,-0.012 -0.138,-0.036c-0.037,-0.024 -0.06,-0.059 -0.069,-0.106l0.079,-0.02c0.008,0.03 0.022,0.052 0.043,0.066c0.021,0.015 0.049,0.022 0.084,0.022c0.039,0 0.07,-0.008 0.093,-0.025c0.023,-0.016 0.034,-0.036 0.034,-0.06c0,-0.019 -0.006,-0.035 -0.02,-0.047c-0.013,-0.013 -0.033,-0.023 -0.061,-0.029l-0.091,-0.022c-0.049,-0.012 -0.086,-0.03 -0.109,-0.055c-0.024,-0.025 -0.035,-0.056 -0.035,-0.094c-0,-0.031 0.008,-0.058 0.026,-0.082c0.017,-0.023 0.041,-0.042 0.071,-0.055c0.03,-0.014 0.065,-0.021 0.103,-0.021c0.054,0 0.096,0.012 0.127,0.036c0.031,0.024 0.053,0.055 0.066,0.094Z" style="fill-rule:nonzero;"/></g><g transform="matrix(14,0,0,14,227.053,100.41)"><path d="M0.077,-0l-0,-0.545l0.084,-0l-0,0.545l-0.084,-0Zm0.042,-0.636c-0.016,-0 -0.03,-0.006 -0.042,-0.017c-0.011,-0.011 -0.017,-0.025 -0.017,-0.04c-0,-0.016 0.006,-0.029 0.017,-0.04c0.012,-0.011 0.026,-0.017 0.042,-0.017c0.017,0 0.031,0.006 0.042,0.017c0.012,0.011 0.018,0.024 0.018,0.04c-0,0.015 -0.006,0.029 -0.018,0.04c-0.011,0.011 -0.025,0.017 -0.042,0.017Z" style="fill-rule:nonzero;"/></g><g transform="matrix(14,0,0,14,230.374,100.41)"><path d="M0.297,0.216c-0.041,-0 -0.075,-0.005 -0.105,-0.016c-0.029,-0.01 -0.053,-0.023 -0.072,-0.04c-0.019,-0.017 -0.035,-0.035 -0.046,-0.053l0.067,-0.047c0.007,0.01 0.017,0.021 0.028,0.034c0.012,0.013 0.028,0.024 0.048,0.034c0.02,0.009 0.047,0.014 0.08,0.014c0.044,0 0.08,-0.011 0.109,-0.032c0.029,-0.021 0.043,-0.055 0.043,-0.1l-0,-0.111l-0.007,0c-0.006,0.01 -0.015,0.022 -0.026,0.037c-0.012,0.014 -0.028,0.027 -0.049,0.039c-0.021,0.011 -0.049,0.016 -0.084,0.016c-0.044,0 -0.084,-0.01 -0.119,-0.031c-0.035,-0.021 -0.062,-0.051 -0.083,-0.091c-0.02,-0.039 -0.03,-0.088 -0.03,-0.145c0,-0.055 0.01,-0.104 0.03,-0.146c0.019,-0.041 0.047,-0.073 0.082,-0.096c0.035,-0.023 0.075,-0.035 0.121,-0.035c0.036,0 0.064,0.006 0.085,0.018c0.021,0.012 0.037,0.025 0.048,0.04c0.011,0.015 0.02,0.027 0.026,0.036l0.009,0l-0,-0.086l0.081,-0l-0,0.561c-0,0.046 -0.011,0.085 -0.032,0.114c-0.021,0.03 -0.05,0.051 -0.085,0.065c-0.036,0.014 -0.076,0.021 -0.119,0.021Zm-0.003,-0.3c0.034,0 0.062,-0.008 0.085,-0.023c0.023,-0.015 0.041,-0.037 0.053,-0.066c0.012,-0.029 0.018,-0.064 0.018,-0.104c0,-0.039 -0.006,-0.074 -0.017,-0.104c-0.012,-0.03 -0.03,-0.054 -0.053,-0.071c-0.023,-0.017 -0.052,-0.025 -0.086,-0.025c-0.035,-0 -0.065,0.009 -0.089,0.027c-0.023,0.018 -0.041,0.042 -0.052,0.072c-0.012,0.03 -0.018,0.064 -0.018,0.101c-0,0.038 0.006,0.071 0.018,0.1c0.012,0.029 0.03,0.052 0.053,0.069c0.024,0.016 0.053,0.024 0.088,0.024Z" style="fill-rule:nonzero;"/></g><g transform="matrix(14,0,0,14,238.906,100.41)"><path d="M0.161,-0.328l-0,0.328l-0.084,-0l-0,-0.545l0.081,-0l-0,0.085l0.007,-0c0.013,-0.028 0.032,-0.05 0.058,-0.067c0.026,-0.017 0.06,-0.026 0.101,-0.026c0.037,0 0.069,0.008 0.097,0.023c0.028,0.015 0.049,0.038 0.064,0.068c0.016,0.031 0.024,0.069 0.024,0.115l-0,0.347l-0.084,-0l-0,-0.341c-0,-0.043 -0.011,-0.076 -0.034,-0.1c-0.022,-0.024 -0.052,-0.036 -0.091,-0.036c-0.027,-0 -0.051,0.006 -0.072,0.017c-0.021,0.012 -0.037,0.029 -0.049,0.051c-0.012,0.022 -0.018,0.049 -0.018,0.081Z" style="fill-rule:nonzero;"/></g><g transform="matrix(14,0,0,14,251.036,100.41)"><path d="M0.298,0.011c-0.049,0 -0.092,-0.011 -0.129,-0.035c-0.037,-0.023 -0.066,-0.056 -0.087,-0.098c-0.021,-0.042 -0.031,-0.092 -0.031,-0.148c0,-0.057 0.01,-0.106 0.031,-0.149c0.021,-0.042 0.05,-0.075 0.087,-0.098c0.037,-0.024 0.08,-0.036 0.129,-0.036c0.05,0 0.093,0.012 0.13,0.036c0.037,0.023 0.066,0.056 0.086,0.098c0.021,0.043 0.031,0.092 0.031,0.149c0,0.056 -0.01,0.106 -0.031,0.148c-0.02,0.042 -0.049,0.075 -0.086,0.098c-0.037,0.024 -0.08,0.035 -0.13,0.035Zm0,-0.075c0.038,0 0.068,-0.01 0.093,-0.029c0.024,-0.019 0.042,-0.044 0.053,-0.075c0.012,-0.032 0.018,-0.065 0.018,-0.102c-0,-0.036 -0.006,-0.07 -0.018,-0.102c-0.011,-0.031 -0.029,-0.057 -0.053,-0.076c-0.025,-0.02 -0.055,-0.029 -0.093,-0.029c-0.037,-0 -0.068,0.009 -0.092,0.029c-0.024,0.019 -0.042,0.045 -0.054,0.076c-0.011,0.032 -0.017,0.066 -0.017,0.102c-0,0.037 0.006,0.07 0.017,0.102c0.012,0.031 0.03,0.056 0.054,0.075c0.024,0.019 0.055,0.029 0.092,0.029Z" style="fill-rule:nonzero;"/></g><g transform="matrix(14,0,0,14,259.389,100.41)"><path d="M0.32,-0.545l-0,0.071l-0.294,-0l-0,-0.071l0.294,-0Zm-0.206,0.545l-0,-0.621c-0,-0.031 0.007,-0.057 0.022,-0.078c0.014,-0.021 0.033,-0.036 0.057,-0.047c0.023,-0.01 0.048,-0.015 0.074,-0.015c0.021,-0 0.037,0.001 0.05,0.005c0.013,0.003 0.023,0.006 0.03,0.009l-0.025,0.072c-0.004,-0.001 -0.01,-0.003 -0.017,-0.005c-0.008,-0.002 -0.017,-0.003 -0.029,-0.003c-0.028,-0 -0.048,0.007 -0.06,0.021c-0.012,0.014 -0.019,0.034 -0.019,0.061l0,0.601l-0.083,-0Z" style="fill-rule:nonzero;"/></g><g transform="matrix(14,0,0,14,268.377,100.41)"><path d="M0.314,-0.545l-0,0.071l-0.283,-0l0,-0.071l0.283,-0Zm-0.2,-0.131l0.083,-0l0,0.52c0,0.023 0.004,0.041 0.011,0.053c0.007,0.012 0.016,0.019 0.027,0.023c0.011,0.004 0.023,0.006 0.035,0.006c0.009,0 0.017,-0 0.023,-0.001c0.006,-0.002 0.01,-0.002 0.014,-0.003l0.017,0.075c-0.006,0.002 -0.014,0.004 -0.024,0.007c-0.01,0.002 -0.023,0.003 -0.039,0.003c-0.023,0 -0.046,-0.005 -0.069,-0.015c-0.023,-0.01 -0.041,-0.026 -0.056,-0.047c-0.015,-0.021 -0.022,-0.047 -0.022,-0.079l-0,-0.542Z" style="fill-rule:nonzero;"/></g><g transform="matrix(14,0,0,14,273.627,100.41)"><path d="M0.161,-0.328l-0,0.328l-0.084,-0l-0,-0.727l0.084,-0l-0,0.267l0.007,-0c0.012,-0.028 0.032,-0.051 0.057,-0.068c0.026,-0.016 0.06,-0.025 0.103,-0.025c0.037,0 0.07,0.008 0.098,0.023c0.028,0.014 0.049,0.037 0.065,0.067c0.015,0.031 0.023,0.07 0.023,0.116l0,0.347l-0.084,-0l0,-0.341c0,-0.043 -0.011,-0.077 -0.033,-0.101c-0.023,-0.023 -0.053,-0.035 -0.093,-0.035c-0.027,-0 -0.052,0.006 -0.074,0.017c-0.021,0.012 -0.038,0.029 -0.051,0.051c-0.012,0.022 -0.018,0.049 -0.018,0.081Z" style="fill-rule:nonzero;"/></g><g transform="matrix(14,0,0,14,281.9,100.41)"><path d="M0.305,0.011c-0.052,0 -0.097,-0.011 -0.135,-0.035c-0.038,-0.023 -0.068,-0.056 -0.088,-0.098c-0.021,-0.042 -0.031,-0.091 -0.031,-0.146c0,-0.056 0.01,-0.106 0.031,-0.148c0.02,-0.043 0.049,-0.076 0.086,-0.101c0.037,-0.024 0.08,-0.036 0.129,-0.036c0.028,0 0.056,0.005 0.084,0.015c0.028,0.009 0.053,0.024 0.076,0.046c0.022,0.021 0.041,0.049 0.054,0.084c0.014,0.034 0.02,0.077 0.02,0.128l0,0.036l-0.42,-0l-0,-0.073l0.335,0c0,-0.031 -0.006,-0.058 -0.018,-0.082c-0.012,-0.024 -0.03,-0.043 -0.052,-0.057c-0.022,-0.014 -0.049,-0.021 -0.079,-0.021c-0.034,-0 -0.062,0.008 -0.087,0.024c-0.024,0.017 -0.043,0.038 -0.056,0.065c-0.013,0.026 -0.019,0.054 -0.019,0.084l-0,0.048c-0,0.042 0.007,0.076 0.021,0.105c0.015,0.028 0.035,0.05 0.06,0.065c0.026,0.015 0.056,0.022 0.089,0.022c0.022,0 0.042,-0.003 0.06,-0.009c0.018,-0.007 0.034,-0.016 0.047,-0.029c0.013,-0.012 0.023,-0.028 0.03,-0.047l0.081,0.023c-0.009,0.027 -0.023,0.051 -0.043,0.072c-0.02,0.021 -0.045,0.037 -0.075,0.048c-0.029,0.012 -0.063,0.017 -0.1,0.017Z" style="fill-rule:nonzero;"/></g><g transform="matrix(14,0,0,14,293.991,100.41)"><path d="M0.2,-0l-0.166,-0.545l0.088,-0l0.118,0.417l0.006,0l0.116,-0.417l0.09,-0l0.115,0.416l0.005,-0l0.118,-0.416l0.088,-0l-0.166,0.545l-0.082,-0l-0.119,-0.419l-0.009,-0l-0.119,0.419l-0.083,-0Z" style="fill-rule:nonzero;"/></g><g transform="matrix(14,0,0,14,305.366,100.41)"><path d="M0.077,-0l-0,-0.545l0.081,-0l-0,0.082l0.005,-0c0.01,-0.027 0.028,-0.049 0.054,-0.066c0.026,-0.017 0.056,-0.025 0.088,-0.025c0.007,0 0.014,0 0.023,0c0.01,0.001 0.017,0.001 0.021,0.001l0,0.086c-0.002,-0.001 -0.009,-0.002 -0.019,-0.004c-0.01,-0.001 -0.021,-0.002 -0.032,-0.002c-0.026,-0 -0.05,0.005 -0.071,0.017c-0.02,0.011 -0.037,0.026 -0.049,0.045c-0.012,0.019 -0.017,0.041 -0.017,0.066l-0,0.345l-0.084,-0Z" style="fill-rule:nonzero;"/></g><g transform="matrix(14,0,0,14,310.576,100.41)"><path d="M0.077,-0l-0,-0.545l0.084,-0l-0,0.545l-0.084,-0Zm0.042,-0.636c-0.016,-0 -0.03,-0.006 -0.042,-0.017c-0.011,-0.011 -0.017,-0.025 -0.017,-0.04c-0,-0.016 0.006,-0.029 0.017,-0.04c0.012,-0.011 0.026,-0.017 0.042,-0.017c0.017,0 0.031,0.006 0.042,0.017c0.012,0.011 0.018,0.024 0.018,0.04c-0,0.015 -0.006,0.029 -0.018,0.04c-0.011,0.011 -0.025,0.017 -0.042,0.017Z" style="fill-rule:nonzero;"/></g><g transform="matrix(14,0,0,14,313.897,100.41)"><path d="M0.314,-0.545l-0,0.071l-0.283,-0l0,-0.071l0.283,-0Zm-0.2,-0.131l0.083,-0l0,0.52c0,0.023 0.004,0.041 0.011,0.053c0.007,0.012 0.016,0.019 0.027,0.023c0.011,0.004 0.023,0.006 0.035,0.006c0.009,0 0.017,-0 0.023,-0.001c0.006,-0.002 0.01,-0.002 0.014,-0.003l0.017,0.075c-0.006,0.002 -0.014,0.004 -0.024,0.007c-0.01,0.002 -0.023,0.003 -0.039,0.003c-0.023,0 -0.046,-0.005 -0.069,-0.015c-0.023,-0.01 -0.041,-0.026 -0.056,-0.047c-0.015,-0.021 -0.022,-0.047 -0.022,-0.079l-0,-0.542Z" style="fill-rule:nonzero;"/></g><g transform="matrix(14,0,0,14,318.988,100.41)"><path d="M0.077,-0l-0,-0.545l0.084,-0l-0,0.545l-0.084,-0Zm0.042,-0.636c-0.016,-0 -0.03,-0.006 -0.042,-0.017c-0.011,-0.011 -0.017,-0.025 -0.017,-0.04c-0,-0.016 0.006,-0.029 0.017,-0.04c0.012,-0.011 0.026,-0.017 0.042,-0.017c0.017,0 0.031,0.006 0.042,0.017c0.012,0.011 0.018,0.024 0.018,0.04c-0,0.015 -0.006,0.029 -0.018,0.04c-0.011,0.011 -0.025,0.017 -0.042,0.017Z" style="fill-rule:nonzero;"/></g><g transform="matrix(14,0,0,14,322.309,100.41)"><path d="M0.161,-0.328l-0,0.328l-0.084,-0l-0,-0.545l0.081,-0l-0,0.085l0.007,-0c0.013,-0.028 0.032,-0.05 0.058,-0.067c0.026,-0.017 0.06,-0.026 0.101,-0.026c0.037,0 0.069,0.008 0.097,0.023c0.028,0.015 0.049,0.038 0.064,0.068c0.016,0.031 0.024,0.069 0.024,0.115l-0,0.347l-0.084,-0l-0,-0.341c-0,-0.043 -0.011,-0.076 -0.034,-0.1c-0.022,-0.024 -0.052,-0.036 -0.091,-0.036c-0.027,-0 -0.051,0.006 -0.072,0.017c-0.021,0.012 -0.037,0.029 -0.049,0.051c-0.012,0.022 -0.018,0.049 -0.018,0.081Z" style="fill-rule:nonzero;"/></g><g transform="matrix(14,0,0,14,330.502,100.41)"><path d="M0.297,0.216c-0.041,-0 -0.075,-0.005 -0.105,-0.016c-0.029,-0.01 -0.053,-0.023 -0.072,-0.04c-0.019,-0.017 -0.035,-0.035 -0.046,-0.053l0.067,-0.047c0.007,0.01 0.017,0.021 0.028,0.034c0.012,0.013 0.028,0.024 0.048,0.034c0.02,0.009 0.047,0.014 0.08,0.014c0.044,0 0.08,-0.011 0.109,-0.032c0.029,-0.021 0.043,-0.055 0.043,-0.1l-0,-0.111l-0.007,0c-0.006,0.01 -0.015,0.022 -0.026,0.037c-0.012,0.014 -0.028,0.027 -0.049,0.039c-0.021,0.011 -0.049,0.016 -0.084,0.016c-0.044,0 -0.084,-0.01 -0.119,-0.031c-0.035,-0.021 -0.062,-0.051 -0.083,-0.091c-0.02,-0.039 -0.03,-0.088 -0.03,-0.145c0,-0.055 0.01,-0.104 0.03,-0.146c0.019,-0.041 0.047,-0.073 0.082,-0.096c0.035,-0.023 0.075,-0.035 0.121,-0.035c0.036,0 0.064,0.006 0.085,0.018c0.021,0.012 0.037,0.025 0.048,0.04c0.011,0.015 0.02,0.027 0.026,0.036l0.009,0l-0,-0.086l0.081,-0l-0,0.561c-0,0.046 -0.011,0.085 -0.032,0.114c-0.021,0.03 -0.05,0.051 -0.085,0.065c-0.036,0.014 -0.076,0.021 -0.119,0.021Zm-0.003,-0.3c0.034,0 0.062,-0.008 0.085,-0.023c0.023,-0.015 0.041,-0.037 0.053,-0.066c0.012,-0.029 0.018,-0.064 0.018,-0.104c0,-0.039 -0.006,-0.074 -0.017,-0.104c-0.012,-0.03 -0.03,-0.054 -0.053,-0.071c-0.023,-0.017 -0.052,-0.025 -0.086,-0.025c-0.035,-0 -0.065,0.009 -0.089,0.027c-0.023,0.018 -0.041,0.042 -0.052,0.072c-0.012,0.03 -0.018,0.064 -0.018,0.101c-0,0.038 0.006,0.071 0.018,0.1c0.012,0.029 0.03,0.052 0.053,0.069c0.024,0.016 0.053,0.024 0.088,0.024Z" style="fill-rule:nonzero;"/></g><g transform="matrix(14,0,0,14,342.971,100.41)"><path d="M0.077,-0l-0,-0.545l0.084,-0l-0,0.545l-0.084,-0Zm0.042,-0.636c-0.016,-0 -0.03,-0.006 -0.042,-0.017c-0.011,-0.011 -0.017,-0.025 -0.017,-0.04c-0,-0.016 0.006,-0.029 0.017,-0.04c0.012,-0.011 0.026,-0.017 0.042,-0.017c0.017,0 0.031,0.006 0.042,0.017c0.012,0.011 0.018,0.024 0.018,0.04c-0,0.015 -0.006,0.029 -0.018,0.04c-0.011,0.011 -0.025,0.017 -0.042,0.017Z" style="fill-rule:nonzero;"/></g><g transform="matrix(14,0,0,14,346.292,100.41)"><path d="M0.161,-0.328l-0,0.328l-0.084,-0l-0,-0.545l0.081,-0l-0,0.085l0.007,-0c0.013,-0.028 0.032,-0.05 0.058,-0.067c0.026,-0.017 0.06,-0.026 0.101,-0.026c0.037,0 0.069,0.008 0.097,0.023c0.028,0.015 0.049,0.038 0.064,0.068c0.016,0.031 0.024,0.069 0.024,0.115l-0,0.347l-0.084,-0l-0,-0.341c-0,-0.043 -0.011,-0.076 -0.034,-0.1c-0.022,-0.024 -0.052,-0.036 -0.091,-0.036c-0.027,-0 -0.051,0.006 -0.072,0.017c-0.021,0.012 -0.037,0.029 -0.049,0.051c-0.012,0.022 -0.018,0.049 -0.018,0.081Z" style="fill-rule:nonzero;"/></g><g transform="matrix(14,0,0,14,358.423,100.41)"><path d="M0.237,0.013c-0.034,-0 -0.066,-0.007 -0.094,-0.02c-0.028,-0.013 -0.05,-0.032 -0.067,-0.057c-0.017,-0.025 -0.025,-0.055 -0.025,-0.091c0,-0.031 0.006,-0.056 0.019,-0.076c0.012,-0.02 0.028,-0.035 0.049,-0.046c0.021,-0.011 0.043,-0.019 0.068,-0.025c0.025,-0.006 0.05,-0.01 0.076,-0.013c0.033,-0.005 0.06,-0.008 0.081,-0.01c0.02,-0.002 0.035,-0.006 0.045,-0.012c0.01,-0.005 0.014,-0.015 0.014,-0.028l0,-0.003c0,-0.035 -0.009,-0.062 -0.028,-0.082c-0.019,-0.019 -0.048,-0.029 -0.087,-0.029c-0.04,0 -0.071,0.009 -0.094,0.027c-0.022,0.017 -0.038,0.036 -0.048,0.056l-0.079,-0.029c0.014,-0.033 0.033,-0.059 0.057,-0.077c0.024,-0.019 0.05,-0.032 0.078,-0.039c0.028,-0.008 0.056,-0.012 0.084,-0.012c0.017,0 0.037,0.003 0.06,0.007c0.023,0.004 0.045,0.012 0.066,0.025c0.022,0.013 0.04,0.032 0.054,0.058c0.014,0.026 0.021,0.06 0.021,0.104l0,0.359l-0.084,0l0,-0.074l-0.004,0c-0.006,0.012 -0.015,0.025 -0.028,0.038c-0.014,0.014 -0.031,0.025 -0.053,0.035c-0.022,0.009 -0.049,0.014 -0.081,0.014Zm0.013,-0.075c0.033,-0 0.061,-0.007 0.084,-0.02c0.023,-0.013 0.04,-0.03 0.052,-0.05c0.012,-0.021 0.017,-0.043 0.017,-0.065l0,-0.077c-0.003,0.004 -0.011,0.008 -0.023,0.011c-0.012,0.004 -0.026,0.007 -0.041,0.009c-0.016,0.003 -0.031,0.005 -0.045,0.007c-0.015,0.001 -0.026,0.003 -0.035,0.004c-0.022,0.003 -0.043,0.008 -0.061,0.014c-0.019,0.006 -0.034,0.015 -0.046,0.028c-0.011,0.012 -0.017,0.029 -0.017,0.05c-0,0.03 0.011,0.052 0.032,0.066c0.022,0.015 0.05,0.023 0.083,0.023Z" style="fill-rule:nonzero;"/></g><g transform="matrix(14,0,0,14,370.255,100.41)"><path d="M0.077,0.205l-0,-0.75l0.081,-0l-0,0.086l0.01,0c0.006,-0.009 0.014,-0.021 0.025,-0.036c0.011,-0.015 0.027,-0.028 0.048,-0.04c0.021,-0.012 0.049,-0.018 0.084,-0.018c0.046,0 0.087,0.012 0.122,0.035c0.035,0.023 0.062,0.055 0.082,0.098c0.019,0.042 0.029,0.091 0.029,0.149c0,0.057 -0.01,0.107 -0.029,0.15c-0.02,0.042 -0.047,0.075 -0.082,0.098c-0.035,0.023 -0.075,0.034 -0.12,0.034c-0.035,0 -0.063,-0.005 -0.084,-0.017c-0.022,-0.012 -0.038,-0.025 -0.049,-0.04c-0.011,-0.015 -0.02,-0.028 -0.026,-0.038l-0.007,0l-0,0.289l-0.084,-0Zm0.082,-0.478c0,0.041 0.006,0.078 0.018,0.109c0.012,0.031 0.03,0.056 0.053,0.074c0.023,0.017 0.052,0.026 0.085,0.026c0.035,0 0.065,-0.009 0.088,-0.028c0.024,-0.018 0.042,-0.043 0.053,-0.075c0.012,-0.032 0.018,-0.067 0.018,-0.106c0,-0.038 -0.005,-0.073 -0.017,-0.104c-0.012,-0.03 -0.03,-0.055 -0.053,-0.073c-0.024,-0.018 -0.053,-0.027 -0.089,-0.027c-0.034,-0 -0.062,0.008 -0.086,0.025c-0.023,0.018 -0.04,0.042 -0.052,0.072c-0.012,0.031 -0.018,0.067 -0.018,0.107Z" style="fill-rule:nonzero;"/></g><g transform="matrix(14,0,0,14,378.786,100.41)"><path d="M0.077,-0l-0,-0.545l0.084,-0l-0,0.545l-0.084,-0Zm0.042,-0.636c-0.016,-0 -0.03,-0.006 -0.042,-0.017c-0.011,-0.011 -0.017,-0.025 -0.017,-0.04c-0,-0.016 0.006,-0.029 0.017,-0.04c0.012,-0.011 0.026,-0.017 0.042,-0.017c0.017,0 0.031,0.006 0.042,0.017c0.012,0.011 0.018,0.024 0.018,0.04c-0,0.015 -0.006,0.029 -0.018,0.04c-0.011,0.011 -0.025,0.017 -0.042,0.017Z" style="fill-rule:nonzero;"/></g><g transform="matrix(14,0,0,14,382.107,100.41)"><path d="M0.305,0.011c-0.052,0 -0.097,-0.011 -0.135,-0.035c-0.038,-0.023 -0.068,-0.056 -0.088,-0.098c-0.021,-0.042 -0.031,-0.091 -0.031,-0.146c0,-0.056 0.01,-0.106 0.031,-0.148c0.02,-0.043 0.049,-0.076 0.086,-0.101c0.037,-0.024 0.08,-0.036 0.129,-0.036c0.028,0 0.056,0.005 0.084,0.015c0.028,0.009 0.053,0.024 0.076,0.046c0.022,0.021 0.041,0.049 0.054,0.084c0.014,0.034 0.02,0.077 0.02,0.128l0,0.036l-0.42,-0l-0,-0.073l0.335,0c0,-0.031 -0.006,-0.058 -0.018,-0.082c-0.012,-0.024 -0.03,-0.043 -0.052,-0.057c-0.022,-0.014 -0.049,-0.021 -0.079,-0.021c-0.034,-0 -0.062,0.008 -0.087,0.024c-0.024,0.017 -0.043,0.038 -0.056,0.065c-0.013,0.026 -0.019,0.054 -0.019,0.084l-0,0.048c-0,0.042 0.007,0.076 0.021,0.105c0.015,0.028 0.035,0.05 0.06,0.065c0.026,0.015 0.056,0.022 0.089,0.022c0.022,0 0.042,-0.003 0.06,-0.009c0.018,-0.007 0.034,-0.016 0.047,-0.029c0.013,-0.012 0.023,-0.028 0.03,-0.047l0.081,0.023c-0.009,0.027 -0.023,0.051 -0.043,0.072c-0.02,0.021 -0.045,0.037 -0.075,0.048c-0.029,0.012 -0.063,0.017 -0.1,0.017Z" style="fill-rule:nonzero;"/></g><g transform="matrix(14,0,0,14,390.261,100.41)"><path d="M0.298,0.011c-0.051,0 -0.095,-0.012 -0.132,-0.036c-0.037,-0.024 -0.065,-0.057 -0.085,-0.1c-0.02,-0.042 -0.03,-0.09 -0.03,-0.145c0,-0.055 0.01,-0.104 0.031,-0.147c0.02,-0.042 0.049,-0.075 0.086,-0.1c0.037,-0.024 0.08,-0.036 0.129,-0.036c0.038,0 0.073,0.008 0.104,0.022c0.03,0.014 0.056,0.034 0.075,0.059c0.02,0.026 0.032,0.056 0.037,0.09l-0.084,-0c-0.006,-0.025 -0.021,-0.047 -0.042,-0.066c-0.022,-0.02 -0.052,-0.029 -0.089,-0.029c-0.032,-0 -0.061,0.008 -0.085,0.025c-0.025,0.017 -0.044,0.041 -0.058,0.071c-0.013,0.031 -0.02,0.067 -0.02,0.108c-0,0.042 0.007,0.079 0.02,0.11c0.013,0.032 0.032,0.056 0.057,0.073c0.024,0.017 0.053,0.026 0.086,0.026c0.022,0 0.042,-0.004 0.06,-0.011c0.017,-0.008 0.032,-0.019 0.045,-0.033c0.012,-0.014 0.021,-0.031 0.026,-0.051l0.084,-0c-0.005,0.032 -0.017,0.061 -0.035,0.087c-0.019,0.025 -0.043,0.046 -0.074,0.061c-0.03,0.015 -0.065,0.022 -0.106,0.022Z" style="fill-rule:nonzero;"/></g><g transform="matrix(14,0,0,14,398.076,100.41)"><path d="M0.305,0.011c-0.052,0 -0.097,-0.011 -0.135,-0.035c-0.038,-0.023 -0.068,-0.056 -0.088,-0.098c-0.021,-0.042 -0.031,-0.091 -0.031,-0.146c0,-0.056 0.01,-0.106 0.031,-0.148c0.02,-0.043 0.049,-0.076 0.086,-0.101c0.037,-0.024 0.08,-0.036 0.129,-0.036c0.028,0 0.056,0.005 0.084,0.015c0.028,0.009 0.053,0.024 0.076,0.046c0.022,0.021 0.041,0.049 0.054,0.084c0.014,0.034 0.02,0.077 0.02,0.128l0,0.036l-0.42,-0l-0,-0.073l0.335,0c0,-0.031 -0.006,-0.058 -0.018,-0.082c-0.012,-0.024 -0.03,-0.043 -0.052,-0.057c-0.022,-0.014 -0.049,-0.021 -0.079,-0.021c-0.034,-0 -0.062,0.008 -0.087,0.024c-0.024,0.017 -0.043,0.038 -0.056,0.065c-0.013,0.026 -0.019,0.054 -0.019,0.084l-0,0.048c-0,0.042 0.007,0.076 0.021,0.105c0.015,0.028 0.035,0.05 0.06,0.065c0.026,0.015 0.056,0.022 0.089,0.022c0.022,0 0.042,-0.003 0.06,-0.009c0.018,-0.007 0.034,-0.016 0.047,-0.029c0.013,-0.012 0.023,-0.028 0.03,-0.047l0.081,0.023c-0.009,0.027 -0.023,0.051 -0.043,0.072c-0.02,0.021 -0.045,0.037 -0.075,0.048c-0.029,0.012 -0.063,0.017 -0.1,0.017Z" style="fill-rule:nonzero;"/></g><g transform="matrix(14,0,0,14,197.453,116.51)"><path d="M0.298,0.011c-0.049,0 -0.092,-0.011 -0.129,-0.035c-0.037,-0.023 -0.066,-0.056 -0.087,-0.098c-0.021,-0.042 -0.031,-0.092 -0.031,-0.148c0,-0.057 0.01,-0.106 0.031,-0.149c0.021,-0.042 0.05,-0.075 0.087,-0.098c0.037,-0.024 0.08,-0.036 0.129,-0.036c0.05,0 0.093,0.012 0.13,0.036c0.037,0.023 0.066,0.056 0.086,0.098c0.021,0.043 0.031,0.092 0.031,0.149c0,0.056 -0.01,0.106 -0.031,0.148c-0.02,0.042 -0.049,0.075 -0.086,0.098c-0.037,0.024 -0.08,0.035 -0.13,0.035Zm0,-0.075c0.038,0 0.068,-0.01 0.093,-0.029c0.024,-0.019 0.042,-0.044 0.053,-0.075c0.012,-0.032 0.018,-0.065 0.018,-0.102c-0,-0.036 -0.006,-0.07 -0.018,-0.102c-0.011,-0.031 -0.029,-0.057 -0.053,-0.076c-0.025,-0.02 -0.055,-0.029 -0.093,-0.029c-0.037,-0 -0.068,0.009 -0.092,0.029c-0.024,0.019 -0.042,0.045 -0.054,0.076c-0.011,0.032 -0.017,0.066 -0.017,0.102c-0,0.037 0.006,0.07 0.017,0.102c0.012,0.031 0.03,0.056 0.054,0.075c0.024,0.019 0.055,0.029 0.092,0.029Z" style="fill-rule:nonzero;"/></g><g transform="matrix(14,0,0,14,205.805,116.51)"><path d="M0.32,-0.545l-0,0.071l-0.294,-0l-0,-0.071l0.294,-0Zm-0.206,0.545l-0,-0.621c-0,-0.031 0.007,-0.057 0.022,-0.078c0.014,-0.021 0.033,-0.036 0.057,-0.047c0.023,-0.01 0.048,-0.015 0.074,-0.015c0.021,-0 0.037,0.001 0.05,0.005c0.013,0.003 0.023,0.006 0.03,0.009l-0.025,0.072c-0.004,-0.001 -0.01,-0.003 -0.017,-0.005c-0.008,-0.002 -0.017,-0.003 -0.029,-0.003c-0.028,-0 -0.048,0.007 -0.06,0.021c-0.012,0.014 -0.019,0.034 -0.019,0.061l0,0.601l-0.083,-0Z" style="fill-rule:nonzero;"/></g><g transform="matrix(14,0,0,14,214.794,116.51)"><path d="M0.077,0.205l-0,-0.75l0.081,-0l-0,0.086l0.01,0c0.006,-0.009 0.014,-0.021 0.025,-0.036c0.011,-0.015 0.027,-0.028 0.048,-0.04c0.021,-0.012 0.049,-0.018 0.084,-0.018c0.046,0 0.087,0.012 0.122,0.035c0.035,0.023 0.062,0.055 0.082,0.098c0.019,0.042 0.029,0.091 0.029,0.149c0,0.057 -0.01,0.107 -0.029,0.15c-0.02,0.042 -0.047,0.075 -0.082,0.098c-0.035,0.023 -0.075,0.034 -0.12,0.034c-0.035,0 -0.063,-0.005 -0.084,-0.017c-0.022,-0.012 -0.038,-0.025 -0.049,-0.04c-0.011,-0.015 -0.02,-0.028 -0.026,-0.038l-0.007,0l-0,0.289l-0.084,-0Zm0.082,-0.478c0,0.041 0.006,0.078 0.018,0.109c0.012,0.031 0.03,0.056 0.053,0.074c0.023,0.017 0.052,0.026 0.085,0.026c0.035,0 0.065,-0.009 0.088,-0.028c0.024,-0.018 0.042,-0.043 0.053,-0.075c0.012,-0.032 0.018,-0.067 0.018,-0.106c0,-0.038 -0.005,-0.073 -0.017,-0.104c-0.012,-0.03 -0.03,-0.055 -0.053,-0.073c-0.024,-0.018 -0.053,-0.027 -0.089,-0.027c-0.034,-0 -0.062,0.008 -0.086,0.025c-0.023,0.018 -0.04,0.042 -0.052,0.072c-0.012,0.031 -0.018,0.067 -0.018,0.107Z" style="fill-rule:nonzero;"/></g><g transform="matrix(14,0,0,14,223.325,116.51)"><path d="M0.077,-0l-0,-0.545l0.081,-0l-0,0.082l0.005,-0c0.01,-0.027 0.028,-0.049 0.054,-0.066c0.026,-0.017 0.056,-0.025 0.088,-0.025c0.007,0 0.014,0 0.023,0c0.01,0.001 0.017,0.001 0.021,0.001l0,0.086c-0.002,-0.001 -0.009,-0.002 -0.019,-0.004c-0.01,-0.001 -0.021,-0.002 -0.032,-0.002c-0.026,-0 -0.05,0.005 -0.071,0.017c-0.02,0.011 -0.037,0.026 -0.049,0.045c-0.012,0.019 -0.017,0.041 -0.017,0.066l-0,0.345l-0.084,-0Z" style="fill-rule:nonzero;"/></g><g transform="matrix(14,0,0,14,228.535,116.51)"><path d="M0.077,-0l-0,-0.545l0.084,-0l-0,0.545l-0.084,-0Zm0.042,-0.636c-0.016,-0 -0.03,-0.006 -0.042,-0.017c-0.011,-0.011 -0.017,-0.025 -0.017,-0.04c-0,-0.016 0.006,-0.029 0.017,-0.04c0.012,-0.011 0.026,-0.017 0.042,-0.017c0.017,0 0.031,0.006 0.042,0.017c0.012,0.011 0.018,0.024 0.018,0.04c-0,0.015 -0.006,0.029 -0.018,0.04c-0.011,0.011 -0.025,0.017 -0.042,0.017Z" style="fill-rule:nonzero;"/></g><g transform="matrix(14,0,0,14,231.856,116.51)"><path d="M0.161,-0.328l-0,0.328l-0.084,-0l-0,-0.545l0.081,-0l-0,0.085l0.007,-0c0.013,-0.028 0.032,-0.05 0.058,-0.067c0.026,-0.017 0.06,-0.026 0.101,-0.026c0.037,0 0.069,0.008 0.097,0.023c0.028,0.015 0.049,0.038 0.064,0.068c0.016,0.031 0.024,0.069 0.024,0.115l-0,0.347l-0.084,-0l-0,-0.341c-0,-0.043 -0.011,-0.076 -0.034,-0.1c-0.022,-0.024 -0.052,-0.036 -0.091,-0.036c-0.027,-0 -0.051,0.006 -0.072,0.017c-0.021,0.012 -0.037,0.029 -0.049,0.051c-0.012,0.022 -0.018,0.049 -0.018,0.081Z" style="fill-rule:nonzero;"/></g><g transform="matrix(14,0,0,14,240.049,116.51)"><path d="M0.314,-0.545l-0,0.071l-0.283,-0l0,-0.071l0.283,-0Zm-0.2,-0.131l0.083,-0l0,0.52c0,0.023 0.004,0.041 0.011,0.053c0.007,0.012 0.016,0.019 0.027,0.023c0.011,0.004 0.023,0.006 0.035,0.006c0.009,0 0.017,-0 0.023,-0.001c0.006,-0.002 0.01,-0.002 0.014,-0.003l0.017,0.075c-0.006,0.002 -0.014,0.004 -0.024,0.007c-0.01,0.002 -0.023,0.003 -0.039,0.003c-0.023,0 -0.046,-0.005 -0.069,-0.015c-0.023,-0.01 -0.041,-0.026 -0.056,-0.047c-0.015,-0.021 -0.022,-0.047 -0.022,-0.079l-0,-0.542Z" style="fill-rule:nonzero;"/></g><g transform="matrix(14,0,0,14,245.14,116.51)"><path d="M0.077,-0l-0,-0.545l0.084,-0l-0,0.545l-0.084,-0Zm0.042,-0.636c-0.016,-0 -0.03,-0.006 -0.042,-0.017c-0.011,-0.011 -0.017,-0.025 -0.017,-0.04c-0,-0.016 0.006,-0.029 0.017,-0.04c0.012,-0.011 0.026,-0.017 0.042,-0.017c0.017,0 0.031,0.006 0.042,0.017c0.012,0.011 0.018,0.024 0.018,0.04c-0,0.015 -0.006,0.029 -0.018,0.04c-0.011,0.011 -0.025,0.017 -0.042,0.017Z" style="fill-rule:nonzero;"/></g><g transform="matrix(14,0,0,14,248.461,116.51)"><path d="M0.161,-0.328l-0,0.328l-0.084,-0l-0,-0.545l0.081,-0l-0,0.085l0.007,-0c0.013,-0.028 0.032,-0.05 0.058,-0.067c0.026,-0.017 0.06,-0.026 0.101,-0.026c0.037,0 0.069,0.008 0.097,0.023c0.028,0.015 0.049,0.038 0.064,0.068c0.016,0.031 0.024,0.069 0.024,0.115l-0,0.347l-0.084,-0l-0,-0.341c-0,-0.043 -0.011,-0.076 -0.034,-0.1c-0.022,-0.024 -0.052,-0.036 -0.091,-0.036c-0.027,-0 -0.051,0.006 -0.072,0.017c-0.021,0.012 -0.037,0.029 -0.049,0.051c-0.012,0.022 -0.018,0.049 -0.018,0.081Z" style="fill-rule:nonzero;"/></g><g transform="matrix(14,0,0,14,256.654,116.51)"><path d="M0.297,0.216c-0.041,-0 -0.075,-0.005 -0.105,-0.016c-0.029,-0.01 -0.053,-0.023 -0.072,-0.04c-0.019,-0.017 -0.035,-0.035 -0.046,-0.053l0.067,-0.047c0.007,0.01 0.017,0.021 0.028,0.034c0.012,0.013 0.028,0.024 0.048,0.034c0.02,0.009 0.047,0.014 0.08,0.014c0.044,0 0.08,-0.011 0.109,-0.032c0.029,-0.021 0.043,-0.055 0.043,-0.1l-0,-0.111l-0.007,0c-0.006,0.01 -0.015,0.022 -0.026,0.037c-0.012,0.014 -0.028,0.027 -0.049,0.039c-0.021,0.011 -0.049,0.016 -0.084,0.016c-0.044,0 -0.084,-0.01 -0.119,-0.031c-0.035,-0.021 -0.062,-0.051 -0.083,-0.091c-0.02,-0.039 -0.03,-0.088 -0.03,-0.145c0,-0.055 0.01,-0.104 0.03,-0.146c0.019,-0.041 0.047,-0.073 0.082,-0.096c0.035,-0.023 0.075,-0.035 0.121,-0.035c0.036,0 0.064,0.006 0.085,0.018c0.021,0.012 0.037,0.025 0.048,0.04c0.011,0.015 0.02,0.027 0.026,0.036l0.009,0l-0,-0.086l0.081,-0l-0,0.561c-0,0.046 -0.011,0.085 -0.032,0.114c-0.021,0.03 -0.05,0.051 -0.085,0.065c-0.036,0.014 -0.076,0.021 -0.119,0.021Zm-0.003,-0.3c0.034,0 0.062,-0.008 0.085,-0.023c0.023,-0.015 0.041,-0.037 0.053,-0.066c0.012,-0.029 0.018,-0.064 0.018,-0.104c0,-0.039 -0.006,-0.074 -0.017,-0.104c-0.012,-0.03 -0.03,-0.054 -0.053,-0.071c-0.023,-0.017 -0.052,-0.025 -0.086,-0.025c-0.035,-0 -0.065,0.009 -0.089,0.027c-0.023,0.018 -0.041,0.042 -0.052,0.072c-0.012,0.03 -0.018,0.064 -0.018,0.101c-0,0.038 0.006,0.071 0.018,0.1c0.012,0.029 0.03,0.052 0.053,0.069c0.024,0.016 0.053,0.024 0.088,0.024Z" style="fill-rule:nonzero;"/></g><g transform="matrix(14,0,0,14,269.123,116.51)"><path d="M0.298,0.011c-0.049,0 -0.092,-0.011 -0.129,-0.035c-0.037,-0.023 -0.066,-0.056 -0.087,-0.098c-0.021,-0.042 -0.031,-0.092 -0.031,-0.148c0,-0.057 0.01,-0.106 0.031,-0.149c0.021,-0.042 0.05,-0.075 0.087,-0.098c0.037,-0.024 0.08,-0.036 0.129,-0.036c0.05,0 0.093,0.012 0.13,0.036c0.037,0.023 0.066,0.056 0.086,0.098c0.021,0.043 0.031,0.092 0.031,0.149c0,0.056 -0.01,0.106 -0.031,0.148c-0.02,0.042 -0.049,0.075 -0.086,0.098c-0.037,0.024 -0.08,0.035 -0.13,0.035Zm0,-0.075c0.038,0 0.068,-0.01 0.093,-0.029c0.024,-0.019 0.042,-0.044 0.053,-0.075c0.012,-0.032 0.018,-0.065 0.018,-0.102c-0,-0.036 -0.006,-0.07 -0.018,-0.102c-0.011,-0.031 -0.029,-0.057 -0.053,-0.076c-0.025,-0.02 -0.055,-0.029 -0.093,-0.029c-0.037,-0 -0.068,0.009 -0.092,0.029c-0.024,0.019 -0.042,0.045 -0.054,0.076c-0.011,0.032 -0.017,0.066 -0.017,0.102c-0,0.037 0.006,0.07 0.017,0.102c0.012,0.031 0.03,0.056 0.054,0.075c0.024,0.019 0.055,0.029 0.092,0.029Z" style="fill-rule:nonzero;"/></g><g transform="matrix(14,0,0,14,277.475,116.51)"><path d="M0.077,-0l-0,-0.545l0.081,-0l-0,0.082l0.005,-0c0.01,-0.027 0.028,-0.049 0.054,-0.066c0.026,-0.017 0.056,-0.025 0.088,-0.025c0.007,0 0.014,0 0.023,0c0.01,0.001 0.017,0.001 0.021,0.001l0,0.086c-0.002,-0.001 -0.009,-0.002 -0.019,-0.004c-0.01,-0.001 -0.021,-0.002 -0.032,-0.002c-0.026,-0 -0.05,0.005 -0.071,0.017c-0.02,0.011 -0.037,0.026 -0.049,0.045c-0.012,0.019 -0.017,0.041 -0.017,0.066l-0,0.345l-0.084,-0Z" style="fill-rule:nonzero;"/></g><g transform="matrix(14,0,0,14,286.623,116.51)"><path d="M0.298,0.011c-0.049,0 -0.092,-0.011 -0.129,-0.035c-0.037,-0.023 -0.066,-0.056 -0.087,-0.098c-0.021,-0.042 -0.031,-0.092 -0.031,-0.148c0,-0.057 0.01,-0.106 0.031,-0.149c0.021,-0.042 0.05,-0.075 0.087,-0.098c0.037,-0.024 0.08,-0.036 0.129,-0.036c0.05,0 0.093,0.012 0.13,0.036c0.037,0.023 0.066,0.056 0.086,0.098c0.021,0.043 0.031,0.092 0.031,0.149c0,0.056 -0.01,0.106 -0.031,0.148c-0.02,0.042 -0.049,0.075 -0.086,0.098c-0.037,0.024 -0.08,0.035 -0.13,0.035Zm0,-0.075c0.038,0 0.068,-0.01 0.093,-0.029c0.024,-0.019 0.042,-0.044 0.053,-0.075c0.012,-0.032 0.018,-0.065 0.018,-0.102c-0,-0.036 -0.006,-0.07 -0.018,-0.102c-0.011,-0.031 -0.029,-0.057 -0.053,-0.076c-0.025,-0.02 -0.055,-0.029 -0.093,-0.029c-0.037,-0 -0.068,0.009 -0.092,0.029c-0.024,0.019 -0.042,0.045 -0.054,0.076c-0.011,0.032 -0.017,0.066 -0.017,0.102c-0,0.037 0.006,0.07 0.017,0.102c0.012,0.031 0.03,0.056 0.054,0.075c0.024,0.019 0.055,0.029 0.092,0.029Z" style="fill-rule:nonzero;"/></g><g transform="matrix(14,0,0,14,294.975,116.51)"><path d="M0.161,-0.328l-0,0.328l-0.084,-0l-0,-0.545l0.081,-0l-0,0.085l0.007,-0c0.013,-0.028 0.032,-0.05 0.058,-0.067c0.026,-0.017 0.06,-0.026 0.101,-0.026c0.037,0 0.069,0.008 0.097,0.023c0.028,0.015 0.049,0.038 0.064,0.068c0.016,0.031 0.024,0.069 0.024,0.115l-0,0.347l-0.084,-0l-0,-0.341c-0,-0.043 -0.011,-0.076 -0.034,-0.1c-0.022,-0.024 -0.052,-0.036 -0.091,-0.036c-0.027,-0 -0.051,0.006 -0.072,0.017c-0.021,0.012 -0.037,0.029 -0.049,0.051c-0.012,0.022 -0.018,0.049 -0.018,0.081Z" style="fill-rule:nonzero;"/></g><g transform="matrix(14,0,0,14,307.106,116.51)"><path d="M0.237,0.013c-0.034,-0 -0.066,-0.007 -0.094,-0.02c-0.028,-0.013 -0.05,-0.032 -0.067,-0.057c-0.017,-0.025 -0.025,-0.055 -0.025,-0.091c0,-0.031 0.006,-0.056 0.019,-0.076c0.012,-0.02 0.028,-0.035 0.049,-0.046c0.021,-0.011 0.043,-0.019 0.068,-0.025c0.025,-0.006 0.05,-0.01 0.076,-0.013c0.033,-0.005 0.06,-0.008 0.081,-0.01c0.02,-0.002 0.035,-0.006 0.045,-0.012c0.01,-0.005 0.014,-0.015 0.014,-0.028l0,-0.003c0,-0.035 -0.009,-0.062 -0.028,-0.082c-0.019,-0.019 -0.048,-0.029 -0.087,-0.029c-0.04,0 -0.071,0.009 -0.094,0.027c-0.022,0.017 -0.038,0.036 -0.048,0.056l-0.079,-0.029c0.014,-0.033 0.033,-0.059 0.057,-0.077c0.024,-0.019 0.05,-0.032 0.078,-0.039c0.028,-0.008 0.056,-0.012 0.084,-0.012c0.017,0 0.037,0.003 0.06,0.007c0.023,0.004 0.045,0.012 0.066,0.025c0.022,0.013 0.04,0.032 0.054,0.058c0.014,0.026 0.021,0.06 0.021,0.104l0,0.359l-0.084,0l0,-0.074l-0.004,0c-0.006,0.012 -0.015,0.025 -0.028,0.038c-0.014,0.014 -0.031,0.025 -0.053,0.035c-0.022,0.009 -0.049,0.014 -0.081,0.014Zm0.013,-0.075c0.033,-0 0.061,-0.007 0.084,-0.02c0.023,-0.013 0.04,-0.03 0.052,-0.05c0.012,-0.021 0.017,-0.043 0.017,-0.065l0,-0.077c-0.003,0.004 -0.011,0.008 -0.023,0.011c-0.012,0.004 -0.026,0.007 -0.041,0.009c-0.016,0.003 -0.031,0.005 -0.045,0.007c-0.015,0.001 -0.026,0.003 -0.035,0.004c-0.022,0.003 -0.043,0.008 -0.061,0.014c-0.019,0.006 -0.034,0.015 -0.046,0.028c-0.011,0.012 -0.017,0.029 -0.017,0.05c-0,0.03 0.011,0.052 0.032,0.066c0.022,0.015 0.05,0.023 0.083,0.023Z" style="fill-rule:nonzero;"/></g><g transform="matrix(14,0,0,14,318.938,116.51)"><path d="M0.298,0.011c-0.051,0 -0.095,-0.012 -0.132,-0.036c-0.037,-0.024 -0.065,-0.057 -0.085,-0.1c-0.02,-0.042 -0.03,-0.09 -0.03,-0.145c0,-0.055 0.01,-0.104 0.031,-0.147c0.02,-0.042 0.049,-0.075 0.086,-0.1c0.037,-0.024 0.08,-0.036 0.129,-0.036c0.038,0 0.073,0.008 0.104,0.022c0.03,0.014 0.056,0.034 0.075,0.059c0.02,0.026 0.032,0.056 0.037,0.09l-0.084,-0c-0.006,-0.025 -0.021,-0.047 -0.042,-0.066c-0.022,-0.02 -0.052,-0.029 -0.089,-0.029c-0.032,-0 -0.061,0.008 -0.085,0.025c-0.025,0.017 -0.044,0.041 -0.058,0.071c-0.013,0.031 -0.02,0.067 -0.02,0.108c-0,0.042 0.007,0.079 0.02,0.11c0.013,0.032 0.032,0.056 0.057,0.073c0.024,0.017 0.053,0.026 0.086,0.026c0.022,0 0.042,-0.004 0.06,-0.011c0.017,-0.008 0.032,-0.019 0.045,-0.033c0.012,-0.014 0.021,-0.031 0.026,-0.051l0.084,-0c-0.005,0.032 -0.017,0.061 -0.035,0.087c-0.019,0.025 -0.043,0.046 -0.074,0.061c-0.03,0.015 -0.065,0.022 -0.106,0.022Z" style="fill-rule:nonzero;"/></g><g transform="matrix(14,0,0,14,326.754,116.51)"><path d="M0.298,0.011c-0.049,0 -0.092,-0.011 -0.129,-0.035c-0.037,-0.023 -0.066,-0.056 -0.087,-0.098c-0.021,-0.042 -0.031,-0.092 -0.031,-0.148c0,-0.057 0.01,-0.106 0.031,-0.149c0.021,-0.042 0.05,-0.075 0.087,-0.098c0.037,-0.024 0.08,-0.036 0.129,-0.036c0.05,0 0.093,0.012 0.13,0.036c0.037,0.023 0.066,0.056 0.086,0.098c0.021,0.043 0.031,0.092 0.031,0.149c0,0.056 -0.01,0.106 -0.031,0.148c-0.02,0.042 -0.049,0.075 -0.086,0.098c-0.037,0.024 -0.08,0.035 -0.13,0.035Zm0,-0.075c0.038,0 0.068,-0.01 0.093,-0.029c0.024,-0.019 0.042,-0.044 0.053,-0.075c0.012,-0.032 0.018,-0.065 0.018,-0.102c-0,-0.036 -0.006,-0.07 -0.018,-0.102c-0.011,-0.031 -0.029,-0.057 -0.053,-0.076c-0.025,-0.02 -0.055,-0.029 -0.093,-0.029c-0.037,-0 -0.068,0.009 -0.092,0.029c-0.024,0.019 -0.042,0.045 -0.054,0.076c-0.011,0.032 -0.017,0.066 -0.017,0.102c-0,0.037 0.006,0.07 0.017,0.102c0.012,0.031 0.03,0.056 0.054,0.075c0.024,0.019 0.055,0.029 0.092,0.029Z" style="fill-rule:nonzero;"/></g><g transform="matrix(14,0,0,14,335.106,116.51)"><path d="M0.077,-0l-0,-0.545l0.081,-0l-0,0.085l0.007,-0c0.011,-0.029 0.029,-0.052 0.055,-0.068c0.025,-0.016 0.056,-0.025 0.091,-0.025c0.036,0 0.066,0.009 0.09,0.025c0.024,0.016 0.043,0.039 0.056,0.068l0.006,-0c0.014,-0.028 0.035,-0.051 0.063,-0.068c0.028,-0.016 0.061,-0.025 0.1,-0.025c0.049,0 0.089,0.016 0.12,0.046c0.031,0.03 0.047,0.078 0.047,0.142l-0,0.365l-0.084,-0l-0,-0.365c-0,-0.04 -0.011,-0.069 -0.033,-0.086c-0.022,-0.018 -0.048,-0.026 -0.078,-0.026c-0.038,-0 -0.068,0.011 -0.089,0.034c-0.021,0.023 -0.032,0.053 -0.032,0.088l0,0.355l-0.085,0l0,-0.374c0,-0.031 -0.01,-0.056 -0.03,-0.075c-0.02,-0.019 -0.046,-0.028 -0.078,-0.028c-0.022,-0 -0.042,0.006 -0.061,0.017c-0.019,0.012 -0.034,0.028 -0.045,0.048c-0.012,0.021 -0.017,0.044 -0.017,0.071l-0,0.341l-0.084,0Z" style="fill-rule:nonzero;"/></g><g transform="matrix(14,0,0,14,347.276,116.51)"><path d="M0.077,0.205l-0,-0.75l0.081,-0l-0,0.086l0.01,0c0.006,-0.009 0.014,-0.021 0.025,-0.036c0.011,-0.015 0.027,-0.028 0.048,-0.04c0.021,-0.012 0.049,-0.018 0.084,-0.018c0.046,0 0.087,0.012 0.122,0.035c0.035,0.023 0.062,0.055 0.082,0.098c0.019,0.042 0.029,0.091 0.029,0.149c0,0.057 -0.01,0.107 -0.029,0.15c-0.02,0.042 -0.047,0.075 -0.082,0.098c-0.035,0.023 -0.075,0.034 -0.12,0.034c-0.035,0 -0.063,-0.005 -0.084,-0.017c-0.022,-0.012 -0.038,-0.025 -0.049,-0.04c-0.011,-0.015 -0.02,-0.028 -0.026,-0.038l-0.007,0l-0,0.289l-0.084,-0Zm0.082,-0.478c0,0.041 0.006,0.078 0.018,0.109c0.012,0.031 0.03,0.056 0.053,0.074c0.023,0.017 0.052,0.026 0.085,0.026c0.035,0 0.065,-0.009 0.088,-0.028c0.024,-0.018 0.042,-0.043 0.053,-0.075c0.012,-0.032 0.018,-0.067 0.018,-0.106c0,-0.038 -0.005,-0.073 -0.017,-0.104c-0.012,-0.03 -0.03,-0.055 -0.053,-0.073c-0.024,-0.018 -0.053,-0.027 -0.089,-0.027c-0.034,-0 -0.062,0.008 -0.086,0.025c-0.023,0.018 -0.04,0.042 -0.052,0.072c-0.012,0.031 -0.018,0.067 -0.018,0.107Z" style="fill-rule:nonzero;"/></g><g transform="matrix(14,0,0,14,355.808,116.51)"><path d="M0.42,-0.223l0,-0.322l0.084,-0l0,0.545l-0.084,-0l0,-0.092l-0.005,-0c-0.013,0.027 -0.033,0.051 -0.06,0.07c-0.027,0.019 -0.061,0.029 -0.102,0.029c-0.034,0 -0.065,-0.007 -0.091,-0.022c-0.027,-0.015 -0.047,-0.038 -0.063,-0.069c-0.015,-0.03 -0.022,-0.068 -0.022,-0.115l-0,-0.346l0.084,-0l-0,0.34c-0,0.04 0.011,0.072 0.033,0.096c0.022,0.023 0.051,0.035 0.086,0.035c0.021,0 0.042,-0.005 0.064,-0.016c0.021,-0.01 0.039,-0.027 0.054,-0.049c0.015,-0.022 0.022,-0.05 0.022,-0.084Z" style="fill-rule:nonzero;"/></g><g transform="matrix(14,0,0,14,363.941,116.51)"><path d="M0.314,-0.545l-0,0.071l-0.283,-0l0,-0.071l0.283,-0Zm-0.2,-0.131l0.083,-0l0,0.52c0,0.023 0.004,0.041 0.011,0.053c0.007,0.012 0.016,0.019 0.027,0.023c0.011,0.004 0.023,0.006 0.035,0.006c0.009,0 0.017,-0 0.023,-0.001c0.006,-0.002 0.01,-0.002 0.014,-0.003l0.017,0.075c-0.006,0.002 -0.014,0.004 -0.024,0.007c-0.01,0.002 -0.023,0.003 -0.039,0.003c-0.023,0 -0.046,-0.005 -0.069,-0.015c-0.023,-0.01 -0.041,-0.026 -0.056,-0.047c-0.015,-0.021 -0.022,-0.047 -0.022,-0.079l-0,-0.542Z" style="fill-rule:nonzero;"/></g><g transform="matrix(14,0,0,14,368.953,116.51)"><path d="M0.305,0.011c-0.052,0 -0.097,-0.011 -0.135,-0.035c-0.038,-0.023 -0.068,-0.056 -0.088,-0.098c-0.021,-0.042 -0.031,-0.091 -0.031,-0.146c0,-0.056 0.01,-0.106 0.031,-0.148c0.02,-0.043 0.049,-0.076 0.086,-0.101c0.037,-0.024 0.08,-0.036 0.129,-0.036c0.028,0 0.056,0.005 0.084,0.015c0.028,0.009 0.053,0.024 0.076,0.046c0.022,0.021 0.041,0.049 0.054,0.084c0.014,0.034 0.02,0.077 0.02,0.128l0,0.036l-0.42,-0l-0,-0.073l0.335,0c0,-0.031 -0.006,-0.058 -0.018,-0.082c-0.012,-0.024 -0.03,-0.043 -0.052,-0.057c-0.022,-0.014 -0.049,-0.021 -0.079,-0.021c-0.034,-0 -0.062,0.008 -0.087,0.024c-0.024,0.017 -0.043,0.038 -0.056,0.065c-0.013,0.026 -0.019,0.054 -0.019,0.084l-0,0.048c-0,0.042 0.007,0.076 0.021,0.105c0.015,0.028 0.035,0.05 0.06,0.065c0.026,0.015 0.056,0.022 0.089,0.022c0.022,0 0.042,-0.003 0.06,-0.009c0.018,-0.007 0.034,-0.016 0.047,-0.029c0.013,-0.012 0.023,-0.028 0.03,-0.047l0.081,0.023c-0.009,0.027 -0.023,0.051 -0.043,0.072c-0.02,0.021 -0.045,0.037 -0.075,0.048c-0.029,0.012 -0.063,0.017 -0.1,0.017Z" style="fill-rule:nonzero;"/></g><g transform="matrix(14,0,0,14,377.106,116.51)"><path d="M0.077,-0l-0,-0.545l0.081,-0l-0,0.082l0.005,-0c0.01,-0.027 0.028,-0.049 0.054,-0.066c0.026,-0.017 0.056,-0.025 0.088,-0.025c0.007,0 0.014,0 0.023,0c0.01,0.001 0.017,0.001 0.021,0.001l0,0.086c-0.002,-0.001 -0.009,-0.002 -0.019,-0.004c-0.01,-0.001 -0.021,-0.002 -0.032,-0.002c-0.026,-0 -0.05,0.005 -0.071,0.017c-0.02,0.011 -0.037,0.026 -0.049,0.045c-0.012,0.019 -0.017,0.041 -0.017,0.066l-0,0.345l-0.084,-0Z" style="fill-rule:nonzero;"/></g></g></g></g></svg>