<?xml version="1.0" encoding="UTF-8" standalone="no"?><!DOCTYPE svg PUBLIC "-//W3C//DTD SVG 1.1//EN" "http://www.w3.org/Graphics/SVG/1.1/DTD/svg11.dtd"><svg width="100%" height="100%" viewBox="0 0 1749 1276" version="1.1" xmlns="http://www.w3.org/2000/svg" xmlns:xlink="http://www.w3.org/1999/xlink" xml:space="preserve" xmlns:serif="http://www.serif.com/" style="fill-rule:evenodd;clip-rule:evenodd;stroke-linecap:round;stroke-linejoin:round;stroke-miterlimit:1.5;"><rect id="Artboard2" x="0" y="0" width="1748.03" height="1275.59" style="fill:none;"/><clipPath id="_clip1"><rect x="0" y="0" width="1748.03" height="1275.59"/></clipPath><g clip-path="url(#_clip1)"><g><g><rect x="-30.045" y="0" width="1808.12" height="1282.79" style="fill:#ada7ff;"/><g><path d="M1605.22,367.496c-0,-108.111 -87.773,-195.884 -195.884,-195.884l-1070.65,0c-108.113,0 -195.886,87.773 -195.886,195.884l0,908.25c0,108.111 87.773,195.884 195.886,195.884l1070.65,0c108.111,0 195.884,-87.773 195.884,-195.884l-0,-908.25Z" style="fill:#f8f9fa;stroke:#212529;stroke-width:25.86px;"/></g><g><text x="475.468px" y="377.112px" style="font-family:'Inter-Regular_Black', 'Inter', sans-serif;font-size:129.297px;">Lor<tspan x="671.25px " y="377.112px ">e</tspan>m Ipsum</text></g><g><g transform="matrix(1.05937,0,0,1.03438,281.069,637.329)"><text x="0px" y="-0px" style="font-family:'Inter-Regular', 'Inter', sans-serif;font-size:45px;">Lor<tspan x="68.139px " y="-0px ">e</tspan>m ipsum dolor sit amet, conset<tspan x="747.038px " y="-0px ">e</tspan>tur sadipscing</text><text x="0px" y="45px" style="font-family:'Inter-Regular', 'Inter', sans-serif;font-size:45px;">elitr<tspan x="77.855px " y="45px ">,</tspan> sed diam nonum<tspan x="453.068px " y="45px ">y</tspan> eirmod t<tspan x="667.106px " y="45px ">e</tspan>mpor in<tspan x="852.219px " y="45px ">v</tspan>idunt ut</text><text x="0px" y="90px" style="font-family:'Inter-Regular', 'Inter', sans-serif;font-size:45px;">labor<tspan x="106.811px " y="90px ">e</tspan> et dolor<tspan x="309.183px " y="90px ">e</tspan> magna aliquy<tspan x="628.945px " y="90px ">a</tspan>m erat, sed diam</text><text x="0px" y="135px" style="font-family:'Inter-Regular', 'Inter', sans-serif;font-size:45px;">v<tspan x="24.162px " y="135px ">o</tspan>luptua.</text></g></g><g><g transform="matrix(1.05937,0,0,1.03438,281.069,1012.51)"><text x="0px" y="-0px" style="font-family:'Inter-Regular', 'Inter', sans-serif;font-size:45px;">Lor<tspan x="68.139px " y="-0px ">e</tspan>m ipsum dolor sit amet, conset<tspan x="747.038px " y="-0px ">e</tspan>tur sadipscing</text><text x="0px" y="45px" style="font-family:'Inter-Regular', 'Inter', sans-serif;font-size:45px;">elitr<tspan x="77.855px " y="45px ">,</tspan> sed diam nonum<tspan x="453.068px " y="45px ">y</tspan> eirmod t<tspan x="667.106px " y="45px ">e</tspan>mpor in<tspan x="852.219px " y="45px ">v</tspan>idunt ut</text><text x="0px" y="90px" style="font-family:'Inter-Regular', 'Inter', sans-serif;font-size:45px;">labor<tspan x="106.811px " y="90px ">e</tspan> et dolor<tspan x="309.183px " y="90px ">e</tspan> magna aliquy<tspan x="628.945px " y="90px ">a</tspan>m erat, sed diam</text><text x="0px" y="135px" style="font-family:'Inter-Regular', 'Inter', sans-serif;font-size:45px;">v<tspan x="24.162px " y="135px ">o</tspan>luptua.</text></g></g><g><text x="279.431px" y="549.83px" style="font-family:'Inter-Regular_Bold', 'Inter', sans-serif;font-size:72.406px;">Lor<tspan x="389.069px " y="549.83px ">e</tspan>m Ipsum</text></g></g><g><text x="278.107px" y="914.555px" style="font-family:'Inter-Regular_Bold', 'Inter', sans-serif;font-size:72.406px;">Lor<tspan x="387.745px " y="914.555px ">e</tspan>m Ipsum</text></g></g></g></svg>