<?xml version="1.0" encoding="utf-8"?>
<!-- Generator: Adobe Illustrator 25.1.0, SVG Export Plug-In . SVG Version: 6.00 Build 0)  -->
<svg version="1.1" id="Layer_1" xmlns="http://www.w3.org/2000/svg" xmlns:xlink="http://www.w3.org/1999/xlink" x="0px" y="0px"
	 viewBox="0 0 24 24" style="enable-background:new 0 0 24 24;" xml:space="preserve">
<style type="text/css">
	.st0{fill:#212529;}
	.st1{fill:#F85555;}
</style>
<g id="XMLID_1_">
	<g>
		<path class="st0" d="M20.2,5c2.4,2.4,2.4,6.4,0,8.8l-6.2,6.2c-1.1,1.1-2.8,1.1-3.9,0l-6.2-6.2c-2.2-2.2-2.5-5.7-0.6-8.2
			c2.1-2.8,6-3.4,8.8-1.3C14.5,2.5,18,2.8,20.2,5z M18.8,12.4c1.6-1.7,1.6-4.4-0.1-6c-1.7-1.6-4.3-1.6-6,0c0,0,0,0,0,0
			c-0.4,0.4-1,0.4-1.4,0c-1.7-1.6-4.3-1.6-6,0c-1.6,1.7-1.6,4.3,0,6l6.2,6.2c0,0,0,0,0,0c0.3,0.3,0.8,0.3,1.1,0L18.8,12.4L18.8,12.4
			z"/>
		<path class="st1" d="M18.7,6.4c1.6,1.7,1.7,4.3,0.1,6v0l-6.2,6.2c-0.3,0.3-0.8,0.3-1.1,0c0,0,0,0,0,0l-6.2-6.2
			c-1.6-1.7-1.6-4.3,0-6c1.7-1.6,4.3-1.6,6,0c0.4,0.4,1,0.4,1.4,0c0,0,0,0,0,0C14.3,4.8,17,4.8,18.7,6.4z"/>
	</g>
	<g>
	</g>
</g>
</svg>
