<?xml version="1.0" encoding="UTF-8" standalone="no"?>
<!DOCTYPE svg PUBLIC "-//W3C//DTD SVG 1.1//EN" "http://www.w3.org/Graphics/SVG/1.1/DTD/svg11.dtd">
<svg width="100%" height="100%" viewBox="0 0 24 24" version="1.1" xmlns="http://www.w3.org/2000/svg" xmlns:xlink="http://www.w3.org/1999/xlink" xml:space="preserve" xmlns:serif="http://www.serif.com/" style="fill-rule:evenodd;clip-rule:evenodd;stroke-linejoin:round;stroke-miterlimit:2;">
    <g>
        <g>
            <g id="XMLID_1_">
                <g>
                    <circle cx="5" cy="3.9" r="3" style="fill:rgb(33,37,41);"/>
                </g>
            </g>
            <g id="XMLID_3_">
                <g>
                    <path d="M22,14.4L22,19.9C22,21 21.1,21.9 20,21.9L18.3,21.9C17.2,21.9 16.3,21 16.3,19.9L16.3,14.5C16.3,14.1 16,13.7 15.6,13.6C15.4,13.6 15.1,13.6 14.9,13.8C14.7,14 14.6,14.2 14.6,14.4L14.6,19.9C14.6,21 13.7,21.9 12.6,21.9L11,21.9C9.9,21.9 9,21 9,19.9L9,14.4C9,10.8 11.9,7.9 15.5,7.9C19.1,7.9 22,10.8 22,14.4Z" style="fill:rgb(33,37,41);fill-rule:nonzero;"/>
                </g>
            </g>
            <g id="XMLID_2_">
                <g>
                    <path d="M8,9.9L8,19.9C8,21 7.1,21.9 6,21.9L4,21.9C2.9,21.9 2,21 2,19.9L2,9.9C2,8.8 2.9,7.9 4,7.9L6,7.9C7.2,7.9 8,8.8 8,9.9Z" style="fill:rgb(33,37,41);fill-rule:nonzero;"/>
                </g>
            </g>
            <rect x="0" y="-0.1" width="24" height="24" style="fill-opacity:0;"/>
            <path d="M15.5,11.6L16,11.6C17.4,11.9 18.4,13.1 18.4,14.5L18.4,19.9L20,19.9L20,14.4C20,11.9 18,9.9 15.5,9.9C13,9.9 11,11.9 11,14.4L11,19.9L12.7,19.9L12.7,14.4C12.7,12.8 14,11.6 15.5,11.6ZM4,9.9L4,19.9L6,19.9L6,9.9L4,9.9ZM5,2.9C4.4,2.9 4,3.3 4,3.9C4,4.5 4.4,4.9 5,4.9C5.6,4.9 6,4.5 6,3.9C6,3.3 5.6,2.9 5,2.9Z" style="fill:rgb(14,118,168);fill-rule:nonzero;"/>
        </g>
    </g>
</svg>
