<?xml version="1.0" encoding="UTF-8" standalone="no"?><!DOCTYPE svg PUBLIC "-//W3C//DTD SVG 1.1//EN" "http://www.w3.org/Graphics/SVG/1.1/DTD/svg11.dtd"><svg width="100%" height="100%" viewBox="0 0 100 100" version="1.1" xmlns="http://www.w3.org/2000/svg" xmlns:xlink="http://www.w3.org/1999/xlink" xml:space="preserve" xmlns:serif="http://www.serif.com/" style="fill-rule:evenodd;clip-rule:evenodd;stroke-linejoin:round;stroke-miterlimit:2;"><path d="M87.357,87.373l0,-0.003l0.016,0l0,-27.412c0,-13.413 -2.886,-23.741 -18.563,-23.741c-7.536,0 -12.593,4.137 -14.66,8.06l-0.218,0l0,-6.808l-14.865,-0l0,49.901l15.48,0l-0,-24.709c-0,-6.506 1.234,-12.794 9.291,-12.794c7.939,-0 8.056,7.426 8.056,13.217l0,24.289l15.463,0Zm-73.495,-49.901l15.498,-0l0,49.901l-15.498,0l-0,-49.901Zm7.741,-24.845c-4.956,-0 -8.976,4.023 -8.976,8.976c-0,4.956 4.02,9.057 8.976,9.057c4.953,0 8.976,-4.104 8.976,-9.057c-0.003,-4.953 -4.023,-8.976 -8.976,-8.976Z" style="fill:#0077b5;fill-rule:nonzero;"/><path d="M86.545,88.998l-15.128,0c-1.346,0 -2.438,-1.092 -2.438,-2.437l0,-23.763c0,-7.254 -0.786,-10.491 -5.443,-10.491c-4.212,0 -6.65,1.648 -6.65,10.081l0,24.173c0,1.345 -1.092,2.437 -2.437,2.437l-15.144,0c-1.346,0 -2.438,-1.092 -2.438,-2.437l0,-48.819c0,-1.346 1.092,-2.438 2.438,-2.438l14.54,0c1.345,0 2.437,1.092 2.437,2.438l-0,0.39c2.931,-2.305 7.003,-4.053 12.119,-4.053c18.257,-0 20.597,13.714 20.597,25.661l0,26.818c0,1.345 -1.092,2.437 -2.437,2.437l-0.016,0.003Zm-12.691,-4.875l10.269,0l0,-24.383c0,-15.154 -4.263,-20.786 -15.722,-20.786c-6.435,-0 -10.585,3.545 -12.187,6.581c-0.423,0.799 -1.251,1.3 -2.158,1.3c-1.346,-0 -2.649,-1.092 -2.649,-2.438l0,-4.218l-9.665,-0l0,43.941l10.27,0l-0,-21.735c-0,-3.698 -0,-14.956 11.524,-14.956c10.318,0 10.318,9.997 10.318,15.366l-0,21.328Zm-44.045,4.875l-15.161,0c-1.345,0 -2.437,-1.092 -2.437,-2.437l-0,-48.816c-0,-1.346 1.092,-2.438 2.437,-2.438l15.161,0c1.345,0 2.437,1.092 2.437,2.438l0,48.816c0,1.345 -1.092,2.437 -2.437,2.437Zm-12.724,-4.875l10.286,0l0,-43.941l-10.286,0l0,43.941Zm5.135,-50.603c-6.187,-0 -11.218,-5.07 -11.218,-11.3c-0,-6.184 5.031,-11.218 11.218,-11.218c6.185,-0 11.215,5.034 11.215,11.218c0,6.23 -5.034,11.3 -11.215,11.3Zm0,-17.643c-3.5,-0 -6.343,2.843 -6.343,6.343c-0,3.543 2.843,6.425 6.343,6.425c3.497,0 6.341,-2.882 6.341,-6.425c-0,-3.5 -2.847,-6.343 -6.341,-6.343Z" style="fill:#212529;fill-rule:nonzero;stroke:#212529;stroke-width:2.71px;"/></svg>