<?xml version="1.0" encoding="UTF-8" standalone="no"?>
<!DOCTYPE svg PUBLIC "-//W3C//DTD SVG 1.1//EN" "http://www.w3.org/Graphics/SVG/1.1/DTD/svg11.dtd">
<svg width="100%" height="100%" viewBox="0 0 605 196" version="1.1" xmlns="http://www.w3.org/2000/svg" xmlns:xlink="http://www.w3.org/1999/xlink" xml:space="preserve" xmlns:serif="http://www.serif.com/" style="fill-rule:evenodd;clip-rule:evenodd;stroke-linejoin:round;stroke-miterlimit:2;">
    <g transform="matrix(0.71989,0,0,0.573405,6.24657,4.16962)">
        <rect x="0" y="0" width="794.088" height="313.914" style="fill:none;"/>
    </g>
    <g transform="matrix(1.70741,0,0,1.72209,-361.218,-79.7929)">
        <g>
            <g>
                <g>
                    <g transform="matrix(1,0,0,1,-0.236287,5.81514)">
                        <path d="M276.835,53.127L294.486,53.127L294.486,107.353C294.486,113.455 293.041,118.791 290.151,123.362C287.261,127.932 283.219,131.486 278.026,134.023C272.832,136.559 266.78,137.828 259.868,137.828C252.924,137.828 246.855,136.559 241.662,134.023C236.469,131.486 232.435,127.932 229.561,123.362C226.688,118.791 225.251,113.455 225.251,107.353L225.251,53.127L242.902,53.127L242.902,105.853C242.902,109.034 243.603,111.866 245.006,114.348C246.409,116.831 248.384,118.776 250.932,120.185C253.48,121.593 256.459,122.297 259.868,122.297C263.294,122.297 266.28,121.593 268.825,120.185C271.37,118.776 273.341,116.831 274.738,114.348C276.136,111.866 276.835,109.034 276.835,105.853L276.835,53.127Z" style="fill:none;fill-rule:nonzero;stroke:rgb(33,37,41);stroke-width:23.33px;"/>
                        <path d="M276.835,53.127L294.486,53.127L294.486,107.353C294.486,113.455 293.041,118.791 290.151,123.362C287.261,127.932 283.219,131.486 278.026,134.023C272.832,136.559 266.78,137.828 259.868,137.828C252.924,137.828 246.855,136.559 241.662,134.023C236.469,131.486 232.435,127.932 229.561,123.362C226.688,118.791 225.251,113.455 225.251,107.353L225.251,53.127L242.902,53.127L242.902,105.853C242.902,109.034 243.603,111.866 245.006,114.348C246.409,116.831 248.384,118.776 250.932,120.185C253.48,121.593 256.459,122.297 259.868,122.297C263.294,122.297 266.28,121.593 268.825,120.185C271.37,118.776 273.341,116.831 274.738,114.348C276.136,111.866 276.835,109.034 276.835,105.853L276.835,53.127Z" style="fill:rgb(173,167,255);fill-rule:nonzero;"/>
                    </g>
                    <g transform="matrix(1,0,0,1,13.3137,6.12822)">
                        <path d="M326.95,53.127L343.786,81.611L344.438,81.611L361.372,53.127L381.307,53.127L355.825,94.89L381.894,136.653L361.568,136.653L344.438,108.137L343.786,108.137L326.657,136.653L306.427,136.653L332.562,94.89L306.917,53.127L326.95,53.127Z" style="fill:none;fill-rule:nonzero;stroke:rgb(33,37,41);stroke-width:23.33px;"/>
                        <path d="M326.95,53.127L343.786,81.611L344.438,81.611L361.372,53.127L381.307,53.127L355.825,94.89L381.894,136.653L361.568,136.653L344.438,108.137L343.786,108.137L326.657,136.653L306.427,136.653L332.562,94.89L306.917,53.127L326.95,53.127Z" style="fill:rgb(173,167,255);fill-rule:nonzero;"/>
                    </g>
                </g>
            </g>
        </g>
    </g>
    <g id="Artboard3" transform="matrix(1.05107,0,0,1.06602,3.00677,0)">
        <rect x="-2.861" y="0" width="574.861" height="183.27" style="fill:none;"/>
        <g transform="matrix(0.684912,0,0,0.537892,14.781,0.159532)">
            <g transform="matrix(0.536058,0,0,0.690822,485.267,126.76)">
                <path d="M554.599,32.108C554.599,19.568 544.149,9.388 531.277,9.388L23.322,9.388C10.45,9.388 0,19.568 0,32.108L0,213.871C0,226.411 10.45,236.591 23.322,236.591L531.277,236.591C544.149,236.591 554.599,226.411 554.599,213.871L554.599,32.108Z" style="fill:none;stroke:rgb(33,37,41);stroke-width:102.29px;stroke-linecap:round;stroke-miterlimit:1.5;"/>
                <path d="M554.599,32.108C554.599,19.568 544.149,9.388 531.277,9.388L23.322,9.388C10.45,9.388 0,19.568 0,32.108L0,213.871C0,226.411 10.45,236.591 23.322,236.591L531.277,236.591C544.149,236.591 554.599,226.411 554.599,213.871L554.599,32.108Z" style="fill:rgb(173,167,255);"/>
            </g>
            <g transform="matrix(1.3891,0,0,1.57587,2.31815,-9.13353)">
                <g transform="matrix(0.902995,0,0,0.863784,44.1061,19.0906)">
                    <path d="M378.07,172.404L378.07,106.949L404.442,106.949C409.521,106.949 413.847,107.893 417.419,109.781C420.991,111.669 423.721,114.281 425.607,117.618C427.493,120.955 428.436,124.788 428.436,129.117C428.436,133.472 427.479,137.31 425.565,140.629C423.65,143.949 420.879,146.537 417.253,148.395C413.626,150.253 409.243,151.182 404.102,151.182L387.27,151.182L387.27,140.086L401.802,140.086C404.521,140.086 406.77,139.622 408.549,138.695C410.329,137.769 411.662,136.481 412.548,134.832C413.435,133.182 413.878,131.278 413.878,129.117C413.878,126.944 413.435,125.044 412.548,123.418C411.662,121.793 410.324,120.529 408.536,119.628C406.748,118.727 404.486,118.276 401.75,118.276L392.21,118.276L392.21,172.404L378.07,172.404Z" style="fill:rgb(33,37,41);fill-rule:nonzero;stroke:rgb(33,37,41);stroke-width:5.92px;"/>
                </g>
                <g transform="matrix(0.902995,0,0,0.863784,47.4717,19.0906)">
                    <path d="M436.226,172.404L436.226,123.313L449.712,123.313L449.712,131.878L450.235,131.878C451.149,128.836 452.684,126.533 454.838,124.969C456.993,123.405 459.475,122.623 462.284,122.623C462.981,122.623 463.732,122.662 464.535,122.741C465.339,122.82 466.044,122.932 466.649,123.076L466.649,135.176C466.009,134.972 465.112,134.797 463.957,134.652C462.803,134.508 461.74,134.435 460.768,134.435C458.734,134.435 456.914,134.867 455.309,135.73C453.704,136.593 452.439,137.79 451.516,139.322C450.592,140.854 450.13,142.626 450.13,144.637L450.13,172.404L436.226,172.404Z" style="fill:rgb(33,37,41);fill-rule:nonzero;stroke:rgb(33,37,41);stroke-width:5.92px;"/>
                </g>
                <g transform="matrix(0.902995,0,0,0.863784,57.6511,19.0906)">
                    <path d="M491.593,173.35C486.513,173.35 482.128,172.292 478.439,170.176C474.749,168.061 471.902,165.103 469.898,161.304C467.895,157.505 466.893,153.083 466.893,148.037C466.893,142.975 467.895,138.54 469.898,134.732C471.902,130.925 474.749,127.963 478.439,125.847C482.128,123.732 486.513,122.674 491.593,122.674C496.672,122.674 501.057,123.732 504.746,125.847C508.436,127.963 511.283,130.925 513.287,134.732C515.29,138.54 516.292,142.975 516.292,148.037C516.292,153.083 515.29,157.505 513.287,161.304C511.283,165.103 508.436,168.061 504.746,170.176C501.057,172.292 496.672,173.35 491.593,173.35ZM491.671,162.816C493.962,162.816 495.885,162.17 497.441,160.879C498.996,159.588 500.17,157.824 500.963,155.586C501.756,153.349 502.152,150.807 502.152,147.961C502.152,145.101 501.756,142.552 500.963,140.313C500.17,138.073 498.996,136.304 497.441,135.004C495.885,133.704 493.962,133.054 491.671,133.054C489.327,133.054 487.365,133.704 485.783,135.004C484.202,136.304 483.015,138.073 482.222,140.313C481.429,142.552 481.033,145.101 481.033,147.961C481.033,150.807 481.429,153.349 482.222,155.586C483.015,157.824 484.202,159.588 485.783,160.879C487.365,162.17 489.327,162.816 491.671,162.816Z" style="fill:rgb(33,37,41);fill-rule:nonzero;stroke:rgb(33,37,41);stroke-width:5.92px;"/>
                </g>
            </g>
        </g>
    </g>
</svg>
