<?xml version="1.0" encoding="UTF-8" standalone="no"?><!DOCTYPE svg PUBLIC "-//W3C//DTD SVG 1.1//EN" "http://www.w3.org/Graphics/SVG/1.1/DTD/svg11.dtd"><svg width="100%" height="100%" viewBox="0 0 5471 3171" version="1.1" xmlns="http://www.w3.org/2000/svg" xmlns:xlink="http://www.w3.org/1999/xlink" xml:space="preserve" xmlns:serif="http://www.serif.com/" style="fill-rule:evenodd;clip-rule:evenodd;stroke-linecap:round;stroke-linejoin:round;stroke-miterlimit:10;"><rect id="Artboard1" x="0" y="0" width="5468" height="3170.3" style="fill:none;"/><g><path d="M4104.34,1360.67l-1078.5,1030.52c-464.65,443.98 -922.546,660.105 -1473.65,660.105c-780.904,-0 -1343.77,-561.609 -1343.77,-1356.22l-0,-1539.01l478.696,0l-0,1539c-0,362.617 323.412,898.646 865.075,898.646c541.654,0 747.958,-419.558 747.958,-937.125l0,-1500.53l490.679,0l-4.219,1800.35" style="fill:none;fill-rule:nonzero;stroke:#212529;stroke-width:291.67px;"/><path d="M4558.29,905.296l753.346,-749.238l-578.409,0l-489.767,467.975" style="fill:none;fill-rule:nonzero;stroke:#212529;stroke-width:291.67px;"/><path d="M2787.33,1965.72l978.063,-895.36" style="fill:none;fill-rule:nonzero;stroke:#212529;stroke-width:291.64px;"/><path d="M4155.54,156.058l-909.434,0l2026.61,1753.95l-0,-897.254" style="fill:none;fill-rule:nonzero;stroke:#212529;stroke-width:291.67px;"/><text x="3521.12px" y="3096.01px" style="font-family:'Inter-Regular_ExtraBold', 'Inter', sans-serif;font-size:833.333px;fill:#212529;">PRO</text></g></svg>