<?xml version="1.0" encoding="UTF-8" standalone="no"?><!DOCTYPE svg PUBLIC "-//W3C//DTD SVG 1.1//EN" "http://www.w3.org/Graphics/SVG/1.1/DTD/svg11.dtd"><svg width="100%" height="100%" viewBox="0 0 2134 1308" version="1.1" xmlns="http://www.w3.org/2000/svg" xmlns:xlink="http://www.w3.org/1999/xlink" xml:space="preserve" xmlns:serif="http://www.serif.com/" style="fill-rule:evenodd;clip-rule:evenodd;stroke-linecap:round;stroke-linejoin:round;stroke-miterlimit:10;"><rect id="Artboard1" x="0" y="0" width="2133.33" height="1307.98" style="fill:none;"/><path d="M1596.19,553.984l-423.488,423.487c-182.45,182.45 -362.25,271.267 -578.646,271.267c-306.633,0 -527.65,-230.792 -527.65,-557.333l0,-632.45l187.967,-0l-0,632.446c-0,149.016 126.992,369.295 339.683,369.295c212.688,0 293.696,-172.416 293.696,-385.108l0,-616.633l192.671,-0l0,754.386" style="fill:none;fill-rule:nonzero;stroke:#212529;stroke-width:104.17px;"/><path d="M1774.45,366.851l295.812,-307.896l-227.121,-0l-192.312,192.312" style="fill:none;fill-rule:nonzero;stroke:#212529;stroke-width:104.17px;"/><path d="M1080.42,813.341l382.675,-378.657" style="fill:none;fill-rule:nonzero;stroke:#212529;stroke-width:104.17px;"/><path d="M1616.3,58.955l-357.1,-0l795.775,720.775l-0,-368.721" style="fill:none;fill-rule:nonzero;stroke:#212529;stroke-width:104.17px;"/><path d="M1385.85,1296.74l-0,-212.122l91.56,0c15.743,0 29.519,3.108 41.326,9.322c11.808,6.215 20.991,14.949 27.551,26.204c6.56,11.256 9.84,24.41 9.84,39.462c-0,15.191 -3.367,28.345 -10.099,39.462c-6.732,11.117 -16.158,19.68 -28.276,25.687c-12.118,6.007 -26.256,9.011 -42.414,9.011l-54.687,0l-0,-44.744l43.087,-0c6.767,-0 12.55,-1.191 17.349,-3.574c4.799,-2.382 8.493,-5.783 11.082,-10.202c2.589,-4.419 3.884,-9.632 3.884,-15.64c0,-6.076 -1.295,-11.272 -3.884,-15.588c-2.589,-4.315 -6.283,-7.63 -11.082,-9.943c-4.799,-2.313 -10.582,-3.469 -17.349,-3.469l-20.301,-0l0,166.134l-57.587,-0Z" style="fill:#212529;fill-rule:nonzero;"/><path d="M1571.04,1296.74l0,-212.122l91.56,0c15.744,0 29.519,2.866 41.327,8.597c11.807,5.731 20.991,13.983 27.551,24.754c6.559,10.772 9.839,23.684 9.839,38.737c0,15.191 -3.366,28 -10.098,38.427c-6.733,10.426 -16.158,18.298 -28.276,23.615c-12.118,5.317 -26.256,7.975 -42.414,7.975l-54.688,-0l0,-44.744l43.088,-0c6.766,-0 12.549,-0.846 17.348,-2.538c4.799,-1.692 8.494,-4.402 11.083,-8.131c2.589,-3.728 3.884,-8.596 3.884,-14.604c-0,-6.076 -1.295,-11.03 -3.884,-14.863c-2.589,-3.832 -6.284,-6.663 -11.083,-8.493c-4.799,-1.83 -10.582,-2.744 -17.348,-2.744l-20.301,-0l-0,166.134l-57.588,-0Zm124.29,-97.361l53.03,97.361l-62.559,-0l-51.787,-97.361l61.316,0Z" style="fill:#212529;fill-rule:nonzero;"/><path d="M1962.97,1190.68c0,23.615 -4.591,43.519 -13.775,59.711c-9.184,16.192 -21.578,28.448 -37.183,36.769c-15.606,8.32 -33.006,12.481 -52.202,12.481c-19.334,-0 -36.786,-4.195 -52.357,-12.585c-15.571,-8.389 -27.931,-20.68 -37.08,-36.872c-9.149,-16.193 -13.724,-36.027 -13.724,-59.504c0,-23.615 4.575,-43.519 13.724,-59.711c9.149,-16.192 21.509,-28.449 37.08,-36.769c15.571,-8.321 33.023,-12.481 52.357,-12.481c19.196,0 36.596,4.16 52.202,12.481c15.605,8.32 27.999,20.577 37.183,36.769c9.184,16.192 13.775,36.096 13.775,59.711Zm-59.244,-0c-0,-12.705 -1.675,-23.425 -5.024,-32.16c-3.349,-8.735 -8.286,-15.364 -14.811,-19.886c-6.525,-4.523 -14.552,-6.785 -24.081,-6.785c-9.529,0 -17.556,2.262 -24.081,6.785c-6.525,4.522 -11.463,11.151 -14.811,19.886c-3.349,8.735 -5.024,19.455 -5.024,32.16c0,12.705 1.675,23.425 5.024,32.16c3.348,8.735 8.286,15.363 14.811,19.886c6.525,4.523 14.552,6.784 24.081,6.784c9.529,0 17.556,-2.261 24.081,-6.784c6.525,-4.523 11.462,-11.151 14.811,-19.886c3.349,-8.735 5.024,-19.455 5.024,-32.16Z" style="fill:#212529;fill-rule:nonzero;"/></svg>