<?xml version="1.0" encoding="UTF-8" standalone="no"?>
<!DOCTYPE svg PUBLIC "-//W3C//DTD SVG 1.1//EN" "http://www.w3.org/Graphics/SVG/1.1/DTD/svg11.dtd">
<svg width="100%" height="100%" viewBox="0 0 1749 1241" version="1.1" xmlns="http://www.w3.org/2000/svg" xmlns:xlink="http://www.w3.org/1999/xlink" xml:space="preserve" xmlns:serif="http://www.serif.com/" style="fill-rule:evenodd;clip-rule:evenodd;stroke-linecap:round;stroke-linejoin:round;stroke-miterlimit:1.5;">
    <rect id="Artboard1" x="0" y="0" width="1748.03" height="1240.16" style="fill:none;"/>
    <g>
        <g>
            <rect x="-0" y="0" width="1748.03" height="1240.16" style="fill:rgb(173,167,255);"/>
            <g>
                <g transform="matrix(1,0,0,1,53.561,233.39)">
                    <path d="M1236.39,207.112C1236.39,187.541 1220.5,171.651 1200.93,171.651L439.979,171.651C420.408,171.651 404.518,187.541 404.518,207.112L404.518,371.533C404.518,391.104 420.408,406.994 439.979,406.994L1200.93,406.994C1220.5,406.994 1236.39,391.104 1236.39,371.533L1236.39,207.112Z" style="fill:url(#_Linear1);stroke:rgb(33,37,41);stroke-width:25px;"/>
                </g>
                <g transform="matrix(1,0,0,1,745.091,568.167)">
                    <g transform="matrix(125,0,0,125,0,0)">
                        <path d="M0.331,0.01C0.296,0.01 0.262,0.004 0.229,-0.008C0.196,-0.02 0.166,-0.04 0.14,-0.067C0.113,-0.094 0.092,-0.13 0.077,-0.175C0.061,-0.22 0.053,-0.276 0.053,-0.343C0.053,-0.406 0.06,-0.462 0.073,-0.511C0.086,-0.56 0.105,-0.601 0.13,-0.635C0.155,-0.669 0.185,-0.695 0.22,-0.713C0.255,-0.73 0.295,-0.739 0.338,-0.739C0.384,-0.739 0.425,-0.73 0.46,-0.712C0.496,-0.694 0.524,-0.669 0.546,-0.638C0.568,-0.607 0.581,-0.571 0.586,-0.531L0.457,-0.531C0.45,-0.56 0.436,-0.583 0.416,-0.6C0.396,-0.617 0.37,-0.625 0.338,-0.625C0.288,-0.625 0.249,-0.603 0.222,-0.559C0.195,-0.515 0.181,-0.455 0.181,-0.377L0.186,-0.377C0.198,-0.398 0.213,-0.416 0.231,-0.431C0.25,-0.446 0.271,-0.457 0.294,-0.465C0.317,-0.474 0.342,-0.478 0.368,-0.478C0.411,-0.478 0.449,-0.467 0.483,-0.447C0.517,-0.427 0.544,-0.399 0.563,-0.363C0.583,-0.327 0.593,-0.287 0.593,-0.241C0.593,-0.193 0.582,-0.15 0.56,-0.112C0.538,-0.074 0.508,-0.044 0.468,-0.022C0.429,-0.001 0.383,0.01 0.331,0.01ZM0.33,-0.097C0.356,-0.097 0.379,-0.103 0.4,-0.115C0.42,-0.128 0.436,-0.145 0.448,-0.166C0.46,-0.188 0.465,-0.211 0.465,-0.238C0.465,-0.264 0.46,-0.287 0.448,-0.308C0.437,-0.33 0.421,-0.346 0.401,-0.359C0.381,-0.371 0.358,-0.377 0.332,-0.377C0.313,-0.377 0.295,-0.374 0.278,-0.366C0.262,-0.359 0.247,-0.349 0.235,-0.336C0.223,-0.323 0.213,-0.308 0.206,-0.291C0.199,-0.274 0.196,-0.256 0.195,-0.237C0.196,-0.212 0.201,-0.188 0.213,-0.167C0.225,-0.146 0.241,-0.129 0.261,-0.116C0.281,-0.103 0.305,-0.097 0.33,-0.097Z" style="fill-rule:nonzero;"/>
                    </g>
                    <g transform="matrix(125,0,0,125,77.9474,0)">
                        <path d="M0.334,0.014C0.275,0.014 0.225,-0.001 0.183,-0.031C0.141,-0.06 0.109,-0.103 0.087,-0.16C0.064,-0.216 0.053,-0.284 0.053,-0.363C0.054,-0.442 0.065,-0.51 0.087,-0.566C0.109,-0.621 0.142,-0.664 0.183,-0.693C0.225,-0.723 0.275,-0.737 0.334,-0.737C0.392,-0.737 0.442,-0.723 0.484,-0.693C0.526,-0.664 0.558,-0.621 0.58,-0.565C0.603,-0.51 0.614,-0.442 0.614,-0.363C0.614,-0.284 0.602,-0.216 0.58,-0.159C0.558,-0.103 0.526,-0.06 0.484,-0.031C0.442,-0.001 0.392,0.014 0.334,0.014ZM0.334,-0.097C0.379,-0.097 0.415,-0.12 0.441,-0.165C0.468,-0.209 0.481,-0.276 0.481,-0.363C0.481,-0.421 0.475,-0.469 0.463,-0.509C0.451,-0.548 0.434,-0.577 0.412,-0.598C0.39,-0.618 0.364,-0.628 0.334,-0.628C0.288,-0.628 0.253,-0.605 0.226,-0.56C0.2,-0.515 0.187,-0.45 0.186,-0.363C0.186,-0.305 0.192,-0.256 0.204,-0.217C0.216,-0.177 0.233,-0.147 0.255,-0.127C0.277,-0.107 0.303,-0.097 0.334,-0.097Z" style="fill-rule:nonzero;"/>
                    </g>
                    <g transform="matrix(125,0,0,125,156.072,0)">
                        <path d="M0.453,-0.136L0.453,-0.175C0.454,-0.203 0.46,-0.229 0.471,-0.253C0.483,-0.276 0.501,-0.295 0.524,-0.31C0.547,-0.324 0.575,-0.331 0.607,-0.331C0.641,-0.331 0.669,-0.324 0.692,-0.31C0.715,-0.296 0.732,-0.277 0.744,-0.253C0.755,-0.229 0.761,-0.203 0.761,-0.175L0.761,-0.136C0.761,-0.108 0.755,-0.082 0.744,-0.058C0.732,-0.035 0.714,-0.016 0.691,-0.001C0.668,0.013 0.64,0.02 0.607,0.02C0.574,0.02 0.546,0.013 0.523,-0.001C0.5,-0.016 0.483,-0.035 0.471,-0.058C0.459,-0.082 0.454,-0.108 0.453,-0.136ZM0.546,-0.175L0.546,-0.136C0.546,-0.118 0.551,-0.101 0.56,-0.085C0.569,-0.069 0.585,-0.061 0.607,-0.061C0.63,-0.061 0.646,-0.069 0.655,-0.085C0.664,-0.1 0.668,-0.117 0.668,-0.136L0.668,-0.175C0.668,-0.194 0.664,-0.211 0.655,-0.227C0.647,-0.242 0.631,-0.25 0.607,-0.25C0.585,-0.25 0.569,-0.242 0.56,-0.227C0.551,-0.211 0.546,-0.194 0.546,-0.175ZM0.084,-0.553L0.084,-0.591C0.084,-0.619 0.09,-0.645 0.102,-0.669C0.114,-0.693 0.131,-0.712 0.154,-0.726C0.177,-0.74 0.205,-0.747 0.238,-0.747C0.271,-0.747 0.299,-0.74 0.322,-0.726C0.345,-0.712 0.362,-0.693 0.374,-0.669C0.386,-0.645 0.392,-0.619 0.391,-0.591L0.391,-0.553C0.392,-0.524 0.386,-0.498 0.374,-0.475C0.362,-0.451 0.345,-0.432 0.322,-0.418C0.299,-0.404 0.271,-0.397 0.238,-0.397C0.204,-0.397 0.176,-0.404 0.154,-0.418C0.131,-0.432 0.113,-0.451 0.102,-0.475C0.09,-0.498 0.084,-0.524 0.084,-0.553ZM0.177,-0.591L0.177,-0.553C0.177,-0.534 0.182,-0.516 0.191,-0.501C0.2,-0.485 0.215,-0.478 0.238,-0.478C0.261,-0.478 0.276,-0.485 0.285,-0.501C0.294,-0.516 0.298,-0.534 0.298,-0.553L0.298,-0.591C0.298,-0.61 0.294,-0.627 0.286,-0.643C0.277,-0.659 0.261,-0.666 0.238,-0.666C0.215,-0.666 0.2,-0.659 0.191,-0.643C0.182,-0.627 0.177,-0.61 0.177,-0.591ZM0.116,-0L0.616,-0.727L0.705,-0.727L0.205,-0L0.116,-0Z" style="fill-rule:nonzero;"/>
                    </g>
                </g>
                <g transform="matrix(1,0,0,1,333.923,809.255)">
                    <g transform="matrix(125,0,0,125,0,0)">
                        <path d="M0.072,-0L0.072,-0.727L0.538,-0.727L0.538,-0.617L0.203,-0.617L0.203,-0.419L0.506,-0.419L0.506,-0.309L0.203,-0.309L0.203,-0L0.072,-0Z" style="fill-rule:nonzero;"/>
                    </g>
                    <g transform="matrix(125,0,0,125,68.3594,0)">
                        <path d="M0.308,0.011C0.253,0.011 0.206,-0.001 0.166,-0.024C0.126,-0.047 0.096,-0.079 0.075,-0.121C0.053,-0.163 0.043,-0.213 0.043,-0.27C0.043,-0.326 0.053,-0.375 0.075,-0.417C0.096,-0.46 0.126,-0.493 0.165,-0.517C0.203,-0.541 0.249,-0.553 0.301,-0.553C0.334,-0.553 0.366,-0.547 0.396,-0.536C0.426,-0.526 0.453,-0.509 0.476,-0.487C0.499,-0.464 0.517,-0.436 0.53,-0.401C0.543,-0.366 0.55,-0.325 0.55,-0.277L0.55,-0.237L0.103,-0.237L0.103,-0.324L0.427,-0.324C0.427,-0.349 0.421,-0.371 0.411,-0.39C0.401,-0.409 0.386,-0.425 0.368,-0.436C0.349,-0.447 0.327,-0.452 0.303,-0.452C0.276,-0.452 0.253,-0.446 0.233,-0.433C0.213,-0.421 0.198,-0.404 0.187,-0.384C0.176,-0.363 0.17,-0.341 0.17,-0.316L0.17,-0.241C0.17,-0.209 0.176,-0.182 0.187,-0.159C0.199,-0.137 0.215,-0.119 0.236,-0.107C0.257,-0.095 0.281,-0.089 0.309,-0.089C0.328,-0.089 0.345,-0.092 0.36,-0.097C0.375,-0.103 0.388,-0.111 0.4,-0.121C0.411,-0.132 0.419,-0.145 0.425,-0.16L0.545,-0.146C0.537,-0.115 0.523,-0.087 0.502,-0.064C0.48,-0.04 0.453,-0.022 0.42,-0.009C0.388,0.004 0.35,0.011 0.308,0.011Z" style="fill-rule:nonzero;"/>
                    </g>
                    <g transform="matrix(125,0,0,125,141.158,0)">
                        <path d="M0.338,-0.545L0.338,-0.446L0.025,-0.446L0.025,-0.545L0.338,-0.545ZM0.102,-0.676L0.231,-0.676L0.231,-0.164C0.231,-0.147 0.234,-0.134 0.239,-0.124C0.244,-0.115 0.251,-0.109 0.26,-0.106C0.269,-0.103 0.278,-0.101 0.289,-0.101C0.297,-0.101 0.304,-0.101 0.311,-0.103C0.318,-0.104 0.323,-0.105 0.327,-0.106L0.348,-0.005C0.341,-0.003 0.332,-0 0.319,0.002C0.306,0.005 0.291,0.007 0.273,0.007C0.241,0.008 0.212,0.003 0.186,-0.007C0.16,-0.018 0.14,-0.035 0.125,-0.058C0.11,-0.08 0.102,-0.109 0.102,-0.143L0.102,-0.676Z" style="fill-rule:nonzero;"/>
                    </g>
                    <g transform="matrix(125,0,0,125,185.902,0)">
                        <path d="M0.304,0.011C0.25,0.011 0.203,-0.001 0.164,-0.025C0.125,-0.049 0.095,-0.082 0.074,-0.124C0.053,-0.167 0.043,-0.215 0.043,-0.27C0.043,-0.326 0.053,-0.375 0.075,-0.417C0.096,-0.46 0.126,-0.493 0.165,-0.517C0.204,-0.541 0.25,-0.553 0.303,-0.553C0.348,-0.553 0.387,-0.544 0.421,-0.528C0.455,-0.512 0.482,-0.489 0.503,-0.46C0.523,-0.43 0.535,-0.396 0.538,-0.357L0.415,-0.357C0.41,-0.383 0.398,-0.405 0.379,-0.422C0.361,-0.44 0.336,-0.449 0.305,-0.449C0.279,-0.449 0.256,-0.442 0.236,-0.428C0.216,-0.414 0.201,-0.393 0.19,-0.367C0.179,-0.341 0.173,-0.309 0.173,-0.273C0.173,-0.236 0.178,-0.204 0.189,-0.177C0.2,-0.15 0.216,-0.13 0.235,-0.115C0.255,-0.101 0.278,-0.094 0.305,-0.094C0.324,-0.094 0.341,-0.098 0.356,-0.105C0.371,-0.112 0.384,-0.123 0.394,-0.136C0.404,-0.15 0.411,-0.167 0.415,-0.186L0.538,-0.186C0.535,-0.148 0.523,-0.114 0.504,-0.084C0.484,-0.054 0.457,-0.031 0.423,-0.014C0.39,0.002 0.35,0.011 0.304,0.011Z" style="fill-rule:nonzero;"/>
                    </g>
                    <g transform="matrix(125,0,0,125,255.682,0)">
                        <path d="M0.195,-0.32L0.195,-0L0.066,-0L0.066,-0.727L0.192,-0.727L0.192,-0.453L0.198,-0.453C0.211,-0.484 0.231,-0.508 0.257,-0.526C0.284,-0.544 0.319,-0.553 0.361,-0.553C0.398,-0.553 0.431,-0.545 0.459,-0.529C0.488,-0.513 0.509,-0.49 0.525,-0.459C0.541,-0.428 0.548,-0.391 0.548,-0.347L0.548,-0L0.42,-0L0.42,-0.327C0.42,-0.364 0.41,-0.393 0.391,-0.413C0.373,-0.434 0.346,-0.444 0.313,-0.444C0.29,-0.444 0.269,-0.439 0.252,-0.429C0.234,-0.419 0.22,-0.405 0.21,-0.387C0.2,-0.368 0.195,-0.346 0.195,-0.32Z" style="fill-rule:nonzero;"/>
                    </g>
                    <g transform="matrix(125,0,0,125,329.545,0)">
                        <path d="M0.066,-0L0.066,-0.545L0.195,-0.545L0.195,-0L0.066,-0ZM0.131,-0.623C0.11,-0.623 0.093,-0.63 0.078,-0.643C0.063,-0.657 0.056,-0.673 0.056,-0.692C0.056,-0.712 0.063,-0.728 0.078,-0.742C0.093,-0.756 0.11,-0.762 0.131,-0.762C0.151,-0.762 0.169,-0.756 0.183,-0.742C0.198,-0.728 0.205,-0.712 0.205,-0.692C0.205,-0.673 0.198,-0.657 0.183,-0.643C0.169,-0.63 0.151,-0.623 0.131,-0.623Z" style="fill-rule:nonzero;"/>
                    </g>
                    <g transform="matrix(125,0,0,125,359.197,0)">
                        <path d="M0.195,-0.32L0.195,-0L0.066,-0L0.066,-0.545L0.189,-0.545L0.189,-0.453L0.195,-0.453C0.208,-0.483 0.228,-0.508 0.255,-0.526C0.283,-0.544 0.317,-0.553 0.358,-0.553C0.396,-0.553 0.428,-0.545 0.456,-0.528C0.484,-0.512 0.506,-0.489 0.522,-0.458C0.537,-0.428 0.545,-0.391 0.545,-0.347L0.545,-0L0.416,-0L0.416,-0.327C0.416,-0.364 0.407,-0.392 0.388,-0.413C0.369,-0.433 0.343,-0.444 0.31,-0.444C0.287,-0.444 0.268,-0.439 0.25,-0.429C0.233,-0.419 0.219,-0.405 0.209,-0.387C0.2,-0.368 0.195,-0.346 0.195,-0.32Z" style="fill-rule:nonzero;"/>
                    </g>
                    <g transform="matrix(125,0,0,125,432.351,0)">
                        <path d="M0.303,0.214C0.257,0.214 0.217,0.207 0.184,0.195C0.151,0.183 0.125,0.166 0.105,0.146C0.084,0.125 0.07,0.103 0.063,0.078L0.178,0.05C0.183,0.06 0.191,0.07 0.201,0.08C0.211,0.09 0.225,0.099 0.241,0.106C0.258,0.113 0.28,0.116 0.305,0.116C0.342,0.116 0.372,0.108 0.396,0.09C0.42,0.073 0.432,0.044 0.432,0.005L0.432,-0.098L0.425,-0.098C0.419,-0.085 0.409,-0.071 0.397,-0.057C0.384,-0.043 0.367,-0.032 0.346,-0.022C0.326,-0.013 0.3,-0.008 0.268,-0.008C0.227,-0.008 0.189,-0.018 0.155,-0.038C0.121,-0.057 0.094,-0.087 0.074,-0.126C0.054,-0.166 0.044,-0.215 0.044,-0.274C0.044,-0.334 0.054,-0.385 0.074,-0.426C0.094,-0.468 0.121,-0.499 0.155,-0.52C0.189,-0.542 0.227,-0.553 0.269,-0.553C0.301,-0.553 0.327,-0.547 0.348,-0.536C0.369,-0.526 0.385,-0.513 0.397,-0.498C0.41,-0.483 0.419,-0.468 0.426,-0.455L0.432,-0.455L0.432,-0.545L0.559,-0.545L0.559,0.009C0.559,0.055 0.548,0.093 0.526,0.123C0.504,0.153 0.473,0.176 0.435,0.191C0.396,0.206 0.352,0.214 0.303,0.214ZM0.304,-0.109C0.332,-0.109 0.355,-0.115 0.374,-0.129C0.393,-0.142 0.408,-0.161 0.418,-0.186C0.428,-0.211 0.433,-0.241 0.433,-0.275C0.433,-0.31 0.428,-0.34 0.418,-0.365C0.408,-0.391 0.393,-0.411 0.374,-0.426C0.355,-0.44 0.332,-0.447 0.304,-0.447C0.276,-0.447 0.252,-0.44 0.233,-0.425C0.214,-0.41 0.199,-0.389 0.189,-0.364C0.18,-0.338 0.175,-0.308 0.175,-0.275C0.175,-0.242 0.18,-0.213 0.19,-0.188C0.199,-0.163 0.214,-0.143 0.233,-0.13C0.252,-0.116 0.276,-0.109 0.304,-0.109Z" style="fill-rule:nonzero;"/>
                    </g>
                    <g transform="matrix(125,0,0,125,543.679,0)">
                        <path d="M0.072,-0.727L0.233,-0.727L0.449,-0.2L0.457,-0.2L0.673,-0.727L0.835,-0.727L0.835,-0L0.708,-0L0.708,-0.5L0.701,-0.5L0.5,-0.002L0.406,-0.002L0.205,-0.501L0.198,-0.501L0.198,-0L0.072,-0L0.072,-0.727Z" style="fill-rule:nonzero;"/>
                    </g>
                    <g transform="matrix(125,0,0,125,654.83,0)">
                        <path d="M0.308,0.011C0.253,0.011 0.206,-0.001 0.166,-0.024C0.126,-0.047 0.096,-0.079 0.075,-0.121C0.053,-0.163 0.043,-0.213 0.043,-0.27C0.043,-0.326 0.053,-0.375 0.075,-0.417C0.096,-0.46 0.126,-0.493 0.165,-0.517C0.203,-0.541 0.249,-0.553 0.301,-0.553C0.334,-0.553 0.366,-0.547 0.396,-0.536C0.426,-0.526 0.453,-0.509 0.476,-0.487C0.499,-0.464 0.517,-0.436 0.53,-0.401C0.543,-0.366 0.55,-0.325 0.55,-0.277L0.55,-0.237L0.103,-0.237L0.103,-0.324L0.427,-0.324C0.427,-0.349 0.421,-0.371 0.411,-0.39C0.401,-0.409 0.386,-0.425 0.368,-0.436C0.349,-0.447 0.327,-0.452 0.303,-0.452C0.276,-0.452 0.253,-0.446 0.233,-0.433C0.213,-0.421 0.198,-0.404 0.187,-0.384C0.176,-0.363 0.17,-0.341 0.17,-0.316L0.17,-0.241C0.17,-0.209 0.176,-0.182 0.187,-0.159C0.199,-0.137 0.215,-0.119 0.236,-0.107C0.257,-0.095 0.281,-0.089 0.309,-0.089C0.328,-0.089 0.345,-0.092 0.36,-0.097C0.375,-0.103 0.388,-0.111 0.4,-0.121C0.411,-0.132 0.419,-0.145 0.425,-0.16L0.545,-0.146C0.537,-0.115 0.523,-0.087 0.502,-0.064C0.48,-0.04 0.453,-0.022 0.42,-0.009C0.388,0.004 0.35,0.011 0.308,0.011Z" style="fill-rule:nonzero;"/>
                    </g>
                    <g transform="matrix(125,0,0,125,727.628,0)">
                        <path d="M0.066,-0L0.066,-0.545L0.189,-0.545L0.189,-0.453L0.195,-0.453C0.207,-0.484 0.226,-0.508 0.252,-0.526C0.278,-0.544 0.309,-0.553 0.346,-0.553C0.383,-0.553 0.414,-0.544 0.439,-0.526C0.465,-0.508 0.483,-0.484 0.493,-0.453L0.499,-0.453C0.511,-0.483 0.531,-0.507 0.56,-0.525C0.589,-0.544 0.623,-0.553 0.663,-0.553C0.713,-0.553 0.754,-0.537 0.786,-0.505C0.817,-0.473 0.833,-0.427 0.833,-0.366L0.833,-0L0.704,-0L0.704,-0.346C0.704,-0.38 0.695,-0.405 0.677,-0.421C0.659,-0.436 0.637,-0.444 0.611,-0.444C0.58,-0.444 0.556,-0.435 0.538,-0.415C0.521,-0.396 0.513,-0.371 0.513,-0.34L0.513,-0L0.386,-0L0.386,-0.351C0.386,-0.38 0.378,-0.402 0.361,-0.419C0.344,-0.436 0.322,-0.444 0.295,-0.444C0.276,-0.444 0.26,-0.44 0.244,-0.43C0.229,-0.421 0.217,-0.408 0.208,-0.391C0.199,-0.374 0.195,-0.354 0.195,-0.332L0.195,-0L0.066,-0Z" style="fill-rule:nonzero;"/>
                    </g>
                    <g transform="matrix(125,0,0,125,836.293,0)">
                        <path d="M0.308,0.011C0.253,0.011 0.206,-0.001 0.166,-0.024C0.126,-0.047 0.096,-0.079 0.075,-0.121C0.053,-0.163 0.043,-0.213 0.043,-0.27C0.043,-0.326 0.053,-0.375 0.075,-0.417C0.096,-0.46 0.126,-0.493 0.165,-0.517C0.203,-0.541 0.249,-0.553 0.301,-0.553C0.334,-0.553 0.366,-0.547 0.396,-0.536C0.426,-0.526 0.453,-0.509 0.476,-0.487C0.499,-0.464 0.517,-0.436 0.53,-0.401C0.543,-0.366 0.55,-0.325 0.55,-0.277L0.55,-0.237L0.103,-0.237L0.103,-0.324L0.427,-0.324C0.427,-0.349 0.421,-0.371 0.411,-0.39C0.401,-0.409 0.386,-0.425 0.368,-0.436C0.349,-0.447 0.327,-0.452 0.303,-0.452C0.276,-0.452 0.253,-0.446 0.233,-0.433C0.213,-0.421 0.198,-0.404 0.187,-0.384C0.176,-0.363 0.17,-0.341 0.17,-0.316L0.17,-0.241C0.17,-0.209 0.176,-0.182 0.187,-0.159C0.199,-0.137 0.215,-0.119 0.236,-0.107C0.257,-0.095 0.281,-0.089 0.309,-0.089C0.328,-0.089 0.345,-0.092 0.36,-0.097C0.375,-0.103 0.388,-0.111 0.4,-0.121C0.411,-0.132 0.419,-0.145 0.425,-0.16L0.545,-0.146C0.537,-0.115 0.523,-0.087 0.502,-0.064C0.48,-0.04 0.453,-0.022 0.42,-0.009C0.388,0.004 0.35,0.011 0.308,0.011Z" style="fill-rule:nonzero;"/>
                    </g>
                    <g transform="matrix(125,0,0,125,909.091,0)">
                        <path d="M0.497,-0.401L0.38,-0.388C0.377,-0.4 0.371,-0.412 0.363,-0.422C0.354,-0.432 0.344,-0.441 0.33,-0.447C0.316,-0.454 0.299,-0.457 0.28,-0.457C0.253,-0.457 0.23,-0.451 0.212,-0.439C0.194,-0.428 0.185,-0.413 0.185,-0.394C0.185,-0.378 0.191,-0.365 0.203,-0.355C0.215,-0.345 0.235,-0.337 0.263,-0.331L0.355,-0.311C0.407,-0.3 0.445,-0.282 0.471,-0.258C0.496,-0.234 0.509,-0.202 0.509,-0.163C0.509,-0.129 0.499,-0.099 0.479,-0.073C0.459,-0.046 0.432,-0.026 0.397,-0.011C0.362,0.003 0.321,0.011 0.276,0.011C0.209,0.011 0.155,-0.003 0.115,-0.031C0.074,-0.06 0.05,-0.099 0.042,-0.149L0.167,-0.161C0.173,-0.136 0.185,-0.118 0.204,-0.105C0.222,-0.093 0.246,-0.086 0.276,-0.086C0.306,-0.086 0.331,-0.093 0.349,-0.105C0.368,-0.118 0.377,-0.133 0.377,-0.152C0.377,-0.167 0.371,-0.18 0.359,-0.19C0.347,-0.201 0.329,-0.208 0.304,-0.214L0.211,-0.233C0.158,-0.244 0.12,-0.263 0.095,-0.289C0.069,-0.314 0.057,-0.347 0.057,-0.387C0.057,-0.421 0.066,-0.45 0.085,-0.475C0.103,-0.499 0.129,-0.518 0.162,-0.532C0.196,-0.546 0.234,-0.553 0.278,-0.553C0.342,-0.553 0.392,-0.539 0.429,-0.512C0.466,-0.484 0.488,-0.448 0.497,-0.401Z" style="fill-rule:nonzero;"/>
                    </g>
                    <g transform="matrix(125,0,0,125,974.432,0)">
                        <path d="M0.145,0.008C0.124,0.008 0.105,0 0.09,-0.015C0.075,-0.03 0.067,-0.049 0.067,-0.07C0.067,-0.091 0.075,-0.11 0.09,-0.125C0.105,-0.14 0.124,-0.148 0.145,-0.148C0.166,-0.148 0.184,-0.14 0.2,-0.125C0.215,-0.11 0.223,-0.091 0.223,-0.07C0.223,-0.056 0.22,-0.043 0.212,-0.031C0.205,-0.019 0.196,-0.01 0.184,-0.003C0.172,0.004 0.159,0.008 0.145,0.008Z" style="fill-rule:nonzero;"/>
                    </g>
                    <g transform="matrix(125,0,0,125,1008.88,0)">
                        <path d="M0.145,0.008C0.124,0.008 0.105,0 0.09,-0.015C0.075,-0.03 0.067,-0.049 0.067,-0.07C0.067,-0.091 0.075,-0.11 0.09,-0.125C0.105,-0.14 0.124,-0.148 0.145,-0.148C0.166,-0.148 0.184,-0.14 0.2,-0.125C0.215,-0.11 0.223,-0.091 0.223,-0.07C0.223,-0.056 0.22,-0.043 0.212,-0.031C0.205,-0.019 0.196,-0.01 0.184,-0.003C0.172,0.004 0.159,0.008 0.145,0.008Z" style="fill-rule:nonzero;"/>
                    </g>
                    <g transform="matrix(125,0,0,125,1043.32,0)">
                        <path d="M0.145,0.008C0.124,0.008 0.105,0 0.09,-0.015C0.075,-0.03 0.067,-0.049 0.067,-0.07C0.067,-0.091 0.075,-0.11 0.09,-0.125C0.105,-0.14 0.124,-0.148 0.145,-0.148C0.166,-0.148 0.184,-0.14 0.2,-0.125C0.215,-0.11 0.223,-0.091 0.223,-0.07C0.223,-0.056 0.22,-0.043 0.212,-0.031C0.205,-0.019 0.196,-0.01 0.184,-0.003C0.172,0.004 0.159,0.008 0.145,0.008Z" style="fill-rule:nonzero;"/>
                    </g>
                </g>
            </g>
        </g>
    </g>
    <defs>
        <linearGradient id="_Linear1" x1="0" y1="0" x2="1" y2="0" gradientUnits="userSpaceOnUse" gradientTransform="matrix(831.872,0,0,235.343,404.518,289.322)"><stop offset="0" style="stop-color:rgb(124,245,195);stop-opacity:1"/><stop offset="0.63" style="stop-color:rgb(124,245,195);stop-opacity:1"/><stop offset="0.63" style="stop-color:white;stop-opacity:1"/><stop offset="1" style="stop-color:white;stop-opacity:1"/></linearGradient>
    </defs>
</svg>
