<?xml version="1.0" encoding="UTF-8" standalone="no"?><!DOCTYPE svg PUBLIC "-//W3C//DTD SVG 1.1//EN" "http://www.w3.org/Graphics/SVG/1.1/DTD/svg11.dtd"><svg width="100%" height="100%" viewBox="0 0 7284 5168" version="1.1" xmlns="http://www.w3.org/2000/svg" xmlns:xlink="http://www.w3.org/1999/xlink" xml:space="preserve" xmlns:serif="http://www.serif.com/" style="fill-rule:evenodd;clip-rule:evenodd;stroke-linecap:round;stroke-linejoin:round;stroke-miterlimit:1.5;"><rect id="Artboard1" x="0" y="0" width="7283.46" height="5167.33" style="fill:none;"/><clipPath id="_clip1"><rect id="Artboard11" serif:id="Artboard1" x="0" y="0" width="7283.46" height="5167.33"/></clipPath><g clip-path="url(#_clip1)"><g><g><rect x="0" y="0" width="7283.46" height="5167.33" style="fill:#ada7ff;"/><g><path d="M5374.79,1076.36c-0,-288.245 -234.021,-522.27 -522.271,-522.27l-2421.59,-0c-288.246,-0 -522.267,234.025 -522.267,522.27l0,4192.17c0,288.25 234.021,522.271 522.267,522.271l2421.59,-0c288.25,-0 522.271,-234.021 522.271,-522.271l-0,-4192.17Z" style="fill:#f8f9fa;stroke:#212529;stroke-width:104.17px;"/></g><path d="M4189.46,669.229c0,-35.404 -28.741,-64.142 -64.141,-64.142l-967.192,0c-35.404,0 -64.142,28.738 -64.142,64.142l0,128.284c0,35.4 28.738,64.141 64.142,64.141l967.192,0c35.4,0 64.141,-28.741 64.141,-64.141l0,-128.284Z" style="fill:#212529;stroke:#212529;stroke-width:52.08px;"/><rect x="3094" y="554.088" width="1095.48" height="256.567" style="fill:#212529;stroke:#212529;stroke-width:52.08px;"/><g><rect x="3183.14" y="2319.28" width="1838.87" height="184.096" style="fill:#98a9bb;stroke:#98a9bb;stroke-width:52.08px;"/><rect x="3183.14" y="1998.05" width="1838.87" height="184.096" style="fill:#98a9bb;stroke:#98a9bb;stroke-width:52.08px;"/><circle cx="2568.61" cy="2252.68" r="309.25" style="fill:#98a9bb;stroke:#98a9bb;stroke-width:52.08px;"/><rect x="3185.25" y="3176.5" width="1838.87" height="184.096" style="fill:#98a9bb;stroke:#98a9bb;stroke-width:52.08px;"/><rect x="3185.25" y="2855.28" width="1838.87" height="184.096" style="fill:#98a9bb;stroke:#98a9bb;stroke-width:52.08px;"/><circle cx="2570.72" cy="3109.9" r="309.25" style="fill:#98a9bb;stroke:#98a9bb;stroke-width:52.08px;"/><rect x="3185.25" y="4033.83" width="1838.87" height="184.096" style="fill:#98a9bb;stroke:#98a9bb;stroke-width:52.08px;"/><rect x="3185.25" y="3712.61" width="1838.87" height="184.096" style="fill:#98a9bb;stroke:#98a9bb;stroke-width:52.08px;"/><circle cx="2570.72" cy="3967.21" r="309.25" style="fill:#98a9bb;stroke:#98a9bb;stroke-width:52.08px;"/></g><g><g><path d="M3149.33,1342.36l-0,181.818l-33.238,0l-79.05,-114.419l-1.349,0l0,114.419l-38.423,0l0,-181.818l33.664,-0l78.552,114.348l1.562,-0l0,-114.348l38.282,-0Z" style="fill-rule:nonzero;"/><path d="M3246.84,1526.8c-13.991,0 -26.038,-2.843 -36.141,-8.531c-10.103,-5.687 -17.874,-13.784 -23.313,-24.289c-5.439,-10.505 -8.159,-22.955 -8.159,-37.349c-0,-14.039 2.729,-26.356 8.186,-36.95c5.457,-10.594 13.133,-18.851 23.029,-24.769c9.895,-5.919 21.531,-8.878 34.907,-8.878c9.02,-0 17.419,1.432 25.196,4.297c7.776,2.864 14.577,7.176 20.401,12.935c5.823,5.759 10.369,12.971 13.636,21.635c3.267,8.665 4.901,18.792 4.901,30.38l-0,10.369l-115.128,-0l0,-23.438l79.546,0c-0.036,-5.421 -1.241,-10.235 -3.614,-14.443c-2.373,-4.209 -5.646,-7.517 -9.819,-9.926c-4.173,-2.409 -8.999,-3.614 -14.48,-3.614c-5.718,0 -10.784,1.329 -15.199,3.986c-4.416,2.658 -7.869,6.188 -10.361,10.592c-2.491,4.404 -3.772,9.299 -3.843,14.684l-0,22.3c-0,6.749 1.266,12.579 3.799,17.491c2.533,4.913 6.108,8.694 10.724,11.346c4.617,2.651 10.074,3.977 16.372,3.977c4.226,-0 8.076,-0.598 11.55,-1.793c3.475,-1.195 6.467,-2.968 8.976,-5.318c2.509,-2.35 4.403,-5.235 5.681,-8.656l34.943,2.273c-1.776,8.428 -5.392,15.764 -10.848,22.008c-5.457,6.244 -12.497,11.086 -21.121,14.524c-8.623,3.438 -18.564,5.157 -29.821,5.157Z" style="fill-rule:nonzero;"/><path d="M3357.21,1524.17l-37.074,-136.364l38.21,0l21.165,91.62l1.207,-0l22.089,-91.62l37.499,0l22.372,91.052l1.207,0l20.74,-91.052l38.209,0l-37.073,136.364l-39.985,0l-23.439,-85.796l-1.703,-0l-23.439,85.796l-39.985,0Z" style="fill-rule:nonzero;"/><path d="M3646.91,1426.66l-34.588,2.131c-0.616,-2.923 -1.894,-5.586 -3.835,-7.989c-1.941,-2.403 -4.501,-4.324 -7.68,-5.763c-3.178,-1.438 -6.963,-2.157 -11.355,-2.157c-5.859,-0 -10.801,1.225 -14.826,3.676c-4.025,2.45 -6.019,5.699 -5.984,9.747c-0.035,3.291 1.246,6.056 3.844,8.293c2.598,2.237 7.07,4.042 13.415,5.415l24.716,4.972c13.257,2.71 23.132,7.081 29.625,13.113c6.492,6.031 9.756,13.971 9.792,23.818c-0.036,8.95 -2.66,16.795 -7.875,23.536c-5.214,6.741 -12.375,11.985 -21.484,15.731c-9.109,3.746 -19.563,5.619 -31.365,5.619c-18.063,0 -32.442,-3.764 -43.137,-11.292c-10.694,-7.528 -16.935,-17.803 -18.723,-30.823l37.144,-1.99c1.148,5.529 3.873,9.728 8.176,12.599c4.303,2.87 9.84,4.305 16.611,4.305c6.605,0 11.94,-1.296 16.007,-3.888c4.066,-2.592 6.117,-5.912 6.153,-9.961c-0.036,-3.457 -1.471,-6.292 -4.306,-8.505c-2.835,-2.214 -7.224,-3.924 -13.167,-5.132l-23.579,-4.687c-13.34,-2.64 -23.254,-7.25 -29.74,-13.832c-6.487,-6.581 -9.712,-14.968 -9.677,-25.16c-0.035,-8.76 2.335,-16.303 7.111,-22.63c4.776,-6.327 11.506,-11.203 20.188,-14.63c8.683,-3.427 18.83,-5.14 30.442,-5.14c17.223,-0 30.797,3.634 40.722,10.902c9.926,7.267 15.717,17.175 17.375,29.722Z" style="fill-rule:nonzero;"/><path d="M3735.19,1524.17l0,-181.818l120.312,-0l-0,31.676l-81.889,-0l0,43.324l73.935,-0l-0,31.675l-73.935,0l0,75.143l-38.423,0Z" style="fill-rule:nonzero;"/><path d="M3933.27,1526.8c-13.991,0 -26.038,-2.843 -36.141,-8.531c-10.104,-5.687 -17.875,-13.784 -23.314,-24.289c-5.439,-10.505 -8.158,-22.955 -8.158,-37.349c-0,-14.039 2.728,-26.356 8.185,-36.95c5.457,-10.594 13.134,-18.851 23.029,-24.769c9.896,-5.919 21.532,-8.878 34.908,-8.878c9.02,-0 17.418,1.432 25.195,4.297c7.777,2.864 14.577,7.176 20.401,12.935c5.824,5.759 10.37,12.971 13.637,21.635c3.267,8.665 4.901,18.792 4.901,30.38l-0,10.369l-115.128,-0l0,-23.438l79.546,0c-0.037,-5.421 -1.241,-10.235 -3.614,-14.443c-2.373,-4.209 -5.646,-7.517 -9.819,-9.926c-4.173,-2.409 -9,-3.614 -14.48,-3.614c-5.718,0 -10.784,1.329 -15.2,3.986c-4.415,2.658 -7.869,6.188 -10.36,10.592c-2.491,4.404 -3.772,9.299 -3.844,14.684l0,22.3c0,6.749 1.267,12.579 3.8,17.491c2.533,4.913 6.107,8.694 10.724,11.346c4.616,2.651 10.073,3.977 16.371,3.977c4.226,-0 8.077,-0.598 11.551,-1.793c3.474,-1.195 6.466,-2.968 8.976,-5.318c2.509,-2.35 4.403,-5.235 5.681,-8.656l34.943,2.273c-1.776,8.428 -5.392,15.764 -10.849,22.008c-5.456,6.244 -12.497,11.086 -21.12,14.524c-8.624,3.438 -18.564,5.157 -29.821,5.157Z" style="fill-rule:nonzero;"/><path d="M4078.87,1526.8c-13.991,0 -26.038,-2.843 -36.141,-8.531c-10.103,-5.687 -17.874,-13.784 -23.313,-24.289c-5.439,-10.505 -8.159,-22.955 -8.159,-37.349c0,-14.039 2.729,-26.356 8.186,-36.95c5.457,-10.594 13.133,-18.851 23.029,-24.769c9.895,-5.919 21.531,-8.878 34.907,-8.878c9.02,-0 17.419,1.432 25.196,4.297c7.777,2.864 14.577,7.176 20.401,12.935c5.824,5.759 10.369,12.971 13.636,21.635c3.268,8.665 4.901,18.792 4.901,30.38l0,10.369l-115.127,-0l-0,-23.438l79.545,0c-0.036,-5.421 -1.24,-10.235 -3.613,-14.443c-2.373,-4.209 -5.646,-7.517 -9.819,-9.926c-4.174,-2.409 -9,-3.614 -14.48,-3.614c-5.718,0 -10.785,1.329 -15.2,3.986c-4.416,2.658 -7.869,6.188 -10.36,10.592c-2.492,4.404 -3.773,9.299 -3.844,14.684l-0,22.3c-0,6.749 1.266,12.579 3.799,17.491c2.533,4.913 6.108,8.694 10.725,11.346c4.616,2.651 10.073,3.977 16.371,3.977c4.226,-0 8.076,-0.598 11.551,-1.793c3.474,-1.195 6.466,-2.968 8.975,-5.318c2.51,-2.35 4.403,-5.235 5.681,-8.656l34.943,2.273c-1.775,8.428 -5.392,15.764 -10.848,22.008c-5.457,6.244 -12.497,11.086 -21.12,14.524c-8.624,3.438 -18.564,5.157 -29.822,5.157Z" style="fill-rule:nonzero;"/><path d="M4212.61,1526.37c-10.37,0 -19.736,-2.681 -28.099,-8.043c-8.362,-5.362 -14.991,-13.264 -19.886,-23.704c-4.895,-10.44 -7.342,-23.272 -7.342,-38.494c-0,-15.601 2.518,-28.598 7.555,-38.991c5.037,-10.393 11.748,-18.176 20.135,-23.349c8.387,-5.173 17.576,-7.759 27.566,-7.759c7.6,-0 13.962,1.287 19.087,3.862c5.125,2.574 9.268,5.764 12.429,9.57c3.161,3.805 5.582,7.567 7.262,11.284l1.136,0l0,-68.395l37.784,-0l-0,181.818l-37.286,0l0,-21.803l-1.634,-0c-1.751,3.763 -4.252,7.489 -7.501,11.176c-3.249,3.687 -7.428,6.747 -12.536,9.179c-5.108,2.433 -11.331,3.649 -18.67,3.649Zm12.003,-30.112c6.06,-0 11.218,-1.672 15.474,-5.016c4.255,-3.344 7.511,-8.032 9.766,-14.063c2.255,-6.032 3.383,-13.095 3.383,-21.192c-0,-8.12 -1.116,-15.161 -3.348,-21.121c-2.231,-5.96 -5.475,-10.571 -9.73,-13.832c-4.255,-3.261 -9.437,-4.892 -15.545,-4.892c-6.251,0 -11.504,1.678 -15.759,5.034c-4.255,3.356 -7.475,8.026 -9.659,14.01c-2.184,5.984 -3.276,12.917 -3.276,20.801c0,7.931 1.104,14.924 3.311,20.979c2.208,6.055 5.439,10.784 9.695,14.187c4.255,3.403 9.484,5.105 15.688,5.105Z" style="fill-rule:nonzero;"/></g></g></g></g></g></svg>