<?xml version="1.0" encoding="UTF-8" standalone="no"?><!DOCTYPE svg PUBLIC "-//W3C//DTD SVG 1.1//EN" "http://www.w3.org/Graphics/SVG/1.1/DTD/svg11.dtd"><svg width="100%" height="100%" viewBox="0 0 1749 1241" version="1.1" xmlns="http://www.w3.org/2000/svg" xmlns:xlink="http://www.w3.org/1999/xlink" xml:space="preserve" xmlns:serif="http://www.serif.com/" style="fill-rule:evenodd;clip-rule:evenodd;stroke-linecap:round;stroke-linejoin:round;stroke-miterlimit:1.5;"><rect id="Artboard1" x="0" y="0" width="1748.03" height="1240.16" style="fill:none;"/><clipPath id="_clip1"><rect x="0" y="0" width="1748.03" height="1240.16"/></clipPath><g clip-path="url(#_clip1)"><g><rect x="0" y="0" width="1748.03" height="1240.16" style="fill:#ada7ff;"/><g><path d="M1289.95,288.326c0,-69.179 -56.165,-125.345 -125.345,-125.345l-581.182,0c-69.179,0 -125.344,56.166 -125.344,125.345l0,1006.12c0,69.18 56.165,125.345 125.344,125.345l581.182,0c69.18,0 125.345,-56.165 125.345,-125.345l0,-1006.12Z" style="fill:#f8f9fa;stroke:#212529;stroke-width:25px;"/></g><path d="M1005.47,192.615c-0,-8.497 -6.898,-15.394 -15.394,-15.394l-232.126,0c-8.497,0 -15.394,6.897 -15.394,15.394l-0,30.788c-0,8.496 6.897,15.394 15.394,15.394l232.126,0c8.496,0 15.394,-6.898 15.394,-15.394l-0,-30.788Z" style="fill:#212529;stroke:#212529;stroke-width:12.5px;"/><rect x="742.56" y="162.981" width="262.914" height="61.576" style="fill:#212529;stroke:#212529;stroke-width:12.5px;"/><g><rect x="763.953" y="643.626" width="441.328" height="44.183" style="fill:#98a9bb;stroke:#98a9bb;stroke-width:12.5px;"/><rect x="763.953" y="566.532" width="441.328" height="44.183" style="fill:#98a9bb;stroke:#98a9bb;stroke-width:12.5px;"/><circle cx="616.466" cy="627.643" r="74.22" style="fill:#98a9bb;stroke:#98a9bb;stroke-width:12.5px;"/><rect x="764.459" y="849.36" width="441.328" height="44.183" style="fill:#98a9bb;stroke:#98a9bb;stroke-width:12.5px;"/><rect x="764.459" y="772.267" width="441.328" height="44.183" style="fill:#98a9bb;stroke:#98a9bb;stroke-width:12.5px;"/><circle cx="616.972" cy="833.377" r="74.22" style="fill:#98a9bb;stroke:#98a9bb;stroke-width:12.5px;"/><rect x="764.459" y="1055.12" width="441.328" height="44.183" style="fill:#98a9bb;stroke:#98a9bb;stroke-width:12.5px;"/><rect x="764.459" y="978.026" width="441.328" height="44.183" style="fill:#98a9bb;stroke:#98a9bb;stroke-width:12.5px;"/><circle cx="616.972" cy="1039.13" r="74.22" style="fill:#98a9bb;stroke:#98a9bb;stroke-width:12.5px;"/></g><g><path d="M753.76,334.875l-0,6.995c-0,3.038 -4.592,3.038 -4.592,0l-0,-6.995c-0,-3.038 4.592,-3.038 4.592,0Zm6.565,8.155l2.395,-6.573c1.037,-2.856 5.354,-1.286 4.312,1.571l-2.391,6.572c-1.037,2.857 -5.354,1.287 -4.316,-1.57Zm10.088,4.904l4.498,-5.361c1.953,-2.324 5.468,0.627 3.519,2.951l-4.498,5.361c-1.953,2.328 -5.468,-0.623 -3.515,-2.951l-0.004,0Zm7.8,8.056l6.06,-3.499c2.631,-1.519 4.927,2.458 2.296,3.977l-6.06,3.499c-2.632,1.519 -4.924,-2.458 -2.296,-3.977Zm4.576,10.238l6.889,-1.215c2.99,-0.525 3.787,3.997 0.797,4.521l-6.889,1.215c-2.99,0.529 -3.787,-3.992 -0.797,-4.521Zm0.797,11.189l6.889,1.215c2.99,0.525 2.193,5.05 -0.797,4.521l-6.889,-1.215c-2.99,-0.528 -2.193,-5.05 0.797,-4.521Zm-3.077,10.782l6.06,3.5c2.631,1.519 0.335,5.495 -2.296,3.977l-6.06,-3.5c-2.632,-1.519 -0.336,-5.496 2.296,-3.977Zm-6.581,9.082l4.498,5.362c1.949,2.324 -1.566,5.275 -3.519,2.951l-4.498,-5.362c-1.953,-2.327 1.562,-5.278 3.515,-2.951l0.004,0Zm-9.287,6.285l2.391,6.573c1.038,2.856 -3.275,4.426 -4.312,1.57l-2.395,-6.573c-1.038,-2.856 3.275,-4.426 4.316,-1.57Zm-10.877,2.726l-0,6.995c-0,3.038 -4.592,3.038 -4.592,0l-0,-6.995c-0,-3.038 4.592,-3.038 4.592,0Zm-17.864,3.847l2.391,-6.573c1.037,-2.856 5.354,-1.286 4.316,1.57l-2.395,6.573c-1.037,2.856 -5.354,1.286 -4.312,-1.57Zm-23.443,-31.511l6.889,-1.215c2.99,-0.529 3.787,3.993 0.797,4.521l-6.889,1.215c-2.99,0.525 -3.787,-3.996 -0.797,-4.521Zm0.797,-13.619l6.889,1.215c2.99,0.529 2.193,5.05 -0.797,4.522l-6.889,-1.216c-2.99,-0.524 -2.193,-5.05 0.797,-4.521Zm5.405,-12.522l6.06,3.499c2.632,1.519 0.336,5.496 -2.296,3.977l-6.06,-3.499c-2.631,-1.519 -0.335,-5.496 2.296,-3.977Zm9.362,-9.918l4.498,5.361c1.953,2.328 -1.562,5.279 -3.515,2.951l-4.498,-5.361c-1.949,-2.324 1.566,-5.275 3.519,-2.951l-0.004,0Zm12.191,-6.116l2.395,6.573c1.038,2.857 -3.275,4.427 -4.316,1.57l-2.391,-6.572c-1.038,-2.857 3.275,-4.427 4.312,-1.571Z" style="fill:#212529;"/><g><text x="840.371px" y="387.801px" style="font-family:'Inter-Regular_SemiBold', 'Inter', sans-serif;font-size:50px;">L</text><text x="870.496px" y="387.801px" style="font-family:'Inter-Regular_SemiBold', 'Inter', sans-serif;font-size:50px;">oading</text></g></g></g></g></svg>