<?xml version="1.0" encoding="UTF-8" standalone="no"?><!DOCTYPE svg PUBLIC "-//W3C//DTD SVG 1.1//EN" "http://www.w3.org/Graphics/SVG/1.1/DTD/svg11.dtd"><svg width="100%" height="100%" viewBox="0 0 134 134" version="1.1" xmlns="http://www.w3.org/2000/svg" xmlns:xlink="http://www.w3.org/1999/xlink" xml:space="preserve" xmlns:serif="http://www.serif.com/" style="fill-rule:evenodd;clip-rule:evenodd;stroke-linejoin:round;stroke-miterlimit:2;"><path d="M126.149,23.858c-0.759,-0.935 -1.898,-1.482 -3.101,-1.49l-13.854,-0l0.322,-2.215c0.091,-0.6 0.137,-1.206 0.137,-1.813c0,-6.628 -5.454,-12.082 -12.082,-12.082c-0.045,-0 -0.091,0 -0.136,0.001l-61.697,-0c-0.046,-0.001 -0.092,-0.001 -0.137,-0.001c-6.628,-0 -12.082,5.454 -12.082,12.082c0,0.607 0.046,1.213 0.137,1.813l0.483,2.215l-13.853,-0c-1.204,0.008 -2.343,0.555 -3.101,1.49c-0.797,0.916 -1.138,2.146 -0.927,3.342l6.847,33.789c1.127,5.62 6.107,9.703 11.84,9.705l7.208,0c3.197,8.986 9.814,16.356 18.405,20.499l-0,11.719l32.218,0l-0,-11.719c8.59,-4.143 15.207,-11.513 18.404,-20.499l7.209,0c5.732,-0.002 10.712,-4.085 11.84,-9.705l6.846,-33.789c0.211,-1.196 -0.129,-2.426 -0.926,-3.342Zm-105.151,35.56l-5.799,-28.996l10.148,0l4.833,32.218l-5.235,-0c-1.907,0 -3.566,-1.354 -3.947,-3.222Zm91.337,0c-0.387,1.898 -2.09,3.261 -4.027,3.222l-5.235,-0l4.832,-32.218l10.149,0l-5.719,28.996Zm-10.954,51.548l-69.429,0l-5.115,10.27c-0.283,0.562 -0.43,1.183 -0.43,1.812c-0,2.205 1.81,4.021 4.015,4.027l72.49,0c2.204,-0.006 4.015,-1.822 4.015,-4.027c-0,-0.629 -0.148,-1.25 -0.431,-1.812l-5.115,-10.27Z" style="fill:#212529;fill-rule:nonzero;"/></svg>