<?xml version="1.0" encoding="UTF-8" standalone="no"?><!DOCTYPE svg PUBLIC "-//W3C//DTD SVG 1.1//EN" "http://www.w3.org/Graphics/SVG/1.1/DTD/svg11.dtd"><svg width="100%" height="100%" viewBox="0 0 100 100" version="1.1" xmlns="http://www.w3.org/2000/svg" xmlns:xlink="http://www.w3.org/1999/xlink" xml:space="preserve" xmlns:serif="http://www.serif.com/" style="fill-rule:evenodd;clip-rule:evenodd;stroke-linejoin:round;stroke-miterlimit:2;"><path d="M40.421,52.204c-4.584,-0 -8.302,3.815 -8.302,8.52l0,21.313c0,4.705 3.718,8.52 8.302,8.52c4.584,0 8.301,-3.815 8.301,-8.52l0,-21.313c-0.003,-4.705 -3.721,-8.52 -8.301,-8.52Zm-29.058,8.52c0,4.708 3.721,8.527 8.308,8.527c4.588,0 8.309,-3.819 8.309,-8.527l-0,-8.527l-8.309,-0c-4.587,-0 -8.308,3.819 -8.308,8.527Z" style="fill:#e91e63;fill-rule:nonzero;"/><path d="M39.607,10.287l-0.01,0c-4.587,0 -8.308,3.82 -8.308,8.528c0,4.708 3.721,8.527 8.308,8.527l8.302,-0l0,-8.544c-0.003,-4.702 -3.714,-8.511 -8.292,-8.511Zm-19.991,37.587l20.805,0c4.587,0 8.308,-3.819 8.308,-8.527c-0,-4.708 -3.721,-8.527 -8.308,-8.527l-20.805,-0c-4.588,-0 -8.309,3.819 -8.309,8.527c0,4.708 3.721,8.527 8.309,8.527Z" style="fill:#00bcd4;fill-rule:nonzero;"/><path d="M80.312,30.816c-4.581,0 -8.292,3.809 -8.292,8.511l0,8.544l8.302,-0c4.587,-0 8.308,-3.819 8.308,-8.527c0,-4.709 -3.721,-8.528 -8.308,-8.528l-0.01,0Zm-29.031,-12.001l-0,21.377c-0,4.705 3.718,8.52 8.302,8.52c4.583,0 8.301,-3.815 8.301,-8.52l0,-21.377c0,-4.705 -3.718,-8.521 -8.301,-8.521c-4.584,0 -8.302,3.816 -8.302,8.521Z" style="fill:#4caf50;fill-rule:nonzero;"/><path d="M67.881,81.185c-0,-4.704 -3.718,-8.52 -8.302,-8.52l-8.301,-0l-0,8.527c0.003,4.701 3.717,8.514 8.301,8.514c4.584,-0 8.302,-3.816 8.302,-8.521Zm12.503,-29.833l-20.805,-0c-4.587,-0 -8.308,3.819 -8.308,8.527c0,4.708 3.721,8.527 8.308,8.527l20.805,0c4.588,0 8.309,-3.819 8.309,-8.527c-0,-4.708 -3.721,-8.527 -8.309,-8.527Z" style="fill:#ff9800;fill-rule:nonzero;"/><path d="M40.246,90.557c-5.654,0 -10.251,-4.721 -10.251,-10.524l0,-19.978c0,-5.803 4.597,-10.525 10.251,-10.525c5.654,0 10.251,4.722 10.251,10.525l0,19.978c0,5.803 -4.597,10.524 -10.251,10.524Zm0,-35.957c-2.931,-0 -5.311,2.447 -5.311,5.455l-0,19.978c-0,3.008 2.384,5.455 5.311,5.455c2.928,-0 5.312,-2.447 5.312,-5.455l-0,-19.978c-0,-3.008 -2.381,-5.455 -5.312,-5.455Z" style="fill-rule:nonzero;"/><path d="M20.794,70.583c-5.657,-0 -10.257,-4.722 -10.257,-10.528c-0,-5.807 4.6,-10.532 10.257,-10.532l7.788,0c1.364,0 2.47,1.136 2.47,2.535l0,7.997c0,5.806 -4.6,10.528 -10.258,10.528Zm0.007,-15.99c-2.937,0 -5.325,2.45 -5.325,5.462c0,3.011 2.388,5.458 5.318,5.458c2.931,0 5.319,-2.45 5.319,-5.458l-0,-5.462l-5.312,0Zm27.226,-24.091l-7.781,-0c-5.657,-0 -10.258,-4.722 -10.258,-10.528c0,-5.807 4.601,-10.531 10.258,-10.531l0.01,-0c5.648,-0 10.241,4.718 10.241,10.514l0,8.01c0,1.399 -1.106,2.535 -2.47,2.535Zm-7.781,-15.99c-2.934,0 -5.318,2.451 -5.318,5.462c-0,3.011 2.387,5.458 5.318,5.458l5.312,0l-0,-5.475c-0,-3.001 -2.381,-5.445 -5.302,-5.445l-0.01,0Z" style="fill-rule:nonzero;"/><path d="M40.246,50.541l-19.504,-0c-5.658,-0 -10.258,-4.722 -10.258,-10.528c0,-5.807 4.6,-10.532 10.258,-10.532l19.504,0c5.658,0 10.258,4.722 10.258,10.532c-0,5.806 -4.6,10.528 -10.258,10.528Zm-19.504,-15.99c-2.934,-0 -5.318,2.45 -5.318,5.462c-0,3.011 2.387,5.458 5.318,5.458l19.504,0c2.934,0 5.318,-2.45 5.318,-5.458c0,-3.012 -2.387,-5.462 -5.318,-5.462l-19.504,-0Zm50.676,16.013c-1.364,0 -2.47,-1.135 -2.47,-2.534l-0,-8.034c-0,-5.797 4.597,-10.515 10.241,-10.515l0.01,0c5.657,0 10.258,4.725 10.258,10.532c-0,5.806 -4.601,10.528 -10.258,10.528l-7.452,-0c-0.109,0.017 -0.217,0.023 -0.329,0.023Zm2.469,-5.093l5.312,0c2.934,0 5.318,-2.45 5.318,-5.458c0,-3.012 -2.387,-5.462 -5.318,-5.462l-0.01,-0c-2.924,-0 -5.302,2.444 -5.302,5.445l0,5.475Z" style="fill-rule:nonzero;"/><path d="M59.754,50.534c-5.654,0 -10.251,-4.718 -10.251,-10.521l-0,-20.039c-0,-5.803 4.597,-10.525 10.251,-10.525c5.654,0 10.251,4.722 10.251,10.525l-0,20.039c-0,5.803 -4.597,10.521 -10.251,10.521Zm-0,-36.015c-2.931,-0 -5.312,2.447 -5.312,5.455l0,20.039c0,3.008 2.384,5.451 5.312,5.451c2.927,0 5.311,-2.447 5.311,-5.451l0,-20.039c0,-3.008 -2.38,-5.455 -5.311,-5.455Zm-0,76.032c-5.651,-0 -10.248,-4.718 -10.251,-10.515l-0,-7.996c-0,-1.4 1.106,-2.535 2.47,-2.535l7.781,-0c5.654,-0 10.251,4.718 10.251,10.521c-0,5.803 -4.597,10.525 -10.251,10.525Zm-5.312,-15.977l0,5.459c0.004,3.004 2.388,5.448 5.312,5.448c2.931,0 5.311,-2.447 5.311,-5.455c0,-3.008 -2.384,-5.452 -5.311,-5.452l-5.312,0Z" style="fill-rule:nonzero;"/><path d="M79.258,70.583l-19.504,-0c-5.658,-0 -10.258,-4.722 -10.258,-10.528c0,-5.807 4.6,-10.532 10.258,-10.532l19.504,0c5.658,0 10.258,4.722 10.258,10.532c-0,5.806 -4.604,10.528 -10.258,10.528Zm-19.504,-15.99c-2.934,0 -5.318,2.45 -5.318,5.462c-0,3.011 2.387,5.458 5.318,5.458l19.504,0c2.934,0 5.318,-2.45 5.318,-5.458c0,-3.012 -2.387,-5.462 -5.318,-5.462l-19.504,0Z" style="fill-rule:nonzero;"/></svg>