<?xml version="1.0" encoding="UTF-8" standalone="no"?><!DOCTYPE svg PUBLIC "-//W3C//DTD SVG 1.1//EN" "http://www.w3.org/Graphics/SVG/1.1/DTD/svg11.dtd"><svg width="100%" height="100%" viewBox="0 0 100 100" version="1.1" xmlns="http://www.w3.org/2000/svg" xmlns:xlink="http://www.w3.org/1999/xlink" xml:space="preserve" xmlns:serif="http://www.serif.com/" style="fill-rule:evenodd;clip-rule:evenodd;stroke-linejoin:round;stroke-miterlimit:2;"><path d="M90.417,44.583c-1.25,-2.5 -3.334,-4.166 -5.417,-5.416l-58.333,-29.167c-6.25,-2.917 -13.75,-0.417 -16.667,5.417c-2.083,3.333 -2.083,7.083 -0.417,10.416l8.75,20l37.917,0c2.5,0 4.167,1.667 4.167,4.167c-0,2.5 -1.667,4.167 -4.167,4.167l-37.917,-0l-8.75,20c-2.916,6.25 0,13.75 6.25,16.666c1.667,0.417 3.334,0.834 5,0.834c2.084,-0 3.75,-0.417 5.417,-1.25l58.333,-29.167c6.25,-3.333 8.75,-10.833 5.834,-16.667Z" style="fill:#212529;fill-rule:nonzero;"/></svg>