<?xml version="1.0" encoding="UTF-8" standalone="no"?><!DOCTYPE svg PUBLIC "-//W3C//DTD SVG 1.1//EN" "http://www.w3.org/Graphics/SVG/1.1/DTD/svg11.dtd"><svg width="100%" height="100%" viewBox="0 0 100 100" version="1.1" xmlns="http://www.w3.org/2000/svg" xmlns:xlink="http://www.w3.org/1999/xlink" xml:space="preserve" xmlns:serif="http://www.serif.com/" style="fill-rule:evenodd;clip-rule:evenodd;stroke-linejoin:round;stroke-miterlimit:2;"><g><path d="M47.317,61.016c0,-4.6 -3.734,-8.334 -8.333,-8.334l-26.255,0c-4.599,0 -8.333,3.734 -8.333,8.334l-0,26.255c-0,4.599 3.734,8.333 8.333,8.333l26.255,-0c4.599,-0 8.333,-3.734 8.333,-8.333l0,-26.255Z" style="fill:#212529;"/><circle cx="74.143" cy="74.143" r="21.461" style="fill:#212529;"/><path d="M34.495,47.317l31.01,0c5.566,-0.004 10.144,-4.585 10.144,-10.151c-0,-2.036 -0.613,-4.025 -1.758,-5.708l-15.382,-22.567c-1.917,-2.81 -5.107,-4.495 -8.509,-4.495c-3.402,0 -6.592,1.685 -8.509,4.495l-15.382,22.534c-1.159,1.69 -1.779,3.692 -1.779,5.741c-0,5.569 4.582,10.151 10.15,10.151c0.005,0 0.01,0 0.015,0Z" style="fill:#212529;fill-rule:nonzero;"/></g></svg>