<?xml version="1.0" encoding="UTF-8" standalone="no"?>
<!DOCTYPE svg PUBLIC "-//W3C//DTD SVG 1.1//EN" "http://www.w3.org/Graphics/SVG/1.1/DTD/svg11.dtd">
<svg width="100%" height="100%" viewBox="0 0 417 417" version="1.1" xmlns="http://www.w3.org/2000/svg" xmlns:xlink="http://www.w3.org/1999/xlink" xml:space="preserve" xmlns:serif="http://www.serif.com/" style="fill-rule:evenodd;clip-rule:evenodd;stroke-linejoin:round;stroke-miterlimit:2;">
    <g transform="matrix(1,0,0,-1,0,416.668)">
        <path d="M391.554,103.983C377.283,89.796 353.896,89.796 339.625,103.983L207.413,234.354L77.042,103.983C62.771,89.796 39.383,89.796 25.113,103.983C18.146,110.896 14.221,120.313 14.221,130.129C14.221,139.946 18.146,149.367 25.113,156.279L181.267,312.429C188.175,319.4 197.596,323.325 207.412,323.325C217.229,323.325 226.65,319.4 233.562,312.429L391.554,156.279C398.521,149.367 402.446,139.946 402.446,130.129C402.446,120.313 398.521,110.896 391.554,103.983Z" style="fill:rgb(33,37,41);fill-rule:nonzero;"/>
    </g>
</svg>
