<?xml version="1.0" encoding="UTF-8" standalone="no"?><!DOCTYPE svg PUBLIC "-//W3C//DTD SVG 1.1//EN" "http://www.w3.org/Graphics/SVG/1.1/DTD/svg11.dtd"><svg width="100%" height="100%" viewBox="0 0 134 134" version="1.1" xmlns="http://www.w3.org/2000/svg" xmlns:xlink="http://www.w3.org/1999/xlink" xml:space="preserve" xmlns:serif="http://www.serif.com/" style="fill-rule:evenodd;clip-rule:evenodd;stroke-linecap:round;stroke-linejoin:round;stroke-miterlimit:1.5;"><path d="M129.167,16.667c-0,-6.899 -5.601,-12.5 -12.5,-12.5l-100,-0c-6.899,-0 -12.5,5.601 -12.5,12.5l-0,100c-0,6.899 5.601,12.5 12.5,12.5l100,-0c6.899,-0 12.5,-5.601 12.5,-12.5l-0,-100Z" style="fill:#f85555;stroke:#212529;stroke-width:12.5px;"/><clipPath id="_clip1"><rect id="wrong.svg" x="20.833" y="20.833" width="91.667" height="91.667"/></clipPath><g clip-path="url(#_clip1)"><path d="M81.652,67.168l28.001,-28.001c4.011,-4.011 4.011,-10.492 0,-14.502c-4.01,-4.011 -10.491,-4.011 -14.502,-0l-27.983,28.001l-28.825,-28.825c-4.01,-4.01 -10.491,-4.01 -14.502,0c-4.01,4.011 -4.01,10.492 0,14.502l28.825,28.825l-27.84,27.84c-4.011,4.011 -4.011,10.492 -0,14.502c2.005,1.987 4.619,2.99 7.251,2.99c2.632,0 5.246,-1.003 7.251,-3.008l27.84,-27.84l27.017,27.017c2.005,2.005 4.619,3.007 7.251,3.007c2.631,0 5.245,-1.002 7.251,-3.007c4.01,-4.011 4.01,-10.492 -0,-14.502l-27.035,-26.999Z" style="fill:#231f20;fill-rule:nonzero;"/></g></svg>