<?xml version="1.0" encoding="UTF-8" standalone="no"?>
<!DOCTYPE svg PUBLIC "-//W3C//DTD SVG 1.1//EN" "http://www.w3.org/Graphics/SVG/1.1/DTD/svg11.dtd">
<svg width="100%" height="100%" viewBox="0 0 165 165" version="1.1" xmlns="http://www.w3.org/2000/svg" xmlns:xlink="http://www.w3.org/1999/xlink" xml:space="preserve" xmlns:serif="http://www.serif.com/" style="fill-rule:evenodd;clip-rule:evenodd;stroke-linecap:round;stroke-linejoin:round;stroke-miterlimit:1.5;">
    <g id="Artboard1" transform="matrix(1.15444,0,0,1.15444,5.40554,2.64573)">
        <rect x="-4.682" y="-2.292" width="142.926" height="142.926" style="fill:none;"/>
        <g transform="matrix(0.887116,0,0,0.887116,7.6393,10.0299)">
            <path d="M129.167,16.667C129.167,9.768 123.566,4.167 116.667,4.167L16.667,4.167C9.768,4.167 4.167,9.768 4.167,16.667L4.167,116.667C4.167,123.566 9.768,129.167 16.667,129.167L116.667,129.167C123.566,129.167 129.167,123.566 129.167,116.667L129.167,16.667Z" style="fill:none;stroke:rgb(33,37,41);stroke-width:35px;"/>
            <path d="M129.167,16.667C129.167,9.768 123.566,4.167 116.667,4.167L16.667,4.167C9.768,4.167 4.167,9.768 4.167,16.667L4.167,116.667C4.167,123.566 9.768,129.167 16.667,129.167L116.667,129.167C123.566,129.167 129.167,123.566 129.167,116.667L129.167,16.667Z" style="fill:rgb(248,85,85);"/>
        </g>
        <g transform="matrix(0.866219,0,0,0.866219,8.96284,11.4233)">
            <path d="M81.652,67.168L109.653,39.167C113.664,35.156 113.664,28.675 109.653,24.665C105.643,20.654 99.162,20.654 95.151,24.665L67.168,52.666L38.343,23.841C34.333,19.831 27.852,19.831 23.841,23.841C19.831,27.852 19.831,34.333 23.841,38.343L52.666,67.168L24.826,95.008C20.815,99.019 20.815,105.5 24.826,109.51C26.831,111.497 29.445,112.5 32.077,112.5C34.709,112.5 37.323,111.497 39.328,109.492L67.168,81.652L94.185,108.669C96.19,110.674 98.804,111.676 101.436,111.676C104.067,111.676 106.681,110.674 108.687,108.669C112.697,104.658 112.697,98.177 108.687,94.167L81.652,67.168Z" style="fill:rgb(35,31,32);fill-rule:nonzero;"/>
        </g>
    </g>
</svg>
