<?xml version="1.0" encoding="UTF-8" standalone="no"?>
<!DOCTYPE svg PUBLIC "-//W3C//DTD SVG 1.1//EN" "http://www.w3.org/Graphics/SVG/1.1/DTD/svg11.dtd">
<svg width="100%" height="100%" viewBox="0 0 1749 1241" version="1.1" xmlns="http://www.w3.org/2000/svg" xmlns:xlink="http://www.w3.org/1999/xlink" xml:space="preserve" xmlns:serif="http://www.serif.com/" style="fill-rule:evenodd;clip-rule:evenodd;stroke-linecap:round;stroke-linejoin:round;stroke-miterlimit:1.5;">
    <rect id="Artboard1" x="0" y="0" width="1748.03" height="1240.16" style="fill:none;"/>
    <g>
        <g transform="matrix(1,0,0,1,0.97,0.84)">
            <rect x="0" y="0" width="1748.03" height="1240.16" style="fill:rgb(173,167,255);"/>
        </g>
        <g transform="matrix(1.60233,0,0,1.60233,-482.423,-240.426)">
            <g>
                <g>
                    <g transform="matrix(0.909552,0,0,0.909552,41.7824,-31.1678)">
                        <g transform="matrix(1,0,0,1,91.7697,2.84217e-13)">
                            <g>
                                <g transform="matrix(1,0,0,1,9,5.68434e-14)">
                                    <path d="M1156.38,347.951C1156.38,338.699 1148.87,331.188 1139.62,331.188L438.075,331.188C428.823,331.188 421.311,338.699 421.311,347.951L421.311,482.06C421.311,491.312 428.823,498.824 438.075,498.824L1139.62,498.824C1148.87,498.824 1156.38,491.312 1156.38,482.06L1156.38,347.951Z" style="fill:rgb(34,37,42);stroke:rgb(33,37,41);stroke-width:6.18px;"/>
                                </g>
                                <path d="M1156.38,347.951C1156.38,338.699 1148.87,331.188 1139.62,331.188L438.075,331.188C428.823,331.188 421.311,338.699 421.311,347.951L421.311,482.06C421.311,491.312 428.823,498.824 438.075,498.824L1139.62,498.824C1148.87,498.824 1156.38,491.312 1156.38,482.06L1156.38,347.951Z" style="fill:rgb(255,77,109);stroke:rgb(33,37,41);stroke-width:6.18px;"/>
                                <g transform="matrix(1,0,0,1,151.518,17.6451)">
                                    <g transform="matrix(72,0,0,72,530.178,423.164)">
                                        <path d="M0.321,-0L0.063,-0L0.063,-0.727L0.323,-0.727C0.396,-0.727 0.459,-0.713 0.512,-0.684C0.565,-0.655 0.606,-0.613 0.634,-0.559C0.663,-0.505 0.677,-0.44 0.677,-0.364C0.677,-0.288 0.663,-0.223 0.634,-0.169C0.606,-0.114 0.565,-0.073 0.512,-0.044C0.458,-0.015 0.395,-0 0.321,-0ZM0.217,-0.132L0.314,-0.132C0.36,-0.132 0.398,-0.14 0.43,-0.156C0.461,-0.172 0.484,-0.198 0.5,-0.232C0.516,-0.266 0.524,-0.31 0.524,-0.364C0.524,-0.418 0.516,-0.462 0.5,-0.496C0.484,-0.53 0.461,-0.555 0.43,-0.571C0.399,-0.587 0.361,-0.595 0.315,-0.595L0.217,-0.595L0.217,-0.132Z" style="fill-rule:nonzero;"/>
                                    </g>
                                    <g transform="matrix(72,0,0,72,581.928,423.164)">
                                        <path d="M0.309,0.011C0.253,0.011 0.205,-0.001 0.164,-0.024C0.124,-0.046 0.093,-0.079 0.071,-0.121C0.049,-0.163 0.038,-0.213 0.038,-0.27C0.038,-0.326 0.049,-0.376 0.071,-0.418C0.093,-0.46 0.124,-0.493 0.163,-0.517C0.203,-0.541 0.249,-0.553 0.303,-0.553C0.339,-0.553 0.373,-0.547 0.404,-0.535C0.435,-0.524 0.462,-0.507 0.485,-0.484C0.509,-0.461 0.527,-0.432 0.54,-0.397C0.553,-0.362 0.559,-0.322 0.559,-0.276L0.559,-0.234L0.099,-0.234L0.099,-0.328L0.417,-0.328C0.417,-0.35 0.412,-0.369 0.403,-0.386C0.393,-0.402 0.38,-0.416 0.363,-0.425C0.347,-0.435 0.327,-0.44 0.305,-0.44C0.283,-0.44 0.262,-0.434 0.245,-0.424C0.227,-0.413 0.213,-0.399 0.203,-0.381C0.193,-0.364 0.188,-0.344 0.188,-0.323L0.188,-0.234C0.188,-0.207 0.193,-0.183 0.203,-0.164C0.213,-0.144 0.227,-0.129 0.246,-0.118C0.264,-0.108 0.286,-0.102 0.311,-0.102C0.328,-0.102 0.344,-0.105 0.358,-0.109C0.371,-0.114 0.383,-0.121 0.393,-0.131C0.404,-0.14 0.411,-0.152 0.416,-0.165L0.556,-0.156C0.549,-0.123 0.534,-0.093 0.513,-0.068C0.491,-0.043 0.463,-0.024 0.428,-0.01C0.394,0.004 0.354,0.011 0.309,0.011Z" style="fill-rule:nonzero;"/>
                                    </g>
                                    <g transform="matrix(72,0,0,72,623.86,423.164)">
                                        <rect x="0.061" y="-0.727" width="0.151" height="0.727" style="fill-rule:nonzero;"/>
                                    </g>
                                    <g transform="matrix(72,0,0,72,640.939,423.164)">
                                        <path d="M0.309,0.011C0.253,0.011 0.205,-0.001 0.164,-0.024C0.124,-0.046 0.093,-0.079 0.071,-0.121C0.049,-0.163 0.038,-0.213 0.038,-0.27C0.038,-0.326 0.049,-0.376 0.071,-0.418C0.093,-0.46 0.124,-0.493 0.163,-0.517C0.203,-0.541 0.249,-0.553 0.303,-0.553C0.339,-0.553 0.373,-0.547 0.404,-0.535C0.435,-0.524 0.462,-0.507 0.485,-0.484C0.509,-0.461 0.527,-0.432 0.54,-0.397C0.553,-0.362 0.559,-0.322 0.559,-0.276L0.559,-0.234L0.099,-0.234L0.099,-0.328L0.417,-0.328C0.417,-0.35 0.412,-0.369 0.403,-0.386C0.393,-0.402 0.38,-0.416 0.363,-0.425C0.347,-0.435 0.327,-0.44 0.305,-0.44C0.283,-0.44 0.262,-0.434 0.245,-0.424C0.227,-0.413 0.213,-0.399 0.203,-0.381C0.193,-0.364 0.188,-0.344 0.188,-0.323L0.188,-0.234C0.188,-0.207 0.193,-0.183 0.203,-0.164C0.213,-0.144 0.227,-0.129 0.246,-0.118C0.264,-0.108 0.286,-0.102 0.311,-0.102C0.328,-0.102 0.344,-0.105 0.358,-0.109C0.371,-0.114 0.383,-0.121 0.393,-0.131C0.404,-0.14 0.411,-0.152 0.416,-0.165L0.556,-0.156C0.549,-0.123 0.534,-0.093 0.513,-0.068C0.491,-0.043 0.463,-0.024 0.428,-0.01C0.394,0.004 0.354,0.011 0.309,0.011Z" style="fill-rule:nonzero;"/>
                                    </g>
                                    <g transform="matrix(72,0,0,72,682.871,423.164)">
                                        <path d="M0.351,-0.545L0.351,-0.432L0.022,-0.432L0.022,-0.545L0.351,-0.545ZM0.097,-0.676L0.248,-0.676L0.248,-0.168C0.248,-0.154 0.25,-0.143 0.254,-0.135C0.259,-0.127 0.265,-0.122 0.272,-0.119C0.28,-0.116 0.289,-0.114 0.299,-0.114C0.306,-0.114 0.313,-0.115 0.32,-0.116C0.328,-0.118 0.333,-0.119 0.337,-0.119L0.361,-0.007C0.353,-0.004 0.342,-0.001 0.329,0.002C0.315,0.005 0.298,0.007 0.278,0.008C0.242,0.009 0.21,0.004 0.183,-0.007C0.155,-0.018 0.134,-0.035 0.119,-0.059C0.104,-0.082 0.096,-0.112 0.097,-0.148L0.097,-0.676Z" style="fill-rule:nonzero;"/>
                                    </g>
                                    <g transform="matrix(72,0,0,72,708.644,423.164)">
                                        <path d="M0.309,0.011C0.253,0.011 0.205,-0.001 0.164,-0.024C0.124,-0.046 0.093,-0.079 0.071,-0.121C0.049,-0.163 0.038,-0.213 0.038,-0.27C0.038,-0.326 0.049,-0.376 0.071,-0.418C0.093,-0.46 0.124,-0.493 0.163,-0.517C0.203,-0.541 0.249,-0.553 0.303,-0.553C0.339,-0.553 0.373,-0.547 0.404,-0.535C0.435,-0.524 0.462,-0.507 0.485,-0.484C0.509,-0.461 0.527,-0.432 0.54,-0.397C0.553,-0.362 0.559,-0.322 0.559,-0.276L0.559,-0.234L0.099,-0.234L0.099,-0.328L0.417,-0.328C0.417,-0.35 0.412,-0.369 0.403,-0.386C0.393,-0.402 0.38,-0.416 0.363,-0.425C0.347,-0.435 0.327,-0.44 0.305,-0.44C0.283,-0.44 0.262,-0.434 0.245,-0.424C0.227,-0.413 0.213,-0.399 0.203,-0.381C0.193,-0.364 0.188,-0.344 0.188,-0.323L0.188,-0.234C0.188,-0.207 0.193,-0.183 0.203,-0.164C0.213,-0.144 0.227,-0.129 0.246,-0.118C0.264,-0.108 0.286,-0.102 0.311,-0.102C0.328,-0.102 0.344,-0.105 0.358,-0.109C0.371,-0.114 0.383,-0.121 0.393,-0.131C0.404,-0.14 0.411,-0.152 0.416,-0.165L0.556,-0.156C0.549,-0.123 0.534,-0.093 0.513,-0.068C0.491,-0.043 0.463,-0.024 0.428,-0.01C0.394,0.004 0.354,0.011 0.309,0.011Z" style="fill-rule:nonzero;"/>
                                    </g>
                                </g>
                            </g>
                        </g>
                        <g transform="matrix(1,0,0,1,296.976,185.149)">
                            <g transform="matrix(48,0,0,48,530.178,423.164)">
                                <path d="M0.323,0.01C0.274,0.01 0.231,0.002 0.193,-0.015C0.155,-0.032 0.124,-0.056 0.102,-0.086C0.08,-0.115 0.068,-0.15 0.066,-0.19L0.178,-0.19C0.179,-0.168 0.187,-0.15 0.2,-0.134C0.213,-0.118 0.23,-0.106 0.251,-0.097C0.273,-0.089 0.296,-0.084 0.322,-0.084C0.351,-0.084 0.376,-0.089 0.399,-0.099C0.421,-0.109 0.438,-0.123 0.451,-0.141C0.463,-0.159 0.469,-0.18 0.469,-0.203C0.469,-0.227 0.463,-0.249 0.451,-0.268C0.438,-0.286 0.42,-0.301 0.397,-0.311C0.373,-0.322 0.344,-0.327 0.31,-0.327L0.249,-0.327L0.249,-0.417L0.31,-0.417C0.337,-0.417 0.361,-0.422 0.382,-0.431C0.402,-0.441 0.418,-0.455 0.43,-0.472C0.441,-0.489 0.447,-0.51 0.447,-0.533C0.447,-0.556 0.442,-0.575 0.432,-0.592C0.422,-0.609 0.408,-0.622 0.389,-0.631C0.371,-0.641 0.349,-0.645 0.325,-0.645C0.301,-0.645 0.279,-0.641 0.258,-0.633C0.238,-0.624 0.221,-0.612 0.208,-0.596C0.196,-0.58 0.189,-0.561 0.188,-0.538L0.082,-0.538C0.083,-0.578 0.095,-0.612 0.117,-0.642C0.139,-0.672 0.168,-0.695 0.204,-0.712C0.241,-0.729 0.281,-0.737 0.326,-0.737C0.373,-0.737 0.413,-0.728 0.447,-0.71C0.481,-0.692 0.507,-0.668 0.526,-0.638C0.544,-0.608 0.553,-0.575 0.553,-0.539C0.554,-0.498 0.542,-0.464 0.519,-0.435C0.497,-0.407 0.466,-0.388 0.428,-0.378L0.428,-0.372C0.477,-0.365 0.514,-0.346 0.541,-0.315C0.567,-0.284 0.58,-0.246 0.58,-0.2C0.58,-0.16 0.569,-0.124 0.547,-0.092C0.525,-0.06 0.494,-0.035 0.456,-0.017C0.417,0.001 0.373,0.01 0.323,0.01Z" style="fill-rule:nonzero;"/>
                            </g>
                            <g transform="matrix(48,0,0,48,560.724,423.164)">
                                <path d="M0.323,0.012C0.267,0.012 0.219,-0.003 0.179,-0.032C0.14,-0.062 0.109,-0.104 0.088,-0.161C0.067,-0.217 0.056,-0.284 0.057,-0.363C0.057,-0.442 0.067,-0.51 0.088,-0.565C0.11,-0.621 0.14,-0.664 0.18,-0.693C0.22,-0.723 0.267,-0.737 0.323,-0.737C0.379,-0.737 0.426,-0.723 0.466,-0.693C0.506,-0.664 0.537,-0.621 0.558,-0.565C0.579,-0.509 0.59,-0.442 0.589,-0.363C0.589,-0.284 0.579,-0.216 0.558,-0.16C0.537,-0.104 0.506,-0.062 0.467,-0.032C0.427,-0.003 0.379,0.012 0.323,0.012ZM0.323,-0.083C0.372,-0.083 0.411,-0.107 0.439,-0.155C0.467,-0.203 0.48,-0.272 0.48,-0.363C0.48,-0.424 0.474,-0.475 0.461,-0.517C0.449,-0.558 0.431,-0.59 0.407,-0.612C0.384,-0.633 0.356,-0.644 0.323,-0.644C0.274,-0.644 0.236,-0.62 0.208,-0.572C0.18,-0.523 0.166,-0.454 0.166,-0.363C0.166,-0.303 0.172,-0.252 0.184,-0.21C0.197,-0.168 0.215,-0.136 0.239,-0.115C0.262,-0.093 0.29,-0.083 0.323,-0.083Z" style="fill-rule:nonzero;"/>
                            </g>
                            <g transform="matrix(48,0,0,48,590.724,423.164)">
                                <path d="M0.071,0.205L0.071,-0.545L0.175,-0.545L0.175,-0.457L0.184,-0.457C0.19,-0.468 0.199,-0.481 0.211,-0.496C0.222,-0.511 0.238,-0.524 0.259,-0.536C0.28,-0.547 0.307,-0.553 0.341,-0.553C0.385,-0.553 0.424,-0.541 0.458,-0.519C0.493,-0.497 0.52,-0.465 0.54,-0.423C0.56,-0.381 0.57,-0.331 0.57,-0.272C0.57,-0.213 0.56,-0.162 0.54,-0.12C0.521,-0.078 0.494,-0.046 0.459,-0.023C0.425,-0.001 0.386,0.011 0.341,0.011C0.308,0.011 0.281,0.005 0.26,-0.006C0.24,-0.017 0.223,-0.03 0.211,-0.045C0.199,-0.06 0.19,-0.073 0.184,-0.085L0.178,-0.085L0.178,0.205L0.071,0.205ZM0.176,-0.273C0.176,-0.234 0.181,-0.201 0.192,-0.172C0.203,-0.143 0.219,-0.12 0.24,-0.104C0.262,-0.088 0.287,-0.08 0.318,-0.08C0.35,-0.08 0.376,-0.088 0.397,-0.105C0.419,-0.122 0.435,-0.145 0.446,-0.174C0.457,-0.203 0.462,-0.236 0.462,-0.273C0.462,-0.309 0.457,-0.341 0.446,-0.37C0.435,-0.398 0.419,-0.421 0.398,-0.437C0.377,-0.454 0.35,-0.462 0.318,-0.462C0.287,-0.462 0.261,-0.454 0.24,-0.439C0.219,-0.423 0.203,-0.401 0.192,-0.372C0.181,-0.344 0.176,-0.311 0.176,-0.273Z" style="fill-rule:nonzero;"/>
                            </g>
                            <g transform="matrix(48,0,0,48,618.883,423.164)">
                                <path d="M0.155,-0.545L0.276,-0.333L0.397,-0.545L0.513,-0.545L0.343,-0.273L0.514,-0L0.399,-0L0.276,-0.204L0.153,-0L0.037,-0L0.206,-0.273L0.039,-0.545L0.155,-0.545Z" style="fill-rule:nonzero;"/>
                            </g>
                        </g>
                        <g transform="matrix(1,0,0,1,790.619,4.62573)">
                            <g transform="matrix(48,0,0,48,530.178,423.164)">
                                <path d="M0.346,-0.727L0.346,-0L0.236,-0L0.236,-0.617L0.232,-0.617L0.058,-0.504L0.058,-0.609L0.239,-0.727L0.346,-0.727Z" style="fill-rule:nonzero;"/>
                            </g>
                            <g transform="matrix(48,0,0,48,552.474,423.164)">
                                <path d="M0.323,0.012C0.267,0.012 0.219,-0.003 0.179,-0.032C0.14,-0.062 0.109,-0.104 0.088,-0.161C0.067,-0.217 0.056,-0.284 0.057,-0.363C0.057,-0.442 0.067,-0.51 0.088,-0.565C0.11,-0.621 0.14,-0.664 0.18,-0.693C0.22,-0.723 0.267,-0.737 0.323,-0.737C0.379,-0.737 0.426,-0.723 0.466,-0.693C0.506,-0.664 0.537,-0.621 0.558,-0.565C0.579,-0.509 0.59,-0.442 0.589,-0.363C0.589,-0.284 0.579,-0.216 0.558,-0.16C0.537,-0.104 0.506,-0.062 0.467,-0.032C0.427,-0.003 0.379,0.012 0.323,0.012ZM0.323,-0.083C0.372,-0.083 0.411,-0.107 0.439,-0.155C0.467,-0.203 0.48,-0.272 0.48,-0.363C0.48,-0.424 0.474,-0.475 0.461,-0.517C0.449,-0.558 0.431,-0.59 0.407,-0.612C0.384,-0.633 0.356,-0.644 0.323,-0.644C0.274,-0.644 0.236,-0.62 0.208,-0.572C0.18,-0.523 0.166,-0.454 0.166,-0.363C0.166,-0.303 0.172,-0.252 0.184,-0.21C0.197,-0.168 0.215,-0.136 0.239,-0.115C0.262,-0.093 0.29,-0.083 0.323,-0.083Z" style="fill-rule:nonzero;"/>
                            </g>
                            <g transform="matrix(48,0,0,48,582.474,423.164)">
                                <path d="M0.071,0.205L0.071,-0.545L0.175,-0.545L0.175,-0.457L0.184,-0.457C0.19,-0.468 0.199,-0.481 0.211,-0.496C0.222,-0.511 0.238,-0.524 0.259,-0.536C0.28,-0.547 0.307,-0.553 0.341,-0.553C0.385,-0.553 0.424,-0.541 0.458,-0.519C0.493,-0.497 0.52,-0.465 0.54,-0.423C0.56,-0.381 0.57,-0.331 0.57,-0.272C0.57,-0.213 0.56,-0.162 0.54,-0.12C0.521,-0.078 0.494,-0.046 0.459,-0.023C0.425,-0.001 0.386,0.011 0.341,0.011C0.308,0.011 0.281,0.005 0.26,-0.006C0.24,-0.017 0.223,-0.03 0.211,-0.045C0.199,-0.06 0.19,-0.073 0.184,-0.085L0.178,-0.085L0.178,0.205L0.071,0.205ZM0.176,-0.273C0.176,-0.234 0.181,-0.201 0.192,-0.172C0.203,-0.143 0.219,-0.12 0.24,-0.104C0.262,-0.088 0.287,-0.08 0.318,-0.08C0.35,-0.08 0.376,-0.088 0.397,-0.105C0.419,-0.122 0.435,-0.145 0.446,-0.174C0.457,-0.203 0.462,-0.236 0.462,-0.273C0.462,-0.309 0.457,-0.341 0.446,-0.37C0.435,-0.398 0.419,-0.421 0.398,-0.437C0.377,-0.454 0.35,-0.462 0.318,-0.462C0.287,-0.462 0.261,-0.454 0.24,-0.439C0.219,-0.423 0.203,-0.401 0.192,-0.372C0.181,-0.344 0.176,-0.311 0.176,-0.273Z" style="fill-rule:nonzero;"/>
                            </g>
                            <g transform="matrix(48,0,0,48,610.633,423.164)">
                                <path d="M0.155,-0.545L0.276,-0.333L0.397,-0.545L0.513,-0.545L0.343,-0.273L0.514,-0L0.399,-0L0.276,-0.204L0.153,-0L0.037,-0L0.206,-0.273L0.039,-0.545L0.155,-0.545Z" style="fill-rule:nonzero;"/>
                            </g>
                        </g>
                        <g transform="matrix(6.47121,0,0,1,-3449.03,-175.558)">
                            <g transform="matrix(0.106031,-0,-0,0.686151,577.034,374.794)">
                                <path d="M342.336,483.182L342.336,507.182" style="fill:none;stroke:rgb(33,37,41);stroke-width:6px;stroke-linejoin:miter;stroke-miterlimit:10;"/>
                                <path d="M1407.63,483.182L1407.63,507.182" style="fill:none;stroke:rgb(33,37,41);stroke-width:6px;stroke-linejoin:miter;stroke-miterlimit:10;"/>
                                <path d="M342.336,495.182L1407.63,495.182" style="fill:none;stroke:rgb(33,37,41);stroke-width:6px;"/>
                            </g>
                        </g>
                        <g transform="matrix(7.66136e-17,-1.47578,1,6.245e-17,579.571,1403.5)">
                            <g transform="matrix(2.90356e-17,0.686151,-0.464941,3.56208e-17,816.017,-294.493)">
                                <path d="M1458.6,433.62L1482.6,433.62" style="fill:none;stroke:rgb(33,37,41);stroke-width:6px;stroke-linejoin:miter;stroke-miterlimit:10;"/>
                                <path d="M1458.6,195.307L1482.6,195.307" style="fill:none;stroke:rgb(33,37,41);stroke-width:6px;stroke-linejoin:miter;stroke-miterlimit:10;"/>
                                <path d="M1470.6,433.62L1470.6,195.307" style="fill:none;stroke:rgb(33,37,41);stroke-width:6px;"/>
                            </g>
                        </g>
                    </g>
                    <g transform="matrix(1,0,0,1,-174.212,373.645)">
                        <g transform="matrix(72,0,0,72,530.178,423.164)">
                            <path d="M0.09,-0.228L0.09,-0.353L0.59,-0.574L0.59,-0.43L0.247,-0.292L0.252,-0.3L0.252,-0.282L0.247,-0.289L0.59,-0.152L0.59,-0.008L0.09,-0.228Z" style="fill-rule:nonzero;"/>
                        </g>
                        <g transform="matrix(72,0,0,72,579.793,423.164)">
                            <path d="M0.216,0.01C0.181,0.01 0.15,0.004 0.123,-0.008C0.096,-0.02 0.074,-0.038 0.059,-0.062C0.043,-0.086 0.035,-0.116 0.035,-0.152C0.035,-0.183 0.04,-0.208 0.051,-0.229C0.063,-0.249 0.078,-0.266 0.097,-0.278C0.116,-0.291 0.138,-0.3 0.162,-0.307C0.187,-0.313 0.213,-0.318 0.24,-0.32C0.271,-0.324 0.297,-0.327 0.316,-0.33C0.336,-0.333 0.35,-0.337 0.359,-0.343C0.367,-0.349 0.372,-0.358 0.372,-0.369L0.372,-0.371C0.372,-0.394 0.365,-0.411 0.351,-0.424C0.336,-0.436 0.317,-0.442 0.291,-0.442C0.264,-0.442 0.242,-0.436 0.226,-0.424C0.21,-0.412 0.199,-0.397 0.194,-0.379L0.054,-0.391C0.061,-0.424 0.075,-0.452 0.096,-0.477C0.117,-0.501 0.144,-0.52 0.177,-0.533C0.21,-0.546 0.248,-0.553 0.291,-0.553C0.322,-0.553 0.351,-0.549 0.379,-0.542C0.407,-0.535 0.431,-0.524 0.453,-0.509C0.474,-0.494 0.492,-0.475 0.504,-0.452C0.517,-0.428 0.523,-0.4 0.523,-0.368L0.523,-0L0.38,-0L0.38,-0.076L0.375,-0.076C0.366,-0.059 0.355,-0.044 0.34,-0.031C0.326,-0.018 0.308,-0.008 0.287,-0.001C0.267,0.007 0.243,0.01 0.216,0.01ZM0.259,-0.094C0.282,-0.094 0.301,-0.098 0.318,-0.107C0.335,-0.116 0.349,-0.128 0.358,-0.144C0.368,-0.159 0.373,-0.176 0.373,-0.195L0.373,-0.253C0.368,-0.25 0.362,-0.247 0.354,-0.245C0.345,-0.242 0.336,-0.24 0.326,-0.238C0.316,-0.236 0.306,-0.234 0.296,-0.233C0.285,-0.231 0.276,-0.23 0.268,-0.228C0.25,-0.226 0.235,-0.222 0.221,-0.216C0.208,-0.21 0.198,-0.203 0.19,-0.193C0.183,-0.183 0.179,-0.172 0.179,-0.157C0.179,-0.137 0.187,-0.121 0.202,-0.11C0.217,-0.099 0.236,-0.094 0.259,-0.094Z" style="fill-rule:nonzero;"/>
                        </g>
                        <g transform="matrix(72,0,0,72,644.965,423.164)">
                            <path d="M0.307,0.011C0.251,0.011 0.203,-0.001 0.163,-0.025C0.123,-0.049 0.092,-0.082 0.071,-0.124C0.049,-0.167 0.038,-0.215 0.038,-0.271C0.038,-0.326 0.049,-0.375 0.071,-0.418C0.093,-0.46 0.123,-0.493 0.163,-0.517C0.203,-0.541 0.251,-0.553 0.306,-0.553C0.354,-0.553 0.395,-0.544 0.431,-0.527C0.467,-0.509 0.495,-0.485 0.516,-0.454C0.537,-0.422 0.548,-0.386 0.55,-0.344L0.408,-0.344C0.404,-0.371 0.393,-0.393 0.376,-0.41C0.359,-0.426 0.336,-0.435 0.309,-0.435C0.285,-0.435 0.265,-0.428 0.247,-0.416C0.23,-0.403 0.216,-0.385 0.207,-0.36C0.197,-0.336 0.192,-0.307 0.192,-0.273C0.192,-0.238 0.197,-0.208 0.206,-0.184C0.216,-0.16 0.23,-0.141 0.247,-0.128C0.265,-0.115 0.285,-0.109 0.309,-0.109C0.326,-0.109 0.341,-0.113 0.355,-0.12C0.369,-0.127 0.38,-0.137 0.39,-0.151C0.399,-0.164 0.405,-0.181 0.408,-0.2L0.55,-0.2C0.548,-0.158 0.537,-0.122 0.516,-0.09C0.496,-0.058 0.468,-0.034 0.433,-0.016C0.397,0.002 0.355,0.011 0.307,0.011Z" style="fill-rule:nonzero;"/>
                        </g>
                        <g transform="matrix(72,0,0,72,687.318,423.164)">
                            <rect x="0.061" y="-0.727" width="0.151" height="0.727" style="fill-rule:nonzero;"/>
                        </g>
                        <g transform="matrix(72,0,0,72,706.558,423.164)">
                            <path d="M0.216,0.01C0.181,0.01 0.15,0.004 0.123,-0.008C0.096,-0.02 0.074,-0.038 0.059,-0.062C0.043,-0.086 0.035,-0.116 0.035,-0.152C0.035,-0.183 0.04,-0.208 0.051,-0.229C0.063,-0.249 0.078,-0.266 0.097,-0.278C0.116,-0.291 0.138,-0.3 0.162,-0.307C0.187,-0.313 0.213,-0.318 0.24,-0.32C0.271,-0.324 0.297,-0.327 0.316,-0.33C0.336,-0.333 0.35,-0.337 0.359,-0.343C0.367,-0.349 0.372,-0.358 0.372,-0.369L0.372,-0.371C0.372,-0.394 0.365,-0.411 0.351,-0.424C0.336,-0.436 0.317,-0.442 0.291,-0.442C0.264,-0.442 0.242,-0.436 0.226,-0.424C0.21,-0.412 0.199,-0.397 0.194,-0.379L0.054,-0.391C0.061,-0.424 0.075,-0.452 0.096,-0.477C0.117,-0.501 0.144,-0.52 0.177,-0.533C0.21,-0.546 0.248,-0.553 0.291,-0.553C0.322,-0.553 0.351,-0.549 0.379,-0.542C0.407,-0.535 0.431,-0.524 0.453,-0.509C0.474,-0.494 0.492,-0.475 0.504,-0.452C0.517,-0.428 0.523,-0.4 0.523,-0.368L0.523,-0L0.38,-0L0.38,-0.076L0.375,-0.076C0.366,-0.059 0.355,-0.044 0.34,-0.031C0.326,-0.018 0.308,-0.008 0.287,-0.001C0.267,0.007 0.243,0.01 0.216,0.01ZM0.259,-0.094C0.282,-0.094 0.301,-0.098 0.318,-0.107C0.335,-0.116 0.349,-0.128 0.358,-0.144C0.368,-0.159 0.373,-0.176 0.373,-0.195L0.373,-0.253C0.368,-0.25 0.362,-0.247 0.354,-0.245C0.345,-0.242 0.336,-0.24 0.326,-0.238C0.316,-0.236 0.306,-0.234 0.296,-0.233C0.285,-0.231 0.276,-0.23 0.268,-0.228C0.25,-0.226 0.235,-0.222 0.221,-0.216C0.208,-0.21 0.198,-0.203 0.19,-0.193C0.183,-0.183 0.179,-0.172 0.179,-0.157C0.179,-0.137 0.187,-0.121 0.202,-0.11C0.217,-0.099 0.236,-0.094 0.259,-0.094Z" style="fill-rule:nonzero;"/>
                        </g>
                        <g transform="matrix(72,0,0,72,749.32,423.164)">
                            <path d="M0.514,-0.39L0.376,-0.382C0.373,-0.393 0.368,-0.404 0.361,-0.413C0.353,-0.423 0.343,-0.431 0.33,-0.437C0.317,-0.442 0.302,-0.445 0.284,-0.445C0.261,-0.445 0.241,-0.44 0.225,-0.43C0.209,-0.421 0.201,-0.408 0.201,-0.391C0.201,-0.378 0.206,-0.367 0.217,-0.358C0.227,-0.349 0.245,-0.342 0.27,-0.337L0.369,-0.317C0.422,-0.306 0.462,-0.288 0.488,-0.264C0.514,-0.24 0.527,-0.208 0.527,-0.169C0.527,-0.133 0.516,-0.102 0.495,-0.075C0.474,-0.048 0.446,-0.027 0.409,-0.012C0.373,0.003 0.331,0.011 0.284,0.011C0.212,0.011 0.154,-0.005 0.111,-0.035C0.068,-0.065 0.044,-0.106 0.036,-0.158L0.185,-0.166C0.19,-0.144 0.2,-0.127 0.218,-0.116C0.235,-0.104 0.257,-0.098 0.284,-0.098C0.311,-0.098 0.332,-0.103 0.348,-0.114C0.364,-0.124 0.373,-0.137 0.373,-0.154C0.373,-0.168 0.367,-0.179 0.356,-0.188C0.344,-0.197 0.327,-0.203 0.303,-0.208L0.209,-0.227C0.155,-0.238 0.116,-0.256 0.09,-0.282C0.064,-0.309 0.051,-0.342 0.051,-0.383C0.051,-0.418 0.06,-0.448 0.079,-0.473C0.098,-0.499 0.125,-0.518 0.16,-0.532C0.195,-0.546 0.235,-0.553 0.282,-0.553C0.351,-0.553 0.405,-0.538 0.445,-0.509C0.484,-0.48 0.508,-0.44 0.514,-0.39Z" style="fill-rule:nonzero;"/>
                        </g>
                        <g transform="matrix(72,0,0,72,789.116,423.164)">
                            <path d="M0.514,-0.39L0.376,-0.382C0.373,-0.393 0.368,-0.404 0.361,-0.413C0.353,-0.423 0.343,-0.431 0.33,-0.437C0.317,-0.442 0.302,-0.445 0.284,-0.445C0.261,-0.445 0.241,-0.44 0.225,-0.43C0.209,-0.421 0.201,-0.408 0.201,-0.391C0.201,-0.378 0.206,-0.367 0.217,-0.358C0.227,-0.349 0.245,-0.342 0.27,-0.337L0.369,-0.317C0.422,-0.306 0.462,-0.288 0.488,-0.264C0.514,-0.24 0.527,-0.208 0.527,-0.169C0.527,-0.133 0.516,-0.102 0.495,-0.075C0.474,-0.048 0.446,-0.027 0.409,-0.012C0.373,0.003 0.331,0.011 0.284,0.011C0.212,0.011 0.154,-0.005 0.111,-0.035C0.068,-0.065 0.044,-0.106 0.036,-0.158L0.185,-0.166C0.19,-0.144 0.2,-0.127 0.218,-0.116C0.235,-0.104 0.257,-0.098 0.284,-0.098C0.311,-0.098 0.332,-0.103 0.348,-0.114C0.364,-0.124 0.373,-0.137 0.373,-0.154C0.373,-0.168 0.367,-0.179 0.356,-0.188C0.344,-0.197 0.327,-0.203 0.303,-0.208L0.209,-0.227C0.155,-0.238 0.116,-0.256 0.09,-0.282C0.064,-0.309 0.051,-0.342 0.051,-0.383C0.051,-0.418 0.06,-0.448 0.079,-0.473C0.098,-0.499 0.125,-0.518 0.16,-0.532C0.195,-0.546 0.235,-0.553 0.282,-0.553C0.351,-0.553 0.405,-0.538 0.445,-0.509C0.484,-0.48 0.508,-0.44 0.514,-0.39Z" style="fill-rule:nonzero;"/>
                        </g>
                        <g transform="matrix(72,0,0,72,828.913,423.164)">
                            <path d="M0.095,-0.346L0.095,-0.472L0.585,-0.472L0.585,-0.346L0.095,-0.346ZM0.095,-0.11L0.095,-0.236L0.585,-0.236L0.585,-0.11L0.095,-0.11Z" style="fill-rule:nonzero;"/>
                        </g>
                        <g transform="matrix(72,0,0,72,878.527,423.164)">
                            <path d="M0.158,-0.727L0.158,-0.451L0.05,-0.451L0.05,-0.727L0.158,-0.727ZM0.341,-0.727L0.341,-0.451L0.233,-0.451L0.233,-0.727L0.341,-0.727Z" style="fill-rule:nonzero;"/>
                        </g>
                        <g transform="matrix(72,0,0,72,909.733,423.164)">
                            <path d="M0.063,-0L0.063,-0.727L0.214,-0.727L0.214,-0.454L0.219,-0.454C0.226,-0.469 0.235,-0.484 0.248,-0.499C0.261,-0.514 0.277,-0.527 0.298,-0.537C0.318,-0.547 0.344,-0.553 0.374,-0.553C0.414,-0.553 0.451,-0.542 0.484,-0.522C0.518,-0.501 0.545,-0.47 0.565,-0.428C0.585,-0.387 0.595,-0.335 0.595,-0.272C0.595,-0.211 0.585,-0.16 0.566,-0.118C0.546,-0.076 0.52,-0.045 0.486,-0.023C0.453,-0.002 0.415,0.009 0.374,0.009C0.345,0.009 0.32,0.004 0.299,-0.006C0.279,-0.016 0.262,-0.028 0.249,-0.043C0.236,-0.057 0.226,-0.072 0.219,-0.087L0.212,-0.087L0.212,-0L0.063,-0ZM0.211,-0.273C0.211,-0.24 0.216,-0.212 0.225,-0.188C0.234,-0.164 0.247,-0.145 0.264,-0.132C0.281,-0.118 0.302,-0.112 0.326,-0.112C0.351,-0.112 0.372,-0.118 0.389,-0.132C0.406,-0.146 0.419,-0.165 0.427,-0.189C0.436,-0.213 0.441,-0.241 0.441,-0.273C0.441,-0.304 0.436,-0.332 0.428,-0.356C0.419,-0.38 0.406,-0.399 0.389,-0.412C0.372,-0.425 0.351,-0.432 0.326,-0.432C0.301,-0.432 0.281,-0.426 0.264,-0.413C0.247,-0.399 0.234,-0.381 0.225,-0.357C0.216,-0.333 0.211,-0.305 0.211,-0.273Z" style="fill-rule:nonzero;"/>
                        </g>
                        <g transform="matrix(72,0,0,72,956.586,423.164)">
                            <path d="M0.351,-0.545L0.351,-0.432L0.022,-0.432L0.022,-0.545L0.351,-0.545ZM0.097,-0.676L0.248,-0.676L0.248,-0.168C0.248,-0.154 0.25,-0.143 0.254,-0.135C0.259,-0.127 0.265,-0.122 0.272,-0.119C0.28,-0.116 0.289,-0.114 0.299,-0.114C0.306,-0.114 0.313,-0.115 0.32,-0.116C0.328,-0.118 0.333,-0.119 0.337,-0.119L0.361,-0.007C0.353,-0.004 0.342,-0.001 0.329,0.002C0.315,0.005 0.298,0.007 0.278,0.008C0.242,0.009 0.21,0.004 0.183,-0.007C0.155,-0.018 0.134,-0.035 0.119,-0.059C0.104,-0.082 0.096,-0.112 0.097,-0.148L0.097,-0.676Z" style="fill-rule:nonzero;"/>
                        </g>
                        <g transform="matrix(72,0,0,72,984.928,423.164)">
                            <path d="M0.212,-0.315L0.212,-0L0.061,-0L0.061,-0.545L0.205,-0.545L0.205,-0.449L0.211,-0.449C0.223,-0.481 0.243,-0.506 0.272,-0.525C0.3,-0.543 0.335,-0.553 0.375,-0.553C0.413,-0.553 0.446,-0.544 0.474,-0.528C0.502,-0.511 0.524,-0.487 0.54,-0.457C0.555,-0.426 0.563,-0.39 0.563,-0.347L0.563,-0L0.412,-0L0.412,-0.32C0.412,-0.354 0.404,-0.38 0.386,-0.399C0.369,-0.418 0.345,-0.427 0.315,-0.427C0.295,-0.427 0.277,-0.423 0.261,-0.414C0.246,-0.405 0.234,-0.392 0.225,-0.376C0.216,-0.359 0.212,-0.339 0.212,-0.315Z" style="fill-rule:nonzero;"/>
                        </g>
                        <g transform="matrix(72,0,0,72,1029.22,423.164)">
                            <path d="M0.158,-0.727L0.158,-0.451L0.05,-0.451L0.05,-0.727L0.158,-0.727ZM0.341,-0.727L0.341,-0.451L0.233,-0.451L0.233,-0.727L0.341,-0.727Z" style="fill-rule:nonzero;"/>
                        </g>
                        <g transform="matrix(72,0,0,72,1060.43,423.164)">
                            <path d="M0.59,-0.297L0.09,-0.076L0.09,-0.22L0.432,-0.358L0.428,-0.35L0.428,-0.368L0.432,-0.36L0.09,-0.498L0.09,-0.642L0.59,-0.422L0.59,-0.297Z" style="fill-rule:nonzero;"/>
                        </g>
                        <g transform="matrix(72,0,0,72,1110.04,423.164)">
                            <path d="M0.313,-0L0.088,-0L0.088,-0.727L0.322,-0.727C0.393,-0.727 0.453,-0.713 0.504,-0.684C0.554,-0.655 0.592,-0.613 0.619,-0.559C0.646,-0.505 0.659,-0.44 0.659,-0.365C0.659,-0.289 0.646,-0.224 0.619,-0.17C0.592,-0.115 0.552,-0.073 0.501,-0.044C0.449,-0.015 0.386,-0 0.313,-0ZM0.176,-0.078L0.307,-0.078C0.367,-0.078 0.417,-0.09 0.456,-0.113C0.496,-0.136 0.525,-0.169 0.545,-0.212C0.564,-0.255 0.574,-0.306 0.574,-0.365C0.574,-0.424 0.564,-0.474 0.545,-0.517C0.526,-0.559 0.497,-0.592 0.459,-0.615C0.421,-0.638 0.374,-0.649 0.317,-0.649L0.176,-0.649L0.176,-0.078Z" style="fill-rule:nonzero;"/>
                        </g>
                        <g transform="matrix(72,0,0,72,1163.95,423.164)">
                            <path d="M0.305,0.011C0.253,0.011 0.208,-0 0.17,-0.024C0.132,-0.047 0.102,-0.08 0.082,-0.122C0.061,-0.164 0.051,-0.213 0.051,-0.268C0.051,-0.324 0.061,-0.374 0.082,-0.416C0.102,-0.459 0.131,-0.492 0.168,-0.517C0.205,-0.541 0.248,-0.553 0.297,-0.553C0.325,-0.553 0.353,-0.548 0.381,-0.538C0.409,-0.529 0.434,-0.514 0.457,-0.492C0.479,-0.471 0.498,-0.443 0.511,-0.408C0.525,-0.374 0.531,-0.331 0.531,-0.28L0.531,-0.244L0.111,-0.244L0.111,-0.317L0.446,-0.317C0.446,-0.348 0.44,-0.375 0.428,-0.399C0.416,-0.423 0.398,-0.442 0.376,-0.456C0.354,-0.47 0.327,-0.477 0.297,-0.477C0.263,-0.477 0.235,-0.469 0.21,-0.453C0.186,-0.436 0.167,-0.415 0.154,-0.388C0.141,-0.362 0.135,-0.334 0.135,-0.304L0.135,-0.256C0.135,-0.214 0.142,-0.18 0.156,-0.151C0.171,-0.123 0.191,-0.101 0.216,-0.086C0.242,-0.071 0.272,-0.064 0.305,-0.064C0.327,-0.064 0.347,-0.067 0.365,-0.073C0.383,-0.08 0.399,-0.089 0.412,-0.102C0.425,-0.114 0.435,-0.13 0.442,-0.149L0.523,-0.126C0.514,-0.099 0.5,-0.075 0.48,-0.054C0.46,-0.033 0.435,-0.017 0.405,-0.006C0.376,0.006 0.342,0.011 0.305,0.011Z" style="fill-rule:nonzero;"/>
                        </g>
                        <g transform="matrix(72,0,0,72,1208.05,423.164)">
                            <rect x="0.077" y="-0.727" width="0.084" height="0.727" style="fill-rule:nonzero;"/>
                        </g>
                        <g transform="matrix(72,0,0,72,1227.29,423.164)">
                            <path d="M0.305,0.011C0.253,0.011 0.208,-0 0.17,-0.024C0.132,-0.047 0.102,-0.08 0.082,-0.122C0.061,-0.164 0.051,-0.213 0.051,-0.268C0.051,-0.324 0.061,-0.374 0.082,-0.416C0.102,-0.459 0.131,-0.492 0.168,-0.517C0.205,-0.541 0.248,-0.553 0.297,-0.553C0.325,-0.553 0.353,-0.548 0.381,-0.538C0.409,-0.529 0.434,-0.514 0.457,-0.492C0.479,-0.471 0.498,-0.443 0.511,-0.408C0.525,-0.374 0.531,-0.331 0.531,-0.28L0.531,-0.244L0.111,-0.244L0.111,-0.317L0.446,-0.317C0.446,-0.348 0.44,-0.375 0.428,-0.399C0.416,-0.423 0.398,-0.442 0.376,-0.456C0.354,-0.47 0.327,-0.477 0.297,-0.477C0.263,-0.477 0.235,-0.469 0.21,-0.453C0.186,-0.436 0.167,-0.415 0.154,-0.388C0.141,-0.362 0.135,-0.334 0.135,-0.304L0.135,-0.256C0.135,-0.214 0.142,-0.18 0.156,-0.151C0.171,-0.123 0.191,-0.101 0.216,-0.086C0.242,-0.071 0.272,-0.064 0.305,-0.064C0.327,-0.064 0.347,-0.067 0.365,-0.073C0.383,-0.08 0.399,-0.089 0.412,-0.102C0.425,-0.114 0.435,-0.13 0.442,-0.149L0.523,-0.126C0.514,-0.099 0.5,-0.075 0.48,-0.054C0.46,-0.033 0.435,-0.017 0.405,-0.006C0.376,0.006 0.342,0.011 0.305,0.011Z" style="fill-rule:nonzero;"/>
                        </g>
                        <g transform="matrix(72,0,0,72,1271.38,423.164)">
                            <path d="M0.314,-0.545L0.314,-0.474L0.031,-0.474L0.031,-0.545L0.314,-0.545ZM0.114,-0.676L0.197,-0.676L0.197,-0.156C0.197,-0.133 0.201,-0.115 0.208,-0.103C0.215,-0.091 0.224,-0.084 0.235,-0.08C0.246,-0.076 0.258,-0.074 0.27,-0.074C0.279,-0.074 0.287,-0.074 0.293,-0.075C0.299,-0.077 0.303,-0.077 0.307,-0.078L0.324,-0.003C0.318,-0.001 0.31,0.001 0.3,0.004C0.29,0.006 0.277,0.007 0.261,0.007C0.238,0.007 0.215,0.002 0.192,-0.008C0.169,-0.018 0.151,-0.034 0.136,-0.055C0.121,-0.076 0.114,-0.102 0.114,-0.134L0.114,-0.676Z" style="fill-rule:nonzero;"/>
                        </g>
                        <g transform="matrix(72,0,0,72,1299.31,423.164)">
                            <path d="M0.305,0.011C0.253,0.011 0.208,-0 0.17,-0.024C0.132,-0.047 0.102,-0.08 0.082,-0.122C0.061,-0.164 0.051,-0.213 0.051,-0.268C0.051,-0.324 0.061,-0.374 0.082,-0.416C0.102,-0.459 0.131,-0.492 0.168,-0.517C0.205,-0.541 0.248,-0.553 0.297,-0.553C0.325,-0.553 0.353,-0.548 0.381,-0.538C0.409,-0.529 0.434,-0.514 0.457,-0.492C0.479,-0.471 0.498,-0.443 0.511,-0.408C0.525,-0.374 0.531,-0.331 0.531,-0.28L0.531,-0.244L0.111,-0.244L0.111,-0.317L0.446,-0.317C0.446,-0.348 0.44,-0.375 0.428,-0.399C0.416,-0.423 0.398,-0.442 0.376,-0.456C0.354,-0.47 0.327,-0.477 0.297,-0.477C0.263,-0.477 0.235,-0.469 0.21,-0.453C0.186,-0.436 0.167,-0.415 0.154,-0.388C0.141,-0.362 0.135,-0.334 0.135,-0.304L0.135,-0.256C0.135,-0.214 0.142,-0.18 0.156,-0.151C0.171,-0.123 0.191,-0.101 0.216,-0.086C0.242,-0.071 0.272,-0.064 0.305,-0.064C0.327,-0.064 0.347,-0.067 0.365,-0.073C0.383,-0.08 0.399,-0.089 0.412,-0.102C0.425,-0.114 0.435,-0.13 0.442,-0.149L0.523,-0.126C0.514,-0.099 0.5,-0.075 0.48,-0.054C0.46,-0.033 0.435,-0.017 0.405,-0.006C0.376,0.006 0.342,0.011 0.305,0.011Z" style="fill-rule:nonzero;"/>
                        </g>
                        <g transform="matrix(72,0,0,72,1343.4,423.164)">
                            <path d="M0.09,-0.228L0.09,-0.353L0.59,-0.574L0.59,-0.43L0.247,-0.292L0.252,-0.3L0.252,-0.282L0.247,-0.289L0.59,-0.152L0.59,-0.008L0.09,-0.228Z" style="fill-rule:nonzero;"/>
                        </g>
                        <g transform="matrix(72,0,0,72,1393.02,423.164)">
                            <path d="M0.377,-0.761L0.143,0.109L0.013,0.109L0.247,-0.761L0.377,-0.761Z" style="fill-rule:nonzero;"/>
                        </g>
                        <g transform="matrix(72,0,0,72,1420.85,423.164)">
                            <path d="M0.216,0.01C0.181,0.01 0.15,0.004 0.123,-0.008C0.096,-0.02 0.074,-0.038 0.059,-0.062C0.043,-0.086 0.035,-0.116 0.035,-0.152C0.035,-0.183 0.04,-0.208 0.051,-0.229C0.063,-0.249 0.078,-0.266 0.097,-0.278C0.116,-0.291 0.138,-0.3 0.162,-0.307C0.187,-0.313 0.213,-0.318 0.24,-0.32C0.271,-0.324 0.297,-0.327 0.316,-0.33C0.336,-0.333 0.35,-0.337 0.359,-0.343C0.367,-0.349 0.372,-0.358 0.372,-0.369L0.372,-0.371C0.372,-0.394 0.365,-0.411 0.351,-0.424C0.336,-0.436 0.317,-0.442 0.291,-0.442C0.264,-0.442 0.242,-0.436 0.226,-0.424C0.21,-0.412 0.199,-0.397 0.194,-0.379L0.054,-0.391C0.061,-0.424 0.075,-0.452 0.096,-0.477C0.117,-0.501 0.144,-0.52 0.177,-0.533C0.21,-0.546 0.248,-0.553 0.291,-0.553C0.322,-0.553 0.351,-0.549 0.379,-0.542C0.407,-0.535 0.431,-0.524 0.453,-0.509C0.474,-0.494 0.492,-0.475 0.504,-0.452C0.517,-0.428 0.523,-0.4 0.523,-0.368L0.523,-0L0.38,-0L0.38,-0.076L0.375,-0.076C0.366,-0.059 0.355,-0.044 0.34,-0.031C0.326,-0.018 0.308,-0.008 0.287,-0.001C0.267,0.007 0.243,0.01 0.216,0.01ZM0.259,-0.094C0.282,-0.094 0.301,-0.098 0.318,-0.107C0.335,-0.116 0.349,-0.128 0.358,-0.144C0.368,-0.159 0.373,-0.176 0.373,-0.195L0.373,-0.253C0.368,-0.25 0.362,-0.247 0.354,-0.245C0.345,-0.242 0.336,-0.24 0.326,-0.238C0.316,-0.236 0.306,-0.234 0.296,-0.233C0.285,-0.231 0.276,-0.23 0.268,-0.228C0.25,-0.226 0.235,-0.222 0.221,-0.216C0.208,-0.21 0.198,-0.203 0.19,-0.193C0.183,-0.183 0.179,-0.172 0.179,-0.157C0.179,-0.137 0.187,-0.121 0.202,-0.11C0.217,-0.099 0.236,-0.094 0.259,-0.094Z" style="fill-rule:nonzero;"/>
                        </g>
                        <g transform="matrix(72,0,0,72,1463.61,423.164)">
                            <path d="M0.59,-0.228L0.09,-0.008L0.09,-0.152L0.432,-0.289L0.428,-0.282L0.428,-0.3L0.432,-0.292L0.09,-0.43L0.09,-0.574L0.59,-0.353L0.59,-0.228Z" style="fill-rule:nonzero;"/>
                        </g>
                    </g>
                </g>
            </g>
        </g>
    </g>
</svg>
