<?xml version="1.0" encoding="UTF-8" standalone="no"?><!DOCTYPE svg PUBLIC "-//W3C//DTD SVG 1.1//EN" "http://www.w3.org/Graphics/SVG/1.1/DTD/svg11.dtd"><svg width="100%" height="100%" viewBox="0 0 1749 1241" version="1.1" xmlns="http://www.w3.org/2000/svg" xmlns:xlink="http://www.w3.org/1999/xlink" xml:space="preserve" xmlns:serif="http://www.serif.com/" style="fill-rule:evenodd;clip-rule:evenodd;stroke-linecap:round;stroke-linejoin:round;stroke-miterlimit:1.5;"><rect id="Artboard1" x="0" y="0" width="1748.03" height="1240.16" style="fill:none;"/><clipPath id="_clip1"><rect x="0" y="0" width="1748.03" height="1240.16"/></clipPath><g clip-path="url(#_clip1)"><rect x="-0" y="0" width="1748.03" height="1240.16" style="fill:#ada7ff;"/><path d="M1538.06,235.016c-0,-53.131 -43.135,-96.266 -96.266,-96.266l-1135.55,-0c-53.13,-0 -96.265,43.135 -96.265,96.266l-0,770.126c-0,53.13 43.135,96.266 96.265,96.266l1135.55,-0c53.131,-0 96.266,-43.136 96.266,-96.266l-0,-770.126Z" style="fill:#fff;stroke:#22252a;stroke-width:12.5px;"/><g transform="matrix(4.16667,0,0,4.16667,-141.982,-255.948)"><path d="M150.775,174.437l-0,-18.909l3.346,-0l0,7.068l0.14,0c0.17,-0.339 0.413,-0.705 0.727,-1.097c0.315,-0.392 0.739,-0.728 1.274,-1.009c0.535,-0.28 1.22,-0.42 2.055,-0.42c1.09,0 2.078,0.279 2.963,0.837c0.885,0.558 1.588,1.379 2.107,2.465c0.52,1.086 0.779,2.418 0.779,3.996c0,1.556 -0.254,2.879 -0.764,3.969c-0.51,1.09 -1.205,1.921 -2.087,2.493c-0.881,0.572 -1.878,0.858 -2.991,0.858c-0.813,0 -1.487,-0.135 -2.024,-0.405c-0.537,-0.271 -0.967,-0.599 -1.291,-0.985c-0.323,-0.386 -0.573,-0.752 -0.748,-1.099l-0.199,-0l0,2.238l-3.287,-0Zm3.28,-7.091c-0,0.918 0.13,1.723 0.391,2.412c0.261,0.69 0.64,1.228 1.136,1.612c0.496,0.385 1.1,0.578 1.811,0.578c0.734,-0 1.35,-0.199 1.849,-0.596c0.5,-0.397 0.878,-0.942 1.134,-1.636c0.257,-0.694 0.385,-1.484 0.385,-2.37c0,-0.879 -0.126,-1.66 -0.379,-2.342c-0.253,-0.683 -0.629,-1.219 -1.128,-1.609c-0.5,-0.389 -1.12,-0.584 -1.861,-0.584c-0.719,-0 -1.326,0.187 -1.822,0.562c-0.496,0.375 -0.873,0.902 -1.13,1.581c-0.258,0.679 -0.386,1.476 -0.386,2.392Z" style="fill:#22252a;fill-rule:nonzero;stroke:#22252a;stroke-width:1px;stroke-linecap:butt;stroke-miterlimit:2;"/><path d="M177.107,168.476l0,-8.221l3.346,0l0,14.182l-3.242,-0l-0,-2.519l-0.148,0c-0.323,0.794 -0.848,1.443 -1.577,1.947c-0.729,0.504 -1.626,0.756 -2.692,0.756c-0.929,0 -1.748,-0.208 -2.458,-0.625c-0.71,-0.416 -1.266,-1.022 -1.666,-1.817c-0.4,-0.794 -0.601,-1.76 -0.604,-2.898l0,-9.026l3.346,0l0,8.509c0.003,0.901 0.25,1.616 0.74,2.146c0.491,0.529 1.135,0.794 1.934,0.794c0.495,-0 0.974,-0.12 1.436,-0.358c0.462,-0.239 0.843,-0.597 1.141,-1.075c0.299,-0.478 0.447,-1.076 0.444,-1.795Z" style="fill:#22252a;fill-rule:nonzero;stroke:#22252a;stroke-width:1px;stroke-linecap:butt;stroke-miterlimit:2;"/><path d="M191.555,160.255l0,2.585l-8.147,0l0,-2.585l8.147,0Zm-6.138,-3.398l3.346,0l0,13.318c0,0.448 0.068,0.79 0.204,1.026c0.136,0.235 0.318,0.397 0.547,0.483c0.228,0.087 0.483,0.131 0.763,0.131c0.206,-0 0.396,-0.016 0.571,-0.047c0.175,-0.032 0.31,-0.058 0.404,-0.079l0.562,2.607c-0.18,0.061 -0.434,0.128 -0.761,0.203c-0.328,0.074 -0.729,0.118 -1.204,0.13c-0.837,0.024 -1.591,-0.104 -2.261,-0.384c-0.671,-0.281 -1.201,-0.715 -1.592,-1.304c-0.391,-0.588 -0.584,-1.328 -0.579,-2.22l0,-13.864Z" style="fill:#22252a;fill-rule:nonzero;stroke:#22252a;stroke-width:1px;stroke-linecap:butt;stroke-miterlimit:2;"/><path d="M202.31,160.255l-0,2.585l-8.147,0l-0,-2.585l8.147,0Zm-6.138,-3.398l3.346,0l-0,13.318c-0,0.448 0.068,0.79 0.204,1.026c0.136,0.235 0.318,0.397 0.546,0.483c0.229,0.087 0.483,0.131 0.764,0.131c0.205,-0 0.396,-0.016 0.57,-0.047c0.175,-0.032 0.31,-0.058 0.405,-0.079l0.561,2.607c-0.18,0.061 -0.433,0.128 -0.761,0.203c-0.327,0.074 -0.728,0.118 -1.204,0.13c-0.837,0.024 -1.59,-0.104 -2.261,-0.384c-0.67,-0.281 -1.201,-0.715 -1.591,-1.304c-0.391,-0.588 -0.584,-1.328 -0.579,-2.22l-0,-13.864Z" style="fill:#22252a;fill-rule:nonzero;stroke:#22252a;stroke-width:1px;stroke-linecap:butt;stroke-miterlimit:2;"/><path d="M212.023,174.718c-1.384,-0 -2.584,-0.306 -3.6,-0.916c-1.016,-0.611 -1.803,-1.465 -2.36,-2.562c-0.557,-1.097 -0.836,-2.375 -0.836,-3.835c0,-1.467 0.279,-2.751 0.836,-3.852c0.557,-1.1 1.344,-1.956 2.36,-2.567c1.016,-0.61 2.216,-0.916 3.6,-0.916c1.383,0 2.583,0.306 3.6,0.916c1.016,0.611 1.803,1.467 2.36,2.567c0.557,1.101 0.835,2.385 0.835,3.852c0,1.46 -0.278,2.738 -0.835,3.835c-0.557,1.097 -1.344,1.951 -2.36,2.562c-1.017,0.61 -2.217,0.916 -3.6,0.916Zm0.014,-2.682c0.756,0 1.385,-0.207 1.888,-0.622c0.502,-0.415 0.878,-0.973 1.128,-1.675c0.25,-0.702 0.375,-1.485 0.375,-2.349c-0,-0.866 -0.125,-1.652 -0.375,-2.356c-0.25,-0.704 -0.626,-1.266 -1.128,-1.684c-0.503,-0.419 -1.132,-0.628 -1.888,-0.628c-0.765,0 -1.402,0.209 -1.909,0.628c-0.507,0.418 -0.886,0.98 -1.135,1.684c-0.25,0.704 -0.375,1.49 -0.375,2.356c-0,0.864 0.125,1.647 0.375,2.349c0.249,0.702 0.628,1.26 1.135,1.675c0.507,0.415 1.144,0.622 1.909,0.622Z" style="fill:#22252a;fill-rule:nonzero;stroke:#22252a;stroke-width:1px;stroke-linecap:butt;stroke-miterlimit:2;"/><path d="M225.99,166.127l0,8.31l-3.346,-0l0,-14.182l3.199,0l-0,2.408l0.17,-0c0.322,-0.792 0.842,-1.422 1.56,-1.89c0.718,-0.468 1.606,-0.703 2.664,-0.703c0.978,0 1.831,0.209 2.56,0.627c0.729,0.418 1.295,1.024 1.699,1.819c0.404,0.795 0.604,1.76 0.602,2.895l-0,9.026l-3.346,-0l-0,-8.509c0.002,-0.949 -0.242,-1.691 -0.733,-2.226c-0.492,-0.535 -1.168,-0.803 -2.03,-0.803c-0.585,0 -1.103,0.127 -1.554,0.381c-0.451,0.253 -0.804,0.621 -1.059,1.102c-0.254,0.482 -0.383,1.063 -0.386,1.745Z" style="fill:#22252a;fill-rule:nonzero;stroke:#22252a;stroke-width:1px;stroke-linecap:butt;stroke-miterlimit:2;"/><path d="M241.223,174.64c-0.56,-0 -1.04,-0.197 -1.44,-0.591c-0.401,-0.394 -0.598,-0.874 -0.591,-1.44c-0.007,-0.554 0.19,-1.028 0.591,-1.422c0.4,-0.394 0.88,-0.591 1.44,-0.591c0.542,-0 1.014,0.197 1.417,0.591c0.403,0.394 0.608,0.868 0.614,1.422c-0.006,0.375 -0.103,0.717 -0.291,1.025c-0.187,0.307 -0.434,0.552 -0.738,0.734c-0.305,0.181 -0.639,0.272 -1.002,0.272Zm-0,-10.129c-0.56,0 -1.04,-0.197 -1.44,-0.59c-0.401,-0.394 -0.598,-0.875 -0.591,-1.441c-0.007,-0.554 0.19,-1.028 0.591,-1.422c0.4,-0.394 0.88,-0.591 1.44,-0.591c0.542,0 1.014,0.197 1.417,0.591c0.403,0.394 0.608,0.868 0.614,1.422c-0.006,0.376 -0.103,0.717 -0.291,1.025c-0.187,0.308 -0.434,0.552 -0.738,0.734c-0.305,0.182 -0.639,0.272 -1.002,0.272Z" style="fill:#22252a;fill-rule:nonzero;stroke:#22252a;stroke-width:1px;stroke-linecap:butt;stroke-miterlimit:2;"/><path d="M254.812,160.255l-0,2.585l-8.384,0l0,-2.585l8.384,0Zm-6.286,14.182l0,-15.519c0,-0.955 0.198,-1.749 0.595,-2.382c0.396,-0.633 0.93,-1.107 1.601,-1.422c0.671,-0.315 1.416,-0.473 2.236,-0.473c0.58,0 1.094,0.046 1.542,0.137c0.448,0.091 0.781,0.174 0.999,0.247l-0.672,2.593c-0.141,-0.044 -0.318,-0.09 -0.533,-0.137c-0.215,-0.046 -0.453,-0.07 -0.716,-0.07c-0.624,0 -1.064,0.15 -1.321,0.449c-0.256,0.299 -0.385,0.726 -0.385,1.28l0,15.297l-3.346,-0Z" style="fill:#22252a;fill-rule:nonzero;stroke:#22252a;stroke-width:1px;stroke-linecap:butt;stroke-miterlimit:2;"/><path d="M263.905,174.718c-1.384,-0 -2.584,-0.306 -3.6,-0.916c-1.017,-0.611 -1.803,-1.465 -2.36,-2.562c-0.557,-1.097 -0.836,-2.375 -0.836,-3.835c0,-1.467 0.279,-2.751 0.836,-3.852c0.557,-1.1 1.343,-1.956 2.36,-2.567c1.016,-0.61 2.216,-0.916 3.6,-0.916c1.383,0 2.583,0.306 3.599,0.916c1.017,0.611 1.803,1.467 2.36,2.567c0.557,1.101 0.836,2.385 0.836,3.852c-0,1.46 -0.279,2.738 -0.836,3.835c-0.557,1.097 -1.343,1.951 -2.36,2.562c-1.016,0.61 -2.216,0.916 -3.599,0.916Zm0.014,-2.682c0.756,0 1.385,-0.207 1.888,-0.622c0.502,-0.415 0.878,-0.973 1.128,-1.675c0.25,-0.702 0.375,-1.485 0.375,-2.349c-0,-0.866 -0.125,-1.652 -0.375,-2.356c-0.25,-0.704 -0.626,-1.266 -1.128,-1.684c-0.503,-0.419 -1.132,-0.628 -1.888,-0.628c-0.765,0 -1.402,0.209 -1.909,0.628c-0.507,0.418 -0.886,0.98 -1.136,1.684c-0.25,0.704 -0.375,1.49 -0.375,2.356c0,0.864 0.125,1.647 0.375,2.349c0.25,0.702 0.629,1.26 1.136,1.675c0.507,0.415 1.144,0.622 1.909,0.622Z" style="fill:#22252a;fill-rule:nonzero;stroke:#22252a;stroke-width:1px;stroke-linecap:butt;stroke-miterlimit:2;"/><path d="M280.716,174.718c-1.413,-0 -2.627,-0.311 -3.642,-0.933c-1.014,-0.622 -1.793,-1.483 -2.337,-2.583c-0.544,-1.101 -0.817,-2.366 -0.817,-3.797c0,-1.445 0.277,-2.719 0.83,-3.821c0.554,-1.103 1.337,-1.964 2.349,-2.584c1.013,-0.62 2.211,-0.93 3.595,-0.93c1.154,0 2.176,0.211 3.063,0.634c0.888,0.422 1.597,1.015 2.128,1.78c0.53,0.764 0.834,1.659 0.91,2.683l-3.198,-0c-0.127,-0.686 -0.434,-1.257 -0.919,-1.715c-0.486,-0.457 -1.13,-0.686 -1.933,-0.686c-0.686,0 -1.287,0.184 -1.803,0.55c-0.515,0.366 -0.916,0.891 -1.202,1.575c-0.286,0.684 -0.429,1.502 -0.429,2.455c-0,0.968 0.141,1.798 0.424,2.491c0.282,0.693 0.681,1.225 1.196,1.597c0.515,0.372 1.12,0.558 1.814,0.558c0.49,-0 0.932,-0.094 1.324,-0.283c0.393,-0.188 0.722,-0.461 0.987,-0.819c0.264,-0.359 0.445,-0.791 0.541,-1.299l3.198,0c-0.081,1.002 -0.378,1.889 -0.889,2.66c-0.512,0.772 -1.207,1.375 -2.087,1.812c-0.879,0.436 -1.914,0.655 -3.103,0.655Z" style="fill:#22252a;fill-rule:nonzero;stroke:#22252a;stroke-width:1px;stroke-linecap:butt;stroke-miterlimit:2;"/><path d="M299.381,168.476l0,-8.221l3.346,0l0,14.182l-3.242,-0l-0,-2.519l-0.148,0c-0.323,0.794 -0.848,1.443 -1.577,1.947c-0.729,0.504 -1.626,0.756 -2.692,0.756c-0.929,0 -1.748,-0.208 -2.458,-0.625c-0.711,-0.416 -1.266,-1.022 -1.666,-1.817c-0.4,-0.794 -0.601,-1.76 -0.604,-2.898l0,-9.026l3.346,0l0,8.509c0.003,0.901 0.249,1.616 0.74,2.146c0.49,0.529 1.135,0.794 1.934,0.794c0.495,-0 0.974,-0.12 1.436,-0.358c0.462,-0.239 0.843,-0.597 1.141,-1.075c0.299,-0.478 0.447,-1.076 0.444,-1.795Z" style="fill:#22252a;fill-rule:nonzero;stroke:#22252a;stroke-width:1px;stroke-linecap:butt;stroke-miterlimit:2;"/><path d="M317.958,164.007l-3.051,0.333c-0.083,-0.312 -0.232,-0.603 -0.446,-0.873c-0.213,-0.27 -0.498,-0.489 -0.854,-0.656c-0.355,-0.168 -0.791,-0.251 -1.307,-0.251c-0.696,-0 -1.279,0.151 -1.75,0.453c-0.47,0.302 -0.705,0.695 -0.702,1.179c-0.003,0.409 0.152,0.743 0.463,1.003c0.312,0.259 0.827,0.472 1.546,0.637l2.415,0.517c1.342,0.29 2.342,0.75 2.999,1.378c0.657,0.629 0.987,1.449 0.99,2.463c-0.003,0.891 -0.262,1.677 -0.778,2.358c-0.517,0.681 -1.229,1.212 -2.138,1.595c-0.908,0.383 -1.955,0.575 -3.141,0.575c-1.735,-0 -3.131,-0.366 -4.188,-1.097c-1.058,-0.732 -1.69,-1.75 -1.898,-3.055l3.264,-0.31c0.146,0.638 0.459,1.12 0.941,1.446c0.482,0.326 1.107,0.489 1.874,0.489c0.796,0 1.435,-0.162 1.917,-0.486c0.482,-0.325 0.724,-0.729 0.727,-1.213c-0.003,-0.403 -0.16,-0.738 -0.471,-1.003c-0.311,-0.265 -0.792,-0.468 -1.442,-0.607l-2.423,-0.509c-1.358,-0.286 -2.363,-0.765 -3.014,-1.438c-0.652,-0.673 -0.977,-1.525 -0.975,-2.558c-0.002,-0.874 0.238,-1.633 0.72,-2.277c0.482,-0.644 1.154,-1.143 2.018,-1.498c0.864,-0.354 1.864,-0.532 3.002,-0.532c1.662,0 2.971,0.355 3.926,1.064c0.956,0.709 1.548,1.667 1.776,2.873Z" style="fill:#22252a;fill-rule:nonzero;stroke:#22252a;stroke-width:1px;stroke-linecap:butt;stroke-miterlimit:2;"/><path d="M329.392,166.792l0,-1.618c1.05,0 1.782,-0.213 2.195,-0.64c0.413,-0.428 0.619,-1.125 0.619,-2.093l0,-2.348c0,-1.042 0.132,-1.895 0.396,-2.56c0.264,-0.665 0.648,-1.182 1.152,-1.551c0.503,-0.369 1.118,-0.626 1.844,-0.77c0.727,-0.144 1.551,-0.216 2.473,-0.216l0,2.563c-0.724,-0 -1.28,0.1 -1.668,0.299c-0.389,0.2 -0.656,0.507 -0.802,0.921c-0.146,0.414 -0.219,0.941 -0.219,1.579l0,3.029c0,0.473 -0.079,0.915 -0.237,1.328c-0.158,0.412 -0.45,0.773 -0.874,1.083c-0.425,0.311 -1.03,0.554 -1.816,0.73c-0.786,0.176 -1.807,0.264 -3.063,0.264Zm8.679,11.663c-0.922,0 -1.746,-0.072 -2.473,-0.216c-0.726,-0.144 -1.341,-0.401 -1.844,-0.77c-0.504,-0.369 -0.888,-0.886 -1.152,-1.551c-0.264,-0.665 -0.396,-1.518 -0.396,-2.56l0,-2.348c0,-0.968 -0.206,-1.665 -0.619,-2.093c-0.413,-0.427 -1.145,-0.64 -2.195,-0.64l0,-1.618c1.256,-0 2.277,0.088 3.063,0.264c0.786,0.176 1.391,0.419 1.816,0.729c0.424,0.311 0.716,0.672 0.874,1.084c0.158,0.413 0.237,0.855 0.237,1.328l0,3.028c0,0.637 0.073,1.162 0.219,1.576c0.146,0.413 0.413,0.721 0.802,0.922c0.388,0.201 0.944,0.302 1.668,0.302l0,2.563Zm-8.679,-10.178l0,-3.103l2.932,0l0,3.103l-2.932,-0Z" style="fill:#22252a;fill-rule:nonzero;stroke:#22252a;stroke-width:1px;stroke-linecap:butt;stroke-miterlimit:2;"/><path d="M156.669,210.732c-1.329,0 -2.474,-0.314 -3.434,-0.941c-0.961,-0.628 -1.699,-1.493 -2.216,-2.595c-0.517,-1.102 -0.776,-2.36 -0.776,-3.776c0,-1.441 0.266,-2.713 0.799,-3.818c0.532,-1.105 1.277,-1.97 2.234,-2.594c0.957,-0.625 2.076,-0.938 3.356,-0.938c0.998,0 1.896,0.185 2.696,0.554c0.801,0.37 1.456,0.887 1.967,1.551c0.511,0.665 0.828,1.441 0.951,2.327l-2.179,0c-0.166,-0.646 -0.534,-1.22 -1.103,-1.722c-0.57,-0.501 -1.334,-0.752 -2.295,-0.752c-0.849,-0 -1.592,0.22 -2.229,0.66c-0.638,0.44 -1.133,1.059 -1.487,1.856c-0.354,0.797 -0.531,1.731 -0.531,2.802c0,1.096 0.174,2.05 0.522,2.862c0.348,0.813 0.84,1.444 1.477,1.893c0.637,0.449 1.387,0.674 2.248,0.674c0.567,-0 1.081,-0.099 1.542,-0.296c0.462,-0.197 0.853,-0.48 1.173,-0.849c0.32,-0.369 0.548,-0.812 0.683,-1.33l2.179,0c-0.123,0.838 -0.426,1.59 -0.909,2.258c-0.484,0.668 -1.121,1.197 -1.912,1.588c-0.791,0.391 -1.709,0.586 -2.756,0.586Z" style="fill:#22252a;fill-rule:nonzero;stroke:#22252a;stroke-width:1px;stroke-linecap:butt;stroke-miterlimit:2;"/><path d="M172.484,210.732c-1.281,0 -2.403,-0.304 -3.366,-0.914c-0.963,-0.609 -1.714,-1.462 -2.253,-2.557c-0.538,-1.096 -0.808,-2.376 -0.808,-3.841c0,-1.477 0.27,-2.767 0.808,-3.869c0.539,-1.102 1.29,-1.957 2.253,-2.567c0.963,-0.609 2.085,-0.914 3.366,-0.914c1.28,0 2.402,0.305 3.365,0.914c0.963,0.61 1.714,1.465 2.253,2.567c0.538,1.102 0.808,2.392 0.808,3.869c-0,1.465 -0.27,2.745 -0.808,3.841c-0.539,1.095 -1.29,1.948 -2.253,2.557c-0.963,0.61 -2.085,0.914 -3.365,0.914Zm-0,-1.957c0.972,-0 1.772,-0.249 2.4,-0.748c0.628,-0.499 1.093,-1.154 1.394,-1.967c0.302,-0.812 0.453,-1.692 0.453,-2.64c-0,-0.948 -0.151,-1.831 -0.453,-2.65c-0.301,-0.819 -0.766,-1.48 -1.394,-1.985c-0.628,-0.505 -1.428,-0.757 -2.4,-0.757c-0.973,-0 -1.773,0.252 -2.401,0.757c-0.628,0.505 -1.093,1.166 -1.394,1.985c-0.302,0.819 -0.453,1.702 -0.453,2.65c0,0.948 0.151,1.828 0.453,2.64c0.301,0.813 0.766,1.468 1.394,1.967c0.628,0.499 1.428,0.748 2.401,0.748Z" style="fill:#22252a;fill-rule:nonzero;stroke:#22252a;stroke-width:1px;stroke-linecap:butt;stroke-miterlimit:2;"/><rect x="183.534" y="191.528" width="2.179" height="18.909" style="fill:#22252a;fill-rule:nonzero;stroke:#22252a;stroke-width:1px;stroke-linecap:butt;stroke-miterlimit:2;"/><path d="M196.762,210.732c-1.28,0 -2.402,-0.304 -3.365,-0.914c-0.963,-0.609 -1.714,-1.462 -2.253,-2.557c-0.538,-1.096 -0.808,-2.376 -0.808,-3.841c0,-1.477 0.27,-2.767 0.808,-3.869c0.539,-1.102 1.29,-1.957 2.253,-2.567c0.963,-0.609 2.085,-0.914 3.365,-0.914c1.281,0 2.403,0.305 3.366,0.914c0.963,0.61 1.714,1.465 2.253,2.567c0.538,1.102 0.808,2.392 0.808,3.869c-0,1.465 -0.27,2.745 -0.808,3.841c-0.539,1.095 -1.29,1.948 -2.253,2.557c-0.963,0.61 -2.085,0.914 -3.366,0.914Zm0,-1.957c0.973,-0 1.773,-0.249 2.401,-0.748c0.628,-0.499 1.093,-1.154 1.394,-1.967c0.302,-0.812 0.453,-1.692 0.453,-2.64c-0,-0.948 -0.151,-1.831 -0.453,-2.65c-0.301,-0.819 -0.766,-1.48 -1.394,-1.985c-0.628,-0.505 -1.428,-0.757 -2.401,-0.757c-0.972,-0 -1.772,0.252 -2.4,0.757c-0.628,0.505 -1.093,1.166 -1.394,1.985c-0.302,0.819 -0.453,1.702 -0.453,2.65c0,0.948 0.151,1.828 0.453,2.64c0.301,0.813 0.766,1.468 1.394,1.967c0.628,0.499 1.428,0.748 2.4,0.748Z" style="fill:#22252a;fill-rule:nonzero;stroke:#22252a;stroke-width:1px;stroke-linecap:butt;stroke-miterlimit:2;"/><path d="M207.812,210.437l0,-14.182l2.106,0l-0,2.142l0.147,0c0.259,-0.702 0.727,-1.271 1.404,-1.708c0.677,-0.437 1.44,-0.656 2.29,-0.656c0.16,0 0.36,0.004 0.6,0.01c0.24,0.006 0.421,0.015 0.544,0.027l0,2.216c-0.073,-0.018 -0.241,-0.047 -0.503,-0.087c-0.261,-0.04 -0.537,-0.06 -0.826,-0.06c-0.69,-0 -1.304,0.143 -1.842,0.429c-0.539,0.286 -0.963,0.68 -1.274,1.182c-0.311,0.501 -0.467,1.072 -0.467,1.712l0,8.975l-2.179,-0Z" style="fill:#22252a;fill-rule:nonzero;stroke:#22252a;stroke-width:1px;stroke-linecap:butt;stroke-miterlimit:2;"/><path d="M220.377,210.585c-0.456,-0 -0.847,-0.164 -1.173,-0.49c-0.326,-0.326 -0.489,-0.717 -0.489,-1.172c-0,-0.456 0.163,-0.847 0.489,-1.173c0.326,-0.326 0.717,-0.489 1.173,-0.489c0.455,-0 0.846,0.163 1.172,0.489c0.327,0.326 0.49,0.717 0.49,1.173c-0,0.301 -0.076,0.578 -0.227,0.831c-0.15,0.252 -0.35,0.454 -0.6,0.604c-0.249,0.151 -0.528,0.227 -0.835,0.227Zm-0,-10.526c-0.456,-0 -0.847,-0.163 -1.173,-0.489c-0.326,-0.327 -0.489,-0.717 -0.489,-1.173c-0,-0.455 0.163,-0.846 0.489,-1.173c0.326,-0.326 0.717,-0.489 1.173,-0.489c0.455,0 0.846,0.163 1.172,0.489c0.327,0.327 0.49,0.718 0.49,1.173c-0,0.302 -0.076,0.579 -0.227,0.831c-0.15,0.252 -0.35,0.454 -0.6,0.605c-0.249,0.151 -0.528,0.226 -0.835,0.226Z" style="fill:#22252a;fill-rule:nonzero;stroke:#22252a;stroke-width:1px;stroke-linecap:butt;stroke-miterlimit:2;"/><path d="M236.161,210.437l0,-18.909l2.179,-0l0,6.98l0.185,-0c0.16,-0.246 0.383,-0.562 0.669,-0.947c0.287,-0.384 0.699,-0.729 1.238,-1.034c0.538,-0.304 1.269,-0.457 2.192,-0.457c1.195,0 2.247,0.299 3.158,0.896c0.911,0.597 1.622,1.443 2.133,2.539c0.511,1.096 0.766,2.388 0.766,3.878c0,1.502 -0.255,2.802 -0.766,3.901c-0.511,1.099 -1.219,1.948 -2.124,2.548c-0.904,0.6 -1.948,0.9 -3.13,0.9c-0.911,0 -1.64,-0.152 -2.188,-0.457c-0.548,-0.304 -0.969,-0.652 -1.265,-1.043c-0.295,-0.391 -0.523,-0.716 -0.683,-0.974l-0.259,-0l0,2.179l-2.105,-0Zm2.142,-7.091c0,1.071 0.157,2.014 0.471,2.83c0.314,0.815 0.773,1.452 1.376,1.911c0.603,0.459 1.342,0.688 2.216,0.688c0.911,-0 1.673,-0.242 2.285,-0.725c0.613,-0.483 1.074,-1.136 1.385,-1.957c0.311,-0.822 0.466,-1.738 0.466,-2.747c0,-0.997 -0.152,-1.897 -0.457,-2.701c-0.304,-0.803 -0.763,-1.44 -1.375,-1.911c-0.613,-0.471 -1.381,-0.706 -2.304,-0.706c-0.886,-0 -1.631,0.223 -2.234,0.669c-0.604,0.446 -1.059,1.068 -1.367,1.865c-0.308,0.797 -0.462,1.725 -0.462,2.784Z" style="fill:#22252a;fill-rule:nonzero;stroke:#22252a;stroke-width:1px;stroke-linecap:butt;stroke-miterlimit:2;"/><rect x="253.305" y="191.528" width="2.179" height="18.909" style="fill:#22252a;fill-rule:nonzero;stroke:#22252a;stroke-width:1px;stroke-linecap:butt;stroke-miterlimit:2;"/><path d="M269.71,204.639l0,-8.384l2.179,0l0,14.182l-2.179,-0l0,-2.401l-0.148,0c-0.332,0.72 -0.849,1.331 -1.551,1.833c-0.701,0.502 -1.588,0.752 -2.659,0.752c-0.886,0 -1.674,-0.195 -2.363,-0.586c-0.69,-0.391 -1.231,-0.982 -1.625,-1.773c-0.394,-0.79 -0.591,-1.789 -0.591,-2.996l-0,-9.011l2.179,0l-0,8.864c-0,1.034 0.291,1.859 0.872,2.474c0.582,0.616 1.325,0.923 2.23,0.923c0.542,0 1.094,-0.138 1.657,-0.415c0.564,-0.277 1.037,-0.702 1.422,-1.274c0.385,-0.573 0.577,-1.302 0.577,-2.188Z" style="fill:#22252a;fill-rule:nonzero;stroke:#22252a;stroke-width:1px;stroke-linecap:butt;stroke-miterlimit:2;"/><path d="M283.124,210.732c-1.367,0 -2.544,-0.303 -3.532,-0.909c-0.988,-0.606 -1.748,-1.456 -2.28,-2.548c-0.533,-1.093 -0.799,-2.366 -0.799,-3.818c0,-1.453 0.266,-2.735 0.799,-3.846c0.532,-1.111 1.277,-1.979 2.234,-2.603c0.957,-0.625 2.076,-0.938 3.356,-0.938c0.739,0 1.468,0.123 2.188,0.37c0.721,0.246 1.376,0.644 1.967,1.195c0.591,0.551 1.062,1.279 1.413,2.184c0.351,0.905 0.526,2.019 0.526,3.342l0,0.924l-10.932,-0l0,-1.884l8.716,0c0,-0.8 -0.158,-1.514 -0.475,-2.142c-0.317,-0.628 -0.767,-1.123 -1.348,-1.487c-0.582,-0.363 -1.267,-0.544 -2.055,-0.544c-0.868,-0 -1.617,0.214 -2.248,0.641c-0.631,0.428 -1.116,0.984 -1.454,1.667c-0.339,0.683 -0.508,1.416 -0.508,2.197l0,1.256c0,1.071 0.186,1.978 0.559,2.719c0.372,0.742 0.891,1.305 1.555,1.69c0.665,0.385 1.438,0.577 2.318,0.577c0.572,-0 1.091,-0.082 1.556,-0.245c0.464,-0.163 0.866,-0.409 1.205,-0.738c0.338,-0.33 0.6,-0.741 0.784,-1.233l2.105,0.591c-0.221,0.714 -0.594,1.34 -1.117,1.879c-0.523,0.538 -1.169,0.957 -1.939,1.255c-0.769,0.299 -1.634,0.448 -2.594,0.448Z" style="fill:#22252a;fill-rule:nonzero;stroke:#22252a;stroke-width:1px;stroke-linecap:butt;stroke-miterlimit:2;"/><path d="M296.87,207.852l-0.148,0.997c-0.104,0.701 -0.263,1.452 -0.475,2.253c-0.213,0.8 -0.433,1.554 -0.66,2.262c-0.228,0.708 -0.416,1.271 -0.564,1.689l-1.662,0c0.08,-0.394 0.185,-0.914 0.314,-1.56c0.13,-0.646 0.26,-1.368 0.393,-2.165c0.132,-0.797 0.241,-1.611 0.327,-2.442l0.111,-1.034l2.364,-0Zm-1.33,-7.793c-0.455,-0 -0.846,-0.163 -1.172,-0.489c-0.326,-0.327 -0.49,-0.717 -0.49,-1.173c0,-0.455 0.164,-0.846 0.49,-1.173c0.326,-0.326 0.717,-0.489 1.172,-0.489c0.456,0 0.847,0.163 1.173,0.489c0.326,0.327 0.489,0.718 0.489,1.173c0,0.302 -0.075,0.579 -0.226,0.831c-0.151,0.252 -0.351,0.454 -0.6,0.605c-0.249,0.151 -0.528,0.226 -0.836,0.226Z" style="fill:#22252a;fill-rule:nonzero;stroke:#22252a;stroke-width:1px;stroke-linecap:butt;stroke-miterlimit:2;"/><path d="M156.669,246.732c-1.28,0 -2.402,-0.304 -3.365,-0.914c-0.963,-0.609 -1.714,-1.462 -2.253,-2.557c-0.539,-1.096 -0.808,-2.376 -0.808,-3.841c0,-1.477 0.269,-2.767 0.808,-3.869c0.539,-1.102 1.29,-1.957 2.253,-2.567c0.963,-0.609 2.085,-0.914 3.365,-0.914c1.281,0 2.402,0.305 3.366,0.914c0.963,0.61 1.714,1.465 2.253,2.567c0.538,1.102 0.807,2.392 0.807,3.869c0,1.465 -0.269,2.745 -0.807,3.841c-0.539,1.095 -1.29,1.948 -2.253,2.557c-0.964,0.61 -2.085,0.914 -3.366,0.914Zm0,-1.957c0.973,-0 1.773,-0.249 2.401,-0.748c0.628,-0.499 1.092,-1.154 1.394,-1.967c0.302,-0.812 0.452,-1.692 0.452,-2.64c0,-0.948 -0.15,-1.831 -0.452,-2.65c-0.302,-0.819 -0.766,-1.48 -1.394,-1.985c-0.628,-0.505 -1.428,-0.757 -2.401,-0.757c-0.972,-0 -1.772,0.252 -2.4,0.757c-0.628,0.505 -1.093,1.166 -1.394,1.985c-0.302,0.819 -0.453,1.702 -0.453,2.65c0,0.948 0.151,1.828 0.453,2.64c0.301,0.813 0.766,1.468 1.394,1.967c0.628,0.499 1.428,0.748 2.4,0.748Z" style="fill:#22252a;fill-rule:nonzero;stroke:#22252a;stroke-width:1px;stroke-linecap:butt;stroke-miterlimit:2;"/><path d="M176.657,240.639l-0,-8.384l2.179,0l-0,14.182l-2.179,-0l-0,-2.401l-0.148,0c-0.332,0.72 -0.849,1.331 -1.551,1.833c-0.702,0.502 -1.588,0.752 -2.659,0.752c-0.887,0 -1.674,-0.195 -2.364,-0.586c-0.689,-0.391 -1.231,-0.982 -1.625,-1.773c-0.394,-0.79 -0.591,-1.789 -0.591,-2.996l0,-9.011l2.179,0l0,8.864c0,1.034 0.291,1.859 0.873,2.474c0.581,0.616 1.325,0.923 2.23,0.923c0.541,0 1.094,-0.138 1.657,-0.415c0.563,-0.277 1.037,-0.702 1.422,-1.274c0.384,-0.573 0.577,-1.302 0.577,-2.188Z" style="fill:#22252a;fill-rule:nonzero;stroke:#22252a;stroke-width:1px;stroke-linecap:butt;stroke-miterlimit:2;"/><path d="M190.292,232.255l0,1.847l-7.349,-0l-0,-1.847l7.349,0Zm-5.207,-3.398l2.179,0l-0,13.517c-0,0.616 0.09,1.076 0.272,1.381c0.182,0.304 0.415,0.507 0.702,0.609c0.286,0.102 0.589,0.152 0.909,0.152c0.24,0 0.437,-0.013 0.591,-0.041c0.154,-0.028 0.277,-0.051 0.369,-0.069l0.444,1.957c-0.148,0.055 -0.354,0.112 -0.619,0.171c-0.265,0.058 -0.6,0.087 -1.006,0.087c-0.616,0 -1.218,-0.132 -1.805,-0.397c-0.588,-0.264 -1.075,-0.667 -1.459,-1.209c-0.385,-0.542 -0.577,-1.225 -0.577,-2.05l-0,-14.108Z" style="fill:#22252a;fill-rule:nonzero;stroke:#22252a;stroke-width:1px;stroke-linecap:butt;stroke-miterlimit:2;"/><rect x="195.174" y="227.528" width="2.179" height="18.909" style="fill:#22252a;fill-rule:nonzero;stroke:#22252a;stroke-width:1px;stroke-linecap:butt;stroke-miterlimit:2;"/><path d="M202.642,246.437l0,-14.182l2.179,0l0,14.182l-2.179,-0Zm1.108,-16.546c-0.425,0 -0.789,-0.144 -1.094,-0.434c-0.305,-0.289 -0.457,-0.637 -0.457,-1.043c-0,-0.406 0.152,-0.754 0.457,-1.043c0.305,-0.29 0.669,-0.434 1.094,-0.434c0.425,-0 0.789,0.144 1.094,0.434c0.305,0.289 0.457,0.637 0.457,1.043c0,0.406 -0.152,0.754 -0.457,1.043c-0.305,0.29 -0.669,0.434 -1.094,0.434Z" style="fill:#22252a;fill-rule:nonzero;stroke:#22252a;stroke-width:1px;stroke-linecap:butt;stroke-miterlimit:2;"/><path d="M212.289,237.906l-0,8.531l-2.179,-0l-0,-14.182l2.105,0l-0,2.216l0.184,-0c0.333,-0.72 0.838,-1.3 1.515,-1.74c0.677,-0.441 1.551,-0.661 2.622,-0.661c0.96,0 1.8,0.196 2.52,0.587c0.721,0.391 1.281,0.981 1.681,1.772c0.4,0.791 0.6,1.79 0.6,2.996l-0,9.012l-2.179,-0l-0,-8.864c-0,-1.114 -0.289,-1.983 -0.868,-2.608c-0.579,-0.625 -1.373,-0.937 -2.382,-0.937c-0.696,-0 -1.316,0.151 -1.86,0.452c-0.545,0.302 -0.975,0.742 -1.288,1.32c-0.314,0.579 -0.471,1.281 -0.471,2.106Z" style="fill:#22252a;fill-rule:nonzero;stroke:#22252a;stroke-width:1px;stroke-linecap:butt;stroke-miterlimit:2;"/><path d="M232.572,246.732c-1.367,0 -2.544,-0.303 -3.532,-0.909c-0.988,-0.606 -1.748,-1.456 -2.281,-2.548c-0.532,-1.093 -0.798,-2.366 -0.798,-3.818c-0,-1.453 0.266,-2.735 0.798,-3.846c0.533,-1.111 1.278,-1.979 2.235,-2.603c0.957,-0.625 2.076,-0.938 3.356,-0.938c0.739,0 1.468,0.123 2.188,0.37c0.72,0.246 1.376,0.644 1.967,1.195c0.591,0.551 1.062,1.279 1.412,2.184c0.351,0.905 0.527,2.019 0.527,3.342l-0,0.924l-10.932,-0l-0,-1.884l8.716,0c-0,-0.8 -0.159,-1.514 -0.476,-2.142c-0.317,-0.628 -0.766,-1.123 -1.348,-1.487c-0.581,-0.363 -1.266,-0.544 -2.054,-0.544c-0.868,-0 -1.617,0.214 -2.248,0.641c-0.631,0.428 -1.116,0.984 -1.454,1.667c-0.339,0.683 -0.508,1.416 -0.508,2.197l-0,1.256c-0,1.071 0.186,1.978 0.558,2.719c0.373,0.742 0.891,1.305 1.556,1.69c0.665,0.385 1.437,0.577 2.318,0.577c0.572,-0 1.091,-0.082 1.555,-0.245c0.465,-0.163 0.867,-0.409 1.205,-0.738c0.339,-0.33 0.6,-0.741 0.785,-1.233l2.105,0.591c-0.221,0.714 -0.594,1.34 -1.117,1.879c-0.523,0.538 -1.17,0.957 -1.939,1.255c-0.769,0.299 -1.634,0.448 -2.594,0.448Z" style="fill:#22252a;fill-rule:nonzero;stroke:#22252a;stroke-width:1px;stroke-linecap:butt;stroke-miterlimit:2;"/><path d="M244.656,246.585c-0.456,-0 -0.847,-0.164 -1.173,-0.49c-0.326,-0.326 -0.489,-0.717 -0.489,-1.172c-0,-0.456 0.163,-0.847 0.489,-1.173c0.326,-0.326 0.717,-0.489 1.173,-0.489c0.455,-0 0.846,0.163 1.172,0.489c0.326,0.326 0.49,0.717 0.49,1.173c-0,0.301 -0.076,0.578 -0.227,0.831c-0.15,0.252 -0.35,0.454 -0.6,0.604c-0.249,0.151 -0.528,0.227 -0.835,0.227Zm-0,-10.526c-0.456,-0 -0.847,-0.163 -1.173,-0.489c-0.326,-0.327 -0.489,-0.717 -0.489,-1.173c-0,-0.455 0.163,-0.846 0.489,-1.173c0.326,-0.326 0.717,-0.489 1.173,-0.489c0.455,0 0.846,0.163 1.172,0.489c0.326,0.327 0.49,0.718 0.49,1.173c-0,0.302 -0.076,0.579 -0.227,0.831c-0.15,0.252 -0.35,0.454 -0.6,0.605c-0.249,0.151 -0.528,0.226 -0.835,0.226Z" style="fill:#22252a;fill-rule:nonzero;stroke:#22252a;stroke-width:1px;stroke-linecap:butt;stroke-miterlimit:2;"/><path d="M262.324,237.906l-0,8.531l-2.179,-0l-0,-14.182l2.105,0l-0,2.216l0.185,-0c0.332,-0.72 0.837,-1.3 1.514,-1.74c0.677,-0.441 1.551,-0.661 2.622,-0.661c0.96,0 1.8,0.196 2.521,0.587c0.72,0.391 1.28,0.981 1.68,1.772c0.4,0.791 0.6,1.79 0.6,2.996l0,9.012l-2.179,-0l0,-8.864c0,-1.114 -0.289,-1.983 -0.868,-2.608c-0.578,-0.625 -1.372,-0.937 -2.382,-0.937c-0.695,-0 -1.316,0.151 -1.86,0.452c-0.545,0.302 -0.974,0.742 -1.288,1.32c-0.314,0.579 -0.471,1.281 -0.471,2.106Z" style="fill:#22252a;fill-rule:nonzero;stroke:#22252a;stroke-width:1px;stroke-linecap:butt;stroke-miterlimit:2;"/><path d="M282.422,246.732c-1.28,0 -2.402,-0.304 -3.365,-0.914c-0.964,-0.609 -1.715,-1.462 -2.253,-2.557c-0.539,-1.096 -0.808,-2.376 -0.808,-3.841c0,-1.477 0.269,-2.767 0.808,-3.869c0.538,-1.102 1.289,-1.957 2.253,-2.567c0.963,-0.609 2.085,-0.914 3.365,-0.914c1.28,0 2.402,0.305 3.366,0.914c0.963,0.61 1.714,1.465 2.252,2.567c0.539,1.102 0.808,2.392 0.808,3.869c0,1.465 -0.269,2.745 -0.808,3.841c-0.538,1.095 -1.289,1.948 -2.252,2.557c-0.964,0.61 -2.086,0.914 -3.366,0.914Zm0,-1.957c0.973,-0 1.773,-0.249 2.401,-0.748c0.628,-0.499 1.092,-1.154 1.394,-1.967c0.302,-0.812 0.452,-1.692 0.452,-2.64c0,-0.948 -0.15,-1.831 -0.452,-2.65c-0.302,-0.819 -0.766,-1.48 -1.394,-1.985c-0.628,-0.505 -1.428,-0.757 -2.401,-0.757c-0.972,-0 -1.773,0.252 -2.4,0.757c-0.628,0.505 -1.093,1.166 -1.395,1.985c-0.301,0.819 -0.452,1.702 -0.452,2.65c-0,0.948 0.151,1.828 0.452,2.64c0.302,0.813 0.767,1.468 1.395,1.967c0.627,0.499 1.428,0.748 2.4,0.748Z" style="fill:#22252a;fill-rule:nonzero;stroke:#22252a;stroke-width:1px;stroke-linecap:butt;stroke-miterlimit:2;"/><path d="M295.651,237.906l0,8.531l-2.179,-0l0,-14.182l2.105,0l0,2.216l0.185,-0c0.332,-0.72 0.837,-1.3 1.514,-1.74c0.677,-0.441 1.551,-0.661 2.622,-0.661c0.961,0 1.801,0.196 2.521,0.587c0.72,0.391 1.28,0.981 1.68,1.772c0.4,0.791 0.6,1.79 0.6,2.996l0,9.012l-2.179,-0l0,-8.864c0,-1.114 -0.289,-1.983 -0.867,-2.608c-0.579,-0.625 -1.373,-0.937 -2.383,-0.937c-0.695,-0 -1.315,0.151 -1.86,0.452c-0.545,0.302 -0.974,0.742 -1.288,1.32c-0.314,0.579 -0.471,1.281 -0.471,2.106Z" style="fill:#22252a;fill-rule:nonzero;stroke:#22252a;stroke-width:1px;stroke-linecap:butt;stroke-miterlimit:2;"/><path d="M315.934,246.732c-1.366,0 -2.544,-0.303 -3.532,-0.909c-0.987,-0.606 -1.748,-1.456 -2.28,-2.548c-0.532,-1.093 -0.799,-2.366 -0.799,-3.818c0,-1.453 0.267,-2.735 0.799,-3.846c0.532,-1.111 1.277,-1.979 2.234,-2.603c0.957,-0.625 2.076,-0.938 3.356,-0.938c0.739,0 1.469,0.123 2.189,0.37c0.72,0.246 1.375,0.644 1.966,1.195c0.591,0.551 1.062,1.279 1.413,2.184c0.351,0.905 0.526,2.019 0.526,3.342l0,0.924l-10.932,-0l0,-1.884l8.716,0c0,-0.8 -0.158,-1.514 -0.475,-2.142c-0.317,-0.628 -0.766,-1.123 -1.348,-1.487c-0.582,-0.363 -1.267,-0.544 -2.055,-0.544c-0.867,-0 -1.617,0.214 -2.248,0.641c-0.631,0.428 -1.115,0.984 -1.454,1.667c-0.338,0.683 -0.508,1.416 -0.508,2.197l0,1.256c0,1.071 0.186,1.978 0.559,2.719c0.372,0.742 0.891,1.305 1.556,1.69c0.664,0.385 1.437,0.577 2.317,0.577c0.573,-0 1.091,-0.082 1.556,-0.245c0.465,-0.163 0.866,-0.409 1.205,-0.738c0.338,-0.33 0.6,-0.741 0.785,-1.233l2.105,0.591c-0.222,0.714 -0.594,1.34 -1.118,1.879c-0.523,0.538 -1.169,0.957 -1.938,1.255c-0.77,0.299 -1.635,0.448 -2.595,0.448Z" style="fill:#22252a;fill-rule:nonzero;stroke:#22252a;stroke-width:1px;stroke-linecap:butt;stroke-miterlimit:2;"/><path d="M329.68,243.852l-0.148,0.997c-0.104,0.701 -0.263,1.452 -0.475,2.253c-0.212,0.8 -0.433,1.554 -0.66,2.262c-0.228,0.708 -0.416,1.271 -0.563,1.689l-1.662,0c0.08,-0.394 0.184,-0.914 0.314,-1.56c0.129,-0.646 0.26,-1.368 0.392,-2.165c0.132,-0.797 0.242,-1.611 0.328,-2.442l0.11,-1.034l2.364,-0Zm-1.329,-7.793c-0.456,-0 -0.847,-0.163 -1.173,-0.489c-0.326,-0.327 -0.489,-0.717 -0.489,-1.173c-0,-0.455 0.163,-0.846 0.489,-1.173c0.326,-0.326 0.717,-0.489 1.173,-0.489c0.455,0 0.846,0.163 1.172,0.489c0.326,0.327 0.489,0.718 0.489,1.173c0,0.302 -0.075,0.579 -0.226,0.831c-0.151,0.252 -0.351,0.454 -0.6,0.605c-0.249,0.151 -0.528,0.226 -0.835,0.226Z" style="fill:#22252a;fill-rule:nonzero;stroke:#22252a;stroke-width:1px;stroke-linecap:butt;stroke-miterlimit:2;"/><path d="M158.287,274.659l-0,1.618c-1.048,-0 -1.779,0.213 -2.193,0.64c-0.414,0.428 -0.621,1.125 -0.621,2.093l-0,2.348c-0,1.042 -0.132,1.895 -0.396,2.56c-0.264,0.665 -0.648,1.182 -1.152,1.551c-0.503,0.369 -1.118,0.626 -1.843,0.77c-0.725,0.144 -1.549,0.216 -2.474,0.216l-0,-2.563c0.724,-0 1.28,-0.101 1.668,-0.302c0.389,-0.201 0.656,-0.509 0.802,-0.922c0.146,-0.414 0.219,-0.939 0.219,-1.576l-0,-3.028c-0,-0.473 0.079,-0.915 0.237,-1.328c0.158,-0.412 0.449,-0.773 0.874,-1.084c0.425,-0.31 1.03,-0.553 1.816,-0.729c0.786,-0.176 1.807,-0.264 3.063,-0.264Zm-8.679,-11.663c0.925,-0 1.749,0.072 2.474,0.216c0.725,0.144 1.34,0.401 1.843,0.77c0.504,0.369 0.888,0.886 1.152,1.551c0.264,0.665 0.396,1.518 0.396,2.56l-0,2.348c-0,0.968 0.207,1.665 0.621,2.093c0.414,0.427 1.145,0.64 2.193,0.64l-0,1.618c-1.256,-0 -2.277,-0.088 -3.063,-0.264c-0.786,-0.176 -1.391,-0.419 -1.816,-0.73c-0.425,-0.31 -0.716,-0.671 -0.874,-1.083c-0.158,-0.413 -0.237,-0.855 -0.237,-1.328l-0,-3.029c-0,-0.638 -0.073,-1.165 -0.219,-1.579c-0.146,-0.414 -0.413,-0.721 -0.802,-0.921c-0.388,-0.199 -0.944,-0.299 -1.668,-0.299l-0,-2.563Zm8.679,10.178l-0,3.103l-2.933,-0l0,-3.103l2.933,0Z" style="fill:#22252a;fill-rule:nonzero;stroke:#22252a;stroke-width:1px;stroke-linecap:butt;stroke-miterlimit:2;"/></g><path d="M768.809,230.26l-2.889,0.805c-0.28,-0.812 -0.681,-1.549 -1.204,-2.21c-0.523,-0.661 -1.203,-1.188 -2.039,-1.58c-0.836,-0.393 -1.87,-0.589 -3.101,-0.589c-1.839,-0 -3.352,0.439 -4.54,1.316c-1.188,0.878 -1.781,2.01 -1.781,3.395c-0,1.172 0.405,2.121 1.216,2.847c0.811,0.726 2.063,1.3 3.755,1.722l4.12,1.018c2.292,0.56 4.009,1.442 5.152,2.646c1.142,1.203 1.713,2.72 1.713,4.551c0,1.535 -0.427,2.9 -1.281,4.096c-0.855,1.195 -2.041,2.133 -3.56,2.814c-1.52,0.68 -3.283,1.021 -5.291,1.021c-2.664,-0 -4.86,-0.6 -6.588,-1.8c-1.728,-1.199 -2.831,-2.935 -3.308,-5.208l3.03,-0.757c0.387,1.621 1.153,2.848 2.299,3.678c1.146,0.831 2.653,1.246 4.519,1.246c2.091,-0 3.766,-0.472 5.025,-1.415c1.259,-0.943 1.888,-2.12 1.888,-3.533c-0,-1.101 -0.367,-2.028 -1.101,-2.782c-0.734,-0.753 -1.85,-1.31 -3.35,-1.669l-4.451,-1.065c-2.363,-0.568 -4.114,-1.466 -5.252,-2.693c-1.139,-1.227 -1.708,-2.752 -1.708,-4.575c0,-1.504 0.41,-2.828 1.228,-3.974c0.819,-1.147 1.944,-2.045 3.374,-2.696c1.43,-0.651 3.061,-0.977 4.892,-0.977c2.501,0 4.502,0.567 6.001,1.702c1.499,1.134 2.577,2.69 3.232,4.666Z" style="fill:#22252a;fill-rule:nonzero;stroke:#22252a;stroke-width:4.17px;stroke-linecap:butt;stroke-miterlimit:2;"/><path d="M789.869,224.271l0,2.746l-13.021,0l0,-2.746l13.021,-0Zm-8.949,-6.534l3.173,-0l-0,26.681c-0,1.144 0.195,2.038 0.586,2.684c0.39,0.645 0.899,1.1 1.527,1.367c0.627,0.266 1.296,0.399 2.006,0.399c0.422,0 0.78,-0.027 1.074,-0.083c0.294,-0.055 0.552,-0.114 0.773,-0.177l0.686,2.865c-0.308,0.114 -0.688,0.222 -1.142,0.322c-0.454,0.101 -1.012,0.151 -1.675,0.151c-1.16,0 -2.276,-0.254 -3.347,-0.763c-1.071,-0.509 -1.949,-1.267 -2.634,-2.273c-0.684,-1.006 -1.027,-2.251 -1.027,-3.735l0,-27.438Z" style="fill:#22252a;fill-rule:nonzero;stroke:#22252a;stroke-width:4.17px;stroke-linecap:butt;stroke-miterlimit:2;"/><path d="M802.016,261.747c-0.627,0 -1.213,-0.058 -1.757,-0.174c-0.545,-0.117 -0.977,-0.248 -1.297,-0.394l0.853,-2.794c1.606,0.513 2.961,0.518 4.066,0.015c1.105,-0.503 2.03,-1.778 2.776,-3.826l1.006,-2.77l-10.038,-27.533l3.433,-0l8.096,23.106l0.237,-0l8.097,-23.106l3.456,0.047l-11.565,31.534c-0.485,1.31 -1.085,2.403 -1.799,3.279c-0.714,0.876 -1.535,1.531 -2.462,1.965c-0.927,0.434 -1.961,0.651 -3.102,0.651Z" style="fill:#22252a;fill-rule:nonzero;stroke:#22252a;stroke-width:4.17px;stroke-linecap:butt;stroke-miterlimit:2;"/><rect x="830.179" y="215.18" width="3.172" height="36.364" style="fill:#22252a;fill-rule:nonzero;stroke:#22252a;stroke-width:4.17px;stroke-linecap:butt;stroke-miterlimit:2;"/><path d="M855.572,252.112c-2.545,-0 -4.747,-0.596 -6.608,-1.788c-1.86,-1.191 -3.295,-2.842 -4.305,-4.953c-1.011,-2.111 -1.516,-4.544 -1.516,-7.298c0,-2.754 0.506,-5.198 1.518,-7.333c1.012,-2.135 2.416,-3.81 4.211,-5.025c1.796,-1.215 3.871,-1.823 6.227,-1.823c1.475,0 2.901,0.27 4.276,0.811c1.375,0.541 2.609,1.363 3.702,2.468c1.093,1.105 1.958,2.497 2.595,4.176c0.638,1.678 0.956,3.66 0.956,5.945l0,1.562l-21.307,0l0,-2.793l18.087,-0c0,-1.756 -0.353,-3.333 -1.059,-4.732c-0.706,-1.399 -1.685,-2.507 -2.936,-3.323c-1.25,-0.817 -2.689,-1.225 -4.314,-1.225c-1.736,-0 -3.261,0.459 -4.575,1.379c-1.314,0.919 -2.34,2.136 -3.078,3.651c-0.738,1.515 -1.115,3.176 -1.13,4.983l-0,1.658c-0,2.166 0.378,4.057 1.133,5.673c0.756,1.616 1.826,2.869 3.211,3.761c1.385,0.892 3.022,1.337 4.912,1.337c1.294,0 2.43,-0.203 3.406,-0.609c0.977,-0.406 1.798,-0.949 2.463,-1.628c0.664,-0.678 1.17,-1.424 1.518,-2.237l3.006,0.971c-0.418,1.144 -1.097,2.202 -2.036,3.172c-0.939,0.971 -2.111,1.75 -3.515,2.338c-1.405,0.588 -3.019,0.882 -4.842,0.882Z" style="fill:#22252a;fill-rule:nonzero;stroke:#22252a;stroke-width:4.17px;stroke-linecap:butt;stroke-miterlimit:2;"/><path d="M894.483,230.26l-2.888,0.805c-0.28,-0.812 -0.682,-1.549 -1.204,-2.21c-0.523,-0.661 -1.203,-1.188 -2.039,-1.58c-0.837,-0.393 -1.871,-0.589 -3.102,-0.589c-1.838,-0 -3.352,0.439 -4.539,1.316c-1.188,0.878 -1.782,2.01 -1.782,3.395c0,1.172 0.406,2.121 1.217,2.847c0.81,0.726 2.062,1.3 3.755,1.722l4.119,1.018c2.293,0.56 4.01,1.442 5.152,2.646c1.143,1.203 1.714,2.72 1.714,4.551c-0,1.535 -0.427,2.9 -1.282,4.096c-0.854,1.195 -2.041,2.133 -3.56,2.814c-1.519,0.68 -3.283,1.021 -5.291,1.021c-2.663,-0 -4.859,-0.6 -6.587,-1.8c-1.728,-1.199 -2.831,-2.935 -3.309,-5.208l3.031,-0.757c0.386,1.621 1.153,2.848 2.299,3.678c1.146,0.831 2.652,1.246 4.519,1.246c2.091,-0 3.766,-0.472 5.025,-1.415c1.258,-0.943 1.888,-2.12 1.888,-3.533c-0,-1.101 -0.367,-2.028 -1.101,-2.782c-0.734,-0.753 -1.851,-1.31 -3.35,-1.669l-4.451,-1.065c-2.363,-0.568 -4.114,-1.466 -5.253,-2.693c-1.138,-1.227 -1.707,-2.752 -1.707,-4.575c-0,-1.504 0.409,-2.828 1.228,-3.974c0.819,-1.147 1.943,-2.045 3.374,-2.696c1.43,-0.651 3.061,-0.977 4.891,-0.977c2.502,0 4.502,0.567 6.002,1.702c1.499,1.134 2.576,2.69 3.231,4.666Z" style="fill:#22252a;fill-rule:nonzero;stroke:#22252a;stroke-width:4.17px;stroke-linecap:butt;stroke-miterlimit:2;"/><path d="M907.329,251.804c-0.702,0 -1.304,-0.251 -1.805,-0.753c-0.501,-0.502 -0.752,-1.103 -0.752,-1.804c0,-0.701 0.251,-1.302 0.753,-1.804c0.502,-0.502 1.103,-0.753 1.804,-0.753c0.701,0 1.302,0.251 1.804,0.753c0.502,0.502 0.753,1.103 0.753,1.804c-0,0.465 -0.116,0.892 -0.346,1.281c-0.231,0.389 -0.539,0.699 -0.923,0.93c-0.384,0.231 -0.814,0.346 -1.288,0.346Z" style="fill:#22252a;fill-rule:nonzero;stroke:#22252a;stroke-width:4.17px;stroke-linecap:butt;stroke-miterlimit:2;"/><path d="M931.728,252.112c-2.439,-0 -4.561,-0.609 -6.366,-1.826c-1.805,-1.217 -3.204,-2.887 -4.196,-5.01c-0.992,-2.123 -1.489,-4.54 -1.489,-7.25c0,-2.735 0.505,-5.166 1.516,-7.295c1.01,-2.129 2.415,-3.801 4.217,-5.016c1.801,-1.215 3.891,-1.823 6.27,-1.823c1.823,0 3.475,0.354 4.957,1.062c1.482,0.709 2.704,1.699 3.667,2.971c0.962,1.273 1.568,2.754 1.817,4.442l-3.196,0c-0.336,-1.542 -1.132,-2.859 -2.389,-3.95c-1.256,-1.091 -2.859,-1.636 -4.808,-1.636c-1.74,-0 -3.278,0.47 -4.614,1.411c-1.336,0.941 -2.38,2.249 -3.134,3.924c-0.753,1.675 -1.13,3.613 -1.13,5.815c-0,2.209 0.368,4.163 1.104,5.859c0.735,1.697 1.77,3.027 3.104,3.989c1.333,0.963 2.89,1.444 4.67,1.444c1.211,0 2.316,-0.227 3.314,-0.683c0.998,-0.456 1.838,-1.106 2.518,-1.95c0.681,-0.845 1.144,-1.845 1.388,-3.001l3.196,0c-0.244,1.645 -0.83,3.109 -1.758,4.392c-0.927,1.282 -2.128,2.291 -3.604,3.027c-1.476,0.736 -3.16,1.104 -5.054,1.104Z" style="fill:#22252a;fill-rule:nonzero;stroke:#22252a;stroke-width:4.17px;stroke-linecap:butt;stroke-miterlimit:2;"/><path d="M969.81,230.26l-2.888,0.805c-0.28,-0.812 -0.682,-1.549 -1.205,-2.21c-0.523,-0.661 -1.202,-1.188 -2.039,-1.58c-0.836,-0.393 -1.87,-0.589 -3.101,-0.589c-1.839,-0 -3.352,0.439 -4.54,1.316c-1.187,0.878 -1.781,2.01 -1.781,3.395c0,1.172 0.406,2.121 1.216,2.847c0.811,0.726 2.063,1.3 3.756,1.722l4.119,1.018c2.292,0.56 4.01,1.442 5.152,2.646c1.142,1.203 1.714,2.72 1.714,4.551c-0,1.535 -0.428,2.9 -1.282,4.096c-0.854,1.195 -2.041,2.133 -3.56,2.814c-1.519,0.68 -3.283,1.021 -5.291,1.021c-2.663,-0 -4.859,-0.6 -6.587,-1.8c-1.729,-1.199 -2.832,-2.935 -3.309,-5.208l3.03,-0.757c0.387,1.621 1.154,2.848 2.3,3.678c1.146,0.831 2.652,1.246 4.519,1.246c2.091,-0 3.766,-0.472 5.024,-1.415c1.259,-0.943 1.888,-2.12 1.888,-3.533c0,-1.101 -0.367,-2.028 -1.101,-2.782c-0.733,-0.753 -1.85,-1.31 -3.349,-1.669l-4.451,-1.065c-2.364,-0.568 -4.115,-1.466 -5.253,-2.693c-1.138,-1.227 -1.707,-2.752 -1.707,-4.575c-0,-1.504 0.409,-2.828 1.228,-3.974c0.818,-1.147 1.943,-2.045 3.373,-2.696c1.431,-0.651 3.061,-0.977 4.892,-0.977c2.502,0 4.502,0.567 6.001,1.702c1.5,1.134 2.577,2.69 3.232,4.666Z" style="fill:#22252a;fill-rule:nonzero;stroke:#22252a;stroke-width:4.17px;stroke-linecap:butt;stroke-miterlimit:2;"/><path d="M998.446,230.26l-2.888,0.805c-0.28,-0.812 -0.682,-1.549 -1.204,-2.21c-0.523,-0.661 -1.203,-1.188 -2.039,-1.58c-0.837,-0.393 -1.87,-0.589 -3.102,-0.589c-1.838,-0 -3.352,0.439 -4.539,1.316c-1.188,0.878 -1.782,2.01 -1.782,3.395c0,1.172 0.406,2.121 1.217,2.847c0.811,0.726 2.062,1.3 3.755,1.722l4.119,1.018c2.293,0.56 4.01,1.442 5.152,2.646c1.143,1.203 1.714,2.72 1.714,4.551c-0,1.535 -0.427,2.9 -1.281,4.096c-0.855,1.195 -2.042,2.133 -3.561,2.814c-1.519,0.68 -3.282,1.021 -5.291,1.021c-2.663,-0 -4.859,-0.6 -6.587,-1.8c-1.728,-1.199 -2.831,-2.935 -3.309,-5.208l3.031,-0.757c0.386,1.621 1.153,2.848 2.299,3.678c1.146,0.831 2.652,1.246 4.519,1.246c2.091,-0 3.766,-0.472 5.025,-1.415c1.258,-0.943 1.888,-2.12 1.888,-3.533c-0,-1.101 -0.367,-2.028 -1.101,-2.782c-0.734,-0.753 -1.851,-1.31 -3.35,-1.669l-4.451,-1.065c-2.363,-0.568 -4.114,-1.466 -5.253,-2.693c-1.138,-1.227 -1.707,-2.752 -1.707,-4.575c0,-1.504 0.409,-2.828 1.228,-3.974c0.819,-1.147 1.943,-2.045 3.374,-2.696c1.43,-0.651 3.061,-0.977 4.891,-0.977c2.502,0 4.502,0.567 6.002,1.702c1.499,1.134 2.576,2.69 3.231,4.666Z" style="fill:#22252a;fill-rule:nonzero;stroke:#22252a;stroke-width:4.17px;stroke-linecap:butt;stroke-miterlimit:2;"/></g></svg>