<?xml version="1.0" encoding="UTF-8" standalone="no"?><!DOCTYPE svg PUBLIC "-//W3C//DTD SVG 1.1//EN" "http://www.w3.org/Graphics/SVG/1.1/DTD/svg11.dtd"><svg width="100%" height="100%" viewBox="0 0 1749 1241" version="1.1" xmlns="http://www.w3.org/2000/svg" xmlns:xlink="http://www.w3.org/1999/xlink" xml:space="preserve" xmlns:serif="http://www.serif.com/" style="fill-rule:evenodd;clip-rule:evenodd;stroke-linecap:round;stroke-linejoin:round;stroke-miterlimit:1.5;"><rect id="Artboard1" x="0" y="0" width="1748.03" height="1240.16" style="fill:none;"/><clipPath id="_clip1"><rect x="0" y="0" width="1748.03" height="1240.16"/></clipPath><g clip-path="url(#_clip1)"><g><rect x="-0" y="0" width="1748.03" height="1240.16" style="fill:#ada7ff;"/><g><path d="M1390.03,315.175c0,-30.92 -25.103,-56.024 -56.024,-56.024l-919.97,0c-30.921,0 -56.025,25.104 -56.025,56.024l0,448.195c0,30.92 25.104,56.024 56.025,56.024l919.97,0c30.921,0 56.024,-25.104 56.024,-56.024l0,-448.195Z" style="fill:#ebebeb;stroke:#22252a;stroke-width:12.5px;"/><path d="M1064.7,666.355c-0,-6.037 -4.901,-10.939 -10.939,-10.939l-351.168,0c-6.037,0 -10.938,4.902 -10.938,10.939l-0,87.509c-0,6.037 4.901,10.938 10.938,10.938l351.168,0c6.038,0 10.939,-4.901 10.939,-10.938l-0,-87.509Z" style="fill:#22252a;stroke:#22252a;stroke-width:12.5px;"/><path d="M1060.54,666.355c0,-6.037 -4.901,-10.939 -10.938,-10.939l-351.168,0c-6.037,0 -10.939,4.902 -10.939,10.939l0,87.509c0,6.037 4.902,10.938 10.939,10.938l351.168,0c6.037,0 10.938,-4.901 10.938,-10.938l0,-87.509Z" style="fill:#76f5c0;stroke:#22252a;stroke-width:12.5px;"/><g transform="matrix(4.16667,0,0,4.16667,41.6363,158.383)"><text x="106.516px" y="84.88px" style="font-family:'ArialMT', 'Arial', sans-serif;font-size:12px;">This application requests access to</text><text x="106.516px" y="99.88px" style="font-family:'ArialMT', 'Arial', sans-serif;font-size:12px;">your location.</text></g><text x="839.264px" y="719.958px" style="font-family:'Inter-Regular_Bold', 'Inter', sans-serif;font-size:50px;">Ok</text><text x="645.086px" y="412.33px" style="font-family:'Inter-Regular_Bold', 'Inter', sans-serif;font-size:83.333px;fill:#22252a;">Notification</text></g></g></g></svg>