<?xml version="1.0" encoding="UTF-8" standalone="no"?><!DOCTYPE svg PUBLIC "-//W3C//DTD SVG 1.1//EN" "http://www.w3.org/Graphics/SVG/1.1/DTD/svg11.dtd"><svg width="100%" height="100%" viewBox="0 0 7288 5171" version="1.1" xmlns="http://www.w3.org/2000/svg" xmlns:xlink="http://www.w3.org/1999/xlink" xml:space="preserve" xmlns:serif="http://www.serif.com/" style="fill-rule:evenodd;clip-rule:evenodd;stroke-linecap:round;stroke-linejoin:round;stroke-miterlimit:1.5;"><rect id="Artboard1" x="0" y="0" width="7283.46" height="5167.33" style="fill:none;"/><g><rect x="0" y="0" width="7283.46" height="5167.33" style="fill:#ada7ff;"/><g><g><g><g><path d="M4969.74,1472.32c0,-38.55 -31.298,-69.848 -69.848,-69.848l-2923.11,-0c-38.55,-0 -69.848,31.298 -69.848,69.848l-0,558.787c-0,38.55 31.298,69.848 69.848,69.848l2923.11,0c38.55,0 69.848,-31.298 69.848,-69.848l0,-558.787Z" style="fill:#22252a;stroke:#212529;stroke-width:37.5px;"/><path d="M4932.24,1472.32c0,-38.55 -31.298,-69.848 -69.848,-69.848l-2923.11,-0c-38.55,-0 -69.848,31.298 -69.848,69.848l-0,558.787c-0,38.55 31.298,69.848 69.848,69.848l2923.11,0c38.55,0 69.848,-31.298 69.848,-69.848l0,-558.787Z" style="fill:#ff4d6d;stroke:#212529;stroke-width:37.5px;"/></g><text x="2954.38px" y="1859.23px" style="font-family:'Inter-Regular_Bold', 'Inter', sans-serif;font-size:300px;">Delet<tspan x="3697.99px " y="1859.23px ">e</tspan></text><g transform="matrix(4.16667,0,0,4.16667,-1047.2,2340.91)"><text x="530.178px" y="423.164px" style="font-family:'Inter-Regular_Bold', 'Inter', sans-serif;font-size:72px;">&lt;<tspan x="579.793px 622.555px 644.965px 687.318px 706.558px 749.32px 789.116px 828.913px 878.527px 909.733px 956.586px 984.928px 1029.22px 1060.43px " y="423.164px 423.164px 423.164px 423.164px 423.164px 423.164px 423.164px 423.164px 423.164px 423.164px 423.164px 423.164px 423.164px 423.164px ">a class=&quot;btn&quot;</tspan></text><text x="1110.04px" y="423.164px" style="font-family:'Inter-Regular', 'Inter', sans-serif;font-size:72px;">D<tspan x="1163.95px 1208.05px 1227.29px 1271.38px 1299.31px " y="423.164px 423.164px 423.164px 423.164px 423.164px ">elete</tspan></text><text x="1343.4px" y="423.164px" style="font-family:'Inter-Regular_Bold', 'Inter', sans-serif;font-size:72px;">&lt;<tspan x="1393.02px 1420.85px 1463.61px " y="423.164px 423.164px 423.164px ">/a&gt;</tspan></text></g><text x="3157.94px" y="2677.51px" style="font-family:'Inter-Regular_Medium', 'Inter', sans-serif;font-size:200px;">30p<tspan x="3527.55px " y="2677.51px ">x</tspan></text><text x="5385.28px" y="1804.98px" style="font-family:'Inter-Regular_Medium', 'Inter', sans-serif;font-size:200px;">10p<tspan x="5720.51px " y="1804.98px ">x</tspan></text></g><path d="M1919.44,2291.49l-0,100" style="fill:none;stroke:#212529;stroke-width:25px;stroke-linejoin:miter;stroke-miterlimit:10;"/><path d="M4957.24,2291.49l0,100" style="fill:none;stroke:#212529;stroke-width:25px;stroke-linejoin:miter;stroke-miterlimit:10;"/><path d="M1919.44,2341.49l3037.8,0" style="fill:none;stroke:#212529;stroke-width:25px;"/></g><path d="M5178.89,2088.46l100,0" style="fill:none;stroke:#212529;stroke-width:25px;stroke-linejoin:miter;stroke-miterlimit:10;"/><path d="M5178.89,1414.98l100,-0" style="fill:none;stroke:#212529;stroke-width:25px;stroke-linejoin:miter;stroke-miterlimit:10;"/><path d="M5228.89,2088.46l0,-673.483" style="fill:none;stroke:#212529;stroke-width:25px;"/></g></g></svg>