<?xml version="1.0" encoding="UTF-8" standalone="no"?><!DOCTYPE svg PUBLIC "-//W3C//DTD SVG 1.1//EN" "http://www.w3.org/Graphics/SVG/1.1/DTD/svg11.dtd"><svg width="100%" height="100%" viewBox="0 0 7288 5171" version="1.1" xmlns="http://www.w3.org/2000/svg" xmlns:xlink="http://www.w3.org/1999/xlink" xml:space="preserve" xmlns:serif="http://www.serif.com/" style="fill-rule:evenodd;clip-rule:evenodd;stroke-linecap:round;stroke-linejoin:round;stroke-miterlimit:1.5;"><rect id="Artboard1" x="0" y="0" width="7283.46" height="5167.33" style="fill:none;"/><g><rect x="0" y="0" width="7283.46" height="5167.33" style="fill:#ada7ff;"/><g><g><g><g><g><path d="M4765.05,1216.99c0,-38.551 -31.298,-69.849 -69.848,-69.849l-2923.11,0c-38.55,0 -69.848,31.298 -69.848,69.849l-0,558.786c-0,38.551 31.298,69.849 69.848,69.849l2923.11,-0c38.55,-0 69.848,-31.298 69.848,-69.849l0,-558.786Z" style="fill:#22252a;stroke:#212529;stroke-width:37.5px;"/><path d="M4727.55,1216.99c0,-38.551 -31.298,-69.849 -69.848,-69.849l-2923.11,0c-38.55,0 -69.848,31.298 -69.848,69.849l-0,558.786c-0,38.551 31.298,69.849 69.848,69.849l2923.11,-0c38.55,-0 69.848,-31.298 69.848,-69.849l0,-558.786Z" style="fill:#ff4d6d;stroke:#212529;stroke-width:37.5px;"/></g><path d="M2845.99,1603.9l-77.301,0l0,-218.181l77.983,-0c21.932,-0 40.82,4.35 56.666,13.05c15.845,8.7 28.046,21.186 36.604,37.458c8.558,16.271 12.837,35.742 12.837,58.413c-0,22.727 -4.283,42.255 -12.848,58.583c-8.565,16.328 -20.823,28.856 -36.775,37.585c-15.952,8.728 -35.007,13.092 -57.166,13.092Zm-31.193,-39.544l29.232,0c13.694,0 25.204,-2.436 34.529,-7.308c9.325,-4.872 16.356,-12.436 21.093,-22.693c4.738,-10.256 7.107,-23.494 7.107,-39.715c-0,-16.166 -2.376,-29.355 -7.127,-39.568c-4.752,-10.212 -11.769,-17.734 -21.052,-22.564c-9.283,-4.83 -20.742,-7.245 -34.379,-7.245l-29.403,-0l0,139.093Z" style="fill-rule:nonzero;"/><path d="M3057.95,1607.05c-16.789,0 -31.245,-3.412 -43.369,-10.237c-12.124,-6.825 -21.449,-16.541 -27.976,-29.147c-6.527,-12.607 -9.79,-27.546 -9.79,-44.819c-0,-16.847 3.274,-31.627 9.823,-44.34c6.548,-12.713 15.76,-22.621 27.634,-29.723c11.875,-7.102 25.838,-10.654 41.889,-10.654c10.824,0 20.903,1.719 30.235,5.157c9.332,3.437 17.493,8.611 24.481,15.522c6.989,6.911 12.443,15.565 16.364,25.963c3.921,10.397 5.881,22.549 5.881,36.455l-0,12.443l-138.153,-0l-0,-28.125l95.454,-0c-0.043,-6.505 -1.488,-12.283 -4.336,-17.333c-2.847,-5.05 -6.775,-9.02 -11.783,-11.911c-5.007,-2.891 -10.799,-4.336 -17.376,-4.336c-6.861,0 -12.941,1.594 -18.239,4.783c-5.299,3.189 -9.443,7.426 -12.432,12.71c-2.99,5.285 -4.528,11.159 -4.613,17.622l-0,26.76c-0,8.097 1.52,15.094 4.559,20.989c3.04,5.894 7.329,10.433 12.869,13.614c5.54,3.182 12.089,4.773 19.646,4.773c5.071,-0 9.692,-0.717 13.861,-2.152c4.169,-1.434 7.759,-3.561 10.771,-6.381c3.011,-2.82 5.283,-6.282 6.817,-10.387l41.931,2.726c-2.131,10.115 -6.47,18.918 -13.018,26.411c-6.548,7.493 -14.996,13.302 -25.344,17.428c-10.348,4.126 -22.277,6.189 -35.786,6.189Z" style="fill-rule:nonzero;"/><rect x="3158.18" y="1385.72" width="45.34" height="218.182" style="fill-rule:nonzero;"/><path d="M3303.83,1607.05c-16.789,0 -31.245,-3.412 -43.369,-10.237c-12.124,-6.825 -21.449,-16.541 -27.976,-29.147c-6.527,-12.607 -9.791,-27.546 -9.791,-44.819c0,-16.847 3.275,-31.627 9.823,-44.34c6.549,-12.713 15.76,-22.621 27.635,-29.723c11.875,-7.102 25.838,-10.654 41.889,-10.654c10.824,0 20.902,1.719 30.235,5.157c9.332,3.437 17.492,8.611 24.481,15.522c6.988,6.911 12.443,15.565 16.364,25.963c3.92,10.397 5.881,22.549 5.881,36.455l-0,12.443l-138.154,-0l0,-28.125l95.455,-0c-0.043,-6.505 -1.489,-12.283 -4.336,-17.333c-2.848,-5.05 -6.775,-9.02 -11.783,-11.911c-5.008,-2.891 -10.8,-4.336 -17.376,-4.336c-6.861,0 -12.941,1.594 -18.24,4.783c-5.298,3.189 -9.442,7.426 -12.432,12.71c-2.989,5.285 -4.527,11.159 -4.612,17.622l-0,26.76c-0,8.097 1.519,15.094 4.559,20.989c3.04,5.894 7.329,10.433 12.869,13.614c5.54,3.182 12.088,4.773 19.645,4.773c5.072,-0 9.692,-0.717 13.862,-2.152c4.169,-1.434 7.759,-3.561 10.77,-6.381c3.012,-2.82 5.284,-6.282 6.818,-10.387l41.931,2.726c-2.131,10.115 -6.47,18.918 -13.018,26.411c-6.548,7.493 -14.996,13.302 -25.344,17.428c-10.349,4.126 -22.277,6.189 -35.786,6.189Z" style="fill-rule:nonzero;"/><path d="M3491.08,1440.27l0,34.091l-98.609,0l0,-34.091l98.609,0Zm-76.193,-39.204l45.34,-0l0,152.513c0,4.205 0.654,7.469 1.96,9.791c1.307,2.323 3.111,3.942 5.413,4.858c2.301,0.916 4.957,1.375 7.968,1.375c2.174,-0 4.33,-0.192 6.467,-0.576c2.137,-0.383 3.76,-0.702 4.869,-0.958l7.159,33.835c-2.259,0.725 -5.459,1.563 -9.599,2.514c-4.141,0.952 -9.151,1.534 -15.032,1.747c-10.937,0.426 -20.511,-1.026 -28.721,-4.357c-8.211,-3.331 -14.589,-8.526 -19.134,-15.586c-4.546,-7.06 -6.776,-15.924 -6.69,-26.59l-0,-158.566Z" style="fill-rule:nonzero;"/><path d="M3585.93,1607.05c-16.789,0 -31.245,-3.412 -43.369,-10.237c-12.124,-6.825 -21.449,-16.541 -27.976,-29.147c-6.527,-12.607 -9.79,-27.546 -9.79,-44.819c-0,-16.847 3.274,-31.627 9.822,-44.34c6.549,-12.713 15.761,-22.621 27.635,-29.723c11.875,-7.102 25.838,-10.654 41.889,-10.654c10.824,0 20.903,1.719 30.235,5.157c9.332,3.437 17.492,8.611 24.481,15.522c6.989,6.911 12.443,15.565 16.364,25.963c3.92,10.397 5.881,22.549 5.881,36.455l-0,12.443l-138.153,-0l-0,-28.125l95.454,-0c-0.043,-6.505 -1.488,-12.283 -4.336,-17.333c-2.848,-5.05 -6.775,-9.02 -11.783,-11.911c-5.007,-2.891 -10.799,-4.336 -17.376,-4.336c-6.861,0 -12.941,1.594 -18.239,4.783c-5.299,3.189 -9.443,7.426 -12.433,12.71c-2.989,5.285 -4.527,11.159 -4.612,17.622l-0,26.76c-0,8.097 1.52,15.094 4.559,20.989c3.04,5.894 7.329,10.433 12.869,13.614c5.54,3.182 12.088,4.773 19.646,4.773c5.071,-0 9.692,-0.717 13.861,-2.152c4.169,-1.434 7.759,-3.561 10.771,-6.381c3.011,-2.82 5.283,-6.282 6.817,-10.387l41.931,2.726c-2.131,10.115 -6.47,18.918 -13.018,26.411c-6.548,7.493 -14.996,13.302 -25.344,17.428c-10.348,4.126 -22.277,6.189 -35.786,6.189Z" style="fill-rule:nonzero;"/><path d="M3017.91,2424.17c-9.792,0 -18.502,-1.683 -26.129,-5.049c-7.628,-3.367 -13.662,-8.047 -18.104,-14.042c-4.441,-5.994 -6.818,-12.945 -7.13,-20.852l22.272,-0c0.313,4.308 1.774,8.037 4.383,11.186c2.609,3.148 6.044,5.585 10.305,7.308c4.261,1.723 9.005,2.585 14.233,2.585c5.729,0 10.804,-1.001 15.227,-3.004c4.422,-2.003 7.888,-4.789 10.397,-8.359c2.51,-3.57 3.76,-7.699 3.75,-12.386c0.01,-4.868 -1.228,-9.167 -3.714,-12.898c-2.486,-3.731 -6.101,-6.653 -10.845,-8.764c-4.744,-2.112 -10.497,-3.167 -17.259,-3.167l-12.273,-0l0,-17.956l12.273,0c5.407,0 10.164,-0.961 14.269,-2.883c4.105,-1.922 7.32,-4.625 9.645,-8.11c2.325,-3.485 3.483,-7.567 3.473,-12.245c0.01,-4.507 -0.999,-8.437 -3.026,-11.789c-2.026,-3.352 -4.875,-5.966 -8.544,-7.841c-3.67,-1.875 -7.976,-2.813 -12.918,-2.813c-4.735,0 -9.155,0.857 -13.261,2.571c-4.105,1.714 -7.436,4.171 -9.993,7.372c-2.557,3.201 -3.935,7.027 -4.134,11.477l-21.192,0c0.237,-7.879 2.564,-14.801 6.981,-20.767c4.418,-5.966 10.268,-10.625 17.55,-13.977c7.282,-3.352 15.373,-5.028 24.275,-5.028c9.347,-0 17.422,1.813 24.226,5.44c6.805,3.627 12.056,8.445 15.754,14.453c3.698,6.009 5.542,12.578 5.532,19.708c0.019,8.183 -2.252,15.105 -6.811,20.768c-4.56,5.662 -10.642,9.479 -18.247,11.449l0,1.136c9.698,1.468 17.203,5.301 22.515,11.499c5.312,6.198 7.959,13.88 7.941,23.046c0.009,8.031 -2.213,15.214 -6.669,21.549c-4.456,6.335 -10.55,11.316 -18.282,14.943c-7.732,3.627 -16.555,5.44 -26.47,5.44Z" style="fill-rule:nonzero;"/><path d="M3145.12,2424.57c-11.204,-0.009 -20.778,-2.959 -28.722,-8.849c-7.945,-5.891 -14.03,-14.437 -18.253,-25.64c-4.224,-11.202 -6.331,-24.725 -6.321,-40.568c0.009,-15.777 2.133,-29.242 6.371,-40.397c4.237,-11.155 10.336,-19.673 18.295,-25.554c7.959,-5.881 17.502,-8.821 28.63,-8.821c11.126,-0 20.672,2.942 28.636,8.827c7.963,5.886 14.067,14.406 18.309,25.561c4.243,11.156 6.359,24.617 6.349,40.384c0,15.862 -2.111,29.394 -6.335,40.597c-4.223,11.202 -10.305,19.746 -18.245,25.632c-7.941,5.885 -17.512,8.828 -28.714,8.828Zm-0,-18.92c9.847,-0 17.558,-4.804 23.131,-14.411c5.573,-9.606 8.355,-23.515 8.345,-41.726c-0,-12.074 -1.269,-22.287 -3.807,-30.639c-2.538,-8.352 -6.155,-14.69 -10.852,-19.012c-4.697,-4.323 -10.303,-6.485 -16.817,-6.485c-9.773,0 -17.458,4.83 -23.055,14.489c-5.597,9.659 -8.404,23.541 -8.423,41.647c-0.01,12.112 1.245,22.346 3.764,30.703c2.519,8.357 6.13,14.685 10.831,18.985c4.702,4.299 10.329,6.449 16.883,6.449Z" style="fill-rule:nonzero;"/><path d="M3219.78,2463.09l-0,-150l20.738,-0l0,17.67l1.763,0c1.268,-2.253 3.058,-4.874 5.369,-7.862c2.31,-2.988 5.53,-5.606 9.659,-7.855c4.129,-2.249 9.574,-3.374 16.335,-3.374c8.787,0 16.635,2.221 23.544,6.662c6.908,4.441 12.344,10.857 16.307,19.247c3.963,8.391 5.944,18.485 5.944,30.285c0,11.761 -1.962,21.851 -5.888,30.269c-3.925,8.419 -9.322,14.882 -16.193,19.39c-6.87,4.507 -14.718,6.761 -23.543,6.761c-6.629,-0 -12.029,-1.106 -16.201,-3.317c-4.171,-2.211 -7.448,-4.81 -9.83,-7.798c-2.382,-2.988 -4.216,-5.646 -5.503,-7.976l-1.251,-0l-0,57.898l-21.25,-0Zm20.853,-95.455c-0,7.651 1.105,14.373 3.316,20.164c2.211,5.79 5.431,10.308 9.659,13.551c4.229,3.243 9.392,4.865 15.49,4.865c6.326,0 11.626,-1.693 15.902,-5.078c4.276,-3.386 7.505,-7.993 9.688,-13.821c2.182,-5.829 3.273,-12.389 3.273,-19.681c0,-7.216 -1.072,-13.681 -3.217,-19.396c-2.144,-5.715 -5.355,-10.227 -9.63,-13.537c-4.275,-3.309 -9.614,-4.964 -16.016,-4.964c-6.174,-0 -11.375,1.579 -15.604,4.737c-4.228,3.158 -7.428,7.575 -9.601,13.252c-2.174,5.677 -3.26,12.313 -3.26,19.908Z" style="fill-rule:nonzero;"/><path d="M3353.87,2313.09l24.091,42.443l24.261,-42.443l23.239,-0l-34.034,54.545l34.318,54.546l-23.181,-0l-24.603,-40.796l-24.489,40.796l-23.295,-0l33.92,-54.546l-33.523,-54.545l23.296,-0Z" style="fill-rule:nonzero;"/><path d="M5249.74,1404.2l0,145.455l-21.989,0l-0,-123.409l-0.853,0l-34.772,22.671l0,-21.024l36.25,-23.693l21.364,0Z" style="fill-rule:nonzero;"/><path d="M5338.09,1552.04c-11.203,-0.009 -20.777,-2.959 -28.722,-8.849c-7.945,-5.891 -14.029,-14.437 -18.253,-25.639c-4.223,-11.203 -6.33,-24.725 -6.321,-40.569c0.01,-15.776 2.134,-29.242 6.371,-40.397c4.238,-11.155 10.336,-19.673 18.295,-25.554c7.959,-5.881 17.503,-8.821 28.63,-8.821c11.127,-0 20.673,2.942 28.636,8.828c7.964,5.885 14.067,14.405 18.31,25.561c4.242,11.155 6.359,24.616 6.349,40.383c0,15.862 -2.112,29.394 -6.335,40.597c-4.223,11.203 -10.305,19.747 -18.245,25.632c-7.941,5.885 -17.512,8.828 -28.715,8.828Zm0,-18.92c9.848,0 17.558,-4.803 23.132,-14.41c5.573,-9.607 8.354,-23.516 8.345,-41.727c-0,-12.074 -1.269,-22.287 -3.807,-30.639c-2.538,-8.352 -6.156,-14.689 -10.852,-19.012c-4.697,-4.323 -10.303,-6.484 -16.818,-6.484c-9.773,-0 -17.458,4.829 -23.054,14.488c-5.597,9.659 -8.405,23.542 -8.423,41.647c-0.01,12.112 1.245,22.346 3.764,30.703c2.519,8.357 6.129,14.685 10.831,18.985c4.702,4.299 10.329,6.449 16.882,6.449Z" style="fill-rule:nonzero;"/><path d="M5412.75,1590.56l-0,-150l20.738,0l0,17.67l1.762,0c1.269,-2.253 3.059,-4.874 5.369,-7.862c2.311,-2.987 5.53,-5.606 9.659,-7.855c4.129,-2.249 9.574,-3.373 16.336,-3.373c8.787,-0 16.635,2.22 23.544,6.661c6.908,4.441 12.344,10.857 16.307,19.248c3.962,8.39 5.944,18.485 5.944,30.284c-0,11.761 -1.963,21.851 -5.888,30.27c-3.925,8.418 -9.323,14.881 -16.193,19.389c-6.87,4.507 -14.718,6.761 -23.543,6.761c-6.629,-0 -12.029,-1.106 -16.201,-3.317c-4.171,-2.211 -7.448,-4.81 -9.83,-7.798c-2.382,-2.987 -4.216,-5.646 -5.504,-7.976l-1.25,0l-0,57.898l-21.25,0Zm20.852,-95.454c0,7.651 1.106,14.372 3.317,20.163c2.211,5.791 5.431,10.308 9.659,13.551c4.228,3.244 9.392,4.865 15.49,4.865c6.326,0 11.626,-1.692 15.902,-5.078c4.276,-3.385 7.505,-7.992 9.687,-13.821c2.183,-5.829 3.274,-12.389 3.274,-19.68c0,-7.217 -1.072,-13.682 -3.217,-19.397c-2.145,-5.715 -5.355,-10.227 -9.63,-13.536c-4.276,-3.31 -9.614,-4.965 -16.016,-4.965c-6.174,0 -11.376,1.579 -15.604,4.737c-4.228,3.158 -7.428,7.576 -9.602,13.253c-2.173,5.677 -3.26,12.313 -3.26,19.908Z" style="fill-rule:nonzero;"/><path d="M5546.84,1440.56l24.092,42.443l24.261,-42.443l23.238,0l-34.033,54.546l34.317,54.545l-23.181,0l-24.602,-40.796l-24.489,40.796l-23.295,0l33.92,-54.545l-33.523,-54.546l23.295,0Z" style="fill-rule:nonzero;"/><path d="M1714.75,2036.16l-0,100" style="fill:none;stroke:#212529;stroke-width:25px;stroke-linejoin:miter;stroke-miterlimit:10;"/><path d="M4752.55,2036.16l0,100" style="fill:none;stroke:#212529;stroke-width:25px;stroke-linejoin:miter;stroke-miterlimit:10;"/><path d="M1714.75,2086.16l3037.8,-0" style="fill:none;stroke:#212529;stroke-width:25px;"/><path d="M4974.19,1833.13l100,-0" style="fill:none;stroke:#212529;stroke-width:25px;stroke-linejoin:miter;stroke-miterlimit:10;"/><path d="M4974.19,1159.64l100,0" style="fill:none;stroke:#212529;stroke-width:25px;stroke-linejoin:miter;stroke-miterlimit:10;"/><path d="M5024.19,1833.13l0,-673.484" style="fill:none;stroke:#212529;stroke-width:25px;"/></g><g transform="matrix(4.16667,0,0,4.16667,-611.904,1579.38)"><g transform="matrix(72,0,0,72,530.178,423.164)"><path d="M0.09,-0.228l-0,-0.125l0.5,-0.221l-0,0.144l-0.343,0.138l0.005,-0.008l-0,0.018l-0.005,-0.007l0.343,0.137l-0,0.144l-0.5,-0.22Z" style="fill-rule:nonzero;"/></g><g transform="matrix(72,0,0,72,579.793,423.164)"><path d="M0.216,0.01c-0.035,0 -0.066,-0.006 -0.093,-0.018c-0.027,-0.012 -0.049,-0.03 -0.064,-0.054c-0.016,-0.024 -0.024,-0.054 -0.024,-0.09c-0,-0.031 0.005,-0.056 0.016,-0.077c0.012,-0.02 0.027,-0.037 0.046,-0.049c0.019,-0.013 0.041,-0.022 0.065,-0.029c0.025,-0.006 0.051,-0.011 0.078,-0.013c0.031,-0.004 0.057,-0.007 0.076,-0.01c0.02,-0.003 0.034,-0.007 0.043,-0.013c0.008,-0.006 0.013,-0.015 0.013,-0.026l-0,-0.002c-0,-0.023 -0.007,-0.04 -0.021,-0.053c-0.015,-0.012 -0.034,-0.018 -0.06,-0.018c-0.027,-0 -0.049,0.006 -0.065,0.018c-0.016,0.012 -0.027,0.027 -0.032,0.045l-0.14,-0.012c0.007,-0.033 0.021,-0.061 0.042,-0.086c0.021,-0.024 0.048,-0.043 0.081,-0.056c0.033,-0.013 0.071,-0.02 0.114,-0.02c0.031,0 0.06,0.004 0.088,0.011c0.028,0.007 0.052,0.018 0.074,0.033c0.021,0.015 0.039,0.034 0.051,0.057c0.013,0.024 0.019,0.052 0.019,0.084l0,0.368l-0.143,0l-0,-0.076l-0.005,0c-0.009,0.017 -0.02,0.032 -0.035,0.045c-0.014,0.013 -0.032,0.023 -0.053,0.03c-0.02,0.008 -0.044,0.011 -0.071,0.011Zm0.043,-0.104c0.023,-0 0.042,-0.004 0.059,-0.013c0.017,-0.009 0.031,-0.021 0.04,-0.037c0.01,-0.015 0.015,-0.032 0.015,-0.051l-0,-0.058c-0.005,0.003 -0.011,0.006 -0.019,0.008c-0.009,0.003 -0.018,0.005 -0.028,0.007c-0.01,0.002 -0.02,0.004 -0.03,0.005c-0.011,0.002 -0.02,0.003 -0.028,0.005c-0.018,0.002 -0.033,0.006 -0.047,0.012c-0.013,0.006 -0.023,0.013 -0.031,0.023c-0.007,0.01 -0.011,0.021 -0.011,0.036c0,0.02 0.008,0.036 0.023,0.047c0.015,0.011 0.034,0.016 0.057,0.016Z" style="fill-rule:nonzero;"/></g><g transform="matrix(72,0,0,72,644.965,423.164)"><path d="M0.307,0.011c-0.056,-0 -0.104,-0.012 -0.144,-0.036c-0.04,-0.024 -0.071,-0.057 -0.092,-0.099c-0.022,-0.043 -0.033,-0.091 -0.033,-0.147c0,-0.055 0.011,-0.104 0.033,-0.147c0.022,-0.042 0.052,-0.075 0.092,-0.099c0.04,-0.024 0.088,-0.036 0.143,-0.036c0.048,0 0.089,0.009 0.125,0.026c0.036,0.018 0.064,0.042 0.085,0.073c0.021,0.032 0.032,0.068 0.034,0.11l-0.142,0c-0.004,-0.027 -0.015,-0.049 -0.032,-0.066c-0.017,-0.016 -0.04,-0.025 -0.067,-0.025c-0.024,0 -0.044,0.007 -0.062,0.019c-0.017,0.013 -0.031,0.031 -0.04,0.056c-0.01,0.024 -0.015,0.053 -0.015,0.087c0,0.035 0.005,0.065 0.014,0.089c0.01,0.024 0.024,0.043 0.041,0.056c0.018,0.013 0.038,0.019 0.062,0.019c0.017,-0 0.032,-0.004 0.046,-0.011c0.014,-0.007 0.025,-0.017 0.035,-0.031c0.009,-0.013 0.015,-0.03 0.018,-0.049l0.142,-0c-0.002,0.042 -0.013,0.078 -0.034,0.11c-0.02,0.032 -0.048,0.056 -0.083,0.074c-0.036,0.018 -0.078,0.027 -0.126,0.027Z" style="fill-rule:nonzero;"/></g><g transform="matrix(72,0,0,72,687.318,423.164)"><rect x="0.061" y="-0.727" width="0.151" height="0.727" style="fill-rule:nonzero;"/></g><g transform="matrix(72,0,0,72,706.558,423.164)"><path d="M0.216,0.01c-0.035,0 -0.066,-0.006 -0.093,-0.018c-0.027,-0.012 -0.049,-0.03 -0.064,-0.054c-0.016,-0.024 -0.024,-0.054 -0.024,-0.09c-0,-0.031 0.005,-0.056 0.016,-0.077c0.012,-0.02 0.027,-0.037 0.046,-0.049c0.019,-0.013 0.041,-0.022 0.065,-0.029c0.025,-0.006 0.051,-0.011 0.078,-0.013c0.031,-0.004 0.057,-0.007 0.076,-0.01c0.02,-0.003 0.034,-0.007 0.043,-0.013c0.008,-0.006 0.013,-0.015 0.013,-0.026l-0,-0.002c-0,-0.023 -0.007,-0.04 -0.021,-0.053c-0.015,-0.012 -0.034,-0.018 -0.06,-0.018c-0.027,-0 -0.049,0.006 -0.065,0.018c-0.016,0.012 -0.027,0.027 -0.032,0.045l-0.14,-0.012c0.007,-0.033 0.021,-0.061 0.042,-0.086c0.021,-0.024 0.048,-0.043 0.081,-0.056c0.033,-0.013 0.071,-0.02 0.114,-0.02c0.031,0 0.06,0.004 0.088,0.011c0.028,0.007 0.052,0.018 0.074,0.033c0.021,0.015 0.039,0.034 0.051,0.057c0.013,0.024 0.019,0.052 0.019,0.084l0,0.368l-0.143,0l-0,-0.076l-0.005,0c-0.009,0.017 -0.02,0.032 -0.035,0.045c-0.014,0.013 -0.032,0.023 -0.053,0.03c-0.02,0.008 -0.044,0.011 -0.071,0.011Zm0.043,-0.104c0.023,-0 0.042,-0.004 0.059,-0.013c0.017,-0.009 0.031,-0.021 0.04,-0.037c0.01,-0.015 0.015,-0.032 0.015,-0.051l-0,-0.058c-0.005,0.003 -0.011,0.006 -0.019,0.008c-0.009,0.003 -0.018,0.005 -0.028,0.007c-0.01,0.002 -0.02,0.004 -0.03,0.005c-0.011,0.002 -0.02,0.003 -0.028,0.005c-0.018,0.002 -0.033,0.006 -0.047,0.012c-0.013,0.006 -0.023,0.013 -0.031,0.023c-0.007,0.01 -0.011,0.021 -0.011,0.036c0,0.02 0.008,0.036 0.023,0.047c0.015,0.011 0.034,0.016 0.057,0.016Z" style="fill-rule:nonzero;"/></g><g transform="matrix(72,0,0,72,749.32,423.164)"><path d="M0.514,-0.39l-0.138,0.008c-0.003,-0.011 -0.008,-0.022 -0.015,-0.031c-0.008,-0.01 -0.018,-0.018 -0.031,-0.024c-0.013,-0.005 -0.028,-0.008 -0.046,-0.008c-0.023,-0 -0.043,0.005 -0.059,0.015c-0.016,0.009 -0.024,0.022 -0.024,0.039c-0,0.013 0.005,0.024 0.016,0.033c0.01,0.009 0.028,0.016 0.053,0.021l0.099,0.02c0.053,0.011 0.093,0.029 0.119,0.053c0.026,0.024 0.039,0.056 0.039,0.095c-0,0.036 -0.011,0.067 -0.032,0.094c-0.021,0.027 -0.049,0.048 -0.086,0.063c-0.036,0.015 -0.078,0.023 -0.125,0.023c-0.072,-0 -0.13,-0.016 -0.173,-0.046c-0.043,-0.03 -0.067,-0.071 -0.075,-0.123l0.149,-0.008c0.005,0.022 0.015,0.039 0.033,0.05c0.017,0.012 0.039,0.018 0.066,0.018c0.027,-0 0.048,-0.005 0.064,-0.016c0.016,-0.01 0.025,-0.023 0.025,-0.04c-0,-0.014 -0.006,-0.025 -0.017,-0.034c-0.012,-0.009 -0.029,-0.015 -0.053,-0.02l-0.094,-0.019c-0.054,-0.011 -0.093,-0.029 -0.119,-0.055c-0.026,-0.027 -0.039,-0.06 -0.039,-0.101c-0,-0.035 0.009,-0.065 0.028,-0.09c0.019,-0.026 0.046,-0.045 0.081,-0.059c0.035,-0.014 0.075,-0.021 0.122,-0.021c0.069,0 0.123,0.015 0.163,0.044c0.039,0.029 0.063,0.069 0.069,0.119Z" style="fill-rule:nonzero;"/></g><g transform="matrix(72,0,0,72,789.116,423.164)"><path d="M0.514,-0.39l-0.138,0.008c-0.003,-0.011 -0.008,-0.022 -0.015,-0.031c-0.008,-0.01 -0.018,-0.018 -0.031,-0.024c-0.013,-0.005 -0.028,-0.008 -0.046,-0.008c-0.023,-0 -0.043,0.005 -0.059,0.015c-0.016,0.009 -0.024,0.022 -0.024,0.039c-0,0.013 0.005,0.024 0.016,0.033c0.01,0.009 0.028,0.016 0.053,0.021l0.099,0.02c0.053,0.011 0.093,0.029 0.119,0.053c0.026,0.024 0.039,0.056 0.039,0.095c-0,0.036 -0.011,0.067 -0.032,0.094c-0.021,0.027 -0.049,0.048 -0.086,0.063c-0.036,0.015 -0.078,0.023 -0.125,0.023c-0.072,-0 -0.13,-0.016 -0.173,-0.046c-0.043,-0.03 -0.067,-0.071 -0.075,-0.123l0.149,-0.008c0.005,0.022 0.015,0.039 0.033,0.05c0.017,0.012 0.039,0.018 0.066,0.018c0.027,-0 0.048,-0.005 0.064,-0.016c0.016,-0.01 0.025,-0.023 0.025,-0.04c-0,-0.014 -0.006,-0.025 -0.017,-0.034c-0.012,-0.009 -0.029,-0.015 -0.053,-0.02l-0.094,-0.019c-0.054,-0.011 -0.093,-0.029 -0.119,-0.055c-0.026,-0.027 -0.039,-0.06 -0.039,-0.101c-0,-0.035 0.009,-0.065 0.028,-0.09c0.019,-0.026 0.046,-0.045 0.081,-0.059c0.035,-0.014 0.075,-0.021 0.122,-0.021c0.069,0 0.123,0.015 0.163,0.044c0.039,0.029 0.063,0.069 0.069,0.119Z" style="fill-rule:nonzero;"/></g><g transform="matrix(72,0,0,72,828.913,423.164)"><path d="M0.095,-0.346l-0,-0.126l0.49,0l-0,0.126l-0.49,0Zm-0,0.236l-0,-0.126l0.49,-0l-0,0.126l-0.49,0Z" style="fill-rule:nonzero;"/></g><g transform="matrix(72,0,0,72,878.527,423.164)"><path d="M0.158,-0.727l-0,0.276l-0.108,0l-0,-0.276l0.108,-0Zm0.183,-0l0,0.276l-0.108,0l0,-0.276l0.108,-0Z" style="fill-rule:nonzero;"/></g><g transform="matrix(72,0,0,72,909.733,423.164)"><path d="M0.063,-0l0,-0.727l0.151,-0l0,0.273l0.005,0c0.007,-0.015 0.016,-0.03 0.029,-0.045c0.013,-0.015 0.029,-0.028 0.05,-0.038c0.02,-0.01 0.046,-0.016 0.076,-0.016c0.04,0 0.077,0.011 0.11,0.031c0.034,0.021 0.061,0.052 0.081,0.094c0.02,0.041 0.03,0.093 0.03,0.156c0,0.061 -0.01,0.112 -0.029,0.154c-0.02,0.042 -0.046,0.073 -0.08,0.095c-0.033,0.021 -0.071,0.032 -0.112,0.032c-0.029,-0 -0.054,-0.005 -0.075,-0.015c-0.02,-0.01 -0.037,-0.022 -0.05,-0.037c-0.013,-0.014 -0.023,-0.029 -0.03,-0.044l-0.007,-0l0,0.087l-0.149,-0Zm0.148,-0.273c0,0.033 0.005,0.061 0.014,0.085c0.009,0.024 0.022,0.043 0.039,0.056c0.017,0.014 0.038,0.02 0.062,0.02c0.025,0 0.046,-0.006 0.063,-0.02c0.017,-0.014 0.03,-0.033 0.038,-0.057c0.009,-0.024 0.014,-0.052 0.014,-0.084c-0,-0.031 -0.005,-0.059 -0.013,-0.083c-0.009,-0.024 -0.022,-0.043 -0.039,-0.056c-0.017,-0.013 -0.038,-0.02 -0.063,-0.02c-0.025,-0 -0.045,0.006 -0.062,0.019c-0.017,0.014 -0.03,0.032 -0.039,0.056c-0.009,0.024 -0.014,0.052 -0.014,0.084Z" style="fill-rule:nonzero;"/></g><g transform="matrix(72,0,0,72,956.586,423.164)"><path d="M0.351,-0.545l-0,0.113l-0.329,0l-0,-0.113l0.329,-0Zm-0.254,-0.131l0.151,-0l-0,0.508c-0,0.014 0.002,0.025 0.006,0.033c0.005,0.008 0.011,0.013 0.018,0.016c0.008,0.003 0.017,0.005 0.027,0.005c0.007,-0 0.014,-0.001 0.021,-0.002c0.008,-0.002 0.013,-0.003 0.017,-0.003l0.024,0.112c-0.008,0.003 -0.019,0.006 -0.032,0.009c-0.014,0.003 -0.031,0.005 -0.051,0.006c-0.036,0.001 -0.068,-0.004 -0.095,-0.015c-0.028,-0.011 -0.049,-0.028 -0.064,-0.052c-0.015,-0.023 -0.023,-0.053 -0.022,-0.089l-0,-0.528Z" style="fill-rule:nonzero;"/></g><g transform="matrix(72,0,0,72,984.928,423.164)"><path d="M0.212,-0.315l-0,0.315l-0.151,-0l-0,-0.545l0.144,-0l-0,0.096l0.006,-0c0.012,-0.032 0.032,-0.057 0.061,-0.076c0.028,-0.018 0.063,-0.028 0.103,-0.028c0.038,0 0.071,0.009 0.099,0.025c0.028,0.017 0.05,0.041 0.066,0.071c0.015,0.031 0.023,0.067 0.023,0.11l0,0.347l-0.151,-0l-0,-0.32c0,-0.034 -0.008,-0.06 -0.026,-0.079c-0.017,-0.019 -0.041,-0.028 -0.071,-0.028c-0.02,0 -0.038,0.004 -0.054,0.013c-0.015,0.009 -0.027,0.022 -0.036,0.038c-0.009,0.017 -0.013,0.037 -0.013,0.061Z" style="fill-rule:nonzero;"/></g><g transform="matrix(72,0,0,72,1029.22,423.164)"><path d="M0.158,-0.727l-0,0.276l-0.108,0l-0,-0.276l0.108,-0Zm0.183,-0l0,0.276l-0.108,0l0,-0.276l0.108,-0Z" style="fill-rule:nonzero;"/></g><g transform="matrix(72,0,0,72,1060.43,423.164)"><path d="M0.59,-0.297l-0.5,0.221l-0,-0.144l0.342,-0.138l-0.004,0.008l-0,-0.018l0.004,0.008l-0.342,-0.138l-0,-0.144l0.5,0.22l-0,0.125Z" style="fill-rule:nonzero;"/></g><g transform="matrix(72,0,0,72,1110.04,423.164)"><path d="M0.313,-0l-0.225,-0l0,-0.727l0.234,-0c0.071,-0 0.131,0.014 0.182,0.043c0.05,0.029 0.088,0.071 0.115,0.125c0.027,0.054 0.04,0.119 0.04,0.194c0,0.076 -0.013,0.141 -0.04,0.195c-0.027,0.055 -0.067,0.097 -0.118,0.126c-0.052,0.029 -0.115,0.044 -0.189,0.044Zm-0.136,-0.078l0.131,-0c0.06,-0 0.11,-0.012 0.149,-0.035c0.04,-0.023 0.069,-0.056 0.089,-0.099c0.019,-0.043 0.029,-0.094 0.029,-0.153c-0,-0.059 -0.01,-0.109 -0.029,-0.152c-0.019,-0.042 -0.048,-0.075 -0.086,-0.098c-0.038,-0.023 -0.085,-0.034 -0.142,-0.034l-0.141,-0l0,0.571Z" style="fill-rule:nonzero;"/></g><g transform="matrix(72,0,0,72,1163.95,423.164)"><path d="M0.305,0.011c-0.052,0 -0.097,-0.011 -0.135,-0.035c-0.038,-0.023 -0.068,-0.056 -0.088,-0.098c-0.021,-0.042 -0.031,-0.091 -0.031,-0.146c0,-0.056 0.01,-0.106 0.031,-0.148c0.02,-0.043 0.049,-0.076 0.086,-0.101c0.037,-0.024 0.08,-0.036 0.129,-0.036c0.028,0 0.056,0.005 0.084,0.015c0.028,0.009 0.053,0.024 0.076,0.046c0.022,0.021 0.041,0.049 0.054,0.084c0.014,0.034 0.02,0.077 0.02,0.128l0,0.036l-0.42,-0l-0,-0.073l0.335,0c0,-0.031 -0.006,-0.058 -0.018,-0.082c-0.012,-0.024 -0.03,-0.043 -0.052,-0.057c-0.022,-0.014 -0.049,-0.021 -0.079,-0.021c-0.034,-0 -0.062,0.008 -0.087,0.024c-0.024,0.017 -0.043,0.038 -0.056,0.065c-0.013,0.026 -0.019,0.054 -0.019,0.084l-0,0.048c-0,0.042 0.007,0.076 0.021,0.105c0.015,0.028 0.035,0.05 0.06,0.065c0.026,0.015 0.056,0.022 0.089,0.022c0.022,0 0.042,-0.003 0.06,-0.009c0.018,-0.007 0.034,-0.016 0.047,-0.029c0.013,-0.012 0.023,-0.028 0.03,-0.047l0.081,0.023c-0.009,0.027 -0.023,0.051 -0.043,0.072c-0.02,0.021 -0.045,0.037 -0.075,0.048c-0.029,0.012 -0.063,0.017 -0.1,0.017Z" style="fill-rule:nonzero;"/></g><g transform="matrix(72,0,0,72,1208.05,423.164)"><rect x="0.077" y="-0.727" width="0.084" height="0.727" style="fill-rule:nonzero;"/></g><g transform="matrix(72,0,0,72,1227.29,423.164)"><path d="M0.305,0.011c-0.052,0 -0.097,-0.011 -0.135,-0.035c-0.038,-0.023 -0.068,-0.056 -0.088,-0.098c-0.021,-0.042 -0.031,-0.091 -0.031,-0.146c0,-0.056 0.01,-0.106 0.031,-0.148c0.02,-0.043 0.049,-0.076 0.086,-0.101c0.037,-0.024 0.08,-0.036 0.129,-0.036c0.028,0 0.056,0.005 0.084,0.015c0.028,0.009 0.053,0.024 0.076,0.046c0.022,0.021 0.041,0.049 0.054,0.084c0.014,0.034 0.02,0.077 0.02,0.128l0,0.036l-0.42,-0l-0,-0.073l0.335,0c0,-0.031 -0.006,-0.058 -0.018,-0.082c-0.012,-0.024 -0.03,-0.043 -0.052,-0.057c-0.022,-0.014 -0.049,-0.021 -0.079,-0.021c-0.034,-0 -0.062,0.008 -0.087,0.024c-0.024,0.017 -0.043,0.038 -0.056,0.065c-0.013,0.026 -0.019,0.054 -0.019,0.084l-0,0.048c-0,0.042 0.007,0.076 0.021,0.105c0.015,0.028 0.035,0.05 0.06,0.065c0.026,0.015 0.056,0.022 0.089,0.022c0.022,0 0.042,-0.003 0.06,-0.009c0.018,-0.007 0.034,-0.016 0.047,-0.029c0.013,-0.012 0.023,-0.028 0.03,-0.047l0.081,0.023c-0.009,0.027 -0.023,0.051 -0.043,0.072c-0.02,0.021 -0.045,0.037 -0.075,0.048c-0.029,0.012 -0.063,0.017 -0.1,0.017Z" style="fill-rule:nonzero;"/></g><g transform="matrix(72,0,0,72,1271.38,423.164)"><path d="M0.314,-0.545l-0,0.071l-0.283,-0l0,-0.071l0.283,-0Zm-0.2,-0.131l0.083,-0l0,0.52c0,0.023 0.004,0.041 0.011,0.053c0.007,0.012 0.016,0.019 0.027,0.023c0.011,0.004 0.023,0.006 0.035,0.006c0.009,0 0.017,-0 0.023,-0.001c0.006,-0.002 0.01,-0.002 0.014,-0.003l0.017,0.075c-0.006,0.002 -0.014,0.004 -0.024,0.007c-0.01,0.002 -0.023,0.003 -0.039,0.003c-0.023,0 -0.046,-0.005 -0.069,-0.015c-0.023,-0.01 -0.041,-0.026 -0.056,-0.047c-0.015,-0.021 -0.022,-0.047 -0.022,-0.079l-0,-0.542Z" style="fill-rule:nonzero;"/></g><g transform="matrix(72,0,0,72,1299.31,423.164)"><path d="M0.305,0.011c-0.052,0 -0.097,-0.011 -0.135,-0.035c-0.038,-0.023 -0.068,-0.056 -0.088,-0.098c-0.021,-0.042 -0.031,-0.091 -0.031,-0.146c0,-0.056 0.01,-0.106 0.031,-0.148c0.02,-0.043 0.049,-0.076 0.086,-0.101c0.037,-0.024 0.08,-0.036 0.129,-0.036c0.028,0 0.056,0.005 0.084,0.015c0.028,0.009 0.053,0.024 0.076,0.046c0.022,0.021 0.041,0.049 0.054,0.084c0.014,0.034 0.02,0.077 0.02,0.128l0,0.036l-0.42,-0l-0,-0.073l0.335,0c0,-0.031 -0.006,-0.058 -0.018,-0.082c-0.012,-0.024 -0.03,-0.043 -0.052,-0.057c-0.022,-0.014 -0.049,-0.021 -0.079,-0.021c-0.034,-0 -0.062,0.008 -0.087,0.024c-0.024,0.017 -0.043,0.038 -0.056,0.065c-0.013,0.026 -0.019,0.054 -0.019,0.084l-0,0.048c-0,0.042 0.007,0.076 0.021,0.105c0.015,0.028 0.035,0.05 0.06,0.065c0.026,0.015 0.056,0.022 0.089,0.022c0.022,0 0.042,-0.003 0.06,-0.009c0.018,-0.007 0.034,-0.016 0.047,-0.029c0.013,-0.012 0.023,-0.028 0.03,-0.047l0.081,0.023c-0.009,0.027 -0.023,0.051 -0.043,0.072c-0.02,0.021 -0.045,0.037 -0.075,0.048c-0.029,0.012 -0.063,0.017 -0.1,0.017Z" style="fill-rule:nonzero;"/></g><g transform="matrix(72,0,0,72,1343.4,423.164)"><path d="M0.09,-0.228l-0,-0.125l0.5,-0.221l-0,0.144l-0.343,0.138l0.005,-0.008l-0,0.018l-0.005,-0.007l0.343,0.137l-0,0.144l-0.5,-0.22Z" style="fill-rule:nonzero;"/></g><g transform="matrix(72,0,0,72,1393.02,423.164)"><path d="M0.377,-0.761l-0.234,0.87l-0.13,0l0.234,-0.87l0.13,-0Z" style="fill-rule:nonzero;"/></g><g transform="matrix(72,0,0,72,1420.85,423.164)"><path d="M0.216,0.01c-0.035,0 -0.066,-0.006 -0.093,-0.018c-0.027,-0.012 -0.049,-0.03 -0.064,-0.054c-0.016,-0.024 -0.024,-0.054 -0.024,-0.09c-0,-0.031 0.005,-0.056 0.016,-0.077c0.012,-0.02 0.027,-0.037 0.046,-0.049c0.019,-0.013 0.041,-0.022 0.065,-0.029c0.025,-0.006 0.051,-0.011 0.078,-0.013c0.031,-0.004 0.057,-0.007 0.076,-0.01c0.02,-0.003 0.034,-0.007 0.043,-0.013c0.008,-0.006 0.013,-0.015 0.013,-0.026l-0,-0.002c-0,-0.023 -0.007,-0.04 -0.021,-0.053c-0.015,-0.012 -0.034,-0.018 -0.06,-0.018c-0.027,-0 -0.049,0.006 -0.065,0.018c-0.016,0.012 -0.027,0.027 -0.032,0.045l-0.14,-0.012c0.007,-0.033 0.021,-0.061 0.042,-0.086c0.021,-0.024 0.048,-0.043 0.081,-0.056c0.033,-0.013 0.071,-0.02 0.114,-0.02c0.031,0 0.06,0.004 0.088,0.011c0.028,0.007 0.052,0.018 0.074,0.033c0.021,0.015 0.039,0.034 0.051,0.057c0.013,0.024 0.019,0.052 0.019,0.084l0,0.368l-0.143,0l-0,-0.076l-0.005,0c-0.009,0.017 -0.02,0.032 -0.035,0.045c-0.014,0.013 -0.032,0.023 -0.053,0.03c-0.02,0.008 -0.044,0.011 -0.071,0.011Zm0.043,-0.104c0.023,-0 0.042,-0.004 0.059,-0.013c0.017,-0.009 0.031,-0.021 0.04,-0.037c0.01,-0.015 0.015,-0.032 0.015,-0.051l-0,-0.058c-0.005,0.003 -0.011,0.006 -0.019,0.008c-0.009,0.003 -0.018,0.005 -0.028,0.007c-0.01,0.002 -0.02,0.004 -0.03,0.005c-0.011,0.002 -0.02,0.003 -0.028,0.005c-0.018,0.002 -0.033,0.006 -0.047,0.012c-0.013,0.006 -0.023,0.013 -0.031,0.023c-0.007,0.01 -0.011,0.021 -0.011,0.036c0,0.02 0.008,0.036 0.023,0.047c0.015,0.011 0.034,0.016 0.057,0.016Z" style="fill-rule:nonzero;"/></g><g transform="matrix(72,0,0,72,1463.61,423.164)"><path d="M0.59,-0.228l-0.5,0.22l-0,-0.144l0.342,-0.137l-0.004,0.007l-0,-0.018l0.004,0.008l-0.342,-0.138l-0,-0.144l0.5,0.221l-0,0.125Z" style="fill-rule:nonzero;"/></g></g></g></g></g></g></svg>