<?xml version="1.0" encoding="UTF-8" standalone="no"?><!DOCTYPE svg PUBLIC "-//W3C//DTD SVG 1.1//EN" "http://www.w3.org/Graphics/SVG/1.1/DTD/svg11.dtd"><svg width="100%" height="100%" viewBox="0 0 1749 1241" version="1.1" xmlns="http://www.w3.org/2000/svg" xmlns:xlink="http://www.w3.org/1999/xlink" xml:space="preserve" xmlns:serif="http://www.serif.com/" style="fill-rule:evenodd;clip-rule:evenodd;stroke-linecap:round;stroke-linejoin:round;stroke-miterlimit:1.5;"><rect id="Artboard1" x="0" y="0" width="1748.03" height="1240.16" style="fill:none;"/><clipPath id="_clip1"><rect x="0" y="0" width="1748.03" height="1240.16"/></clipPath><g clip-path="url(#_clip1)"><g><rect x="-0" y="0" width="1748.03" height="1240.16" style="fill:#ada7ff;"/><g><path d="M1390.03,315.175c0,-30.92 -25.103,-56.024 -56.024,-56.024l-919.97,0c-30.921,0 -56.025,25.104 -56.025,56.024l0,448.195c0,30.92 25.104,56.024 56.025,56.024l919.97,0c30.921,0 56.024,-25.104 56.024,-56.024l0,-448.195Z" style="fill:#fff;stroke:#22252a;stroke-width:12.5px;"/><path d="M1064.7,666.355c-0,-6.037 -4.901,-10.939 -10.939,-10.939l-351.168,0c-6.037,0 -10.938,4.902 -10.938,10.939l-0,87.509c-0,6.037 4.901,10.938 10.938,10.938l351.168,0c6.038,0 10.939,-4.901 10.939,-10.938l-0,-87.509Z" style="fill:#22252a;stroke:#22252a;stroke-width:12.5px;"/><path d="M1060.54,666.355c0,-6.037 -4.901,-10.939 -10.938,-10.939l-351.168,0c-6.037,0 -10.939,4.902 -10.939,10.939l0,87.509c0,6.037 4.902,10.938 10.939,10.938l351.168,0c6.037,0 10.938,-4.901 10.938,-10.938l0,-87.509Z" style="fill:#76f5c0;stroke:#22252a;stroke-width:12.5px;"/><g transform="matrix(4.16667,0,0,4.16667,41.6363,158.383)"><g transform="matrix(12,0,0,12,106.516,84.8803)"><path d="M0.259,-0l0,-0.631l-0.236,-0l0,-0.085l0.568,0l-0,0.085l-0.237,-0l0,0.631l-0.095,-0Z" style="fill-rule:nonzero;"/></g><g transform="matrix(12,0,0,12,113.846,84.8803)"><path d="M0.066,-0l-0,-0.716l0.088,0l-0,0.257c0.041,-0.048 0.093,-0.071 0.155,-0.071c0.038,-0 0.072,0.007 0.1,0.022c0.028,0.016 0.049,0.036 0.061,0.063c0.012,0.027 0.018,0.066 0.018,0.116l0,0.329l-0.088,-0l0,-0.329c0,-0.044 -0.009,-0.076 -0.028,-0.096c-0.019,-0.02 -0.046,-0.03 -0.081,-0.03c-0.026,0 -0.051,0.007 -0.073,0.021c-0.023,0.013 -0.04,0.031 -0.05,0.055c-0.009,0.023 -0.014,0.055 -0.014,0.095l-0,0.284l-0.088,-0Z" style="fill-rule:nonzero;"/></g><g transform="matrix(12,0,0,12,120.52,84.8803)"><path d="M0.066,-0.615l0,-0.101l0.088,0l0,0.101l-0.088,0Zm0,0.615l0,-0.519l0.088,0l0,0.519l-0.088,-0Z" style="fill-rule:nonzero;"/></g><g transform="matrix(12,0,0,12,123.186,84.8803)"><path d="M0.031,-0.155l0.087,-0.013c0.005,0.034 0.018,0.061 0.04,0.08c0.023,0.018 0.054,0.027 0.094,0.027c0.04,0 0.07,-0.008 0.09,-0.024c0.019,-0.017 0.029,-0.036 0.029,-0.058c0,-0.02 -0.009,-0.036 -0.026,-0.047c-0.012,-0.008 -0.042,-0.018 -0.09,-0.03c-0.064,-0.016 -0.109,-0.03 -0.134,-0.042c-0.025,-0.012 -0.043,-0.028 -0.056,-0.049c-0.013,-0.021 -0.02,-0.044 -0.02,-0.07c0,-0.023 0.006,-0.044 0.016,-0.064c0.011,-0.02 0.025,-0.036 0.043,-0.049c0.014,-0.01 0.033,-0.019 0.056,-0.026c0.024,-0.007 0.049,-0.01 0.076,-0.01c0.041,-0 0.077,0.006 0.108,0.017c0.03,0.012 0.053,0.028 0.068,0.048c0.014,0.02 0.024,0.047 0.03,0.08l-0.086,0.012c-0.004,-0.027 -0.015,-0.048 -0.034,-0.063c-0.019,-0.015 -0.045,-0.022 -0.079,-0.022c-0.041,-0 -0.069,0.007 -0.087,0.02c-0.017,0.013 -0.026,0.029 -0.026,0.047c0,0.011 0.004,0.022 0.011,0.031c0.007,0.009 0.019,0.017 0.034,0.023c0.009,0.003 0.034,0.011 0.077,0.023c0.063,0.016 0.106,0.03 0.131,0.04c0.024,0.011 0.043,0.026 0.057,0.046c0.014,0.021 0.021,0.046 0.021,0.076c0,0.029 -0.008,0.057 -0.025,0.082c-0.017,0.026 -0.042,0.046 -0.074,0.06c-0.032,0.015 -0.069,0.022 -0.11,0.022c-0.067,-0 -0.118,-0.014 -0.154,-0.042c-0.035,-0.028 -0.057,-0.07 -0.067,-0.125Z" style="fill-rule:nonzero;"/></g><g transform="matrix(12,0,0,12,132.52,84.8803)"><path d="M0.404,-0.064c-0.032,0.028 -0.064,0.047 -0.094,0.059c-0.03,0.011 -0.062,0.017 -0.097,0.017c-0.057,-0 -0.1,-0.014 -0.131,-0.042c-0.031,-0.028 -0.046,-0.063 -0.046,-0.107c0,-0.025 0.006,-0.048 0.017,-0.069c0.012,-0.021 0.027,-0.038 0.046,-0.051c0.019,-0.013 0.04,-0.022 0.063,-0.029c0.017,-0.004 0.043,-0.009 0.078,-0.013c0.071,-0.008 0.123,-0.018 0.157,-0.03c0,-0.012 0,-0.02 0,-0.023c0,-0.036 -0.008,-0.061 -0.024,-0.076c-0.023,-0.02 -0.056,-0.03 -0.101,-0.03c-0.041,0 -0.071,0.008 -0.091,0.022c-0.02,0.015 -0.034,0.04 -0.044,0.077l-0.086,-0.012c0.008,-0.036 0.021,-0.066 0.039,-0.089c0.018,-0.022 0.044,-0.04 0.077,-0.052c0.034,-0.012 0.074,-0.018 0.118,-0.018c0.044,-0 0.08,0.005 0.108,0.015c0.028,0.011 0.048,0.024 0.061,0.04c0.013,0.015 0.022,0.035 0.027,0.059c0.003,0.015 0.005,0.042 0.005,0.082l-0,0.117c-0,0.081 0.002,0.133 0.005,0.155c0.004,0.021 0.012,0.042 0.023,0.062l-0.092,0c-0.009,-0.018 -0.015,-0.04 -0.018,-0.064Zm-0.007,-0.196c-0.032,0.013 -0.08,0.024 -0.144,0.033c-0.036,0.005 -0.061,0.011 -0.076,0.018c-0.015,0.006 -0.027,0.016 -0.035,0.028c-0.008,0.013 -0.012,0.027 -0.012,0.042c-0,0.023 0.009,0.043 0.026,0.058c0.018,0.016 0.044,0.024 0.078,0.024c0.034,-0 0.064,-0.008 0.091,-0.022c0.026,-0.015 0.045,-0.035 0.058,-0.061c0.009,-0.02 0.014,-0.049 0.014,-0.088l-0,-0.032Z" style="fill-rule:nonzero;"/></g><g transform="matrix(12,0,0,12,139.194,84.8803)"><path d="M0.066,0.199l-0,-0.718l0.08,0l-0,0.068c0.019,-0.027 0.04,-0.046 0.064,-0.059c0.024,-0.014 0.053,-0.02 0.086,-0.02c0.045,-0 0.084,0.011 0.118,0.034c0.033,0.023 0.059,0.055 0.076,0.096c0.017,0.042 0.026,0.087 0.026,0.137c0,0.053 -0.009,0.101 -0.028,0.143c-0.019,0.043 -0.047,0.075 -0.083,0.098c-0.037,0.022 -0.075,0.034 -0.115,0.034c-0.029,-0 -0.056,-0.006 -0.079,-0.019c-0.023,-0.012 -0.042,-0.028 -0.057,-0.047l-0,0.253l-0.088,-0Zm0.08,-0.455c-0,0.066 0.013,0.116 0.04,0.148c0.027,0.032 0.06,0.047 0.098,0.047c0.039,0 0.073,-0.016 0.101,-0.049c0.027,-0.033 0.041,-0.084 0.041,-0.154c0,-0.066 -0.013,-0.115 -0.041,-0.148c-0.027,-0.033 -0.059,-0.049 -0.097,-0.049c-0.037,-0 -0.07,0.017 -0.099,0.052c-0.029,0.035 -0.043,0.086 -0.043,0.153Z" style="fill-rule:nonzero;"/></g><g transform="matrix(12,0,0,12,145.868,84.8803)"><path d="M0.066,0.199l-0,-0.718l0.08,0l-0,0.068c0.019,-0.027 0.04,-0.046 0.064,-0.059c0.024,-0.014 0.053,-0.02 0.086,-0.02c0.045,-0 0.084,0.011 0.118,0.034c0.033,0.023 0.059,0.055 0.076,0.096c0.017,0.042 0.026,0.087 0.026,0.137c0,0.053 -0.009,0.101 -0.028,0.143c-0.019,0.043 -0.047,0.075 -0.083,0.098c-0.037,0.022 -0.075,0.034 -0.115,0.034c-0.029,-0 -0.056,-0.006 -0.079,-0.019c-0.023,-0.012 -0.042,-0.028 -0.057,-0.047l-0,0.253l-0.088,-0Zm0.08,-0.455c-0,0.066 0.013,0.116 0.04,0.148c0.027,0.032 0.06,0.047 0.098,0.047c0.039,0 0.073,-0.016 0.101,-0.049c0.027,-0.033 0.041,-0.084 0.041,-0.154c0,-0.066 -0.013,-0.115 -0.041,-0.148c-0.027,-0.033 -0.059,-0.049 -0.097,-0.049c-0.037,-0 -0.07,0.017 -0.099,0.052c-0.029,0.035 -0.043,0.086 -0.043,0.153Z" style="fill-rule:nonzero;"/></g><g transform="matrix(12,0,0,12,152.542,84.8803)"><rect x="0.064" y="-0.716" width="0.088" height="0.716" style="fill-rule:nonzero;"/></g><g transform="matrix(12,0,0,12,155.208,84.8803)"><path d="M0.066,-0.615l0,-0.101l0.088,0l0,0.101l-0.088,0Zm0,0.615l0,-0.519l0.088,0l0,0.519l-0.088,-0Z" style="fill-rule:nonzero;"/></g><g transform="matrix(12,0,0,12,157.874,84.8803)"><path d="M0.404,-0.19l0.087,0.011c-0.01,0.06 -0.034,0.106 -0.073,0.14c-0.039,0.034 -0.086,0.051 -0.143,0.051c-0.071,-0 -0.128,-0.023 -0.171,-0.07c-0.043,-0.046 -0.065,-0.113 -0.065,-0.199c0,-0.056 0.009,-0.105 0.028,-0.147c0.018,-0.042 0.047,-0.074 0.085,-0.095c0.038,-0.021 0.079,-0.031 0.123,-0.031c0.057,-0 0.103,0.014 0.139,0.042c0.035,0.029 0.058,0.069 0.068,0.122l-0.085,0.013c-0.008,-0.035 -0.023,-0.061 -0.043,-0.079c-0.021,-0.017 -0.046,-0.026 -0.075,-0.026c-0.044,-0 -0.08,0.016 -0.108,0.048c-0.028,0.031 -0.042,0.082 -0.042,0.15c0,0.07 0.014,0.121 0.04,0.152c0.027,0.032 0.062,0.047 0.105,0.047c0.034,0 0.063,-0.01 0.086,-0.031c0.023,-0.021 0.038,-0.054 0.044,-0.098Z" style="fill-rule:nonzero;"/></g><g transform="matrix(12,0,0,12,163.874,84.8803)"><path d="M0.404,-0.064c-0.032,0.028 -0.064,0.047 -0.094,0.059c-0.03,0.011 -0.062,0.017 -0.097,0.017c-0.057,-0 -0.1,-0.014 -0.131,-0.042c-0.031,-0.028 -0.046,-0.063 -0.046,-0.107c0,-0.025 0.006,-0.048 0.017,-0.069c0.012,-0.021 0.027,-0.038 0.046,-0.051c0.019,-0.013 0.04,-0.022 0.063,-0.029c0.017,-0.004 0.043,-0.009 0.078,-0.013c0.071,-0.008 0.123,-0.018 0.157,-0.03c0,-0.012 0,-0.02 0,-0.023c0,-0.036 -0.008,-0.061 -0.024,-0.076c-0.023,-0.02 -0.056,-0.03 -0.101,-0.03c-0.041,0 -0.071,0.008 -0.091,0.022c-0.02,0.015 -0.034,0.04 -0.044,0.077l-0.086,-0.012c0.008,-0.036 0.021,-0.066 0.039,-0.089c0.018,-0.022 0.044,-0.04 0.077,-0.052c0.034,-0.012 0.074,-0.018 0.118,-0.018c0.044,-0 0.08,0.005 0.108,0.015c0.028,0.011 0.048,0.024 0.061,0.04c0.013,0.015 0.022,0.035 0.027,0.059c0.003,0.015 0.005,0.042 0.005,0.082l-0,0.117c-0,0.081 0.002,0.133 0.005,0.155c0.004,0.021 0.012,0.042 0.023,0.062l-0.092,0c-0.009,-0.018 -0.015,-0.04 -0.018,-0.064Zm-0.007,-0.196c-0.032,0.013 -0.08,0.024 -0.144,0.033c-0.036,0.005 -0.061,0.011 -0.076,0.018c-0.015,0.006 -0.027,0.016 -0.035,0.028c-0.008,0.013 -0.012,0.027 -0.012,0.042c-0,0.023 0.009,0.043 0.026,0.058c0.018,0.016 0.044,0.024 0.078,0.024c0.034,-0 0.064,-0.008 0.091,-0.022c0.026,-0.015 0.045,-0.035 0.058,-0.061c0.009,-0.02 0.014,-0.049 0.014,-0.088l-0,-0.032Z" style="fill-rule:nonzero;"/></g><g transform="matrix(12,0,0,12,170.547,84.8803)"><path d="M0.258,-0.079l0.013,0.078c-0.025,0.005 -0.047,0.008 -0.067,0.008c-0.032,-0 -0.057,-0.005 -0.074,-0.015c-0.018,-0.01 -0.03,-0.024 -0.037,-0.04c-0.007,-0.017 -0.011,-0.051 -0.011,-0.104l0,-0.298l-0.064,-0l-0,-0.069l0.064,0l0,-0.128l0.087,-0.053l0,0.181l0.089,0l-0,0.069l-0.089,-0l0,0.303c0,0.025 0.002,0.041 0.005,0.048c0.003,0.008 0.008,0.013 0.015,0.017c0.007,0.005 0.017,0.007 0.03,0.007c0.01,-0 0.023,-0.001 0.039,-0.004Z" style="fill-rule:nonzero;"/></g><g transform="matrix(12,0,0,12,173.881,84.8803)"><path d="M0.066,-0.615l0,-0.101l0.088,0l0,0.101l-0.088,0Zm0,0.615l0,-0.519l0.088,0l0,0.519l-0.088,-0Z" style="fill-rule:nonzero;"/></g><g transform="matrix(12,0,0,12,176.547,84.8803)"><path d="M0.033,-0.259c0,-0.096 0.027,-0.167 0.08,-0.214c0.045,-0.038 0.099,-0.057 0.163,-0.057c0.072,-0 0.13,0.023 0.175,0.07c0.045,0.047 0.068,0.111 0.068,0.193c0,0.067 -0.01,0.12 -0.03,0.158c-0.02,0.038 -0.049,0.068 -0.087,0.089c-0.039,0.021 -0.08,0.032 -0.126,0.032c-0.072,-0 -0.131,-0.024 -0.176,-0.07c-0.044,-0.047 -0.067,-0.114 -0.067,-0.201Zm0.091,-0c-0,0.066 0.014,0.116 0.043,0.149c0.029,0.033 0.065,0.049 0.109,0.049c0.044,0 0.08,-0.016 0.109,-0.049c0.029,-0.034 0.044,-0.084 0.044,-0.152c-0,-0.064 -0.015,-0.113 -0.044,-0.146c-0.029,-0.033 -0.065,-0.05 -0.109,-0.05c-0.044,0 -0.08,0.017 -0.109,0.05c-0.029,0.033 -0.043,0.082 -0.043,0.149Z" style="fill-rule:nonzero;"/></g><g transform="matrix(12,0,0,12,183.221,84.8803)"><path d="M0.066,-0l-0,-0.519l0.079,0l0,0.074c0.038,-0.057 0.093,-0.085 0.165,-0.085c0.031,-0 0.06,0.005 0.086,0.017c0.026,0.011 0.046,0.026 0.059,0.044c0.013,0.018 0.022,0.04 0.027,0.065c0.004,0.016 0.005,0.044 0.005,0.085l0,0.319l-0.088,-0l0,-0.315c0,-0.036 -0.003,-0.063 -0.01,-0.081c-0.007,-0.017 -0.019,-0.032 -0.036,-0.042c-0.018,-0.011 -0.038,-0.016 -0.061,-0.016c-0.038,-0 -0.07,0.012 -0.097,0.036c-0.028,0.023 -0.041,0.068 -0.041,0.135l-0,0.283l-0.088,-0Z" style="fill-rule:nonzero;"/></g><g transform="matrix(12,0,0,12,193.229,84.8803)"><path d="M0.065,-0l-0,-0.519l0.079,0l0,0.079c0.02,-0.037 0.039,-0.061 0.056,-0.073c0.017,-0.011 0.036,-0.017 0.056,-0.017c0.03,-0 0.06,0.009 0.091,0.028l-0.031,0.082c-0.021,-0.013 -0.043,-0.019 -0.064,-0.019c-0.019,-0 -0.037,0.005 -0.052,0.017c-0.015,0.011 -0.026,0.027 -0.033,0.048c-0.009,0.031 -0.014,0.065 -0.014,0.103l-0,0.271l-0.088,-0Z" style="fill-rule:nonzero;"/></g><g transform="matrix(12,0,0,12,197.225,84.8803)"><path d="M0.421,-0.167l0.091,0.011c-0.015,0.053 -0.041,0.094 -0.08,0.124c-0.039,0.029 -0.088,0.044 -0.148,0.044c-0.076,-0 -0.136,-0.024 -0.181,-0.07c-0.044,-0.047 -0.066,-0.113 -0.066,-0.197c-0,-0.087 0.022,-0.155 0.067,-0.203c0.045,-0.048 0.103,-0.072 0.175,-0.072c0.069,-0 0.126,0.023 0.17,0.071c0.044,0.047 0.066,0.113 0.066,0.199c-0,0.005 -0.001,0.013 -0.001,0.023l-0.387,0c0.004,0.057 0.02,0.101 0.049,0.131c0.029,0.03 0.065,0.045 0.108,0.045c0.032,0 0.06,-0.008 0.083,-0.025c0.022,-0.017 0.041,-0.044 0.054,-0.081Zm-0.289,-0.142l0.29,-0c-0.004,-0.044 -0.015,-0.076 -0.033,-0.098c-0.028,-0.034 -0.065,-0.051 -0.109,-0.051c-0.041,-0 -0.075,0.014 -0.102,0.041c-0.028,0.027 -0.043,0.063 -0.046,0.108Z" style="fill-rule:nonzero;"/></g><g transform="matrix(12,0,0,12,203.899,84.8803)"><path d="M0.396,0.199l0,-0.254c-0.013,0.019 -0.032,0.035 -0.057,0.048c-0.024,0.012 -0.051,0.019 -0.078,0.019c-0.062,-0 -0.115,-0.025 -0.159,-0.074c-0.045,-0.049 -0.067,-0.117 -0.067,-0.202c0,-0.052 0.009,-0.099 0.027,-0.14c0.018,-0.042 0.045,-0.073 0.079,-0.094c0.034,-0.022 0.072,-0.032 0.113,-0.032c0.064,-0 0.114,0.027 0.151,0.081l0,-0.07l0.079,0l0,0.718l-0.088,-0Zm-0.271,-0.46c0,0.067 0.014,0.117 0.042,0.15c0.028,0.034 0.062,0.05 0.101,0.05c0.038,0 0.07,-0.015 0.097,-0.047c0.027,-0.032 0.04,-0.08 0.04,-0.145c0,-0.069 -0.014,-0.121 -0.042,-0.156c-0.029,-0.035 -0.062,-0.052 -0.101,-0.052c-0.038,0 -0.07,0.016 -0.097,0.049c-0.026,0.032 -0.04,0.083 -0.04,0.151Z" style="fill-rule:nonzero;"/></g><g transform="matrix(12,0,0,12,210.573,84.8803)"><path d="M0.406,-0l-0,-0.076c-0.041,0.058 -0.095,0.088 -0.165,0.088c-0.03,-0 -0.059,-0.006 -0.085,-0.018c-0.027,-0.012 -0.047,-0.026 -0.06,-0.044c-0.012,-0.018 -0.021,-0.04 -0.027,-0.065c-0.003,-0.017 -0.005,-0.045 -0.005,-0.082l-0,-0.322l0.088,0l-0,0.288c-0,0.046 0.002,0.077 0.005,0.093c0.006,0.023 0.017,0.041 0.035,0.054c0.018,0.013 0.04,0.02 0.067,0.02c0.026,0 0.051,-0.007 0.074,-0.02c0.023,-0.014 0.039,-0.032 0.049,-0.055c0.01,-0.024 0.014,-0.057 0.014,-0.102l0,-0.278l0.088,0l0,0.519l-0.078,-0Z" style="fill-rule:nonzero;"/></g><g transform="matrix(12,0,0,12,217.247,84.8803)"><path d="M0.421,-0.167l0.091,0.011c-0.015,0.053 -0.041,0.094 -0.08,0.124c-0.039,0.029 -0.088,0.044 -0.148,0.044c-0.076,-0 -0.136,-0.024 -0.181,-0.07c-0.044,-0.047 -0.066,-0.113 -0.066,-0.197c-0,-0.087 0.022,-0.155 0.067,-0.203c0.045,-0.048 0.103,-0.072 0.175,-0.072c0.069,-0 0.126,0.023 0.17,0.071c0.044,0.047 0.066,0.113 0.066,0.199c-0,0.005 -0.001,0.013 -0.001,0.023l-0.387,0c0.004,0.057 0.02,0.101 0.049,0.131c0.029,0.03 0.065,0.045 0.108,0.045c0.032,0 0.06,-0.008 0.083,-0.025c0.022,-0.017 0.041,-0.044 0.054,-0.081Zm-0.289,-0.142l0.29,-0c-0.004,-0.044 -0.015,-0.076 -0.033,-0.098c-0.028,-0.034 -0.065,-0.051 -0.109,-0.051c-0.041,-0 -0.075,0.014 -0.102,0.041c-0.028,0.027 -0.043,0.063 -0.046,0.108Z" style="fill-rule:nonzero;"/></g><g transform="matrix(12,0,0,12,223.92,84.8803)"><path d="M0.031,-0.155l0.087,-0.013c0.005,0.034 0.018,0.061 0.04,0.08c0.023,0.018 0.054,0.027 0.094,0.027c0.04,0 0.07,-0.008 0.09,-0.024c0.019,-0.017 0.029,-0.036 0.029,-0.058c0,-0.02 -0.009,-0.036 -0.026,-0.047c-0.012,-0.008 -0.042,-0.018 -0.09,-0.03c-0.064,-0.016 -0.109,-0.03 -0.134,-0.042c-0.025,-0.012 -0.043,-0.028 -0.056,-0.049c-0.013,-0.021 -0.02,-0.044 -0.02,-0.07c0,-0.023 0.006,-0.044 0.016,-0.064c0.011,-0.02 0.025,-0.036 0.043,-0.049c0.014,-0.01 0.033,-0.019 0.056,-0.026c0.024,-0.007 0.049,-0.01 0.076,-0.01c0.041,-0 0.077,0.006 0.108,0.017c0.03,0.012 0.053,0.028 0.068,0.048c0.014,0.02 0.024,0.047 0.03,0.08l-0.086,0.012c-0.004,-0.027 -0.015,-0.048 -0.034,-0.063c-0.019,-0.015 -0.045,-0.022 -0.079,-0.022c-0.041,-0 -0.069,0.007 -0.087,0.02c-0.017,0.013 -0.026,0.029 -0.026,0.047c0,0.011 0.004,0.022 0.011,0.031c0.007,0.009 0.019,0.017 0.034,0.023c0.009,0.003 0.034,0.011 0.077,0.023c0.063,0.016 0.106,0.03 0.131,0.04c0.024,0.011 0.043,0.026 0.057,0.046c0.014,0.021 0.021,0.046 0.021,0.076c0,0.029 -0.008,0.057 -0.025,0.082c-0.017,0.026 -0.042,0.046 -0.074,0.06c-0.032,0.015 -0.069,0.022 -0.11,0.022c-0.067,-0 -0.118,-0.014 -0.154,-0.042c-0.035,-0.028 -0.057,-0.07 -0.067,-0.125Z" style="fill-rule:nonzero;"/></g><g transform="matrix(12,0,0,12,229.92,84.8803)"><path d="M0.258,-0.079l0.013,0.078c-0.025,0.005 -0.047,0.008 -0.067,0.008c-0.032,-0 -0.057,-0.005 -0.074,-0.015c-0.018,-0.01 -0.03,-0.024 -0.037,-0.04c-0.007,-0.017 -0.011,-0.051 -0.011,-0.104l0,-0.298l-0.064,-0l-0,-0.069l0.064,0l0,-0.128l0.087,-0.053l0,0.181l0.089,0l-0,0.069l-0.089,-0l0,0.303c0,0.025 0.002,0.041 0.005,0.048c0.003,0.008 0.008,0.013 0.015,0.017c0.007,0.005 0.017,0.007 0.03,0.007c0.01,-0 0.023,-0.001 0.039,-0.004Z" style="fill-rule:nonzero;"/></g><g transform="matrix(12,0,0,12,233.254,84.8803)"><path d="M0.031,-0.155l0.087,-0.013c0.005,0.034 0.018,0.061 0.04,0.08c0.023,0.018 0.054,0.027 0.094,0.027c0.04,0 0.07,-0.008 0.09,-0.024c0.019,-0.017 0.029,-0.036 0.029,-0.058c0,-0.02 -0.009,-0.036 -0.026,-0.047c-0.012,-0.008 -0.042,-0.018 -0.09,-0.03c-0.064,-0.016 -0.109,-0.03 -0.134,-0.042c-0.025,-0.012 -0.043,-0.028 -0.056,-0.049c-0.013,-0.021 -0.02,-0.044 -0.02,-0.07c0,-0.023 0.006,-0.044 0.016,-0.064c0.011,-0.02 0.025,-0.036 0.043,-0.049c0.014,-0.01 0.033,-0.019 0.056,-0.026c0.024,-0.007 0.049,-0.01 0.076,-0.01c0.041,-0 0.077,0.006 0.108,0.017c0.03,0.012 0.053,0.028 0.068,0.048c0.014,0.02 0.024,0.047 0.03,0.08l-0.086,0.012c-0.004,-0.027 -0.015,-0.048 -0.034,-0.063c-0.019,-0.015 -0.045,-0.022 -0.079,-0.022c-0.041,-0 -0.069,0.007 -0.087,0.02c-0.017,0.013 -0.026,0.029 -0.026,0.047c0,0.011 0.004,0.022 0.011,0.031c0.007,0.009 0.019,0.017 0.034,0.023c0.009,0.003 0.034,0.011 0.077,0.023c0.063,0.016 0.106,0.03 0.131,0.04c0.024,0.011 0.043,0.026 0.057,0.046c0.014,0.021 0.021,0.046 0.021,0.076c0,0.029 -0.008,0.057 -0.025,0.082c-0.017,0.026 -0.042,0.046 -0.074,0.06c-0.032,0.015 -0.069,0.022 -0.11,0.022c-0.067,-0 -0.118,-0.014 -0.154,-0.042c-0.035,-0.028 -0.057,-0.07 -0.067,-0.125Z" style="fill-rule:nonzero;"/></g><g transform="matrix(12,0,0,12,242.588,84.8803)"><path d="M0.404,-0.064c-0.032,0.028 -0.064,0.047 -0.094,0.059c-0.03,0.011 -0.062,0.017 -0.097,0.017c-0.057,-0 -0.1,-0.014 -0.131,-0.042c-0.031,-0.028 -0.046,-0.063 -0.046,-0.107c0,-0.025 0.006,-0.048 0.017,-0.069c0.012,-0.021 0.027,-0.038 0.046,-0.051c0.019,-0.013 0.04,-0.022 0.063,-0.029c0.017,-0.004 0.043,-0.009 0.078,-0.013c0.071,-0.008 0.123,-0.018 0.157,-0.03c0,-0.012 0,-0.02 0,-0.023c0,-0.036 -0.008,-0.061 -0.024,-0.076c-0.023,-0.02 -0.056,-0.03 -0.101,-0.03c-0.041,0 -0.071,0.008 -0.091,0.022c-0.02,0.015 -0.034,0.04 -0.044,0.077l-0.086,-0.012c0.008,-0.036 0.021,-0.066 0.039,-0.089c0.018,-0.022 0.044,-0.04 0.077,-0.052c0.034,-0.012 0.074,-0.018 0.118,-0.018c0.044,-0 0.08,0.005 0.108,0.015c0.028,0.011 0.048,0.024 0.061,0.04c0.013,0.015 0.022,0.035 0.027,0.059c0.003,0.015 0.005,0.042 0.005,0.082l-0,0.117c-0,0.081 0.002,0.133 0.005,0.155c0.004,0.021 0.012,0.042 0.023,0.062l-0.092,0c-0.009,-0.018 -0.015,-0.04 -0.018,-0.064Zm-0.007,-0.196c-0.032,0.013 -0.08,0.024 -0.144,0.033c-0.036,0.005 -0.061,0.011 -0.076,0.018c-0.015,0.006 -0.027,0.016 -0.035,0.028c-0.008,0.013 -0.012,0.027 -0.012,0.042c-0,0.023 0.009,0.043 0.026,0.058c0.018,0.016 0.044,0.024 0.078,0.024c0.034,-0 0.064,-0.008 0.091,-0.022c0.026,-0.015 0.045,-0.035 0.058,-0.061c0.009,-0.02 0.014,-0.049 0.014,-0.088l-0,-0.032Z" style="fill-rule:nonzero;"/></g><g transform="matrix(12,0,0,12,249.262,84.8803)"><path d="M0.404,-0.19l0.087,0.011c-0.01,0.06 -0.034,0.106 -0.073,0.14c-0.039,0.034 -0.086,0.051 -0.143,0.051c-0.071,-0 -0.128,-0.023 -0.171,-0.07c-0.043,-0.046 -0.065,-0.113 -0.065,-0.199c0,-0.056 0.009,-0.105 0.028,-0.147c0.018,-0.042 0.047,-0.074 0.085,-0.095c0.038,-0.021 0.079,-0.031 0.123,-0.031c0.057,-0 0.103,0.014 0.139,0.042c0.035,0.029 0.058,0.069 0.068,0.122l-0.085,0.013c-0.008,-0.035 -0.023,-0.061 -0.043,-0.079c-0.021,-0.017 -0.046,-0.026 -0.075,-0.026c-0.044,-0 -0.08,0.016 -0.108,0.048c-0.028,0.031 -0.042,0.082 -0.042,0.15c0,0.07 0.014,0.121 0.04,0.152c0.027,0.032 0.062,0.047 0.105,0.047c0.034,0 0.063,-0.01 0.086,-0.031c0.023,-0.021 0.038,-0.054 0.044,-0.098Z" style="fill-rule:nonzero;"/></g><g transform="matrix(12,0,0,12,255.262,84.8803)"><path d="M0.404,-0.19l0.087,0.011c-0.01,0.06 -0.034,0.106 -0.073,0.14c-0.039,0.034 -0.086,0.051 -0.143,0.051c-0.071,-0 -0.128,-0.023 -0.171,-0.07c-0.043,-0.046 -0.065,-0.113 -0.065,-0.199c0,-0.056 0.009,-0.105 0.028,-0.147c0.018,-0.042 0.047,-0.074 0.085,-0.095c0.038,-0.021 0.079,-0.031 0.123,-0.031c0.057,-0 0.103,0.014 0.139,0.042c0.035,0.029 0.058,0.069 0.068,0.122l-0.085,0.013c-0.008,-0.035 -0.023,-0.061 -0.043,-0.079c-0.021,-0.017 -0.046,-0.026 -0.075,-0.026c-0.044,-0 -0.08,0.016 -0.108,0.048c-0.028,0.031 -0.042,0.082 -0.042,0.15c0,0.07 0.014,0.121 0.04,0.152c0.027,0.032 0.062,0.047 0.105,0.047c0.034,0 0.063,-0.01 0.086,-0.031c0.023,-0.021 0.038,-0.054 0.044,-0.098Z" style="fill-rule:nonzero;"/></g><g transform="matrix(12,0,0,12,261.262,84.8803)"><path d="M0.421,-0.167l0.091,0.011c-0.015,0.053 -0.041,0.094 -0.08,0.124c-0.039,0.029 -0.088,0.044 -0.148,0.044c-0.076,-0 -0.136,-0.024 -0.181,-0.07c-0.044,-0.047 -0.066,-0.113 -0.066,-0.197c-0,-0.087 0.022,-0.155 0.067,-0.203c0.045,-0.048 0.103,-0.072 0.175,-0.072c0.069,-0 0.126,0.023 0.17,0.071c0.044,0.047 0.066,0.113 0.066,0.199c-0,0.005 -0.001,0.013 -0.001,0.023l-0.387,0c0.004,0.057 0.02,0.101 0.049,0.131c0.029,0.03 0.065,0.045 0.108,0.045c0.032,0 0.06,-0.008 0.083,-0.025c0.022,-0.017 0.041,-0.044 0.054,-0.081Zm-0.289,-0.142l0.29,-0c-0.004,-0.044 -0.015,-0.076 -0.033,-0.098c-0.028,-0.034 -0.065,-0.051 -0.109,-0.051c-0.041,-0 -0.075,0.014 -0.102,0.041c-0.028,0.027 -0.043,0.063 -0.046,0.108Z" style="fill-rule:nonzero;"/></g><g transform="matrix(12,0,0,12,267.936,84.8803)"><path d="M0.031,-0.155l0.087,-0.013c0.005,0.034 0.018,0.061 0.04,0.08c0.023,0.018 0.054,0.027 0.094,0.027c0.04,0 0.07,-0.008 0.09,-0.024c0.019,-0.017 0.029,-0.036 0.029,-0.058c0,-0.02 -0.009,-0.036 -0.026,-0.047c-0.012,-0.008 -0.042,-0.018 -0.09,-0.03c-0.064,-0.016 -0.109,-0.03 -0.134,-0.042c-0.025,-0.012 -0.043,-0.028 -0.056,-0.049c-0.013,-0.021 -0.02,-0.044 -0.02,-0.07c0,-0.023 0.006,-0.044 0.016,-0.064c0.011,-0.02 0.025,-0.036 0.043,-0.049c0.014,-0.01 0.033,-0.019 0.056,-0.026c0.024,-0.007 0.049,-0.01 0.076,-0.01c0.041,-0 0.077,0.006 0.108,0.017c0.03,0.012 0.053,0.028 0.068,0.048c0.014,0.02 0.024,0.047 0.03,0.08l-0.086,0.012c-0.004,-0.027 -0.015,-0.048 -0.034,-0.063c-0.019,-0.015 -0.045,-0.022 -0.079,-0.022c-0.041,-0 -0.069,0.007 -0.087,0.02c-0.017,0.013 -0.026,0.029 -0.026,0.047c0,0.011 0.004,0.022 0.011,0.031c0.007,0.009 0.019,0.017 0.034,0.023c0.009,0.003 0.034,0.011 0.077,0.023c0.063,0.016 0.106,0.03 0.131,0.04c0.024,0.011 0.043,0.026 0.057,0.046c0.014,0.021 0.021,0.046 0.021,0.076c0,0.029 -0.008,0.057 -0.025,0.082c-0.017,0.026 -0.042,0.046 -0.074,0.06c-0.032,0.015 -0.069,0.022 -0.11,0.022c-0.067,-0 -0.118,-0.014 -0.154,-0.042c-0.035,-0.028 -0.057,-0.07 -0.067,-0.125Z" style="fill-rule:nonzero;"/></g><g transform="matrix(12,0,0,12,273.936,84.8803)"><path d="M0.031,-0.155l0.087,-0.013c0.005,0.034 0.018,0.061 0.04,0.08c0.023,0.018 0.054,0.027 0.094,0.027c0.04,0 0.07,-0.008 0.09,-0.024c0.019,-0.017 0.029,-0.036 0.029,-0.058c0,-0.02 -0.009,-0.036 -0.026,-0.047c-0.012,-0.008 -0.042,-0.018 -0.09,-0.03c-0.064,-0.016 -0.109,-0.03 -0.134,-0.042c-0.025,-0.012 -0.043,-0.028 -0.056,-0.049c-0.013,-0.021 -0.02,-0.044 -0.02,-0.07c0,-0.023 0.006,-0.044 0.016,-0.064c0.011,-0.02 0.025,-0.036 0.043,-0.049c0.014,-0.01 0.033,-0.019 0.056,-0.026c0.024,-0.007 0.049,-0.01 0.076,-0.01c0.041,-0 0.077,0.006 0.108,0.017c0.03,0.012 0.053,0.028 0.068,0.048c0.014,0.02 0.024,0.047 0.03,0.08l-0.086,0.012c-0.004,-0.027 -0.015,-0.048 -0.034,-0.063c-0.019,-0.015 -0.045,-0.022 -0.079,-0.022c-0.041,-0 -0.069,0.007 -0.087,0.02c-0.017,0.013 -0.026,0.029 -0.026,0.047c0,0.011 0.004,0.022 0.011,0.031c0.007,0.009 0.019,0.017 0.034,0.023c0.009,0.003 0.034,0.011 0.077,0.023c0.063,0.016 0.106,0.03 0.131,0.04c0.024,0.011 0.043,0.026 0.057,0.046c0.014,0.021 0.021,0.046 0.021,0.076c0,0.029 -0.008,0.057 -0.025,0.082c-0.017,0.026 -0.042,0.046 -0.074,0.06c-0.032,0.015 -0.069,0.022 -0.11,0.022c-0.067,-0 -0.118,-0.014 -0.154,-0.042c-0.035,-0.028 -0.057,-0.07 -0.067,-0.125Z" style="fill-rule:nonzero;"/></g><g transform="matrix(12,0,0,12,283.27,84.8803)"><path d="M0.258,-0.079l0.013,0.078c-0.025,0.005 -0.047,0.008 -0.067,0.008c-0.032,-0 -0.057,-0.005 -0.074,-0.015c-0.018,-0.01 -0.03,-0.024 -0.037,-0.04c-0.007,-0.017 -0.011,-0.051 -0.011,-0.104l0,-0.298l-0.064,-0l-0,-0.069l0.064,0l0,-0.128l0.087,-0.053l0,0.181l0.089,0l-0,0.069l-0.089,-0l0,0.303c0,0.025 0.002,0.041 0.005,0.048c0.003,0.008 0.008,0.013 0.015,0.017c0.007,0.005 0.017,0.007 0.03,0.007c0.01,-0 0.023,-0.001 0.039,-0.004Z" style="fill-rule:nonzero;"/></g><g transform="matrix(12,0,0,12,286.604,84.8803)"><path d="M0.033,-0.259c0,-0.096 0.027,-0.167 0.08,-0.214c0.045,-0.038 0.099,-0.057 0.163,-0.057c0.072,-0 0.13,0.023 0.175,0.07c0.045,0.047 0.068,0.111 0.068,0.193c0,0.067 -0.01,0.12 -0.03,0.158c-0.02,0.038 -0.049,0.068 -0.087,0.089c-0.039,0.021 -0.08,0.032 -0.126,0.032c-0.072,-0 -0.131,-0.024 -0.176,-0.07c-0.044,-0.047 -0.067,-0.114 -0.067,-0.201Zm0.091,-0c-0,0.066 0.014,0.116 0.043,0.149c0.029,0.033 0.065,0.049 0.109,0.049c0.044,0 0.08,-0.016 0.109,-0.049c0.029,-0.034 0.044,-0.084 0.044,-0.152c-0,-0.064 -0.015,-0.113 -0.044,-0.146c-0.029,-0.033 -0.065,-0.05 -0.109,-0.05c-0.044,0 -0.08,0.017 -0.109,0.05c-0.029,0.033 -0.043,0.082 -0.043,0.149Z" style="fill-rule:nonzero;"/></g><g transform="matrix(12,0,0,12,106.516,99.8803)"><path d="M0.062,0.2l-0.01,-0.083c0.019,0.005 0.036,0.008 0.051,0.008c0.019,0 0.035,-0.003 0.046,-0.01c0.012,-0.006 0.022,-0.015 0.029,-0.027c0.006,-0.009 0.015,-0.031 0.027,-0.066c0.002,-0.004 0.004,-0.012 0.008,-0.021l-0.197,-0.52l0.095,0l0.108,0.301c0.014,0.038 0.026,0.078 0.037,0.12c0.01,-0.041 0.022,-0.08 0.036,-0.118l0.111,-0.303l0.088,0l-0.197,0.528c-0.021,0.057 -0.038,0.096 -0.049,0.117c-0.016,0.029 -0.034,0.051 -0.054,0.064c-0.02,0.014 -0.044,0.02 -0.072,0.02c-0.017,0 -0.036,-0.003 -0.057,-0.01Z" style="fill-rule:nonzero;"/></g><g transform="matrix(12,0,0,12,112.516,99.8803)"><path d="M0.033,-0.259c0,-0.096 0.027,-0.167 0.08,-0.214c0.045,-0.038 0.099,-0.057 0.163,-0.057c0.072,-0 0.13,0.023 0.175,0.07c0.045,0.047 0.068,0.111 0.068,0.193c0,0.067 -0.01,0.12 -0.03,0.158c-0.02,0.038 -0.049,0.068 -0.087,0.089c-0.039,0.021 -0.08,0.032 -0.126,0.032c-0.072,-0 -0.131,-0.024 -0.176,-0.07c-0.044,-0.047 -0.067,-0.114 -0.067,-0.201Zm0.091,-0c-0,0.066 0.014,0.116 0.043,0.149c0.029,0.033 0.065,0.049 0.109,0.049c0.044,0 0.08,-0.016 0.109,-0.049c0.029,-0.034 0.044,-0.084 0.044,-0.152c-0,-0.064 -0.015,-0.113 -0.044,-0.146c-0.029,-0.033 -0.065,-0.05 -0.109,-0.05c-0.044,0 -0.08,0.017 -0.109,0.05c-0.029,0.033 -0.043,0.082 -0.043,0.149Z" style="fill-rule:nonzero;"/></g><g transform="matrix(12,0,0,12,119.19,99.8803)"><path d="M0.406,-0l-0,-0.076c-0.041,0.058 -0.095,0.088 -0.165,0.088c-0.03,-0 -0.059,-0.006 -0.085,-0.018c-0.027,-0.012 -0.047,-0.026 -0.06,-0.044c-0.012,-0.018 -0.021,-0.04 -0.027,-0.065c-0.003,-0.017 -0.005,-0.045 -0.005,-0.082l-0,-0.322l0.088,0l-0,0.288c-0,0.046 0.002,0.077 0.005,0.093c0.006,0.023 0.017,0.041 0.035,0.054c0.018,0.013 0.04,0.02 0.067,0.02c0.026,0 0.051,-0.007 0.074,-0.02c0.023,-0.014 0.039,-0.032 0.049,-0.055c0.01,-0.024 0.014,-0.057 0.014,-0.102l0,-0.278l0.088,0l0,0.519l-0.078,-0Z" style="fill-rule:nonzero;"/></g><g transform="matrix(12,0,0,12,125.864,99.8803)"><path d="M0.065,-0l-0,-0.519l0.079,0l0,0.079c0.02,-0.037 0.039,-0.061 0.056,-0.073c0.017,-0.011 0.036,-0.017 0.056,-0.017c0.03,-0 0.06,0.009 0.091,0.028l-0.031,0.082c-0.021,-0.013 -0.043,-0.019 -0.064,-0.019c-0.019,-0 -0.037,0.005 -0.052,0.017c-0.015,0.011 -0.026,0.027 -0.033,0.048c-0.009,0.031 -0.014,0.065 -0.014,0.103l-0,0.271l-0.088,-0Z" style="fill-rule:nonzero;"/></g><g transform="matrix(12,0,0,12,133.194,99.8803)"><rect x="0.064" y="-0.716" width="0.088" height="0.716" style="fill-rule:nonzero;"/></g><g transform="matrix(12,0,0,12,135.86,99.8803)"><path d="M0.033,-0.259c0,-0.096 0.027,-0.167 0.08,-0.214c0.045,-0.038 0.099,-0.057 0.163,-0.057c0.072,-0 0.13,0.023 0.175,0.07c0.045,0.047 0.068,0.111 0.068,0.193c0,0.067 -0.01,0.12 -0.03,0.158c-0.02,0.038 -0.049,0.068 -0.087,0.089c-0.039,0.021 -0.08,0.032 -0.126,0.032c-0.072,-0 -0.131,-0.024 -0.176,-0.07c-0.044,-0.047 -0.067,-0.114 -0.067,-0.201Zm0.091,-0c-0,0.066 0.014,0.116 0.043,0.149c0.029,0.033 0.065,0.049 0.109,0.049c0.044,0 0.08,-0.016 0.109,-0.049c0.029,-0.034 0.044,-0.084 0.044,-0.152c-0,-0.064 -0.015,-0.113 -0.044,-0.146c-0.029,-0.033 -0.065,-0.05 -0.109,-0.05c-0.044,0 -0.08,0.017 -0.109,0.05c-0.029,0.033 -0.043,0.082 -0.043,0.149Z" style="fill-rule:nonzero;"/></g><g transform="matrix(12,0,0,12,142.534,99.8803)"><path d="M0.404,-0.19l0.087,0.011c-0.01,0.06 -0.034,0.106 -0.073,0.14c-0.039,0.034 -0.086,0.051 -0.143,0.051c-0.071,-0 -0.128,-0.023 -0.171,-0.07c-0.043,-0.046 -0.065,-0.113 -0.065,-0.199c0,-0.056 0.009,-0.105 0.028,-0.147c0.018,-0.042 0.047,-0.074 0.085,-0.095c0.038,-0.021 0.079,-0.031 0.123,-0.031c0.057,-0 0.103,0.014 0.139,0.042c0.035,0.029 0.058,0.069 0.068,0.122l-0.085,0.013c-0.008,-0.035 -0.023,-0.061 -0.043,-0.079c-0.021,-0.017 -0.046,-0.026 -0.075,-0.026c-0.044,-0 -0.08,0.016 -0.108,0.048c-0.028,0.031 -0.042,0.082 -0.042,0.15c0,0.07 0.014,0.121 0.04,0.152c0.027,0.032 0.062,0.047 0.105,0.047c0.034,0 0.063,-0.01 0.086,-0.031c0.023,-0.021 0.038,-0.054 0.044,-0.098Z" style="fill-rule:nonzero;"/></g><g transform="matrix(12,0,0,12,148.534,99.8803)"><path d="M0.404,-0.064c-0.032,0.028 -0.064,0.047 -0.094,0.059c-0.03,0.011 -0.062,0.017 -0.097,0.017c-0.057,-0 -0.1,-0.014 -0.131,-0.042c-0.031,-0.028 -0.046,-0.063 -0.046,-0.107c0,-0.025 0.006,-0.048 0.017,-0.069c0.012,-0.021 0.027,-0.038 0.046,-0.051c0.019,-0.013 0.04,-0.022 0.063,-0.029c0.017,-0.004 0.043,-0.009 0.078,-0.013c0.071,-0.008 0.123,-0.018 0.157,-0.03c0,-0.012 0,-0.02 0,-0.023c0,-0.036 -0.008,-0.061 -0.024,-0.076c-0.023,-0.02 -0.056,-0.03 -0.101,-0.03c-0.041,0 -0.071,0.008 -0.091,0.022c-0.02,0.015 -0.034,0.04 -0.044,0.077l-0.086,-0.012c0.008,-0.036 0.021,-0.066 0.039,-0.089c0.018,-0.022 0.044,-0.04 0.077,-0.052c0.034,-0.012 0.074,-0.018 0.118,-0.018c0.044,-0 0.08,0.005 0.108,0.015c0.028,0.011 0.048,0.024 0.061,0.04c0.013,0.015 0.022,0.035 0.027,0.059c0.003,0.015 0.005,0.042 0.005,0.082l-0,0.117c-0,0.081 0.002,0.133 0.005,0.155c0.004,0.021 0.012,0.042 0.023,0.062l-0.092,0c-0.009,-0.018 -0.015,-0.04 -0.018,-0.064Zm-0.007,-0.196c-0.032,0.013 -0.08,0.024 -0.144,0.033c-0.036,0.005 -0.061,0.011 -0.076,0.018c-0.015,0.006 -0.027,0.016 -0.035,0.028c-0.008,0.013 -0.012,0.027 -0.012,0.042c-0,0.023 0.009,0.043 0.026,0.058c0.018,0.016 0.044,0.024 0.078,0.024c0.034,-0 0.064,-0.008 0.091,-0.022c0.026,-0.015 0.045,-0.035 0.058,-0.061c0.009,-0.02 0.014,-0.049 0.014,-0.088l-0,-0.032Z" style="fill-rule:nonzero;"/></g><g transform="matrix(12,0,0,12,155.208,99.8803)"><path d="M0.258,-0.079l0.013,0.078c-0.025,0.005 -0.047,0.008 -0.067,0.008c-0.032,-0 -0.057,-0.005 -0.074,-0.015c-0.018,-0.01 -0.03,-0.024 -0.037,-0.04c-0.007,-0.017 -0.011,-0.051 -0.011,-0.104l0,-0.298l-0.064,-0l-0,-0.069l0.064,0l0,-0.128l0.087,-0.053l0,0.181l0.089,0l-0,0.069l-0.089,-0l0,0.303c0,0.025 0.002,0.041 0.005,0.048c0.003,0.008 0.008,0.013 0.015,0.017c0.007,0.005 0.017,0.007 0.03,0.007c0.01,-0 0.023,-0.001 0.039,-0.004Z" style="fill-rule:nonzero;"/></g><g transform="matrix(12,0,0,12,158.542,99.8803)"><path d="M0.066,-0.615l0,-0.101l0.088,0l0,0.101l-0.088,0Zm0,0.615l0,-0.519l0.088,0l0,0.519l-0.088,-0Z" style="fill-rule:nonzero;"/></g><g transform="matrix(12,0,0,12,161.208,99.8803)"><path d="M0.033,-0.259c0,-0.096 0.027,-0.167 0.08,-0.214c0.045,-0.038 0.099,-0.057 0.163,-0.057c0.072,-0 0.13,0.023 0.175,0.07c0.045,0.047 0.068,0.111 0.068,0.193c0,0.067 -0.01,0.12 -0.03,0.158c-0.02,0.038 -0.049,0.068 -0.087,0.089c-0.039,0.021 -0.08,0.032 -0.126,0.032c-0.072,-0 -0.131,-0.024 -0.176,-0.07c-0.044,-0.047 -0.067,-0.114 -0.067,-0.201Zm0.091,-0c-0,0.066 0.014,0.116 0.043,0.149c0.029,0.033 0.065,0.049 0.109,0.049c0.044,0 0.08,-0.016 0.109,-0.049c0.029,-0.034 0.044,-0.084 0.044,-0.152c-0,-0.064 -0.015,-0.113 -0.044,-0.146c-0.029,-0.033 -0.065,-0.05 -0.109,-0.05c-0.044,0 -0.08,0.017 -0.109,0.05c-0.029,0.033 -0.043,0.082 -0.043,0.149Z" style="fill-rule:nonzero;"/></g><g transform="matrix(12,0,0,12,167.881,99.8803)"><path d="M0.066,-0l-0,-0.519l0.079,0l0,0.074c0.038,-0.057 0.093,-0.085 0.165,-0.085c0.031,-0 0.06,0.005 0.086,0.017c0.026,0.011 0.046,0.026 0.059,0.044c0.013,0.018 0.022,0.04 0.027,0.065c0.004,0.016 0.005,0.044 0.005,0.085l0,0.319l-0.088,-0l0,-0.315c0,-0.036 -0.003,-0.063 -0.01,-0.081c-0.007,-0.017 -0.019,-0.032 -0.036,-0.042c-0.018,-0.011 -0.038,-0.016 -0.061,-0.016c-0.038,-0 -0.07,0.012 -0.097,0.036c-0.028,0.023 -0.041,0.068 -0.041,0.135l-0,0.283l-0.088,-0Z" style="fill-rule:nonzero;"/></g><g transform="matrix(12,0,0,12,174.555,99.8803)"><rect x="0.091" y="-0.1" width="0.1" height="0.1" style="fill-rule:nonzero;"/></g></g><path d="M875.841,710.109c0,3.963 -0.749,7.336 -2.248,10.119c-1.498,2.783 -3.533,4.906 -6.104,6.368c-2.571,1.461 -5.464,2.192 -8.679,2.192c-3.229,0 -6.128,-0.734 -8.695,-2.203c-2.568,-1.469 -4.599,-3.595 -6.094,-6.378c-1.495,-2.783 -2.242,-6.149 -2.242,-10.098c-0,-3.963 0.747,-7.336 2.242,-10.119c1.495,-2.782 3.526,-4.905 6.094,-6.367c2.567,-1.462 5.466,-2.193 8.695,-2.193c3.215,0 6.108,0.731 8.679,2.193c2.571,1.462 4.606,3.585 6.104,6.367c1.499,2.783 2.248,6.156 2.248,10.119Zm-7.798,0c0,-2.566 -0.382,-4.731 -1.145,-6.496c-0.764,-1.765 -1.838,-3.103 -3.221,-4.013c-1.384,-0.911 -3.006,-1.366 -4.867,-1.366c-1.861,0 -3.483,0.455 -4.867,1.366c-1.384,0.91 -2.457,2.248 -3.221,4.013c-0.763,1.765 -1.145,3.93 -1.145,6.496c-0,2.567 0.382,4.732 1.145,6.497c0.764,1.765 1.837,3.103 3.221,4.013c1.384,0.91 3.006,1.366 4.867,1.366c1.861,-0 3.483,-0.456 4.867,-1.366c1.383,-0.91 2.457,-2.248 3.221,-4.013c0.763,-1.765 1.145,-3.93 1.145,-6.497Z" style="fill-rule:nonzero;"/><path d="M887.205,720.436l0.014,-9.062l1.108,-0l8.736,-10.356l8.679,0l-11.733,13.708l-1.804,-0l-5,5.71Zm-6.847,7.855l0,-36.363l7.557,-0l-0,36.363l-7.557,0Zm17.032,0l-8.012,-11.875l5.028,-5.341l11.847,17.216l-8.863,0Z" style="fill-rule:nonzero;"/><path d="M701.052,351.724l-0,60.606l-11.08,0l-26.35,-38.139l-0.449,-0l-0,38.139l-12.808,0l0,-60.606l11.222,0l26.184,38.116l0.52,0l0,-38.116l12.761,0Z" style="fill:#22252a;fill-rule:nonzero;"/><path d="M733.391,413.206c-4.601,0 -8.572,-0.979 -11.914,-2.938c-3.342,-1.959 -5.921,-4.698 -7.736,-8.215c-1.815,-3.518 -2.722,-7.612 -2.722,-12.284c-0,-4.688 0.907,-8.794 2.722,-12.32c1.815,-3.525 4.394,-6.268 7.736,-8.227c3.342,-1.959 7.313,-2.938 11.914,-2.938c4.6,-0 8.572,0.979 11.914,2.938c3.342,1.959 5.92,4.702 7.735,8.227c1.815,3.526 2.723,7.632 2.723,12.32c-0,4.672 -0.908,8.766 -2.723,12.284c-1.815,3.517 -4.393,6.256 -7.735,8.215c-3.342,1.959 -7.314,2.938 -11.914,2.938Zm0.071,-9.753c2.075,-0 3.817,-0.598 5.226,-1.794c1.409,-1.195 2.472,-2.829 3.19,-4.9c0.718,-2.072 1.077,-4.426 1.077,-7.061c0,-2.648 -0.359,-5.008 -1.077,-7.082c-0.718,-2.073 -1.781,-3.712 -3.19,-4.915c-1.409,-1.204 -3.151,-1.805 -5.226,-1.805c-2.123,-0 -3.901,0.601 -5.333,1.805c-1.432,1.203 -2.508,2.842 -3.226,4.915c-0.718,2.074 -1.077,4.434 -1.077,7.082c0,2.635 0.359,4.989 1.077,7.061c0.718,2.071 1.794,3.705 3.226,4.9c1.432,1.196 3.21,1.794 5.333,1.794Z" style="fill:#22252a;fill-rule:nonzero;"/><path d="M786.753,366.876l-0,9.469l-27.392,0l0,-9.469l27.392,-0Zm-21.165,-10.89l12.594,-0l0,42.365c0,1.168 0.182,2.074 0.545,2.719c0.363,0.645 0.864,1.095 1.503,1.35c0.639,0.254 1.377,0.381 2.214,0.381c0.603,0 1.202,-0.053 1.796,-0.159c0.594,-0.107 1.044,-0.195 1.352,-0.266l1.989,9.398c-0.628,0.201 -1.516,0.434 -2.666,0.699c-1.151,0.264 -2.542,0.426 -4.176,0.485c-3.038,0.118 -5.697,-0.285 -7.978,-1.21c-2.281,-0.926 -4.052,-2.369 -5.315,-4.33c-1.263,-1.961 -1.882,-4.423 -1.858,-7.386l-0,-44.046Z" style="fill:#22252a;fill-rule:nonzero;"/><path d="M792.872,412.33l0,-45.454l12.607,-0l-0,45.454l-12.607,0Zm6.363,-51.314c-1.875,0 -3.482,-0.626 -4.824,-1.879c-1.342,-1.252 -2.012,-2.757 -2.012,-4.513c-0,-1.736 0.67,-3.23 2.012,-4.483c1.342,-1.253 2.94,-1.879 4.794,-1.879c1.894,-0 3.507,0.626 4.838,1.879c1.332,1.253 1.998,2.747 1.998,4.483c0,1.756 -0.666,3.261 -1.998,4.513c-1.331,1.253 -2.934,1.879 -4.808,1.879Z" style="fill:#22252a;fill-rule:nonzero;"/><path d="M837.084,366.876l-0,9.469l-28.054,0l-0,-9.469l28.054,-0Zm-21.638,45.454l-0,-48.745c-0,-3.291 0.647,-6.023 1.941,-8.197c1.294,-2.174 3.066,-3.802 5.315,-4.883c2.249,-1.081 4.802,-1.622 7.658,-1.622c1.93,0 3.7,0.15 5.312,0.45c1.612,0.3 2.809,0.569 3.59,0.805l-2.226,9.446c-0.497,-0.154 -1.106,-0.299 -1.828,-0.435c-0.722,-0.136 -1.462,-0.204 -2.22,-0.204c-1.846,-0 -3.133,0.428 -3.859,1.284c-0.726,0.856 -1.089,2.054 -1.089,3.593l0,48.508l-12.594,0Z" style="fill:#22252a;fill-rule:nonzero;"/><path d="M842.706,412.33l0,-45.454l12.607,-0l0,45.454l-12.607,0Zm6.363,-51.314c-1.874,0 -3.482,-0.626 -4.824,-1.879c-1.341,-1.252 -2.012,-2.757 -2.012,-4.513c-0,-1.736 0.671,-3.23 2.012,-4.483c1.342,-1.253 2.94,-1.879 4.794,-1.879c1.894,-0 3.507,0.626 4.839,1.879c1.331,1.253 1.997,2.747 1.997,4.483c0,1.756 -0.666,3.261 -1.997,4.513c-1.332,1.253 -2.935,1.879 -4.809,1.879Z" style="fill:#22252a;fill-rule:nonzero;"/><path d="M883.012,413.206c-4.664,0 -8.665,-0.991 -12.003,-2.974c-3.338,-1.983 -5.901,-4.737 -7.688,-8.262c-1.788,-3.526 -2.681,-7.593 -2.681,-12.201c-0,-4.64 0.903,-8.725 2.71,-12.255c1.808,-3.529 4.378,-6.283 7.712,-8.262c3.335,-1.979 7.302,-2.968 11.903,-2.968c3.953,-0 7.422,0.719 10.407,2.157c2.985,1.438 5.344,3.462 7.076,6.073c1.732,2.61 2.683,5.667 2.853,9.171l-11.885,-0c-0.343,-2.262 -1.226,-4.089 -2.648,-5.484c-1.423,-1.395 -3.294,-2.092 -5.614,-2.092c-1.942,-0 -3.64,0.527 -5.096,1.583c-1.456,1.055 -2.588,2.588 -3.397,4.599c-0.809,2.01 -1.214,4.447 -1.214,7.312c0,2.896 0.401,5.359 1.202,7.389c0.801,2.031 1.929,3.579 3.385,4.647c1.456,1.067 3.163,1.601 5.12,1.601c1.448,-0 2.746,-0.295 3.894,-0.885c1.148,-0.59 2.102,-1.45 2.862,-2.581c0.76,-1.13 1.262,-2.5 1.506,-4.11l11.885,-0c-0.194,3.476 -1.133,6.533 -2.818,9.171c-1.684,2.637 -4.007,4.692 -6.969,6.164c-2.961,1.471 -6.462,2.207 -10.502,2.207Z" style="fill:#22252a;fill-rule:nonzero;"/><path d="M921.956,413.183c-2.892,-0 -5.474,-0.506 -7.744,-1.518c-2.271,-1.013 -4.061,-2.521 -5.371,-4.525c-1.31,-2.005 -1.965,-4.504 -1.965,-7.499c-0,-2.533 0.459,-4.655 1.379,-6.365c0.919,-1.711 2.178,-3.089 3.776,-4.134c1.598,-1.046 3.42,-1.839 5.466,-2.38c2.045,-0.541 4.195,-0.919 6.448,-1.136c2.632,-0.261 4.757,-0.514 6.377,-0.761c1.62,-0.246 2.796,-0.617 3.53,-1.112c0.734,-0.496 1.101,-1.228 1.101,-2.199l0,-0.166c0,-1.878 -0.59,-3.33 -1.769,-4.356c-1.18,-1.026 -2.839,-1.539 -4.978,-1.539c-2.269,0 -4.075,0.496 -5.418,1.489c-1.344,0.992 -2.229,2.24 -2.655,3.743l-11.671,-0.947c0.592,-2.762 1.755,-5.154 3.489,-7.176c1.734,-2.022 3.978,-3.581 6.732,-4.676c2.754,-1.095 5.944,-1.642 9.57,-1.642c2.537,-0 4.962,0.297 7.274,0.891c2.312,0.594 4.37,1.509 6.173,2.746c1.803,1.237 3.229,2.827 4.276,4.77c1.048,1.943 1.572,4.27 1.572,6.981l-0,30.658l-11.956,0l0,-6.297l-0.355,0c-0.733,1.413 -1.709,2.657 -2.926,3.735c-1.218,1.077 -2.687,1.915 -4.41,2.515c-1.722,0.6 -3.704,0.9 -5.945,0.9Zm3.622,-8.689c1.851,0 3.485,-0.371 4.904,-1.112c1.418,-0.742 2.53,-1.747 3.335,-3.013c0.805,-1.267 1.207,-2.693 1.207,-4.279l0,-4.83c-0.378,0.249 -0.912,0.478 -1.601,0.687c-0.688,0.209 -1.454,0.396 -2.296,0.562c-0.842,0.166 -1.687,0.314 -2.533,0.444c-0.847,0.13 -1.615,0.245 -2.305,0.343c-1.484,0.213 -2.779,0.557 -3.886,1.033c-1.107,0.475 -1.967,1.113 -2.581,1.912c-0.613,0.799 -0.92,1.79 -0.92,2.974c-0,1.728 0.627,3.04 1.882,3.936c1.255,0.895 2.853,1.343 4.794,1.343Z" style="fill:#22252a;fill-rule:nonzero;"/><path d="M980.171,366.876l0,9.469l-27.391,0l-0,-9.469l27.391,-0Zm-21.165,-10.89l12.595,-0l-0,42.365c-0,1.168 0.181,2.074 0.544,2.719c0.363,0.645 0.864,1.095 1.504,1.35c0.639,0.254 1.377,0.381 2.213,0.381c0.604,0 1.203,-0.053 1.796,-0.159c0.594,-0.107 1.045,-0.195 1.353,-0.266l1.989,9.398c-0.628,0.201 -1.517,0.434 -2.667,0.699c-1.15,0.264 -2.542,0.426 -4.175,0.485c-3.038,0.118 -5.698,-0.285 -7.979,-1.21c-2.28,-0.926 -4.052,-2.369 -5.314,-4.33c-1.263,-1.961 -1.883,-4.423 -1.859,-7.386l0,-44.046Z" style="fill:#22252a;fill-rule:nonzero;"/><path d="M986.291,412.33l-0,-45.454l12.606,-0l0,45.454l-12.606,0Zm6.362,-51.314c-1.874,0 -3.482,-0.626 -4.823,-1.879c-1.342,-1.252 -2.013,-2.757 -2.013,-4.513c0,-1.736 0.671,-3.23 2.013,-4.483c1.341,-1.253 2.939,-1.879 4.794,-1.879c1.894,-0 3.506,0.626 4.838,1.879c1.332,1.253 1.998,2.747 1.998,4.483c-0,1.756 -0.666,3.261 -1.998,4.513c-1.332,1.253 -2.935,1.879 -4.809,1.879Z" style="fill:#22252a;fill-rule:nonzero;"/><path d="M1026.6,413.206c-4.601,0 -8.572,-0.979 -11.914,-2.938c-3.342,-1.959 -5.92,-4.698 -7.735,-8.215c-1.815,-3.518 -2.723,-7.612 -2.723,-12.284c0,-4.688 0.908,-8.794 2.723,-12.32c1.815,-3.525 4.393,-6.268 7.735,-8.227c3.342,-1.959 7.313,-2.938 11.914,-2.938c4.601,-0 8.572,0.979 11.914,2.938c3.342,1.959 5.921,4.702 7.736,8.227c1.815,3.526 2.722,7.632 2.722,12.32c0,4.672 -0.907,8.766 -2.722,12.284c-1.815,3.517 -4.394,6.256 -7.736,8.215c-3.342,1.959 -7.313,2.938 -11.914,2.938Zm0.071,-9.753c2.076,-0 3.818,-0.598 5.226,-1.794c1.409,-1.195 2.472,-2.829 3.191,-4.9c0.718,-2.072 1.077,-4.426 1.077,-7.061c-0,-2.648 -0.359,-5.008 -1.077,-7.082c-0.719,-2.073 -1.782,-3.712 -3.191,-4.915c-1.408,-1.204 -3.15,-1.805 -5.226,-1.805c-2.123,-0 -3.9,0.601 -5.333,1.805c-1.432,1.203 -2.507,2.842 -3.225,4.915c-0.718,2.074 -1.077,4.434 -1.077,7.082c-0,2.635 0.359,4.989 1.077,7.061c0.718,2.071 1.793,3.705 3.225,4.9c1.433,1.196 3.21,1.794 5.333,1.794Z" style="fill:#22252a;fill-rule:nonzero;"/><path d="M1068.38,386.052l0,26.278l-12.594,0l-0,-45.454l12.002,-0l0,8.025l0.521,0c1.018,-2.651 2.71,-4.75 5.075,-6.297c2.366,-1.547 5.235,-2.32 8.609,-2.32c3.16,-0 5.915,0.691 8.265,2.074c2.35,1.383 4.174,3.351 5.475,5.904c1.3,2.553 1.944,5.591 1.932,9.115l0,28.953l-12.594,0l-0,-26.704c0.011,-2.778 -0.7,-4.952 -2.134,-6.523c-1.434,-1.57 -3.414,-2.355 -5.939,-2.355c-1.697,-0 -3.193,0.368 -4.49,1.103c-1.296,0.736 -2.305,1.798 -3.027,3.185c-0.722,1.387 -1.089,3.059 -1.101,5.016Z" style="fill:#22252a;fill-rule:nonzero;"/></g></g></g></svg>