<?xml version="1.0" encoding="UTF-8" standalone="no"?><!DOCTYPE svg PUBLIC "-//W3C//DTD SVG 1.1//EN" "http://www.w3.org/Graphics/SVG/1.1/DTD/svg11.dtd"><svg width="100%" height="100%" viewBox="0 0 1749 1241" version="1.1" xmlns="http://www.w3.org/2000/svg" xmlns:xlink="http://www.w3.org/1999/xlink" xml:space="preserve" xmlns:serif="http://www.serif.com/" style="fill-rule:evenodd;clip-rule:evenodd;stroke-linejoin:round;stroke-miterlimit:2;"><rect id="Artboard1" x="0" y="0" width="1748.03" height="1240.16" style="fill:none;"/><clipPath id="_clip1"><rect x="0" y="0" width="1748.03" height="1240.16"/></clipPath><g clip-path="url(#_clip1)"><g><rect x="-0" y="0" width="1748.03" height="1240.16" style="fill:#ada7ff;"/><g><g transform="matrix(4.16667,0,0,4.16667,-253.93,-163.43)"><text x="148.914px" y="174.437px" style="font-family:'Inter-Regular_SemiBold', 'Inter', sans-serif;font-size:20px;fill:#22252a;stroke:#22252a;stroke-width:1px;">b<tspan x="162.328px 174.948px 183.22px 191.38px 204.311px 217.016px 223.527px 231.289px 244.22px 256.385px 269.005px 280.459px 287.084px " y="174.437px 174.437px 174.437px 174.437px 174.437px 174.437px 174.437px 174.437px 174.437px 174.437px 174.437px 174.437px 174.437px ">utton:focus {</tspan></text><text x="148.914px" y="210.437px" style="font-family:'Inter-Regular', 'Inter', sans-serif;font-size:20px;fill:#22252a;stroke:#22252a;stroke-width:1px;">c<tspan x="161.078px 174.01px 179.755px 192.686px 201.13px 207.641px 214.266px 227.681px 233.425px 246.044px 258.692px " y="210.437px 210.437px 210.437px 210.437px 210.437px 210.437px 210.437px 210.437px 210.437px 210.437px 210.437px ">olor: blue;</tspan></text><text x="148.914px" y="246.437px" style="font-family:'Inter-Regular', 'Inter', sans-serif;font-size:20px;fill:#22252a;stroke:#22252a;stroke-width:1px;">o<tspan x="161.845px 174.465px 182.965px 188.709px 194.453px 207.158px 219.806px 226.317px 232.942px 245.647px 258.578px 271.283px 283.931px " y="246.437px 246.437px 246.437px 246.437px 246.437px 246.437px 246.437px 246.437px 246.437px 246.437px 246.437px 246.437px 246.437px ">utline: none;</tspan></text><text x="148.914px" y="282.437px" style="font-family:'Inter-Regular_SemiBold', 'Inter', sans-serif;font-size:20px;fill:#22252a;stroke:#22252a;stroke-width:1px;">}</text></g><path d="M1163.83,159.424c-0,-13.637 -11.072,-24.709 -24.709,-24.709l-530.219,0c-13.636,0 -24.708,11.072 -24.708,24.709l-0,114.566c-0,13.637 11.072,24.709 24.708,24.709l530.219,0c13.637,0 24.709,-11.072 24.709,-24.709l-0,-114.566Z" style="fill:#76f5c0;stroke:#212529;stroke-width:17.42px;stroke-linecap:round;stroke-miterlimit:1.5;"/><g><path d="M1163.83,159.424c-0,-13.637 -11.072,-24.709 -24.709,-24.709l-530.219,0c-13.636,0 -24.708,11.072 -24.708,24.709l-0,114.566c-0,13.637 11.072,24.709 24.708,24.709l530.219,0c13.637,0 24.709,-11.072 24.709,-24.709l-0,-114.566Z" style="fill:#76f5c0;stroke:#212529;stroke-width:17.42px;stroke-linecap:round;stroke-miterlimit:1.5;"/><g><text x="770.562px" y="249.44px" style="font-family:'Inter-Regular_SemiBold', 'Inter', sans-serif;font-size:87.098px;">Click</text></g></g></g></g></g></svg>