<?xml version="1.0" encoding="UTF-8" standalone="no"?><!DOCTYPE svg PUBLIC "-//W3C//DTD SVG 1.1//EN" "http://www.w3.org/Graphics/SVG/1.1/DTD/svg11.dtd"><svg width="100%" height="100%" viewBox="0 0 1749 1241" version="1.1" xmlns="http://www.w3.org/2000/svg" xmlns:xlink="http://www.w3.org/1999/xlink" xml:space="preserve" xmlns:serif="http://www.serif.com/" style="fill-rule:evenodd;clip-rule:evenodd;stroke-linecap:round;stroke-linejoin:round;stroke-miterlimit:1.5;"><rect id="Artboard2" x="0" y="0" width="1748.03" height="1240.16" style="fill:none;"/><clipPath id="_clip1"><rect id="Artboard21" serif:id="Artboard2" x="0" y="0" width="1748.03" height="1240.16"/></clipPath><g clip-path="url(#_clip1)"><rect id="Artboard1" x="0" y="0" width="1748.03" height="1240.16" style="fill:none;"/><g><g><rect x="0" y="0" width="1748.03" height="1240.16" style="fill:#ada7ff;"/><g><path d="M1289.95,243.326c0,-69.179 -56.165,-125.345 -125.345,-125.345l-581.182,0c-69.179,0 -125.344,56.166 -125.344,125.345l0,1006.12c0,69.18 56.165,125.345 125.344,125.345l581.182,0c69.18,0 125.345,-56.165 125.345,-125.345l0,-1006.12Z" style="fill:#f8f9fa;stroke:#212529;stroke-width:25px;"/></g><g><g><text x="714.255px" y="276.34px" style="font-family:'Inter-Regular_Bold', 'Inter', sans-serif;font-size:100px;fill:#212529;">Sign In</text></g></g><g><g><g><text x="613.547px" y="414.198px" style="font-family:'Inter-Regular_Bold', 'Inter', sans-serif;font-size:50px;">Email</text><path d="M1130.25,466.83c-0,-14.387 -11.681,-26.068 -26.068,-26.068l-462.611,0c-14.387,0 -26.068,11.681 -26.068,26.068l-0,52.136c-0,14.388 11.681,26.069 26.068,26.069l462.611,0c14.387,0 26.068,-11.681 26.068,-26.069l-0,-52.136Z" style="fill:#fff;stroke:#212529;stroke-width:12.5px;"/><g transform="matrix(1,0,0,0.981527,0,9.32299)"><text x="646.14px" y="504.686px" style="font-family:'Inter-Regular', 'Inter', sans-serif;font-size:35.659px;fill:#919191;">e.g jane.doe@gmail.com</text></g></g></g></g><g><text x="612.338px" y="639.003px" style="font-family:'Inter-Regular_Bold', 'Inter', sans-serif;font-size:50px;">Passw<tspan x="764.256px 794.085px 811.841px " y="639.003px 639.003px 639.003px ">ord</tspan></text><path d="M1132.52,688.376c0,-14.388 -11.681,-26.068 -26.068,-26.068l-462.611,0c-14.387,0 -26.068,11.68 -26.068,26.068l0,52.136c0,14.387 11.681,26.068 26.068,26.068l462.611,0c14.387,0 26.068,-11.681 26.068,-26.068l0,-52.136Z" style="fill:#fff;stroke:#212529;stroke-width:12.5px;"/><g transform="matrix(1,0,0,0.981527,0,13.5552)"><text x="645.085px" y="733.791px" style="font-family:'Inter-Regular', 'Inter', sans-serif;font-size:35.659px;fill:#919191;">**********</text></g></g></g><g><g><path d="M535.889,1023.13l-6.667,-0l10.142,-28.834l8.001,-0l10.143,28.834l-6.668,-0l-7.354,-22.251l-0.242,0l-7.355,22.251Zm-0.444,-11.344l15.759,0l0,4.76l-15.759,-0l-0,-4.76Z" style="fill:#f85555;fill-rule:nonzero;"/></g><g><path d="M564.14,1010.63l0,12.494l-6.101,-0l-0,-21.616l5.819,0l-0,3.808l0.242,-0c0.485,-1.27 1.293,-2.261 2.465,-3.015c1.131,-0.714 2.546,-1.11 4.162,-1.11c1.536,-0 2.869,0.357 4,0.991c1.132,0.675 2.021,1.626 2.667,2.816c0.607,1.23 0.93,2.658 0.93,4.363l-0,13.763l-6.102,-0l0,-12.692c0,-1.349 -0.323,-2.38 -1.05,-3.133c-0.687,-0.754 -1.657,-1.111 -2.869,-1.111c-0.809,0 -1.536,0.159 -2.183,0.516c-0.606,0.357 -1.091,0.872 -1.454,1.507c-0.364,0.674 -0.526,1.467 -0.526,2.419Z" style="fill:#f85555;fill-rule:nonzero;"/></g><g><path d="M603.071,1023.56c-2.263,0 -4.202,-0.476 -5.859,-1.388c-1.616,-0.873 -2.869,-2.181 -3.758,-3.847c-0.889,-1.666 -1.334,-3.649 -1.334,-5.91c0,-2.221 0.445,-4.204 1.334,-5.87c0.889,-1.666 2.142,-2.975 3.717,-3.926c1.617,-0.952 3.476,-1.428 5.658,-1.428c1.454,-0 2.828,0.238 4.081,0.714c1.253,0.436 2.344,1.11 3.273,2.022c0.97,0.913 1.697,2.063 2.222,3.451c0.526,1.388 0.768,2.975 0.768,4.799l0,1.666l-18.588,-0l0,-3.728l12.85,-0c0,-0.873 -0.202,-1.626 -0.565,-2.301c-0.405,-0.634 -0.93,-1.19 -1.617,-1.547c-0.646,-0.396 -1.455,-0.594 -2.344,-0.594c-0.888,-0 -1.737,0.237 -2.424,0.634c-0.727,0.436 -1.293,0.992 -1.697,1.706c-0.404,0.674 -0.606,1.467 -0.606,2.3l-0,3.53c-0,1.071 0.202,2.023 0.606,2.776c0.404,0.793 0.97,1.388 1.737,1.825c0.728,0.396 1.617,0.634 2.627,0.634c0.687,0 1.333,-0.119 1.899,-0.277c0.525,-0.199 1.01,-0.476 1.414,-0.873c0.445,-0.357 0.728,-0.833 0.93,-1.348l5.657,0.357c-0.283,1.308 -0.889,2.498 -1.738,3.49c-0.889,0.991 -2.02,1.745 -3.434,2.3c-1.374,0.555 -2.99,0.833 -4.809,0.833Z" style="fill:#f85555;fill-rule:nonzero;"/></g><g><path d="M616.585,1023.13l-0,-21.616l5.899,0l0,3.768l0.243,-0c0.404,-1.349 1.051,-2.38 2.02,-3.054c0.93,-0.674 2.021,-1.031 3.273,-1.031c0.283,-0 0.607,-0 0.97,0.039c0.364,0.04 0.687,0.08 0.93,0.159l-0,5.315c-0.283,-0.08 -0.687,-0.159 -1.172,-0.199c-0.526,-0.079 -0.97,-0.119 -1.415,-0.119c-0.888,0 -1.697,0.199 -2.384,0.595c-0.727,0.357 -1.252,0.873 -1.656,1.547c-0.404,0.674 -0.606,1.468 -0.606,2.34l-0,12.256l-6.102,-0Z" style="fill:#f85555;fill-rule:nonzero;"/></g><g><path d="M631.623,1023.13l-0,-21.616l5.899,0l0,3.768l0.243,-0c0.404,-1.349 1.05,-2.38 2.02,-3.054c0.929,-0.674 2.02,-1.031 3.273,-1.031c0.283,-0 0.606,-0 0.97,0.039c0.364,0.04 0.687,0.08 0.929,0.159l0,5.315c-0.283,-0.08 -0.687,-0.159 -1.172,-0.199c-0.525,-0.079 -0.969,-0.119 -1.414,-0.119c-0.889,0 -1.697,0.199 -2.384,0.595c-0.727,0.357 -1.253,0.873 -1.657,1.547c-0.404,0.674 -0.606,1.468 -0.606,2.34l0,12.256l-6.101,-0Z" style="fill:#f85555;fill-rule:nonzero;"/></g><g><path d="M655.925,1023.56c-2.222,0 -4.162,-0.476 -5.778,-1.428c-1.616,-0.912 -2.869,-2.221 -3.758,-3.887c-0.889,-1.705 -1.334,-3.649 -1.334,-5.87c0,-2.221 0.445,-4.164 1.334,-5.87c0.889,-1.665 2.142,-2.974 3.758,-3.886c1.616,-0.952 3.556,-1.428 5.778,-1.428c2.223,-0 4.162,0.476 5.779,1.428c1.616,0.912 2.869,2.221 3.758,3.886c0.848,1.706 1.293,3.649 1.293,5.87c-0,2.221 -0.445,4.165 -1.293,5.87c-0.889,1.666 -2.142,2.975 -3.758,3.887c-1.617,0.952 -3.556,1.428 -5.779,1.428Zm0.041,-4.68c1.01,-0 1.818,-0.278 2.505,-0.833c0.687,-0.555 1.212,-1.348 1.576,-2.34c0.323,-0.992 0.525,-2.102 0.525,-3.371c0,-1.23 -0.202,-2.38 -0.525,-3.372c-0.364,-0.951 -0.889,-1.745 -1.576,-2.34c-0.687,-0.555 -1.495,-0.832 -2.505,-0.832c-1.051,-0 -1.899,0.277 -2.586,0.832c-0.728,0.595 -1.213,1.389 -1.576,2.34c-0.364,0.992 -0.526,2.142 -0.526,3.372c0,1.269 0.162,2.379 0.526,3.371c0.363,0.992 0.848,1.785 1.576,2.34c0.687,0.555 1.535,0.833 2.586,0.833Z" style="fill:#f85555;fill-rule:nonzero;"/></g><g><path d="M670.091,1023.13l0,-21.616l5.9,0l0,3.768l0.242,-0c0.405,-1.349 1.051,-2.38 2.021,-3.054c0.929,-0.674 2.02,-1.031 3.273,-1.031c0.283,-0 0.606,-0 0.97,0.039c0.363,0.04 0.687,0.08 0.929,0.159l0,5.315c-0.283,-0.08 -0.687,-0.159 -1.172,-0.199c-0.525,-0.079 -0.969,-0.119 -1.414,-0.119c-0.889,0 -1.697,0.199 -2.384,0.595c-0.727,0.357 -1.253,0.873 -1.657,1.547c-0.404,0.674 -0.606,1.468 -0.606,2.34l0,12.256l-6.102,-0Z" style="fill:#f85555;fill-rule:nonzero;"/></g><g><path d="M706.436,1023.56c-2.223,0 -4.162,-0.476 -5.779,-1.428c-1.616,-0.912 -2.869,-2.221 -3.758,-3.887c-0.888,-1.705 -1.333,-3.649 -1.333,-5.87c0,-2.221 0.445,-4.164 1.333,-5.87c0.889,-1.665 2.142,-2.974 3.758,-3.886c1.617,-0.952 3.556,-1.428 5.779,-1.428c2.222,-0 4.162,0.476 5.778,1.428c1.617,0.912 2.869,2.221 3.758,3.886c0.849,1.706 1.293,3.649 1.293,5.87c0,2.221 -0.444,4.165 -1.293,5.87c-0.889,1.666 -2.141,2.975 -3.758,3.887c-1.616,0.952 -3.556,1.428 -5.778,1.428Zm0.04,-4.68c1.01,-0 1.819,-0.278 2.506,-0.833c0.687,-0.555 1.212,-1.348 1.576,-2.34c0.323,-0.992 0.525,-2.102 0.525,-3.371c-0,-1.23 -0.202,-2.38 -0.525,-3.372c-0.364,-0.951 -0.889,-1.745 -1.576,-2.34c-0.687,-0.555 -1.496,-0.832 -2.506,-0.832c-1.05,-0 -1.899,0.277 -2.586,0.832c-0.727,0.595 -1.212,1.389 -1.576,2.34c-0.363,0.992 -0.525,2.142 -0.525,3.372c-0,1.269 0.162,2.379 0.525,3.371c0.364,0.992 0.849,1.785 1.576,2.34c0.687,0.555 1.536,0.833 2.586,0.833Z" style="fill:#f85555;fill-rule:nonzero;"/></g><g><path d="M730.542,1023.56c-2.262,0 -4.202,-0.476 -5.818,-1.428c-1.617,-0.952 -2.869,-2.26 -3.718,-3.926c-0.889,-1.706 -1.333,-3.61 -1.333,-5.831c-0,-2.181 0.444,-4.124 1.333,-5.83c0.889,-1.666 2.101,-2.975 3.718,-3.926c1.616,-0.952 3.556,-1.428 5.778,-1.428c1.94,-0 3.596,0.357 5.051,1.031c1.455,0.714 2.586,1.666 3.435,2.895c0.848,1.269 1.293,2.697 1.374,4.363l-5.738,0c-0.162,-1.071 -0.606,-1.943 -1.293,-2.618c-0.687,-0.634 -1.617,-0.991 -2.708,-0.991c-0.97,-0 -1.778,0.277 -2.505,0.753c-0.687,0.516 -1.253,1.23 -1.616,2.221c-0.405,0.952 -0.607,2.103 -0.607,3.451c0,1.388 0.202,2.578 0.566,3.53c0.404,0.952 0.97,1.705 1.657,2.221c0.727,0.516 1.535,0.754 2.505,0.754c0.687,-0 1.293,-0.159 1.859,-0.437c0.566,-0.277 1.01,-0.674 1.414,-1.229c0.364,-0.516 0.606,-1.19 0.728,-1.944l5.738,0c-0.081,1.666 -0.526,3.094 -1.374,4.363c-0.808,1.269 -1.94,2.221 -3.354,2.935c-1.455,0.714 -3.152,1.071 -5.092,1.071Z" style="fill:#f85555;fill-rule:nonzero;"/></g><g><path d="M753.099,1023.56c-2.263,0 -4.203,-0.476 -5.819,-1.428c-1.616,-0.952 -2.869,-2.26 -3.717,-3.926c-0.889,-1.706 -1.334,-3.61 -1.334,-5.831c0,-2.181 0.445,-4.124 1.334,-5.83c0.889,-1.666 2.101,-2.975 3.717,-3.926c1.616,-0.952 3.556,-1.428 5.779,-1.428c1.939,-0 3.596,0.357 5.051,1.031c1.454,0.714 2.586,1.666 3.434,2.895c0.849,1.269 1.293,2.697 1.374,4.363l-5.738,0c-0.161,-1.071 -0.606,-1.943 -1.293,-2.618c-0.687,-0.634 -1.616,-0.991 -2.707,-0.991c-0.97,-0 -1.778,0.277 -2.506,0.753c-0.686,0.516 -1.252,1.23 -1.616,2.221c-0.404,0.952 -0.606,2.103 -0.606,3.451c-0,1.388 0.202,2.578 0.566,3.53c0.404,0.952 0.97,1.705 1.656,2.221c0.728,0.516 1.536,0.754 2.506,0.754c0.687,-0 1.293,-0.159 1.859,-0.437c0.565,-0.277 1.01,-0.674 1.414,-1.229c0.364,-0.516 0.606,-1.19 0.727,-1.944l5.738,0c-0.081,1.666 -0.525,3.094 -1.374,4.363c-0.808,1.269 -1.939,2.221 -3.354,2.935c-1.454,0.714 -3.151,1.071 -5.091,1.071Z" style="fill:#f85555;fill-rule:nonzero;"/></g><g><path d="M779.82,1013.92l0,-12.414l6.102,0l0,21.616l-5.859,-0l-0,-3.927l-0.202,0c-0.525,1.269 -1.334,2.301 -2.505,3.054c-1.132,0.754 -2.546,1.15 -4.203,1.15c-1.455,0 -2.748,-0.317 -3.879,-0.991c-1.132,-0.635 -2.021,-1.587 -2.627,-2.776c-0.646,-1.23 -0.929,-2.697 -0.929,-4.363l-0,-13.763l6.102,0l-0,12.692c-0,1.269 0.323,2.3 1.05,3.014c0.687,0.754 1.617,1.111 2.748,1.111c0.727,-0 1.414,-0.159 2.061,-0.476c0.646,-0.357 1.172,-0.833 1.576,-1.507c0.404,-0.635 0.565,-1.468 0.565,-2.42Z" style="fill:#f85555;fill-rule:nonzero;"/></g><g><path d="M789.192,1023.13l0,-21.616l5.9,0l-0,3.768l0.242,-0c0.405,-1.349 1.051,-2.38 2.021,-3.054c0.929,-0.674 2.02,-1.031 3.273,-1.031c0.283,-0 0.606,-0 0.97,0.039c0.363,0.04 0.687,0.08 0.929,0.159l0,5.315c-0.283,-0.08 -0.687,-0.159 -1.172,-0.199c-0.525,-0.079 -0.97,-0.119 -1.414,-0.119c-0.889,0 -1.697,0.199 -2.384,0.595c-0.727,0.357 -1.253,0.873 -1.657,1.547c-0.404,0.674 -0.606,1.468 -0.606,2.34l0,12.256l-6.102,-0Z" style="fill:#f85555;fill-rule:nonzero;"/></g><g><path d="M804.233,1023.13l-0,-21.616l5.9,0l-0,3.768l0.242,-0c0.404,-1.349 1.051,-2.38 2.02,-3.054c0.93,-0.674 2.021,-1.031 3.274,-1.031c0.282,-0 0.606,-0 0.969,0.039c0.364,0.04 0.687,0.08 0.93,0.159l-0,5.315c-0.283,-0.08 -0.687,-0.159 -1.172,-0.199c-0.525,-0.079 -0.97,-0.119 -1.414,-0.119c-0.889,0 -1.698,0.199 -2.385,0.595c-0.727,0.357 -1.252,0.873 -1.656,1.547c-0.404,0.674 -0.606,1.468 -0.606,2.34l-0,12.256l-6.102,-0Z" style="fill:#f85555;fill-rule:nonzero;"/></g><g><path d="M828.617,1023.56c-2.263,0 -4.203,-0.476 -5.86,-1.388c-1.616,-0.873 -2.869,-2.181 -3.758,-3.847c-0.889,-1.666 -1.333,-3.649 -1.333,-5.91c-0,-2.221 0.444,-4.204 1.333,-5.87c0.889,-1.666 2.142,-2.975 3.718,-3.926c1.616,-0.952 3.475,-1.428 5.657,-1.428c1.455,-0 2.829,0.238 4.081,0.714c1.253,0.436 2.344,1.11 3.273,2.022c0.97,0.913 1.698,2.063 2.223,3.451c0.525,1.388 0.768,2.975 0.768,4.799l-0,1.666l-18.588,-0l-0,-3.728l12.85,-0c-0,-0.873 -0.202,-1.626 -0.566,-2.301c-0.404,-0.634 -0.929,-1.19 -1.616,-1.547c-0.647,-0.396 -1.455,-0.594 -2.344,-0.594c-0.889,-0 -1.738,0.237 -2.425,0.634c-0.727,0.436 -1.293,0.992 -1.697,1.706c-0.404,0.674 -0.606,1.467 -0.606,2.3l0,3.53c0,1.071 0.202,2.023 0.606,2.776c0.404,0.793 0.97,1.388 1.738,1.825c0.727,0.396 1.616,0.634 2.626,0.634c0.687,0 1.334,-0.119 1.9,-0.277c0.525,-0.199 1.01,-0.476 1.414,-0.873c0.444,-0.357 0.727,-0.833 0.929,-1.348l5.657,0.357c-0.282,1.308 -0.889,2.498 -1.737,3.49c-0.889,0.991 -2.021,1.745 -3.435,2.3c-1.374,0.555 -2.99,0.833 -4.808,0.833Z" style="fill:#f85555;fill-rule:nonzero;"/></g><g><path d="M850.209,1023.48c-1.657,-0 -3.192,-0.437 -4.526,-1.269c-1.333,-0.873 -2.424,-2.102 -3.232,-3.768c-0.768,-1.666 -1.172,-3.689 -1.172,-6.108c-0,-2.499 0.404,-4.561 1.212,-6.188c0.808,-1.665 1.899,-2.895 3.273,-3.728c1.334,-0.793 2.829,-1.229 4.445,-1.229c1.212,-0 2.263,0.238 3.071,0.634c0.849,0.397 1.536,0.913 2.021,1.507c0.525,0.595 0.889,1.19 1.171,1.785l0.202,0l0,-10.827l6.102,-0l0,28.834l-6.021,-0l0,-3.451l-0.283,0c-0.282,0.595 -0.687,1.19 -1.212,1.745c-0.525,0.595 -1.212,1.071 -2.02,1.468c-0.808,0.396 -1.819,0.595 -3.031,0.595Zm1.94,-4.799c1.01,-0 1.818,-0.238 2.505,-0.794c0.687,-0.515 1.212,-1.269 1.576,-2.221c0.364,-0.952 0.566,-2.062 0.566,-3.371c-0,-1.269 -0.202,-2.38 -0.566,-3.332c-0.323,-0.951 -0.849,-1.665 -1.536,-2.221c-0.687,-0.515 -1.535,-0.753 -2.545,-0.753c-1.011,-0 -1.859,0.277 -2.546,0.793c-0.687,0.516 -1.212,1.269 -1.536,2.221c-0.363,0.952 -0.525,2.063 -0.525,3.292c0,1.269 0.162,2.38 0.525,3.332c0.364,0.952 0.889,1.705 1.576,2.26c0.687,0.556 1.536,0.794 2.506,0.794Z" style="fill:#f85555;fill-rule:nonzero;"/></g><g><path d="M870.765,1023.48c-0.969,-0 -1.778,-0.318 -2.424,-0.992c-0.687,-0.634 -1.051,-1.467 -1.01,-2.379c-0.041,-0.913 0.323,-1.706 1.01,-2.38c0.646,-0.635 1.455,-0.992 2.424,-0.992c0.889,0 1.698,0.357 2.385,0.992c0.686,0.674 1.05,1.467 1.05,2.38c0,0.634 -0.162,1.189 -0.485,1.705c-0.323,0.516 -0.727,0.912 -1.252,1.229c-0.526,0.278 -1.091,0.437 -1.698,0.437Z" style="fill:#f85555;fill-rule:nonzero;"/></g><g><path d="M915.734,1004.37l-6.303,-0c-0.122,-0.794 -0.324,-1.507 -0.687,-2.102c-0.364,-0.635 -0.809,-1.19 -1.374,-1.627c-0.526,-0.436 -1.172,-0.793 -1.9,-0.991c-0.727,-0.238 -1.495,-0.357 -2.343,-0.357c-1.536,-0 -2.869,0.357 -4.001,1.11c-1.131,0.714 -1.98,1.785 -2.626,3.213c-0.606,1.388 -0.93,3.094 -0.93,5.077c0,2.062 0.324,3.807 0.97,5.196c0.606,1.388 1.495,2.459 2.627,3.173c1.131,0.713 2.424,1.07 3.919,1.07c0.809,0 1.576,-0.119 2.304,-0.317c0.727,-0.238 1.333,-0.555 1.899,-0.952c0.566,-0.436 1.01,-0.952 1.374,-1.547c0.404,-0.595 0.646,-1.269 0.768,-2.062l6.303,0.04c-0.161,1.348 -0.565,2.617 -1.212,3.847c-0.647,1.19 -1.536,2.3 -2.586,3.252c-1.091,0.992 -2.384,1.745 -3.879,2.301c-1.495,0.555 -3.193,0.832 -5.092,0.832c-2.626,0 -4.97,-0.594 -7.031,-1.745c-2.061,-1.15 -3.677,-2.855 -4.889,-5.076c-1.172,-2.182 -1.778,-4.879 -1.778,-8.012c-0,-3.133 0.606,-5.791 1.818,-8.012c1.212,-2.221 2.829,-3.887 4.889,-5.037c2.102,-1.19 4.405,-1.745 6.991,-1.745c1.697,-0 3.314,0.238 4.768,0.674c1.455,0.476 2.748,1.15 3.88,2.063c1.131,0.912 2.02,1.983 2.747,3.292c0.728,1.308 1.172,2.776 1.374,4.442Z" style="fill:#f85555;fill-rule:nonzero;"/></g><g><path d="M925.201,1010.63l0,12.494l-6.101,-0l-0,-28.834l5.899,-0l0,11.026l0.283,-0c0.485,-1.27 1.293,-2.301 2.425,-3.015c1.091,-0.714 2.465,-1.11 4.162,-1.11c1.535,-0 2.869,0.357 4,0.991c1.132,0.675 2.021,1.587 2.667,2.816c0.647,1.19 0.93,2.658 0.93,4.363l-0,13.763l-6.102,-0l-0,-12.692c-0,-1.349 -0.323,-2.38 -1.01,-3.133c-0.687,-0.754 -1.657,-1.111 -2.91,-1.111c-0.848,0 -1.576,0.159 -2.222,0.516c-0.647,0.357 -1.132,0.872 -1.495,1.507c-0.364,0.674 -0.526,1.467 -0.526,2.419Z" style="fill:#f85555;fill-rule:nonzero;"/></g><g><path d="M952.997,1023.56c-2.263,0 -4.203,-0.476 -5.86,-1.388c-1.616,-0.873 -2.869,-2.181 -3.758,-3.847c-0.889,-1.666 -1.333,-3.649 -1.333,-5.91c-0,-2.221 0.444,-4.204 1.333,-5.87c0.889,-1.666 2.142,-2.975 3.718,-3.926c1.616,-0.952 3.475,-1.428 5.657,-1.428c1.455,-0 2.829,0.238 4.081,0.714c1.253,0.436 2.344,1.11 3.273,2.022c0.97,0.913 1.698,2.063 2.223,3.451c0.525,1.388 0.768,2.975 0.768,4.799l-0,1.666l-18.588,-0l-0,-3.728l12.85,-0c-0,-0.873 -0.202,-1.626 -0.566,-2.301c-0.404,-0.634 -0.929,-1.19 -1.616,-1.547c-0.647,-0.396 -1.455,-0.594 -2.344,-0.594c-0.889,-0 -1.738,0.237 -2.425,0.634c-0.727,0.436 -1.293,0.992 -1.697,1.706c-0.404,0.674 -0.606,1.467 -0.606,2.3l0,3.53c0,1.071 0.202,2.023 0.606,2.776c0.404,0.793 0.97,1.388 1.738,1.825c0.727,0.396 1.616,0.634 2.626,0.634c0.687,0 1.334,-0.119 1.9,-0.277c0.525,-0.199 1.01,-0.476 1.414,-0.873c0.444,-0.357 0.727,-0.833 0.929,-1.348l5.657,0.357c-0.282,1.308 -0.889,2.498 -1.737,3.49c-0.889,0.991 -2.021,1.745 -3.435,2.3c-1.374,0.555 -2.99,0.833 -4.808,0.833Z" style="fill:#f85555;fill-rule:nonzero;"/></g><g><path d="M976.451,1023.56c-2.263,0 -4.203,-0.476 -5.819,-1.428c-1.616,-0.952 -2.869,-2.26 -3.718,-3.926c-0.889,-1.706 -1.333,-3.61 -1.333,-5.831c-0,-2.181 0.444,-4.124 1.333,-5.83c0.889,-1.666 2.102,-2.975 3.718,-3.926c1.616,-0.952 3.556,-1.428 5.778,-1.428c1.94,-0 3.597,0.357 5.051,1.031c1.455,0.714 2.587,1.666 3.435,2.895c0.849,1.269 1.293,2.697 1.374,4.363l-5.738,0c-0.162,-1.071 -0.606,-1.943 -1.293,-2.618c-0.687,-0.634 -1.616,-0.991 -2.707,-0.991c-0.97,-0 -1.778,0.277 -2.506,0.753c-0.687,0.516 -1.252,1.23 -1.616,2.221c-0.404,0.952 -0.606,2.103 -0.606,3.451c-0,1.388 0.202,2.578 0.566,3.53c0.404,0.952 0.969,1.705 1.656,2.221c0.728,0.516 1.536,0.754 2.506,0.754c0.687,-0 1.293,-0.159 1.858,-0.437c0.566,-0.277 1.011,-0.674 1.415,-1.229c0.363,-0.516 0.606,-1.19 0.727,-1.944l5.738,0c-0.081,1.666 -0.525,3.094 -1.374,4.363c-0.808,1.269 -1.939,2.221 -3.354,2.935c-1.454,0.714 -3.152,1.071 -5.091,1.071Z" style="fill:#f85555;fill-rule:nonzero;"/></g><g><path d="M994.562,1016.9l0.041,-7.179l0.889,0l7.071,-8.21l6.991,0l-9.456,10.867l-1.495,0l-4.041,4.522Zm-5.495,6.227l-0,-28.834l6.102,-0l-0,28.834l-6.102,-0Zm13.739,-0l-6.466,-9.4l4.041,-4.244l9.577,13.644l-7.152,-0Z" style="fill:#f85555;fill-rule:nonzero;"/></g><g><path d="M1026.17,1031.22c-0.767,-0 -1.495,-0.079 -2.182,-0.198c-0.687,-0.119 -1.252,-0.278 -1.656,-0.437l1.373,-4.482c1.051,0.318 1.98,0.397 2.708,0.238c0.768,-0.119 1.333,-0.713 1.778,-1.665l0.363,-0.913l-7.92,-22.25l6.425,0l4.566,15.865l0.243,-0l4.606,-15.865l6.466,0l-8.567,23.956c-0.404,1.15 -0.97,2.142 -1.697,3.014c-0.687,0.873 -1.576,1.547 -2.626,2.023c-1.091,0.476 -2.385,0.714 -3.88,0.714Z" style="fill:#f85555;fill-rule:nonzero;"/></g><g><path d="M1054.1,1023.56c-2.223,0 -4.163,-0.476 -5.779,-1.428c-1.616,-0.912 -2.869,-2.221 -3.758,-3.887c-0.889,-1.705 -1.333,-3.649 -1.333,-5.87c-0,-2.221 0.444,-4.164 1.333,-5.87c0.889,-1.665 2.142,-2.974 3.758,-3.886c1.616,-0.952 3.556,-1.428 5.779,-1.428c2.222,-0 4.162,0.476 5.778,1.428c1.616,0.912 2.869,2.221 3.758,3.886c0.849,1.706 1.293,3.649 1.293,5.87c0,2.221 -0.444,4.165 -1.293,5.87c-0.889,1.666 -2.142,2.975 -3.758,3.887c-1.616,0.952 -3.556,1.428 -5.778,1.428Zm0.04,-4.68c1.01,-0 1.818,-0.278 2.505,-0.833c0.687,-0.555 1.213,-1.348 1.576,-2.34c0.323,-0.992 0.526,-2.102 0.526,-3.371c-0,-1.23 -0.203,-2.38 -0.526,-3.372c-0.363,-0.951 -0.889,-1.745 -1.576,-2.34c-0.687,-0.555 -1.495,-0.832 -2.505,-0.832c-1.051,-0 -1.899,0.277 -2.586,0.832c-0.728,0.595 -1.212,1.389 -1.576,2.34c-0.364,0.992 -0.525,2.142 -0.525,3.372c-0,1.269 0.161,2.379 0.525,3.371c0.364,0.992 0.848,1.785 1.576,2.34c0.687,0.555 1.535,0.833 2.586,0.833Z" style="fill:#f85555;fill-rule:nonzero;"/></g><g><path d="M1082.36,1013.92l0,-12.414l6.102,0l-0,21.616l-5.859,-0l-0,-3.927l-0.202,0c-0.526,1.269 -1.334,2.301 -2.506,3.054c-1.131,0.754 -2.546,1.15 -4.202,1.15c-1.455,0 -2.748,-0.317 -3.879,-0.991c-1.132,-0.635 -2.021,-1.587 -2.627,-2.776c-0.647,-1.23 -0.929,-2.697 -0.929,-4.363l-0,-13.763l6.101,0l0,12.692c0,1.269 0.324,2.3 1.051,3.014c0.687,0.754 1.616,1.111 2.748,1.111c0.727,-0 1.414,-0.159 2.06,-0.476c0.647,-0.357 1.172,-0.833 1.576,-1.507c0.405,-0.635 0.566,-1.468 0.566,-2.42Z" style="fill:#f85555;fill-rule:nonzero;"/></g><g><path d="M1091.74,1023.13l-0,-21.616l5.9,0l-0,3.768l0.242,-0c0.404,-1.349 1.051,-2.38 2.02,-3.054c0.93,-0.674 2.021,-1.031 3.273,-1.031c0.283,-0 0.607,-0 0.97,0.039c0.364,0.04 0.687,0.08 0.93,0.159l-0,5.315c-0.283,-0.08 -0.687,-0.159 -1.172,-0.199c-0.525,-0.079 -0.97,-0.119 -1.414,-0.119c-0.889,0 -1.698,0.199 -2.385,0.595c-0.727,0.357 -1.252,0.873 -1.656,1.547c-0.404,0.674 -0.606,1.468 -0.606,2.34l-0,12.256l-6.102,-0Z" style="fill:#f85555;fill-rule:nonzero;"/></g><g><path d="M1126.23,1023.48c-1.657,-0 -3.193,-0.437 -4.526,-1.269c-1.334,-0.873 -2.425,-2.102 -3.233,-3.768c-0.768,-1.666 -1.172,-3.689 -1.172,-6.108c0,-2.499 0.404,-4.561 1.213,-6.188c0.808,-1.665 1.899,-2.895 3.273,-3.728c1.333,-0.793 2.828,-1.229 4.445,-1.229c1.212,-0 2.262,0.238 3.071,0.634c0.848,0.397 1.535,0.913 2.02,1.507c0.525,0.595 0.889,1.19 1.172,1.785l0.202,0l-0,-10.827l6.102,-0l-0,28.834l-6.021,-0l-0,-3.451l-0.283,0c-0.283,0.595 -0.687,1.19 -1.212,1.745c-0.526,0.595 -1.213,1.071 -2.021,1.468c-0.808,0.396 -1.818,0.595 -3.03,0.595Zm1.939,-4.799c1.01,-0 1.819,-0.238 2.506,-0.794c0.686,-0.515 1.212,-1.269 1.575,-2.221c0.364,-0.952 0.566,-2.062 0.566,-3.371c0,-1.269 -0.202,-2.38 -0.566,-3.332c-0.323,-0.951 -0.848,-1.665 -1.535,-2.221c-0.687,-0.515 -1.536,-0.753 -2.546,-0.753c-1.01,-0 -1.859,0.277 -2.546,0.793c-0.686,0.516 -1.212,1.269 -1.535,2.221c-0.364,0.952 -0.525,2.063 -0.525,3.292c-0,1.269 0.161,2.38 0.525,3.332c0.364,0.952 0.889,1.705 1.576,2.26c0.687,0.556 1.535,0.794 2.505,0.794Z" style="fill:#f85555;fill-rule:nonzero;"/></g><g><path d="M1149.49,1023.52c-1.414,0 -2.667,-0.238 -3.758,-0.713c-1.091,-0.476 -1.98,-1.19 -2.586,-2.142c-0.646,-0.952 -0.97,-2.142 -0.97,-3.57c0,-1.229 0.202,-2.221 0.647,-3.054c0.485,-0.793 1.091,-1.467 1.859,-1.943c0.767,-0.516 1.656,-0.873 2.626,-1.15c1.01,-0.238 2.061,-0.437 3.152,-0.516c1.253,-0.159 2.303,-0.278 3.071,-0.397c0.808,-0.119 1.374,-0.277 1.738,-0.515c0.323,-0.238 0.525,-0.595 0.525,-1.031l0,-0.08c0,-0.912 -0.283,-1.586 -0.849,-2.102c-0.606,-0.476 -1.373,-0.714 -2.424,-0.714c-1.091,0 -1.98,0.238 -2.627,0.714c-0.646,0.476 -1.091,1.071 -1.293,1.785l-5.657,-0.476c0.283,-1.309 0.849,-2.419 1.697,-3.411c0.849,-0.952 1.94,-1.705 3.273,-2.221c1.334,-0.516 2.869,-0.793 4.607,-0.793c1.253,-0 2.424,0.158 3.556,0.436c1.131,0.278 2.101,0.714 2.99,1.309c0.849,0.595 1.576,1.348 2.061,2.261c0.525,0.951 0.768,2.062 0.768,3.331l-0,14.596l-5.779,-0l0,-3.014l-0.202,-0c-0.363,0.674 -0.808,1.269 -1.414,1.784c-0.566,0.516 -1.293,0.913 -2.142,1.19c-0.808,0.317 -1.778,0.436 -2.869,0.436Zm1.738,-4.124c0.929,-0 1.697,-0.159 2.384,-0.516c0.687,-0.357 1.253,-0.833 1.616,-1.468c0.404,-0.594 0.606,-1.269 0.606,-2.022l0,-2.301c-0.202,0.119 -0.444,0.238 -0.767,0.318c-0.364,0.119 -0.728,0.198 -1.132,0.277c-0.404,0.08 -0.808,0.159 -1.212,0.199c-0.445,0.079 -0.808,0.119 -1.131,0.198c-0.728,0.079 -1.334,0.238 -1.9,0.476c-0.525,0.238 -0.929,0.515 -1.252,0.912c-0.283,0.397 -0.445,0.833 -0.445,1.428c0,0.793 0.323,1.428 0.93,1.864c0.606,0.436 1.373,0.635 2.303,0.635Z" style="fill:#f85555;fill-rule:nonzero;"/></g><g><path d="M1177.73,1001.51l-0,4.482l-13.294,-0l-0,-4.482l13.294,0Zm-10.264,-5.196l6.102,0l-0,20.149c-0,0.555 0.081,0.991 0.242,1.308c0.202,0.318 0.445,0.516 0.728,0.635c0.323,0.119 0.687,0.198 1.091,0.198c0.283,0 0.565,-0.039 0.848,-0.079c0.324,-0.079 0.526,-0.119 0.687,-0.119l0.97,4.442c-0.323,0.119 -0.768,0.238 -1.293,0.357c-0.566,0.119 -1.253,0.198 -2.061,0.238c-1.455,0.04 -2.748,-0.159 -3.839,-0.595c-1.131,-0.436 -1.98,-1.11 -2.586,-2.062c-0.606,-0.912 -0.929,-2.102 -0.889,-3.53l0,-20.942Z" style="fill:#f85555;fill-rule:nonzero;"/></g><g><path d="M1186.97,1023.52c-1.414,0 -2.667,-0.238 -3.758,-0.713c-1.091,-0.476 -1.98,-1.19 -2.586,-2.142c-0.647,-0.952 -0.97,-2.142 -0.97,-3.57c0,-1.229 0.202,-2.221 0.647,-3.054c0.485,-0.793 1.091,-1.467 1.858,-1.943c0.768,-0.516 1.657,-0.873 2.627,-1.15c1.01,-0.238 2.061,-0.437 3.152,-0.516c1.252,-0.159 2.303,-0.278 3.071,-0.397c0.808,-0.119 1.374,-0.277 1.737,-0.515c0.324,-0.238 0.526,-0.595 0.526,-1.031l-0,-0.08c-0,-0.912 -0.283,-1.586 -0.849,-2.102c-0.606,-0.476 -1.374,-0.714 -2.424,-0.714c-1.091,0 -1.98,0.238 -2.627,0.714c-0.646,0.476 -1.091,1.071 -1.293,1.785l-5.657,-0.476c0.283,-1.309 0.848,-2.419 1.697,-3.411c0.849,-0.952 1.94,-1.705 3.273,-2.221c1.334,-0.516 2.869,-0.793 4.607,-0.793c1.252,-0 2.424,0.158 3.556,0.436c1.131,0.278 2.101,0.714 2.99,1.309c0.848,0.595 1.576,1.348 2.061,2.261c0.525,0.951 0.767,2.062 0.767,3.331l0,14.596l-5.778,-0l0,-3.014l-0.202,-0c-0.364,0.674 -0.808,1.269 -1.414,1.784c-0.566,0.516 -1.293,0.913 -2.142,1.19c-0.808,0.317 -1.778,0.436 -2.869,0.436Zm1.738,-4.124c0.929,-0 1.697,-0.159 2.384,-0.516c0.687,-0.357 1.252,-0.833 1.616,-1.468c0.404,-0.594 0.606,-1.269 0.606,-2.022l0,-2.301c-0.202,0.119 -0.444,0.238 -0.768,0.318c-0.363,0.119 -0.727,0.198 -1.131,0.277c-0.404,0.08 -0.808,0.159 -1.212,0.199c-0.445,0.079 -0.808,0.119 -1.132,0.198c-0.727,0.079 -1.333,0.238 -1.899,0.476c-0.525,0.238 -0.929,0.515 -1.253,0.912c-0.282,0.397 -0.444,0.833 -0.444,1.428c-0,0.793 0.323,1.428 0.929,1.864c0.606,0.436 1.374,0.635 2.304,0.635Z" style="fill:#f85555;fill-rule:nonzero;"/></g><g><path d="M1207.05,1023.48c-0.97,-0 -1.778,-0.318 -2.424,-0.992c-0.687,-0.634 -1.051,-1.467 -1.011,-2.379c-0.04,-0.913 0.324,-1.706 1.011,-2.38c0.646,-0.635 1.454,-0.992 2.424,-0.992c0.889,0 1.697,0.357 2.384,0.992c0.687,0.674 1.051,1.467 1.051,2.38c-0,0.634 -0.162,1.189 -0.485,1.705c-0.323,0.516 -0.727,0.912 -1.253,1.229c-0.525,0.278 -1.091,0.437 -1.697,0.437Z" style="fill:#f85555;fill-rule:nonzero;"/></g></g><g><g><path d="M1127.2,850.259c0,-14.391 -11.679,-26.075 -26.067,-26.075l-462.567,0c-14.386,0 -26.066,11.684 -26.066,26.075l0,52.15c0,14.391 11.68,26.075 26.066,26.075l462.567,0c14.388,0 26.067,-11.684 26.067,-26.075l0,-52.15Z" style="fill:#76f5c0;stroke:#212529;stroke-width:12.5px;"/><g><g><path d="M808.593,868.542c-0.164,-1.631 -0.821,-2.869 -2.026,-3.769c-1.204,-0.9 -2.792,-1.35 -4.764,-1.35c-1.423,-0 -2.573,0.225 -3.504,0.618c-0.986,0.394 -1.697,0.957 -2.19,1.632c-0.493,0.675 -0.712,1.463 -0.767,2.363c0,0.731 0.164,1.35 0.493,1.913c0.329,0.562 0.767,1.013 1.369,1.406c0.602,0.394 1.259,0.732 2.026,1.013c0.766,0.281 1.588,0.506 2.464,0.731l3.559,0.844c1.752,0.45 3.34,0.957 4.764,1.632c1.478,0.675 2.738,1.463 3.778,2.475c1.095,0.957 1.916,2.082 2.519,3.432c0.547,1.294 0.876,2.813 0.876,4.501c-0,2.532 -0.602,4.67 -1.862,6.527c-1.205,1.8 -2.957,3.263 -5.256,4.219c-2.3,1.013 -5.093,1.519 -8.323,1.519c-3.231,0 -6.024,-0.506 -8.433,-1.519c-2.354,-1.013 -4.216,-2.475 -5.53,-4.501c-1.314,-1.969 -2.026,-4.444 -2.081,-7.37l8.159,0c0.055,1.35 0.438,2.476 1.15,3.376c0.657,0.956 1.588,1.631 2.737,2.081c1.15,0.45 2.41,0.675 3.888,0.675c1.424,0 2.683,-0.225 3.724,-0.618c1.04,-0.45 1.861,-1.013 2.464,-1.801c0.547,-0.731 0.876,-1.631 0.876,-2.588c-0,-0.956 -0.274,-1.688 -0.822,-2.306c-0.492,-0.676 -1.259,-1.182 -2.299,-1.632c-0.986,-0.45 -2.191,-0.844 -3.669,-1.182l-4.326,-1.125c-3.34,-0.844 -6.023,-2.138 -7.939,-3.938c-1.972,-1.8 -2.903,-4.163 -2.903,-7.201c0,-2.476 0.658,-4.67 1.917,-6.47c1.314,-1.857 3.121,-3.32 5.421,-4.389c2.245,-1.012 4.873,-1.519 7.775,-1.519c2.957,0 5.531,0.507 7.721,1.519c2.19,1.069 3.942,2.532 5.147,4.389c1.259,1.856 1.862,3.994 1.916,6.413l-8.049,0Z" style="fill:#212529;fill-rule:nonzero;"/></g><g><path d="M840.887,884.633l0,-17.61l8.269,0l-0,30.663l-7.94,-0l-0,-5.57l-0.274,-0c-0.712,1.8 -1.807,3.263 -3.395,4.332c-1.533,1.069 -3.449,1.631 -5.694,1.631c-1.972,0 -3.724,-0.45 -5.257,-1.406c-1.533,-0.9 -2.738,-2.251 -3.559,-3.938c-0.876,-1.745 -1.259,-3.826 -1.259,-6.189l-0,-19.523l8.268,0l-0,18.004c-0,1.8 0.438,3.263 1.423,4.276c0.931,1.069 2.191,1.575 3.724,1.575c0.985,-0 1.916,-0.225 2.792,-0.675c0.876,-0.507 1.588,-1.182 2.136,-2.138c0.547,-0.9 0.766,-2.082 0.766,-3.432Z" style="fill:#212529;fill-rule:nonzero;"/></g><g><path d="M853.698,897.686l0,-40.902l8.269,-0l-0,15.359l0.273,0c0.384,-0.844 0.876,-1.688 1.588,-2.532c0.712,-0.844 1.588,-1.575 2.738,-2.138c1.095,-0.562 2.519,-0.9 4.162,-0.9c2.19,0 4.216,0.619 6.023,1.744c1.861,1.182 3.34,2.926 4.435,5.289c1.095,2.307 1.643,5.232 1.643,8.777c-0,3.431 -0.548,6.301 -1.588,8.664c-1.095,2.363 -2.519,4.107 -4.381,5.345c-1.807,1.181 -3.887,1.8 -6.132,1.8c-1.588,-0 -2.957,-0.281 -4.107,-0.844c-1.095,-0.563 -2.026,-1.238 -2.738,-2.082c-0.712,-0.787 -1.259,-1.631 -1.643,-2.475l-0.383,-0l0,4.895l-8.159,-0Zm8.104,-15.36c0,1.857 0.274,3.432 0.767,4.782c0.493,1.351 1.205,2.42 2.135,3.151c0.931,0.788 2.081,1.125 3.395,1.125c1.369,0 2.519,-0.337 3.45,-1.125c0.931,-0.788 1.643,-1.857 2.081,-3.207c0.492,-1.35 0.766,-2.925 0.766,-4.726c0,-1.744 -0.274,-3.319 -0.712,-4.669c-0.492,-1.351 -1.204,-2.42 -2.135,-3.151c-0.931,-0.731 -2.081,-1.125 -3.45,-1.125c-1.369,-0 -2.464,0.337 -3.395,1.069c-0.93,0.787 -1.642,1.8 -2.135,3.15c-0.493,1.351 -0.767,2.926 -0.767,4.726Z" style="fill:#212529;fill-rule:nonzero;"/></g><g><path d="M887.578,897.686l0,-30.663l7.885,0l-0,5.401l0.328,0c0.603,-1.8 1.643,-3.263 3.122,-4.275c1.423,-1.013 3.175,-1.576 5.201,-1.576c2.026,0 3.778,0.563 5.257,1.576c1.424,1.068 2.354,2.475 2.847,4.275l0.329,0c0.602,-1.744 1.697,-3.207 3.285,-4.219c1.588,-1.069 3.504,-1.632 5.695,-1.632c2.792,0 5.037,0.957 6.789,2.757c1.753,1.8 2.629,4.388 2.629,7.708l-0,20.648l-8.268,-0l-0,-18.96c-0,-1.688 -0.438,-2.982 -1.315,-3.826c-0.876,-0.844 -1.971,-1.294 -3.285,-1.294c-1.533,-0 -2.683,0.506 -3.559,1.463c-0.821,1.012 -1.259,2.306 -1.259,3.882l-0,18.735l-7.995,-0l0,-19.129c0,-1.519 -0.438,-2.701 -1.259,-3.601c-0.876,-0.9 -1.971,-1.35 -3.34,-1.35c-0.931,-0 -1.752,0.225 -2.464,0.731c-0.712,0.45 -1.314,1.125 -1.753,1.969c-0.383,0.844 -0.602,1.857 -0.602,2.982l0,18.398l-8.268,-0Z" style="fill:#212529;fill-rule:nonzero;"/></g><g><path d="M935.123,897.686l0,-30.663l8.323,0l0,30.663l-8.323,-0Zm4.217,-34.657c-1.26,-0 -2.3,-0.394 -3.176,-1.238c-0.876,-0.844 -1.314,-1.857 -1.314,-3.038c-0,-1.182 0.438,-2.194 1.314,-3.038c0.876,-0.844 1.916,-1.294 3.121,-1.294c1.259,-0 2.3,0.45 3.176,1.294c0.876,0.844 1.314,1.856 1.314,3.038c-0,1.181 -0.438,2.194 -1.314,3.038c-0.876,0.844 -1.917,1.238 -3.121,1.238Z" style="fill:#212529;fill-rule:nonzero;"/></g><g><path d="M964.047,867.023l-0,6.358l-18.015,-0l-0,-6.358l18.015,0Zm-13.908,-7.37l8.268,0l-0,28.581c-0,0.787 0.109,1.406 0.328,1.856c0.274,0.45 0.603,0.732 0.986,0.9c0.438,0.169 0.931,0.282 1.478,0.282c0.384,-0 0.767,-0.056 1.15,-0.113c0.438,-0.112 0.712,-0.169 0.931,-0.169l1.314,6.302c-0.438,0.168 -1.04,0.337 -1.752,0.506c-0.767,0.169 -1.698,0.281 -2.793,0.338c-1.971,0.056 -3.723,-0.225 -5.201,-0.844c-1.534,-0.619 -2.684,-1.576 -3.505,-2.926c-0.821,-1.294 -1.259,-2.982 -1.204,-5.007l-0,-29.706Z" style="fill:#212529;fill-rule:nonzero;"/></g></g></g></g></g></g></svg>