<?xml version="1.0" encoding="UTF-8" standalone="no"?><!DOCTYPE svg PUBLIC "-//W3C//DTD SVG 1.1//EN" "http://www.w3.org/Graphics/SVG/1.1/DTD/svg11.dtd"><svg width="100%" height="100%" viewBox="0 0 420 298" version="1.1" xmlns="http://www.w3.org/2000/svg" xmlns:xlink="http://www.w3.org/1999/xlink" xml:space="preserve" xmlns:serif="http://www.serif.com/" style="fill-rule:evenodd;clip-rule:evenodd;stroke-linecap:round;stroke-linejoin:round;stroke-miterlimit:1.5;"><rect id="Artboard1" x="0" y="0" width="419.528" height="297.638" style="fill:none;"/><clipPath id="_clip1"><rect x="0" y="0" width="419.528" height="297.638"/></clipPath><g clip-path="url(#_clip1)"><g><rect x="0" y="0" width="419.528" height="297.639" style="fill:#ada7ff;"/><g><path d="M366.026,57.198c0,-16.603 -20.393,-30.083 -45.512,-30.083l-211.025,0c-25.119,0 -45.512,13.48 -45.512,30.083l-0,241.469c-0,16.604 20.393,30.083 45.512,30.083l211.025,0c25.119,0 45.512,-13.479 45.512,-30.083l0,-241.469Z" style="fill:#f8f9fa;stroke:#212529;stroke-width:7.69px;"/></g><g><g><g><g><path d="M273.678,152.094c-0,-3.277 -3.207,-5.938 -7.156,-5.938l-126.989,0c-3.949,0 -7.155,2.661 -7.155,5.938l-0,11.875c-0,3.278 3.206,5.938 7.155,5.938l126.989,0c3.949,0 7.156,-2.66 7.156,-5.938l-0,-11.875Z" style="fill:#fff;stroke:#212529;stroke-width:3.15px;"/><g transform="matrix(1,0,0,0.981527,0,2.96752)"><text x="139.16px" y="160.642px" style="font-family:'Inter-Regular', 'Inter', sans-serif;font-size:9.959px;fill:#616d79;">e.g. Jane Doe</text></g><g transform="matrix(1,0,0,0.981527,0,2.57477)"><text x="133.135px" y="139.381px" style="font-family:'Inter-Regular_Bold', 'Inter', sans-serif;font-size:11.782px;fill:#212529;">Name</text></g></g><g><path d="M273.678,208.106c-0,-3.278 -3.207,-5.938 -7.156,-5.938l-126.989,-0c-3.949,-0 -7.155,2.66 -7.155,5.938l-0,11.875c-0,3.277 3.206,5.938 7.155,5.938l126.989,-0c3.949,-0 7.156,-2.661 7.156,-5.938l-0,-11.875Z" style="fill:#fff;stroke:#212529;stroke-width:3.15px;"/><g transform="matrix(1,0,0,0.981527,0,3.61032)"><text x="131.549px" y="195.439px" style="font-family:'Inter-Regular_Bold', 'Inter', sans-serif;font-size:13.075px;fill:#212529;">Email</text></g><g transform="matrix(1,0,0,0.981527,0,4.64745)"><text x="130.925px" y="251.583px" style="font-family:'Inter-Regular_Bold', 'Inter', sans-serif;font-size:13.075px;fill:#212529;">Phone</text></g><g transform="matrix(1,0,0,0.981527,0,4.00221)"><text x="139.785px" y="216.654px" style="font-family:'Inter-Regular', 'Inter', sans-serif;font-size:9.959px;fill:#616d79;">e.g. jane.doe@gmail.com</text></g></g><g><path d="M273.053,263.494c0,-3.277 -3.206,-5.938 -7.156,-5.938l-126.988,0c-3.95,0 -7.156,2.661 -7.156,5.938l0,11.875c0,3.278 3.206,5.938 7.156,5.938l126.988,0c3.95,0 7.156,-2.66 7.156,-5.938l0,-11.875Z" style="fill:#fff;stroke:#212529;stroke-width:3.15px;"/><g transform="matrix(1,0,0,0.981527,0,5.02539)"><text x="139.16px" y="272.042px" style="font-family:'Inter-Regular', 'Inter', sans-serif;font-size:9.959px;fill:#616d79;">e.g. 01 23456 7<tspan x="218.899px " y="272.042px ">8</tspan>9</text></g></g><g transform="matrix(1,0,0,0.981527,0,2.06198)"><text x="131.272px" y="111.622px" style="font-family:'Inter-Regular_Bold', 'Inter', sans-serif;font-size:17.32px;fill:#212529;">I. Contact Details</text></g></g></g></g><g><g><g transform="matrix(1,0,0,0.963182,0,2.72327)"><text x="147.332px" y="73.966px" style="font-family:'Inter-Regular_Bold', 'Inter', sans-serif;font-size:36.338px;fill:#212529;">Sign Up</text></g></g></g><path d="M132.369,115.481l139.032,-0" style="fill:#212529;stroke:#212529;stroke-width:1.5px;"/></g></g></svg>