<?xml version="1.0" encoding="UTF-8" standalone="no"?><!DOCTYPE svg PUBLIC "-//W3C//DTD SVG 1.1//EN" "http://www.w3.org/Graphics/SVG/1.1/DTD/svg11.dtd"><svg width="100%" height="100%" viewBox="0 0 1749 1241" version="1.1" xmlns="http://www.w3.org/2000/svg" xmlns:xlink="http://www.w3.org/1999/xlink" xml:space="preserve" xmlns:serif="http://www.serif.com/" style="fill-rule:evenodd;clip-rule:evenodd;stroke-linecap:round;stroke-linejoin:round;stroke-miterlimit:1.5;"><rect id="Artboard1" x="0" y="-0" width="1748.03" height="1240.16" style="fill:none;"/><clipPath id="_clip1"><rect x="0" y="-0" width="1748.03" height="1240.16"/></clipPath><g clip-path="url(#_clip1)"><g><rect x="0" y="0" width="1748.03" height="1240.16" style="fill:#ada7ff;"/><g><path d="M1525.11,238.326c-0,-69.179 -84.972,-125.345 -189.635,-125.345l-879.272,0c-104.662,0 -189.634,56.166 -189.634,125.345l0,1006.12c0,69.18 84.972,125.345 189.634,125.345l879.272,0c104.663,0 189.635,-56.165 189.635,-125.345l-0,-1006.12Z" style="fill:#f8f9fa;stroke:#212529;stroke-width:32.06px;"/></g><g><g><path d="M734.046,247.403c-0.284,-2.859 -1.505,-5.085 -3.661,-6.676c-2.157,-1.591 -5.075,-2.386 -8.754,-2.386c-2.509,-0 -4.632,0.354 -6.367,1.061c-1.735,0.708 -3.055,1.675 -3.96,2.902c-0.904,1.226 -1.363,2.623 -1.377,4.19c-0.029,1.302 0.254,2.44 0.848,3.413c0.594,0.973 1.427,1.809 2.497,2.507c1.07,0.699 2.303,1.299 3.7,1.801c1.397,0.501 2.884,0.93 4.46,1.285l6.534,1.562c3.173,0.711 6.085,1.66 8.736,2.849c2.652,1.188 4.953,2.648 6.903,4.378c1.951,1.731 3.465,3.768 4.542,6.112c1.078,2.344 1.623,5.028 1.638,8.054c-0.015,4.441 -1.142,8.29 -3.381,11.548c-2.24,3.257 -5.46,5.779 -9.662,7.564c-4.203,1.785 -9.268,2.677 -15.196,2.677c-5.876,0 -10.984,-0.897 -15.323,-2.691c-4.34,-1.795 -7.72,-4.462 -10.142,-8.001c-2.422,-3.539 -3.697,-7.93 -3.825,-13.171l14.887,-0c0.165,2.434 0.871,4.463 2.116,6.087c1.245,1.624 2.911,2.843 4.996,3.657c2.086,0.815 4.459,1.222 7.121,1.222c2.609,-0 4.874,-0.377 6.797,-1.129c1.922,-0.753 3.416,-1.802 4.481,-3.147c1.066,-1.344 1.605,-2.902 1.619,-4.673c-0.014,-1.634 -0.5,-3.006 -1.459,-4.116c-0.959,-1.11 -2.354,-2.057 -4.187,-2.841c-1.832,-0.784 -4.07,-1.495 -6.711,-2.134l-7.927,-1.961c-6.136,-1.491 -10.979,-3.827 -14.528,-7.006c-3.548,-3.179 -5.315,-7.454 -5.301,-12.823c-0.014,-4.399 1.17,-8.247 3.554,-11.545c2.385,-3.298 5.659,-5.868 9.823,-7.709c4.164,-1.842 8.9,-2.763 14.208,-2.763c5.398,-0 10.111,0.923 14.14,2.77c4.03,1.846 7.173,4.416 9.429,7.709c2.256,3.294 3.415,7.102 3.476,11.424l-14.744,0Z" style="fill-rule:nonzero;"/><path d="M758.094,299.222l0,-54.546l15.128,0l0,54.546l-15.128,-0Zm7.635,-61.577c-2.249,-0 -4.178,-0.752 -5.788,-2.255c-1.61,-1.503 -2.415,-3.309 -2.415,-5.416c0,-2.083 0.805,-3.876 2.415,-5.38c1.61,-1.503 3.527,-2.255 5.753,-2.255c2.273,0 4.208,0.752 5.806,2.255c1.598,1.504 2.397,3.297 2.397,5.38c-0,2.107 -0.799,3.913 -2.397,5.416c-1.598,1.503 -3.522,2.255 -5.771,2.255Z" style="fill-rule:nonzero;"/><path d="M806.404,320.472c-4.9,-0 -9.101,-0.664 -12.603,-1.992c-3.501,-1.329 -6.28,-3.118 -8.338,-5.37c-2.057,-2.251 -3.391,-4.75 -4.002,-7.496l14.005,-1.875c0.417,0.98 1.085,1.916 2.003,2.809c0.919,0.892 2.142,1.622 3.669,2.191c1.527,0.568 3.396,0.852 5.607,0.852c3.281,-0 5.995,-0.781 8.143,-2.344c2.147,-1.562 3.221,-4.133 3.221,-7.713l-0,-9.971l-0.625,-0c-0.673,1.505 -1.674,2.936 -3.004,4.293c-1.331,1.356 -3.033,2.462 -5.107,3.317c-2.074,0.854 -4.56,1.282 -7.458,1.282c-4.09,-0 -7.811,-0.957 -11.161,-2.87c-3.35,-1.913 -6.015,-4.836 -7.997,-8.771c-1.982,-3.935 -2.972,-8.928 -2.972,-14.979c-0,-6.184 1.007,-11.342 3.022,-15.476c2.014,-4.133 4.699,-7.232 8.054,-9.296c3.355,-2.065 7.03,-3.097 11.026,-3.097c3.04,-0 5.59,0.515 7.65,1.545c2.059,1.029 3.726,2.305 4.999,3.828c1.274,1.522 2.247,3.026 2.92,4.513l0.596,0l0,-9.176l15,0l-0,55.086c-0,4.531 -1.138,8.334 -3.413,11.409c-2.275,3.076 -5.418,5.395 -9.428,6.957c-4.011,1.563 -8.613,2.344 -13.807,2.344Zm0.313,-33.381c2.424,0 4.487,-0.609 6.189,-1.829c1.703,-1.219 3.005,-2.971 3.907,-5.255c0.902,-2.285 1.353,-5.028 1.353,-8.228c-0,-3.192 -0.446,-5.968 -1.339,-8.328c-0.893,-2.36 -2.19,-4.19 -3.892,-5.49c-1.702,-1.3 -3.775,-1.95 -6.218,-1.95c-2.501,-0 -4.602,0.669 -6.304,2.007c-1.702,1.337 -2.99,3.191 -3.863,5.561c-0.874,2.37 -1.311,5.103 -1.311,8.2c0,3.134 0.442,5.846 1.325,8.135c0.883,2.289 2.175,4.058 3.877,5.306c1.703,1.247 3.794,1.871 6.276,1.871Z" style="fill-rule:nonzero;"/><path d="M857.881,267.687l0,31.535l-15.113,-0l-0,-54.546l14.403,0l0,9.631l0.625,-0c1.221,-3.182 3.251,-5.701 6.09,-7.557c2.839,-1.856 6.282,-2.784 10.331,-2.784c3.792,-0 7.098,0.83 9.918,2.489c2.819,1.66 5.009,4.021 6.569,7.085c1.56,3.063 2.333,6.709 2.319,10.937l0,34.745l-15.113,-0l-0,-32.046c0.014,-3.333 -0.84,-5.942 -2.561,-7.827c-1.721,-1.884 -4.096,-2.827 -7.127,-2.827c-2.036,0 -3.831,0.442 -5.387,1.325c-1.555,0.883 -2.766,2.157 -3.633,3.821c-0.866,1.664 -1.307,3.671 -1.321,6.019Z" style="fill-rule:nonzero;"/><path d="M974.615,226.494l15.369,0l-0,47.216c-0,5.313 -1.258,9.959 -3.775,13.939c-2.516,3.979 -6.036,7.073 -10.557,9.282c-4.522,2.209 -9.792,3.313 -15.81,3.313c-6.047,0 -11.331,-1.104 -15.853,-3.313c-4.521,-2.209 -8.033,-5.303 -10.536,-9.282c-2.502,-3.98 -3.753,-8.626 -3.753,-13.939l-0,-47.216l15.369,0l0,45.909c0,2.77 0.611,5.236 1.832,7.397c1.222,2.162 2.942,3.856 5.16,5.082c2.218,1.226 4.812,1.84 7.781,1.84c2.983,-0 5.582,-0.614 7.798,-1.84c2.216,-1.226 3.933,-2.92 5.149,-5.082c1.217,-2.161 1.826,-4.627 1.826,-7.397l-0,-45.909Z" style="fill-rule:nonzero;"/><path d="M1003.56,319.676l-0,-75l14.914,0l-0,9.176l0.653,0c0.673,-1.487 1.641,-2.991 2.905,-4.513c1.265,-1.523 2.922,-2.799 4.972,-3.828c2.05,-1.03 4.595,-1.545 7.635,-1.545c3.996,-0 7.671,1.034 11.026,3.104c3.355,2.069 6.039,5.182 8.054,9.339c2.015,4.157 3.022,9.356 3.022,15.596c0,6.09 -0.979,11.222 -2.937,15.398c-1.958,4.176 -4.609,7.337 -7.954,9.482c-3.345,2.145 -7.092,3.217 -11.24,3.217c-2.935,0 -5.425,-0.486 -7.468,-1.459c-2.043,-0.973 -3.714,-2.197 -5.014,-3.672c-1.3,-1.475 -2.3,-2.965 -3.001,-4.471l-0.454,0l0,29.176l-15.113,0Zm14.8,-47.727c0,3.238 0.451,6.064 1.353,8.477c0.902,2.412 2.204,4.287 3.907,5.625c1.702,1.337 3.765,2.006 6.189,2.006c2.482,0 4.573,-0.68 6.275,-2.042c1.703,-1.361 2.995,-3.253 3.878,-5.675c0.883,-2.422 1.325,-5.219 1.325,-8.391c-0,-3.154 -0.437,-5.927 -1.311,-8.321c-0.873,-2.393 -2.161,-4.261 -3.863,-5.603c-1.702,-1.343 -3.804,-2.014 -6.304,-2.014c-2.443,-0 -4.516,0.652 -6.218,1.957c-1.702,1.304 -2.999,3.148 -3.892,5.532c-0.893,2.385 -1.339,5.201 -1.339,8.449Z" style="fill-rule:nonzero;"/></g></g><g><g><path d="M1131.87,456.052c0,-14.387 -11.681,-26.068 -26.068,-26.068l-462.611,0c-14.387,0 -26.068,11.681 -26.068,26.068l0,52.136c0,14.389 11.681,26.07 26.068,26.07l462.611,-0c14.387,-0 26.068,-11.681 26.068,-26.07l0,-52.136Z" style="fill:#fff;stroke:#212529;stroke-width:12.5px;"/></g><g><path d="M687.974,464.722l-0,36.364l-4.262,-0l-19.815,-28.551l-0.355,-0l-0,28.551l-4.404,-0l0,-36.364l4.262,0l19.886,28.622l0.355,0l0,-28.622l4.333,0Z" style="fill:#727272;fill-rule:nonzero;"/><path d="M704.238,501.725c-1.728,0 -3.297,-0.328 -4.705,-0.985c-1.409,-0.657 -2.528,-1.61 -3.356,-2.859c-0.829,-1.249 -1.243,-2.761 -1.243,-4.537c-0,-1.562 0.308,-2.832 0.923,-3.808c0.616,-0.977 1.438,-1.743 2.468,-2.3c1.03,-0.556 2.169,-0.973 3.418,-1.251c1.249,-0.279 2.507,-0.5 3.773,-0.666c1.658,-0.213 3.004,-0.376 4.04,-0.488c1.035,-0.113 1.793,-0.305 2.272,-0.578c0.48,-0.272 0.72,-0.745 0.72,-1.42l-0,-0.142c-0,-1.752 -0.477,-3.113 -1.43,-4.084c-0.953,-0.971 -2.394,-1.456 -4.323,-1.456c-2.001,0 -3.569,0.438 -4.706,1.314c-1.136,0.876 -1.935,1.811 -2.397,2.805l-3.977,-1.42c0.71,-1.657 1.66,-2.95 2.85,-3.88c1.19,-0.929 2.492,-1.58 3.906,-1.953c1.415,-0.373 2.809,-0.559 4.182,-0.559c0.876,-0 1.885,0.104 3.027,0.311c1.142,0.207 2.249,0.63 3.32,1.269c1.072,0.639 1.962,1.604 2.673,2.894c0.71,1.291 1.065,3.019 1.065,5.185l-0,17.969l-4.19,-0l-0,-3.693l-0.214,-0c-0.284,0.592 -0.757,1.225 -1.42,1.9c-0.663,0.674 -1.545,1.248 -2.646,1.722c-1.1,0.473 -2.444,0.71 -4.03,0.71Zm0.639,-3.764c1.657,-0 3.057,-0.326 4.199,-0.977c1.143,-0.651 2.007,-1.491 2.593,-2.521c0.586,-1.03 0.879,-2.113 0.879,-3.249l-0,-3.836c-0.178,0.214 -0.566,0.406 -1.163,0.578c-0.598,0.171 -1.285,0.319 -2.06,0.443c-0.775,0.125 -1.527,0.231 -2.255,0.32c-0.728,0.089 -1.317,0.163 -1.767,0.222c-1.089,0.142 -2.104,0.37 -3.045,0.684c-0.941,0.313 -1.698,0.781 -2.273,1.402c-0.574,0.622 -0.861,1.465 -0.861,2.53c0,1.456 0.542,2.554 1.625,3.294c1.083,0.74 2.459,1.11 4.128,1.11Z" style="fill:#727272;fill-rule:nonzero;"/><path d="M724.408,501.086l0,-27.273l4.049,0l-0,4.261l0.355,0c0.568,-1.455 1.485,-2.589 2.752,-3.4c1.266,-0.811 2.788,-1.216 4.563,-1.216c1.799,-0 3.3,0.405 4.501,1.216c1.202,0.811 2.14,1.945 2.814,3.4l0.285,0c0.698,-1.408 1.746,-2.53 3.142,-3.364c1.397,-0.835 3.072,-1.252 5.025,-1.252c2.439,-0 4.433,0.761 5.984,2.282c1.551,1.521 2.326,3.885 2.326,7.093l-0,18.253l-4.19,-0l-0,-18.253c-0,-2.012 -0.551,-3.451 -1.652,-4.315c-1.101,-0.864 -2.397,-1.296 -3.888,-1.296c-1.918,0 -3.403,0.577 -4.457,1.731c-1.053,1.154 -1.58,2.613 -1.58,4.377l-0,17.756l-4.262,-0l0,-18.679c0,-1.551 -0.503,-2.803 -1.509,-3.755c-1.006,-0.953 -2.302,-1.43 -3.888,-1.43c-1.089,0 -2.104,0.29 -3.045,0.87c-0.941,0.58 -1.699,1.382 -2.273,2.406c-0.574,1.024 -0.861,2.205 -0.861,3.542l-0,17.046l-4.191,-0Z" style="fill:#727272;fill-rule:nonzero;"/><path d="M779.309,501.654c-2.628,0 -4.892,-0.583 -6.792,-1.749c-1.899,-1.166 -3.361,-2.799 -4.385,-4.9c-1.024,-2.102 -1.536,-4.549 -1.536,-7.342c-0,-2.794 0.512,-5.259 1.536,-7.396c1.024,-2.136 2.456,-3.805 4.297,-5.007c1.84,-1.201 3.992,-1.802 6.454,-1.802c1.42,-0 2.823,0.237 4.208,0.71c1.385,0.474 2.646,1.24 3.782,2.3c1.136,1.059 2.042,2.459 2.717,4.199c0.674,1.74 1.012,3.882 1.012,6.427l-0,1.776l-21.023,-0l-0,-3.622l16.761,-0c0,-1.539 -0.305,-2.912 -0.914,-4.12c-0.61,-1.207 -1.474,-2.16 -2.593,-2.858c-1.118,-0.699 -2.435,-1.048 -3.95,-1.048c-1.669,0 -3.11,0.412 -4.324,1.234c-1.213,0.823 -2.145,1.891 -2.796,3.205c-0.651,1.314 -0.977,2.723 -0.977,4.226l0,2.415c0,2.059 0.358,3.802 1.074,5.229c0.717,1.426 1.714,2.509 2.992,3.249c1.279,0.74 2.764,1.11 4.457,1.11c1.101,-0 2.098,-0.157 2.992,-0.471c0.894,-0.313 1.666,-0.787 2.317,-1.42c0.651,-0.633 1.154,-1.424 1.509,-2.371l4.048,1.137c-0.426,1.373 -1.142,2.577 -2.148,3.613c-1.006,1.036 -2.249,1.841 -3.729,2.415c-1.479,0.574 -3.142,0.861 -4.989,0.861Z" style="fill:#727272;fill-rule:nonzero;"/></g></g><g><path d="M1131.87,625.147c0,-14.388 -11.681,-26.068 -26.068,-26.068l-462.611,-0c-14.387,-0 -26.068,11.68 -26.068,26.068l0,52.136c0,14.387 11.681,26.068 26.068,26.068l462.611,0c14.387,0 26.068,-11.681 26.068,-26.068l0,-52.136Z" style="fill:#fff;stroke:#212529;stroke-width:12.5px;"/><g><path d="M652.037,670.18l0,-36.364l21.946,0l0,3.907l-17.542,-0l-0,12.286l16.406,0l-0,3.907l-16.406,-0l-0,12.358l17.826,-0l0,3.906l-22.23,-0Z" style="fill:#727272;fill-rule:nonzero;"/><path d="M681.37,670.18l-0,-27.273l4.048,0l-0,4.262l0.355,-0c0.568,-1.456 1.486,-2.59 2.752,-3.401c1.267,-0.811 2.788,-1.216 4.563,-1.216c1.8,0 3.3,0.405 4.501,1.216c1.202,0.811 2.14,1.945 2.815,3.401l0.284,-0c0.698,-1.409 1.746,-2.531 3.143,-3.365c1.396,-0.835 3.071,-1.252 5.024,-1.252c2.439,0 4.433,0.761 5.984,2.282c1.551,1.521 2.326,3.885 2.326,7.093l0,18.253l-4.19,-0l-0,-18.253c-0,-2.012 -0.551,-3.45 -1.652,-4.315c-1.1,-0.864 -2.397,-1.296 -3.888,-1.296c-1.918,0 -3.403,0.577 -4.457,1.731c-1.053,1.155 -1.58,2.613 -1.58,4.377l-0,17.756l-4.261,-0l-0,-18.679c-0,-1.551 -0.503,-2.803 -1.51,-3.755c-1.006,-0.953 -2.302,-1.43 -3.888,-1.43c-1.089,0 -2.104,0.29 -3.045,0.87c-0.941,0.58 -1.699,1.382 -2.273,2.406c-0.574,1.024 -0.861,2.205 -0.861,3.542l-0,17.046l-4.19,-0Z" style="fill:#727272;fill-rule:nonzero;"/><path d="M732.861,670.819c-1.728,0 -3.297,-0.328 -4.705,-0.985c-1.409,-0.657 -2.527,-1.61 -3.356,-2.859c-0.829,-1.249 -1.243,-2.761 -1.243,-4.537c0,-1.562 0.308,-2.832 0.923,-3.808c0.616,-0.977 1.439,-1.743 2.468,-2.3c1.03,-0.556 2.17,-0.973 3.418,-1.251c1.249,-0.278 2.507,-0.5 3.774,-0.666c1.657,-0.213 3.003,-0.376 4.039,-0.488c1.036,-0.113 1.793,-0.305 2.273,-0.577c0.479,-0.273 0.719,-0.746 0.719,-1.421l-0,-0.142c-0,-1.752 -0.477,-3.113 -1.43,-4.084c-0.952,-0.97 -2.394,-1.456 -4.323,-1.456c-2.001,0 -3.569,0.438 -4.705,1.314c-1.137,0.876 -1.936,1.811 -2.397,2.806l-3.978,-1.421c0.711,-1.657 1.661,-2.95 2.85,-3.88c1.19,-0.929 2.492,-1.58 3.906,-1.953c1.415,-0.373 2.809,-0.559 4.182,-0.559c0.876,0 1.885,0.104 3.027,0.311c1.142,0.207 2.249,0.63 3.321,1.269c1.071,0.64 1.962,1.604 2.672,2.894c0.71,1.291 1.065,3.019 1.065,5.185l0,17.969l-4.19,-0l-0,-3.693l-0.213,-0c-0.284,0.592 -0.758,1.225 -1.421,1.9c-0.663,0.674 -1.545,1.248 -2.645,1.722c-1.101,0.473 -2.445,0.71 -4.031,0.71Zm0.639,-3.764c1.657,-0 3.057,-0.326 4.2,-0.977c1.142,-0.651 2.006,-1.491 2.592,-2.521c0.586,-1.03 0.879,-2.113 0.879,-3.249l-0,-3.835c-0.178,0.213 -0.565,0.405 -1.163,0.577c-0.598,0.171 -1.285,0.319 -2.06,0.443c-0.775,0.125 -1.527,0.231 -2.255,0.32c-0.728,0.089 -1.317,0.163 -1.767,0.222c-1.089,0.142 -2.104,0.37 -3.045,0.684c-0.941,0.313 -1.698,0.781 -2.272,1.402c-0.574,0.622 -0.862,1.465 -0.862,2.531c0,1.455 0.542,2.553 1.625,3.293c1.083,0.74 2.459,1.11 4.128,1.11Z" style="fill:#727272;fill-rule:nonzero;"/><path d="M753.032,670.18l-0,-27.273l4.19,0l-0,27.273l-4.19,-0Zm2.13,-31.818c-0.817,-0 -1.518,-0.278 -2.104,-0.835c-0.586,-0.556 -0.879,-1.225 -0.879,-2.006c0,-0.781 0.293,-1.45 0.879,-2.007c0.586,-0.556 1.287,-0.834 2.104,-0.834c0.817,-0 1.518,0.278 2.104,0.834c0.586,0.557 0.879,1.226 0.879,2.007c0,0.781 -0.293,1.45 -0.879,2.006c-0.586,0.557 -1.287,0.835 -2.104,0.835Z" style="fill:#727272;fill-rule:nonzero;"/><rect x="764.892" y="633.816" width="4.19" height="36.364" style="fill:#727272;fill-rule:nonzero;"/></g></g><g><g><path d="M1131.87,794.241c0,-14.388 -11.681,-26.068 -26.068,-26.068l-462.611,-0c-14.387,-0 -26.068,11.68 -26.068,26.068l0,52.136c0,14.387 11.681,26.068 26.068,26.068l462.611,-0c14.387,-0 26.068,-11.681 26.068,-26.068l0,-52.136Z" style="fill:#fff;stroke:#212529;stroke-width:12.5px;"/><path d="M676.895,814.273c-0.39,-1.195 -0.902,-2.269 -1.536,-3.222c-0.633,-0.953 -1.385,-1.767 -2.255,-2.442c-0.87,-0.674 -1.855,-1.189 -2.956,-1.544c-1.101,-0.355 -2.308,-0.533 -3.622,-0.533c-2.155,-0 -4.114,0.556 -5.877,1.669c-1.764,1.113 -3.167,2.752 -4.208,4.918c-1.042,2.167 -1.563,4.824 -1.563,7.973c0,3.148 0.527,5.806 1.58,7.972c1.054,2.166 2.48,3.806 4.279,4.918c1.8,1.113 3.824,1.669 6.073,1.669c2.083,0 3.921,-0.447 5.513,-1.34c1.592,-0.894 2.835,-2.161 3.729,-3.8c0.893,-1.639 1.34,-3.572 1.34,-5.797l1.35,0.284l-10.938,-0l0,-3.906l13.85,-0l-0,3.906c-0,2.995 -0.637,5.599 -1.909,7.812c-1.273,2.214 -3.024,3.927 -5.256,5.141c-2.231,1.213 -4.791,1.82 -7.679,1.82c-3.22,-0 -6.046,-0.758 -8.478,-2.273c-2.433,-1.515 -4.327,-3.67 -5.682,-6.463c-1.356,-2.794 -2.033,-6.108 -2.033,-9.943c-0,-2.877 0.387,-5.466 1.163,-7.768c0.775,-2.303 1.873,-4.265 3.293,-5.886c1.421,-1.622 3.102,-2.865 5.043,-3.729c1.941,-0.864 4.078,-1.296 6.41,-1.296c1.917,-0 3.708,0.287 5.371,0.861c1.663,0.574 3.149,1.385 4.457,2.432c1.308,1.048 2.4,2.297 3.276,3.747c0.875,1.45 1.479,3.057 1.811,4.82l-4.546,0Z" style="fill:#727272;fill-rule:nonzero;"/><path d="M700.049,839.842c-2.628,-0 -4.892,-0.583 -6.792,-1.749c-1.9,-1.166 -3.362,-2.8 -4.386,-4.901c-1.024,-2.101 -1.536,-4.548 -1.536,-7.342c0,-2.793 0.512,-5.258 1.536,-7.395c1.024,-2.137 2.457,-3.806 4.297,-5.007c1.841,-1.202 3.992,-1.802 6.454,-1.802c1.421,-0 2.824,0.236 4.209,0.71c1.384,0.473 2.645,1.24 3.781,2.299c1.137,1.06 2.042,2.459 2.717,4.199c0.675,1.74 1.012,3.883 1.012,6.428l0,1.776l-21.023,-0l0,-3.623l16.762,0c-0,-1.538 -0.305,-2.912 -0.915,-4.119c-0.609,-1.207 -1.473,-2.16 -2.592,-2.859c-1.119,-0.698 -2.435,-1.047 -3.951,-1.047c-1.669,-0 -3.11,0.411 -4.323,1.234c-1.213,0.823 -2.146,1.891 -2.797,3.205c-0.651,1.314 -0.976,2.722 -0.976,4.226l-0,2.414c-0,2.06 0.358,3.803 1.074,5.229c0.716,1.427 1.713,2.51 2.992,3.25c1.278,0.74 2.764,1.109 4.457,1.109c1.1,0 2.098,-0.156 2.991,-0.47c0.894,-0.314 1.666,-0.787 2.318,-1.421c0.651,-0.633 1.154,-1.423 1.509,-2.37l4.048,1.136c-0.426,1.374 -1.142,2.578 -2.148,3.614c-1.007,1.035 -2.249,1.84 -3.729,2.415c-1.48,0.574 -3.143,0.861 -4.989,0.861Z" style="fill:#727272;fill-rule:nonzero;"/><path d="M721.924,822.867l-0,16.406l-4.191,0l0,-27.272l4.049,-0l-0,4.261l0.355,0c0.639,-1.385 1.61,-2.5 2.912,-3.347c1.302,-0.846 2.983,-1.269 5.042,-1.269c1.847,-0 3.463,0.375 4.848,1.127c1.384,0.752 2.462,1.888 3.231,3.409c0.769,1.521 1.154,3.442 1.154,5.762l0,17.329l-4.19,0l-0,-17.045c-0,-2.143 -0.557,-3.815 -1.669,-5.016c-1.113,-1.201 -2.64,-1.802 -4.581,-1.802c-1.338,-0 -2.53,0.29 -3.578,0.87c-1.048,0.58 -1.873,1.426 -2.477,2.539c-0.604,1.113 -0.905,2.462 -0.905,4.048Z" style="fill:#727272;fill-rule:nonzero;"/><path d="M757.293,839.842c-2.273,-0 -4.279,-0.577 -6.019,-1.732c-1.74,-1.154 -3.102,-2.787 -4.084,-4.9c-0.983,-2.113 -1.474,-4.614 -1.474,-7.502c0,-2.864 0.491,-5.35 1.474,-7.457c0.982,-2.107 2.35,-3.735 4.102,-4.883c1.751,-1.148 3.776,-1.722 6.072,-1.722c1.776,-0 3.181,0.293 4.217,0.879c1.036,0.585 1.829,1.248 2.379,1.988c0.551,0.74 0.98,1.347 1.287,1.82l0.356,0l-0,-13.423l4.19,-0l-0,36.363l-4.048,0l-0,-4.19l-0.498,0c-0.307,0.497 -0.745,1.122 -1.313,1.873c-0.569,0.752 -1.379,1.421 -2.433,2.007c-1.053,0.586 -2.456,0.879 -4.208,0.879Zm0.568,-3.765c1.681,0 3.101,-0.44 4.261,-1.322c1.161,-0.882 2.042,-2.107 2.646,-3.676c0.604,-1.568 0.906,-3.382 0.906,-5.442c-0,-2.036 -0.296,-3.82 -0.888,-5.353c-0.592,-1.533 -1.468,-2.729 -2.628,-3.587c-1.16,-0.858 -2.592,-1.287 -4.297,-1.287c-1.775,-0 -3.252,0.453 -4.43,1.358c-1.178,0.906 -2.06,2.131 -2.646,3.676c-0.585,1.544 -0.878,3.275 -0.878,5.193c-0,1.941 0.298,3.702 0.896,5.282c0.598,1.581 1.486,2.835 2.664,3.765c1.177,0.929 2.642,1.393 4.394,1.393Z" style="fill:#727272;fill-rule:nonzero;"/><path d="M789.466,839.842c-2.628,-0 -4.891,-0.583 -6.791,-1.749c-1.9,-1.166 -3.362,-2.8 -4.386,-4.901c-1.024,-2.101 -1.536,-4.548 -1.536,-7.342c0,-2.793 0.512,-5.258 1.536,-7.395c1.024,-2.137 2.456,-3.806 4.297,-5.007c1.841,-1.202 3.992,-1.802 6.454,-1.802c1.421,-0 2.823,0.236 4.208,0.71c1.385,0.473 2.646,1.24 3.782,2.299c1.137,1.06 2.042,2.459 2.717,4.199c0.675,1.74 1.012,3.883 1.012,6.428l-0,1.776l-21.023,-0l0,-3.623l16.762,0c-0,-1.538 -0.305,-2.912 -0.915,-4.119c-0.61,-1.207 -1.474,-2.16 -2.592,-2.859c-1.119,-0.698 -2.436,-1.047 -3.951,-1.047c-1.669,-0 -3.11,0.411 -4.323,1.234c-1.214,0.823 -2.146,1.891 -2.797,3.205c-0.651,1.314 -0.976,2.722 -0.976,4.226l-0,2.414c-0,2.06 0.358,3.803 1.074,5.229c0.716,1.427 1.713,2.51 2.992,3.25c1.278,0.74 2.764,1.109 4.456,1.109c1.101,0 2.098,-0.156 2.992,-0.47c0.894,-0.314 1.666,-0.787 2.317,-1.421c0.651,-0.633 1.154,-1.423 1.509,-2.37l4.049,1.136c-0.426,1.374 -1.143,2.578 -2.149,3.614c-1.006,1.035 -2.249,1.84 -3.728,2.415c-1.48,0.574 -3.143,0.861 -4.99,0.861Z" style="fill:#727272;fill-rule:nonzero;"/><path d="M807.151,839.273l-0,-27.272l4.048,-0l0,4.119l0.284,0c0.497,-1.349 1.397,-2.444 2.699,-3.285c1.302,-0.84 2.77,-1.26 4.404,-1.26c0.307,-0 0.692,0.006 1.154,0.017c0.461,0.012 0.811,0.03 1.047,0.054l0,4.261c-0.142,-0.036 -0.464,-0.092 -0.967,-0.169c-0.503,-0.077 -1.033,-0.115 -1.59,-0.115c-1.325,-0 -2.506,0.275 -3.542,0.826c-1.036,0.55 -1.852,1.308 -2.45,2.272c-0.598,0.965 -0.897,2.063 -0.897,3.294l0,17.258l-4.19,0Z" style="fill:#727272;fill-rule:nonzero;"/></g></g><g><g><path d="M1131.87,963.334c0,-14.388 -11.681,-26.068 -26.068,-26.068l-462.611,0c-14.387,0 -26.068,11.68 -26.068,26.068l0,52.136c0,14.387 11.681,26.068 26.068,26.068l462.611,0c14.387,0 26.068,-11.681 26.068,-26.068l0,-52.136Z" style="fill:#76f5c0;stroke:#212529;stroke-width:12.5px;"/><path d="M813.726,982.458c-0.142,-1.43 -0.752,-2.543 -1.83,-3.338c-1.079,-0.796 -2.537,-1.193 -4.377,-1.193c-1.255,-0 -2.316,0.177 -3.183,0.53c-0.868,0.354 -1.528,0.838 -1.98,1.451c-0.453,0.613 -0.682,1.312 -0.689,2.095c-0.015,0.651 0.127,1.22 0.424,1.707c0.297,0.486 0.713,0.904 1.248,1.253c0.535,0.35 1.152,0.65 1.851,0.9c0.698,0.251 1.441,0.466 2.23,0.643l3.267,0.781c1.586,0.356 3.042,0.83 4.368,1.424c1.325,0.595 2.476,1.325 3.451,2.19c0.976,0.865 1.733,1.884 2.271,3.056c0.539,1.172 0.812,2.514 0.819,4.027c-0.007,2.22 -0.571,4.145 -1.691,5.774c-1.119,1.628 -2.73,2.889 -4.831,3.782c-2.101,0.892 -4.633,1.338 -7.598,1.338c-2.938,0 -5.491,-0.448 -7.661,-1.345c-2.17,-0.898 -3.86,-2.231 -5.071,-4.001c-1.211,-1.769 -1.848,-3.965 -1.912,-6.585l7.443,-0c0.083,1.217 0.435,2.231 1.058,3.043c0.623,0.812 1.455,1.422 2.498,1.829c1.043,0.407 2.23,0.611 3.56,0.611c1.305,-0 2.438,-0.189 3.399,-0.565c0.961,-0.376 1.708,-0.901 2.241,-1.573c0.532,-0.673 0.802,-1.451 0.809,-2.337c-0.007,-0.817 -0.25,-1.503 -0.729,-2.058c-0.48,-0.555 -1.178,-1.028 -2.094,-1.42c-0.916,-0.392 -2.035,-0.748 -3.356,-1.067l-3.963,-0.981c-3.068,-0.745 -5.489,-1.913 -7.264,-3.503c-1.774,-1.589 -2.658,-3.727 -2.651,-6.411c-0.007,-2.2 0.586,-4.124 1.778,-5.773c1.192,-1.649 2.829,-2.934 4.911,-3.854c2.082,-0.921 4.45,-1.382 7.104,-1.382c2.699,0 5.055,0.462 7.07,1.385c2.015,0.923 3.586,2.208 4.714,3.855c1.128,1.647 1.708,3.55 1.739,5.712l-7.373,-0Z" style="fill:#212529;fill-rule:nonzero;"/><path d="M843.244,996.748l-0,-15.654l7.556,0l0,27.273l-7.258,0l-0,-4.957l-0.284,-0c-0.611,1.598 -1.63,2.883 -3.058,3.854c-1.427,0.972 -3.164,1.458 -5.209,1.458c-1.825,0 -3.431,-0.413 -4.817,-1.239c-1.386,-0.826 -2.467,-2.005 -3.243,-3.537c-0.775,-1.532 -1.166,-3.358 -1.173,-5.479l-0,-17.373l7.557,0l-0,16.023c0.007,1.605 0.438,2.875 1.294,3.81c0.856,0.936 2.001,1.403 3.436,1.403c0.906,0 1.756,-0.211 2.548,-0.634c0.792,-0.422 1.433,-1.047 1.924,-1.875c0.492,-0.827 0.734,-1.852 0.727,-3.073Z" style="fill:#212529;fill-rule:nonzero;"/><path d="M854.948,1008.37l0,-36.364l7.557,0l-0,13.679l0.227,0c0.336,-0.743 0.821,-1.495 1.453,-2.256c0.632,-0.762 1.46,-1.4 2.485,-1.914c1.025,-0.515 2.298,-0.773 3.818,-0.773c1.998,0 3.836,0.517 5.513,1.552c1.677,1.035 3.02,2.591 4.027,4.67c1.007,2.078 1.511,4.678 1.511,7.798c0,3.045 -0.489,5.611 -1.468,7.699c-0.979,2.088 -2.305,3.668 -3.978,4.741c-1.672,1.072 -3.545,1.608 -5.619,1.608c-1.468,0 -2.713,-0.243 -3.734,-0.729c-1.022,-0.487 -1.858,-1.099 -2.508,-1.836c-0.649,-0.738 -1.15,-1.483 -1.5,-2.236l-0.327,0l0,4.361l-7.457,0Zm7.401,-13.636c-0,1.619 0.225,3.032 0.676,4.238c0.451,1.206 1.102,2.144 1.953,2.813c0.851,0.668 1.883,1.003 3.095,1.003c1.241,-0 2.287,-0.341 3.138,-1.021c0.851,-0.681 1.497,-1.627 1.939,-2.838c0.441,-1.211 0.662,-2.609 0.662,-4.195c0,-1.577 -0.218,-2.964 -0.655,-4.161c-0.437,-1.196 -1.081,-2.13 -1.932,-2.802c-0.851,-0.671 -1.902,-1.006 -3.152,-1.006c-1.221,-0 -2.258,0.326 -3.109,0.978c-0.851,0.652 -1.5,1.574 -1.946,2.766c-0.446,1.193 -0.669,2.601 -0.669,4.225Z" style="fill:#212529;fill-rule:nonzero;"/><path d="M885.843,1008.37l0,-27.273l7.202,0l-0,4.816l0.312,-0c0.568,-1.606 1.518,-2.869 2.848,-3.789c1.331,-0.921 2.919,-1.382 4.766,-1.382c1.87,0 3.461,0.466 4.773,1.398c1.311,0.931 2.187,2.189 2.627,3.773l0.284,-0c0.557,-1.565 1.565,-2.818 3.026,-3.759c1.461,-0.941 3.189,-1.412 5.185,-1.412c2.545,0 4.616,0.809 6.212,2.426c1.597,1.617 2.396,3.905 2.396,6.864l-0,18.338l-7.557,0l-0,-16.847c-0,-1.522 -0.401,-2.66 -1.204,-3.414c-0.802,-0.754 -1.807,-1.131 -3.015,-1.131c-1.371,-0 -2.443,0.435 -3.215,1.305c-0.773,0.87 -1.16,2.016 -1.16,3.439l0,16.648l-7.329,0l-0,-17.017c-0,-1.338 -0.383,-2.401 -1.147,-3.191c-0.765,-0.789 -1.77,-1.184 -3.015,-1.184c-0.841,-0 -1.595,0.208 -2.262,0.625c-0.668,0.417 -1.197,1.002 -1.586,1.756c-0.389,0.754 -0.584,1.636 -0.584,2.647l-0,16.364l-7.557,0Z" style="fill:#212529;fill-rule:nonzero;"/><path d="M929.302,1008.37l-0,-27.273l7.564,0l-0,27.273l-7.564,0Zm3.817,-30.788c-1.124,-0 -2.089,-0.376 -2.894,-1.128c-0.805,-0.751 -1.207,-1.654 -1.207,-2.708c-0,-1.041 0.402,-1.938 1.207,-2.69c0.805,-0.751 1.764,-1.127 2.877,-1.127c1.136,-0 2.104,0.376 2.903,1.127c0.799,0.752 1.198,1.649 1.198,2.69c0,1.054 -0.399,1.957 -1.198,2.708c-0.799,0.752 -1.761,1.128 -2.886,1.128Z" style="fill:#212529;fill-rule:nonzero;"/><path d="M955.673,981.094l-0,5.682l-16.435,0l-0,-5.682l16.435,0Zm-12.699,-6.534l7.557,0l-0,25.419c-0,0.701 0.108,1.245 0.326,1.632c0.218,0.387 0.519,0.657 0.902,0.81c0.384,0.152 0.827,0.229 1.328,0.229c0.363,-0 0.722,-0.032 1.078,-0.096c0.356,-0.064 0.627,-0.117 0.812,-0.16l1.193,5.639c-0.377,0.121 -0.91,0.261 -1.6,0.419c-0.69,0.159 -1.525,0.256 -2.505,0.292c-1.823,0.071 -3.419,-0.172 -4.787,-0.727c-1.369,-0.555 -2.432,-1.421 -3.189,-2.597c-0.758,-1.177 -1.129,-2.654 -1.115,-4.432l-0,-26.428Z" style="fill:#212529;fill-rule:nonzero;"/></g></g></g></g></svg>