<?xml version="1.0" encoding="UTF-8" standalone="no"?>
<!DOCTYPE svg PUBLIC "-//W3C//DTD SVG 1.1//EN" "http://www.w3.org/Graphics/SVG/1.1/DTD/svg11.dtd">
<svg width="100%" height="100%" viewBox="0 0 420 298" version="1.1" xmlns="http://www.w3.org/2000/svg" xmlns:xlink="http://www.w3.org/1999/xlink" xml:space="preserve" xmlns:serif="http://www.serif.com/" style="fill-rule:evenodd;clip-rule:evenodd;stroke-linecap:round;stroke-linejoin:round;stroke-miterlimit:1.5;">
    <g id="Artboard1" transform="matrix(1.17911,0,0,1.62776,-206.48,876.003)">
        <rect x="175.115" y="-538.165" width="355.799" height="182.851" style="fill:none;"/>
        <clipPath id="_clip1">
            <rect x="175.115" y="-538.165" width="355.799" height="182.851"/>
        </clipPath>
        <g clip-path="url(#_clip1)">
            <g transform="matrix(0.203543,0,0,0.147442,175.115,-538.165)">
                <rect x="-0" y="0" width="1748.03" height="1240.16" style="fill:rgb(173,167,255);"/>
                <g transform="matrix(1.5129,0,0,1,-426.46,-50)">
                    <path d="M1289.95,288.326C1289.95,219.147 1233.79,162.981 1164.61,162.981L583.423,162.981C514.244,162.981 458.079,219.147 458.079,288.326L458.079,1294.45C458.079,1363.63 514.244,1419.79 583.423,1419.79L1164.61,1419.79C1233.79,1419.79 1289.95,1363.63 1289.95,1294.45L1289.95,288.326Z" style="fill:rgb(248,249,250);stroke:rgb(33,37,41);stroke-width:25px;"/>
                </g>
                <g transform="matrix(0.930387,0,0,0.930387,99.2377,29.4349)">
                    <g transform="matrix(1.43769,0,0,1.19297,-362.854,-224.938)">
                        <path d="M1105.3,748.418C1105.3,734.03 1093.62,722.35 1079.23,722.35L616.621,722.35C602.234,722.35 590.553,734.03 590.553,748.418L590.553,800.554C590.553,814.941 602.234,826.622 616.621,826.622L1079.23,826.622C1093.62,826.622 1105.3,814.941 1105.3,800.554L1105.3,748.418Z" style="fill:white;stroke:rgb(33,37,41);stroke-width:12.5px;"/>
                    </g>
                    <g>
                        <g>
                            <g transform="matrix(1.43769,0,0,1.19297,-362.854,-23.2137)">
                                <g>
                                    <path d="M1105.3,748.418C1105.3,734.03 1093.62,722.35 1079.23,722.35L616.621,722.35C602.234,722.35 590.553,734.03 590.553,748.418L590.553,800.554C590.553,814.941 602.234,826.622 616.621,826.622L1079.23,826.622C1093.62,826.622 1105.3,814.941 1105.3,800.554L1105.3,748.418Z" style="fill:white;stroke:rgb(33,37,41);stroke-width:12.5px;"/>
                                </g>
                            </g>
                            <g transform="matrix(1.43769,0,0,1.19297,-362.854,-168.561)">
                                <g>
                                    <path d="M1105.3,532.066C1105.3,517.679 1093.62,505.998 1079.23,505.998L616.621,505.998C602.234,505.998 590.553,517.679 590.553,532.066L590.553,584.202C590.553,598.59 602.234,610.271 616.621,610.271L1079.23,610.271C1093.62,610.271 1105.3,598.59 1105.3,584.202L1105.3,532.066Z" style="fill:white;stroke:rgb(33,37,41);stroke-width:12.5px;"/>
                                </g>
                                <g transform="matrix(1.16634,0,0,1.37963,626.742,582.778)">
                                    <g transform="matrix(50,0,0,50,0,0)">
                                        <path d="M0.665,-0.727L0.665,-0L0.58,-0L0.183,-0.571L0.176,-0.571L0.176,-0L0.088,-0L0.088,-0.727L0.173,-0.727L0.571,-0.155L0.578,-0.155L0.578,-0.727L0.665,-0.727Z" style="fill:rgb(114,114,114);fill-rule:nonzero;"/>
                                    </g>
                                    <g transform="matrix(50,0,0,50,37.642,0)">
                                        <path d="M0.237,0.013C0.203,0.013 0.171,0.006 0.143,-0.007C0.115,-0.02 0.093,-0.039 0.076,-0.064C0.059,-0.089 0.051,-0.119 0.051,-0.155C0.051,-0.186 0.057,-0.211 0.07,-0.231C0.082,-0.251 0.098,-0.266 0.119,-0.277C0.14,-0.288 0.162,-0.296 0.187,-0.302C0.212,-0.308 0.237,-0.312 0.263,-0.315C0.296,-0.32 0.323,-0.323 0.344,-0.325C0.364,-0.327 0.379,-0.331 0.389,-0.337C0.399,-0.342 0.403,-0.352 0.403,-0.365L0.403,-0.368C0.403,-0.403 0.394,-0.43 0.375,-0.45C0.356,-0.469 0.327,-0.479 0.288,-0.479C0.248,-0.479 0.217,-0.47 0.194,-0.452C0.172,-0.435 0.156,-0.416 0.146,-0.396L0.067,-0.425C0.081,-0.458 0.1,-0.484 0.124,-0.502C0.148,-0.521 0.174,-0.534 0.202,-0.541C0.23,-0.549 0.258,-0.553 0.286,-0.553C0.303,-0.553 0.323,-0.55 0.346,-0.546C0.369,-0.542 0.391,-0.534 0.412,-0.521C0.434,-0.508 0.452,-0.489 0.466,-0.463C0.48,-0.437 0.487,-0.403 0.487,-0.359L0.487,-0L0.403,-0L0.403,-0.074L0.399,-0.074C0.393,-0.062 0.384,-0.049 0.371,-0.036C0.357,-0.022 0.34,-0.011 0.318,-0.001C0.296,0.008 0.269,0.013 0.237,0.013ZM0.25,-0.063C0.283,-0.063 0.311,-0.069 0.334,-0.082C0.357,-0.095 0.374,-0.112 0.386,-0.132C0.398,-0.153 0.403,-0.175 0.403,-0.197L0.403,-0.274C0.4,-0.27 0.392,-0.266 0.38,-0.263C0.368,-0.259 0.354,-0.256 0.339,-0.254C0.323,-0.251 0.308,-0.249 0.294,-0.247C0.279,-0.246 0.268,-0.244 0.259,-0.243C0.237,-0.24 0.216,-0.235 0.198,-0.229C0.179,-0.223 0.164,-0.214 0.152,-0.201C0.141,-0.189 0.135,-0.172 0.135,-0.151C0.135,-0.121 0.146,-0.099 0.167,-0.085C0.189,-0.07 0.217,-0.063 0.25,-0.063Z" style="fill:rgb(114,114,114);fill-rule:nonzero;"/>
                                    </g>
                                    <g transform="matrix(50,0,0,50,65.8381,0)">
                                        <path d="M0.077,-0L0.077,-0.545L0.158,-0.545L0.158,-0.46L0.165,-0.46C0.176,-0.489 0.194,-0.512 0.22,-0.528C0.245,-0.544 0.276,-0.553 0.311,-0.553C0.347,-0.553 0.377,-0.544 0.401,-0.528C0.425,-0.512 0.444,-0.489 0.457,-0.46L0.463,-0.46C0.477,-0.488 0.498,-0.511 0.526,-0.528C0.554,-0.544 0.587,-0.553 0.626,-0.553C0.675,-0.553 0.715,-0.537 0.746,-0.507C0.777,-0.477 0.793,-0.429 0.793,-0.365L0.793,-0L0.709,-0L0.709,-0.365C0.709,-0.405 0.698,-0.434 0.676,-0.451C0.654,-0.469 0.628,-0.477 0.598,-0.477C0.56,-0.477 0.53,-0.466 0.509,-0.443C0.488,-0.42 0.477,-0.39 0.477,-0.355L0.477,-0L0.392,-0L0.392,-0.374C0.392,-0.405 0.382,-0.43 0.362,-0.449C0.342,-0.468 0.316,-0.477 0.284,-0.477C0.262,-0.477 0.242,-0.471 0.223,-0.46C0.204,-0.448 0.189,-0.432 0.178,-0.412C0.166,-0.391 0.161,-0.368 0.161,-0.341L0.161,-0L0.077,-0Z" style="fill:rgb(114,114,114);fill-rule:nonzero;"/>
                                    </g>
                                    <g transform="matrix(50,0,0,50,109.304,0)">
                                        <path d="M0.305,0.011C0.253,0.011 0.208,-0 0.17,-0.024C0.132,-0.047 0.102,-0.08 0.082,-0.122C0.061,-0.164 0.051,-0.213 0.051,-0.268C0.051,-0.324 0.061,-0.374 0.082,-0.416C0.102,-0.459 0.131,-0.492 0.168,-0.517C0.205,-0.541 0.248,-0.553 0.297,-0.553C0.325,-0.553 0.353,-0.548 0.381,-0.538C0.409,-0.529 0.434,-0.514 0.457,-0.492C0.479,-0.471 0.498,-0.443 0.511,-0.408C0.525,-0.374 0.531,-0.331 0.531,-0.28L0.531,-0.244L0.111,-0.244L0.111,-0.317L0.446,-0.317C0.446,-0.348 0.44,-0.375 0.428,-0.399C0.416,-0.423 0.398,-0.442 0.376,-0.456C0.354,-0.47 0.327,-0.477 0.297,-0.477C0.263,-0.477 0.235,-0.469 0.21,-0.453C0.186,-0.436 0.167,-0.415 0.154,-0.388C0.141,-0.362 0.135,-0.334 0.135,-0.304L0.135,-0.256C0.135,-0.214 0.142,-0.18 0.156,-0.151C0.171,-0.123 0.191,-0.101 0.216,-0.086C0.242,-0.071 0.272,-0.064 0.305,-0.064C0.327,-0.064 0.347,-0.067 0.365,-0.073C0.383,-0.08 0.399,-0.089 0.412,-0.102C0.425,-0.114 0.435,-0.13 0.442,-0.149L0.523,-0.126C0.514,-0.099 0.5,-0.075 0.48,-0.054C0.46,-0.033 0.435,-0.017 0.405,-0.006C0.376,0.006 0.342,0.011 0.305,0.011Z" style="fill:rgb(114,114,114);fill-rule:nonzero;"/>
                                    </g>
                                </g>
                                <g transform="matrix(1.16634,0,0,1.37963,626.742,751.872)">
                                    <g transform="matrix(50,0,0,50,0,0)">
                                        <path d="M0.088,-0L0.088,-0.727L0.527,-0.727L0.527,-0.649L0.176,-0.649L0.176,-0.403L0.504,-0.403L0.504,-0.325L0.176,-0.325L0.176,-0.078L0.533,-0.078L0.533,-0L0.088,-0Z" style="fill:rgb(114,114,114);fill-rule:nonzero;"/>
                                    </g>
                                    <g transform="matrix(50,0,0,50,29.9006,0)">
                                        <path d="M0.077,-0L0.077,-0.545L0.158,-0.545L0.158,-0.46L0.165,-0.46C0.176,-0.489 0.194,-0.512 0.22,-0.528C0.245,-0.544 0.276,-0.553 0.311,-0.553C0.347,-0.553 0.377,-0.544 0.401,-0.528C0.425,-0.512 0.444,-0.489 0.457,-0.46L0.463,-0.46C0.477,-0.488 0.498,-0.511 0.526,-0.528C0.554,-0.544 0.587,-0.553 0.626,-0.553C0.675,-0.553 0.715,-0.537 0.746,-0.507C0.777,-0.477 0.793,-0.429 0.793,-0.365L0.793,-0L0.709,-0L0.709,-0.365C0.709,-0.405 0.698,-0.434 0.676,-0.451C0.654,-0.469 0.628,-0.477 0.598,-0.477C0.56,-0.477 0.53,-0.466 0.509,-0.443C0.488,-0.42 0.477,-0.39 0.477,-0.355L0.477,-0L0.392,-0L0.392,-0.374C0.392,-0.405 0.382,-0.43 0.362,-0.449C0.342,-0.468 0.316,-0.477 0.284,-0.477C0.262,-0.477 0.242,-0.471 0.223,-0.46C0.204,-0.448 0.189,-0.432 0.178,-0.412C0.166,-0.391 0.161,-0.368 0.161,-0.341L0.161,-0L0.077,-0Z" style="fill:rgb(114,114,114);fill-rule:nonzero;"/>
                                    </g>
                                    <g transform="matrix(50,0,0,50,73.3665,0)">
                                        <path d="M0.237,0.013C0.203,0.013 0.171,0.006 0.143,-0.007C0.115,-0.02 0.093,-0.039 0.076,-0.064C0.059,-0.089 0.051,-0.119 0.051,-0.155C0.051,-0.186 0.057,-0.211 0.07,-0.231C0.082,-0.251 0.098,-0.266 0.119,-0.277C0.14,-0.288 0.162,-0.296 0.187,-0.302C0.212,-0.308 0.237,-0.312 0.263,-0.315C0.296,-0.32 0.323,-0.323 0.344,-0.325C0.364,-0.327 0.379,-0.331 0.389,-0.337C0.399,-0.342 0.403,-0.352 0.403,-0.365L0.403,-0.368C0.403,-0.403 0.394,-0.43 0.375,-0.45C0.356,-0.469 0.327,-0.479 0.288,-0.479C0.248,-0.479 0.217,-0.47 0.194,-0.452C0.172,-0.435 0.156,-0.416 0.146,-0.396L0.067,-0.425C0.081,-0.458 0.1,-0.484 0.124,-0.502C0.148,-0.521 0.174,-0.534 0.202,-0.541C0.23,-0.549 0.258,-0.553 0.286,-0.553C0.303,-0.553 0.323,-0.55 0.346,-0.546C0.369,-0.542 0.391,-0.534 0.412,-0.521C0.434,-0.508 0.452,-0.489 0.466,-0.463C0.48,-0.437 0.487,-0.403 0.487,-0.359L0.487,-0L0.403,-0L0.403,-0.074L0.399,-0.074C0.393,-0.062 0.384,-0.049 0.371,-0.036C0.357,-0.022 0.34,-0.011 0.318,-0.001C0.296,0.008 0.269,0.013 0.237,0.013ZM0.25,-0.063C0.283,-0.063 0.311,-0.069 0.334,-0.082C0.357,-0.095 0.374,-0.112 0.386,-0.132C0.398,-0.153 0.403,-0.175 0.403,-0.197L0.403,-0.274C0.4,-0.27 0.392,-0.266 0.38,-0.263C0.368,-0.259 0.354,-0.256 0.339,-0.254C0.323,-0.251 0.308,-0.249 0.294,-0.247C0.279,-0.246 0.268,-0.244 0.259,-0.243C0.237,-0.24 0.216,-0.235 0.198,-0.229C0.179,-0.223 0.164,-0.214 0.152,-0.201C0.141,-0.189 0.135,-0.172 0.135,-0.151C0.135,-0.121 0.146,-0.099 0.167,-0.085C0.189,-0.07 0.217,-0.063 0.25,-0.063Z" style="fill:rgb(114,114,114);fill-rule:nonzero;"/>
                                    </g>
                                    <g transform="matrix(50,0,0,50,101.562,0)">
                                        <path d="M0.077,-0L0.077,-0.545L0.161,-0.545L0.161,-0L0.077,-0ZM0.119,-0.636C0.103,-0.636 0.089,-0.642 0.077,-0.653C0.066,-0.664 0.06,-0.678 0.06,-0.693C0.06,-0.709 0.066,-0.722 0.077,-0.733C0.089,-0.744 0.103,-0.75 0.119,-0.75C0.136,-0.75 0.15,-0.744 0.161,-0.733C0.173,-0.722 0.179,-0.709 0.179,-0.693C0.179,-0.678 0.173,-0.664 0.161,-0.653C0.15,-0.642 0.136,-0.636 0.119,-0.636Z" style="fill:rgb(114,114,114);fill-rule:nonzero;"/>
                                    </g>
                                    <g transform="matrix(50,0,0,50,113.423,0)">
                                        <rect x="0.077" y="-0.727" width="0.084" height="0.727" style="fill:rgb(114,114,114);fill-rule:nonzero;"/>
                                    </g>
                                </g>
                                <g transform="matrix(1.16634,0,0,1.37963,626.742,921.749)">
                                    <g transform="matrix(50,0,0,50,0,0)">
                                        <path d="M0.585,-0.5C0.577,-0.524 0.567,-0.545 0.555,-0.564C0.542,-0.584 0.527,-0.6 0.509,-0.613C0.492,-0.627 0.472,-0.637 0.45,-0.644C0.428,-0.651 0.404,-0.655 0.378,-0.655C0.335,-0.655 0.296,-0.644 0.26,-0.621C0.225,-0.599 0.197,-0.566 0.176,-0.523C0.155,-0.48 0.145,-0.427 0.145,-0.364C0.145,-0.301 0.155,-0.248 0.176,-0.204C0.198,-0.161 0.226,-0.128 0.262,-0.106C0.298,-0.084 0.339,-0.072 0.384,-0.072C0.425,-0.072 0.462,-0.081 0.494,-0.099C0.526,-0.117 0.55,-0.142 0.568,-0.175C0.586,-0.208 0.595,-0.247 0.595,-0.291L0.622,-0.286L0.403,-0.286L0.403,-0.364L0.68,-0.364L0.68,-0.286C0.68,-0.226 0.668,-0.174 0.642,-0.129C0.617,-0.085 0.582,-0.051 0.537,-0.026C0.492,-0.002 0.441,0.01 0.384,0.01C0.319,0.01 0.263,-0.005 0.214,-0.036C0.165,-0.066 0.127,-0.109 0.1,-0.165C0.073,-0.221 0.06,-0.287 0.06,-0.364C0.06,-0.421 0.067,-0.473 0.083,-0.519C0.098,-0.565 0.12,-0.604 0.149,-0.637C0.177,-0.669 0.211,-0.694 0.25,-0.711C0.288,-0.729 0.331,-0.737 0.378,-0.737C0.416,-0.737 0.452,-0.731 0.485,-0.72C0.519,-0.709 0.548,-0.692 0.574,-0.671C0.601,-0.65 0.622,-0.625 0.64,-0.596C0.657,-0.567 0.67,-0.535 0.676,-0.5L0.585,-0.5Z" style="fill:rgb(114,114,114);fill-rule:nonzero;"/>
                                    </g>
                                    <g transform="matrix(50,0,0,50,37.1449,0)">
                                        <path d="M0.305,0.011C0.253,0.011 0.208,-0 0.17,-0.024C0.132,-0.047 0.102,-0.08 0.082,-0.122C0.061,-0.164 0.051,-0.213 0.051,-0.268C0.051,-0.324 0.061,-0.374 0.082,-0.416C0.102,-0.459 0.131,-0.492 0.168,-0.517C0.205,-0.541 0.248,-0.553 0.297,-0.553C0.325,-0.553 0.353,-0.548 0.381,-0.538C0.409,-0.529 0.434,-0.514 0.457,-0.492C0.479,-0.471 0.498,-0.443 0.511,-0.408C0.525,-0.374 0.531,-0.331 0.531,-0.28L0.531,-0.244L0.111,-0.244L0.111,-0.317L0.446,-0.317C0.446,-0.348 0.44,-0.375 0.428,-0.399C0.416,-0.423 0.398,-0.442 0.376,-0.456C0.354,-0.47 0.327,-0.477 0.297,-0.477C0.263,-0.477 0.235,-0.469 0.21,-0.453C0.186,-0.436 0.167,-0.415 0.154,-0.388C0.141,-0.362 0.135,-0.334 0.135,-0.304L0.135,-0.256C0.135,-0.214 0.142,-0.18 0.156,-0.151C0.171,-0.123 0.191,-0.101 0.216,-0.086C0.242,-0.071 0.272,-0.064 0.305,-0.064C0.327,-0.064 0.347,-0.067 0.365,-0.073C0.383,-0.08 0.399,-0.089 0.412,-0.102C0.425,-0.114 0.435,-0.13 0.442,-0.149L0.523,-0.126C0.514,-0.099 0.5,-0.075 0.48,-0.054C0.46,-0.033 0.435,-0.017 0.405,-0.006C0.376,0.006 0.342,0.011 0.305,0.011Z" style="fill:rgb(114,114,114);fill-rule:nonzero;"/>
                                    </g>
                                    <g transform="matrix(50,0,0,50,66.2642,0)">
                                        <path d="M0.161,-0.328L0.161,-0L0.077,-0L0.077,-0.545L0.158,-0.545L0.158,-0.46L0.165,-0.46C0.178,-0.488 0.197,-0.51 0.223,-0.527C0.249,-0.544 0.283,-0.553 0.324,-0.553C0.361,-0.553 0.393,-0.545 0.421,-0.53C0.449,-0.515 0.47,-0.492 0.485,-0.462C0.501,-0.431 0.509,-0.393 0.509,-0.347L0.509,-0L0.425,-0L0.425,-0.341C0.425,-0.384 0.414,-0.417 0.391,-0.441C0.369,-0.465 0.339,-0.477 0.3,-0.477C0.273,-0.477 0.249,-0.471 0.228,-0.46C0.207,-0.448 0.191,-0.431 0.179,-0.409C0.167,-0.387 0.161,-0.36 0.161,-0.328Z" style="fill:rgb(114,114,114);fill-rule:nonzero;"/>
                                    </g>
                                    <g transform="matrix(50,0,0,50,95.5256,0)">
                                        <path d="M0.283,0.011C0.237,0.011 0.197,-0 0.162,-0.023C0.127,-0.046 0.1,-0.079 0.081,-0.121C0.061,-0.164 0.051,-0.214 0.051,-0.271C0.051,-0.329 0.061,-0.378 0.081,-0.42C0.1,-0.463 0.128,-0.495 0.163,-0.518C0.198,-0.541 0.238,-0.553 0.284,-0.553C0.32,-0.553 0.348,-0.547 0.368,-0.535C0.389,-0.523 0.405,-0.51 0.416,-0.495C0.427,-0.48 0.436,-0.468 0.442,-0.459L0.449,-0.459L0.449,-0.727L0.533,-0.727L0.533,-0L0.452,-0L0.452,-0.084L0.442,-0.084C0.436,-0.074 0.427,-0.061 0.415,-0.046C0.404,-0.031 0.388,-0.018 0.367,-0.006C0.346,0.006 0.318,0.011 0.283,0.011ZM0.294,-0.064C0.328,-0.064 0.356,-0.073 0.379,-0.09C0.402,-0.108 0.42,-0.133 0.432,-0.164C0.444,-0.195 0.45,-0.232 0.45,-0.273C0.45,-0.313 0.444,-0.349 0.433,-0.38C0.421,-0.41 0.403,-0.434 0.38,-0.452C0.357,-0.469 0.328,-0.477 0.294,-0.477C0.259,-0.477 0.229,-0.468 0.205,-0.45C0.182,-0.432 0.164,-0.407 0.153,-0.377C0.141,-0.346 0.135,-0.311 0.135,-0.273C0.135,-0.234 0.141,-0.199 0.153,-0.167C0.165,-0.135 0.183,-0.11 0.206,-0.092C0.23,-0.073 0.259,-0.064 0.294,-0.064Z" style="fill:rgb(114,114,114);fill-rule:nonzero;"/>
                                    </g>
                                    <g transform="matrix(50,0,0,50,126.562,0)">
                                        <path d="M0.305,0.011C0.253,0.011 0.208,-0 0.17,-0.024C0.132,-0.047 0.102,-0.08 0.082,-0.122C0.061,-0.164 0.051,-0.213 0.051,-0.268C0.051,-0.324 0.061,-0.374 0.082,-0.416C0.102,-0.459 0.131,-0.492 0.168,-0.517C0.205,-0.541 0.248,-0.553 0.297,-0.553C0.325,-0.553 0.353,-0.548 0.381,-0.538C0.409,-0.529 0.434,-0.514 0.457,-0.492C0.479,-0.471 0.498,-0.443 0.511,-0.408C0.525,-0.374 0.531,-0.331 0.531,-0.28L0.531,-0.244L0.111,-0.244L0.111,-0.317L0.446,-0.317C0.446,-0.348 0.44,-0.375 0.428,-0.399C0.416,-0.423 0.398,-0.442 0.376,-0.456C0.354,-0.47 0.327,-0.477 0.297,-0.477C0.263,-0.477 0.235,-0.469 0.21,-0.453C0.186,-0.436 0.167,-0.415 0.154,-0.388C0.141,-0.362 0.135,-0.334 0.135,-0.304L0.135,-0.256C0.135,-0.214 0.142,-0.18 0.156,-0.151C0.171,-0.123 0.191,-0.101 0.216,-0.086C0.242,-0.071 0.272,-0.064 0.305,-0.064C0.327,-0.064 0.347,-0.067 0.365,-0.073C0.383,-0.08 0.399,-0.089 0.412,-0.102C0.425,-0.114 0.435,-0.13 0.442,-0.149L0.523,-0.126C0.514,-0.099 0.5,-0.075 0.48,-0.054C0.46,-0.033 0.435,-0.017 0.405,-0.006C0.376,0.006 0.342,0.011 0.305,0.011Z" style="fill:rgb(114,114,114);fill-rule:nonzero;"/>
                                    </g>
                                    <g transform="matrix(50,0,0,50,155.682,0)">
                                        <path d="M0.077,-0L0.077,-0.545L0.158,-0.545L0.158,-0.463L0.163,-0.463C0.173,-0.49 0.191,-0.512 0.217,-0.529C0.243,-0.546 0.273,-0.554 0.305,-0.554C0.312,-0.554 0.319,-0.554 0.328,-0.554C0.338,-0.553 0.345,-0.553 0.349,-0.553L0.349,-0.467C0.347,-0.468 0.34,-0.469 0.33,-0.471C0.32,-0.472 0.309,-0.473 0.298,-0.473C0.272,-0.473 0.248,-0.468 0.227,-0.456C0.207,-0.445 0.19,-0.43 0.178,-0.411C0.166,-0.392 0.161,-0.37 0.161,-0.345L0.161,-0L0.077,-0Z" style="fill:rgb(114,114,114);fill-rule:nonzero;"/>
                                    </g>
                                </g>
                            </g>
                        </g>
                        <g transform="matrix(1.43769,0,0,1.19297,-362.854,178.51)">
                            <g>
                                <path d="M1105.3,748.418C1105.3,734.03 1093.62,722.35 1079.23,722.35L616.621,722.35C602.234,722.35 590.553,734.03 590.553,748.418L590.553,800.554C590.553,814.941 602.234,826.622 616.621,826.622L1079.23,826.622C1093.62,826.622 1105.3,814.941 1105.3,800.554L1105.3,748.418Z" style="fill:rgb(118,245,192);stroke:rgb(33,37,41);stroke-width:12.5px;"/>
                                <g transform="matrix(1.1015,0,0,1.22416,755.777,797.702)">
                                    <g transform="matrix(50,0,0,50,0,0)">
                                        <path d="M0.458,-0.518C0.455,-0.547 0.443,-0.569 0.421,-0.585C0.399,-0.601 0.37,-0.609 0.334,-0.609C0.308,-0.609 0.287,-0.605 0.27,-0.598C0.252,-0.591 0.239,-0.581 0.23,-0.569C0.221,-0.557 0.217,-0.543 0.216,-0.527C0.216,-0.514 0.219,-0.503 0.225,-0.493C0.231,-0.483 0.239,-0.475 0.25,-0.468C0.261,-0.461 0.273,-0.455 0.287,-0.45C0.301,-0.445 0.316,-0.441 0.332,-0.437L0.397,-0.422C0.429,-0.414 0.458,-0.405 0.484,-0.393C0.511,-0.381 0.534,-0.367 0.553,-0.349C0.573,-0.332 0.588,-0.312 0.599,-0.288C0.609,-0.265 0.615,-0.238 0.615,-0.208C0.615,-0.163 0.604,-0.125 0.581,-0.092C0.559,-0.06 0.527,-0.034 0.485,-0.017C0.443,0.001 0.392,0.01 0.333,0.01C0.274,0.01 0.223,0.001 0.179,-0.017C0.136,-0.035 0.102,-0.061 0.078,-0.097C0.054,-0.132 0.041,-0.176 0.04,-0.228L0.189,-0.228C0.19,-0.204 0.197,-0.184 0.21,-0.168C0.222,-0.151 0.239,-0.139 0.26,-0.131C0.281,-0.123 0.304,-0.119 0.331,-0.119C0.357,-0.119 0.38,-0.123 0.399,-0.13C0.418,-0.138 0.433,-0.148 0.444,-0.162C0.454,-0.175 0.46,-0.191 0.46,-0.208C0.46,-0.225 0.455,-0.238 0.445,-0.249C0.436,-0.261 0.422,-0.27 0.403,-0.278C0.385,-0.286 0.363,-0.293 0.336,-0.299L0.257,-0.319C0.196,-0.334 0.147,-0.357 0.112,-0.389C0.076,-0.421 0.059,-0.463 0.059,-0.517C0.059,-0.561 0.071,-0.6 0.094,-0.632C0.118,-0.665 0.151,-0.691 0.193,-0.71C0.234,-0.728 0.282,-0.737 0.335,-0.737C0.389,-0.737 0.436,-0.728 0.476,-0.71C0.516,-0.691 0.548,-0.665 0.57,-0.632C0.593,-0.599 0.604,-0.561 0.605,-0.518L0.458,-0.518Z" style="fill:rgb(33,37,41);fill-rule:nonzero;"/>
                                    </g>
                                    <g transform="matrix(50,0,0,50,31.8892,0)">
                                        <path d="M0.41,-0.232L0.41,-0.545L0.561,-0.545L0.561,-0L0.416,-0L0.416,-0.099L0.411,-0.099C0.398,-0.067 0.378,-0.041 0.349,-0.022C0.321,-0.003 0.286,0.007 0.245,0.007C0.209,0.007 0.177,-0.001 0.149,-0.018C0.121,-0.034 0.099,-0.058 0.084,-0.088C0.068,-0.119 0.061,-0.156 0.061,-0.198L0.061,-0.545L0.212,-0.545L0.212,-0.225C0.212,-0.193 0.22,-0.167 0.238,-0.149C0.255,-0.13 0.278,-0.121 0.306,-0.121C0.324,-0.121 0.341,-0.125 0.357,-0.133C0.373,-0.142 0.386,-0.154 0.396,-0.171C0.406,-0.187 0.41,-0.208 0.41,-0.232Z" style="fill:rgb(33,37,41);fill-rule:nonzero;"/>
                                    </g>
                                    <g transform="matrix(50,0,0,50,60.9375,0)">
                                        <path d="M0.063,-0L0.063,-0.727L0.214,-0.727L0.214,-0.454L0.219,-0.454C0.226,-0.469 0.235,-0.484 0.248,-0.499C0.261,-0.514 0.277,-0.527 0.298,-0.537C0.318,-0.547 0.344,-0.553 0.374,-0.553C0.414,-0.553 0.451,-0.542 0.484,-0.522C0.518,-0.501 0.545,-0.47 0.565,-0.428C0.585,-0.387 0.595,-0.335 0.595,-0.272C0.595,-0.211 0.585,-0.16 0.566,-0.118C0.546,-0.076 0.52,-0.045 0.486,-0.023C0.453,-0.002 0.415,0.009 0.374,0.009C0.345,0.009 0.32,0.004 0.299,-0.006C0.279,-0.016 0.262,-0.028 0.249,-0.043C0.236,-0.057 0.226,-0.072 0.219,-0.087L0.212,-0.087L0.212,-0L0.063,-0ZM0.211,-0.273C0.211,-0.24 0.216,-0.212 0.225,-0.188C0.234,-0.164 0.247,-0.145 0.264,-0.132C0.281,-0.118 0.302,-0.112 0.326,-0.112C0.351,-0.112 0.372,-0.118 0.389,-0.132C0.406,-0.146 0.419,-0.165 0.427,-0.189C0.436,-0.213 0.441,-0.241 0.441,-0.273C0.441,-0.304 0.436,-0.332 0.428,-0.356C0.419,-0.38 0.406,-0.399 0.389,-0.412C0.372,-0.425 0.351,-0.432 0.326,-0.432C0.301,-0.432 0.281,-0.426 0.264,-0.413C0.247,-0.399 0.234,-0.381 0.225,-0.357C0.216,-0.333 0.211,-0.305 0.211,-0.273Z" style="fill:rgb(33,37,41);fill-rule:nonzero;"/>
                                    </g>
                                    <g transform="matrix(50,0,0,50,91.9744,0)">
                                        <path d="M0.061,-0L0.061,-0.545L0.205,-0.545L0.205,-0.449L0.211,-0.449C0.222,-0.481 0.241,-0.507 0.268,-0.525C0.294,-0.543 0.326,-0.553 0.363,-0.553C0.4,-0.553 0.432,-0.543 0.459,-0.525C0.485,-0.506 0.502,-0.481 0.511,-0.449L0.517,-0.449C0.528,-0.48 0.548,-0.506 0.577,-0.524C0.606,-0.543 0.641,-0.553 0.681,-0.553C0.732,-0.553 0.773,-0.536 0.805,-0.504C0.837,-0.472 0.853,-0.426 0.853,-0.367L0.853,-0L0.702,-0L0.702,-0.337C0.702,-0.367 0.694,-0.39 0.678,-0.405C0.662,-0.42 0.642,-0.428 0.618,-0.428C0.59,-0.428 0.569,-0.419 0.553,-0.402C0.538,-0.384 0.53,-0.361 0.53,-0.333L0.53,-0L0.384,-0L0.384,-0.34C0.384,-0.367 0.376,-0.388 0.361,-0.404C0.345,-0.42 0.325,-0.428 0.3,-0.428C0.283,-0.428 0.268,-0.424 0.255,-0.415C0.242,-0.407 0.231,-0.395 0.223,-0.38C0.216,-0.365 0.212,-0.347 0.212,-0.327L0.212,-0L0.061,-0Z" style="fill:rgb(33,37,41);fill-rule:nonzero;"/>
                                    </g>
                                    <g transform="matrix(50,0,0,50,135.44,0)">
                                        <path d="M0.06,-0L0.06,-0.545L0.212,-0.545L0.212,-0L0.06,-0ZM0.137,-0.616C0.114,-0.616 0.095,-0.623 0.079,-0.638C0.063,-0.653 0.055,-0.671 0.055,-0.692C0.055,-0.713 0.063,-0.731 0.079,-0.746C0.095,-0.761 0.114,-0.769 0.136,-0.769C0.159,-0.769 0.178,-0.761 0.194,-0.746C0.21,-0.731 0.218,-0.713 0.218,-0.692C0.218,-0.671 0.21,-0.653 0.194,-0.638C0.178,-0.623 0.159,-0.616 0.137,-0.616Z" style="fill:rgb(33,37,41);fill-rule:nonzero;"/>
                                    </g>
                                    <g transform="matrix(50,0,0,50,147.301,0)">
                                        <path d="M0.351,-0.545L0.351,-0.432L0.022,-0.432L0.022,-0.545L0.351,-0.545ZM0.097,-0.676L0.248,-0.676L0.248,-0.168C0.248,-0.154 0.25,-0.143 0.254,-0.135C0.259,-0.127 0.265,-0.122 0.272,-0.119C0.28,-0.116 0.289,-0.114 0.299,-0.114C0.306,-0.114 0.313,-0.115 0.32,-0.116C0.328,-0.118 0.333,-0.119 0.337,-0.119L0.361,-0.007C0.353,-0.004 0.342,-0.001 0.329,0.002C0.315,0.005 0.298,0.007 0.278,0.008C0.242,0.009 0.21,0.004 0.183,-0.007C0.155,-0.018 0.134,-0.035 0.119,-0.059C0.104,-0.082 0.096,-0.112 0.097,-0.148L0.097,-0.676Z" style="fill:rgb(33,37,41);fill-rule:nonzero;"/>
                                    </g>
                                </g>
                            </g>
                        </g>
                    </g>
                </g>
                <g transform="matrix(1.43769,0,0,1.38476,559.206,325.17)">
                    <g>
                        <g transform="matrix(125.736,0,0,125.736,0,0)">
                            <path d="M0.458,-0.518C0.455,-0.547 0.443,-0.569 0.421,-0.585C0.399,-0.601 0.37,-0.609 0.334,-0.609C0.308,-0.609 0.287,-0.605 0.27,-0.598C0.252,-0.591 0.239,-0.581 0.23,-0.569C0.221,-0.557 0.217,-0.543 0.216,-0.527C0.216,-0.514 0.219,-0.503 0.225,-0.493C0.231,-0.483 0.239,-0.475 0.25,-0.468C0.261,-0.461 0.273,-0.455 0.287,-0.45C0.301,-0.445 0.316,-0.441 0.332,-0.437L0.397,-0.422C0.429,-0.414 0.458,-0.405 0.484,-0.393C0.511,-0.381 0.534,-0.367 0.553,-0.349C0.573,-0.332 0.588,-0.312 0.599,-0.288C0.609,-0.265 0.615,-0.238 0.615,-0.208C0.615,-0.163 0.604,-0.125 0.581,-0.092C0.559,-0.06 0.527,-0.034 0.485,-0.017C0.443,0.001 0.392,0.01 0.333,0.01C0.274,0.01 0.223,0.001 0.179,-0.017C0.136,-0.035 0.102,-0.061 0.078,-0.097C0.054,-0.132 0.041,-0.176 0.04,-0.228L0.189,-0.228C0.19,-0.204 0.197,-0.184 0.21,-0.168C0.222,-0.151 0.239,-0.139 0.26,-0.131C0.281,-0.123 0.304,-0.119 0.331,-0.119C0.357,-0.119 0.38,-0.123 0.399,-0.13C0.418,-0.138 0.433,-0.148 0.444,-0.162C0.454,-0.175 0.46,-0.191 0.46,-0.208C0.46,-0.225 0.455,-0.238 0.445,-0.249C0.436,-0.261 0.422,-0.27 0.403,-0.278C0.385,-0.286 0.363,-0.293 0.336,-0.299L0.257,-0.319C0.196,-0.334 0.147,-0.357 0.112,-0.389C0.076,-0.421 0.059,-0.463 0.059,-0.517C0.059,-0.561 0.071,-0.6 0.094,-0.632C0.118,-0.665 0.151,-0.691 0.193,-0.71C0.234,-0.728 0.282,-0.737 0.335,-0.737C0.389,-0.737 0.436,-0.728 0.476,-0.71C0.516,-0.691 0.548,-0.665 0.57,-0.632C0.593,-0.599 0.604,-0.561 0.605,-0.518L0.458,-0.518Z" style="fill:rgb(33,37,41);fill-rule:nonzero;"/>
                        </g>
                        <g transform="matrix(125.736,0,0,125.736,80.1925,0)">
                            <path d="M0.06,-0L0.06,-0.545L0.212,-0.545L0.212,-0L0.06,-0ZM0.137,-0.616C0.114,-0.616 0.095,-0.623 0.079,-0.638C0.063,-0.653 0.055,-0.671 0.055,-0.692C0.055,-0.713 0.063,-0.731 0.079,-0.746C0.095,-0.761 0.114,-0.769 0.136,-0.769C0.159,-0.769 0.178,-0.761 0.194,-0.746C0.21,-0.731 0.218,-0.713 0.218,-0.692C0.218,-0.671 0.21,-0.653 0.194,-0.638C0.178,-0.623 0.159,-0.616 0.137,-0.616Z" style="fill:rgb(33,37,41);fill-rule:nonzero;"/>
                        </g>
                        <g transform="matrix(125.736,0,0,125.736,110.019,0)">
                            <path d="M0.306,0.213C0.257,0.213 0.215,0.206 0.18,0.193C0.145,0.179 0.117,0.161 0.097,0.139C0.076,0.116 0.063,0.091 0.057,0.064L0.197,0.045C0.201,0.055 0.208,0.064 0.217,0.073C0.226,0.082 0.238,0.089 0.254,0.095C0.269,0.101 0.288,0.104 0.31,0.104C0.342,0.104 0.37,0.096 0.391,0.08C0.413,0.065 0.423,0.039 0.423,0.003L0.423,-0.097L0.417,-0.097C0.41,-0.082 0.4,-0.067 0.387,-0.054C0.374,-0.04 0.357,-0.029 0.336,-0.02C0.315,-0.012 0.29,-0.008 0.261,-0.008C0.22,-0.008 0.183,-0.017 0.15,-0.036C0.116,-0.055 0.09,-0.085 0.07,-0.124C0.05,-0.163 0.04,-0.213 0.04,-0.274C0.04,-0.336 0.05,-0.387 0.07,-0.429C0.09,-0.47 0.117,-0.501 0.151,-0.522C0.184,-0.542 0.221,-0.553 0.261,-0.553C0.291,-0.553 0.317,-0.547 0.338,-0.537C0.358,-0.527 0.375,-0.514 0.388,-0.499C0.4,-0.484 0.41,-0.469 0.417,-0.454L0.423,-0.454L0.423,-0.545L0.573,-0.545L0.573,0.005C0.573,0.051 0.561,0.089 0.539,0.119C0.516,0.15 0.484,0.173 0.444,0.189C0.404,0.205 0.358,0.213 0.306,0.213ZM0.309,-0.121C0.334,-0.121 0.354,-0.127 0.371,-0.14C0.388,-0.152 0.401,-0.169 0.41,-0.192C0.419,-0.215 0.424,-0.242 0.424,-0.274C0.424,-0.306 0.419,-0.334 0.41,-0.358C0.402,-0.381 0.389,-0.4 0.372,-0.413C0.355,-0.426 0.334,-0.432 0.309,-0.432C0.284,-0.432 0.263,-0.425 0.246,-0.412C0.229,-0.399 0.216,-0.38 0.208,-0.356C0.199,-0.333 0.195,-0.305 0.195,-0.274C0.195,-0.243 0.199,-0.216 0.208,-0.193C0.217,-0.17 0.23,-0.152 0.247,-0.14C0.264,-0.128 0.285,-0.121 0.309,-0.121Z" style="fill:rgb(33,37,41);fill-rule:nonzero;"/>
                        </g>
                        <g transform="matrix(125.736,0,0,125.736,186.64,0)">
                            <path d="M0.212,-0.315L0.212,-0L0.061,-0L0.061,-0.545L0.205,-0.545L0.205,-0.449L0.211,-0.449C0.223,-0.481 0.243,-0.506 0.272,-0.525C0.3,-0.543 0.335,-0.553 0.375,-0.553C0.413,-0.553 0.446,-0.544 0.474,-0.528C0.502,-0.511 0.524,-0.487 0.54,-0.457C0.555,-0.426 0.563,-0.39 0.563,-0.347L0.563,-0L0.412,-0L0.412,-0.32C0.412,-0.354 0.404,-0.38 0.386,-0.399C0.369,-0.418 0.345,-0.427 0.315,-0.427C0.295,-0.427 0.277,-0.423 0.261,-0.414C0.246,-0.405 0.234,-0.392 0.225,-0.376C0.216,-0.359 0.212,-0.339 0.212,-0.315Z" style="fill:rgb(33,37,41);fill-rule:nonzero;"/>
                        </g>
                        <g transform="matrix(125.736,0,0,125.736,295.587,0)">
                            <path d="M0.513,-0.727L0.666,-0.727L0.666,-0.255C0.666,-0.202 0.654,-0.156 0.628,-0.116C0.603,-0.076 0.568,-0.045 0.523,-0.023C0.478,-0.001 0.425,0.01 0.365,0.01C0.304,0.01 0.251,-0.001 0.206,-0.023C0.161,-0.045 0.126,-0.076 0.101,-0.116C0.076,-0.156 0.063,-0.202 0.063,-0.255L0.063,-0.727L0.217,-0.727L0.217,-0.268C0.217,-0.24 0.223,-0.216 0.235,-0.194C0.248,-0.173 0.265,-0.156 0.287,-0.143C0.309,-0.131 0.335,-0.125 0.365,-0.125C0.395,-0.125 0.421,-0.131 0.443,-0.143C0.465,-0.156 0.482,-0.173 0.494,-0.194C0.506,-0.216 0.513,-0.24 0.513,-0.268L0.513,-0.727Z" style="fill:rgb(33,37,41);fill-rule:nonzero;"/>
                        </g>
                        <g transform="matrix(125.736,0,0,125.736,388.818,0)">
                            <path d="M0.061,0.205L0.061,-0.545L0.21,-0.545L0.21,-0.454L0.216,-0.454C0.223,-0.469 0.233,-0.484 0.245,-0.499C0.258,-0.514 0.274,-0.527 0.295,-0.537C0.315,-0.547 0.341,-0.553 0.371,-0.553C0.411,-0.553 0.448,-0.542 0.482,-0.522C0.515,-0.501 0.542,-0.47 0.562,-0.428C0.582,-0.387 0.592,-0.335 0.592,-0.272C0.592,-0.211 0.583,-0.16 0.563,-0.118C0.543,-0.076 0.517,-0.045 0.483,-0.023C0.45,-0.002 0.412,0.009 0.371,0.009C0.342,0.009 0.317,0.004 0.296,-0.006C0.276,-0.016 0.259,-0.028 0.246,-0.043C0.233,-0.057 0.223,-0.072 0.216,-0.087L0.212,-0.087L0.212,0.205L0.061,0.205ZM0.209,-0.273C0.209,-0.24 0.213,-0.212 0.222,-0.188C0.231,-0.164 0.244,-0.145 0.261,-0.132C0.278,-0.118 0.299,-0.112 0.323,-0.112C0.348,-0.112 0.369,-0.118 0.386,-0.132C0.403,-0.146 0.416,-0.165 0.425,-0.189C0.433,-0.213 0.438,-0.241 0.438,-0.273C0.438,-0.304 0.433,-0.332 0.425,-0.356C0.416,-0.38 0.403,-0.399 0.386,-0.412C0.369,-0.425 0.348,-0.432 0.323,-0.432C0.299,-0.432 0.278,-0.426 0.261,-0.413C0.244,-0.399 0.231,-0.381 0.222,-0.357C0.213,-0.333 0.209,-0.305 0.209,-0.273Z" style="fill:rgb(33,37,41);fill-rule:nonzero;"/>
                        </g>
                    </g>
                </g>
            </g>
        </g>
    </g>
</svg>
