<?xml version="1.0" encoding="UTF-8" standalone="no"?><!DOCTYPE svg PUBLIC "-//W3C//DTD SVG 1.1//EN" "http://www.w3.org/Graphics/SVG/1.1/DTD/svg11.dtd"><svg width="100%" height="100%" viewBox="0 0 1749 1241" version="1.1" xmlns="http://www.w3.org/2000/svg" xmlns:xlink="http://www.w3.org/1999/xlink" xml:space="preserve" xmlns:serif="http://www.serif.com/" style="fill-rule:evenodd;clip-rule:evenodd;stroke-linecap:round;stroke-linejoin:round;stroke-miterlimit:1.5;"><rect id="Artboard1" x="0" y="-0" width="1748.03" height="1240.16" style="fill:none;"/><clipPath id="_clip1"><rect x="0" y="-0" width="1748.03" height="1240.16"/></clipPath><g clip-path="url(#_clip1)"><g><rect x="0" y="0" width="1748.03" height="1240.16" style="fill:#ada7ff;"/><g><path d="M1525.11,259.16c-0,-69.179 -84.972,-125.346 -189.635,-125.346l-879.272,0c-104.662,0 -189.634,56.167 -189.634,125.346l0,1006.12c0,69.181 84.972,125.346 189.634,125.346l879.272,-0c104.663,-0 189.635,-56.165 189.635,-125.346l-0,-1006.12Z" style="fill:#f8f9fa;stroke:#212529;stroke-width:32.06px;"/></g><g><g><path d="M681.1,308.636l-0,-72.728l28.664,0c5.512,0 10.211,0.976 14.099,2.926c3.887,1.951 6.855,4.707 8.906,8.267c2.05,3.561 3.075,7.747 3.075,12.557c0,4.839 -1.043,8.994 -3.129,12.465c-2.085,3.47 -5.099,6.129 -9.041,7.975c-3.942,1.847 -8.701,2.77 -14.279,2.77l-19.205,0l0,-12.385l16.705,-0c2.945,-0 5.387,-0.402 7.326,-1.205c1.939,-0.802 3.39,-2.006 4.354,-3.611c0.964,-1.605 1.445,-3.608 1.445,-6.009c0,-2.415 -0.484,-4.452 -1.452,-6.111c-0.968,-1.66 -2.424,-2.917 -4.368,-3.772c-1.944,-0.854 -4.397,-1.282 -7.362,-1.282l-10.369,0l0,60.143l-15.369,-0Zm39.261,-33.097l18.068,33.097l-16.96,-0l-17.698,-33.097l16.59,-0Z" style="fill-rule:nonzero;"/><path d="M768.997,309.687c-5.596,-0 -10.415,-1.138 -14.456,-3.413c-4.041,-2.275 -7.15,-5.513 -9.326,-9.716c-2.175,-4.202 -3.263,-9.182 -3.263,-14.939c0,-5.616 1.091,-10.543 3.274,-14.78c2.183,-4.238 5.254,-7.541 9.212,-9.908c3.958,-2.367 8.612,-3.551 13.963,-3.551c3.608,-0 6.967,0.573 10.078,1.719c3.111,1.145 5.831,2.87 8.16,5.174c2.33,2.303 4.148,5.188 5.455,8.654c1.307,3.466 1.96,7.516 1.96,12.152l0,4.147l-46.051,0l0,-9.375l31.819,0c-0.015,-2.168 -0.497,-4.094 -1.446,-5.777c-0.949,-1.683 -2.258,-3.007 -3.927,-3.97c-1.67,-0.964 -3.6,-1.446 -5.792,-1.446c-2.288,0 -4.314,0.532 -6.08,1.594c-1.766,1.063 -3.148,2.476 -4.144,4.237c-0.997,1.762 -1.509,3.72 -1.538,5.874l0,8.92c0,2.699 0.507,5.031 1.52,6.996c1.013,1.965 2.443,3.478 4.29,4.539c1.846,1.06 4.029,1.59 6.548,1.59c1.691,0 3.231,-0.239 4.62,-0.717c1.39,-0.478 2.587,-1.187 3.591,-2.127c1.003,-0.94 1.761,-2.094 2.272,-3.462l13.977,0.909c-0.71,3.371 -2.156,6.305 -4.339,8.803c-2.183,2.498 -4.999,4.434 -8.448,5.81c-3.45,1.375 -7.426,2.063 -11.929,2.063Z" style="fill-rule:nonzero;"/><path d="M826.981,329.886c-4.901,-0 -9.102,-0.664 -12.603,-1.992c-3.502,-1.329 -6.281,-3.118 -8.338,-5.37c-2.058,-2.251 -3.392,-4.75 -4.003,-7.496l14.006,-1.875c0.417,0.98 1.084,1.916 2.003,2.809c0.918,0.892 2.141,1.622 3.668,2.191c1.527,0.568 3.396,0.852 5.607,0.852c3.282,-0 5.996,-0.781 8.143,-2.344c2.147,-1.562 3.221,-4.133 3.221,-7.713l0,-9.971l-0.625,-0c-0.672,1.505 -1.674,2.936 -3.004,4.293c-1.33,1.356 -3.033,2.462 -5.106,3.317c-2.074,0.854 -4.56,1.282 -7.458,1.282c-4.091,-0 -7.811,-0.957 -11.161,-2.87c-3.35,-1.913 -6.016,-4.836 -7.998,-8.771c-1.981,-3.935 -2.972,-8.928 -2.972,-14.979c0,-6.184 1.007,-11.342 3.022,-15.476c2.015,-4.133 4.7,-7.232 8.054,-9.296c3.355,-2.065 7.03,-3.097 11.027,-3.097c3.039,-0 5.589,0.515 7.649,1.545c2.06,1.029 3.726,2.305 5,3.828c1.273,1.522 2.246,3.026 2.919,4.513l0.596,0l0,-9.176l15,0l0,55.085c0,4.532 -1.137,8.335 -3.413,11.41c-2.275,3.076 -5.417,5.395 -9.428,6.957c-4.01,1.563 -8.612,2.344 -13.806,2.344Zm0.312,-33.381c2.424,0 4.487,-0.609 6.19,-1.829c1.702,-1.219 3.004,-2.971 3.906,-5.255c0.902,-2.285 1.353,-5.028 1.353,-8.228c0,-3.192 -0.446,-5.968 -1.339,-8.328c-0.892,-2.36 -2.19,-4.19 -3.892,-5.49c-1.702,-1.3 -3.775,-1.95 -6.218,-1.95c-2.5,-0 -4.601,0.669 -6.303,2.007c-1.703,1.337 -2.99,3.191 -3.864,5.561c-0.874,2.37 -1.31,5.103 -1.31,8.2c-0,3.134 0.441,5.846 1.324,8.135c0.883,2.289 2.176,4.058 3.878,5.306c1.702,1.247 3.794,1.871 6.275,1.871Z" style="fill-rule:nonzero;"/><path d="M863.33,308.636l-0,-54.546l15.128,0l-0,54.546l-15.128,-0Zm7.635,-61.577c-2.249,-0 -4.179,-0.752 -5.788,-2.255c-1.61,-1.503 -2.415,-3.309 -2.415,-5.416c-0,-2.083 0.805,-3.876 2.415,-5.38c1.609,-1.503 3.527,-2.255 5.752,-2.255c2.273,0 4.208,0.752 5.807,2.255c1.598,1.504 2.397,3.297 2.397,5.38c-0,2.107 -0.799,3.913 -2.397,5.416c-1.599,1.503 -3.522,2.255 -5.771,2.255Z" style="fill-rule:nonzero;"/><path d="M932.435,269.63l-13.835,0.852c-0.246,-1.169 -0.758,-2.235 -1.534,-3.196c-0.777,-0.961 -1.8,-1.729 -3.072,-2.305c-1.271,-0.575 -2.785,-0.863 -4.542,-0.863c-2.344,0 -4.321,0.49 -5.93,1.471c-1.61,0.98 -2.408,2.28 -2.394,3.899c-0.014,1.316 0.498,2.422 1.538,3.317c1.039,0.894 2.828,1.616 5.366,2.166l9.886,1.988c5.303,1.085 9.253,2.833 11.85,5.246c2.597,2.412 3.903,5.588 3.917,9.527c-0.014,3.58 -1.064,6.718 -3.15,9.414c-2.086,2.697 -4.95,4.794 -8.594,6.293c-3.643,1.498 -7.825,2.248 -12.546,2.248c-7.225,-0 -12.977,-1.506 -17.254,-4.517c-4.278,-3.012 -6.775,-7.121 -7.49,-12.33l14.858,-0.795c0.459,2.211 1.549,3.891 3.27,5.039c1.721,1.148 3.936,1.722 6.645,1.722c2.642,0 4.776,-0.518 6.402,-1.555c1.627,-1.037 2.447,-2.365 2.462,-3.985c-0.015,-1.382 -0.589,-2.516 -1.723,-3.402c-1.134,-0.885 -2.889,-1.569 -5.266,-2.052l-9.432,-1.875c-5.336,-1.056 -9.302,-2.9 -11.896,-5.533c-2.595,-2.633 -3.885,-5.987 -3.871,-10.064c-0.014,-3.504 0.934,-6.521 2.844,-9.052c1.911,-2.531 4.603,-4.481 8.076,-5.852c3.473,-1.371 7.532,-2.056 12.176,-2.056c6.889,-0 12.319,1.453 16.289,4.361c3.971,2.907 6.287,6.87 6.95,11.889Z" style="fill-rule:nonzero;"/><path d="M968.344,254.09l0,11.364l-32.869,-0l-0,-11.364l32.869,0Zm-25.398,-13.068l15.114,-0l-0,50.838c-0,1.401 0.218,2.489 0.653,3.264c0.436,0.774 1.037,1.314 1.804,1.619c0.768,0.305 1.653,0.458 2.657,0.458c0.724,-0 1.443,-0.064 2.155,-0.192c0.713,-0.128 1.254,-0.234 1.623,-0.319l2.387,11.278c-0.753,0.242 -1.82,0.521 -3.2,0.838c-1.38,0.317 -3.051,0.512 -5.011,0.583c-3.646,0.142 -6.837,-0.343 -9.574,-1.453c-2.736,-1.11 -4.862,-2.842 -6.377,-5.195c-1.516,-2.354 -2.259,-5.308 -2.231,-8.864l0,-52.855Z" style="fill-rule:nonzero;"/><path d="M999.963,309.687c-5.596,-0 -10.415,-1.138 -14.456,-3.413c-4.041,-2.275 -7.15,-5.513 -9.325,-9.716c-2.176,-4.202 -3.264,-9.182 -3.264,-14.939c0,-5.616 1.092,-10.543 3.274,-14.78c2.183,-4.238 5.254,-7.541 9.212,-9.908c3.958,-2.367 8.613,-3.551 13.963,-3.551c3.608,-0 6.967,0.573 10.078,1.719c3.111,1.145 5.831,2.87 8.161,5.174c2.329,2.303 4.147,5.188 5.454,8.654c1.307,3.466 1.961,7.516 1.961,12.152l-0,4.147l-46.052,0l0,-9.375l31.819,0c-0.015,-2.168 -0.497,-4.094 -1.446,-5.777c-0.949,-1.683 -2.258,-3.007 -3.927,-3.97c-1.67,-0.964 -3.6,-1.446 -5.792,-1.446c-2.287,0 -4.314,0.532 -6.08,1.594c-1.766,1.063 -3.148,2.476 -4.144,4.237c-0.997,1.762 -1.509,3.72 -1.538,5.874l0,8.92c0,2.699 0.507,5.031 1.52,6.996c1.013,1.965 2.443,3.478 4.29,4.539c1.846,1.06 4.029,1.59 6.548,1.59c1.691,0 3.231,-0.239 4.621,-0.717c1.389,-0.478 2.586,-1.187 3.59,-2.127c1.004,-0.94 1.761,-2.094 2.272,-3.462l13.977,0.909c-0.71,3.371 -2.156,6.305 -4.339,8.803c-2.183,2.498 -4.999,4.434 -8.448,5.81c-3.45,1.375 -7.426,2.063 -11.929,2.063Z" style="fill-rule:nonzero;"/><path d="M1033.37,308.636l-0,-54.546l14.658,0l0,9.517l0.569,0c0.994,-3.38 2.662,-5.94 5.003,-7.677c2.342,-1.738 5.04,-2.607 8.094,-2.607c0.757,0 1.573,0.044 2.446,0.132c0.874,0.087 1.64,0.211 2.298,0.372l-0,13.444c-0.696,-0.227 -1.671,-0.421 -2.926,-0.582c-1.255,-0.16 -2.41,-0.241 -3.466,-0.241c-2.211,0 -4.189,0.479 -5.934,1.438c-1.745,0.959 -3.119,2.29 -4.123,3.992c-1.004,1.702 -1.506,3.67 -1.506,5.905l0,30.853l-15.113,-0Z" style="fill-rule:nonzero;"/></g></g><g><g><path d="M1131.87,447.719c0,-14.387 -11.681,-26.068 -26.068,-26.068l-462.611,0c-14.387,0 -26.068,11.681 -26.068,26.068l0,52.136c0,14.388 11.681,26.069 26.068,26.069l462.611,0c14.387,0 26.068,-11.681 26.068,-26.069l0,-52.136Z" style="fill:#fff;stroke:#212529;stroke-width:12.5px;"/></g><g><path d="M673.059,456.389l4.403,-0l0,25.994c0,2.32 -0.426,4.291 -1.278,5.913c-0.852,1.622 -2.054,2.853 -3.605,3.693c-1.55,0.84 -3.379,1.261 -5.486,1.261c-1.989,-0 -3.758,-0.364 -5.309,-1.092c-1.551,-0.728 -2.77,-1.767 -3.658,-3.116c-0.887,-1.35 -1.331,-2.954 -1.331,-4.812l4.332,-0c0,1.03 0.258,1.926 0.772,2.69c0.515,0.763 1.223,1.358 2.122,1.784c0.9,0.426 1.924,0.639 3.072,0.639c1.267,0 2.344,-0.266 3.232,-0.799c0.887,-0.532 1.565,-1.316 2.033,-2.352c0.467,-1.036 0.701,-2.305 0.701,-3.809l-0,-25.994Z" style="fill:#212529;fill-rule:nonzero;"/><path d="M693.727,493.392c-1.729,-0 -3.297,-0.329 -4.706,-0.986c-1.408,-0.657 -2.527,-1.61 -3.356,-2.858c-0.828,-1.249 -1.242,-2.761 -1.242,-4.537c-0,-1.562 0.307,-2.832 0.923,-3.809c0.615,-0.976 1.438,-1.743 2.468,-2.299c1.03,-0.556 2.169,-0.974 3.418,-1.252c1.249,-0.278 2.506,-0.5 3.773,-0.666c1.657,-0.213 3.004,-0.375 4.039,-0.488c1.036,-0.112 1.794,-0.305 2.273,-0.577c0.479,-0.272 0.719,-0.746 0.719,-1.42l0,-0.142c0,-1.752 -0.476,-3.114 -1.429,-4.084c-0.953,-0.971 -2.394,-1.456 -4.324,-1.456c-2,-0 -3.569,0.438 -4.705,1.314c-1.136,0.876 -1.935,1.811 -2.397,2.805l-3.977,-1.42c0.71,-1.657 1.66,-2.951 2.85,-3.88c1.189,-0.929 2.491,-1.58 3.906,-1.953c1.414,-0.373 2.808,-0.559 4.181,-0.559c0.876,-0 1.885,0.103 3.028,0.31c1.142,0.208 2.249,0.631 3.32,1.27c1.071,0.639 1.962,1.604 2.672,2.894c0.71,1.29 1.066,3.019 1.066,5.185l-0,17.969l-4.191,-0l0,-3.694l-0.213,0c-0.284,0.592 -0.757,1.225 -1.42,1.9c-0.663,0.675 -1.545,1.249 -2.646,1.722c-1.101,0.474 -2.444,0.711 -4.03,0.711Zm0.639,-3.764c1.657,-0 3.057,-0.326 4.199,-0.977c1.142,-0.651 2.006,-1.492 2.592,-2.521c0.586,-1.03 0.879,-2.113 0.879,-3.25l0,-3.835c-0.177,0.213 -0.565,0.406 -1.163,0.577c-0.598,0.172 -1.284,0.32 -2.059,0.444c-0.776,0.124 -1.527,0.231 -2.255,0.32c-0.728,0.088 -1.317,0.162 -1.767,0.222c-1.089,0.142 -2.104,0.37 -3.045,0.683c-0.941,0.314 -1.699,0.781 -2.273,1.403c-0.574,0.621 -0.861,1.465 -0.861,2.53c-0,1.456 0.541,2.554 1.625,3.294c1.083,0.74 2.459,1.11 4.128,1.11Z" style="fill:#212529;fill-rule:nonzero;"/><path d="M718.087,476.346l0,16.407l-4.19,-0l-0,-27.273l4.048,-0l0,4.261l0.355,0c0.64,-1.385 1.61,-2.5 2.912,-3.347c1.302,-0.846 2.983,-1.269 5.043,-1.269c1.847,-0 3.462,0.375 4.847,1.127c1.385,0.752 2.462,1.888 3.232,3.409c0.769,1.521 1.154,3.442 1.154,5.762l-0,17.33l-4.19,-0l-0,-17.046c-0,-2.142 -0.557,-3.814 -1.669,-5.016c-1.113,-1.201 -2.64,-1.802 -4.581,-1.802c-1.338,-0 -2.531,0.29 -3.578,0.87c-1.048,0.58 -1.873,1.426 -2.477,2.539c-0.604,1.113 -0.906,2.462 -0.906,4.048Z" style="fill:#212529;fill-rule:nonzero;"/><path d="M754.593,493.321c-2.628,-0 -4.892,-0.583 -6.792,-1.749c-1.899,-1.166 -3.361,-2.8 -4.385,-4.901c-1.024,-2.101 -1.536,-4.548 -1.536,-7.342c-0,-2.793 0.512,-5.258 1.536,-7.395c1.024,-2.137 2.456,-3.806 4.297,-5.007c1.84,-1.202 3.992,-1.802 6.454,-1.802c1.42,-0 2.823,0.236 4.208,0.71c1.385,0.473 2.646,1.24 3.782,2.299c1.136,1.06 2.042,2.459 2.717,4.199c0.674,1.741 1.012,3.883 1.012,6.428l-0,1.776l-21.023,-0l-0,-3.623l16.761,0c0,-1.538 -0.305,-2.911 -0.914,-4.119c-0.61,-1.207 -1.474,-2.16 -2.592,-2.859c-1.119,-0.698 -2.436,-1.047 -3.951,-1.047c-1.669,-0 -3.11,0.411 -4.324,1.234c-1.213,0.823 -2.145,1.891 -2.796,3.205c-0.651,1.314 -0.977,2.722 -0.977,4.226l0,2.414c0,2.06 0.358,3.803 1.075,5.229c0.716,1.427 1.713,2.51 2.991,3.25c1.279,0.74 2.764,1.109 4.457,1.109c1.101,0 2.098,-0.156 2.992,-0.47c0.894,-0.314 1.666,-0.787 2.317,-1.42c0.651,-0.634 1.154,-1.424 1.509,-2.371l4.049,1.136c-0.427,1.374 -1.143,2.578 -2.149,3.614c-1.006,1.036 -2.249,1.84 -3.729,2.415c-1.479,0.574 -3.142,0.861 -4.989,0.861Z" style="fill:#212529;fill-rule:nonzero;"/><path d="M798.13,492.753l-11.222,-0l0,-36.364l11.719,-0c3.528,-0 6.546,0.725 9.056,2.175c2.509,1.45 4.433,3.527 5.77,6.232c1.338,2.705 2.007,5.939 2.007,9.704c-0,3.788 -0.675,7.046 -2.025,9.774c-1.349,2.729 -3.314,4.824 -5.894,6.286c-2.581,1.462 -5.718,2.193 -9.411,2.193Zm-6.818,-3.907l6.534,0c3.007,0 5.498,-0.58 7.475,-1.74c1.977,-1.16 3.451,-2.811 4.421,-4.954c0.971,-2.142 1.456,-4.693 1.456,-7.652c0,-2.936 -0.479,-5.466 -1.438,-7.591c-0.959,-2.125 -2.391,-3.758 -4.297,-4.9c-1.906,-1.143 -4.279,-1.714 -7.12,-1.714l-7.031,0l-0,28.551Z" style="fill:#212529;fill-rule:nonzero;"/><path d="M833.357,493.321c-2.462,-0 -4.619,-0.586 -6.472,-1.758c-1.852,-1.172 -3.296,-2.811 -4.332,-4.918c-1.036,-2.107 -1.554,-4.57 -1.554,-7.387c0,-2.841 0.518,-5.321 1.554,-7.439c1.036,-2.119 2.48,-3.765 4.332,-4.937c1.853,-1.171 4.01,-1.757 6.472,-1.757c2.462,-0 4.62,0.586 6.472,1.757c1.853,1.172 3.297,2.818 4.333,4.937c1.035,2.118 1.553,4.598 1.553,7.439c0,2.817 -0.518,5.28 -1.553,7.387c-1.036,2.107 -2.48,3.746 -4.333,4.918c-1.852,1.172 -4.01,1.758 -6.472,1.758Zm0,-3.765c1.871,0 3.409,-0.479 4.617,-1.438c1.207,-0.959 2.101,-2.219 2.681,-3.782c0.58,-1.562 0.87,-3.255 0.87,-5.078c-0,-1.823 -0.29,-3.521 -0.87,-5.096c-0.58,-1.574 -1.474,-2.847 -2.681,-3.817c-1.208,-0.971 -2.746,-1.456 -4.617,-1.456c-1.87,-0 -3.409,0.485 -4.616,1.456c-1.208,0.97 -2.101,2.243 -2.681,3.817c-0.58,1.575 -0.87,3.273 -0.87,5.096c-0,1.823 0.29,3.516 0.87,5.078c0.58,1.563 1.473,2.823 2.681,3.782c1.207,0.959 2.746,1.438 4.616,1.438Z" style="fill:#212529;fill-rule:nonzero;"/><path d="M863.542,493.321c-2.628,-0 -4.892,-0.583 -6.792,-1.749c-1.899,-1.166 -3.361,-2.8 -4.385,-4.901c-1.024,-2.101 -1.536,-4.548 -1.536,-7.342c-0,-2.793 0.512,-5.258 1.536,-7.395c1.024,-2.137 2.456,-3.806 4.297,-5.007c1.84,-1.202 3.992,-1.802 6.454,-1.802c1.42,-0 2.823,0.236 4.208,0.71c1.385,0.473 2.646,1.24 3.782,2.299c1.136,1.06 2.042,2.459 2.717,4.199c0.674,1.741 1.012,3.883 1.012,6.428l-0,1.776l-21.023,-0l-0,-3.623l16.761,0c0,-1.538 -0.305,-2.911 -0.914,-4.119c-0.61,-1.207 -1.474,-2.16 -2.592,-2.859c-1.119,-0.698 -2.436,-1.047 -3.951,-1.047c-1.669,-0 -3.11,0.411 -4.324,1.234c-1.213,0.823 -2.145,1.891 -2.796,3.205c-0.651,1.314 -0.977,2.722 -0.977,4.226l0,2.414c0,2.06 0.358,3.803 1.074,5.229c0.717,1.427 1.714,2.51 2.992,3.25c1.279,0.74 2.764,1.109 4.457,1.109c1.101,0 2.098,-0.156 2.992,-0.47c0.894,-0.314 1.666,-0.787 2.317,-1.42c0.651,-0.634 1.154,-1.424 1.509,-2.371l4.048,1.136c-0.426,1.374 -1.142,2.578 -2.148,3.614c-1.006,1.036 -2.249,1.84 -3.729,2.415c-1.479,0.574 -3.142,0.861 -4.989,0.861Z" style="fill:#212529;fill-rule:nonzero;"/></g></g><g><path d="M1131.87,616.472c0,-14.388 -11.681,-26.068 -26.068,-26.068l-462.611,-0c-14.387,-0 -26.068,11.68 -26.068,26.068l0,52.136c0,14.387 11.681,26.068 26.068,26.068l462.611,-0c14.387,-0 26.068,-11.681 26.068,-26.068l0,-52.136Z" style="fill:#fff;stroke:#212529;stroke-width:12.5px;"/><g><path d="M651.469,634.232l4.19,-0l0,29.261c0,1.681 -0.287,3.137 -0.861,4.368c-0.574,1.231 -1.438,2.184 -2.592,2.859c-1.154,0.675 -2.607,1.012 -4.359,1.012l-0.852,-0l-0,-3.906l0.781,-0c1.278,-0 2.213,-0.376 2.805,-1.128c0.592,-0.752 0.888,-1.82 0.888,-3.205l-0,-29.261Zm2.06,-4.546c-0.817,0 -1.518,-0.278 -2.104,-0.834c-0.586,-0.556 -0.879,-1.225 -0.879,-2.007c-0,-0.781 0.293,-1.45 0.879,-2.006c0.586,-0.556 1.287,-0.834 2.104,-0.834c0.816,-0 1.518,0.278 2.104,0.834c0.586,0.556 0.879,1.225 0.879,2.006c-0,0.782 -0.293,1.451 -0.879,2.007c-0.586,0.556 -1.288,0.834 -2.104,0.834Z" style="fill:#212529;fill-rule:nonzero;"/><path d="M671.355,662.144c-1.728,-0 -3.296,-0.329 -4.705,-0.986c-1.409,-0.657 -2.527,-1.609 -3.356,-2.858c-0.828,-1.249 -1.243,-2.761 -1.243,-4.537c0,-1.562 0.308,-2.832 0.924,-3.808c0.615,-0.977 1.438,-1.743 2.468,-2.3c1.03,-0.556 2.169,-0.973 3.418,-1.252c1.249,-0.278 2.506,-0.5 3.773,-0.665c1.657,-0.214 3.003,-0.376 4.039,-0.489c1.036,-0.112 1.794,-0.305 2.273,-0.577c0.479,-0.272 0.719,-0.746 0.719,-1.42l0,-0.142c0,-1.752 -0.476,-3.113 -1.429,-4.084c-0.953,-0.971 -2.394,-1.456 -4.324,-1.456c-2,-0 -3.569,0.438 -4.705,1.314c-1.136,0.876 -1.935,1.811 -2.397,2.805l-3.977,-1.42c0.71,-1.657 1.66,-2.951 2.849,-3.88c1.19,-0.929 2.492,-1.58 3.907,-1.953c1.414,-0.373 2.808,-0.559 4.181,-0.559c0.876,-0 1.885,0.103 3.027,0.31c1.143,0.208 2.25,0.631 3.321,1.27c1.071,0.639 1.962,1.604 2.672,2.894c0.71,1.29 1.065,3.019 1.065,5.185l0,17.969l-4.19,-0l0,-3.694l-0.213,0c-0.284,0.592 -0.758,1.226 -1.42,1.9c-0.663,0.675 -1.545,1.249 -2.646,1.723c-1.101,0.473 -2.444,0.71 -4.031,0.71Zm0.64,-3.764c1.657,-0 3.057,-0.326 4.199,-0.977c1.142,-0.651 2.006,-1.491 2.592,-2.521c0.586,-1.03 0.879,-2.113 0.879,-3.25l0,-3.835c-0.178,0.213 -0.565,0.406 -1.163,0.577c-0.598,0.172 -1.284,0.32 -2.06,0.444c-0.775,0.124 -1.527,0.231 -2.255,0.32c-0.728,0.089 -1.316,0.163 -1.766,0.222c-1.089,0.142 -2.104,0.37 -3.045,0.683c-0.941,0.314 -1.699,0.782 -2.273,1.403c-0.574,0.621 -0.861,1.465 -0.861,2.53c-0,1.456 0.541,2.554 1.624,3.294c1.083,0.74 2.46,1.11 4.129,1.11Z" style="fill:#212529;fill-rule:nonzero;"/><path d="M695.716,645.098l0,16.407l-4.19,-0l-0,-27.273l4.048,-0l0,4.261l0.355,0c0.639,-1.385 1.61,-2.5 2.912,-3.347c1.302,-0.846 2.983,-1.269 5.043,-1.269c1.846,-0 3.462,0.376 4.847,1.127c1.385,0.752 2.462,1.888 3.232,3.409c0.769,1.521 1.154,3.442 1.154,5.762l-0,17.33l-4.191,-0l0,-17.046c0,-2.142 -0.556,-3.814 -1.669,-5.016c-1.112,-1.201 -2.639,-1.802 -4.581,-1.802c-1.337,-0 -2.53,0.29 -3.577,0.87c-1.048,0.58 -1.874,1.426 -2.477,2.539c-0.604,1.113 -0.906,2.462 -0.906,4.048Z" style="fill:#212529;fill-rule:nonzero;"/><path d="M732.222,662.073c-2.628,-0 -4.892,-0.583 -6.792,-1.749c-1.9,-1.166 -3.361,-2.8 -4.385,-4.901c-1.024,-2.101 -1.536,-4.548 -1.536,-7.342c-0,-2.793 0.512,-5.258 1.536,-7.395c1.024,-2.137 2.456,-3.806 4.297,-5.007c1.84,-1.202 3.992,-1.802 6.454,-1.802c1.42,-0 2.823,0.236 4.208,0.71c1.385,0.473 2.645,1.24 3.782,2.299c1.136,1.06 2.042,2.46 2.716,4.2c0.675,1.74 1.013,3.882 1.013,6.427l-0,1.776l-21.023,-0l-0,-3.622l16.761,-0c0,-1.539 -0.305,-2.912 -0.914,-4.12c-0.61,-1.207 -1.474,-2.16 -2.593,-2.858c-1.118,-0.699 -2.435,-1.048 -3.95,-1.048c-1.669,-0 -3.11,0.411 -4.324,1.234c-1.213,0.823 -2.145,1.891 -2.796,3.205c-0.651,1.314 -0.977,2.722 -0.977,4.226l0,2.415c0,2.059 0.358,3.802 1.074,5.229c0.717,1.426 1.714,2.509 2.992,3.249c1.279,0.74 2.764,1.11 4.457,1.11c1.101,-0 2.098,-0.157 2.992,-0.471c0.893,-0.314 1.666,-0.787 2.317,-1.42c0.651,-0.634 1.154,-1.424 1.509,-2.371l4.048,1.137c-0.426,1.373 -1.142,2.577 -2.148,3.613c-1.006,1.036 -2.249,1.841 -3.729,2.415c-1.479,0.574 -3.143,0.861 -4.989,0.861Z" style="fill:#212529;fill-rule:nonzero;"/><path d="M752.961,661.789c-0.876,-0 -1.628,-0.314 -2.255,-0.941c-0.628,-0.628 -0.941,-1.379 -0.941,-2.255c-0,-0.876 0.313,-1.628 0.941,-2.255c0.627,-0.628 1.379,-0.941 2.255,-0.941c0.875,-0 1.627,0.313 2.255,0.941c0.627,0.627 0.941,1.379 0.941,2.255c-0,0.58 -0.145,1.112 -0.435,1.598c-0.29,0.485 -0.675,0.873 -1.155,1.163c-0.479,0.29 -1.015,0.435 -1.606,0.435Z" style="fill:#212529;fill-rule:nonzero;"/><path d="M773.983,662.073c-2.272,-0 -4.279,-0.577 -6.019,-1.731c-1.74,-1.155 -3.101,-2.788 -4.084,-4.901c-0.982,-2.113 -1.473,-4.613 -1.473,-7.502c-0,-2.864 0.491,-5.35 1.473,-7.457c0.983,-2.107 2.35,-3.735 4.102,-4.883c1.752,-1.148 3.776,-1.722 6.072,-1.722c1.776,-0 3.182,0.293 4.217,0.879c1.036,0.586 1.829,1.248 2.38,1.988c0.55,0.74 0.979,1.347 1.287,1.82l0.355,0l-0,-13.423l4.19,-0l0,36.364l-4.048,-0l-0,-4.191l-0.497,0c-0.308,0.497 -0.746,1.122 -1.314,1.873c-0.568,0.752 -1.379,1.421 -2.433,2.007c-1.053,0.586 -2.456,0.879 -4.208,0.879Zm0.568,-3.764c1.681,-0 3.102,-0.441 4.262,-1.323c1.16,-0.882 2.042,-2.107 2.645,-3.676c0.604,-1.568 0.906,-3.382 0.906,-5.442c-0,-2.036 -0.296,-3.82 -0.888,-5.353c-0.592,-1.533 -1.468,-2.729 -2.628,-3.587c-1.16,-0.858 -2.592,-1.287 -4.297,-1.287c-1.775,-0 -3.252,0.453 -4.43,1.358c-1.177,0.906 -2.059,2.131 -2.645,3.676c-0.586,1.544 -0.879,3.276 -0.879,5.193c-0,1.942 0.299,3.702 0.897,5.283c0.597,1.58 1.485,2.835 2.663,3.764c1.178,0.929 2.643,1.394 4.394,1.394Z" style="fill:#212529;fill-rule:nonzero;"/><path d="M805.801,662.073c-2.462,-0 -4.619,-0.586 -6.471,-1.758c-1.853,-1.172 -3.297,-2.811 -4.333,-4.918c-1.036,-2.107 -1.553,-4.569 -1.553,-7.387c-0,-2.841 0.517,-5.321 1.553,-7.439c1.036,-2.119 2.48,-3.765 4.333,-4.936c1.852,-1.172 4.009,-1.758 6.471,-1.758c2.463,-0 4.62,0.586 6.472,1.758c1.853,1.171 3.297,2.817 4.333,4.936c1.036,2.118 1.553,4.598 1.553,7.439c0,2.818 -0.517,5.28 -1.553,7.387c-1.036,2.107 -2.48,3.746 -4.333,4.918c-1.852,1.172 -4.009,1.758 -6.472,1.758Zm0,-3.764c1.871,-0 3.41,-0.48 4.617,-1.439c1.207,-0.958 2.101,-2.219 2.681,-3.782c0.58,-1.562 0.87,-3.255 0.87,-5.078c0,-1.823 -0.29,-3.521 -0.87,-5.096c-0.58,-1.574 -1.474,-2.846 -2.681,-3.817c-1.207,-0.971 -2.746,-1.456 -4.617,-1.456c-1.87,-0 -3.409,0.485 -4.616,1.456c-1.207,0.971 -2.101,2.243 -2.681,3.817c-0.58,1.575 -0.87,3.273 -0.87,5.096c-0,1.823 0.29,3.516 0.87,5.078c0.58,1.563 1.474,2.824 2.681,3.782c1.207,0.959 2.746,1.439 4.616,1.439Z" style="fill:#212529;fill-rule:nonzero;"/><path d="M835.986,662.073c-2.628,-0 -4.892,-0.583 -6.791,-1.749c-1.9,-1.166 -3.362,-2.8 -4.386,-4.901c-1.024,-2.101 -1.536,-4.548 -1.536,-7.342c0,-2.793 0.512,-5.258 1.536,-7.395c1.024,-2.137 2.456,-3.806 4.297,-5.007c1.841,-1.202 3.992,-1.802 6.454,-1.802c1.42,-0 2.823,0.236 4.208,0.71c1.385,0.473 2.646,1.24 3.782,2.299c1.136,1.06 2.042,2.46 2.717,4.2c0.674,1.74 1.012,3.882 1.012,6.427l-0,1.776l-21.023,-0l0,-3.622l16.761,-0c0,-1.539 -0.304,-2.912 -0.914,-4.12c-0.61,-1.207 -1.474,-2.16 -2.592,-2.858c-1.119,-0.699 -2.436,-1.048 -3.951,-1.048c-1.669,-0 -3.11,0.411 -4.323,1.234c-1.214,0.823 -2.146,1.891 -2.797,3.205c-0.651,1.314 -0.977,2.722 -0.977,4.226l0,2.415c0,2.059 0.359,3.802 1.075,5.229c0.716,1.426 1.713,2.509 2.992,3.249c1.278,0.74 2.763,1.11 4.456,1.11c1.101,-0 2.098,-0.157 2.992,-0.471c0.894,-0.314 1.666,-0.787 2.317,-1.42c0.651,-0.634 1.154,-1.424 1.509,-2.371l4.049,1.137c-0.426,1.373 -1.143,2.577 -2.149,3.613c-1.006,1.036 -2.249,1.841 -3.728,2.415c-1.48,0.574 -3.143,0.861 -4.99,0.861Z" style="fill:#212529;fill-rule:nonzero;"/><path d="M864.679,672.3c-2.024,0 -3.764,-0.257 -5.22,-0.772c-1.456,-0.515 -2.666,-1.19 -3.631,-2.024c-0.965,-0.835 -1.731,-1.726 -2.299,-2.673l3.338,-2.343c0.379,0.497 0.858,1.068 1.438,1.713c0.58,0.645 1.376,1.207 2.388,1.687c1.012,0.479 2.341,0.719 3.986,0.719c2.202,-0 4.019,-0.533 5.451,-1.598c1.433,-1.065 2.149,-2.734 2.149,-5.007l-0,-5.54l-0.355,-0c-0.308,0.497 -0.743,1.11 -1.305,1.838c-0.563,0.728 -1.368,1.373 -2.415,1.935c-1.048,0.562 -2.459,0.843 -4.235,0.843c-2.202,0 -4.175,-0.52 -5.921,-1.562c-1.746,-1.042 -3.125,-2.557 -4.137,-4.545c-1.013,-1.989 -1.519,-4.404 -1.519,-7.245c0,-2.793 0.492,-5.229 1.474,-7.306c0.983,-2.078 2.35,-3.688 4.102,-4.83c1.752,-1.142 3.776,-1.713 6.072,-1.713c1.776,-0 3.187,0.293 4.235,0.879c1.048,0.586 1.852,1.248 2.415,1.988c0.562,0.74 0.997,1.347 1.305,1.82l0.426,0l-0,-4.332l4.048,-0l0,28.054c0,2.344 -0.53,4.252 -1.589,5.726c-1.059,1.474 -2.48,2.557 -4.261,3.249c-1.782,0.693 -3.762,1.039 -5.94,1.039Zm-0.142,-14.986c1.681,0 3.102,-0.384 4.262,-1.154c1.16,-0.769 2.042,-1.876 2.645,-3.32c0.604,-1.444 0.906,-3.173 0.906,-5.185c-0,-1.965 -0.296,-3.699 -0.888,-5.202c-0.592,-1.504 -1.468,-2.681 -2.628,-3.534c-1.16,-0.852 -2.592,-1.278 -4.297,-1.278c-1.775,-0 -3.252,0.45 -4.43,1.349c-1.177,0.9 -2.059,2.107 -2.645,3.623c-0.586,1.515 -0.879,3.196 -0.879,5.042c-0,1.894 0.299,3.566 0.896,5.016c0.598,1.45 1.486,2.587 2.664,3.409c1.178,0.823 2.642,1.234 4.394,1.234Z" style="fill:#212529;fill-rule:nonzero;"/><path d="M884.14,661.505l-0,-27.273l4.048,-0l-0,4.261l0.355,0c0.568,-1.456 1.486,-2.589 2.752,-3.4c1.267,-0.811 2.788,-1.216 4.563,-1.216c1.8,-0 3.3,0.405 4.501,1.216c1.202,0.811 2.14,1.944 2.815,3.4l0.284,0c0.698,-1.408 1.746,-2.53 3.143,-3.364c1.396,-0.835 3.071,-1.252 5.024,-1.252c2.439,-0 4.433,0.76 5.984,2.281c1.551,1.521 2.326,3.886 2.326,7.094l0,18.253l-4.19,-0l-0,-18.253c-0,-2.013 -0.551,-3.451 -1.652,-4.315c-1.1,-0.864 -2.397,-1.296 -3.888,-1.296c-1.918,-0 -3.403,0.577 -4.457,1.731c-1.053,1.154 -1.58,2.613 -1.58,4.377l0,17.756l-4.261,-0l-0,-18.679c-0,-1.551 -0.503,-2.803 -1.51,-3.756c-1.006,-0.953 -2.302,-1.429 -3.888,-1.429c-1.089,-0 -2.104,0.29 -3.045,0.87c-0.941,0.58 -1.699,1.382 -2.273,2.406c-0.574,1.024 -0.861,2.205 -0.861,3.542l-0,17.046l-4.19,-0Z" style="fill:#212529;fill-rule:nonzero;"/><path d="M935.631,662.144c-1.728,-0 -3.296,-0.329 -4.705,-0.986c-1.409,-0.657 -2.527,-1.609 -3.356,-2.858c-0.829,-1.249 -1.243,-2.761 -1.243,-4.537c0,-1.562 0.308,-2.832 0.923,-3.808c0.616,-0.977 1.439,-1.743 2.469,-2.3c1.029,-0.556 2.169,-0.973 3.417,-1.252c1.249,-0.278 2.507,-0.5 3.774,-0.665c1.657,-0.214 3.003,-0.376 4.039,-0.489c1.036,-0.112 1.793,-0.305 2.273,-0.577c0.479,-0.272 0.719,-0.746 0.719,-1.42l-0,-0.142c-0,-1.752 -0.477,-3.113 -1.43,-4.084c-0.952,-0.971 -2.394,-1.456 -4.323,-1.456c-2.001,-0 -3.569,0.438 -4.705,1.314c-1.137,0.876 -1.936,1.811 -2.397,2.805l-3.978,-1.42c0.711,-1.657 1.661,-2.951 2.85,-3.88c1.19,-0.929 2.492,-1.58 3.906,-1.953c1.415,-0.373 2.809,-0.559 4.182,-0.559c0.876,-0 1.885,0.103 3.027,0.31c1.143,0.208 2.249,0.631 3.321,1.27c1.071,0.639 1.962,1.604 2.672,2.894c0.71,1.29 1.065,3.019 1.065,5.185l0,17.969l-4.19,-0l-0,-3.694l-0.213,0c-0.284,0.592 -0.758,1.226 -1.421,1.9c-0.663,0.675 -1.544,1.249 -2.645,1.723c-1.101,0.473 -2.445,0.71 -4.031,0.71Zm0.639,-3.764c1.658,-0 3.057,-0.326 4.2,-0.977c1.142,-0.651 2.006,-1.491 2.592,-2.521c0.586,-1.03 0.879,-2.113 0.879,-3.25l-0,-3.835c-0.178,0.213 -0.565,0.406 -1.163,0.577c-0.598,0.172 -1.285,0.32 -2.06,0.444c-0.775,0.124 -1.527,0.231 -2.255,0.32c-0.728,0.089 -1.317,0.163 -1.767,0.222c-1.089,0.142 -2.104,0.37 -3.045,0.683c-0.941,0.314 -1.698,0.782 -2.272,1.403c-0.574,0.621 -0.861,1.465 -0.861,2.53c-0,1.456 0.541,2.554 1.624,3.294c1.083,0.74 2.459,1.11 4.128,1.11Z" style="fill:#212529;fill-rule:nonzero;"/><path d="M955.802,661.505l-0,-27.273l4.19,-0l-0,27.273l-4.19,-0Zm2.13,-31.819c-0.816,0 -1.518,-0.278 -2.104,-0.834c-0.586,-0.556 -0.879,-1.225 -0.879,-2.007c0,-0.781 0.293,-1.45 0.879,-2.006c0.586,-0.556 1.288,-0.834 2.104,-0.834c0.817,-0 1.518,0.278 2.104,0.834c0.586,0.556 0.879,1.225 0.879,2.006c0,0.782 -0.293,1.451 -0.879,2.007c-0.586,0.556 -1.287,0.834 -2.104,0.834Z" style="fill:#212529;fill-rule:nonzero;"/><rect x="967.662" y="625.141" width="4.19" height="36.364" style="fill:#212529;fill-rule:nonzero;"/><path d="M982.577,661.789c-0.876,-0 -1.627,-0.314 -2.255,-0.941c-0.627,-0.628 -0.941,-1.379 -0.941,-2.255c0,-0.876 0.314,-1.628 0.941,-2.255c0.628,-0.628 1.379,-0.941 2.255,-0.941c0.876,-0 1.628,0.313 2.255,0.941c0.628,0.627 0.941,1.379 0.941,2.255c0,0.58 -0.145,1.112 -0.435,1.598c-0.29,0.485 -0.674,0.873 -1.154,1.163c-0.479,0.29 -1.015,0.435 -1.607,0.435Z" style="fill:#212529;fill-rule:nonzero;"/><path d="M1004.38,662.073c-2.557,-0 -4.758,-0.604 -6.605,-1.811c-1.847,-1.208 -3.267,-2.871 -4.261,-4.99c-0.995,-2.118 -1.492,-4.539 -1.492,-7.262c0,-2.77 0.512,-5.217 1.536,-7.342c1.024,-2.124 2.456,-3.788 4.297,-4.989c1.841,-1.202 3.992,-1.802 6.454,-1.802c1.918,-0 3.646,0.355 5.185,1.065c1.539,0.71 2.799,1.705 3.782,2.983c0.982,1.278 1.592,2.77 1.829,4.474l-4.191,0c-0.319,-1.242 -1.027,-2.346 -2.121,-3.311c-1.095,-0.965 -2.566,-1.447 -4.413,-1.447c-1.633,-0 -3.063,0.423 -4.288,1.269c-1.225,0.847 -2.178,2.036 -2.858,3.569c-0.681,1.533 -1.021,3.33 -1.021,5.389c-0,2.107 0.334,3.942 1.003,5.505c0.669,1.562 1.616,2.775 2.841,3.639c1.225,0.865 2.666,1.297 4.323,1.297c1.089,-0 2.078,-0.19 2.965,-0.569c0.888,-0.378 1.64,-0.923 2.255,-1.633c0.616,-0.71 1.054,-1.563 1.314,-2.557l4.191,0c-0.237,1.61 -0.82,3.057 -1.749,4.341c-0.929,1.285 -2.155,2.303 -3.676,3.054c-1.521,0.752 -3.287,1.128 -5.3,1.128Z" style="fill:#212529;fill-rule:nonzero;"/><path d="M1032.29,662.073c-2.462,-0 -4.619,-0.586 -6.472,-1.758c-1.852,-1.172 -3.296,-2.811 -4.332,-4.918c-1.036,-2.107 -1.554,-4.569 -1.554,-7.387c0,-2.841 0.518,-5.321 1.554,-7.439c1.036,-2.119 2.48,-3.765 4.332,-4.936c1.853,-1.172 4.01,-1.758 6.472,-1.758c2.462,-0 4.62,0.586 6.472,1.758c1.853,1.171 3.297,2.817 4.333,4.936c1.035,2.118 1.553,4.598 1.553,7.439c0,2.818 -0.518,5.28 -1.553,7.387c-1.036,2.107 -2.48,3.746 -4.333,4.918c-1.852,1.172 -4.01,1.758 -6.472,1.758Zm0,-3.764c1.87,-0 3.409,-0.48 4.617,-1.439c1.207,-0.958 2.101,-2.219 2.681,-3.782c0.58,-1.562 0.87,-3.255 0.87,-5.078c-0,-1.823 -0.29,-3.521 -0.87,-5.096c-0.58,-1.574 -1.474,-2.846 -2.681,-3.817c-1.208,-0.971 -2.747,-1.456 -4.617,-1.456c-1.87,-0 -3.409,0.485 -4.616,1.456c-1.208,0.971 -2.101,2.243 -2.681,3.817c-0.58,1.575 -0.87,3.273 -0.87,5.096c-0,1.823 0.29,3.516 0.87,5.078c0.58,1.563 1.473,2.824 2.681,3.782c1.207,0.959 2.746,1.439 4.616,1.439Z" style="fill:#212529;fill-rule:nonzero;"/><path d="M1051.04,661.505l0,-27.273l4.048,-0l0,4.261l0.356,0c0.568,-1.456 1.485,-2.589 2.752,-3.4c1.266,-0.811 2.787,-1.216 4.563,-1.216c1.799,-0 3.3,0.405 4.501,1.216c1.201,0.811 2.14,1.944 2.814,3.4l0.284,0c0.699,-1.408 1.746,-2.53 3.143,-3.364c1.397,-0.835 3.072,-1.252 5.025,-1.252c2.438,-0 4.433,0.76 5.984,2.281c1.55,1.521 2.326,3.886 2.326,7.094l-0,18.253l-4.191,-0l0,-18.253c0,-2.013 -0.55,-3.451 -1.651,-4.315c-1.101,-0.864 -2.397,-1.296 -3.888,-1.296c-1.918,-0 -3.404,0.577 -4.457,1.731c-1.054,1.154 -1.58,2.613 -1.58,4.377l-0,17.756l-4.262,-0l0,-18.679c0,-1.551 -0.503,-2.803 -1.509,-3.756c-1.006,-0.953 -2.302,-1.429 -3.888,-1.429c-1.09,-0 -2.105,0.29 -3.046,0.87c-0.941,0.58 -1.698,1.382 -2.272,2.406c-0.574,1.024 -0.861,2.205 -0.861,3.542l-0,17.046l-4.191,-0Z" style="fill:#212529;fill-rule:nonzero;"/></g></g><g><g><path d="M1131.87,785.223c0,-14.388 -11.681,-26.068 -26.068,-26.068l-462.611,0c-14.387,0 -26.068,11.68 -26.068,26.068l0,52.136c0,14.387 11.681,26.068 26.068,26.068l462.611,0c14.387,0 26.068,-11.681 26.068,-26.068l0,-52.136Z" style="fill:#fff;stroke:#212529;stroke-width:12.5px;"/><path d="M652.037,830.256l0,-36.363l12.287,-0c2.853,-0 5.188,0.511 7.005,1.535c1.817,1.024 3.163,2.406 4.039,4.146c0.876,1.74 1.314,3.682 1.314,5.824c0,2.143 -0.435,4.09 -1.305,5.842c-0.87,1.752 -2.211,3.146 -4.022,4.181c-1.811,1.036 -4.131,1.554 -6.96,1.554l-8.807,-0l0,-3.906l8.665,-0c1.953,-0 3.522,-0.338 4.705,-1.012c1.184,-0.675 2.045,-1.59 2.584,-2.744c0.538,-1.154 0.808,-2.459 0.808,-3.915c-0,-1.456 -0.27,-2.758 -0.808,-3.906c-0.539,-1.148 -1.406,-2.051 -2.601,-2.708c-1.196,-0.657 -2.782,-0.985 -4.759,-0.985l-7.741,-0l-0,32.457l-4.404,0Z" style="fill:#727272;fill-rule:nonzero;"/><path d="M691.242,830.895c-1.728,0 -3.297,-0.328 -4.706,-0.985c-1.408,-0.657 -2.527,-1.61 -3.355,-2.859c-0.829,-1.249 -1.243,-2.761 -1.243,-4.536c-0,-1.563 0.308,-2.832 0.923,-3.809c0.616,-0.976 1.438,-1.743 2.468,-2.299c1.03,-0.557 2.169,-0.974 3.418,-1.252c1.249,-0.278 2.507,-0.5 3.773,-0.666c1.657,-0.213 3.004,-0.376 4.04,-0.488c1.035,-0.113 1.793,-0.305 2.272,-0.577c0.48,-0.272 0.719,-0.746 0.719,-1.421l0,-0.142c0,-1.752 -0.476,-3.113 -1.429,-4.084c-0.953,-0.97 -2.394,-1.455 -4.323,-1.455c-2.001,-0 -3.569,0.438 -4.706,1.313c-1.136,0.876 -1.935,1.812 -2.397,2.806l-3.977,-1.421c0.71,-1.657 1.66,-2.95 2.85,-3.879c1.189,-0.929 2.492,-1.58 3.906,-1.953c1.415,-0.373 2.808,-0.56 4.182,-0.56c0.875,0 1.885,0.104 3.027,0.311c1.142,0.207 2.249,0.63 3.32,1.27c1.071,0.639 1.962,1.604 2.672,2.894c0.711,1.29 1.066,3.018 1.066,5.184l-0,17.969l-4.191,0l0,-3.693l-0.213,0c-0.284,0.592 -0.757,1.225 -1.42,1.9c-0.663,0.675 -1.545,1.249 -2.646,1.722c-1.101,0.474 -2.444,0.71 -4.03,0.71Zm0.639,-3.764c1.657,0 3.057,-0.325 4.199,-0.976c1.142,-0.651 2.007,-1.492 2.592,-2.522c0.586,-1.029 0.879,-2.113 0.879,-3.249l0,-3.835c-0.177,0.213 -0.565,0.405 -1.163,0.577c-0.597,0.172 -1.284,0.319 -2.059,0.444c-0.776,0.124 -1.527,0.231 -2.255,0.319c-0.728,0.089 -1.317,0.163 -1.767,0.222c-1.089,0.142 -2.104,0.37 -3.045,0.684c-0.941,0.314 -1.699,0.781 -2.273,1.403c-0.574,0.621 -0.861,1.464 -0.861,2.53c0,1.456 0.542,2.554 1.625,3.293c1.083,0.74 2.459,1.11 4.128,1.11Z" style="fill:#727272;fill-rule:nonzero;"/><path d="M730.73,809.091l-3.764,1.066c-0.237,-0.628 -0.583,-1.24 -1.039,-1.838c-0.455,-0.598 -1.074,-1.092 -1.855,-1.483c-0.781,-0.39 -1.781,-0.585 -3.001,-0.585c-1.669,-0 -3.057,0.381 -4.163,1.145c-1.107,0.763 -1.661,1.731 -1.661,2.903c0,1.041 0.379,1.864 1.137,2.468c0.757,0.604 1.941,1.107 3.551,1.509l4.048,0.994c2.439,0.592 4.256,1.495 5.451,2.708c1.196,1.213 1.794,2.773 1.794,4.679c-0,1.562 -0.447,2.959 -1.341,4.19c-0.894,1.231 -2.14,2.202 -3.738,2.912c-1.598,0.71 -3.456,1.065 -5.575,1.065c-2.782,0 -5.084,-0.603 -6.907,-1.811c-1.823,-1.207 -2.977,-2.971 -3.462,-5.291l3.977,-0.994c0.379,1.468 1.098,2.568 2.157,3.302c1.06,0.734 2.448,1.101 4.164,1.101c1.953,0 3.507,-0.417 4.661,-1.252c1.154,-0.834 1.731,-1.837 1.731,-3.009c0,-0.947 -0.331,-1.743 -0.994,-2.388c-0.663,-0.645 -1.681,-1.128 -3.054,-1.447l-4.546,-1.066c-2.497,-0.592 -4.329,-1.512 -5.495,-2.761c-1.166,-1.249 -1.749,-2.814 -1.749,-4.696c0,-1.539 0.435,-2.9 1.305,-4.084c0.87,-1.184 2.06,-2.113 3.569,-2.788c1.509,-0.674 3.223,-1.012 5.14,-1.012c2.699,0 4.821,0.592 6.366,1.776c1.544,1.184 2.642,2.746 3.293,4.687Z" style="fill:#727272;fill-rule:nonzero;"/><path d="M756.867,809.091l-3.764,1.066c-0.237,-0.628 -0.583,-1.24 -1.039,-1.838c-0.456,-0.598 -1.074,-1.092 -1.856,-1.483c-0.781,-0.39 -1.781,-0.585 -3,-0.585c-1.669,-0 -3.057,0.381 -4.164,1.145c-1.107,0.763 -1.66,1.731 -1.66,2.903c-0,1.041 0.379,1.864 1.136,2.468c0.758,0.604 1.941,1.107 3.551,1.509l4.049,0.994c2.438,0.592 4.255,1.495 5.451,2.708c1.195,1.213 1.793,2.773 1.793,4.679c-0,1.562 -0.447,2.959 -1.341,4.19c-0.893,1.231 -2.139,2.202 -3.737,2.912c-1.598,0.71 -3.457,1.065 -5.575,1.065c-2.782,0 -5.085,-0.603 -6.907,-1.811c-1.823,-1.207 -2.977,-2.971 -3.463,-5.291l3.977,-0.994c0.379,1.468 1.098,2.568 2.158,3.302c1.059,0.734 2.447,1.101 4.164,1.101c1.953,0 3.506,-0.417 4.66,-1.252c1.155,-0.834 1.732,-1.837 1.732,-3.009c-0,-0.947 -0.332,-1.743 -0.995,-2.388c-0.663,-0.645 -1.681,-1.128 -3.054,-1.447l-4.545,-1.066c-2.498,-0.592 -4.33,-1.512 -5.496,-2.761c-1.166,-1.249 -1.749,-2.814 -1.749,-4.696c0,-1.539 0.435,-2.9 1.306,-4.084c0.87,-1.184 2.059,-2.113 3.568,-2.788c1.51,-0.674 3.223,-1.012 5.141,-1.012c2.699,0 4.82,0.592 6.365,1.776c1.545,1.184 2.643,2.746 3.294,4.687Z" style="fill:#727272;fill-rule:nonzero;"/><path d="M769.864,830.256l-8.31,-27.273l4.404,0l5.895,20.881l0.284,0l5.824,-20.881l4.474,0l5.753,20.81l0.284,0l5.895,-20.81l4.403,0l-8.309,27.273l-4.12,0l-5.966,-20.952l-0.426,0l-5.966,20.952l-4.119,0Z" style="fill:#727272;fill-rule:nonzero;"/><path d="M814.466,830.824c-2.462,0 -4.619,-0.586 -6.472,-1.757c-1.852,-1.172 -3.296,-2.812 -4.332,-4.919c-1.036,-2.107 -1.554,-4.569 -1.554,-7.386c0,-2.841 0.518,-5.321 1.554,-7.44c1.036,-2.119 2.48,-3.764 4.332,-4.936c1.853,-1.172 4.01,-1.758 6.472,-1.758c2.462,0 4.62,0.586 6.472,1.758c1.853,1.172 3.297,2.817 4.333,4.936c1.035,2.119 1.553,4.599 1.553,7.44c0,2.817 -0.518,5.279 -1.553,7.386c-1.036,2.107 -2.48,3.747 -4.333,4.919c-1.852,1.171 -4.01,1.757 -6.472,1.757Zm0,-3.764c1.871,0 3.409,-0.479 4.617,-1.438c1.207,-0.959 2.101,-2.219 2.681,-3.782c0.58,-1.562 0.87,-3.255 0.87,-5.078c-0,-1.823 -0.29,-3.522 -0.87,-5.096c-0.58,-1.574 -1.474,-2.847 -2.681,-3.817c-1.208,-0.971 -2.746,-1.456 -4.617,-1.456c-1.87,-0 -3.409,0.485 -4.616,1.456c-1.208,0.97 -2.101,2.243 -2.681,3.817c-0.58,1.574 -0.87,3.273 -0.87,5.096c-0,1.823 0.29,3.516 0.87,5.078c0.58,1.563 1.473,2.823 2.681,3.782c1.207,0.959 2.746,1.438 4.616,1.438Z" style="fill:#727272;fill-rule:nonzero;"/><path d="M833.216,830.256l0,-27.273l4.049,0l-0,4.12l0.284,-0c0.497,-1.35 1.396,-2.445 2.699,-3.285c1.302,-0.84 2.769,-1.261 4.403,-1.261c0.308,0 0.692,0.006 1.154,0.018c0.462,0.012 0.811,0.03 1.048,0.053l-0,4.262c-0.142,-0.036 -0.465,-0.092 -0.968,-0.169c-0.503,-0.077 -1.033,-0.115 -1.589,-0.115c-1.326,-0 -2.507,0.275 -3.542,0.825c-1.036,0.551 -1.853,1.308 -2.451,2.273c-0.597,0.965 -0.896,2.063 -0.896,3.294l-0,17.258l-4.191,0Z" style="fill:#727272;fill-rule:nonzero;"/><path d="M861.27,830.824c-2.272,0 -4.279,-0.577 -6.019,-1.731c-1.74,-1.154 -3.101,-2.787 -4.084,-4.9c-0.982,-2.113 -1.473,-4.614 -1.473,-7.502c-0,-2.865 0.491,-5.351 1.473,-7.458c0.983,-2.107 2.35,-3.734 4.102,-4.882c1.752,-1.149 3.776,-1.723 6.072,-1.723c1.776,0 3.182,0.293 4.217,0.879c1.036,0.586 1.829,1.249 2.38,1.989c0.55,0.74 0.979,1.346 1.287,1.82l0.355,-0l-0,-13.423l4.19,-0l0,36.363l-4.048,0l0,-4.19l-0.497,-0c-0.308,0.497 -0.746,1.121 -1.314,1.873c-0.568,0.752 -1.379,1.421 -2.433,2.006c-1.053,0.586 -2.456,0.879 -4.208,0.879Zm0.568,-3.764c1.681,0 3.102,-0.441 4.262,-1.323c1.16,-0.881 2.042,-2.107 2.645,-3.675c0.604,-1.568 0.906,-3.383 0.906,-5.442c-0,-2.036 -0.296,-3.821 -0.888,-5.354c-0.592,-1.532 -1.468,-2.728 -2.628,-3.586c-1.16,-0.858 -2.592,-1.287 -4.297,-1.287c-1.775,-0 -3.252,0.452 -4.43,1.358c-1.177,0.905 -2.059,2.131 -2.645,3.675c-0.586,1.545 -0.879,3.276 -0.879,5.194c-0,1.941 0.299,3.702 0.897,5.282c0.597,1.58 1.485,2.835 2.663,3.764c1.178,0.93 2.643,1.394 4.394,1.394Z" style="fill:#727272;fill-rule:nonzero;"/></g></g><g><g><path d="M1131.14,953.975c0,-14.388 -11.681,-26.068 -26.068,-26.068l-462.611,-0c-14.387,-0 -26.068,11.68 -26.068,26.068l-0,52.136c-0,14.387 11.681,26.068 26.068,26.068l462.611,-0c14.387,-0 26.068,-11.681 26.068,-26.068l0,-52.136Z" style="fill:#76f5c0;stroke:#212529;stroke-width:12.5px;"/><path d="M777.435,993.951l0,-36.364l14.332,0c2.756,0 5.106,0.488 7.049,1.463c1.944,0.976 3.428,2.353 4.454,4.134c1.025,1.78 1.537,3.873 1.537,6.278c0,2.42 -0.521,4.497 -1.564,6.232c-1.043,1.736 -2.55,3.065 -4.521,3.988c-1.971,0.924 -4.35,1.385 -7.139,1.385l-9.603,0l0,-6.193l8.353,0c1.472,0 2.693,-0.2 3.663,-0.602c0.969,-0.401 1.695,-1.003 2.177,-1.805c0.481,-0.803 0.722,-1.804 0.722,-3.005c0,-1.207 -0.242,-2.226 -0.726,-3.056c-0.484,-0.829 -1.212,-1.458 -2.184,-1.885c-0.972,-0.428 -2.199,-0.641 -3.681,-0.641l-5.184,-0l-0,30.071l-7.685,-0Zm19.631,-16.548l9.034,16.548l-8.48,-0l-8.85,-16.548l8.296,-0Z" style="fill:#212529;fill-rule:nonzero;"/><path d="M821.384,994.476c-2.798,0 -5.208,-0.568 -7.228,-1.706c-2.021,-1.137 -3.575,-2.757 -4.663,-4.858c-1.088,-2.101 -1.632,-4.591 -1.632,-7.47c0,-2.807 0.546,-5.271 1.637,-7.39c1.092,-2.118 2.627,-3.77 4.606,-4.953c1.979,-1.184 4.306,-1.776 6.982,-1.776c1.804,0 3.483,0.286 5.039,0.859c1.555,0.573 2.915,1.436 4.08,2.587c1.165,1.152 2.074,2.595 2.727,4.328c0.654,1.733 0.98,3.758 0.98,6.075l0,2.074l-23.025,0l-0,-4.687l15.909,-0c-0.007,-1.084 -0.248,-2.047 -0.723,-2.889c-0.474,-0.842 -1.129,-1.503 -1.964,-1.985c-0.834,-0.482 -1.8,-0.723 -2.896,-0.723c-1.143,0 -2.156,0.266 -3.04,0.797c-0.883,0.532 -1.573,1.238 -2.072,2.119c-0.498,0.88 -0.754,1.859 -0.768,2.937l-0,4.46c-0,1.349 0.253,2.515 0.76,3.498c0.506,0.982 1.221,1.739 2.144,2.269c0.924,0.53 2.015,0.795 3.275,0.795c0.845,0 1.615,-0.119 2.31,-0.358c0.695,-0.239 1.293,-0.594 1.795,-1.064c0.502,-0.47 0.881,-1.047 1.136,-1.731l6.989,0.454c-0.355,1.686 -1.079,3.153 -2.17,4.402c-1.091,1.249 -2.499,2.217 -4.224,2.905c-1.725,0.688 -3.713,1.031 -5.964,1.031Z" style="fill:#212529;fill-rule:nonzero;"/><path d="M850.376,1004.58c-2.451,0 -4.551,-0.332 -6.302,-0.996c-1.751,-0.664 -3.14,-1.559 -4.169,-2.685c-1.029,-1.126 -1.696,-2.375 -2.001,-3.748l7.002,-0.938c0.209,0.491 0.543,0.959 1.002,1.405c0.459,0.446 1.071,0.811 1.834,1.095c0.764,0.285 1.698,0.427 2.804,0.427c1.64,-0 2.998,-0.391 4.071,-1.172c1.074,-0.782 1.611,-2.067 1.611,-3.857l-0,-4.986l-0.313,0c-0.336,0.753 -0.837,1.469 -1.502,2.147c-0.665,0.678 -1.516,1.231 -2.553,1.658c-1.037,0.428 -2.28,0.641 -3.729,0.641c-2.045,0 -3.906,-0.478 -5.58,-1.434c-1.675,-0.957 -3.008,-2.419 -3.999,-4.386c-0.991,-1.967 -1.486,-4.464 -1.486,-7.489c-0,-3.092 0.503,-5.672 1.511,-7.738c1.007,-2.067 2.349,-3.616 4.027,-4.649c1.677,-1.032 3.515,-1.548 5.513,-1.548c1.52,0 2.795,0.257 3.825,0.772c1.029,0.515 1.863,1.153 2.5,1.914c0.636,0.762 1.123,1.514 1.459,2.257l0.298,0l0,-4.588l7.5,0l0,27.543c0,2.265 -0.569,4.167 -1.706,5.705c-1.138,1.537 -2.709,2.697 -4.714,3.478c-2.005,0.781 -4.307,1.172 -6.903,1.172Zm0.156,-16.69c1.212,-0 2.243,-0.305 3.094,-0.915c0.852,-0.609 1.503,-1.485 1.954,-2.628c0.451,-1.142 0.676,-2.513 0.676,-4.114c0,-1.595 -0.223,-2.983 -0.669,-4.163c-0.446,-1.181 -1.095,-2.096 -1.946,-2.746c-0.851,-0.649 -1.888,-0.974 -3.109,-0.974c-1.25,-0 -2.301,0.334 -3.152,1.003c-0.851,0.669 -1.495,1.596 -1.932,2.781c-0.437,1.185 -0.655,2.551 -0.655,4.099c0,1.567 0.221,2.923 0.662,4.068c0.442,1.145 1.088,2.029 1.939,2.653c0.851,0.624 1.897,0.936 3.138,0.936Z" style="fill:#212529;fill-rule:nonzero;"/><path d="M868.55,993.951l0,-27.273l7.564,0l0,27.273l-7.564,-0Zm3.818,-30.788c-1.125,-0 -2.09,-0.376 -2.895,-1.128c-0.804,-0.752 -1.207,-1.654 -1.207,-2.708c0,-1.041 0.403,-1.938 1.207,-2.69c0.805,-0.751 1.764,-1.127 2.877,-1.127c1.136,-0 2.104,0.376 2.903,1.127c0.799,0.752 1.198,1.649 1.198,2.69c0,1.054 -0.399,1.956 -1.198,2.708c-0.799,0.752 -1.761,1.128 -2.885,1.128Z" style="fill:#212529;fill-rule:nonzero;"/><path d="M903.103,974.448l-6.918,0.426c-0.123,-0.585 -0.379,-1.117 -0.767,-1.598c-0.388,-0.48 -0.9,-0.865 -1.536,-1.152c-0.635,-0.288 -1.392,-0.432 -2.271,-0.432c-1.172,0 -2.16,0.245 -2.965,0.735c-0.805,0.491 -1.204,1.14 -1.197,1.95c-0.007,0.658 0.249,1.211 0.769,1.658c0.52,0.448 1.414,0.809 2.683,1.084l4.943,0.994c2.652,0.542 4.627,1.416 5.925,2.622c1.299,1.207 1.951,2.795 1.958,4.764c-0.007,1.79 -0.531,3.359 -1.574,4.707c-1.043,1.348 -2.476,2.397 -4.297,3.146c-1.822,0.75 -3.913,1.124 -6.273,1.124c-3.613,0 -6.489,-0.752 -8.628,-2.258c-2.139,-1.506 -3.387,-3.561 -3.744,-6.165l7.429,-0.398c0.229,1.106 0.774,1.946 1.635,2.52c0.86,0.574 1.968,0.861 3.322,0.861c1.321,0 2.388,-0.259 3.201,-0.777c0.814,-0.519 1.224,-1.183 1.231,-1.993c-0.007,-0.691 -0.294,-1.258 -0.861,-1.701c-0.567,-0.442 -1.445,-0.785 -2.634,-1.026l-4.715,-0.938c-2.668,-0.527 -4.651,-1.45 -5.948,-2.766c-1.298,-1.316 -1.943,-2.994 -1.936,-5.032c-0.007,-1.752 0.467,-3.26 1.422,-4.526c0.956,-1.265 2.301,-2.241 4.038,-2.926c1.737,-0.685 3.766,-1.028 6.088,-1.028c3.445,0 6.16,0.727 8.145,2.18c1.985,1.454 3.143,3.435 3.475,5.945Z" style="fill:#212529;fill-rule:nonzero;"/><path d="M921.057,966.678l0,5.682l-16.435,-0l0,-5.682l16.435,0Zm-12.699,-6.534l7.557,0l0,25.419c0,0.701 0.109,1.245 0.327,1.632c0.218,0.387 0.518,0.657 0.902,0.81c0.383,0.152 0.826,0.229 1.328,0.229c0.362,-0 0.722,-0.032 1.078,-0.096c0.356,-0.064 0.626,-0.117 0.811,-0.16l1.193,5.639c-0.376,0.121 -0.909,0.261 -1.599,0.419c-0.691,0.159 -1.526,0.256 -2.506,0.291c-1.823,0.071 -3.418,-0.171 -4.787,-0.726c-1.368,-0.555 -2.431,-1.421 -3.189,-2.598c-0.757,-1.176 -1.129,-2.653 -1.115,-4.431l0,-26.428Z" style="fill:#212529;fill-rule:nonzero;"/><path d="M936.867,994.476c-2.798,0 -5.208,-0.568 -7.228,-1.706c-2.021,-1.137 -3.575,-2.757 -4.663,-4.858c-1.088,-2.101 -1.632,-4.591 -1.632,-7.47c0,-2.807 0.546,-5.271 1.637,-7.39c1.092,-2.118 2.627,-3.77 4.606,-4.953c1.979,-1.184 4.306,-1.776 6.982,-1.776c1.804,0 3.483,0.286 5.039,0.859c1.555,0.573 2.915,1.436 4.08,2.587c1.165,1.152 2.074,2.595 2.727,4.328c0.654,1.733 0.98,3.758 0.98,6.075l0,2.074l-23.025,0l-0,-4.687l15.909,-0c-0.007,-1.084 -0.248,-2.047 -0.723,-2.889c-0.474,-0.842 -1.129,-1.503 -1.964,-1.985c-0.834,-0.482 -1.799,-0.723 -2.896,-0.723c-1.143,0 -2.156,0.266 -3.039,0.797c-0.884,0.532 -1.574,1.238 -2.072,2.119c-0.499,0.88 -0.755,1.859 -0.769,2.937l-0,4.46c-0,1.349 0.253,2.515 0.76,3.498c0.506,0.982 1.221,1.739 2.144,2.269c0.924,0.53 2.015,0.795 3.275,0.795c0.845,0 1.615,-0.119 2.31,-0.358c0.695,-0.239 1.293,-0.594 1.795,-1.064c0.502,-0.47 0.881,-1.047 1.136,-1.731l6.989,0.454c-0.355,1.686 -1.079,3.153 -2.17,4.402c-1.091,1.249 -2.499,2.217 -4.224,2.905c-1.725,0.688 -3.713,1.031 -5.964,1.031Z" style="fill:#212529;fill-rule:nonzero;"/><path d="M953.572,993.951l-0,-27.273l7.329,0l-0,4.759l0.284,-0c0.497,-1.691 1.331,-2.97 2.502,-3.839c1.171,-0.869 2.519,-1.303 4.046,-1.303c0.379,-0 0.787,0.022 1.224,0.065c0.437,0.044 0.819,0.106 1.149,0.187l-0,6.722c-0.348,-0.114 -0.836,-0.211 -1.463,-0.291c-0.628,-0.081 -1.205,-0.121 -1.734,-0.121c-1.105,0 -2.094,0.24 -2.966,0.719c-0.873,0.48 -1.56,1.145 -2.062,1.996c-0.502,0.851 -0.753,1.835 -0.753,2.953l0,15.426l-7.556,-0Z" style="fill:#212529;fill-rule:nonzero;"/></g><g><path d="M500.446,1124.45l-4.368,-0l9.812,-27.273l4.751,0l9.812,27.273l-4.368,-0l-7.713,-22.319l-0.213,0l-7.713,22.319Zm0.724,-10.675l14.169,0l0,3.452l-14.169,0l0,-3.452Z" style="fill:#ff4d6d;fill-rule:nonzero;"/><path d="M527.154,1112.31l0,12.145l-3.984,-0l-0,-20.455l3.824,0l0,3.335l0.256,-0c0.472,-1.09 1.211,-1.963 2.217,-2.618c1.006,-0.655 2.277,-0.983 3.813,-0.983c1.397,0 2.618,0.292 3.663,0.875c1.045,0.583 1.857,1.447 2.437,2.59c0.58,1.144 0.869,2.56 0.867,4.248l0,13.008l-3.984,-0l-0,-12.528c0.002,-1.488 -0.383,-2.65 -1.155,-3.487c-0.771,-0.836 -1.832,-1.254 -3.181,-1.254c-0.923,-0 -1.744,0.2 -2.462,0.6c-0.719,0.401 -1.283,0.983 -1.693,1.747c-0.41,0.765 -0.616,1.69 -0.618,2.777Z" style="fill:#ff4d6d;fill-rule:nonzero;"/><path d="M564.484,1124.87c-2.014,0 -3.748,-0.433 -5.203,-1.301c-1.455,-0.867 -2.575,-2.089 -3.359,-3.664c-0.784,-1.576 -1.176,-3.422 -1.176,-5.539c0,-2.099 0.393,-3.947 1.178,-5.545c0.784,-1.598 1.884,-2.845 3.299,-3.742c1.416,-0.897 3.073,-1.345 4.973,-1.345c1.161,0 2.283,0.19 3.364,0.57c1.081,0.38 2.051,0.979 2.911,1.796c0.859,0.818 1.539,1.878 2.04,3.182c0.501,1.303 0.751,2.881 0.751,4.733l0,1.406l-16.268,-0l0,-2.983l12.358,-0c-0.002,-1.041 -0.214,-1.968 -0.638,-2.782c-0.423,-0.814 -1.019,-1.456 -1.787,-1.926c-0.768,-0.469 -1.667,-0.704 -2.699,-0.704c-1.12,-0 -2.094,0.272 -2.922,0.816c-0.827,0.544 -1.466,1.255 -1.916,2.132c-0.45,0.877 -0.677,1.827 -0.68,2.847l-0,2.323c-0,1.367 0.242,2.53 0.727,3.489c0.484,0.959 1.162,1.689 2.032,2.192c0.87,0.502 1.885,0.753 3.046,0.753c0.762,0 1.454,-0.108 2.074,-0.324c0.621,-0.217 1.156,-0.542 1.607,-0.977c0.451,-0.434 0.798,-0.973 1.039,-1.618l3.771,0.682c-0.301,1.108 -0.84,2.077 -1.616,2.907c-0.776,0.83 -1.75,1.475 -2.921,1.934c-1.171,0.459 -2.499,0.688 -3.985,0.688Z" style="fill:#ff4d6d;fill-rule:nonzero;"/><path d="M577.502,1124.45l0,-20.455l3.857,0l-0,3.25l0.213,-0c0.373,-1.098 1.031,-1.965 1.975,-2.602c0.943,-0.638 2.014,-0.957 3.213,-0.957c0.248,0 0.543,0.009 0.883,0.026c0.34,0.016 0.61,0.041 0.811,0.073l-0,3.811c-0.158,-0.046 -0.441,-0.098 -0.85,-0.157c-0.408,-0.059 -0.817,-0.088 -1.228,-0.088c-0.939,0 -1.776,0.198 -2.512,0.593c-0.736,0.395 -1.317,0.94 -1.741,1.635c-0.424,0.695 -0.637,1.49 -0.637,2.385l0,12.486l-3.984,-0Z" style="fill:#ff4d6d;fill-rule:nonzero;"/><path d="M591.458,1124.45l0,-20.455l3.857,0l-0,3.25l0.213,-0c0.373,-1.098 1.031,-1.965 1.975,-2.602c0.943,-0.638 2.014,-0.957 3.213,-0.957c0.248,0 0.543,0.009 0.883,0.026c0.34,0.016 0.61,0.041 0.811,0.073l-0,3.811c-0.158,-0.046 -0.441,-0.098 -0.85,-0.157c-0.408,-0.059 -0.817,-0.088 -1.228,-0.088c-0.939,0 -1.776,0.198 -2.512,0.593c-0.736,0.395 -1.317,0.94 -1.741,1.635c-0.424,0.695 -0.637,1.49 -0.637,2.385l0,12.486l-3.984,-0Z" style="fill:#ff4d6d;fill-rule:nonzero;"/><path d="M613.393,1124.87c-1.921,0 -3.595,-0.439 -5.023,-1.319c-1.427,-0.88 -2.536,-2.111 -3.326,-3.692c-0.79,-1.581 -1.185,-3.426 -1.185,-5.535c-0,-2.124 0.395,-3.98 1.185,-5.568c0.79,-1.588 1.899,-2.822 3.326,-3.702c1.428,-0.88 3.102,-1.32 5.023,-1.32c1.922,0 3.596,0.44 5.024,1.32c1.427,0.88 2.536,2.114 3.326,3.702c0.79,1.588 1.185,3.444 1.185,5.568c0,2.109 -0.395,3.954 -1.185,5.535c-0.79,1.581 -1.899,2.812 -3.326,3.692c-1.428,0.88 -3.102,1.319 -5.024,1.319Zm0.011,-3.345c1.247,0 2.277,-0.329 3.092,-0.988c0.815,-0.659 1.422,-1.534 1.819,-2.626c0.398,-1.092 0.597,-2.291 0.597,-3.598c-0,-1.309 -0.199,-2.512 -0.597,-3.61c-0.397,-1.099 -1.004,-1.981 -1.819,-2.646c-0.815,-0.666 -1.845,-0.999 -3.092,-0.999c-1.253,0 -2.289,0.333 -3.108,0.999c-0.819,0.665 -1.427,1.547 -1.824,2.646c-0.398,1.098 -0.597,2.301 -0.597,3.61c0,1.307 0.199,2.506 0.597,3.598c0.397,1.092 1.005,1.967 1.824,2.626c0.819,0.659 1.855,0.988 3.108,0.988Z" style="fill:#ff4d6d;fill-rule:nonzero;"/><path d="M627.147,1124.45l-0,-20.455l3.857,0l-0,3.25l0.213,-0c0.373,-1.098 1.031,-1.965 1.974,-2.602c0.944,-0.638 2.015,-0.957 3.214,-0.957c0.248,0 0.543,0.009 0.883,0.026c0.34,0.016 0.61,0.041 0.811,0.073l-0,3.811c-0.158,-0.046 -0.441,-0.098 -0.85,-0.157c-0.408,-0.059 -0.818,-0.088 -1.228,-0.088c-0.939,0 -1.777,0.198 -2.513,0.593c-0.735,0.395 -1.316,0.94 -1.74,1.635c-0.424,0.695 -0.637,1.49 -0.637,2.385l0,12.486l-3.984,-0Z" style="fill:#ff4d6d;fill-rule:nonzero;"/><path d="M660.268,1124.87c-1.921,0 -3.595,-0.439 -5.023,-1.319c-1.427,-0.88 -2.536,-2.111 -3.326,-3.692c-0.79,-1.581 -1.185,-3.426 -1.185,-5.535c-0,-2.124 0.395,-3.98 1.185,-5.568c0.79,-1.588 1.899,-2.822 3.326,-3.702c1.428,-0.88 3.102,-1.32 5.023,-1.32c1.922,0 3.596,0.44 5.024,1.32c1.427,0.88 2.536,2.114 3.326,3.702c0.79,1.588 1.185,3.444 1.185,5.568c0,2.109 -0.395,3.954 -1.185,5.535c-0.79,1.581 -1.899,2.812 -3.326,3.692c-1.428,0.88 -3.102,1.319 -5.024,1.319Zm0.011,-3.345c1.247,0 2.277,-0.329 3.092,-0.988c0.815,-0.659 1.422,-1.534 1.819,-2.626c0.398,-1.092 0.597,-2.291 0.597,-3.598c-0,-1.309 -0.199,-2.512 -0.597,-3.61c-0.397,-1.099 -1.004,-1.981 -1.819,-2.646c-0.815,-0.666 -1.845,-0.999 -3.092,-0.999c-1.253,0 -2.289,0.333 -3.108,0.999c-0.819,0.665 -1.427,1.547 -1.824,2.646c-0.398,1.098 -0.597,2.301 -0.597,3.61c0,1.307 0.199,2.506 0.597,3.598c0.397,1.092 1.005,1.967 1.824,2.626c0.819,0.659 1.855,0.988 3.108,0.988Z" style="fill:#ff4d6d;fill-rule:nonzero;"/><path d="M682.641,1124.87c-1.978,0 -3.679,-0.45 -5.103,-1.351c-1.424,-0.901 -2.519,-2.146 -3.284,-3.734c-0.766,-1.588 -1.148,-3.409 -1.148,-5.461c-0,-2.081 0.391,-3.918 1.174,-5.51c0.783,-1.591 1.885,-2.836 3.306,-3.734c1.42,-0.897 3.091,-1.346 5.012,-1.346c1.552,0 2.936,0.285 4.153,0.856c1.218,0.571 2.202,1.372 2.953,2.403c0.751,1.03 1.198,2.235 1.342,3.612l-3.878,0c-0.211,-0.96 -0.697,-1.786 -1.458,-2.478c-0.761,-0.691 -1.777,-1.037 -3.048,-1.037c-1.108,-0 -2.078,0.291 -2.908,0.872c-0.831,0.582 -1.478,1.406 -1.939,2.474c-0.462,1.068 -0.693,2.332 -0.693,3.792c0,1.487 0.227,2.774 0.682,3.86c0.454,1.086 1.097,1.925 1.928,2.517c0.831,0.592 1.808,0.888 2.93,0.888c0.762,0 1.451,-0.139 2.067,-0.417c0.616,-0.277 1.135,-0.679 1.556,-1.203c0.422,-0.525 0.716,-1.157 0.883,-1.895l3.878,-0c-0.147,1.326 -0.58,2.508 -1.297,3.546c-0.717,1.038 -1.678,1.855 -2.883,2.451c-1.205,0.597 -2.613,0.895 -4.225,0.895Z" style="fill:#ff4d6d;fill-rule:nonzero;"/><path d="M703.575,1124.87c-1.978,0 -3.679,-0.45 -5.103,-1.351c-1.424,-0.901 -2.519,-2.146 -3.284,-3.734c-0.766,-1.588 -1.148,-3.409 -1.148,-5.461c-0,-2.081 0.391,-3.918 1.174,-5.51c0.783,-1.591 1.885,-2.836 3.306,-3.734c1.42,-0.897 3.091,-1.346 5.012,-1.346c1.552,0 2.936,0.285 4.153,0.856c1.218,0.571 2.202,1.372 2.953,2.403c0.751,1.03 1.198,2.235 1.342,3.612l-3.878,0c-0.211,-0.96 -0.697,-1.786 -1.458,-2.478c-0.761,-0.691 -1.777,-1.037 -3.048,-1.037c-1.108,-0 -2.078,0.291 -2.909,0.872c-0.83,0.582 -1.477,1.406 -1.938,2.474c-0.462,1.068 -0.693,2.332 -0.693,3.792c0,1.487 0.227,2.774 0.682,3.86c0.454,1.086 1.097,1.925 1.928,2.517c0.831,0.592 1.808,0.888 2.93,0.888c0.762,0 1.451,-0.139 2.067,-0.417c0.616,-0.277 1.135,-0.679 1.556,-1.203c0.422,-0.525 0.716,-1.157 0.883,-1.895l3.878,-0c-0.147,1.326 -0.58,2.508 -1.297,3.546c-0.717,1.038 -1.678,1.855 -2.883,2.451c-1.205,0.597 -2.613,0.895 -4.225,0.895Z" style="fill:#ff4d6d;fill-rule:nonzero;"/><path d="M728.855,1115.97l0,-11.975l3.985,0l-0,20.455l-3.91,-0l-0,-3.548l-0.213,0c-0.473,1.092 -1.225,2.001 -2.256,2.726c-1.032,0.726 -2.318,1.088 -3.86,1.088c-1.308,0 -2.467,-0.291 -3.476,-0.873c-1.01,-0.583 -1.801,-1.446 -2.374,-2.589c-0.572,-1.144 -0.859,-2.56 -0.861,-4.251l-0,-13.008l3.984,0l0,12.529c0.002,1.395 0.39,2.506 1.163,3.332c0.773,0.825 1.774,1.238 3.003,1.238c0.747,0 1.491,-0.186 2.23,-0.558c0.74,-0.372 1.356,-0.936 1.849,-1.694c0.492,-0.757 0.738,-1.715 0.736,-2.872Z" style="fill:#ff4d6d;fill-rule:nonzero;"/><path d="M737.676,1124.45l0,-20.455l3.857,0l-0,3.25l0.213,-0c0.373,-1.098 1.031,-1.965 1.975,-2.602c0.943,-0.638 2.014,-0.957 3.213,-0.957c0.248,0 0.543,0.009 0.883,0.026c0.34,0.016 0.61,0.041 0.811,0.073l-0,3.811c-0.158,-0.046 -0.441,-0.098 -0.85,-0.157c-0.408,-0.059 -0.817,-0.088 -1.228,-0.088c-0.939,0 -1.776,0.198 -2.512,0.593c-0.736,0.395 -1.317,0.94 -1.741,1.635c-0.424,0.695 -0.637,1.49 -0.637,2.385l0,12.486l-3.984,-0Z" style="fill:#ff4d6d;fill-rule:nonzero;"/><path d="M751.632,1124.45l0,-20.455l3.857,0l-0,3.25l0.213,-0c0.373,-1.098 1.031,-1.965 1.975,-2.602c0.943,-0.638 2.014,-0.957 3.213,-0.957c0.248,0 0.543,0.009 0.883,0.026c0.34,0.016 0.61,0.041 0.811,0.073l-0,3.811c-0.158,-0.046 -0.441,-0.098 -0.85,-0.157c-0.408,-0.059 -0.817,-0.088 -1.228,-0.088c-0.939,0 -1.776,0.198 -2.512,0.593c-0.736,0.395 -1.317,0.94 -1.741,1.635c-0.424,0.695 -0.637,1.49 -0.637,2.385l0,12.486l-3.984,-0Z" style="fill:#ff4d6d;fill-rule:nonzero;"/><path d="M773.77,1124.87c-2.014,0 -3.748,-0.433 -5.203,-1.301c-1.455,-0.867 -2.575,-2.089 -3.359,-3.664c-0.783,-1.576 -1.175,-3.422 -1.175,-5.539c-0,-2.099 0.392,-3.947 1.177,-5.545c0.785,-1.598 1.885,-2.845 3.3,-3.742c1.415,-0.897 3.072,-1.345 4.972,-1.345c1.161,0 2.283,0.19 3.364,0.57c1.081,0.38 2.052,0.979 2.911,1.796c0.86,0.818 1.54,1.878 2.04,3.182c0.501,1.303 0.751,2.881 0.751,4.733l0,1.406l-16.268,-0l0,-2.983l12.358,-0c-0.001,-1.041 -0.214,-1.968 -0.637,-2.782c-0.424,-0.814 -1.02,-1.456 -1.788,-1.926c-0.767,-0.469 -1.667,-0.704 -2.699,-0.704c-1.12,-0 -2.094,0.272 -2.922,0.816c-0.827,0.544 -1.466,1.255 -1.916,2.132c-0.45,0.877 -0.677,1.827 -0.68,2.847l-0,2.323c-0,1.367 0.242,2.53 0.727,3.489c0.484,0.959 1.162,1.689 2.032,2.192c0.87,0.502 1.886,0.753 3.047,0.753c0.762,0 1.453,-0.108 2.073,-0.324c0.621,-0.217 1.157,-0.542 1.608,-0.977c0.451,-0.434 0.797,-0.973 1.038,-1.618l3.772,0.682c-0.302,1.108 -0.841,2.077 -1.617,2.907c-0.776,0.83 -1.749,1.475 -2.92,1.934c-1.172,0.459 -2.5,0.688 -3.986,0.688Z" style="fill:#ff4d6d;fill-rule:nonzero;"/><path d="M794.448,1124.85c-1.655,-0 -3.126,-0.423 -4.414,-1.268c-1.289,-0.845 -2.301,-2.057 -3.037,-3.635c-0.736,-1.579 -1.104,-3.471 -1.104,-5.676c0,-2.212 0.372,-4.105 1.115,-5.678c0.743,-1.573 1.762,-2.776 3.058,-3.609c1.295,-0.833 2.766,-1.249 4.414,-1.249c1.268,0 2.289,0.211 3.063,0.633c0.774,0.421 1.378,0.912 1.811,1.472c0.433,0.561 0.769,1.052 1.007,1.475l0.234,-0l0,-10.132l3.984,0l0,27.273l-3.888,-0l-0,-3.186l-0.33,0c-0.242,0.437 -0.586,0.936 -1.032,1.496c-0.447,0.56 -1.061,1.048 -1.843,1.462c-0.782,0.415 -1.795,0.622 -3.038,0.622Zm0.884,-3.388c1.144,0 2.112,-0.304 2.905,-0.912c0.792,-0.608 1.396,-1.455 1.811,-2.541c0.414,-1.086 0.622,-2.346 0.622,-3.78c-0,-1.424 -0.204,-2.669 -0.611,-3.733c-0.408,-1.065 -1.008,-1.893 -1.801,-2.485c-0.793,-0.592 -1.768,-0.888 -2.926,-0.888c-1.2,-0 -2.201,0.31 -3.003,0.931c-0.801,0.62 -1.403,1.466 -1.805,2.538c-0.402,1.071 -0.604,2.284 -0.604,3.637c0,1.367 0.205,2.597 0.614,3.69c0.41,1.093 1.015,1.956 1.817,2.591c0.801,0.635 1.795,0.952 2.981,0.952Z" style="fill:#ff4d6d;fill-rule:nonzero;"/><path d="M812.697,1124.71c-0.731,-0 -1.358,-0.261 -1.881,-0.782c-0.523,-0.521 -0.784,-1.148 -0.782,-1.882c-0.002,-0.728 0.259,-1.352 0.782,-1.872c0.523,-0.52 1.15,-0.78 1.881,-0.78c0.721,-0 1.345,0.26 1.871,0.78c0.527,0.52 0.791,1.144 0.793,1.872c-0.002,0.487 -0.125,0.932 -0.369,1.336c-0.244,0.404 -0.566,0.726 -0.966,0.967c-0.399,0.24 -0.842,0.361 -1.329,0.361Z" style="fill:#ff4d6d;fill-rule:nonzero;"/><path d="M853.916,1106.05l-4.145,-0c-0.167,-0.884 -0.466,-1.665 -0.899,-2.341c-0.432,-0.677 -0.963,-1.249 -1.592,-1.717c-0.63,-0.468 -1.334,-0.821 -2.114,-1.06c-0.779,-0.239 -1.602,-0.358 -2.469,-0.358c-1.569,0 -2.974,0.394 -4.214,1.183c-1.241,0.788 -2.219,1.945 -2.935,3.47c-0.717,1.525 -1.075,3.39 -1.075,5.596c0,2.223 0.359,4.096 1.077,5.621c0.719,1.524 1.697,2.676 2.937,3.457c1.239,0.78 2.639,1.17 4.2,1.17c0.861,0 1.679,-0.117 2.455,-0.35c0.776,-0.234 1.479,-0.58 2.11,-1.04c0.63,-0.46 1.164,-1.026 1.602,-1.698c0.437,-0.672 0.743,-1.443 0.917,-2.313l4.145,0.01c-0.217,1.346 -0.644,2.579 -1.282,3.699c-0.637,1.119 -1.449,2.087 -2.435,2.903c-0.987,0.816 -2.115,1.445 -3.387,1.887c-1.271,0.442 -2.657,0.663 -4.157,0.663c-2.362,-0 -4.465,-0.562 -6.311,-1.686c-1.846,-1.124 -3.299,-2.733 -4.36,-4.826c-1.061,-2.094 -1.591,-4.593 -1.591,-7.497c-0,-2.909 0.532,-5.409 1.598,-7.502c1.065,-2.092 2.521,-3.7 4.368,-4.823c1.846,-1.123 3.945,-1.685 6.296,-1.685c1.445,0 2.797,0.207 4.056,0.621c1.259,0.414 2.388,1.018 3.388,1.812c1,0.795 1.829,1.762 2.487,2.902c0.659,1.14 1.102,2.44 1.33,3.902Z" style="fill:#ff4d6d;fill-rule:nonzero;"/><path d="M862.204,1112.31l-0,12.145l-3.985,-0l0,-27.273l3.932,0l-0,10.153l0.255,-0c0.476,-1.106 1.207,-1.983 2.192,-2.63c0.986,-0.647 2.272,-0.971 3.859,-0.971c1.405,0 2.633,0.288 3.685,0.863c1.052,0.575 1.87,1.435 2.453,2.578c0.583,1.144 0.874,2.568 0.872,4.272l0,13.008l-3.984,-0l-0,-12.528c0.002,-1.503 -0.384,-2.668 -1.157,-3.497c-0.774,-0.83 -1.847,-1.244 -3.222,-1.244c-0.943,-0 -1.784,0.2 -2.523,0.6c-0.74,0.401 -1.32,0.983 -1.742,1.747c-0.422,0.765 -0.633,1.69 -0.635,2.777Z" style="fill:#ff4d6d;fill-rule:nonzero;"/><path d="M889.2,1124.87c-2.014,0 -3.748,-0.433 -5.203,-1.301c-1.455,-0.867 -2.575,-2.089 -3.359,-3.664c-0.784,-1.576 -1.176,-3.422 -1.176,-5.539c0,-2.099 0.393,-3.947 1.177,-5.545c0.785,-1.598 1.885,-2.845 3.3,-3.742c1.415,-0.897 3.073,-1.345 4.973,-1.345c1.161,0 2.282,0.19 3.364,0.57c1.081,0.38 2.051,0.979 2.911,1.796c0.859,0.818 1.539,1.878 2.04,3.182c0.501,1.303 0.751,2.881 0.751,4.733l0,1.406l-16.268,-0l0,-2.983l12.358,-0c-0.002,-1.041 -0.214,-1.968 -0.638,-2.782c-0.423,-0.814 -1.019,-1.456 -1.787,-1.926c-0.768,-0.469 -1.668,-0.704 -2.699,-0.704c-1.121,-0 -2.094,0.272 -2.922,0.816c-0.827,0.544 -1.466,1.255 -1.916,2.132c-0.45,0.877 -0.677,1.827 -0.681,2.847l0,2.323c0,1.367 0.243,2.53 0.728,3.489c0.484,0.959 1.162,1.689 2.032,2.192c0.87,0.502 1.885,0.753 3.046,0.753c0.762,0 1.453,-0.108 2.074,-0.324c0.621,-0.217 1.156,-0.542 1.607,-0.977c0.451,-0.434 0.797,-0.973 1.039,-1.618l3.771,0.682c-0.302,1.108 -0.84,2.077 -1.616,2.907c-0.776,0.83 -1.75,1.475 -2.921,1.934c-1.171,0.459 -2.499,0.688 -3.985,0.688Z" style="fill:#ff4d6d;fill-rule:nonzero;"/><path d="M910.837,1124.87c-1.978,0 -3.679,-0.45 -5.103,-1.351c-1.424,-0.901 -2.519,-2.146 -3.284,-3.734c-0.766,-1.588 -1.148,-3.409 -1.148,-5.461c-0,-2.081 0.391,-3.918 1.174,-5.51c0.783,-1.591 1.885,-2.836 3.306,-3.734c1.42,-0.897 3.091,-1.346 5.012,-1.346c1.552,0 2.936,0.285 4.153,0.856c1.218,0.571 2.202,1.372 2.953,2.403c0.751,1.03 1.198,2.235 1.342,3.612l-3.878,0c-0.211,-0.96 -0.697,-1.786 -1.458,-2.478c-0.761,-0.691 -1.777,-1.037 -3.048,-1.037c-1.108,-0 -2.078,0.291 -2.908,0.872c-0.831,0.582 -1.478,1.406 -1.939,2.474c-0.462,1.068 -0.693,2.332 -0.693,3.792c0,1.487 0.228,2.774 0.682,3.86c0.455,1.086 1.097,1.925 1.928,2.517c0.831,0.592 1.808,0.888 2.93,0.888c0.762,0 1.451,-0.139 2.067,-0.417c0.616,-0.277 1.135,-0.679 1.556,-1.203c0.422,-0.525 0.716,-1.157 0.883,-1.895l3.878,-0c-0.147,1.326 -0.579,2.508 -1.297,3.546c-0.717,1.038 -1.678,1.855 -2.883,2.451c-1.205,0.597 -2.613,0.895 -4.225,0.895Z" style="fill:#ff4d6d;fill-rule:nonzero;"/><path d="M926.817,1117.52l-0.032,-4.859l0.703,0l8.15,-8.661l4.762,0l-9.29,9.855l-0.628,-0l-3.665,3.665Zm-3.665,6.935l-0,-27.273l3.984,0l0,27.273l-3.984,-0Zm12.923,-0l-7.33,-9.716l2.749,-2.791l9.46,12.507l-4.879,-0Z" style="fill:#ff4d6d;fill-rule:nonzero;"/><path d="M956.614,1132.08c-0.595,0 -1.135,-0.046 -1.622,-0.139c-0.486,-0.094 -0.851,-0.194 -1.094,-0.303l0.958,-3.26c1.098,0.299 2.016,0.321 2.754,0.068c0.739,-0.253 1.362,-1.042 1.87,-2.369l0.501,-1.353l-7.49,-20.721l4.262,0l5.177,15.874l0.213,-0l5.189,-15.874l4.293,0.043l-8.459,23.139c-0.387,1.055 -0.882,1.947 -1.485,2.677c-0.602,0.73 -1.322,1.282 -2.158,1.656c-0.837,0.375 -1.806,0.562 -2.909,0.562Z" style="fill:#ff4d6d;fill-rule:nonzero;"/><path d="M982.88,1124.87c-1.921,0 -3.595,-0.439 -5.023,-1.319c-1.427,-0.88 -2.536,-2.111 -3.326,-3.692c-0.79,-1.581 -1.186,-3.426 -1.186,-5.535c0,-2.124 0.396,-3.98 1.186,-5.568c0.79,-1.588 1.899,-2.822 3.326,-3.702c1.428,-0.88 3.102,-1.32 5.023,-1.32c1.921,0 3.596,0.44 5.023,1.32c1.428,0.88 2.537,2.114 3.327,3.702c0.79,1.588 1.185,3.444 1.185,5.568c0,2.109 -0.395,3.954 -1.185,5.535c-0.79,1.581 -1.899,2.812 -3.327,3.692c-1.427,0.88 -3.102,1.319 -5.023,1.319Zm0.011,-3.345c1.246,0 2.277,-0.329 3.092,-0.988c0.815,-0.659 1.421,-1.534 1.819,-2.626c0.398,-1.092 0.597,-2.291 0.597,-3.598c-0,-1.309 -0.199,-2.512 -0.597,-3.61c-0.398,-1.099 -1.004,-1.981 -1.819,-2.646c-0.815,-0.666 -1.846,-0.999 -3.092,-0.999c-1.254,0 -2.29,0.333 -3.108,0.999c-0.819,0.665 -1.427,1.547 -1.825,2.646c-0.397,1.098 -0.596,2.301 -0.596,3.61c-0,1.307 0.199,2.506 0.596,3.598c0.398,1.092 1.006,1.967 1.825,2.626c0.818,0.659 1.854,0.988 3.108,0.988Z" style="fill:#ff4d6d;fill-rule:nonzero;"/><path d="M1009.6,1115.97l0,-11.975l3.985,0l-0,20.455l-3.91,-0l-0,-3.548l-0.213,0c-0.473,1.092 -1.225,2.001 -2.256,2.726c-1.032,0.726 -2.318,1.088 -3.86,1.088c-1.308,0 -2.467,-0.291 -3.476,-0.873c-1.01,-0.583 -1.801,-1.446 -2.374,-2.589c-0.572,-1.144 -0.859,-2.56 -0.861,-4.251l-0,-13.008l3.984,0l0,12.529c0.002,1.395 0.39,2.506 1.163,3.332c0.773,0.825 1.774,1.238 3.003,1.238c0.747,0 1.491,-0.186 2.23,-0.558c0.74,-0.372 1.356,-0.936 1.849,-1.694c0.492,-0.757 0.738,-1.715 0.736,-2.872Z" style="fill:#ff4d6d;fill-rule:nonzero;"/><path d="M1018.42,1124.45l0,-20.455l3.857,0l-0,3.25l0.213,-0c0.373,-1.098 1.031,-1.965 1.975,-2.602c0.943,-0.638 2.014,-0.957 3.213,-0.957c0.248,0 0.543,0.009 0.883,0.026c0.34,0.016 0.61,0.041 0.811,0.073l-0,3.811c-0.158,-0.046 -0.441,-0.098 -0.85,-0.157c-0.408,-0.059 -0.817,-0.088 -1.228,-0.088c-0.939,0 -1.776,0.198 -2.512,0.593c-0.736,0.395 -1.317,0.94 -1.741,1.635c-0.424,0.695 -0.637,1.49 -0.637,2.385l0,12.486l-3.984,-0Z" style="fill:#ff4d6d;fill-rule:nonzero;"/><path d="M1051.74,1124.87c-2.014,0 -3.748,-0.433 -5.203,-1.301c-1.455,-0.867 -2.575,-2.089 -3.358,-3.664c-0.784,-1.576 -1.176,-3.422 -1.176,-5.539c-0,-2.099 0.392,-3.947 1.177,-5.545c0.785,-1.598 1.885,-2.845 3.3,-3.742c1.415,-0.897 3.072,-1.345 4.972,-1.345c1.162,0 2.283,0.19 3.364,0.57c1.081,0.38 2.052,0.979 2.911,1.796c0.86,0.818 1.54,1.878 2.04,3.182c0.501,1.303 0.751,2.881 0.751,4.733l0,1.406l-16.267,-0l-0,-2.983l12.357,-0c-0.001,-1.041 -0.214,-1.968 -0.637,-2.782c-0.424,-0.814 -1.019,-1.456 -1.787,-1.926c-0.768,-0.469 -1.668,-0.704 -2.7,-0.704c-1.12,-0 -2.094,0.272 -2.921,0.816c-0.828,0.544 -1.467,1.255 -1.917,2.132c-0.45,0.877 -0.677,1.827 -0.68,2.847l-0,2.323c-0,1.367 0.242,2.53 0.727,3.489c0.485,0.959 1.162,1.689 2.032,2.192c0.87,0.502 1.886,0.753 3.047,0.753c0.762,0 1.453,-0.108 2.073,-0.324c0.621,-0.217 1.157,-0.542 1.608,-0.977c0.451,-0.434 0.797,-0.973 1.038,-1.618l3.772,0.682c-0.302,1.108 -0.841,2.077 -1.617,2.907c-0.776,0.83 -1.749,1.475 -2.92,1.934c-1.171,0.459 -2.5,0.688 -3.986,0.688Z" style="fill:#ff4d6d;fill-rule:nonzero;"/><path d="M1068.75,1112.31l-0,12.145l-3.985,-0l0,-20.455l3.825,0l-0,3.335l0.256,-0c0.472,-1.09 1.211,-1.963 2.217,-2.618c1.006,-0.655 2.277,-0.983 3.812,-0.983c1.398,0 2.619,0.292 3.664,0.875c1.045,0.583 1.857,1.447 2.437,2.59c0.58,1.144 0.869,2.56 0.867,4.248l-0,13.008l-3.985,-0l0,-12.528c0.002,-1.488 -0.383,-2.65 -1.154,-3.487c-0.772,-0.836 -1.832,-1.254 -3.181,-1.254c-0.924,-0 -1.744,0.2 -2.463,0.6c-0.718,0.401 -1.282,0.983 -1.692,1.747c-0.41,0.765 -0.616,1.69 -0.618,2.777Z" style="fill:#ff4d6d;fill-rule:nonzero;"/><path d="M1096.27,1104l-0,3.196l-11.176,0l0,-3.196l11.176,0Zm-8.182,-4.9l3.984,-0l0,19.352c0,0.767 0.115,1.345 0.344,1.735c0.229,0.389 0.529,0.652 0.9,0.788c0.371,0.136 0.773,0.204 1.206,0.204c0.322,-0 0.601,-0.021 0.838,-0.064c0.237,-0.043 0.423,-0.078 0.558,-0.106l0.724,3.292c-0.236,0.083 -0.567,0.173 -0.994,0.268c-0.427,0.096 -0.959,0.149 -1.594,0.158c-1.048,0.017 -2.025,-0.17 -2.933,-0.564c-0.907,-0.393 -1.64,-0.997 -2.2,-1.812c-0.559,-0.815 -0.837,-1.841 -0.833,-3.079l-0,-20.172Z" style="fill:#ff4d6d;fill-rule:nonzero;"/><path d="M1108.95,1124.87c-2.014,0 -3.748,-0.433 -5.203,-1.301c-1.455,-0.867 -2.575,-2.089 -3.359,-3.664c-0.784,-1.576 -1.176,-3.422 -1.176,-5.539c0,-2.099 0.393,-3.947 1.178,-5.545c0.784,-1.598 1.884,-2.845 3.3,-3.742c1.415,-0.897 3.072,-1.345 4.972,-1.345c1.161,0 2.283,0.19 3.364,0.57c1.081,0.38 2.052,0.979 2.911,1.796c0.859,0.818 1.539,1.878 2.04,3.182c0.501,1.303 0.751,2.881 0.751,4.733l0,1.406l-16.268,-0l0,-2.983l12.358,-0c-0.002,-1.041 -0.214,-1.968 -0.638,-2.782c-0.423,-0.814 -1.019,-1.456 -1.787,-1.926c-0.768,-0.469 -1.667,-0.704 -2.699,-0.704c-1.12,-0 -2.094,0.272 -2.922,0.816c-0.827,0.544 -1.466,1.255 -1.916,2.132c-0.45,0.877 -0.677,1.827 -0.68,2.847l-0,2.323c-0,1.367 0.242,2.53 0.727,3.489c0.484,0.959 1.162,1.689 2.032,2.192c0.87,0.502 1.885,0.753 3.047,0.753c0.761,0 1.453,-0.108 2.073,-0.324c0.621,-0.217 1.156,-0.542 1.607,-0.977c0.451,-0.434 0.798,-0.973 1.039,-1.618l3.771,0.682c-0.301,1.108 -0.84,2.077 -1.616,2.907c-0.776,0.83 -1.75,1.475 -2.921,1.934c-1.171,0.459 -2.499,0.688 -3.985,0.688Z" style="fill:#ff4d6d;fill-rule:nonzero;"/><path d="M1121.97,1124.45l0,-20.455l3.857,0l-0,3.25l0.213,-0c0.373,-1.098 1.031,-1.965 1.975,-2.602c0.943,-0.638 2.014,-0.957 3.213,-0.957c0.249,0 0.543,0.009 0.883,0.026c0.34,0.016 0.61,0.041 0.811,0.073l-0,3.811c-0.158,-0.046 -0.441,-0.098 -0.85,-0.157c-0.408,-0.059 -0.817,-0.088 -1.227,-0.088c-0.94,0 -1.777,0.198 -2.513,0.593c-0.736,0.395 -1.316,0.94 -1.741,1.635c-0.424,0.695 -0.636,1.49 -0.636,2.385l-0,12.486l-3.985,-0Z" style="fill:#ff4d6d;fill-rule:nonzero;"/><path d="M1144.11,1124.87c-2.013,0 -3.748,-0.433 -5.203,-1.301c-1.455,-0.867 -2.575,-2.089 -3.358,-3.664c-0.784,-1.576 -1.176,-3.422 -1.176,-5.539c-0,-2.099 0.392,-3.947 1.177,-5.545c0.785,-1.598 1.885,-2.845 3.3,-3.742c1.415,-0.897 3.072,-1.345 4.972,-1.345c1.162,0 2.283,0.19 3.364,0.57c1.081,0.38 2.052,0.979 2.911,1.796c0.86,0.818 1.54,1.878 2.04,3.182c0.501,1.303 0.751,2.881 0.751,4.733l0,1.406l-16.267,-0l-0,-2.983l12.358,-0c-0.002,-1.041 -0.215,-1.968 -0.638,-2.782c-0.424,-0.814 -1.019,-1.456 -1.787,-1.926c-0.768,-0.469 -1.668,-0.704 -2.7,-0.704c-1.12,-0 -2.094,0.272 -2.921,0.816c-0.828,0.544 -1.467,1.255 -1.917,2.132c-0.45,0.877 -0.677,1.827 -0.68,2.847l-0,2.323c-0,1.367 0.242,2.53 0.727,3.489c0.485,0.959 1.162,1.689 2.032,2.192c0.87,0.502 1.886,0.753 3.047,0.753c0.762,0 1.453,-0.108 2.073,-0.324c0.621,-0.217 1.157,-0.542 1.608,-0.977c0.451,-0.434 0.797,-0.973 1.038,-1.618l3.772,0.682c-0.302,1.108 -0.841,2.077 -1.617,2.907c-0.776,0.83 -1.749,1.475 -2.92,1.934c-1.171,0.459 -2.5,0.688 -3.986,0.688Z" style="fill:#ff4d6d;fill-rule:nonzero;"/><path d="M1164.79,1124.85c-1.655,-0 -3.126,-0.423 -4.414,-1.268c-1.288,-0.845 -2.3,-2.057 -3.036,-3.635c-0.737,-1.579 -1.105,-3.471 -1.105,-5.676c0,-2.212 0.372,-4.105 1.115,-5.678c0.743,-1.573 1.762,-2.776 3.058,-3.609c1.295,-0.833 2.766,-1.249 4.414,-1.249c1.268,0 2.289,0.211 3.063,0.633c0.774,0.421 1.378,0.912 1.811,1.472c0.433,0.561 0.769,1.052 1.007,1.475l0.234,-0l0,-10.132l3.985,0l-0,27.273l-3.889,-0l0,-3.186l-0.33,0c-0.242,0.437 -0.586,0.936 -1.032,1.496c-0.447,0.56 -1.061,1.048 -1.843,1.462c-0.782,0.415 -1.795,0.622 -3.038,0.622Zm0.885,-3.388c1.143,0 2.111,-0.304 2.904,-0.912c0.793,-0.608 1.396,-1.455 1.811,-2.541c0.415,-1.086 0.622,-2.346 0.622,-3.78c-0,-1.424 -0.204,-2.669 -0.611,-3.733c-0.408,-1.065 -1.008,-1.893 -1.801,-2.485c-0.793,-0.592 -1.768,-0.888 -2.925,-0.888c-1.201,-0 -2.202,0.31 -3.003,0.931c-0.802,0.62 -1.404,1.466 -1.806,2.538c-0.402,1.071 -0.603,2.284 -0.603,3.637c-0,1.367 0.204,2.597 0.613,3.69c0.41,1.093 1.015,1.956 1.817,2.591c0.801,0.635 1.795,0.952 2.982,0.952Z" style="fill:#ff4d6d;fill-rule:nonzero;"/><path d="M1198.61,1124.85c-1.655,-0 -3.127,-0.423 -4.415,-1.268c-1.288,-0.845 -2.3,-2.057 -3.036,-3.635c-0.736,-1.579 -1.104,-3.471 -1.104,-5.676c0,-2.212 0.372,-4.105 1.115,-5.678c0.743,-1.573 1.762,-2.776 3.057,-3.609c1.296,-0.833 2.767,-1.249 4.415,-1.249c1.268,0 2.288,0.211 3.063,0.633c0.774,0.421 1.377,0.912 1.811,1.472c0.433,0.561 0.769,1.052 1.006,1.475l0.235,-0l-0,-10.132l3.984,0l0,27.273l-3.888,-0l-0,-3.186l-0.331,0c-0.241,0.437 -0.585,0.936 -1.032,1.496c-0.446,0.56 -1.06,1.048 -1.843,1.462c-0.782,0.415 -1.794,0.622 -3.037,0.622Zm0.884,-3.388c1.144,0 2.112,-0.304 2.904,-0.912c0.793,-0.608 1.397,-1.455 1.812,-2.541c0.414,-1.086 0.621,-2.346 0.621,-3.78c0,-1.424 -0.203,-2.669 -0.611,-3.733c-0.407,-1.065 -1.007,-1.893 -1.8,-2.485c-0.793,-0.592 -1.768,-0.888 -2.926,-0.888c-1.2,-0 -2.201,0.31 -3.003,0.931c-0.801,0.62 -1.403,1.466 -1.806,2.538c-0.402,1.071 -0.603,2.284 -0.603,3.637c0,1.367 0.205,2.597 0.614,3.69c0.409,1.093 1.015,1.956 1.816,2.591c0.802,0.635 1.796,0.952 2.982,0.952Z" style="fill:#ff4d6d;fill-rule:nonzero;"/><path d="M1220.18,1124.9c-1.298,0 -2.469,-0.24 -3.514,-0.72c-1.045,-0.48 -1.873,-1.183 -2.484,-2.108c-0.611,-0.925 -0.916,-2.056 -0.916,-3.393c-0,-1.162 0.223,-2.115 0.668,-2.859c0.446,-0.745 1.046,-1.335 1.801,-1.77c0.754,-0.435 1.597,-0.763 2.529,-0.983c0.931,-0.22 1.882,-0.388 2.854,-0.503c1.223,-0.146 2.215,-0.265 2.976,-0.359c0.761,-0.093 1.316,-0.245 1.666,-0.455c0.349,-0.21 0.524,-0.557 0.524,-1.04l0,-0.096c0,-1.158 -0.326,-2.056 -0.98,-2.695c-0.653,-0.639 -1.623,-0.959 -2.908,-0.959c-1.341,0 -2.396,0.293 -3.165,0.88c-0.77,0.587 -1.302,1.242 -1.597,1.964l-3.74,-0.852c0.444,-1.243 1.094,-2.248 1.949,-3.016c0.855,-0.768 1.842,-1.327 2.963,-1.678c1.12,-0.351 2.295,-0.526 3.526,-0.526c0.818,0 1.687,0.096 2.605,0.289c0.918,0.193 1.78,0.542 2.586,1.047c0.806,0.505 1.465,1.226 1.977,2.162c0.513,0.937 0.769,2.15 0.769,3.64l-0,13.583l-3.889,-0l0,-2.791l-0.16,-0c-0.252,0.507 -0.635,1.011 -1.149,1.51c-0.514,0.499 -1.175,0.912 -1.984,1.238c-0.809,0.327 -1.778,0.49 -2.907,0.49Zm0.863,-3.185c1.106,-0 2.051,-0.219 2.835,-0.655c0.784,-0.437 1.383,-1.008 1.796,-1.713c0.414,-0.705 0.621,-1.46 0.621,-2.266l0,-2.642c-0.146,0.144 -0.419,0.274 -0.822,0.391c-0.402,0.117 -0.86,0.219 -1.374,0.306c-0.514,0.088 -1.016,0.163 -1.507,0.227c-0.491,0.064 -0.901,0.118 -1.23,0.162c-0.767,0.103 -1.468,0.269 -2.105,0.497c-0.636,0.228 -1.144,0.557 -1.523,0.988c-0.379,0.431 -0.569,1.001 -0.569,1.711c0,0.988 0.365,1.733 1.095,2.237c0.729,0.505 1.657,0.757 2.783,0.757Z" style="fill:#ff4d6d;fill-rule:nonzero;"/><path d="M1244.93,1104l-0,3.196l-11.176,0l0,-3.196l11.176,0Zm-8.182,-4.9l3.984,-0l0,19.352c0,0.767 0.115,1.345 0.344,1.735c0.229,0.389 0.529,0.652 0.9,0.788c0.371,0.136 0.774,0.204 1.207,0.204c0.321,-0 0.6,-0.021 0.837,-0.064c0.237,-0.043 0.423,-0.078 0.558,-0.106l0.725,3.292c-0.236,0.083 -0.568,0.173 -0.995,0.268c-0.427,0.096 -0.958,0.149 -1.594,0.158c-1.048,0.017 -2.025,-0.17 -2.932,-0.564c-0.908,-0.393 -1.641,-0.997 -2.2,-1.812c-0.56,-0.815 -0.838,-1.841 -0.834,-3.079l0,-20.172Z" style="fill:#ff4d6d;fill-rule:nonzero;"/><path d="M1254.97,1124.9c-1.298,0 -2.469,-0.24 -3.514,-0.72c-1.045,-0.48 -1.873,-1.183 -2.484,-2.108c-0.61,-0.925 -0.916,-2.056 -0.916,-3.393c0,-1.162 0.223,-2.115 0.669,-2.859c0.445,-0.745 1.046,-1.335 1.8,-1.77c0.755,-0.435 1.598,-0.763 2.529,-0.983c0.931,-0.22 1.883,-0.388 2.854,-0.503c1.223,-0.146 2.215,-0.265 2.976,-0.359c0.761,-0.093 1.316,-0.245 1.666,-0.455c0.35,-0.21 0.525,-0.557 0.525,-1.04l-0,-0.096c-0,-1.158 -0.327,-2.056 -0.98,-2.695c-0.654,-0.639 -1.623,-0.959 -2.909,-0.959c-1.34,0 -2.395,0.293 -3.165,0.88c-0.77,0.587 -1.302,1.242 -1.597,1.964l-3.739,-0.852c0.444,-1.243 1.093,-2.248 1.948,-3.016c0.855,-0.768 1.843,-1.327 2.963,-1.678c1.12,-0.351 2.296,-0.526 3.526,-0.526c0.819,0 1.687,0.096 2.605,0.289c0.918,0.193 1.78,0.542 2.586,1.047c0.806,0.505 1.466,1.226 1.978,2.162c0.512,0.937 0.768,2.15 0.768,3.64l0,13.583l-3.888,-0l-0,-2.791l-0.16,-0c-0.252,0.507 -0.635,1.011 -1.149,1.51c-0.515,0.499 -1.176,0.912 -1.985,1.238c-0.808,0.327 -1.777,0.49 -2.907,0.49Zm0.863,-3.185c1.106,-0 2.052,-0.219 2.835,-0.655c0.784,-0.437 1.383,-1.008 1.797,-1.713c0.414,-0.705 0.62,-1.46 0.62,-2.266l0,-2.642c-0.145,0.144 -0.419,0.274 -0.821,0.391c-0.402,0.117 -0.86,0.219 -1.374,0.306c-0.514,0.088 -1.017,0.163 -1.508,0.227c-0.491,0.064 -0.901,0.118 -1.229,0.162c-0.767,0.103 -1.469,0.269 -2.105,0.497c-0.637,0.228 -1.145,0.557 -1.524,0.988c-0.379,0.431 -0.568,1.001 -0.568,1.711c-0,0.988 0.364,1.733 1.094,2.237c0.73,0.505 1.658,0.757 2.783,0.757Z" style="fill:#ff4d6d;fill-rule:nonzero;"/><path d="M1275.19,1097.18l-0.352,19.432l-3.686,0l-0.352,-19.432l4.39,0Zm-2.195,27.529c-0.732,-0 -1.359,-0.261 -1.882,-0.782c-0.523,-0.521 -0.783,-1.148 -0.782,-1.882c-0.001,-0.728 0.259,-1.352 0.782,-1.872c0.523,-0.52 1.15,-0.78 1.882,-0.78c0.721,-0 1.344,0.26 1.871,0.78c0.526,0.52 0.791,1.144 0.792,1.872c-0.001,0.487 -0.124,0.932 -0.369,1.336c-0.244,0.404 -0.565,0.726 -0.965,0.967c-0.399,0.24 -0.843,0.361 -1.329,0.361Z" style="fill:#ff4d6d;fill-rule:nonzero;"/></g></g></g></g></svg>