<?xml version="1.0" encoding="UTF-8" standalone="no"?><!DOCTYPE svg PUBLIC "-//W3C//DTD SVG 1.1//EN" "http://www.w3.org/Graphics/SVG/1.1/DTD/svg11.dtd"><svg width="100%" height="100%" viewBox="0 0 1749 1241" version="1.1" xmlns="http://www.w3.org/2000/svg" xmlns:xlink="http://www.w3.org/1999/xlink" xml:space="preserve" xmlns:serif="http://www.serif.com/" style="fill-rule:evenodd;clip-rule:evenodd;stroke-linecap:round;stroke-linejoin:round;stroke-miterlimit:1.5;"><rect id="Artboard1" x="0" y="-0" width="1748.03" height="1240.16" style="fill:none;"/><clipPath id="_clip1"><rect x="0" y="-0" width="1748.03" height="1240.16"/></clipPath><g clip-path="url(#_clip1)"><g><rect x="0" y="0" width="1748.03" height="1240.16" style="fill:#ada7ff;"/><g><path d="M1525.11,288.326c-0,-69.179 -84.972,-125.345 -189.635,-125.345l-879.272,0c-104.662,0 -189.634,56.166 -189.634,125.345l0,1006.12c0,69.18 84.972,125.345 189.634,125.345l879.272,0c104.663,0 189.635,-56.165 189.635,-125.345l-0,-1006.12Z" style="fill:#f8f9fa;stroke:#212529;stroke-width:32.06px;"/></g><g><g><text x="674.764px" y="362.802px" style="font-family:'Inter-Regular_Bold', 'Inter', sans-serif;font-size:100px;">R<tspan x="738.117px " y="362.802px ">e</tspan>gist<tspan x="969.083px " y="362.802px ">e</tspan>r</text></g></g><g><g><path d="M1131.87,501.886c0,-14.387 -11.681,-26.068 -26.068,-26.068l-462.611,-0c-14.387,-0 -26.068,11.681 -26.068,26.068l0,52.136c0,14.388 11.681,26.069 26.068,26.069l462.611,-0c14.387,-0 26.068,-11.681 26.068,-26.069l0,-52.136Z" style="fill:#fff;stroke:#212529;stroke-width:12.5px;"/></g><g><text x="654.735px" y="546.919px" style="font-family:'Inter-Regular', 'Inter', sans-serif;font-size:50px;fill:#212529;">Jane Doe</text></g></g><g><path d="M1131.87,670.638c0,-14.388 -11.681,-26.068 -26.068,-26.068l-462.611,0c-14.387,0 -26.068,11.68 -26.068,26.068l0,52.136c0,14.387 11.681,26.068 26.068,26.068l462.611,0c14.387,0 26.068,-11.681 26.068,-26.068l0,-52.136Z" style="fill:#fff;stroke:#212529;stroke-width:12.5px;"/><g><text x="647.634px" y="715.671px" style="font-family:'Inter-Regular', 'Inter', sans-serif;font-size:50px;fill:#212529;">jane.doegmail.com</text></g></g><g><g><path d="M1131.87,839.39c0,-14.388 -11.681,-26.068 -26.068,-26.068l-462.611,-0c-14.387,-0 -26.068,11.68 -26.068,26.068l0,52.136c0,14.387 11.681,26.068 26.068,26.068l462.611,0c14.387,0 26.068,-11.681 26.068,-26.068l0,-52.136Z" style="fill:#fff;stroke:#212529;stroke-width:12.5px;"/><text x="647.634px" y="884.423px" style="font-family:'Inter-Regular', 'Inter', sans-serif;font-size:50px;fill:#727272;">Passw<tspan x="799.551px 829.381px 847.137px " y="884.423px 884.423px 884.423px ">ord</tspan></text></g></g><g><g><path d="M1131.14,1008.14c0,-14.388 -11.681,-26.068 -26.068,-26.068l-462.611,-0c-14.387,-0 -26.068,11.68 -26.068,26.068l-0,52.136c-0,14.387 11.681,26.068 26.068,26.068l462.611,-0c14.387,-0 26.068,-11.681 26.068,-26.068l0,-52.136Z" style="fill:#76f5c0;stroke:#212529;stroke-width:12.5px;"/><text x="774.267px" y="1048.12px" style="font-family:'Inter-Regular_Bold', 'Inter', sans-serif;font-size:50px;fill:#212529;">R<tspan x="805.944px " y="1048.12px ">e</tspan>gist<tspan x="921.427px " y="1048.12px ">e</tspan>r</text></g><g><text x="495.141px" y="1178.62px" style="font-family:'Inter-Regular_Medium', 'Inter', sans-serif;font-size:37.5px;fill:#ff4d6d;">An err<tspan x="602.101px " y="1178.62px ">o</tspan>r occurr<tspan x="762.275px " y="1178.62px ">e</tspan>d. Check y<tspan x="971.588px " y="1178.62px ">o</tspan>ur ent<tspan x="1097.46px 1119.3px 1132.61px " y="1178.62px 1178.62px 1178.62px ">ere</tspan>d data!</text></g></g></g></g></svg>