<?xml version="1.0" encoding="UTF-8" standalone="no"?><!DOCTYPE svg PUBLIC "-//W3C//DTD SVG 1.1//EN" "http://www.w3.org/Graphics/SVG/1.1/DTD/svg11.dtd"><svg width="100%" height="100%" viewBox="0 0 1749 1241" version="1.1" xmlns="http://www.w3.org/2000/svg" xmlns:xlink="http://www.w3.org/1999/xlink" xml:space="preserve" xmlns:serif="http://www.serif.com/" style="fill-rule:evenodd;clip-rule:evenodd;stroke-linecap:round;stroke-linejoin:round;stroke-miterlimit:1.5;"><rect id="Artboard2" x="0" y="0" width="1748.03" height="1240.16" style="fill:none;"/><clipPath id="_clip1"><rect id="Artboard21" serif:id="Artboard2" x="0" y="0" width="1748.03" height="1240.16"/></clipPath><g clip-path="url(#_clip1)"><rect id="Artboard1" x="0" y="0" width="1748.03" height="1240.16" style="fill:none;"/><g><g><rect x="0" y="0" width="1748.03" height="1240.16" style="fill:#ada7ff;"/><g><path d="M1289.95,243.326c0,-69.179 -56.165,-125.345 -125.345,-125.345l-581.182,0c-69.179,0 -125.344,56.166 -125.344,125.345l0,1006.12c0,69.18 56.165,125.345 125.344,125.345l581.182,0c69.18,0 125.345,-56.165 125.345,-125.345l0,-1006.12Z" style="fill:#f8f9fa;stroke:#212529;stroke-width:25px;"/></g><g><g><path d="M733.56,227.58c-0.284,-2.86 -1.504,-5.085 -3.661,-6.676c-2.157,-1.591 -5.074,-2.387 -8.753,-2.387c-2.51,0 -4.632,0.354 -6.368,1.062c-1.735,0.708 -3.055,1.675 -3.959,2.901c-0.905,1.227 -1.364,2.624 -1.378,4.191c-0.029,1.302 0.254,2.44 0.849,3.413c0.594,0.973 1.426,1.809 2.496,2.507c1.07,0.698 2.304,1.298 3.701,1.8c1.396,0.502 2.883,0.93 4.46,1.286l6.534,1.562c3.172,0.71 6.084,1.66 8.735,2.848c2.652,1.189 4.953,2.648 6.904,4.379c1.951,1.731 3.465,3.768 4.542,6.111c1.077,2.344 1.623,5.029 1.637,8.054c-0.014,4.441 -1.141,8.291 -3.381,11.548c-2.239,3.258 -5.46,5.779 -9.662,7.564c-4.202,1.785 -9.267,2.678 -15.196,2.678c-5.876,-0 -10.983,-0.897 -15.323,-2.692c-4.339,-1.794 -7.72,-4.461 -10.142,-8c-2.421,-3.54 -3.696,-7.93 -3.824,-13.172l14.886,0c0.166,2.434 0.871,4.463 2.116,6.087c1.246,1.624 2.911,2.844 4.997,3.658c2.085,0.814 4.459,1.222 7.12,1.222c2.609,-0 4.875,-0.377 6.797,-1.13c1.923,-0.753 3.416,-1.802 4.482,-3.146c1.065,-1.345 1.605,-2.903 1.619,-4.674c-0.014,-1.633 -0.501,-3.005 -1.459,-4.116c-0.959,-1.11 -2.355,-2.057 -4.187,-2.84c-1.833,-0.784 -4.07,-1.496 -6.712,-2.135l-7.926,-1.96c-6.137,-1.492 -10.979,-3.827 -14.528,-7.006c-3.549,-3.18 -5.316,-7.454 -5.302,-12.823c-0.014,-4.399 1.171,-8.247 3.555,-11.545c2.384,-3.298 5.658,-5.868 9.822,-7.71c4.165,-1.841 8.901,-2.762 14.209,-2.762c5.397,-0 10.11,0.923 14.14,2.77c4.029,1.846 7.172,4.416 9.428,7.709c2.256,3.293 3.415,7.101 3.477,11.424l-14.745,-0Z" style="fill:#212529;fill-rule:nonzero;"/><path d="M757.609,279.398l-0,-54.545l15.128,-0l-0,54.545l-15.128,0Zm7.635,-61.576c-2.249,-0 -4.179,-0.752 -5.789,-2.255c-1.61,-1.504 -2.414,-3.309 -2.414,-5.416c-0,-2.083 0.804,-3.877 2.414,-5.38c1.61,-1.503 3.528,-2.255 5.753,-2.255c2.273,0 4.208,0.752 5.806,2.255c1.598,1.503 2.397,3.297 2.397,5.38c0,2.107 -0.799,3.912 -2.397,5.416c-1.598,1.503 -3.521,2.255 -5.77,2.255Z" style="fill:#212529;fill-rule:nonzero;"/><path d="M805.919,300.648c-4.901,0 -9.102,-0.664 -12.603,-1.992c-3.502,-1.328 -6.281,-3.118 -8.339,-5.369c-2.057,-2.252 -3.391,-4.75 -4.002,-7.497l14.006,-1.875c0.416,0.981 1.084,1.917 2.003,2.809c0.918,0.893 2.141,1.623 3.668,2.191c1.527,0.568 3.396,0.853 5.607,0.853c3.281,-0 5.996,-0.782 8.143,-2.344c2.147,-1.563 3.221,-4.134 3.221,-7.713l-0,-9.972l-0.625,0c-0.672,1.506 -1.674,2.937 -3.004,4.293c-1.331,1.357 -3.033,2.463 -5.107,3.317c-2.073,0.855 -4.559,1.282 -7.457,1.282c-4.091,0 -7.811,-0.956 -11.161,-2.869c-3.35,-1.913 -6.016,-4.837 -7.998,-8.771c-1.981,-3.935 -2.972,-8.928 -2.972,-14.979c-0,-6.184 1.007,-11.343 3.022,-15.476c2.015,-4.133 4.699,-7.232 8.054,-9.297c3.355,-2.064 7.03,-3.096 11.026,-3.096c3.04,-0 5.59,0.514 7.65,1.544c2.06,1.03 3.726,2.306 5,3.828c1.273,1.523 2.246,3.027 2.919,4.514l0.596,0l0,-9.176l15,-0l0,55.085c0,4.531 -1.138,8.334 -3.413,11.41c-2.275,3.075 -5.418,5.394 -9.428,6.957c-4.01,1.562 -8.612,2.343 -13.806,2.343Zm0.312,-33.38c2.424,-0 4.487,-0.61 6.19,-1.829c1.702,-1.219 3.004,-2.971 3.906,-5.256c0.902,-2.284 1.353,-5.027 1.353,-8.228c0,-3.191 -0.446,-5.967 -1.339,-8.328c-0.892,-2.36 -2.19,-4.19 -3.892,-5.49c-1.702,-1.299 -3.775,-1.949 -6.218,-1.949c-2.5,-0 -4.601,0.668 -6.304,2.006c-1.702,1.338 -2.99,3.192 -3.863,5.562c-0.874,2.37 -1.31,5.103 -1.31,8.199c-0,3.134 0.441,5.846 1.324,8.136c0.883,2.289 2.176,4.058 3.878,5.305c1.702,1.248 3.794,1.872 6.275,1.872Z" style="fill:#212529;fill-rule:nonzero;"/><path d="M857.396,247.864l-0,31.534l-15.114,0l0,-54.545l14.403,-0l0,9.631l0.625,-0c1.222,-3.182 3.252,-5.701 6.09,-7.557c2.839,-1.856 6.283,-2.784 10.331,-2.784c3.792,-0 7.098,0.829 9.918,2.489c2.819,1.66 5.009,4.021 6.569,7.084c1.561,3.064 2.334,6.71 2.32,10.938l-0,34.744l-15.114,0l0,-32.045c0.014,-3.334 -0.839,-5.943 -2.56,-7.827c-1.721,-1.885 -4.097,-2.827 -7.127,-2.827c-2.036,0 -3.832,0.442 -5.387,1.325c-1.556,0.883 -2.767,2.156 -3.633,3.821c-0.867,1.664 -1.307,3.671 -1.321,6.019Z" style="fill:#212529;fill-rule:nonzero;"/><path d="M974.129,206.671l15.369,-0l-0,47.216c-0,5.312 -1.258,9.958 -3.775,13.938c-2.516,3.98 -6.035,7.074 -10.557,9.283c-4.522,2.209 -9.792,3.313 -15.81,3.313c-6.047,-0 -11.331,-1.104 -15.852,-3.313c-4.522,-2.209 -8.034,-5.303 -10.537,-9.283c-2.502,-3.98 -3.753,-8.626 -3.753,-13.938l0,-47.216l15.369,-0l0,45.909c0,2.77 0.611,5.236 1.832,7.397c1.222,2.162 2.942,3.856 5.16,5.082c2.218,1.226 4.812,1.839 7.781,1.839c2.983,0 5.582,-0.613 7.798,-1.839c2.216,-1.226 3.933,-2.92 5.15,-5.082c1.216,-2.161 1.825,-4.627 1.825,-7.397l-0,-45.909Z" style="fill:#212529;fill-rule:nonzero;"/><path d="M1003.08,299.853l-0,-75l14.914,-0l-0,9.176l0.654,0c0.672,-1.487 1.64,-2.991 2.904,-4.514c1.265,-1.522 2.922,-2.798 4.972,-3.828c2.05,-1.03 4.595,-1.544 7.635,-1.544c3.996,-0 7.671,1.034 11.026,3.103c3.355,2.069 6.04,5.182 8.054,9.34c2.015,4.157 3.022,9.356 3.022,15.596c0,6.089 -0.979,11.222 -2.937,15.398c-1.958,4.176 -4.609,7.337 -7.954,9.481c-3.345,2.145 -7.092,3.218 -11.239,3.218c-2.936,-0 -5.425,-0.487 -7.469,-1.46c-2.043,-0.973 -3.714,-2.197 -5.014,-3.672c-1.3,-1.474 -2.3,-2.965 -3,-4.47l-0.455,-0l0,29.176l-15.113,-0Zm14.8,-47.727c0,3.238 0.451,6.064 1.353,8.476c0.902,2.413 2.204,4.288 3.907,5.625c1.702,1.338 3.765,2.007 6.189,2.007c2.482,-0 4.573,-0.681 6.276,-2.042c1.702,-1.361 2.994,-3.253 3.877,-5.675c0.883,-2.422 1.325,-5.219 1.325,-8.391c-0,-3.154 -0.437,-5.927 -1.311,-8.321c-0.873,-2.393 -2.161,-4.261 -3.863,-5.604c-1.702,-1.342 -3.804,-2.013 -6.304,-2.013c-2.443,-0 -4.516,0.652 -6.218,1.956c-1.702,1.305 -2.999,3.149 -3.892,5.533c-0.893,2.384 -1.339,5.2 -1.339,8.449Z" style="fill:#212529;fill-rule:nonzero;"/></g></g><g><g><path d="M605.213,519.135l-0,36.364l-6.648,-0l-15.81,-22.884l-0.269,-0l-0,22.884l-7.685,-0l0,-36.364l6.733,-0l15.71,22.87l0.313,-0l-0,-22.87l7.656,-0Z" style="fill-rule:nonzero;"/><path d="M620.071,556.01c-1.735,-0 -3.284,-0.304 -4.647,-0.911c-1.362,-0.607 -2.436,-1.512 -3.222,-2.715c-0.786,-1.202 -1.179,-2.702 -1.179,-4.499c-0,-1.52 0.276,-2.793 0.827,-3.819c0.552,-1.026 1.307,-1.853 2.266,-2.481c0.959,-0.627 2.052,-1.103 3.279,-1.427c1.228,-0.325 2.517,-0.552 3.869,-0.682c1.579,-0.156 2.855,-0.308 3.826,-0.456c0.972,-0.148 1.678,-0.371 2.119,-0.668c0.44,-0.297 0.66,-0.737 0.66,-1.319l0,-0.1c0,-1.127 -0.354,-1.998 -1.061,-2.613c-0.708,-0.616 -1.704,-0.924 -2.987,-0.924c-1.361,0 -2.445,0.298 -3.251,0.893c-0.806,0.596 -1.337,1.345 -1.593,2.247l-7.003,-0.569c0.355,-1.657 1.053,-3.092 2.094,-4.305c1.04,-1.214 2.387,-2.149 4.039,-2.806c1.653,-0.657 3.567,-0.985 5.742,-0.985c1.522,-0 2.977,0.178 4.365,0.534c1.387,0.357 2.622,0.906 3.703,1.648c1.082,0.742 1.938,1.696 2.566,2.862c0.629,1.166 0.943,2.562 0.943,4.189l-0,18.395l-7.173,-0l-0,-3.779l-0.213,0c-0.441,0.848 -1.026,1.595 -1.756,2.241c-0.731,0.646 -1.613,1.149 -2.646,1.509c-1.033,0.36 -2.222,0.54 -3.567,0.54Zm2.173,-5.213c1.111,-0 2.091,-0.223 2.942,-0.668c0.851,-0.445 1.518,-1.047 2.001,-1.807c0.483,-0.76 0.725,-1.616 0.725,-2.568l-0,-2.897c-0.227,0.149 -0.548,0.286 -0.961,0.411c-0.413,0.126 -0.872,0.238 -1.378,0.338c-0.505,0.099 -1.012,0.188 -1.519,0.266c-0.508,0.078 -0.969,0.147 -1.384,0.206c-0.89,0.128 -1.667,0.334 -2.331,0.62c-0.664,0.285 -1.18,0.667 -1.548,1.147c-0.368,0.479 -0.553,1.074 -0.553,1.784c0,1.037 0.377,1.824 1.13,2.362c0.753,0.537 1.711,0.806 2.876,0.806Z" style="fill-rule:nonzero;"/><path d="M640.497,555.499l0,-27.273l7.202,-0l-0,4.815l0.312,0c0.568,-1.605 1.518,-2.868 2.848,-3.789c1.331,-0.921 2.919,-1.381 4.766,-1.381c1.87,-0 3.461,0.466 4.773,1.397c1.311,0.932 2.187,2.19 2.627,3.773l0.284,0c0.557,-1.565 1.565,-2.818 3.026,-3.759c1.461,-0.941 3.189,-1.411 5.185,-1.411c2.545,-0 4.616,0.808 6.212,2.425c1.597,1.617 2.396,3.905 2.396,6.865l-0,18.338l-7.557,-0l-0,-16.847c-0,-1.522 -0.401,-2.66 -1.204,-3.415c-0.802,-0.754 -1.807,-1.131 -3.015,-1.131c-1.371,0 -2.443,0.435 -3.216,1.306c-0.772,0.87 -1.159,2.016 -1.159,3.439l0,16.648l-7.329,-0l-0,-17.018c-0,-1.337 -0.383,-2.401 -1.147,-3.19c-0.765,-0.79 -1.77,-1.185 -3.015,-1.185c-0.841,0 -1.595,0.209 -2.262,0.625c-0.668,0.417 -1.197,1.002 -1.586,1.757c-0.389,0.754 -0.584,1.636 -0.584,2.647l-0,16.364l-7.557,-0Z" style="fill-rule:nonzero;"/><path d="M696.378,556.024c-2.799,0 -5.208,-0.569 -7.229,-1.706c-2.02,-1.138 -3.574,-2.757 -4.662,-4.858c-1.088,-2.101 -1.632,-4.591 -1.632,-7.47c-0,-2.808 0.546,-5.271 1.637,-7.39c1.092,-2.119 2.627,-3.77 4.606,-4.954c1.979,-1.183 4.306,-1.775 6.981,-1.775c1.804,-0 3.484,0.286 5.04,0.859c1.555,0.573 2.915,1.435 4.08,2.587c1.164,1.152 2.074,2.594 2.727,4.327c0.653,1.733 0.98,3.759 0.98,6.076l0,2.074l-23.025,0l-0,-4.687l15.909,-0c-0.007,-1.085 -0.248,-2.048 -0.723,-2.889c-0.475,-0.842 -1.129,-1.504 -1.964,-1.985c-0.834,-0.482 -1.8,-0.723 -2.896,-0.723c-1.143,-0 -2.157,0.266 -3.04,0.797c-0.883,0.532 -1.573,1.238 -2.072,2.118c-0.498,0.881 -0.754,1.86 -0.768,2.937l-0,4.46c-0,1.35 0.253,2.516 0.759,3.498c0.507,0.983 1.222,1.739 2.145,2.27c0.924,0.53 2.015,0.795 3.275,0.795c0.845,-0 1.615,-0.12 2.31,-0.359c0.695,-0.239 1.293,-0.593 1.795,-1.063c0.502,-0.47 0.88,-1.047 1.136,-1.731l6.989,0.454c-0.356,1.686 -1.079,3.153 -2.17,4.402c-1.091,1.249 -2.499,2.217 -4.224,2.905c-1.725,0.687 -3.713,1.031 -5.964,1.031Z" style="fill-rule:nonzero;"/></g><path d="M1088.34,608.13c-0,-14.387 -11.681,-26.068 -26.068,-26.068l-462.611,0c-14.387,0 -26.068,11.681 -26.068,26.068l-0,52.136c-0,14.388 11.681,26.069 26.068,26.069l462.611,0c14.387,0 26.068,-11.681 26.068,-26.069l-0,-52.136Z" style="fill:#fff;stroke:#212529;stroke-width:12.5px;"/></g><path d="M573.593,775.109l-0,-36.363l24.502,-0l0,6.335l-16.818,-0l0,8.664l15.554,0l0,6.336l-15.554,-0l0,8.693l16.889,-0l0,6.335l-24.573,0Z" style="fill-rule:nonzero;"/><path d="M603.351,775.109l0,-27.273l7.202,0l-0,4.816l0.312,-0c0.568,-1.605 1.518,-2.868 2.848,-3.789c1.331,-0.921 2.919,-1.382 4.766,-1.382c1.87,0 3.461,0.466 4.773,1.398c1.311,0.931 2.187,2.189 2.627,3.773l0.284,-0c0.557,-1.565 1.565,-2.818 3.026,-3.759c1.461,-0.941 3.189,-1.412 5.185,-1.412c2.545,0 4.616,0.809 6.212,2.426c1.597,1.617 2.396,3.905 2.396,6.864l-0,18.338l-7.557,0l-0,-16.846c-0,-1.523 -0.401,-2.661 -1.204,-3.415c-0.802,-0.754 -1.807,-1.131 -3.015,-1.131c-1.371,-0 -2.443,0.435 -3.215,1.305c-0.773,0.87 -1.16,2.017 -1.16,3.439l0,16.648l-7.329,0l-0,-17.017c-0,-1.338 -0.383,-2.401 -1.147,-3.191c-0.765,-0.789 -1.77,-1.184 -3.015,-1.184c-0.841,-0 -1.595,0.208 -2.262,0.625c-0.668,0.417 -1.197,1.002 -1.586,1.756c-0.389,0.754 -0.584,1.637 -0.584,2.647l-0,16.364l-7.557,0Z" style="fill-rule:nonzero;"/><path d="M654.587,775.62c-1.735,0 -3.284,-0.303 -4.647,-0.91c-1.362,-0.608 -2.436,-1.512 -3.222,-2.715c-0.786,-1.203 -1.179,-2.703 -1.179,-4.499c-0,-1.52 0.276,-2.793 0.827,-3.82c0.552,-1.026 1.307,-1.853 2.266,-2.48c0.959,-0.627 2.052,-1.103 3.279,-1.428c1.228,-0.324 2.517,-0.551 3.869,-0.682c1.579,-0.156 2.855,-0.308 3.826,-0.456c0.972,-0.148 1.678,-0.37 2.119,-0.667c0.44,-0.298 0.66,-0.737 0.66,-1.32l0,-0.099c0,-1.127 -0.354,-1.998 -1.061,-2.614c-0.708,-0.615 -1.704,-0.923 -2.987,-0.923c-1.361,-0 -2.445,0.298 -3.251,0.893c-0.806,0.595 -1.337,1.344 -1.593,2.246l-7.003,-0.568c0.355,-1.657 1.053,-3.093 2.094,-4.306c1.04,-1.213 2.387,-2.148 4.039,-2.805c1.653,-0.657 3.567,-0.986 5.742,-0.986c1.522,0 2.977,0.178 4.365,0.535c1.387,0.356 2.622,0.905 3.703,1.647c1.082,0.743 1.938,1.697 2.566,2.863c0.629,1.166 0.943,2.562 0.943,4.188l-0,18.395l-7.173,0l-0,-3.778l-0.213,-0c-0.441,0.847 -1.026,1.594 -1.756,2.24c-0.731,0.647 -1.613,1.15 -2.646,1.51c-1.033,0.36 -2.222,0.539 -3.567,0.539Zm2.173,-5.212c1.111,-0 2.091,-0.223 2.942,-0.668c0.851,-0.445 1.518,-1.048 2.001,-1.808c0.483,-0.76 0.725,-1.616 0.725,-2.567l-0,-2.898c-0.227,0.149 -0.548,0.286 -0.961,0.412c-0.413,0.125 -0.872,0.238 -1.377,0.337c-0.506,0.1 -1.013,0.189 -1.52,0.267c-0.508,0.078 -0.969,0.146 -1.384,0.206c-0.89,0.127 -1.667,0.334 -2.331,0.619c-0.664,0.286 -1.18,0.668 -1.548,1.147c-0.368,0.48 -0.553,1.075 -0.553,1.785c0,1.037 0.377,1.824 1.13,2.361c0.753,0.538 1.711,0.807 2.876,0.807Z" style="fill-rule:nonzero;"/><path d="M675.006,775.109l-0,-27.273l7.564,0l-0,27.273l-7.564,0Zm3.817,-30.788c-1.124,-0 -2.089,-0.376 -2.894,-1.128c-0.805,-0.751 -1.207,-1.654 -1.207,-2.707c-0,-1.042 0.402,-1.939 1.207,-2.69c0.805,-0.752 1.764,-1.128 2.877,-1.128c1.136,0 2.104,0.376 2.903,1.128c0.799,0.751 1.198,1.648 1.198,2.69c0,1.053 -0.399,1.956 -1.198,2.707c-0.799,0.752 -1.761,1.128 -2.886,1.128Z" style="fill-rule:nonzero;"/><rect x="686.874" y="738.746" width="7.557" height="36.364" style="fill-rule:nonzero;"/><path d="M1090.61,824.482c-0,-14.388 -11.681,-26.068 -26.068,-26.068l-462.611,0c-14.387,0 -26.068,11.68 -26.068,26.068l-0,52.136c-0,14.387 11.681,26.068 26.068,26.068l462.611,0c14.387,0 26.068,-11.681 26.068,-26.068l-0,-52.136Z" style="fill:#fff;stroke:#212529;stroke-width:12.5px;"/><path d="M573.593,989.201l-0,-36.363l14.332,-0c2.76,-0 5.111,0.524 7.052,1.573c1.942,1.049 3.425,2.5 4.45,4.354c1.025,1.853 1.538,3.983 1.538,6.388c-0,2.42 -0.52,4.551 -1.561,6.396c-1.04,1.844 -2.546,3.282 -4.517,4.314c-1.971,1.033 -4.353,1.549 -7.147,1.549l-9.147,-0l-0,-6.165l7.897,-0c1.478,-0 2.7,-0.258 3.667,-0.773c0.967,-0.514 1.691,-1.23 2.173,-2.146c0.482,-0.916 0.723,-1.975 0.723,-3.175c-0,-1.207 -0.241,-2.263 -0.723,-3.166c-0.482,-0.903 -1.208,-1.605 -2.18,-2.106c-0.972,-0.5 -2.201,-0.751 -3.688,-0.751l-5.185,0l0,30.071l-7.684,0Z" style="fill-rule:nonzero;"/><path d="M612.755,973.434l-0,15.767l-7.557,0l-0,-36.363l7.343,-0l0,13.906l0.313,0c0.625,-1.607 1.624,-2.871 2.997,-3.791c1.373,-0.92 3.092,-1.379 5.156,-1.379c1.901,-0 3.559,0.41 4.974,1.232c1.414,0.821 2.513,1.998 3.295,3.53c0.782,1.531 1.17,3.362 1.163,5.493l0,17.372l-7.557,0l0,-16.022c0.008,-1.676 -0.417,-2.983 -1.273,-3.921c-0.855,-0.937 -2.055,-1.406 -3.599,-1.406c-1.025,-0 -1.934,0.221 -2.725,0.662c-0.792,0.442 -1.41,1.078 -1.854,1.911c-0.444,0.832 -0.669,1.835 -0.676,3.009Z" style="fill-rule:nonzero;"/><path d="M647.059,989.727c-2.761,-0 -5.144,-0.588 -7.149,-1.763c-2.005,-1.176 -3.552,-2.819 -4.641,-4.929c-1.089,-2.111 -1.634,-4.567 -1.634,-7.371c0,-2.812 0.545,-5.276 1.634,-7.391c1.089,-2.116 2.636,-3.761 4.641,-4.936c2.005,-1.176 4.388,-1.763 7.149,-1.763c2.76,-0 5.143,0.587 7.148,1.763c2.005,1.175 3.552,2.82 4.641,4.936c1.089,2.115 1.634,4.579 1.634,7.391c-0,2.804 -0.545,5.26 -1.634,7.371c-1.089,2.11 -2.636,3.753 -4.641,4.929c-2.005,1.175 -4.388,1.763 -7.148,1.763Zm0.042,-5.852c1.245,-0 2.291,-0.359 3.136,-1.076c0.845,-0.718 1.483,-1.698 1.914,-2.941c0.431,-1.243 0.646,-2.655 0.646,-4.236c0,-1.589 -0.215,-3.005 -0.646,-4.249c-0.431,-1.244 -1.069,-2.227 -1.914,-2.949c-0.845,-0.722 -1.891,-1.083 -3.136,-1.083c-1.274,-0 -2.34,0.361 -3.2,1.083c-0.859,0.722 -1.504,1.705 -1.935,2.949c-0.431,1.244 -0.646,2.66 -0.646,4.249c-0,1.581 0.215,2.993 0.646,4.236c0.431,1.243 1.076,2.223 1.935,2.941c0.86,0.717 1.926,1.076 3.2,1.076Z" style="fill-rule:nonzero;"/><path d="M672.13,973.434l-0,15.767l-7.557,0l-0,-27.272l7.201,-0l0,4.815l0.313,0c0.611,-1.591 1.626,-2.85 3.045,-3.778c1.419,-0.928 3.141,-1.392 5.165,-1.392c1.896,-0 3.549,0.414 4.959,1.244c1.41,0.83 2.505,2.011 3.285,3.543c0.78,1.531 1.166,3.354 1.159,5.468l0,17.372l-7.556,0l-0,-16.022c0.007,-1.667 -0.42,-2.972 -1.28,-3.914c-0.861,-0.942 -2.049,-1.413 -3.564,-1.413c-1.018,-0 -1.916,0.221 -2.694,0.662c-0.777,0.442 -1.383,1.078 -1.816,1.911c-0.433,0.832 -0.653,1.835 -0.66,3.009Z" style="fill-rule:nonzero;"/><path d="M706.249,989.727c-2.798,-0 -5.208,-0.569 -7.228,-1.706c-2.021,-1.138 -3.575,-2.757 -4.663,-4.858c-1.088,-2.101 -1.632,-4.591 -1.632,-7.47c0,-2.808 0.546,-5.271 1.637,-7.39c1.092,-2.119 2.627,-3.77 4.606,-4.954c1.979,-1.184 4.306,-1.775 6.981,-1.775c1.805,-0 3.484,0.286 5.04,0.859c1.555,0.573 2.915,1.435 4.08,2.587c1.165,1.152 2.074,2.594 2.727,4.327c0.654,1.733 0.98,3.758 0.98,6.076l0,2.074l-23.025,-0l-0,-4.688l15.909,0c-0.007,-1.084 -0.248,-2.047 -0.723,-2.888c-0.474,-0.842 -1.129,-1.504 -1.964,-1.986c-0.834,-0.481 -1.8,-0.722 -2.896,-0.722c-1.143,-0 -2.157,0.265 -3.04,0.797c-0.883,0.531 -1.573,1.237 -2.072,2.118c-0.498,0.881 -0.754,1.86 -0.768,2.937l-0,4.46c-0,1.35 0.253,2.516 0.76,3.498c0.506,0.983 1.221,1.739 2.144,2.269c0.924,0.531 2.015,0.796 3.275,0.796c0.845,-0 1.615,-0.12 2.31,-0.359c0.695,-0.239 1.293,-0.593 1.795,-1.063c0.502,-0.47 0.881,-1.047 1.136,-1.732l6.989,0.455c-0.355,1.686 -1.079,3.153 -2.17,4.402c-1.091,1.248 -2.499,2.217 -4.224,2.904c-1.725,0.688 -3.713,1.032 -5.964,1.032Z" style="fill-rule:nonzero;"/><path d="M1090.61,1038.58c-0,-14.388 -11.681,-26.068 -26.068,-26.068l-462.611,-0c-14.387,-0 -26.068,11.68 -26.068,26.068l-0,52.136c-0,14.387 11.681,26.068 26.068,26.068l462.611,-0c14.387,-0 26.068,-11.681 26.068,-26.068l-0,-52.136Z" style="fill:#fff;stroke:#212529;stroke-width:12.5px;"/></g><rect x="573.593" y="387.362" width="10.185" height="47.304" style="fill:#212529;fill-rule:nonzero;"/><path d="M596.767,435.258c-1.556,-0 -2.889,-0.54 -3.998,-1.619c-1.109,-1.08 -1.659,-2.388 -1.649,-3.924c-0.01,-1.509 0.54,-2.801 1.649,-3.876c1.109,-1.075 2.442,-1.613 3.998,-1.613c1.5,0 2.814,0.538 3.942,1.613c1.128,1.075 1.697,2.367 1.706,3.876c-0.009,1.022 -0.277,1.953 -0.802,2.792c-0.526,0.839 -1.212,1.507 -2.06,2.005c-0.847,0.497 -1.775,0.746 -2.786,0.746Z" style="fill:#212529;fill-rule:nonzero;"/><path d="M670.509,403.919l-10.298,-0c-0.195,-1.306 -0.583,-2.472 -1.165,-3.497c-0.582,-1.026 -1.325,-1.901 -2.231,-2.627c-0.905,-0.725 -1.949,-1.278 -3.132,-1.658c-1.183,-0.38 -2.471,-0.571 -3.864,-0.571c-2.485,0 -4.654,0.604 -6.507,1.811c-1.853,1.208 -3.29,2.962 -4.311,5.262c-1.021,2.301 -1.532,5.092 -1.532,8.375c0,3.376 0.515,6.211 1.546,8.507c1.031,2.296 2.47,4.027 4.318,5.193c1.848,1.166 3.991,1.748 6.43,1.748c1.364,0 2.629,-0.176 3.793,-0.529c1.164,-0.352 2.201,-0.871 3.111,-1.554c0.91,-0.684 1.67,-1.519 2.28,-2.506c0.611,-0.987 1.032,-2.112 1.264,-3.375l10.298,0.056c-0.27,2.168 -0.934,4.255 -1.991,6.261c-1.058,2.007 -2.475,3.801 -4.252,5.382c-1.778,1.582 -3.895,2.83 -6.352,3.744c-2.457,0.915 -5.23,1.372 -8.321,1.372c-4.299,0 -8.14,-0.953 -11.524,-2.859c-3.384,-1.906 -6.053,-4.672 -8.006,-8.297c-1.953,-3.625 -2.93,-8.006 -2.93,-13.143c0,-5.155 0.989,-9.543 2.966,-13.163c1.976,-3.62 4.659,-6.381 8.048,-8.283c3.388,-1.902 7.204,-2.852 11.446,-2.852c2.799,-0 5.394,0.383 7.785,1.15c2.391,0.767 4.51,1.885 6.358,3.356c1.848,1.47 3.357,3.27 4.528,5.398c1.17,2.128 1.918,4.561 2.245,7.299Z" style="fill:#212529;fill-rule:nonzero;"/><path d="M692.328,435.35c-3.659,0 -6.817,-0.764 -9.474,-2.293c-2.658,-1.529 -4.708,-3.667 -6.152,-6.412c-1.443,-2.746 -2.165,-5.942 -2.165,-9.588c0,-3.659 0.722,-6.864 2.165,-9.616c1.444,-2.752 3.494,-4.892 6.152,-6.421c2.657,-1.529 5.815,-2.294 9.474,-2.294c3.659,0 6.817,0.765 9.474,2.294c2.658,1.529 4.708,3.669 6.152,6.421c1.443,2.752 2.165,5.957 2.165,9.616c-0,3.646 -0.722,6.842 -2.165,9.588c-1.444,2.745 -3.494,4.883 -6.152,6.412c-2.657,1.529 -5.815,2.293 -9.474,2.293Zm0.057,-7.613c1.65,0 3.035,-0.466 4.155,-1.4c1.121,-0.933 1.966,-2.208 2.537,-3.825c0.571,-1.616 0.857,-3.453 0.857,-5.511c-0,-2.066 -0.286,-3.909 -0.857,-5.527c-0.571,-1.618 -1.416,-2.897 -2.537,-3.837c-1.12,-0.939 -2.505,-1.409 -4.155,-1.409c-1.689,0 -3.102,0.47 -4.241,1.409c-1.139,0.94 -1.994,2.219 -2.565,3.837c-0.571,1.618 -0.857,3.461 -0.857,5.527c0,2.058 0.286,3.895 0.857,5.511c0.571,1.617 1.426,2.892 2.565,3.825c1.139,0.934 2.552,1.4 4.241,1.4Z" style="fill:#212529;fill-rule:nonzero;"/><path d="M725.556,414.156l-0,20.511l-10.015,-0l-0,-35.479l9.544,0l0,6.265l0.414,-0c0.81,-2.07 2.155,-3.709 4.036,-4.916c1.881,-1.207 4.163,-1.811 6.846,-1.811c2.513,0 4.704,0.54 6.572,1.62c1.869,1.079 3.32,2.615 4.354,4.608c1.034,1.992 1.546,4.363 1.536,7.114l0,22.599l-10.015,-0l0,-20.844c0.01,-2.168 -0.556,-3.865 -1.697,-5.091c-1.14,-1.226 -2.714,-1.838 -4.722,-1.838c-1.35,-0 -2.54,0.287 -3.57,0.861c-1.031,0.574 -1.834,1.403 -2.408,2.485c-0.574,1.083 -0.866,2.388 -0.875,3.916Z" style="fill:#212529;fill-rule:nonzero;"/><path d="M773.543,399.188l0,7.392l-21.782,-0l0,-7.392l21.782,0Zm-16.83,-8.5l10.015,0l0,33.067c0,0.912 0.144,1.619 0.433,2.123c0.289,0.503 0.687,0.854 1.196,1.053c0.508,0.199 1.095,0.298 1.76,0.298c0.48,0 0.956,-0.042 1.428,-0.125c0.472,-0.083 0.831,-0.152 1.076,-0.207l1.581,7.335c-0.499,0.157 -1.206,0.339 -2.12,0.545c-0.915,0.207 -2.022,0.333 -3.321,0.379c-2.416,0.093 -4.53,-0.222 -6.344,-0.944c-1.813,-0.723 -3.222,-1.849 -4.226,-3.38c-1.004,-1.53 -1.497,-3.452 -1.478,-5.765l-0,-34.379Z" style="fill:#212529;fill-rule:nonzero;"/><path d="M788.717,435.332c-2.3,-0 -4.353,-0.395 -6.158,-1.185c-1.806,-0.79 -3.23,-1.967 -4.271,-3.532c-1.042,-1.564 -1.563,-3.515 -1.563,-5.853c0,-1.977 0.366,-3.633 1.097,-4.968c0.731,-1.335 1.732,-2.411 3.002,-3.227c1.271,-0.816 2.72,-1.435 4.347,-1.857c1.627,-0.422 3.336,-0.718 5.127,-0.887c2.093,-0.203 3.784,-0.401 5.072,-0.593c1.288,-0.193 2.223,-0.482 2.807,-0.869c0.584,-0.386 0.876,-0.959 0.876,-1.716l-0,-0.129c-0,-1.466 -0.469,-2.6 -1.408,-3.4c-0.938,-0.801 -2.257,-1.202 -3.958,-1.202c-1.804,0 -3.24,0.388 -4.309,1.162c-1.068,0.775 -1.772,1.749 -2.111,2.922l-9.281,-0.739c0.471,-2.156 1.396,-4.023 2.775,-5.601c1.379,-1.579 3.163,-2.795 5.353,-3.65c2.19,-0.854 4.727,-1.282 7.611,-1.282c2.017,0 3.945,0.232 5.784,0.696c1.839,0.463 3.475,1.178 4.909,2.143c1.434,0.965 2.567,2.207 3.4,3.723c0.833,1.517 1.25,3.333 1.25,5.449l-0,23.93l-9.507,-0l-0,-4.916l-0.283,0c-0.583,1.103 -1.359,2.074 -2.327,2.915c-0.968,0.841 -2.137,1.495 -3.506,1.964c-1.37,0.468 -2.946,0.702 -4.728,0.702Zm2.881,-6.782c1.471,0 2.771,-0.289 3.899,-0.868c1.128,-0.579 2.012,-1.363 2.652,-2.352c0.64,-0.988 0.96,-2.102 0.96,-3.339l0,-3.77c-0.301,0.194 -0.725,0.372 -1.273,0.536c-0.547,0.163 -1.156,0.309 -1.826,0.439c-0.67,0.129 -1.342,0.244 -2.015,0.346c-0.673,0.102 -1.284,0.191 -1.833,0.268c-1.179,0.166 -2.209,0.435 -3.09,0.806c-0.88,0.371 -1.564,0.869 -2.052,1.492c-0.488,0.624 -0.732,1.398 -0.732,2.322c0,1.349 0.499,2.373 1.497,3.072c0.998,0.699 2.269,1.048 3.813,1.048Z" style="fill:#212529;fill-rule:nonzero;"/><path d="M832.111,435.35c-3.709,0 -6.89,-0.774 -9.545,-2.321c-2.654,-1.548 -4.692,-3.697 -6.114,-6.449c-1.421,-2.752 -2.132,-5.926 -2.132,-9.523c0,-3.622 0.719,-6.81 2.156,-9.565c1.437,-2.755 3.481,-4.905 6.133,-6.449c2.651,-1.544 5.806,-2.317 9.464,-2.317c3.144,0 5.903,0.562 8.276,1.684c2.374,1.123 4.25,2.703 5.627,4.74c1.378,2.037 2.134,4.423 2.269,7.158l-9.451,-0c-0.273,-1.765 -0.975,-3.192 -2.106,-4.28c-1.131,-1.089 -2.619,-1.633 -4.464,-1.633c-1.544,-0 -2.895,0.412 -4.053,1.236c-1.157,0.823 -2.058,2.02 -2.701,3.589c-0.643,1.569 -0.965,3.472 -0.965,5.707c0,2.261 0.319,4.183 0.956,5.768c0.637,1.585 1.534,2.793 2.692,3.627c1.157,0.833 2.514,1.249 4.071,1.249c1.151,0 2.184,-0.23 3.097,-0.691c0.913,-0.46 1.671,-1.132 2.275,-2.014c0.604,-0.882 1.004,-1.952 1.198,-3.208l9.451,-0c-0.154,2.713 -0.901,5.099 -2.241,7.158c-1.339,2.059 -3.187,3.662 -5.541,4.811c-2.355,1.149 -5.139,1.723 -8.352,1.723Z" style="fill:#212529;fill-rule:nonzero;"/><path d="M872.003,399.188l0,7.392l-21.782,-0l0,-7.392l21.782,0Zm-16.83,-8.5l10.015,0l0,33.067c0,0.912 0.144,1.619 0.433,2.123c0.289,0.503 0.687,0.854 1.196,1.053c0.508,0.199 1.095,0.298 1.76,0.298c0.48,0 0.956,-0.042 1.428,-0.125c0.472,-0.083 0.831,-0.152 1.076,-0.207l1.581,7.335c-0.499,0.157 -1.206,0.339 -2.12,0.545c-0.915,0.207 -2.022,0.333 -3.321,0.379c-2.416,0.093 -4.53,-0.222 -6.344,-0.944c-1.814,-0.723 -3.222,-1.849 -4.226,-3.38c-1.005,-1.53 -1.497,-3.452 -1.478,-5.765l-0,-34.379Z" style="fill:#212529;fill-rule:nonzero;"/><path d="M912.78,434.667l-17.075,-0l0,-47.305l17.226,0c4.845,0 9.017,0.943 12.517,2.83c3.5,1.886 6.195,4.593 8.085,8.121c1.891,3.528 2.836,7.749 2.836,12.665c-0,4.927 -0.946,9.161 -2.838,12.701c-1.892,3.54 -4.6,6.256 -8.123,8.149c-3.524,1.892 -7.733,2.839 -12.628,2.839Zm-6.89,-8.574l6.457,-0c3.025,-0 5.567,-0.528 7.627,-1.585c2.06,-1.056 3.613,-2.696 4.66,-4.92c1.046,-2.223 1.569,-5.094 1.569,-8.61c0,-3.505 -0.524,-6.365 -1.574,-8.579c-1.049,-2.214 -2.6,-3.845 -4.65,-4.892c-2.051,-1.047 -4.582,-1.571 -7.594,-1.571l-6.495,-0l0,30.157Z" style="fill:#212529;fill-rule:nonzero;"/><path d="M959.6,435.35c-3.708,0 -6.902,-0.74 -9.58,-2.219c-2.678,-1.48 -4.738,-3.587 -6.179,-6.32c-1.442,-2.733 -2.163,-5.972 -2.163,-9.717c0,-3.653 0.723,-6.857 2.17,-9.614c1.446,-2.756 3.481,-4.904 6.104,-6.444c2.623,-1.54 5.707,-2.31 9.253,-2.31c2.391,0 4.617,0.373 6.679,1.118c2.061,0.746 3.864,1.867 5.407,3.366c1.544,1.498 2.749,3.374 3.615,5.629c0.866,2.254 1.299,4.889 1.299,7.904l0,2.697l-30.517,0l0,-6.097l21.085,-0c-0.009,-1.411 -0.329,-2.663 -0.958,-3.758c-0.629,-1.095 -1.496,-1.956 -2.602,-2.583c-1.106,-0.627 -2.386,-0.94 -3.838,-0.94c-1.516,0 -2.859,0.346 -4.029,1.037c-1.171,0.692 -2.086,1.61 -2.747,2.756c-0.66,1.146 -1,2.419 -1.018,3.82l-0,5.802c-0,1.756 0.335,3.273 1.007,4.551c0.671,1.278 1.619,2.262 2.842,2.952c1.224,0.689 2.67,1.034 4.34,1.034c1.12,0 2.141,-0.155 3.062,-0.466c0.921,-0.311 1.714,-0.772 2.379,-1.384c0.665,-0.611 1.167,-1.362 1.506,-2.252l9.262,0.591c-0.471,2.193 -1.429,4.102 -2.876,5.727c-1.446,1.624 -3.312,2.884 -5.598,3.778c-2.286,0.895 -4.921,1.342 -7.905,1.342Z" style="fill:#212529;fill-rule:nonzero;"/><path d="M1000.96,399.188l0,7.392l-21.782,-0l0,-7.392l21.782,0Zm-16.83,-8.5l10.015,0l-0,33.067c-0,0.912 0.144,1.619 0.433,2.123c0.289,0.503 0.687,0.854 1.196,1.053c0.508,0.199 1.095,0.298 1.76,0.298c0.48,0 0.956,-0.042 1.428,-0.125c0.472,-0.083 0.831,-0.152 1.076,-0.207l1.581,7.335c-0.499,0.157 -1.206,0.339 -2.12,0.545c-0.915,0.207 -2.022,0.333 -3.321,0.379c-2.416,0.093 -4.53,-0.222 -6.344,-0.944c-1.814,-0.723 -3.222,-1.849 -4.227,-3.38c-1.004,-1.53 -1.496,-3.452 -1.477,-5.765l-0,-34.379Z" style="fill:#212529;fill-rule:nonzero;"/><path d="M1016.13,435.332c-2.3,-0 -4.353,-0.395 -6.158,-1.185c-1.806,-0.79 -3.23,-1.967 -4.272,-3.532c-1.041,-1.564 -1.562,-3.515 -1.562,-5.853c-0,-1.977 0.365,-3.633 1.097,-4.968c0.731,-1.335 1.732,-2.411 3.002,-3.227c1.271,-0.816 2.72,-1.435 4.347,-1.857c1.626,-0.422 3.336,-0.718 5.127,-0.887c2.093,-0.203 3.784,-0.401 5.072,-0.593c1.287,-0.193 2.223,-0.482 2.807,-0.869c0.584,-0.386 0.875,-0.959 0.875,-1.716l0,-0.129c0,-1.466 -0.469,-2.6 -1.407,-3.4c-0.938,-0.801 -2.257,-1.202 -3.958,-1.202c-1.804,0 -3.24,0.388 -4.309,1.162c-1.068,0.775 -1.772,1.749 -2.111,2.922l-9.281,-0.739c0.471,-2.156 1.396,-4.023 2.775,-5.601c1.378,-1.579 3.163,-2.795 5.353,-3.65c2.19,-0.854 4.727,-1.282 7.611,-1.282c2.017,0 3.945,0.232 5.784,0.696c1.838,0.463 3.475,1.178 4.909,2.143c1.434,0.965 2.567,2.207 3.4,3.723c0.833,1.517 1.25,3.333 1.25,5.449l-0,23.93l-9.507,-0l-0,-4.916l-0.283,0c-0.583,1.103 -1.359,2.074 -2.327,2.915c-0.968,0.841 -2.137,1.495 -3.506,1.964c-1.37,0.468 -2.946,0.702 -4.728,0.702Zm2.88,-6.782c1.472,0 2.772,-0.289 3.9,-0.868c1.128,-0.579 2.012,-1.363 2.652,-2.352c0.64,-0.988 0.96,-2.102 0.96,-3.339l0,-3.77c-0.301,0.194 -0.726,0.372 -1.273,0.536c-0.548,0.163 -1.156,0.309 -1.826,0.439c-0.67,0.129 -1.342,0.244 -2.015,0.346c-0.673,0.102 -1.284,0.191 -1.833,0.268c-1.18,0.166 -2.21,0.435 -3.09,0.806c-0.88,0.371 -1.564,0.869 -2.052,1.492c-0.488,0.624 -0.732,1.398 -0.732,2.322c0,1.349 0.499,2.373 1.497,3.072c0.998,0.699 2.269,1.048 3.812,1.048Z" style="fill:#212529;fill-rule:nonzero;"/><path d="M1043.2,434.667l0,-35.479l10.025,0l0,35.479l-10.025,-0Zm5.06,-40.052c-1.491,-0 -2.769,-0.489 -3.836,-1.467c-1.067,-0.978 -1.6,-2.152 -1.6,-3.522c-0,-1.355 0.533,-2.522 1.6,-3.499c1.067,-0.978 2.337,-1.467 3.812,-1.467c1.506,-0 2.789,0.489 3.848,1.467c1.059,0.977 1.588,2.144 1.588,3.499c0,1.37 -0.529,2.544 -1.588,3.522c-1.059,0.978 -2.334,1.467 -3.824,1.467Z" style="fill:#212529;fill-rule:nonzero;"/><rect x="1058.93" y="387.362" width="10.015" height="47.304" style="fill:#212529;fill-rule:nonzero;"/><path d="M1104.71,409.296l-9.168,0.554c-0.163,-0.76 -0.502,-1.453 -1.017,-2.078c-0.514,-0.626 -1.193,-1.125 -2.035,-1.5c-0.843,-0.374 -1.846,-0.561 -3.01,-0.561c-1.553,-0 -2.863,0.319 -3.93,0.956c-1.067,0.638 -1.596,1.483 -1.586,2.536c-0.01,0.857 0.33,1.576 1.019,2.158c0.688,0.582 1.874,1.052 3.556,1.409l6.551,1.293c3.514,0.706 6.132,1.843 7.853,3.412c1.721,1.569 2.586,3.635 2.595,6.197c-0.009,2.328 -0.705,4.369 -2.087,6.123c-1.382,1.754 -3.281,3.118 -5.695,4.093c-2.414,0.975 -5.186,1.462 -8.314,1.462c-4.788,0 -8.599,-0.979 -11.434,-2.938c-2.835,-1.958 -4.489,-4.632 -4.963,-8.019l9.846,-0.518c0.304,1.438 1.026,2.531 2.167,3.278c1.141,0.747 2.608,1.12 4.403,1.12c1.751,0 3.165,-0.337 4.243,-1.011c1.078,-0.675 1.621,-1.539 1.631,-2.592c-0.01,-0.899 -0.39,-1.637 -1.142,-2.213c-0.751,-0.576 -1.914,-1.021 -3.489,-1.335l-6.251,-1.22c-3.536,-0.686 -6.164,-1.886 -7.883,-3.598c-1.719,-1.713 -2.574,-3.895 -2.565,-6.546c-0.009,-2.279 0.619,-4.242 1.885,-5.888c1.266,-1.646 3.05,-2.915 5.351,-3.806c2.302,-0.892 4.991,-1.338 8.069,-1.338c4.566,0 8.164,0.946 10.795,2.837c2.631,1.891 4.166,4.468 4.605,7.733Z" style="fill:#212529;fill-rule:nonzero;"/><path d="M575.863,448.503l531.946,-0" style="fill:#212529;stroke:#212529;stroke-width:7px;"/><path d="M615.117,646.384c-1.875,0 -3.489,-0.408 -4.844,-1.224c-1.355,-0.816 -2.397,-1.96 -3.128,-3.43c-0.73,-1.471 -1.095,-3.184 -1.095,-5.14c-0,-1.955 0.365,-3.681 1.095,-5.176c0.731,-1.496 1.752,-2.664 3.065,-3.505c1.312,-0.841 2.847,-1.262 4.603,-1.262c1.013,0 2.013,0.166 3.001,0.497c0.987,0.332 1.887,0.868 2.697,1.61c0.81,0.741 1.456,1.721 1.937,2.939c0.482,1.218 0.722,2.718 0.722,4.5l0,1.242l-14.993,0l0,-2.535l11.954,-0c0,-1.077 -0.217,-2.038 -0.652,-2.884c-0.435,-0.845 -1.051,-1.512 -1.849,-2.001c-0.798,-0.489 -1.737,-0.733 -2.817,-0.733c-1.191,0 -2.218,0.288 -3.084,0.864c-0.865,0.576 -1.53,1.324 -1.994,2.243c-0.464,0.92 -0.697,1.906 -0.697,2.958l0,1.691c0,1.441 0.256,2.662 0.766,3.66c0.511,0.999 1.222,1.757 2.134,2.275c0.912,0.517 1.971,0.776 3.179,0.776c0.785,0 1.496,-0.109 2.133,-0.329c0.638,-0.22 1.188,-0.551 1.653,-0.994c0.464,-0.444 0.823,-0.997 1.076,-1.66l2.887,0.796c-0.304,0.961 -0.814,1.804 -1.532,2.529c-0.717,0.725 -1.604,1.289 -2.659,1.691c-1.055,0.401 -2.241,0.602 -3.558,0.602Z" style="fill:#919191;fill-rule:nonzero;"/><path d="M629.907,646.185c-0.625,0 -1.161,-0.219 -1.608,-0.658c-0.448,-0.439 -0.671,-0.966 -0.671,-1.579c-0,-0.613 0.223,-1.139 0.671,-1.578c0.447,-0.439 0.983,-0.659 1.608,-0.659c0.625,0 1.161,0.22 1.608,0.659c0.447,0.439 0.671,0.965 0.671,1.578c0,0.406 -0.103,0.779 -0.31,1.119c-0.207,0.34 -0.481,0.611 -0.823,0.814c-0.342,0.203 -0.724,0.304 -1.146,0.304Z" style="fill:#919191;fill-rule:nonzero;"/><path d="M645.406,653.543c-1.443,0 -2.684,-0.18 -3.723,-0.54c-1.038,-0.361 -1.901,-0.833 -2.589,-1.417c-0.688,-0.584 -1.235,-1.208 -1.64,-1.871l2.381,-1.64c0.27,0.348 0.612,0.747 1.025,1.199c0.414,0.452 0.982,0.845 1.703,1.181c0.722,0.335 1.67,0.503 2.843,0.503c1.57,0 2.866,-0.373 3.888,-1.118c1.021,-0.746 1.532,-1.914 1.532,-3.505l-0,-3.878l-0.253,-0c-0.22,0.348 -0.53,0.777 -0.931,1.286c-0.401,0.51 -0.975,0.961 -1.722,1.355c-0.747,0.394 -1.754,0.59 -3.02,0.59c-1.57,0 -2.978,-0.364 -4.223,-1.093c-1.246,-0.73 -2.229,-1.79 -2.951,-3.182c-0.722,-1.392 -1.082,-3.083 -1.082,-5.071c-0,-1.956 0.35,-3.661 1.051,-5.115c0.7,-1.454 1.675,-2.581 2.925,-3.38c1.249,-0.8 2.693,-1.2 4.33,-1.2c1.267,0 2.273,0.205 3.02,0.615c0.748,0.41 1.322,0.875 1.723,1.392c0.401,0.518 0.711,0.943 0.93,1.274l0.304,0l0,-3.032l2.887,-0l0,19.637c0,1.641 -0.377,2.977 -1.133,4.009c-0.755,1.031 -1.769,1.79 -3.039,2.274c-1.271,0.485 -2.682,0.727 -4.236,0.727Zm-0.101,-10.49c1.199,0 2.212,-0.269 3.039,-0.808c0.827,-0.538 1.456,-1.313 1.887,-2.324c0.43,-1.011 0.646,-2.22 0.646,-3.629c-0,-1.375 -0.211,-2.589 -0.634,-3.642c-0.422,-1.052 -1.046,-1.876 -1.874,-2.473c-0.827,-0.597 -1.848,-0.895 -3.064,-0.895c-1.266,0 -2.319,0.315 -3.159,0.945c-0.84,0.629 -1.469,1.475 -1.887,2.535c-0.418,1.061 -0.627,2.237 -0.627,3.53c-0,1.326 0.213,2.496 0.639,3.511c0.427,1.015 1.06,1.811 1.9,2.387c0.84,0.575 1.885,0.863 3.134,0.863Z" style="fill:#919191;fill-rule:nonzero;"/><path d="M679.647,620.532l3.14,0l0,18.196c0,1.624 -0.304,3.004 -0.912,4.139c-0.607,1.135 -1.464,1.997 -2.57,2.585c-1.106,0.588 -2.41,0.883 -3.913,0.883c-1.418,-0 -2.68,-0.255 -3.786,-0.765c-1.106,-0.509 -1.976,-1.236 -2.609,-2.181c-0.633,-0.945 -0.95,-2.067 -0.95,-3.368l3.09,-0c0,0.721 0.184,1.348 0.551,1.883c0.367,0.534 0.872,0.95 1.513,1.249c0.642,0.298 1.372,0.447 2.191,0.447c0.903,0 1.671,-0.186 2.305,-0.559c0.633,-0.373 1.116,-0.922 1.45,-1.647c0.333,-0.725 0.5,-1.614 0.5,-2.666l-0,-18.196Z" style="fill:#919191;fill-rule:nonzero;"/><path d="M694.386,646.434c-1.232,0 -2.351,-0.23 -3.355,-0.69c-1.005,-0.46 -1.803,-1.127 -2.394,-2.001c-0.591,-0.874 -0.886,-1.933 -0.886,-3.175c-0,-1.094 0.219,-1.983 0.658,-2.666c0.439,-0.684 1.026,-1.221 1.761,-1.61c0.734,-0.389 1.547,-0.682 2.437,-0.876c0.891,-0.195 1.788,-0.35 2.691,-0.466c1.182,-0.149 2.142,-0.263 2.881,-0.342c0.739,-0.079 1.279,-0.214 1.621,-0.404c0.342,-0.191 0.513,-0.522 0.513,-0.994l-0,-0.1c-0,-1.226 -0.34,-2.179 -1.02,-2.858c-0.679,-0.68 -1.707,-1.02 -3.083,-1.02c-1.427,0 -2.545,0.307 -3.356,0.92c-0.81,0.613 -1.38,1.268 -1.709,1.964l-2.837,-0.994c0.507,-1.161 1.184,-2.066 2.033,-2.716c0.848,-0.651 1.777,-1.106 2.785,-1.367c1.009,-0.261 2.003,-0.392 2.982,-0.392c0.625,0 1.345,0.073 2.159,0.218c0.815,0.145 1.604,0.441 2.368,0.888c0.764,0.448 1.4,1.123 1.906,2.026c0.507,0.903 0.76,2.113 0.76,3.629l-0,12.579l-2.988,-0l-0,-2.586l-0.152,0c-0.203,0.415 -0.541,0.858 -1.013,1.33c-0.473,0.473 -1.102,0.874 -1.887,1.206c-0.785,0.331 -1.743,0.497 -2.875,0.497Zm0.456,-2.635c1.182,0 2.18,-0.228 2.995,-0.684c0.815,-0.455 1.431,-1.044 1.849,-1.764c0.418,-0.721 0.627,-1.479 0.627,-2.275l-0,-2.685c-0.127,0.15 -0.404,0.284 -0.83,0.404c-0.426,0.121 -0.916,0.224 -1.469,0.311c-0.553,0.087 -1.089,0.162 -1.608,0.224c-0.519,0.062 -0.939,0.114 -1.26,0.155c-0.777,0.1 -1.5,0.259 -2.172,0.479c-0.671,0.219 -1.211,0.547 -1.62,0.982c-0.41,0.435 -0.615,1.025 -0.615,1.771c0,1.019 0.387,1.787 1.159,2.305c0.772,0.518 1.754,0.777 2.944,0.777Z" style="fill:#919191;fill-rule:nonzero;"/><path d="M711.76,634.502l-0,11.485l-2.989,-0l0,-19.091l2.888,-0l-0,2.983l0.253,-0c0.456,-0.97 1.148,-1.751 2.076,-2.343c0.929,-0.593 2.128,-0.889 3.597,-0.889c1.317,0 2.469,0.263 3.457,0.789c0.987,0.527 1.756,1.322 2.304,2.387c0.549,1.064 0.823,2.409 0.823,4.033l0,12.131l-2.988,-0l0,-11.932c0,-1.5 -0.397,-2.67 -1.19,-3.511c-0.794,-0.841 -1.883,-1.262 -3.267,-1.262c-0.954,0 -1.805,0.203 -2.552,0.609c-0.747,0.406 -1.336,0.999 -1.766,1.777c-0.431,0.779 -0.646,1.724 -0.646,2.834Z" style="fill:#919191;fill-rule:nonzero;"/><path d="M737.795,646.384c-1.874,0 -3.489,-0.408 -4.844,-1.224c-1.355,-0.816 -2.397,-1.96 -3.128,-3.43c-0.73,-1.471 -1.095,-3.184 -1.095,-5.14c0,-1.955 0.365,-3.681 1.095,-5.176c0.731,-1.496 1.752,-2.664 3.065,-3.505c1.313,-0.841 2.847,-1.262 4.603,-1.262c1.013,0 2.013,0.166 3.001,0.497c0.988,0.332 1.887,0.868 2.697,1.61c0.811,0.741 1.456,1.721 1.938,2.939c0.481,1.218 0.721,2.718 0.721,4.5l0,1.242l-14.993,0l0,-2.535l11.954,-0c0,-1.077 -0.217,-2.038 -0.652,-2.884c-0.435,-0.845 -1.051,-1.512 -1.849,-2.001c-0.797,-0.489 -1.737,-0.733 -2.817,-0.733c-1.19,0 -2.218,0.288 -3.084,0.864c-0.865,0.576 -1.53,1.324 -1.994,2.243c-0.464,0.92 -0.696,1.906 -0.696,2.958l-0,1.691c-0,1.441 0.255,2.662 0.766,3.66c0.51,0.999 1.222,1.757 2.133,2.275c0.912,0.517 1.972,0.776 3.179,0.776c0.785,0 1.496,-0.109 2.133,-0.329c0.638,-0.22 1.189,-0.551 1.653,-0.994c0.464,-0.444 0.823,-0.997 1.076,-1.66l2.887,0.796c-0.303,0.961 -0.814,1.804 -1.532,2.529c-0.717,0.725 -1.604,1.289 -2.659,1.691c-1.055,0.401 -2.241,0.602 -3.558,0.602Z" style="fill:#919191;fill-rule:nonzero;"/><path d="M768.844,645.987l-8.003,-0l0,-25.455l8.358,0c2.515,0 4.668,0.508 6.458,1.523c1.789,1.015 3.161,2.469 4.115,4.362c0.954,1.894 1.431,4.158 1.431,6.793c0,2.651 -0.481,4.932 -1.443,6.842c-0.963,1.91 -2.364,3.376 -4.205,4.4c-1.84,1.023 -4.077,1.535 -6.711,1.535Zm-4.862,-2.735l4.66,0c2.144,0 3.921,-0.406 5.331,-1.218c1.409,-0.812 2.46,-1.968 3.153,-3.468c0.692,-1.499 1.038,-3.285 1.038,-5.356c0,-2.055 -0.342,-3.826 -1.026,-5.314c-0.683,-1.487 -1.705,-2.631 -3.064,-3.43c-1.359,-0.8 -3.052,-1.2 -5.078,-1.2l-5.014,0l-0,19.986Z" style="fill:#919191;fill-rule:nonzero;"/><path d="M793.967,646.384c-1.756,0 -3.294,-0.41 -4.615,-1.23c-1.321,-0.82 -2.351,-1.968 -3.09,-3.443c-0.739,-1.475 -1.108,-3.198 -1.108,-5.17c-0,-1.989 0.369,-3.725 1.108,-5.208c0.739,-1.483 1.769,-2.635 3.09,-3.455c1.321,-0.821 2.859,-1.231 4.615,-1.231c1.756,0 3.295,0.41 4.616,1.231c1.321,0.82 2.351,1.972 3.09,3.455c0.738,1.483 1.108,3.219 1.108,5.208c-0,1.972 -0.37,3.695 -1.108,5.17c-0.739,1.475 -1.769,2.623 -3.09,3.443c-1.321,0.82 -2.86,1.23 -4.616,1.23Zm0,-2.635c1.334,0 2.432,-0.335 3.293,-1.006c0.861,-0.672 1.498,-1.554 1.912,-2.648c0.413,-1.093 0.62,-2.278 0.62,-3.554c0,-1.276 -0.207,-2.466 -0.62,-3.568c-0.414,-1.102 -1.051,-1.992 -1.912,-2.672c-0.861,-0.679 -1.959,-1.019 -3.293,-1.019c-1.333,0 -2.431,0.34 -3.292,1.019c-0.861,0.68 -1.498,1.57 -1.912,2.672c-0.414,1.102 -0.621,2.292 -0.621,3.568c0,1.276 0.207,2.461 0.621,3.554c0.414,1.094 1.051,1.976 1.912,2.648c0.861,0.671 1.959,1.006 3.292,1.006Z" style="fill:#919191;fill-rule:nonzero;"/><path d="M815.494,646.384c-1.874,0 -3.488,-0.408 -4.843,-1.224c-1.355,-0.816 -2.398,-1.96 -3.128,-3.43c-0.73,-1.471 -1.095,-3.184 -1.095,-5.14c-0,-1.955 0.365,-3.681 1.095,-5.176c0.73,-1.496 1.752,-2.664 3.064,-3.505c1.313,-0.841 2.847,-1.262 4.603,-1.262c1.013,0 2.014,0.166 3.001,0.497c0.988,0.332 1.887,0.868 2.698,1.61c0.81,0.741 1.456,1.721 1.937,2.939c0.481,1.218 0.722,2.718 0.722,4.5l-0,1.242l-14.993,0l-0,-2.535l11.954,-0c-0,-1.077 -0.218,-2.038 -0.652,-2.884c-0.435,-0.845 -1.051,-1.512 -1.849,-2.001c-0.798,-0.489 -1.737,-0.733 -2.818,-0.733c-1.19,0 -2.218,0.288 -3.083,0.864c-0.865,0.576 -1.53,1.324 -1.994,2.243c-0.465,0.92 -0.697,1.906 -0.697,2.958l0,1.691c0,1.441 0.255,2.662 0.766,3.66c0.511,0.999 1.222,1.757 2.134,2.275c0.912,0.517 1.971,0.776 3.178,0.776c0.785,0 1.497,-0.109 2.134,-0.329c0.637,-0.22 1.188,-0.551 1.652,-0.994c0.465,-0.444 0.824,-0.997 1.077,-1.66l2.887,0.796c-0.304,0.961 -0.815,1.804 -1.532,2.529c-0.718,0.725 -1.604,1.289 -2.659,1.691c-1.056,0.401 -2.242,0.602 -3.559,0.602Z" style="fill:#919191;fill-rule:nonzero;"/><path d="M614.062,1073.99c-1.874,0 -3.488,-0.408 -4.843,-1.224c-1.355,-0.816 -2.398,-1.96 -3.128,-3.431c-0.73,-1.47 -1.095,-3.183 -1.095,-5.139c-0,-1.955 0.365,-3.681 1.095,-5.177c0.73,-1.495 1.752,-2.664 3.064,-3.505c1.313,-0.841 2.847,-1.261 4.603,-1.261c1.013,-0 2.014,0.166 3.001,0.497c0.988,0.332 1.887,0.868 2.698,1.61c0.81,0.741 1.456,1.721 1.937,2.939c0.481,1.218 0.722,2.718 0.722,4.499l-0,1.243l-14.993,0l0,-2.535l11.954,-0c-0,-1.077 -0.218,-2.039 -0.652,-2.884c-0.435,-0.845 -1.051,-1.512 -1.849,-2.001c-0.798,-0.489 -1.737,-0.733 -2.818,-0.733c-1.19,-0 -2.218,0.288 -3.083,0.864c-0.865,0.576 -1.53,1.323 -1.994,2.243c-0.465,0.92 -0.697,1.906 -0.697,2.958l0,1.691c0,1.441 0.255,2.661 0.766,3.66c0.511,0.998 1.222,1.756 2.134,2.274c0.912,0.518 1.971,0.777 3.178,0.777c0.785,0 1.497,-0.11 2.134,-0.329c0.637,-0.22 1.188,-0.551 1.652,-0.995c0.465,-0.443 0.824,-0.996 1.077,-1.659l2.887,0.796c-0.304,0.961 -0.815,1.804 -1.532,2.529c-0.718,0.725 -1.604,1.288 -2.659,1.69c-1.056,0.402 -2.242,0.603 -3.559,0.603Z" style="fill:#919191;fill-rule:nonzero;"/><path d="M628.853,1073.79c-0.625,0 -1.161,-0.219 -1.609,-0.658c-0.447,-0.44 -0.671,-0.966 -0.671,-1.579c0,-0.613 0.224,-1.139 0.671,-1.578c0.448,-0.44 0.984,-0.659 1.609,-0.659c0.624,-0 1.16,0.219 1.608,0.659c0.447,0.439 0.671,0.965 0.671,1.578c-0,0.406 -0.104,0.779 -0.31,1.119c-0.207,0.339 -0.482,0.611 -0.823,0.814c-0.342,0.203 -0.724,0.304 -1.146,0.304Z" style="fill:#919191;fill-rule:nonzero;"/><path d="M644.352,1081.15c-1.444,0 -2.685,-0.18 -3.723,-0.54c-1.038,-0.361 -1.901,-0.833 -2.59,-1.417c-0.688,-0.585 -1.234,-1.208 -1.639,-1.871l2.38,-1.641c0.27,0.348 0.612,0.748 1.026,1.2c0.414,0.451 0.981,0.845 1.703,1.181c0.722,0.335 1.67,0.503 2.843,0.503c1.57,-0 2.866,-0.373 3.887,-1.119c1.022,-0.745 1.533,-1.914 1.533,-3.505l-0,-3.877l-0.254,-0c-0.219,0.348 -0.529,0.776 -0.93,1.286c-0.401,0.51 -0.975,0.961 -1.722,1.355c-0.748,0.393 -1.754,0.59 -3.021,0.59c-1.57,0 -2.977,-0.364 -4.223,-1.094c-1.245,-0.729 -2.228,-1.789 -2.95,-3.181c-0.722,-1.393 -1.083,-3.083 -1.083,-5.071c0,-1.956 0.351,-3.661 1.051,-5.115c0.701,-1.454 1.676,-2.581 2.925,-3.381c1.25,-0.799 2.693,-1.199 4.331,-1.199c1.266,-0 2.273,0.205 3.02,0.615c0.747,0.41 1.321,0.874 1.722,1.392c0.401,0.518 0.712,0.943 0.931,1.274l0.304,0l-0,-3.033l2.887,0l0,19.638c0,1.641 -0.378,2.977 -1.133,4.009c-0.756,1.031 -1.769,1.789 -3.039,2.274c-1.271,0.485 -2.683,0.727 -4.236,0.727Zm-0.101,-10.49c1.198,0 2.211,-0.269 3.039,-0.808c0.827,-0.538 1.456,-1.313 1.887,-2.324c0.43,-1.011 0.645,-2.221 0.645,-3.629c0,-1.376 -0.211,-2.59 -0.633,-3.642c-0.422,-1.052 -1.047,-1.877 -1.874,-2.473c-0.827,-0.597 -1.849,-0.895 -3.064,-0.895c-1.267,-0 -2.32,0.315 -3.16,0.944c-0.84,0.63 -1.469,1.475 -1.887,2.536c-0.417,1.061 -0.626,2.237 -0.626,3.53c-0,1.326 0.213,2.496 0.639,3.511c0.426,1.015 1.06,1.81 1.9,2.386c0.84,0.576 1.884,0.864 3.134,0.864Z" style="fill:#919191;fill-rule:nonzero;"/><path d="M675.857,1071.85l0,-16.406l2.837,0l-0,16.406l-2.837,0Zm-6.939,-6.811l-0,-2.784l16.715,0l-0,2.784l-16.715,0Z" style="fill:#919191;fill-rule:nonzero;"/><path d="M700.828,1048.14l0,25.454l-3.14,0l0,-22.223l-0.152,0l-6.331,4.127l-0,-3.132l6.483,-4.226l3.14,-0Z" style="fill:#919191;fill-rule:nonzero;"/><path d="M718.303,1073.59l0,-2.237l8.56,-9.197c1.005,-1.077 1.832,-2.016 2.482,-2.815c0.65,-0.8 1.134,-1.554 1.45,-2.262c0.317,-0.709 0.475,-1.453 0.475,-2.231c0,-0.895 -0.217,-1.67 -0.652,-2.325c-0.435,-0.654 -1.028,-1.16 -1.779,-1.516c-0.752,-0.356 -1.596,-0.534 -2.533,-0.534c-0.996,-0 -1.863,0.2 -2.602,0.602c-0.739,0.402 -1.309,0.964 -1.71,1.684c-0.4,0.721 -0.601,1.566 -0.601,2.536l-2.988,-0c-0,-1.492 0.35,-2.801 1.051,-3.928c0.7,-1.127 1.656,-2.005 2.868,-2.635c1.211,-0.629 2.572,-0.944 4.084,-0.944c1.519,-0 2.866,0.315 4.039,0.944c1.173,0.63 2.094,1.479 2.76,2.548c0.667,1.069 1.001,2.258 1.001,3.568c-0,0.936 -0.171,1.849 -0.513,2.74c-0.342,0.891 -0.933,1.881 -1.773,2.971c-0.84,1.089 -2.003,2.417 -3.488,3.983l-5.825,6.115l-0,0.199l12.055,0l-0,2.734l-16.361,0Z" style="fill:#919191;fill-rule:nonzero;"/><path d="M748.644,1073.94c-1.672,0 -3.16,-0.281 -4.464,-0.845c-1.304,-0.563 -2.339,-1.348 -3.103,-2.355c-0.764,-1.007 -1.179,-2.177 -1.247,-3.511l3.191,-0c0.068,0.82 0.355,1.526 0.861,2.119c0.507,0.592 1.17,1.05 1.988,1.373c0.819,0.323 1.727,0.485 2.723,0.485c1.114,0 2.102,-0.191 2.963,-0.572c0.861,-0.381 1.536,-0.911 2.026,-1.591c0.49,-0.679 0.735,-1.466 0.735,-2.361c-0,-0.936 -0.237,-1.763 -0.71,-2.48c-0.472,-0.716 -1.165,-1.278 -2.076,-1.684c-0.912,-0.406 -2.026,-0.609 -3.343,-0.609l-2.077,0l-0,-2.734l2.077,-0c1.03,-0 1.935,-0.183 2.716,-0.547c0.781,-0.365 1.393,-0.878 1.836,-1.541c0.443,-0.663 0.665,-1.442 0.665,-2.337c-0,-0.862 -0.194,-1.612 -0.583,-2.25c-0.388,-0.638 -0.935,-1.135 -1.64,-1.491c-0.704,-0.356 -1.534,-0.534 -2.488,-0.534c-0.895,-0 -1.737,0.159 -2.526,0.478c-0.789,0.319 -1.433,0.779 -1.931,1.38c-0.498,0.6 -0.768,1.323 -0.811,2.168l-3.039,0c0.051,-1.334 0.46,-2.504 1.229,-3.511c0.768,-1.006 1.775,-1.792 3.02,-2.355c1.245,-0.563 2.615,-0.845 4.109,-0.845c1.604,-0 2.98,0.317 4.128,0.951c1.148,0.634 2.03,1.468 2.647,2.504c0.616,1.036 0.924,2.154 0.924,3.356c-0,1.433 -0.382,2.656 -1.146,3.666c-0.764,1.011 -1.8,1.712 -3.109,2.101l0,0.199c1.638,0.265 2.917,0.947 3.837,2.044c0.92,1.098 1.38,2.455 1.38,4.071c0,1.384 -0.382,2.624 -1.146,3.722c-0.764,1.098 -1.804,1.962 -3.121,2.592c-1.317,0.63 -2.815,0.944 -4.495,0.944Z" style="fill:#919191;fill-rule:nonzero;"/><path d="M761.965,1068.37l-0,-2.535l11.397,-17.699l1.874,-0l-0,3.927l-1.267,0l-8.61,13.374l-0,0.199l15.347,-0l0,2.734l-18.741,0Zm12.207,5.22l-0,-25.454l2.988,-0l0,25.454l-2.988,0Z" style="fill:#919191;fill-rule:nonzero;"/><path d="M803.601,1073.94c-1.486,0 -2.824,-0.29 -4.015,-0.87c-1.19,-0.58 -2.144,-1.375 -2.861,-2.386c-0.718,-1.011 -1.111,-2.163 -1.178,-3.455l3.039,-0c0.118,1.152 0.652,2.102 1.602,2.852c0.95,0.75 2.087,1.125 3.413,1.125c1.063,0 2.011,-0.244 2.842,-0.733c0.832,-0.489 1.486,-1.162 1.963,-2.02c0.477,-0.858 0.716,-1.829 0.716,-2.915c-0,-1.11 -0.247,-2.102 -0.741,-2.976c-0.494,-0.874 -1.172,-1.564 -2.033,-2.07c-0.861,-0.505 -1.844,-0.762 -2.95,-0.77c-0.794,-0.009 -1.608,0.109 -2.444,0.354c-0.836,0.244 -1.524,0.557 -2.064,0.938l-2.938,-0.348l1.57,-12.528l13.474,-0l-0,2.734l-10.84,0l-0.912,7.507l0.152,0c0.532,-0.414 1.199,-0.758 2.001,-1.031c0.802,-0.274 1.638,-0.41 2.507,-0.41c1.588,-0 3.004,0.37 4.249,1.112c1.245,0.742 2.224,1.755 2.938,3.039c0.713,1.284 1.07,2.751 1.07,4.4c-0,1.624 -0.37,3.072 -1.108,4.344c-0.739,1.272 -1.754,2.274 -3.046,3.007c-1.291,0.734 -2.76,1.1 -4.406,1.1Z" style="fill:#919191;fill-rule:nonzero;"/><path d="M825.786,1073.94c-1.064,-0.016 -2.127,-0.215 -3.191,-0.596c-1.064,-0.381 -2.035,-1.026 -2.913,-1.933c-0.878,-0.907 -1.582,-2.138 -2.114,-3.691c-0.532,-1.554 -0.798,-3.507 -0.798,-5.861c-0,-2.262 0.215,-4.269 0.646,-6.021c0.43,-1.753 1.055,-3.23 1.874,-4.431c0.819,-1.202 1.809,-2.113 2.969,-2.735c1.161,-0.621 2.472,-0.932 3.932,-0.932c1.452,0 2.746,0.286 3.881,0.858c1.136,0.571 2.062,1.365 2.78,2.38c0.717,1.015 1.182,2.189 1.393,3.523l-3.09,0c-0.287,-1.168 -0.844,-2.131 -1.672,-2.889c-0.827,-0.758 -1.924,-1.137 -3.292,-1.137c-2.009,-0 -3.59,0.859 -4.742,2.579c-1.152,1.719 -1.733,4.14 -1.741,7.264l0.202,0c0.473,-0.704 1.037,-1.307 1.691,-1.808c0.654,-0.501 1.378,-0.889 2.172,-1.162c0.793,-0.274 1.633,-0.41 2.519,-0.41c1.486,-0 2.845,0.362 4.078,1.087c1.232,0.725 2.22,1.724 2.963,2.995c0.743,1.272 1.114,2.729 1.114,4.369c0,1.575 -0.358,3.014 -1.076,4.319c-0.718,1.305 -1.724,2.341 -3.02,3.108c-1.296,0.766 -2.818,1.141 -4.565,1.124Zm-0,-2.734c1.064,0 2.02,-0.261 2.868,-0.783c0.848,-0.522 1.52,-1.222 2.013,-2.1c0.494,-0.879 0.741,-1.857 0.741,-2.934c0,-1.052 -0.238,-2.011 -0.715,-2.877c-0.477,-0.866 -1.131,-1.556 -1.963,-2.069c-0.831,-0.514 -1.779,-0.771 -2.843,-0.771c-0.802,-0 -1.549,0.155 -2.241,0.466c-0.692,0.311 -1.298,0.735 -1.817,1.274c-0.519,0.539 -0.927,1.154 -1.222,1.846c-0.296,0.692 -0.443,1.419 -0.443,2.181c-0,1.011 0.242,1.955 0.728,2.834c0.485,0.878 1.152,1.587 2,2.125c0.849,0.539 1.813,0.808 2.894,0.808Z" style="fill:#919191;fill-rule:nonzero;"/><path d="M840.222,1073.59l11.599,-22.521l-0,-0.199l-13.372,0l-0,-2.734l16.614,-0l-0,2.883l-11.549,22.571l-3.292,0Z" style="fill:#919191;fill-rule:nonzero;"/><path d="M867.573,1073.94c-1.739,0 -3.273,-0.304 -4.602,-0.913c-1.33,-0.609 -2.366,-1.45 -3.109,-2.523c-0.743,-1.073 -1.11,-2.297 -1.102,-3.673c-0.008,-1.077 0.207,-2.074 0.646,-2.989c0.439,-0.916 1.04,-1.682 1.804,-2.299c0.764,-0.618 1.619,-1.009 2.565,-1.175l-0,-0.149c-1.241,-0.315 -2.229,-1.001 -2.963,-2.057c-0.735,-1.057 -1.098,-2.26 -1.09,-3.611c-0.008,-1.292 0.326,-2.448 1.001,-3.467c0.675,-1.02 1.606,-1.823 2.792,-2.412c1.186,-0.588 2.539,-0.882 4.058,-0.882c1.503,-0 2.845,0.294 4.027,0.882c1.182,0.589 2.113,1.392 2.792,2.412c0.68,1.019 1.024,2.175 1.032,3.467c-0.008,1.351 -0.382,2.554 -1.12,3.611c-0.739,1.056 -1.716,1.742 -2.932,2.057l0,0.149c0.937,0.166 1.782,0.557 2.533,1.175c0.751,0.617 1.351,1.383 1.798,2.299c0.447,0.915 0.675,1.912 0.684,2.989c-0.009,1.376 -0.386,2.6 -1.133,3.673c-0.748,1.073 -1.782,1.914 -3.103,2.523c-1.321,0.609 -2.847,0.913 -4.578,0.913Zm0,-2.734c1.174,0 2.187,-0.186 3.04,-0.559c0.852,-0.373 1.511,-0.899 1.975,-1.579c0.464,-0.679 0.701,-1.475 0.709,-2.386c-0.008,-0.961 -0.262,-1.811 -0.76,-2.548c-0.498,-0.738 -1.175,-1.318 -2.032,-1.74c-0.857,-0.423 -1.834,-0.634 -2.932,-0.634c-1.105,0 -2.091,0.211 -2.956,0.634c-0.866,0.422 -1.545,1.002 -2.039,1.74c-0.494,0.737 -0.737,1.587 -0.728,2.548c-0.009,0.911 0.217,1.707 0.677,2.386c0.46,0.68 1.121,1.206 1.982,1.579c0.861,0.373 1.883,0.559 3.064,0.559Zm0,-12.081c0.929,0 1.754,-0.182 2.476,-0.547c0.722,-0.364 1.29,-0.874 1.703,-1.529c0.414,-0.654 0.625,-1.421 0.633,-2.299c-0.008,-0.862 -0.215,-1.614 -0.62,-2.256c-0.405,-0.642 -0.967,-1.139 -1.684,-1.491c-0.718,-0.352 -1.554,-0.528 -2.508,-0.528c-0.97,-0 -1.819,0.176 -2.545,0.528c-0.726,0.352 -1.287,0.849 -1.684,1.491c-0.397,0.642 -0.591,1.394 -0.582,2.256c-0.009,0.878 0.192,1.645 0.601,2.299c0.41,0.655 0.977,1.165 1.703,1.529c0.726,0.365 1.562,0.547 2.507,0.547Z" style="fill:#919191;fill-rule:nonzero;"/><path d="M614.062,860.295c-1.874,-0 -3.488,-0.408 -4.843,-1.225c-1.355,-0.816 -2.398,-1.959 -3.128,-3.43c-0.73,-1.471 -1.095,-3.184 -1.095,-5.139c-0,-1.956 0.365,-3.681 1.095,-5.177c0.73,-1.496 1.752,-2.664 3.064,-3.505c1.313,-0.841 2.847,-1.262 4.603,-1.262c1.013,0 2.014,0.166 3.001,0.498c0.988,0.331 1.887,0.868 2.698,1.609c0.81,0.742 1.456,1.722 1.937,2.94c0.481,1.218 0.722,2.717 0.722,4.499l-0,1.243l-14.993,-0l0,-2.536l11.954,0c-0,-1.077 -0.218,-2.038 -0.652,-2.883c-0.435,-0.845 -1.051,-1.512 -1.849,-2.001c-0.798,-0.489 -1.737,-0.734 -2.818,-0.734c-1.19,0 -2.218,0.288 -3.083,0.864c-0.865,0.576 -1.53,1.324 -1.994,2.244c-0.465,0.919 -0.697,1.905 -0.697,2.958l0,1.69c0,1.442 0.255,2.662 0.766,3.66c0.511,0.999 1.222,1.757 2.134,2.275c0.912,0.518 1.971,0.777 3.178,0.777c0.785,-0 1.497,-0.11 2.134,-0.33c0.637,-0.219 1.188,-0.551 1.652,-0.994c0.465,-0.443 0.824,-0.996 1.077,-1.659l2.887,0.795c-0.304,0.961 -0.815,1.804 -1.532,2.529c-0.718,0.725 -1.604,1.289 -2.659,1.691c-1.056,0.402 -2.242,0.603 -3.559,0.603Z" style="fill:#919191;fill-rule:nonzero;"/><path d="M628.853,860.096c-0.625,-0 -1.161,-0.22 -1.609,-0.659c-0.447,-0.439 -0.671,-0.965 -0.671,-1.578c0,-0.614 0.224,-1.14 0.671,-1.579c0.448,-0.439 0.984,-0.659 1.609,-0.659c0.624,0 1.16,0.22 1.608,0.659c0.447,0.439 0.671,0.965 0.671,1.579c-0,0.406 -0.104,0.778 -0.31,1.118c-0.207,0.34 -0.482,0.611 -0.823,0.814c-0.342,0.203 -0.724,0.305 -1.146,0.305Z" style="fill:#919191;fill-rule:nonzero;"/><path d="M644.352,867.454c-1.444,-0 -2.685,-0.181 -3.723,-0.541c-1.038,-0.36 -1.901,-0.833 -2.59,-1.417c-0.688,-0.584 -1.234,-1.208 -1.639,-1.87l2.38,-1.641c0.27,0.348 0.612,0.748 1.026,1.199c0.414,0.452 0.981,0.846 1.703,1.181c0.722,0.336 1.67,0.503 2.843,0.503c1.57,0 2.866,-0.372 3.887,-1.118c1.022,-0.746 1.533,-1.914 1.533,-3.505l-0,-3.878l-0.254,0c-0.219,0.348 -0.529,0.777 -0.93,1.286c-0.401,0.51 -0.975,0.962 -1.722,1.355c-0.748,0.394 -1.754,0.591 -3.021,0.591c-1.57,-0 -2.977,-0.365 -4.223,-1.094c-1.245,-0.729 -2.228,-1.79 -2.95,-3.182c-0.722,-1.392 -1.083,-3.082 -1.083,-5.071c0,-1.956 0.351,-3.66 1.051,-5.115c0.701,-1.454 1.676,-2.581 2.925,-3.38c1.25,-0.8 2.693,-1.2 4.331,-1.2c1.266,0 2.273,0.205 3.02,0.616c0.747,0.41 1.321,0.874 1.722,1.392c0.401,0.518 0.712,0.942 0.931,1.274l0.304,-0l-0,-3.033l2.887,-0l0,19.638c0,1.64 -0.378,2.976 -1.133,4.008c-0.756,1.032 -1.769,1.79 -3.039,2.275c-1.271,0.484 -2.683,0.727 -4.236,0.727Zm-0.101,-10.49c1.198,-0 2.211,-0.27 3.039,-0.808c0.827,-0.539 1.456,-1.314 1.887,-2.324c0.43,-1.011 0.645,-2.221 0.645,-3.63c0,-1.375 -0.211,-2.589 -0.633,-3.641c-0.422,-1.053 -1.047,-1.877 -1.874,-2.474c-0.827,-0.596 -1.849,-0.895 -3.064,-0.895c-1.267,0 -2.32,0.315 -3.16,0.945c-0.84,0.63 -1.469,1.475 -1.887,2.535c-0.417,1.061 -0.626,2.238 -0.626,3.53c-0,1.326 0.213,2.496 0.639,3.511c0.426,1.015 1.06,1.811 1.9,2.387c0.84,0.576 1.884,0.864 3.134,0.864Z" style="fill:#919191;fill-rule:nonzero;"/><path d="M668.259,840.806l2.989,-0l-0,20.483c-0,1.177 -0.205,2.196 -0.614,3.057c-0.41,0.862 -1.026,1.529 -1.849,2.002c-0.823,0.472 -1.859,0.708 -3.109,0.708l-0.608,-0l0,-2.734l0.558,-0c0.911,-0 1.578,-0.263 2,-0.79c0.422,-0.526 0.633,-1.274 0.633,-2.243l0,-20.483Zm1.469,-3.182c-0.582,0 -1.082,-0.195 -1.5,-0.584c-0.418,-0.389 -0.627,-0.858 -0.627,-1.404c0,-0.547 0.209,-1.016 0.627,-1.405c0.418,-0.389 0.918,-0.584 1.5,-0.584c0.583,-0 1.083,0.195 1.501,0.584c0.418,0.389 0.627,0.858 0.627,1.405c-0,0.546 -0.209,1.015 -0.627,1.404c-0.418,0.389 -0.918,0.584 -1.501,0.584Z" style="fill:#919191;fill-rule:nonzero;"/><path d="M682.442,860.344c-1.233,0 -2.351,-0.23 -3.356,-0.689c-1.004,-0.46 -1.802,-1.127 -2.393,-2.002c-0.591,-0.874 -0.886,-1.932 -0.886,-3.175c-0,-1.094 0.219,-1.983 0.658,-2.666c0.439,-0.684 1.026,-1.22 1.76,-1.61c0.735,-0.389 1.547,-0.681 2.438,-0.876c0.89,-0.195 1.787,-0.35 2.691,-0.466c1.182,-0.149 2.142,-0.263 2.88,-0.342c0.739,-0.079 1.279,-0.213 1.621,-0.404c0.342,-0.19 0.513,-0.522 0.513,-0.994l0,-0.1c0,-1.226 -0.34,-2.179 -1.019,-2.858c-0.68,-0.68 -1.708,-1.019 -3.084,-1.019c-1.426,-0 -2.545,0.306 -3.355,0.919c-0.811,0.614 -1.381,1.268 -1.71,1.964l-2.836,-0.994c0.506,-1.16 1.184,-2.065 2.032,-2.716c0.849,-0.65 1.777,-1.106 2.786,-1.367c1.009,-0.261 2.003,-0.392 2.982,-0.392c0.625,0 1.344,0.073 2.159,0.218c0.815,0.145 1.604,0.441 2.368,0.889c0.764,0.447 1.399,1.122 1.906,2.025c0.506,0.904 0.76,2.113 0.76,3.63l-0,12.578l-2.989,-0l0,-2.585l-0.152,-0c-0.202,0.414 -0.54,0.857 -1.013,1.33c-0.473,0.472 -1.101,0.874 -1.887,1.205c-0.785,0.332 -1.743,0.497 -2.874,0.497Zm0.456,-2.635c1.182,0 2.18,-0.227 2.995,-0.683c0.814,-0.456 1.43,-1.044 1.848,-1.765c0.418,-0.721 0.627,-1.479 0.627,-2.275l0,-2.684c-0.126,0.149 -0.403,0.284 -0.829,0.404c-0.427,0.12 -0.916,0.223 -1.469,0.31c-0.553,0.087 -1.089,0.162 -1.608,0.224c-0.52,0.062 -0.939,0.114 -1.26,0.155c-0.777,0.1 -1.501,0.259 -2.172,0.479c-0.671,0.22 -1.211,0.547 -1.621,0.982c-0.409,0.435 -0.614,1.025 -0.614,1.771c0,1.019 0.386,1.788 1.159,2.306c0.772,0.517 1.753,0.776 2.944,0.776Z" style="fill:#919191;fill-rule:nonzero;"/><path d="M699.815,848.413l0,11.484l-2.988,-0l-0,-19.091l2.887,-0l0,2.983l0.253,-0c0.456,-0.97 1.148,-1.75 2.077,-2.343c0.929,-0.592 2.127,-0.889 3.596,-0.889c1.317,0 2.47,0.263 3.457,0.79c0.988,0.526 1.756,1.321 2.305,2.386c0.549,1.065 0.823,2.409 0.823,4.033l0,12.131l-2.988,-0l-0,-11.932c-0,-1.5 -0.397,-2.67 -1.191,-3.511c-0.793,-0.841 -1.882,-1.262 -3.267,-1.262c-0.954,0 -1.804,0.203 -2.551,0.609c-0.747,0.406 -1.336,0.999 -1.767,1.778c-0.43,0.779 -0.646,1.723 -0.646,2.834Z" style="fill:#919191;fill-rule:nonzero;"/><path d="M725.85,860.295c-1.874,-0 -3.488,-0.408 -4.843,-1.225c-1.355,-0.816 -2.398,-1.959 -3.128,-3.43c-0.73,-1.471 -1.095,-3.184 -1.095,-5.139c-0,-1.956 0.365,-3.681 1.095,-5.177c0.73,-1.496 1.752,-2.664 3.064,-3.505c1.313,-0.841 2.848,-1.262 4.603,-1.262c1.013,0 2.014,0.166 3.002,0.498c0.987,0.331 1.886,0.868 2.697,1.609c0.81,0.742 1.456,1.722 1.937,2.94c0.481,1.218 0.722,2.717 0.722,4.499l-0,1.243l-14.993,-0l0,-2.536l11.954,0c-0,-1.077 -0.218,-2.038 -0.652,-2.883c-0.435,-0.845 -1.051,-1.512 -1.849,-2.001c-0.798,-0.489 -1.737,-0.734 -2.818,-0.734c-1.19,0 -2.218,0.288 -3.083,0.864c-0.865,0.576 -1.53,1.324 -1.994,2.244c-0.465,0.919 -0.697,1.905 -0.697,2.958l0,1.69c0,1.442 0.256,2.662 0.766,3.66c0.511,0.999 1.222,1.757 2.134,2.275c0.912,0.518 1.971,0.777 3.178,0.777c0.785,-0 1.497,-0.11 2.134,-0.33c0.637,-0.219 1.188,-0.551 1.653,-0.994c0.464,-0.443 0.823,-0.996 1.076,-1.659l2.887,0.795c-0.304,0.961 -0.815,1.804 -1.532,2.529c-0.718,0.725 -1.604,1.289 -2.659,1.691c-1.056,0.402 -2.242,0.603 -3.559,0.603Z" style="fill:#919191;fill-rule:nonzero;"/><path d="M740.641,860.096c-0.625,-0 -1.161,-0.22 -1.609,-0.659c-0.447,-0.439 -0.671,-0.965 -0.671,-1.578c0,-0.614 0.224,-1.14 0.671,-1.579c0.448,-0.439 0.984,-0.659 1.609,-0.659c0.624,0 1.16,0.22 1.608,0.659c0.447,0.439 0.671,0.965 0.671,1.579c-0,0.406 -0.103,0.778 -0.31,1.118c-0.207,0.34 -0.481,0.611 -0.823,0.814c-0.342,0.203 -0.724,0.305 -1.146,0.305Z" style="fill:#919191;fill-rule:nonzero;"/><path d="M755.633,860.295c-1.62,-0 -3.051,-0.404 -4.292,-1.212c-1.241,-0.808 -2.212,-1.952 -2.913,-3.431c-0.7,-1.479 -1.051,-3.229 -1.051,-5.251c0,-2.005 0.351,-3.745 1.051,-5.22c0.701,-1.475 1.676,-2.614 2.925,-3.418c1.25,-0.804 2.693,-1.206 4.331,-1.206c1.266,0 2.269,0.205 3.008,0.616c0.738,0.41 1.304,0.874 1.696,1.392c0.393,0.518 0.699,0.942 0.918,1.274l0.254,-0l-0,-9.397l2.988,0l0,25.455l-2.887,-0l0,-2.933l-0.355,-0c-0.219,0.348 -0.531,0.785 -0.937,1.311c-0.405,0.526 -0.983,0.994 -1.734,1.404c-0.752,0.411 -1.752,0.616 -3.002,0.616Zm0.406,-2.635c1.198,-0 2.211,-0.309 3.039,-0.926c0.827,-0.618 1.456,-1.475 1.887,-2.573c0.43,-1.098 0.645,-2.368 0.645,-3.81c0,-1.425 -0.211,-2.674 -0.633,-3.747c-0.422,-1.073 -1.047,-1.91 -1.874,-2.511c-0.827,-0.6 -1.849,-0.901 -3.064,-0.901c-1.267,0 -2.32,0.317 -3.16,0.951c-0.84,0.634 -1.469,1.492 -1.886,2.573c-0.418,1.081 -0.627,2.293 -0.627,3.635c-0,1.359 0.213,2.592 0.639,3.698c0.427,1.106 1.06,1.985 1.9,2.635c0.84,0.65 1.884,0.976 3.134,0.976Z" style="fill:#919191;fill-rule:nonzero;"/><path d="M778.325,860.295c-1.756,-0 -3.294,-0.411 -4.615,-1.231c-1.321,-0.82 -2.351,-1.968 -3.09,-3.443c-0.739,-1.475 -1.108,-3.198 -1.108,-5.17c0,-1.989 0.369,-3.725 1.108,-5.208c0.739,-1.483 1.769,-2.635 3.09,-3.455c1.321,-0.82 2.859,-1.231 4.615,-1.231c1.756,0 3.295,0.411 4.616,1.231c1.321,0.82 2.351,1.972 3.09,3.455c0.738,1.483 1.108,3.219 1.108,5.208c-0,1.972 -0.37,3.695 -1.108,5.17c-0.739,1.475 -1.769,2.623 -3.09,3.443c-1.321,0.82 -2.86,1.231 -4.616,1.231Zm0,-2.635c1.334,-0 2.432,-0.336 3.293,-1.007c0.861,-0.671 1.498,-1.554 1.912,-2.647c0.413,-1.094 0.62,-2.279 0.62,-3.555c0,-1.276 -0.207,-2.465 -0.62,-3.567c-0.414,-1.102 -1.051,-1.993 -1.912,-2.672c-0.861,-0.68 -1.959,-1.02 -3.293,-1.02c-1.333,0 -2.431,0.34 -3.292,1.02c-0.861,0.679 -1.498,1.57 -1.912,2.672c-0.414,1.102 -0.621,2.291 -0.621,3.567c0,1.276 0.207,2.461 0.621,3.555c0.414,1.093 1.051,1.976 1.912,2.647c0.861,0.671 1.959,1.007 3.292,1.007Z" style="fill:#919191;fill-rule:nonzero;"/><path d="M799.852,860.295c-1.874,-0 -3.488,-0.408 -4.843,-1.225c-1.355,-0.816 -2.398,-1.959 -3.128,-3.43c-0.73,-1.471 -1.095,-3.184 -1.095,-5.139c-0,-1.956 0.365,-3.681 1.095,-5.177c0.73,-1.496 1.752,-2.664 3.064,-3.505c1.313,-0.841 2.847,-1.262 4.603,-1.262c1.013,0 2.014,0.166 3.002,0.498c0.987,0.331 1.886,0.868 2.697,1.609c0.81,0.742 1.456,1.722 1.937,2.94c0.481,1.218 0.722,2.717 0.722,4.499l-0,1.243l-14.993,-0l0,-2.536l11.954,0c-0,-1.077 -0.218,-2.038 -0.652,-2.883c-0.435,-0.845 -1.051,-1.512 -1.849,-2.001c-0.798,-0.489 -1.737,-0.734 -2.818,-0.734c-1.19,0 -2.218,0.288 -3.083,0.864c-0.865,0.576 -1.53,1.324 -1.994,2.244c-0.465,0.919 -0.697,1.905 -0.697,2.958l0,1.69c0,1.442 0.255,2.662 0.766,3.66c0.511,0.999 1.222,1.757 2.134,2.275c0.912,0.518 1.971,0.777 3.178,0.777c0.785,-0 1.497,-0.11 2.134,-0.33c0.637,-0.219 1.188,-0.551 1.653,-0.994c0.464,-0.443 0.823,-0.996 1.076,-1.659l2.887,0.795c-0.304,0.961 -0.815,1.804 -1.532,2.529c-0.718,0.725 -1.604,1.289 -2.659,1.691c-1.056,0.402 -2.242,0.603 -3.559,0.603Z" style="fill:#919191;fill-rule:nonzero;"/><path d="M827.407,866.609c-2.583,-0 -4.867,-0.346 -6.851,-1.038c-1.984,-0.692 -3.651,-1.709 -5.002,-3.052c-1.35,-1.342 -2.372,-2.987 -3.064,-4.934c-0.692,-1.947 -1.038,-4.176 -1.038,-6.687c-0,-2.427 0.352,-4.598 1.057,-6.512c0.705,-1.915 1.73,-3.541 3.077,-4.879c1.346,-1.338 2.984,-2.359 4.913,-3.064c1.929,-0.704 4.114,-1.056 6.553,-1.056c2.372,-0 4.451,0.379 6.237,1.137c1.785,0.758 3.279,1.782 4.482,3.07c1.203,1.289 2.107,2.737 2.71,4.344c0.604,1.608 0.906,3.265 0.906,4.972c-0,1.201 -0.059,2.419 -0.178,3.654c-0.118,1.234 -0.367,2.368 -0.747,3.399c-0.38,1.032 -0.964,1.862 -1.754,2.492c-0.789,0.63 -1.855,0.945 -3.197,0.945c-0.591,-0 -1.241,-0.091 -1.95,-0.274c-0.709,-0.182 -1.338,-0.484 -1.887,-0.907c-0.549,-0.423 -0.874,-0.99 -0.975,-1.703l-0.152,0c-0.202,0.481 -0.513,0.937 -0.931,1.367c-0.417,0.431 -0.962,0.775 -1.633,1.032c-0.671,0.257 -1.488,0.369 -2.45,0.336c-1.098,-0.042 -2.064,-0.284 -2.9,-0.728c-0.836,-0.443 -1.534,-1.048 -2.096,-1.814c-0.561,-0.767 -0.983,-1.657 -1.266,-2.672c-0.283,-1.015 -0.424,-2.111 -0.424,-3.288c-0,-1.118 0.169,-2.142 0.506,-3.07c0.338,-0.928 0.808,-1.74 1.412,-2.436c0.604,-0.696 1.313,-1.253 2.127,-1.672c0.815,-0.418 1.695,-0.677 2.641,-0.776c0.844,-0.083 1.612,-0.048 2.304,0.105c0.693,0.154 1.262,0.381 1.71,0.684c0.447,0.302 0.73,0.636 0.848,1l0.152,0l0,-1.392l2.685,0l-0,11.236c-0,0.696 0.198,1.309 0.595,1.84c0.397,0.53 0.975,0.795 1.735,0.795c0.861,0 1.521,-0.29 1.981,-0.87c0.461,-0.58 0.777,-1.475 0.95,-2.685c0.173,-1.209 0.26,-2.759 0.26,-4.648c-0,-1.11 -0.154,-2.206 -0.462,-3.288c-0.309,-1.081 -0.773,-2.094 -1.393,-3.038c-0.621,-0.945 -1.404,-1.778 -2.349,-2.499c-0.946,-0.721 -2.054,-1.286 -3.324,-1.696c-1.271,-0.41 -2.712,-0.615 -4.325,-0.615c-1.984,-0 -3.759,0.3 -5.324,0.901c-1.566,0.6 -2.896,1.475 -3.989,2.622c-1.094,1.148 -1.925,2.54 -2.495,4.176c-0.57,1.637 -0.855,3.495 -0.855,5.575c0,2.113 0.285,3.989 0.855,5.63c0.57,1.641 1.414,3.024 2.533,4.151c1.118,1.127 2.505,1.983 4.159,2.567c1.655,0.584 3.563,0.876 5.724,0.876c0.929,0 1.845,-0.087 2.748,-0.261c0.903,-0.174 1.701,-0.364 2.393,-0.572c0.692,-0.207 1.191,-0.36 1.494,-0.459l0.71,2.286c-0.524,0.216 -1.206,0.431 -2.045,0.647c-0.84,0.215 -1.735,0.393 -2.685,0.534c-0.95,0.141 -1.855,0.212 -2.716,0.212Zm-1.469,-9.894c1.131,0 2.047,-0.224 2.748,-0.671c0.7,-0.448 1.211,-1.123 1.532,-2.026c0.321,-0.903 0.481,-2.043 0.481,-3.418c0,-1.392 -0.177,-2.478 -0.532,-3.256c-0.354,-0.779 -0.878,-1.326 -1.57,-1.641c-0.692,-0.315 -1.545,-0.472 -2.558,-0.472c-0.962,-0 -1.783,0.246 -2.463,0.739c-0.679,0.493 -1.198,1.148 -1.557,1.964c-0.359,0.816 -0.538,1.705 -0.538,2.666c-0,1.061 0.143,2.057 0.43,2.989c0.287,0.932 0.756,1.686 1.406,2.262c0.65,0.576 1.523,0.864 2.621,0.864Z" style="fill:#919191;fill-rule:nonzero;"/><path d="M853.695,867.454c-1.444,-0 -2.685,-0.181 -3.723,-0.541c-1.038,-0.36 -1.901,-0.833 -2.589,-1.417c-0.689,-0.584 -1.235,-1.208 -1.64,-1.87l2.38,-1.641c0.27,0.348 0.612,0.748 1.026,1.199c0.414,0.452 0.981,0.846 1.703,1.181c0.722,0.336 1.67,0.503 2.843,0.503c1.57,0 2.866,-0.372 3.887,-1.118c1.022,-0.746 1.533,-1.914 1.533,-3.505l-0,-3.878l-0.254,0c-0.219,0.348 -0.529,0.777 -0.93,1.286c-0.401,0.51 -0.975,0.962 -1.722,1.355c-0.748,0.394 -1.754,0.591 -3.021,0.591c-1.57,-0 -2.977,-0.365 -4.223,-1.094c-1.245,-0.729 -2.228,-1.79 -2.95,-3.182c-0.722,-1.392 -1.083,-3.082 -1.083,-5.071c0,-1.956 0.351,-3.66 1.051,-5.115c0.701,-1.454 1.676,-2.581 2.925,-3.38c1.25,-0.8 2.693,-1.2 4.331,-1.2c1.266,0 2.273,0.205 3.02,0.616c0.747,0.41 1.321,0.874 1.722,1.392c0.401,0.518 0.712,0.942 0.931,1.274l0.304,-0l-0,-3.033l2.887,-0l0,19.638c0,1.64 -0.378,2.976 -1.133,4.008c-0.756,1.032 -1.769,1.79 -3.039,2.275c-1.271,0.484 -2.683,0.727 -4.236,0.727Zm-0.101,-10.49c1.198,-0 2.211,-0.27 3.039,-0.808c0.827,-0.539 1.456,-1.314 1.887,-2.324c0.43,-1.011 0.645,-2.221 0.645,-3.63c0,-1.375 -0.211,-2.589 -0.633,-3.641c-0.422,-1.053 -1.047,-1.877 -1.874,-2.474c-0.827,-0.596 -1.849,-0.895 -3.064,-0.895c-1.267,0 -2.32,0.315 -3.16,0.945c-0.84,0.63 -1.469,1.475 -1.887,2.535c-0.417,1.061 -0.626,2.238 -0.626,3.53c-0,1.326 0.213,2.496 0.639,3.511c0.426,1.015 1.06,1.811 1.9,2.387c0.84,0.576 1.884,0.864 3.134,0.864Z" style="fill:#919191;fill-rule:nonzero;"/><path d="M867.573,859.897l0,-19.091l2.888,-0l-0,2.983l0.253,-0c0.405,-1.019 1.059,-1.813 1.963,-2.38c0.903,-0.568 1.988,-0.852 3.254,-0.852c1.283,0 2.353,0.284 3.21,0.852c0.857,0.567 1.526,1.361 2.007,2.38l0.203,-0c0.498,-0.986 1.245,-1.771 2.241,-2.355c0.996,-0.585 2.191,-0.877 3.584,-0.877c1.739,0 3.161,0.533 4.267,1.598c1.106,1.064 1.659,2.719 1.659,4.965l-0,12.777l-2.989,-0l0,-12.777c0,-1.409 -0.392,-2.415 -1.177,-3.02c-0.785,-0.605 -1.71,-0.908 -2.773,-0.908c-1.368,0 -2.427,0.404 -3.179,1.212c-0.751,0.808 -1.127,1.829 -1.127,3.064l0,12.429l-3.039,-0l0,-13.075c0,-1.086 -0.359,-1.962 -1.076,-2.629c-0.718,-0.667 -1.642,-1.001 -2.773,-1.001c-0.777,0 -1.501,0.203 -2.172,0.609c-0.671,0.406 -1.211,0.968 -1.621,1.684c-0.409,0.717 -0.614,1.544 -0.614,2.48l-0,11.932l-2.989,-0Z" style="fill:#919191;fill-rule:nonzero;"/><path d="M904.296,860.344c-1.233,0 -2.351,-0.23 -3.356,-0.689c-1.004,-0.46 -1.802,-1.127 -2.393,-2.002c-0.591,-0.874 -0.886,-1.932 -0.886,-3.175c-0,-1.094 0.219,-1.983 0.658,-2.666c0.439,-0.684 1.026,-1.22 1.76,-1.61c0.735,-0.389 1.547,-0.681 2.438,-0.876c0.89,-0.195 1.787,-0.35 2.691,-0.466c1.181,-0.149 2.142,-0.263 2.88,-0.342c0.739,-0.079 1.279,-0.213 1.621,-0.404c0.342,-0.19 0.513,-0.522 0.513,-0.994l0,-0.1c0,-1.226 -0.34,-2.179 -1.019,-2.858c-0.68,-0.68 -1.708,-1.019 -3.084,-1.019c-1.426,-0 -2.545,0.306 -3.355,0.919c-0.811,0.614 -1.381,1.268 -1.71,1.964l-2.836,-0.994c0.506,-1.16 1.184,-2.065 2.032,-2.716c0.849,-0.65 1.777,-1.106 2.786,-1.367c1.009,-0.261 2.003,-0.392 2.982,-0.392c0.625,0 1.344,0.073 2.159,0.218c0.815,0.145 1.604,0.441 2.368,0.889c0.764,0.447 1.399,1.122 1.906,2.025c0.506,0.904 0.76,2.113 0.76,3.63l-0,12.578l-2.989,-0l0,-2.585l-0.152,-0c-0.202,0.414 -0.54,0.857 -1.013,1.33c-0.473,0.472 -1.102,0.874 -1.887,1.205c-0.785,0.332 -1.743,0.497 -2.874,0.497Zm0.456,-2.635c1.182,0 2.18,-0.227 2.995,-0.683c0.814,-0.456 1.43,-1.044 1.848,-1.765c0.418,-0.721 0.627,-1.479 0.627,-2.275l0,-2.684c-0.127,0.149 -0.403,0.284 -0.829,0.404c-0.427,0.12 -0.916,0.223 -1.469,0.31c-0.553,0.087 -1.089,0.162 -1.608,0.224c-0.52,0.062 -0.94,0.114 -1.26,0.155c-0.777,0.1 -1.501,0.259 -2.172,0.479c-0.671,0.22 -1.211,0.547 -1.621,0.982c-0.409,0.435 -0.614,1.025 -0.614,1.771c-0,1.019 0.386,1.788 1.159,2.306c0.772,0.517 1.753,0.776 2.944,0.776Z" style="fill:#919191;fill-rule:nonzero;"/><path d="M918.681,859.897l-0,-19.091l2.988,-0l0,19.091l-2.988,-0Zm1.519,-22.273c-0.582,0 -1.082,-0.195 -1.5,-0.584c-0.418,-0.389 -0.627,-0.858 -0.627,-1.404c0,-0.547 0.209,-1.016 0.627,-1.405c0.418,-0.389 0.918,-0.584 1.5,-0.584c0.583,-0 1.083,0.195 1.501,0.584c0.418,0.389 0.627,0.858 0.627,1.405c-0,0.546 -0.209,1.015 -0.627,1.404c-0.418,0.389 -0.918,0.584 -1.501,0.584Z" style="fill:#919191;fill-rule:nonzero;"/><rect x="927.14" y="834.442" width="2.988" height="25.455" style="fill:#919191;fill-rule:nonzero;"/><path d="M937.777,860.096c-0.625,-0 -1.161,-0.22 -1.609,-0.659c-0.447,-0.439 -0.671,-0.965 -0.671,-1.578c0,-0.614 0.224,-1.14 0.671,-1.579c0.448,-0.439 0.984,-0.659 1.609,-0.659c0.624,0 1.16,0.22 1.608,0.659c0.447,0.439 0.671,0.965 0.671,1.579c-0,0.406 -0.104,0.778 -0.31,1.118c-0.207,0.34 -0.482,0.611 -0.823,0.814c-0.342,0.203 -0.724,0.305 -1.146,0.305Z" style="fill:#919191;fill-rule:nonzero;"/><path d="M953.327,860.295c-1.824,-0 -3.394,-0.423 -4.711,-1.268c-1.317,-0.845 -2.33,-2.01 -3.039,-3.493c-0.709,-1.483 -1.064,-3.177 -1.064,-5.083c0,-1.939 0.365,-3.652 1.096,-5.14c0.73,-1.487 1.751,-2.651 3.064,-3.492c1.313,-0.841 2.847,-1.262 4.603,-1.262c1.368,0 2.6,0.249 3.698,0.746c1.097,0.497 1.996,1.193 2.697,2.088c0.7,0.895 1.135,1.939 1.304,3.132l-2.988,0c-0.228,-0.87 -0.733,-1.642 -1.514,-2.318c-0.781,-0.675 -1.829,-1.013 -3.146,-1.013c-1.165,0 -2.185,0.297 -3.058,0.889c-0.874,0.592 -1.554,1.425 -2.039,2.498c-0.486,1.073 -0.728,2.331 -0.728,3.772c-0,1.475 0.238,2.76 0.715,3.853c0.477,1.094 1.152,1.943 2.026,2.548c0.874,0.605 1.902,0.908 3.084,0.908c0.776,-0 1.481,-0.133 2.114,-0.398c0.633,-0.265 1.17,-0.646 1.609,-1.144c0.439,-0.497 0.751,-1.093 0.937,-1.789l2.988,-0c-0.169,1.127 -0.585,2.14 -1.247,3.039c-0.663,0.899 -1.537,1.611 -2.621,2.137c-1.085,0.527 -2.345,0.79 -3.78,0.79Z" style="fill:#919191;fill-rule:nonzero;"/><path d="M973.233,860.295c-1.756,-0 -3.295,-0.411 -4.616,-1.231c-1.321,-0.82 -2.351,-1.968 -3.09,-3.443c-0.738,-1.475 -1.108,-3.198 -1.108,-5.17c0,-1.989 0.37,-3.725 1.108,-5.208c0.739,-1.483 1.769,-2.635 3.09,-3.455c1.321,-0.82 2.86,-1.231 4.616,-1.231c1.756,0 3.294,0.411 4.615,1.231c1.321,0.82 2.351,1.972 3.09,3.455c0.739,1.483 1.108,3.219 1.108,5.208c0,1.972 -0.369,3.695 -1.108,5.17c-0.739,1.475 -1.769,2.623 -3.09,3.443c-1.321,0.82 -2.859,1.231 -4.615,1.231Zm-0,-2.635c1.334,-0 2.431,-0.336 3.292,-1.007c0.861,-0.671 1.498,-1.554 1.912,-2.647c0.414,-1.094 0.621,-2.279 0.621,-3.555c-0,-1.276 -0.207,-2.465 -0.621,-3.567c-0.414,-1.102 -1.051,-1.993 -1.912,-2.672c-0.861,-0.68 -1.958,-1.02 -3.292,-1.02c-1.334,0 -2.432,0.34 -3.293,1.02c-0.861,0.679 -1.498,1.57 -1.912,2.672c-0.413,1.102 -0.62,2.291 -0.62,3.567c-0,1.276 0.207,2.461 0.62,3.555c0.414,1.093 1.051,1.976 1.912,2.647c0.861,0.671 1.959,1.007 3.293,1.007Z" style="fill:#919191;fill-rule:nonzero;"/><path d="M986.605,859.897l-0,-19.091l2.887,-0l-0,2.983l0.253,-0c0.405,-1.019 1.06,-1.813 1.963,-2.38c0.903,-0.568 1.988,-0.852 3.254,-0.852c1.283,0 2.353,0.284 3.21,0.852c0.857,0.567 1.526,1.361 2.007,2.38l0.203,-0c0.498,-0.986 1.245,-1.771 2.241,-2.355c0.996,-0.585 2.191,-0.877 3.584,-0.877c1.739,0 3.161,0.533 4.267,1.598c1.106,1.064 1.659,2.719 1.659,4.965l0,12.777l-2.988,-0l-0,-12.777c-0,-1.409 -0.393,-2.415 -1.178,-3.02c-0.785,-0.605 -1.709,-0.908 -2.773,-0.908c-1.368,0 -2.427,0.404 -3.179,1.212c-0.751,0.808 -1.127,1.829 -1.127,3.064l0,12.429l-3.039,-0l0,-13.075c0,-1.086 -0.358,-1.962 -1.076,-2.629c-0.718,-0.667 -1.642,-1.001 -2.773,-1.001c-0.777,0 -1.501,0.203 -2.172,0.609c-0.671,0.406 -1.211,0.968 -1.621,1.684c-0.409,0.717 -0.614,1.544 -0.614,2.48l0,11.932l-2.988,-0Z" style="fill:#919191;fill-rule:nonzero;"/></g></g></svg>