<?xml version="1.0" encoding="UTF-8" standalone="no"?><!DOCTYPE svg PUBLIC "-//W3C//DTD SVG 1.1//EN" "http://www.w3.org/Graphics/SVG/1.1/DTD/svg11.dtd"><svg width="100%" height="100%" viewBox="0 0 1749 1241" version="1.1" xmlns="http://www.w3.org/2000/svg" xmlns:xlink="http://www.w3.org/1999/xlink" xml:space="preserve" xmlns:serif="http://www.serif.com/" style="fill-rule:evenodd;clip-rule:evenodd;stroke-linecap:round;stroke-linejoin:round;stroke-miterlimit:1.5;"><rect id="Artboard2" x="0" y="0" width="1748.03" height="1240.16" style="fill:none;"/><clipPath id="_clip1"><rect id="Artboard21" serif:id="Artboard2" x="0" y="0" width="1748.03" height="1240.16"/></clipPath><g clip-path="url(#_clip1)"><rect id="Artboard1" x="0" y="0" width="1748.03" height="1240.16" style="fill:none;"/><g><g><rect x="0" y="0" width="1748.03" height="1240.16" style="fill:#ada7ff;"/><g><path d="M1289.95,243.326c0,-69.179 -56.165,-125.345 -125.345,-125.345l-581.182,0c-69.179,0 -125.344,56.166 -125.344,125.345l0,1006.12c0,69.18 56.165,125.345 125.344,125.345l581.182,0c69.18,0 125.345,-56.165 125.345,-125.345l0,-1006.12Z" style="fill:#f8f9fa;stroke:#212529;stroke-width:25px;"/></g><g><g><text x="687.793px" y="279.398px" style="font-family:'Inter-Regular_Bold', 'Inter', sans-serif;font-size:100px;fill:#212529;">Sign Up</text></g></g><g><g><text x="571.633px" y="555.499px" style="font-family:'Inter-Regular_Bold', 'Inter', sans-serif;font-size:50px;">Name</text></g><path d="M1088.34,608.13c-0,-14.387 -11.681,-26.068 -26.068,-26.068l-462.611,0c-14.387,0 -26.068,11.681 -26.068,26.068l-0,52.136c-0,14.388 11.681,26.069 26.068,26.069l462.611,0c14.387,0 26.068,-11.681 26.068,-26.069l-0,-52.136Z" style="fill:#fff;stroke:#212529;stroke-width:12.5px;"/></g><text x="570.425px" y="775.109px" style="font-family:'Inter-Regular_Bold', 'Inter', sans-serif;font-size:50px;">Email</text><path d="M1090.61,824.482c-0,-14.388 -11.681,-26.068 -26.068,-26.068l-462.611,0c-14.387,0 -26.068,11.68 -26.068,26.068l-0,52.136c-0,14.387 11.681,26.068 26.068,26.068l462.611,0c14.387,0 26.068,-11.681 26.068,-26.068l-0,-52.136Z" style="fill:#fff;stroke:#212529;stroke-width:12.5px;"/><text x="570.425px" y="989.201px" style="font-family:'Inter-Regular_Bold', 'Inter', sans-serif;font-size:50px;">Phone</text><path d="M1090.61,1038.58c-0,-14.388 -11.681,-26.068 -26.068,-26.068l-462.611,-0c-14.387,-0 -26.068,11.68 -26.068,26.068l-0,52.136c-0,14.387 11.681,26.068 26.068,26.068l462.611,-0c14.387,-0 26.068,-11.681 26.068,-26.068l-0,-52.136Z" style="fill:#fff;stroke:#212529;stroke-width:12.5px;"/></g><g transform="matrix(1,0,0,0.981527,0,8.02953)"><text x="569.394px" y="434.667px" style="font-family:'Inter-Regular_Bold', 'Inter', sans-serif;font-size:66.267px;fill:#212529;">I. Contact Details</text></g><path d="M575.863,448.503l531.946,-0" style="fill:#212529;stroke:#212529;stroke-width:7px;"/><g transform="matrix(1,0,0,0.981527,0,11.9332)"><text x="604.226px" y="645.987px" style="font-family:'Inter-Regular', 'Inter', sans-serif;font-size:35.659px;fill:#919191;">e.g Jane Doe</text></g><g transform="matrix(1,0,0,0.981527,0,19.8323)"><text x="603.172px" y="1073.59px" style="font-family:'Inter-Regular', 'Inter', sans-serif;font-size:35.659px;fill:#919191;">e.g +1 234 567<tspan x="856.582px " y="1073.59px ">8</tspan></text></g><g transform="matrix(1,0,0,0.981527,0,15.8847)"><text x="603.172px" y="859.897px" style="font-family:'Inter-Regular', 'Inter', sans-serif;font-size:35.659px;fill:#919191;">e.g jane.doe@gmail.com</text></g></g></g></svg>