<?xml version="1.0" encoding="UTF-8" standalone="no"?><!DOCTYPE svg PUBLIC "-//W3C//DTD SVG 1.1//EN" "http://www.w3.org/Graphics/SVG/1.1/DTD/svg11.dtd"><svg width="100%" height="100%" viewBox="0 0 420 298" version="1.1" xmlns="http://www.w3.org/2000/svg" xmlns:xlink="http://www.w3.org/1999/xlink" xml:space="preserve" xmlns:serif="http://www.serif.com/" style="fill-rule:evenodd;clip-rule:evenodd;stroke-linecap:round;stroke-linejoin:round;stroke-miterlimit:1.5;"><rect id="Artboard1" x="0" y="0" width="419.528" height="297.638" style="fill:none;"/><clipPath id="_clip1"><rect x="0" y="0" width="419.528" height="297.638"/></clipPath><g clip-path="url(#_clip1)"><g><rect x="0" y="0" width="419.528" height="297.639" style="fill:#ada7ff;"/><g><path d="M366.026,57.198c0,-16.603 -20.393,-30.083 -45.512,-30.083l-211.025,0c-25.119,0 -45.512,13.48 -45.512,30.083l-0,241.469c-0,16.604 20.393,30.083 45.512,30.083l211.025,0c25.119,0 45.512,-13.479 45.512,-30.083l0,-241.469Z" style="fill:#f8f9fa;stroke:#212529;stroke-width:7.69px;"/></g><g><g><g><g><path d="M280.427,126.98c-0,-3.278 -3.208,-5.938 -7.158,-5.938l-127.011,-0c-3.95,-0 -7.157,2.66 -7.157,5.938l0,11.878c0,3.278 3.207,5.939 7.157,5.939l127.011,-0c3.95,-0 7.158,-2.661 7.158,-5.939l-0,-11.878Z" style="fill:#fff;stroke:#212529;stroke-width:3.15px;"/><g transform="matrix(1,0,0,0.981527,-2.84217e-14,2.11074)"><text x="140.636px" y="114.262px" style="font-family:'Inter-Regular_Bold', 'Inter', sans-serif;font-size:13.07px;fill:#212529;">Email</text></g><g transform="matrix(1,0,0,0.981527,2.84217e-14,2.50081)"><text x="144.996px" y="135.378px" style="font-family:'Inter-Regular', 'Inter', sans-serif;font-size:9.38px;fill:#212529;">jane.doe@test.com</text></g></g><g><path d="M280.427,177.193c-0,-3.277 -3.208,-5.938 -7.158,-5.938l-127.011,-0c-3.95,-0 -7.157,2.661 -7.157,5.938l0,11.878c0,3.278 3.207,5.939 7.157,5.939l127.011,-0c3.95,-0 7.158,-2.661 7.158,-5.939l-0,-11.878Z" style="fill:#fff;stroke:#212529;stroke-width:3.15px;"/><g transform="matrix(1,0,0,0.981527,-2.84217e-14,3.05478)"><text x="140.636px" y="165.366px" style="font-family:'Inter-Regular_Bold', 'Inter', sans-serif;font-size:13.07px;fill:#212529;">Passw<tspan x="180.347px 188.145px 192.786px " y="165.366px 165.366px 165.366px ">ord</tspan></text></g><g transform="matrix(1,0,0,0.981527,0,3.46726)"><text x="145.032px" y="187.695px" style="font-family:'Inter-Regular', 'Inter', sans-serif;font-size:8.67px;fill:#212529;">*********</text></g></g></g></g></g><g><g><g transform="matrix(1,0,0,0.963182,-2.84217e-14,2.5319)"><text x="165.119px" y="68.768px" style="font-family:'Inter-Regular_Bold', 'Inter', sans-serif;font-size:27.748px;fill:#212529;">Sign In</text></g></g></g></g><g><g><path d="M280.401,214.187c0,-3.277 -3.206,-5.938 -7.156,-5.938l-126.988,0c-3.95,0 -7.156,2.661 -7.156,5.938l0,11.875c0,3.277 3.206,5.938 7.156,5.938l126.988,0c3.95,0 7.156,-2.661 7.156,-5.938l0,-11.875Z" style="fill:#76f5c0;stroke:#212529;stroke-width:3.15px;"/><g><g><path d="M194.152,218.484c-0.039,-0.343 -0.193,-0.604 -0.475,-0.793c-0.283,-0.19 -0.655,-0.285 -1.118,-0.285c-0.334,0 -0.603,0.048 -0.822,0.131c-0.231,0.083 -0.398,0.201 -0.513,0.343c-0.116,0.142 -0.167,0.308 -0.18,0.498c-0,0.154 0.038,0.284 0.115,0.402c0.077,0.119 0.18,0.213 0.322,0.296c0.141,0.083 0.295,0.154 0.475,0.214c0.18,0.059 0.372,0.106 0.578,0.154l0.835,0.177c0.411,0.095 0.783,0.202 1.117,0.344c0.347,0.142 0.642,0.308 0.886,0.521c0.257,0.201 0.45,0.438 0.591,0.722c0.128,0.273 0.206,0.593 0.206,0.948c-0,0.533 -0.142,0.983 -0.437,1.374c-0.283,0.379 -0.694,0.687 -1.233,0.888c-0.54,0.213 -1.195,0.32 -1.952,0.32c-0.758,-0 -1.413,-0.107 -1.978,-0.32c-0.553,-0.213 -0.989,-0.521 -1.298,-0.947c-0.308,-0.415 -0.475,-0.936 -0.488,-1.552l1.914,0c0.013,0.284 0.103,0.521 0.27,0.711c0.154,0.201 0.372,0.343 0.642,0.438c0.27,0.095 0.565,0.142 0.912,0.142c0.334,0 0.629,-0.047 0.873,-0.13c0.244,-0.095 0.437,-0.213 0.578,-0.379c0.129,-0.154 0.206,-0.344 0.206,-0.545c-0,-0.201 -0.065,-0.355 -0.193,-0.486c-0.116,-0.142 -0.295,-0.248 -0.539,-0.343c-0.232,-0.095 -0.514,-0.178 -0.861,-0.249l-1.015,-0.237c-0.783,-0.177 -1.412,-0.45 -1.862,-0.829c-0.462,-0.379 -0.681,-0.876 -0.681,-1.516c0,-0.521 0.154,-0.983 0.45,-1.362c0.308,-0.391 0.732,-0.699 1.271,-0.924c0.527,-0.213 1.144,-0.32 1.824,-0.32c0.694,0 1.297,0.107 1.811,0.32c0.514,0.225 0.925,0.533 1.208,0.924c0.295,0.391 0.436,0.841 0.449,1.35l-1.888,0Z" style="fill:#212529;fill-rule:nonzero;"/></g><g><path d="M201.727,221.872l0,-3.708l1.94,0l-0,6.456l-1.863,-0l0,-1.173l-0.064,-0c-0.167,0.379 -0.424,0.687 -0.796,0.912c-0.36,0.225 -0.81,0.343 -1.336,0.343c-0.463,0 -0.874,-0.094 -1.233,-0.296c-0.36,-0.189 -0.642,-0.473 -0.835,-0.829c-0.205,-0.367 -0.295,-0.805 -0.295,-1.303l-0,-4.11l1.939,0l0,3.791c0,0.379 0.103,0.687 0.334,0.9c0.218,0.225 0.514,0.331 0.873,0.331c0.232,0 0.45,-0.047 0.655,-0.142c0.206,-0.106 0.373,-0.248 0.501,-0.45c0.129,-0.189 0.18,-0.438 0.18,-0.722Z" style="fill:#212529;fill-rule:nonzero;"/></g><g><path d="M204.732,224.62l0,-8.611l1.94,-0l-0,3.233l0.064,0c0.09,-0.177 0.205,-0.355 0.372,-0.533c0.167,-0.177 0.373,-0.331 0.642,-0.45c0.257,-0.118 0.591,-0.189 0.977,-0.189c0.513,-0 0.988,0.13 1.412,0.367c0.437,0.249 0.784,0.616 1.041,1.113c0.257,0.486 0.385,1.102 0.385,1.848c-0,0.722 -0.128,1.326 -0.372,1.824c-0.257,0.497 -0.591,0.865 -1.028,1.125c-0.424,0.249 -0.912,0.379 -1.438,0.379c-0.373,0 -0.694,-0.059 -0.964,-0.178c-0.257,-0.118 -0.475,-0.26 -0.642,-0.438c-0.167,-0.166 -0.295,-0.343 -0.385,-0.521l-0.09,0l-0,1.031l-1.914,-0Zm1.901,-3.234c-0,0.391 0.064,0.723 0.18,1.007c0.115,0.284 0.282,0.509 0.501,0.663c0.218,0.166 0.488,0.237 0.796,0.237c0.321,-0 0.591,-0.071 0.809,-0.237c0.219,-0.166 0.385,-0.391 0.488,-0.675c0.116,-0.284 0.18,-0.616 0.18,-0.995c0,-0.367 -0.064,-0.699 -0.167,-0.983c-0.116,-0.284 -0.282,-0.509 -0.501,-0.663c-0.218,-0.154 -0.488,-0.237 -0.809,-0.237c-0.321,-0 -0.578,0.071 -0.796,0.225c-0.219,0.166 -0.386,0.379 -0.501,0.663c-0.116,0.284 -0.18,0.616 -0.18,0.995Z" style="fill:#212529;fill-rule:nonzero;"/></g><g><path d="M212.679,224.62l0,-6.456l1.85,0l-0,1.137l0.077,0c0.141,-0.379 0.385,-0.687 0.732,-0.9c0.334,-0.213 0.745,-0.331 1.22,-0.331c0.475,-0 0.886,0.118 1.233,0.331c0.334,0.225 0.552,0.521 0.668,0.9l0.077,0c0.141,-0.367 0.398,-0.675 0.77,-0.888c0.373,-0.225 0.822,-0.343 1.336,-0.343c0.655,-0 1.182,0.201 1.593,0.58c0.411,0.379 0.616,0.924 0.616,1.623l0,4.347l-1.939,-0l-0,-3.992c-0,-0.355 -0.103,-0.628 -0.308,-0.805c-0.206,-0.178 -0.463,-0.273 -0.771,-0.273c-0.36,0 -0.629,0.107 -0.835,0.308c-0.192,0.213 -0.295,0.486 -0.295,0.817l-0,3.945l-1.875,-0l-0,-4.028c-0,-0.319 -0.103,-0.568 -0.296,-0.758c-0.205,-0.189 -0.462,-0.284 -0.783,-0.284c-0.219,0 -0.411,0.048 -0.578,0.154c-0.167,0.095 -0.309,0.237 -0.411,0.415c-0.09,0.177 -0.142,0.391 -0.142,0.627l0,3.874l-1.939,-0Z" style="fill:#212529;fill-rule:nonzero;"/></g><g><path d="M223.831,224.62l0,-6.456l1.953,0l-0,6.456l-1.953,-0Zm0.989,-7.297c-0.295,0 -0.539,-0.082 -0.745,-0.26c-0.205,-0.178 -0.308,-0.391 -0.308,-0.64c0,-0.248 0.103,-0.462 0.308,-0.639c0.206,-0.178 0.45,-0.273 0.733,-0.273c0.295,0 0.539,0.095 0.745,0.273c0.205,0.177 0.308,0.391 0.308,0.639c-0,0.249 -0.103,0.462 -0.308,0.64c-0.206,0.178 -0.45,0.26 -0.733,0.26Z" style="fill:#212529;fill-rule:nonzero;"/></g><g><path d="M230.616,218.164l-0,1.339l-4.226,-0l0,-1.339l4.226,0Zm-3.263,-1.551l1.94,-0l-0,6.017c-0,0.166 0.026,0.296 0.077,0.391c0.064,0.094 0.141,0.154 0.231,0.189c0.103,0.036 0.218,0.059 0.347,0.059c0.09,0 0.18,-0.012 0.27,-0.023c0.102,-0.024 0.167,-0.036 0.218,-0.036l0.308,1.327c-0.103,0.035 -0.244,0.071 -0.411,0.106c-0.18,0.036 -0.398,0.059 -0.655,0.071c-0.462,0.012 -0.873,-0.047 -1.22,-0.177c-0.36,-0.131 -0.629,-0.332 -0.822,-0.616c-0.193,-0.273 -0.295,-0.628 -0.283,-1.054l0,-6.254Z" style="fill:#212529;fill-rule:nonzero;"/></g></g></g></g><g><g><path d="M122.06,253.133l-1.751,0l2.663,-7.571l2.101,0l2.663,7.571l-1.75,0l-1.931,-5.842l-0.064,-0l-1.931,5.842Zm-0.117,-2.978l4.138,-0l0,1.25l-4.138,-0l0,-1.25Z" style="fill:#f85555;fill-rule:nonzero;"/></g><g><path d="M129.478,249.853l-0,3.28l-1.602,0l-0,-5.676l1.528,0l-0,1l0.063,0c0.128,-0.333 0.34,-0.593 0.648,-0.791c0.297,-0.188 0.668,-0.292 1.092,-0.292c0.404,0 0.754,0.094 1.051,0.261c0.297,0.177 0.53,0.427 0.7,0.739c0.159,0.323 0.244,0.698 0.244,1.146l0,3.613l-1.602,0l0,-3.332c0,-0.354 -0.085,-0.625 -0.276,-0.823c-0.18,-0.198 -0.435,-0.292 -0.753,-0.292c-0.212,0 -0.403,0.042 -0.573,0.136c-0.159,0.093 -0.287,0.229 -0.382,0.396c-0.096,0.177 -0.138,0.385 -0.138,0.635Z" style="fill:#f85555;fill-rule:nonzero;"/></g><g><path d="M139.7,253.248c-0.594,-0 -1.103,-0.125 -1.538,-0.365c-0.425,-0.229 -0.754,-0.572 -0.987,-1.01c-0.233,-0.437 -0.35,-0.958 -0.35,-1.552c-0,-0.583 0.117,-1.103 0.35,-1.541c0.233,-0.437 0.562,-0.781 0.976,-1.031c0.425,-0.25 0.913,-0.375 1.486,-0.375c0.382,0 0.742,0.063 1.071,0.188c0.329,0.114 0.616,0.291 0.86,0.531c0.254,0.239 0.445,0.541 0.583,0.906c0.138,0.364 0.202,0.781 0.202,1.26l-0,0.437l-4.881,0l0,-0.979l3.374,0c0,-0.229 -0.053,-0.427 -0.148,-0.604c-0.106,-0.166 -0.244,-0.312 -0.425,-0.406c-0.17,-0.104 -0.382,-0.156 -0.615,-0.156c-0.234,-0 -0.456,0.062 -0.637,0.167c-0.191,0.114 -0.339,0.26 -0.445,0.447c-0.107,0.177 -0.16,0.386 -0.16,0.604l0,0.927c0,0.282 0.053,0.531 0.16,0.729c0.106,0.209 0.254,0.365 0.456,0.479c0.191,0.105 0.424,0.167 0.689,0.167c0.181,0 0.351,-0.031 0.499,-0.073c0.138,-0.052 0.265,-0.125 0.372,-0.229c0.116,-0.094 0.191,-0.219 0.244,-0.354l1.485,0.094c-0.074,0.343 -0.233,0.656 -0.456,0.916c-0.234,0.26 -0.531,0.458 -0.902,0.604c-0.361,0.146 -0.785,0.219 -1.263,0.219Z" style="fill:#f85555;fill-rule:nonzero;"/></g><g><path d="M143.249,253.133l-0,-5.676l1.549,0l-0,0.99l0.063,-0c0.107,-0.354 0.276,-0.625 0.531,-0.802c0.244,-0.177 0.53,-0.271 0.859,-0.271c0.075,0 0.16,0 0.255,0.011c0.096,0.01 0.18,0.02 0.244,0.041l0,1.396c-0.074,-0.021 -0.18,-0.042 -0.308,-0.052c-0.138,-0.021 -0.254,-0.032 -0.371,-0.032c-0.233,0 -0.446,0.053 -0.626,0.157c-0.191,0.093 -0.329,0.229 -0.435,0.406c-0.106,0.177 -0.159,0.385 -0.159,0.614l-0,3.218l-1.602,0Z" style="fill:#f85555;fill-rule:nonzero;"/></g><g><path d="M147.197,253.133l0,-5.676l1.549,0l0,0.99l0.064,-0c0.106,-0.354 0.276,-0.625 0.53,-0.802c0.245,-0.177 0.531,-0.271 0.86,-0.271c0.074,0 0.159,0 0.255,0.011c0.095,0.01 0.18,0.02 0.244,0.041l-0,1.396c-0.075,-0.021 -0.181,-0.042 -0.308,-0.052c-0.138,-0.021 -0.255,-0.032 -0.371,-0.032c-0.234,0 -0.446,0.053 -0.626,0.157c-0.191,0.093 -0.329,0.229 -0.435,0.406c-0.107,0.177 -0.16,0.385 -0.16,0.614l0,3.218l-1.602,0Z" style="fill:#f85555;fill-rule:nonzero;"/></g><g><path d="M153.579,253.248c-0.584,-0 -1.093,-0.125 -1.518,-0.375c-0.424,-0.24 -0.753,-0.583 -0.986,-1.021c-0.234,-0.447 -0.351,-0.958 -0.351,-1.541c0,-0.583 0.117,-1.093 0.351,-1.541c0.233,-0.438 0.562,-0.781 0.986,-1.021c0.425,-0.25 0.934,-0.375 1.518,-0.375c0.583,0 1.092,0.125 1.517,0.375c0.424,0.24 0.753,0.583 0.987,1.021c0.222,0.448 0.339,0.958 0.339,1.541c0,0.583 -0.117,1.094 -0.339,1.541c-0.234,0.438 -0.563,0.781 -0.987,1.021c-0.425,0.25 -0.934,0.375 -1.517,0.375Zm0.01,-1.229c0.265,-0 0.478,-0.073 0.658,-0.219c0.18,-0.146 0.318,-0.354 0.414,-0.614c0.085,-0.261 0.138,-0.552 0.138,-0.885c-0,-0.323 -0.053,-0.625 -0.138,-0.886c-0.096,-0.25 -0.234,-0.458 -0.414,-0.614c-0.18,-0.146 -0.393,-0.219 -0.658,-0.219c-0.276,0 -0.499,0.073 -0.679,0.219c-0.191,0.156 -0.318,0.364 -0.414,0.614c-0.095,0.261 -0.138,0.563 -0.138,0.886c0,0.333 0.043,0.624 0.138,0.885c0.096,0.26 0.223,0.468 0.414,0.614c0.18,0.146 0.403,0.219 0.679,0.219Z" style="fill:#f85555;fill-rule:nonzero;"/></g><g><path d="M157.298,253.133l0,-5.676l1.549,0l0,0.99l0.064,-0c0.106,-0.354 0.276,-0.625 0.53,-0.802c0.245,-0.177 0.531,-0.271 0.86,-0.271c0.074,0 0.159,0 0.255,0.011c0.095,0.01 0.18,0.02 0.244,0.041l-0,1.396c-0.075,-0.021 -0.181,-0.042 -0.308,-0.052c-0.138,-0.021 -0.255,-0.032 -0.371,-0.032c-0.234,0 -0.446,0.053 -0.626,0.157c-0.191,0.093 -0.329,0.229 -0.435,0.406c-0.107,0.177 -0.16,0.385 -0.16,0.614l0,3.218l-1.602,0Z" style="fill:#f85555;fill-rule:nonzero;"/></g><g><path d="M166.841,253.248c-0.583,-0 -1.092,-0.125 -1.517,-0.375c-0.424,-0.24 -0.753,-0.583 -0.987,-1.021c-0.233,-0.447 -0.35,-0.958 -0.35,-1.541c0,-0.583 0.117,-1.093 0.35,-1.541c0.234,-0.438 0.563,-0.781 0.987,-1.021c0.425,-0.25 0.934,-0.375 1.517,-0.375c0.584,0 1.093,0.125 1.518,0.375c0.424,0.24 0.753,0.583 0.986,1.021c0.223,0.448 0.34,0.958 0.34,1.541c-0,0.583 -0.117,1.094 -0.34,1.541c-0.233,0.438 -0.562,0.781 -0.986,1.021c-0.425,0.25 -0.934,0.375 -1.518,0.375Zm0.011,-1.229c0.265,-0 0.478,-0.073 0.658,-0.219c0.18,-0.146 0.318,-0.354 0.414,-0.614c0.085,-0.261 0.138,-0.552 0.138,-0.885c-0,-0.323 -0.053,-0.625 -0.138,-0.886c-0.096,-0.25 -0.234,-0.458 -0.414,-0.614c-0.18,-0.146 -0.393,-0.219 -0.658,-0.219c-0.276,0 -0.499,0.073 -0.679,0.219c-0.191,0.156 -0.318,0.364 -0.414,0.614c-0.095,0.261 -0.138,0.563 -0.138,0.886c0,0.333 0.043,0.624 0.138,0.885c0.096,0.26 0.223,0.468 0.414,0.614c0.18,0.146 0.403,0.219 0.679,0.219Z" style="fill:#f85555;fill-rule:nonzero;"/></g><g><path d="M173.171,253.248c-0.594,-0 -1.103,-0.125 -1.528,-0.375c-0.424,-0.25 -0.753,-0.594 -0.976,-1.031c-0.233,-0.448 -0.35,-0.948 -0.35,-1.531c0,-0.573 0.117,-1.083 0.35,-1.531c0.234,-0.437 0.552,-0.781 0.976,-1.031c0.425,-0.25 0.934,-0.375 1.518,-0.375c0.509,0 0.944,0.094 1.326,0.271c0.382,0.187 0.679,0.437 0.902,0.76c0.223,0.333 0.339,0.708 0.361,1.146l-1.507,-0c-0.043,-0.281 -0.159,-0.511 -0.34,-0.688c-0.18,-0.166 -0.424,-0.26 -0.711,-0.26c-0.254,0 -0.466,0.073 -0.657,0.198c-0.181,0.135 -0.329,0.323 -0.425,0.583c-0.106,0.25 -0.159,0.552 -0.159,0.906c0,0.365 0.053,0.677 0.149,0.927c0.106,0.25 0.254,0.448 0.435,0.583c0.191,0.136 0.403,0.198 0.657,0.198c0.181,0 0.34,-0.042 0.489,-0.114c0.148,-0.073 0.265,-0.177 0.371,-0.323c0.095,-0.136 0.159,-0.313 0.191,-0.511l1.507,0c-0.022,0.438 -0.138,0.813 -0.361,1.146c-0.212,0.333 -0.51,0.583 -0.881,0.771c-0.382,0.187 -0.827,0.281 -1.337,0.281Z" style="fill:#f85555;fill-rule:nonzero;"/></g><g><path d="M179.094,253.248c-0.594,-0 -1.103,-0.125 -1.528,-0.375c-0.424,-0.25 -0.753,-0.594 -0.976,-1.031c-0.233,-0.448 -0.35,-0.948 -0.35,-1.531c-0,-0.573 0.117,-1.083 0.35,-1.531c0.233,-0.437 0.552,-0.781 0.976,-1.031c0.425,-0.25 0.934,-0.375 1.517,-0.375c0.51,0 0.945,0.094 1.327,0.271c0.382,0.187 0.679,0.437 0.902,0.76c0.222,0.333 0.339,0.708 0.36,1.146l-1.506,-0c-0.043,-0.281 -0.159,-0.511 -0.34,-0.688c-0.18,-0.166 -0.424,-0.26 -0.711,-0.26c-0.254,0 -0.467,0.073 -0.658,0.198c-0.18,0.135 -0.328,0.323 -0.424,0.583c-0.106,0.25 -0.159,0.552 -0.159,0.906c-0,0.365 0.053,0.677 0.148,0.927c0.107,0.25 0.255,0.448 0.435,0.583c0.191,0.136 0.404,0.198 0.658,0.198c0.181,0 0.34,-0.042 0.488,-0.114c0.149,-0.073 0.266,-0.177 0.372,-0.323c0.095,-0.136 0.159,-0.313 0.191,-0.511l1.506,0c-0.021,0.438 -0.138,0.813 -0.36,1.146c-0.213,0.333 -0.51,0.583 -0.881,0.771c-0.382,0.187 -0.828,0.281 -1.337,0.281Z" style="fill:#f85555;fill-rule:nonzero;"/></g><g><path d="M186.111,250.717l-0,-3.26l1.602,0l-0,5.676l-1.539,0l0,-1.031l-0.053,0c-0.138,0.334 -0.35,0.604 -0.658,0.802c-0.297,0.198 -0.668,0.302 -1.103,0.302c-0.382,0 -0.722,-0.083 -1.019,-0.26c-0.297,-0.167 -0.53,-0.417 -0.689,-0.729c-0.17,-0.323 -0.244,-0.708 -0.244,-1.146l-0,-3.614l1.602,0l-0,3.333c-0,0.333 0.085,0.604 0.276,0.792c0.18,0.197 0.424,0.291 0.721,0.291c0.191,0 0.371,-0.041 0.541,-0.125c0.17,-0.094 0.308,-0.219 0.414,-0.396c0.106,-0.166 0.149,-0.385 0.149,-0.635Z" style="fill:#f85555;fill-rule:nonzero;"/></g><g><path d="M188.571,253.133l0,-5.676l1.549,0l0,0.99l0.064,-0c0.106,-0.354 0.276,-0.625 0.531,-0.802c0.244,-0.177 0.53,-0.271 0.859,-0.271c0.074,0 0.159,0 0.255,0.011c0.095,0.01 0.18,0.02 0.244,0.041l-0,1.396c-0.075,-0.021 -0.181,-0.042 -0.308,-0.052c-0.138,-0.021 -0.255,-0.032 -0.371,-0.032c-0.234,0 -0.446,0.053 -0.626,0.157c-0.191,0.093 -0.329,0.229 -0.435,0.406c-0.106,0.177 -0.16,0.385 -0.16,0.614l0,3.218l-1.602,0Z" style="fill:#f85555;fill-rule:nonzero;"/></g><g><path d="M192.521,253.133l-0,-5.676l1.549,0l-0,0.99l0.063,-0c0.107,-0.354 0.276,-0.625 0.531,-0.802c0.244,-0.177 0.53,-0.271 0.859,-0.271c0.075,0 0.16,0 0.255,0.011c0.095,0.01 0.18,0.02 0.244,0.041l0,1.396c-0.074,-0.021 -0.18,-0.042 -0.308,-0.052c-0.138,-0.021 -0.254,-0.032 -0.371,-0.032c-0.233,0 -0.446,0.053 -0.626,0.157c-0.191,0.093 -0.329,0.229 -0.435,0.406c-0.106,0.177 -0.159,0.385 -0.159,0.614l-0,3.218l-1.602,0Z" style="fill:#f85555;fill-rule:nonzero;"/></g><g><path d="M198.923,253.248c-0.594,-0 -1.103,-0.125 -1.538,-0.365c-0.425,-0.229 -0.754,-0.572 -0.987,-1.01c-0.233,-0.437 -0.35,-0.958 -0.35,-1.552c-0,-0.583 0.117,-1.103 0.35,-1.541c0.233,-0.437 0.562,-0.781 0.976,-1.031c0.425,-0.25 0.913,-0.375 1.486,-0.375c0.382,0 0.742,0.063 1.071,0.188c0.329,0.114 0.616,0.291 0.86,0.531c0.254,0.239 0.445,0.541 0.583,0.906c0.138,0.364 0.202,0.781 0.202,1.26l-0,0.437l-4.881,0l0,-0.979l3.374,0c0,-0.229 -0.053,-0.427 -0.148,-0.604c-0.107,-0.166 -0.244,-0.312 -0.425,-0.406c-0.17,-0.104 -0.382,-0.156 -0.615,-0.156c-0.234,-0 -0.456,0.062 -0.637,0.167c-0.191,0.114 -0.339,0.26 -0.445,0.447c-0.107,0.177 -0.16,0.386 -0.16,0.604l0,0.927c0,0.282 0.053,0.531 0.16,0.729c0.106,0.209 0.254,0.365 0.456,0.479c0.191,0.105 0.424,0.167 0.689,0.167c0.181,0 0.351,-0.031 0.499,-0.073c0.138,-0.052 0.265,-0.125 0.371,-0.229c0.117,-0.094 0.191,-0.219 0.245,-0.354l1.485,0.094c-0.074,0.343 -0.233,0.656 -0.456,0.916c-0.234,0.26 -0.531,0.458 -0.902,0.604c-0.361,0.146 -0.785,0.219 -1.263,0.219Z" style="fill:#f85555;fill-rule:nonzero;"/></g><g><path d="M204.593,253.227c-0.435,0 -0.838,-0.115 -1.188,-0.333c-0.351,-0.229 -0.637,-0.552 -0.849,-0.99c-0.202,-0.437 -0.308,-0.968 -0.308,-1.603c0,-0.657 0.106,-1.198 0.318,-1.625c0.213,-0.437 0.499,-0.76 0.86,-0.979c0.35,-0.208 0.742,-0.323 1.167,-0.323c0.318,0 0.594,0.063 0.806,0.167c0.223,0.104 0.403,0.239 0.531,0.396c0.138,0.156 0.233,0.312 0.307,0.468l0.054,0l-0,-2.843l1.602,0l-0,7.571l-1.581,0l-0,-0.906l-0.075,0c-0.074,0.156 -0.18,0.313 -0.318,0.458c-0.138,0.157 -0.318,0.282 -0.53,0.386c-0.213,0.104 -0.478,0.156 -0.796,0.156Zm0.509,-1.26c0.265,-0 0.478,-0.063 0.658,-0.208c0.18,-0.136 0.318,-0.334 0.414,-0.584c0.095,-0.25 0.148,-0.541 0.148,-0.885c0,-0.333 -0.053,-0.625 -0.148,-0.875c-0.085,-0.25 -0.223,-0.437 -0.403,-0.583c-0.181,-0.135 -0.404,-0.198 -0.669,-0.198c-0.265,0 -0.488,0.073 -0.668,0.209c-0.181,0.135 -0.319,0.333 -0.403,0.583c-0.096,0.25 -0.138,0.541 -0.138,0.864c-0,0.333 0.042,0.625 0.138,0.875c0.095,0.25 0.233,0.448 0.413,0.594c0.181,0.145 0.404,0.208 0.658,0.208Z" style="fill:#f85555;fill-rule:nonzero;"/></g><g><path d="M209.991,253.227c-0.255,0 -0.467,-0.083 -0.637,-0.26c-0.18,-0.167 -0.276,-0.386 -0.265,-0.625c-0.011,-0.24 0.085,-0.448 0.265,-0.625c0.17,-0.167 0.382,-0.26 0.637,-0.26c0.233,-0 0.445,0.093 0.626,0.26c0.18,0.177 0.275,0.385 0.275,0.625c0,0.166 -0.042,0.312 -0.127,0.448c-0.085,0.135 -0.191,0.239 -0.329,0.322c-0.138,0.073 -0.286,0.115 -0.445,0.115Z" style="fill:#f85555;fill-rule:nonzero;"/></g><g><path d="M221.798,248.207l-1.655,0c-0.032,-0.208 -0.085,-0.395 -0.18,-0.552c-0.096,-0.166 -0.213,-0.312 -0.361,-0.427c-0.138,-0.114 -0.308,-0.208 -0.499,-0.26c-0.191,-0.062 -0.392,-0.094 -0.615,-0.094c-0.403,0 -0.753,0.094 -1.051,0.292c-0.297,0.187 -0.519,0.469 -0.689,0.843c-0.159,0.365 -0.244,0.813 -0.244,1.333c-0,0.542 0.085,1 0.254,1.365c0.16,0.364 0.393,0.645 0.69,0.833c0.297,0.187 0.637,0.281 1.029,0.281c0.212,0 0.414,-0.031 0.605,-0.083c0.191,-0.063 0.35,-0.146 0.499,-0.25c0.148,-0.115 0.265,-0.25 0.36,-0.406c0.107,-0.157 0.17,-0.334 0.202,-0.542l1.655,0.011c-0.042,0.354 -0.148,0.687 -0.318,1.01c-0.17,0.312 -0.403,0.604 -0.679,0.854c-0.287,0.26 -0.626,0.458 -1.019,0.604c-0.392,0.146 -0.838,0.218 -1.337,0.218c-0.689,0 -1.305,-0.156 -1.846,-0.458c-0.541,-0.302 -0.965,-0.75 -1.284,-1.333c-0.307,-0.573 -0.466,-1.281 -0.466,-2.104c-0,-0.822 0.159,-1.52 0.477,-2.103c0.318,-0.583 0.743,-1.021 1.284,-1.323c0.552,-0.312 1.156,-0.458 1.835,-0.458c0.446,-0 0.87,0.062 1.252,0.177c0.382,0.125 0.722,0.302 1.019,0.542c0.297,0.239 0.531,0.52 0.722,0.864c0.19,0.344 0.307,0.729 0.36,1.166Z" style="fill:#f85555;fill-rule:nonzero;"/></g><g><path d="M224.284,249.853l0,3.28l-1.602,0l-0,-7.571l1.549,0l0,2.895l0.074,0c0.128,-0.333 0.34,-0.604 0.637,-0.791c0.286,-0.188 0.647,-0.292 1.093,-0.292c0.403,0 0.753,0.094 1.05,0.261c0.297,0.177 0.531,0.416 0.701,0.739c0.169,0.312 0.244,0.698 0.244,1.146l-0,3.613l-1.603,0l0,-3.332c0,-0.354 -0.084,-0.625 -0.265,-0.823c-0.18,-0.198 -0.435,-0.292 -0.764,-0.292c-0.223,0 -0.414,0.042 -0.583,0.136c-0.17,0.093 -0.297,0.229 -0.393,0.396c-0.095,0.177 -0.138,0.385 -0.138,0.635Z" style="fill:#f85555;fill-rule:nonzero;"/></g><g><path d="M231.582,253.248c-0.594,-0 -1.103,-0.125 -1.538,-0.365c-0.424,-0.229 -0.753,-0.572 -0.987,-1.01c-0.233,-0.437 -0.35,-0.958 -0.35,-1.552c0,-0.583 0.117,-1.103 0.35,-1.541c0.234,-0.437 0.563,-0.781 0.976,-1.031c0.425,-0.25 0.913,-0.375 1.486,-0.375c0.382,0 0.743,0.063 1.071,0.188c0.329,0.114 0.616,0.291 0.86,0.531c0.255,0.239 0.446,0.541 0.583,0.906c0.138,0.364 0.202,0.781 0.202,1.26l0,0.437l-4.881,0l0,-0.979l3.374,0c0,-0.229 -0.053,-0.427 -0.148,-0.604c-0.106,-0.166 -0.244,-0.312 -0.425,-0.406c-0.169,-0.104 -0.382,-0.156 -0.615,-0.156c-0.233,-0 -0.456,0.062 -0.637,0.167c-0.191,0.114 -0.339,0.26 -0.445,0.447c-0.106,0.177 -0.159,0.386 -0.159,0.604l-0,0.927c-0,0.282 0.053,0.531 0.159,0.729c0.106,0.209 0.254,0.365 0.456,0.479c0.191,0.105 0.424,0.167 0.69,0.167c0.18,0 0.35,-0.031 0.498,-0.073c0.138,-0.052 0.266,-0.125 0.372,-0.229c0.116,-0.094 0.191,-0.219 0.244,-0.354l1.485,0.094c-0.074,0.343 -0.233,0.656 -0.456,0.916c-0.233,0.26 -0.531,0.458 -0.902,0.604c-0.361,0.146 -0.785,0.219 -1.263,0.219Z" style="fill:#f85555;fill-rule:nonzero;"/></g><g><path d="M237.741,253.248c-0.594,-0 -1.103,-0.125 -1.528,-0.375c-0.424,-0.25 -0.753,-0.594 -0.976,-1.031c-0.233,-0.448 -0.35,-0.948 -0.35,-1.531c-0,-0.573 0.117,-1.083 0.35,-1.531c0.233,-0.437 0.552,-0.781 0.976,-1.031c0.425,-0.25 0.934,-0.375 1.517,-0.375c0.51,0 0.945,0.094 1.327,0.271c0.382,0.187 0.679,0.437 0.902,0.76c0.222,0.333 0.339,0.708 0.36,1.146l-1.506,-0c-0.043,-0.281 -0.16,-0.511 -0.34,-0.688c-0.18,-0.166 -0.424,-0.26 -0.711,-0.26c-0.254,0 -0.467,0.073 -0.658,0.198c-0.18,0.135 -0.329,0.323 -0.424,0.583c-0.106,0.25 -0.159,0.552 -0.159,0.906c-0,0.365 0.053,0.677 0.148,0.927c0.106,0.25 0.255,0.448 0.435,0.583c0.191,0.136 0.404,0.198 0.658,0.198c0.181,0 0.34,-0.042 0.488,-0.114c0.149,-0.073 0.266,-0.177 0.372,-0.323c0.095,-0.136 0.159,-0.313 0.191,-0.511l1.506,0c-0.021,0.438 -0.138,0.813 -0.36,1.146c-0.213,0.333 -0.51,0.583 -0.881,0.771c-0.382,0.187 -0.828,0.281 -1.337,0.281Z" style="fill:#f85555;fill-rule:nonzero;"/></g><g><path d="M242.497,251.498l0.01,-1.885l0.234,0l1.857,-2.156l1.835,0l-2.483,2.854l-0.392,0l-1.061,1.187Zm-1.443,1.635l-0,-7.571l1.602,0l-0,7.571l-1.602,0Zm3.607,0l-1.697,-2.468l1.061,-1.114l2.514,3.582l-1.878,0Z" style="fill:#f85555;fill-rule:nonzero;"/></g><g><path d="M250.797,255.258c-0.202,-0 -0.393,-0.021 -0.573,-0.052c-0.18,-0.031 -0.329,-0.073 -0.435,-0.115l0.361,-1.177c0.276,0.084 0.52,0.105 0.711,0.063c0.201,-0.031 0.35,-0.188 0.466,-0.438l0.096,-0.239l-2.08,-5.843l1.687,0l1.199,4.166l0.064,0l1.21,-4.166l1.697,0l-2.249,6.291c-0.106,0.302 -0.255,0.562 -0.446,0.791c-0.18,0.229 -0.414,0.406 -0.689,0.531c-0.287,0.125 -0.626,0.188 -1.019,0.188Z" style="fill:#f85555;fill-rule:nonzero;"/></g><g><path d="M258.129,253.248c-0.584,-0 -1.093,-0.125 -1.518,-0.375c-0.424,-0.24 -0.753,-0.583 -0.986,-1.021c-0.234,-0.447 -0.35,-0.958 -0.35,-1.541c-0,-0.583 0.116,-1.093 0.35,-1.541c0.233,-0.438 0.562,-0.781 0.986,-1.021c0.425,-0.25 0.934,-0.375 1.518,-0.375c0.583,0 1.093,0.125 1.517,0.375c0.424,0.24 0.753,0.583 0.987,1.021c0.223,0.448 0.339,0.958 0.339,1.541c0,0.583 -0.116,1.094 -0.339,1.541c-0.234,0.438 -0.563,0.781 -0.987,1.021c-0.424,0.25 -0.934,0.375 -1.517,0.375Zm0.01,-1.229c0.266,-0 0.478,-0.073 0.658,-0.219c0.181,-0.146 0.318,-0.354 0.414,-0.614c0.085,-0.261 0.138,-0.552 0.138,-0.885c-0,-0.323 -0.053,-0.625 -0.138,-0.886c-0.096,-0.25 -0.233,-0.458 -0.414,-0.614c-0.18,-0.146 -0.392,-0.219 -0.658,-0.219c-0.276,0 -0.498,0.073 -0.679,0.219c-0.191,0.156 -0.318,0.364 -0.414,0.614c-0.095,0.261 -0.137,0.563 -0.137,0.886c-0,0.333 0.042,0.624 0.137,0.885c0.096,0.26 0.223,0.468 0.414,0.614c0.181,0.146 0.403,0.219 0.679,0.219Z" style="fill:#f85555;fill-rule:nonzero;"/></g><g><path d="M265.551,250.717l0,-3.26l1.603,0l-0,5.676l-1.539,0l0,-1.031l-0.053,0c-0.138,0.334 -0.35,0.604 -0.658,0.802c-0.297,0.198 -0.668,0.302 -1.103,0.302c-0.382,0 -0.722,-0.083 -1.019,-0.26c-0.297,-0.167 -0.53,-0.417 -0.69,-0.729c-0.169,-0.323 -0.244,-0.708 -0.244,-1.146l0,-3.614l1.603,0l-0,3.333c-0,0.333 0.084,0.604 0.275,0.792c0.181,0.197 0.425,0.291 0.722,0.291c0.191,0 0.371,-0.041 0.541,-0.125c0.17,-0.094 0.308,-0.219 0.414,-0.396c0.106,-0.166 0.148,-0.385 0.148,-0.635Z" style="fill:#f85555;fill-rule:nonzero;"/></g><g><path d="M268.013,253.133l-0,-5.676l1.549,0l0,0.99l0.064,-0c0.106,-0.354 0.276,-0.625 0.53,-0.802c0.244,-0.177 0.531,-0.271 0.86,-0.271c0.074,0 0.159,0 0.254,0.011c0.096,0.01 0.181,0.02 0.244,0.041l0,1.396c-0.074,-0.021 -0.18,-0.042 -0.307,-0.052c-0.138,-0.021 -0.255,-0.032 -0.372,-0.032c-0.233,0 -0.445,0.053 -0.626,0.157c-0.191,0.093 -0.329,0.229 -0.435,0.406c-0.106,0.177 -0.159,0.385 -0.159,0.614l0,3.218l-1.602,0Z" style="fill:#f85555;fill-rule:nonzero;"/></g><g><path d="M277.068,253.227c-0.435,0 -0.838,-0.115 -1.188,-0.333c-0.35,-0.229 -0.637,-0.552 -0.849,-0.99c-0.202,-0.437 -0.308,-0.968 -0.308,-1.603c0,-0.657 0.106,-1.198 0.319,-1.625c0.212,-0.437 0.498,-0.76 0.859,-0.979c0.35,-0.208 0.743,-0.323 1.167,-0.323c0.318,0 0.594,0.063 0.806,0.167c0.223,0.104 0.404,0.239 0.531,0.396c0.138,0.156 0.233,0.312 0.308,0.468l0.053,0l-0,-2.843l1.602,0l-0,7.571l-1.581,0l-0,-0.906l-0.074,0c-0.075,0.156 -0.181,0.313 -0.319,0.458c-0.138,0.157 -0.318,0.282 -0.53,0.386c-0.212,0.104 -0.478,0.156 -0.796,0.156Zm0.509,-1.26c0.266,-0 0.478,-0.063 0.658,-0.208c0.181,-0.136 0.319,-0.334 0.414,-0.584c0.096,-0.25 0.149,-0.541 0.149,-0.885c-0,-0.333 -0.053,-0.625 -0.149,-0.875c-0.085,-0.25 -0.223,-0.437 -0.403,-0.583c-0.181,-0.135 -0.403,-0.198 -0.669,-0.198c-0.265,0 -0.488,0.073 -0.668,0.209c-0.18,0.135 -0.318,0.333 -0.403,0.583c-0.096,0.25 -0.138,0.541 -0.138,0.864c-0,0.333 0.042,0.625 0.138,0.875c0.095,0.25 0.233,0.448 0.414,0.594c0.18,0.145 0.403,0.208 0.657,0.208Z" style="fill:#f85555;fill-rule:nonzero;"/></g><g><path d="M283.177,253.237c-0.372,0 -0.701,-0.062 -0.987,-0.187c-0.287,-0.125 -0.52,-0.312 -0.679,-0.562c-0.17,-0.25 -0.255,-0.563 -0.255,-0.938c0,-0.323 0.053,-0.583 0.17,-0.802c0.127,-0.208 0.286,-0.385 0.488,-0.51c0.202,-0.135 0.435,-0.229 0.69,-0.302c0.265,-0.062 0.541,-0.114 0.827,-0.135c0.329,-0.042 0.605,-0.073 0.807,-0.104c0.212,-0.032 0.36,-0.073 0.456,-0.136c0.085,-0.062 0.138,-0.156 0.138,-0.271l-0,-0.02c-0,-0.24 -0.074,-0.417 -0.223,-0.552c-0.159,-0.125 -0.361,-0.188 -0.637,-0.188c-0.286,0 -0.52,0.063 -0.689,0.188c-0.17,0.125 -0.287,0.281 -0.34,0.468l-1.485,-0.125c0.074,-0.343 0.223,-0.635 0.445,-0.895c0.223,-0.25 0.51,-0.448 0.86,-0.584c0.35,-0.135 0.753,-0.208 1.209,-0.208c0.329,0 0.637,0.042 0.934,0.115c0.297,0.073 0.552,0.187 0.785,0.343c0.223,0.157 0.414,0.354 0.541,0.594c0.138,0.25 0.202,0.542 0.202,0.875l-0,3.832l-1.517,0l-0,-0.791l-0.053,-0c-0.096,0.177 -0.213,0.333 -0.372,0.468c-0.148,0.136 -0.339,0.24 -0.562,0.313c-0.212,0.083 -0.467,0.114 -0.753,0.114Zm0.456,-1.083c0.244,0 0.445,-0.041 0.626,-0.135c0.18,-0.094 0.329,-0.219 0.424,-0.385c0.106,-0.157 0.159,-0.334 0.159,-0.531l0,-0.605c-0.053,0.032 -0.116,0.063 -0.201,0.084c-0.096,0.031 -0.191,0.052 -0.297,0.073c-0.106,0.021 -0.212,0.041 -0.319,0.052c-0.116,0.021 -0.212,0.031 -0.297,0.052c-0.191,0.021 -0.35,0.062 -0.498,0.125c-0.138,0.062 -0.244,0.135 -0.329,0.239c-0.075,0.104 -0.117,0.219 -0.117,0.375c0,0.209 0.085,0.375 0.244,0.49c0.159,0.114 0.361,0.166 0.605,0.166Z" style="fill:#f85555;fill-rule:nonzero;"/></g><g><path d="M290.592,247.457l0,1.177l-3.49,0l-0,-1.177l3.49,0Zm-2.695,-1.364l1.603,0l-0,5.291c-0,0.145 0.021,0.26 0.063,0.343c0.053,0.084 0.117,0.136 0.191,0.167c0.085,0.031 0.181,0.052 0.287,0.052c0.074,0 0.148,-0.01 0.223,-0.021c0.084,-0.021 0.137,-0.031 0.18,-0.031l0.255,1.166c-0.085,0.032 -0.202,0.063 -0.34,0.094c-0.149,0.031 -0.329,0.052 -0.541,0.063c-0.382,0.01 -0.722,-0.042 -1.008,-0.157c-0.297,-0.114 -0.52,-0.291 -0.679,-0.541c-0.159,-0.24 -0.244,-0.552 -0.234,-0.927l0,-5.499Z" style="fill:#f85555;fill-rule:nonzero;"/></g><g><path d="M293.018,253.237c-0.371,0 -0.7,-0.062 -0.986,-0.187c-0.287,-0.125 -0.52,-0.312 -0.679,-0.562c-0.17,-0.25 -0.255,-0.563 -0.255,-0.938c-0,-0.323 0.053,-0.583 0.17,-0.802c0.127,-0.208 0.286,-0.385 0.488,-0.51c0.201,-0.135 0.435,-0.229 0.689,-0.302c0.266,-0.062 0.542,-0.114 0.828,-0.135c0.329,-0.042 0.605,-0.073 0.806,-0.104c0.213,-0.032 0.361,-0.073 0.457,-0.136c0.085,-0.062 0.138,-0.156 0.138,-0.271l-0,-0.02c-0,-0.24 -0.075,-0.417 -0.223,-0.552c-0.159,-0.125 -0.361,-0.188 -0.637,-0.188c-0.286,0 -0.52,0.063 -0.689,0.188c-0.17,0.125 -0.287,0.281 -0.34,0.468l-1.485,-0.125c0.074,-0.343 0.222,-0.635 0.445,-0.895c0.223,-0.25 0.509,-0.448 0.86,-0.584c0.35,-0.135 0.753,-0.208 1.209,-0.208c0.329,0 0.637,0.042 0.934,0.115c0.297,0.073 0.552,0.187 0.785,0.343c0.223,0.157 0.414,0.354 0.541,0.594c0.138,0.25 0.202,0.542 0.202,0.875l-0,3.832l-1.517,0l-0,-0.791l-0.054,-0c-0.095,0.177 -0.212,0.333 -0.371,0.468c-0.148,0.136 -0.339,0.24 -0.562,0.313c-0.212,0.083 -0.467,0.114 -0.754,0.114Zm0.457,-1.083c0.244,0 0.445,-0.041 0.626,-0.135c0.18,-0.094 0.329,-0.219 0.424,-0.385c0.106,-0.157 0.159,-0.334 0.159,-0.531l0,-0.605c-0.053,0.032 -0.116,0.063 -0.201,0.084c-0.096,0.031 -0.191,0.052 -0.297,0.073c-0.107,0.021 -0.213,0.041 -0.319,0.052c-0.116,0.021 -0.212,0.031 -0.297,0.052c-0.191,0.021 -0.35,0.062 -0.499,0.125c-0.137,0.062 -0.244,0.135 -0.328,0.239c-0.075,0.104 -0.117,0.219 -0.117,0.375c-0,0.209 0.085,0.375 0.244,0.49c0.159,0.114 0.361,0.166 0.605,0.166Z" style="fill:#f85555;fill-rule:nonzero;"/></g><g><path d="M298.291,253.227c-0.255,0 -0.467,-0.083 -0.637,-0.26c-0.18,-0.167 -0.276,-0.386 -0.265,-0.625c-0.011,-0.24 0.085,-0.448 0.265,-0.625c0.17,-0.167 0.382,-0.26 0.637,-0.26c0.233,-0 0.446,0.093 0.626,0.26c0.18,0.177 0.276,0.385 0.276,0.625c-0,0.166 -0.043,0.312 -0.127,0.448c-0.085,0.135 -0.191,0.239 -0.329,0.322c-0.138,0.073 -0.287,0.115 -0.446,0.115Z" style="fill:#f85555;fill-rule:nonzero;"/></g></g></g></svg>