<?xml version="1.0" encoding="UTF-8" standalone="no"?><!DOCTYPE svg PUBLIC "-//W3C//DTD SVG 1.1//EN" "http://www.w3.org/Graphics/SVG/1.1/DTD/svg11.dtd"><svg width="100%" height="100%" viewBox="0 0 1749 1241" version="1.1" xmlns="http://www.w3.org/2000/svg" xmlns:xlink="http://www.w3.org/1999/xlink" xml:space="preserve" xmlns:serif="http://www.serif.com/" style="fill-rule:evenodd;clip-rule:evenodd;stroke-linecap:round;stroke-linejoin:round;stroke-miterlimit:1.5;"><rect id="Artboard2" x="0" y="0" width="1748.03" height="1240.16" style="fill:none;"/><clipPath id="_clip1"><rect id="Artboard21" serif:id="Artboard2" x="0" y="0" width="1748.03" height="1240.16"/></clipPath><g clip-path="url(#_clip1)"><rect id="Artboard1" x="0" y="0" width="1748.03" height="1240.16" style="fill:none;"/><g><g><rect x="0" y="0" width="1748.03" height="1240.16" style="fill:#ada7ff;"/><g><path d="M1404.82,242.872c0,-69.179 -71.523,-125.345 -159.621,-125.345l-740.108,0c-88.096,0 -159.62,56.166 -159.62,125.345l0,1006.12c0,69.18 71.524,125.345 159.62,125.345l740.108,0c88.098,0 159.621,-56.165 159.621,-125.345l0,-1006.12Z" style="fill:#f8f9fa;stroke:#212529;stroke-width:28.62px;"/></g><g><g><path d="M734.695,237.241c-0.284,-2.86 -1.505,-5.085 -3.661,-6.676c-2.157,-1.591 -5.075,-2.387 -8.754,-2.387c-2.509,0 -4.632,0.354 -6.367,1.062c-1.735,0.708 -3.055,1.675 -3.96,2.901c-0.904,1.227 -1.363,2.624 -1.377,4.191c-0.029,1.302 0.254,2.44 0.848,3.413c0.594,0.973 1.427,1.808 2.497,2.507c1.07,0.698 2.303,1.298 3.7,1.8c1.397,0.502 2.884,0.93 4.46,1.285l6.534,1.563c3.173,0.71 6.085,1.66 8.736,2.848c2.652,1.189 4.953,2.648 6.903,4.379c1.951,1.73 3.465,3.768 4.542,6.111c1.077,2.344 1.623,5.029 1.638,8.054c-0.015,4.441 -1.142,8.291 -3.381,11.548c-2.24,3.258 -5.46,5.779 -9.663,7.564c-4.202,1.785 -9.267,2.678 -15.195,2.678c-5.876,-0 -10.984,-0.897 -15.323,-2.692c-4.34,-1.794 -7.72,-4.461 -10.142,-8c-2.422,-3.54 -3.697,-7.93 -3.825,-13.172l14.887,0c0.165,2.434 0.871,4.463 2.116,6.087c1.245,1.624 2.911,2.844 4.996,3.658c2.086,0.814 4.459,1.222 7.121,1.222c2.609,-0 4.874,-0.377 6.797,-1.13c1.922,-0.753 3.416,-1.802 4.481,-3.146c1.066,-1.345 1.605,-2.903 1.619,-4.674c-0.014,-1.633 -0.5,-3.005 -1.459,-4.116c-0.959,-1.11 -2.354,-2.057 -4.187,-2.841c-1.832,-0.783 -4.07,-1.495 -6.712,-2.134l-7.926,-1.96c-6.136,-1.492 -10.979,-3.827 -14.528,-7.006c-3.548,-3.18 -5.315,-7.454 -5.301,-12.823c-0.014,-4.399 1.17,-8.247 3.554,-11.545c2.385,-3.298 5.659,-5.868 9.823,-7.71c4.164,-1.842 8.9,-2.762 14.208,-2.762c5.398,-0 10.111,0.923 14.14,2.769c4.03,1.847 7.173,4.417 9.429,7.71c2.256,3.293 3.415,7.101 3.476,11.424l-14.744,-0Z" style="fill:#212529;fill-rule:nonzero;"/><path d="M758.743,289.059l0,-54.545l15.128,-0l0,54.545l-15.128,0Zm7.635,-61.577c-2.249,0 -4.178,-0.751 -5.788,-2.255c-1.61,-1.503 -2.415,-3.308 -2.415,-5.415c0,-2.083 0.805,-3.877 2.415,-5.38c1.61,-1.503 3.527,-2.255 5.753,-2.255c2.273,0 4.208,0.752 5.806,2.255c1.598,1.503 2.397,3.297 2.397,5.38c-0,2.107 -0.799,3.912 -2.397,5.415c-1.598,1.504 -3.522,2.255 -5.771,2.255Z" style="fill:#212529;fill-rule:nonzero;"/><path d="M807.053,310.309c-4.9,0 -9.101,-0.664 -12.603,-1.992c-3.501,-1.328 -6.28,-3.118 -8.338,-5.369c-2.057,-2.252 -3.391,-4.751 -4.002,-7.497l14.005,-1.875c0.417,0.981 1.085,1.917 2.003,2.809c0.919,0.893 2.141,1.623 3.668,2.191c1.527,0.568 3.397,0.852 5.608,0.852c3.281,0 5.995,-0.781 8.143,-2.343c2.147,-1.563 3.221,-4.134 3.221,-7.713l-0,-9.972l-0.625,0c-0.673,1.506 -1.674,2.937 -3.005,4.293c-1.33,1.357 -3.032,2.463 -5.106,3.317c-2.074,0.855 -4.56,1.282 -7.458,1.282c-4.09,0 -7.811,-0.956 -11.161,-2.869c-3.35,-1.913 -6.015,-4.837 -7.997,-8.771c-1.982,-3.935 -2.972,-8.928 -2.972,-14.979c-0,-6.184 1.007,-11.343 3.022,-15.476c2.014,-4.133 4.699,-7.232 8.054,-9.297c3.355,-2.064 7.03,-3.097 11.026,-3.097c3.04,0 5.59,0.515 7.649,1.545c2.06,1.03 3.727,2.306 5,3.828c1.274,1.522 2.247,3.027 2.919,4.514l0.597,0l-0,-9.176l15,-0l-0,55.085c-0,4.531 -1.138,8.334 -3.413,11.41c-2.275,3.075 -5.418,5.394 -9.428,6.957c-4.011,1.562 -8.613,2.343 -13.807,2.343Zm0.313,-33.38c2.424,-0 4.487,-0.61 6.189,-1.829c1.702,-1.219 3.005,-2.971 3.907,-5.256c0.902,-2.284 1.353,-5.027 1.353,-8.228c-0,-3.191 -0.447,-5.967 -1.339,-8.328c-0.893,-2.36 -2.19,-4.19 -3.892,-5.49c-1.702,-1.3 -3.775,-1.95 -6.218,-1.95c-2.501,0 -4.602,0.669 -6.304,2.007c-1.702,1.338 -2.99,3.192 -3.863,5.562c-0.874,2.369 -1.311,5.103 -1.311,8.199c0,3.134 0.442,5.846 1.325,8.136c0.883,2.289 2.175,4.057 3.877,5.305c1.703,1.248 3.794,1.872 6.276,1.872Z" style="fill:#212529;fill-rule:nonzero;"/><path d="M858.53,257.525l0,31.534l-15.113,0l-0,-54.545l14.403,-0l0,9.631l0.625,-0c1.221,-3.182 3.251,-5.701 6.09,-7.557c2.839,-1.856 6.282,-2.785 10.331,-2.785c3.792,0 7.098,0.83 9.917,2.49c2.82,1.659 5.01,4.021 6.57,7.084c1.56,3.064 2.333,6.71 2.319,10.938l0,34.744l-15.113,0l-0,-32.046c0.014,-3.333 -0.84,-5.942 -2.561,-7.826c-1.721,-1.885 -4.096,-2.827 -7.127,-2.827c-2.036,0 -3.831,0.442 -5.387,1.325c-1.555,0.883 -2.766,2.156 -3.633,3.821c-0.866,1.664 -1.307,3.671 -1.321,6.019Z" style="fill:#212529;fill-rule:nonzero;"/><path d="M975.263,216.332l15.37,-0l-0,47.216c-0,5.312 -1.259,9.958 -3.775,13.938c-2.517,3.98 -6.036,7.074 -10.558,9.283c-4.521,2.208 -9.791,3.313 -15.809,3.313c-6.047,-0 -11.331,-1.105 -15.853,-3.313c-4.522,-2.209 -8.034,-5.303 -10.536,-9.283c-2.502,-3.98 -3.753,-8.626 -3.753,-13.938l-0,-47.216l15.369,-0l-0,45.909c-0,2.77 0.611,5.235 1.832,7.397c1.222,2.162 2.941,3.856 5.16,5.082c2.218,1.226 4.812,1.839 7.781,1.839c2.983,0 5.582,-0.613 7.798,-1.839c2.216,-1.226 3.932,-2.92 5.149,-5.082c1.217,-2.162 1.825,-4.627 1.825,-7.397l0,-45.909Z" style="fill:#212529;fill-rule:nonzero;"/><path d="M1004.21,309.514l0,-75l14.915,-0l-0,9.176l0.653,0c0.672,-1.487 1.641,-2.992 2.905,-4.514c1.264,-1.522 2.921,-2.798 4.971,-3.828c2.051,-1.03 4.596,-1.545 7.635,-1.545c3.997,0 7.672,1.035 11.027,3.104c3.354,2.069 6.039,5.182 8.054,9.34c2.015,4.157 3.022,9.356 3.022,15.596c-0,6.089 -0.979,11.222 -2.937,15.398c-1.958,4.176 -4.609,7.336 -7.955,9.481c-3.345,2.145 -7.091,3.218 -11.239,3.218c-2.935,-0 -5.425,-0.487 -7.468,-1.46c-2.043,-0.973 -3.715,-2.197 -5.014,-3.672c-1.3,-1.474 -2.3,-2.965 -3.001,-4.47l-0.454,-0l-0,29.176l-15.114,-0Zm14.801,-47.728c-0,3.239 0.451,6.065 1.353,8.477c0.902,2.413 2.204,4.288 3.906,5.625c1.703,1.338 3.766,2.007 6.19,2.007c2.481,-0 4.573,-0.681 6.275,-2.042c1.702,-1.361 2.995,-3.253 3.878,-5.675c0.883,-2.422 1.324,-5.219 1.324,-8.392c0,-3.153 -0.437,-5.927 -1.31,-8.32c-0.874,-2.394 -2.161,-4.261 -3.864,-5.604c-1.702,-1.342 -3.803,-2.014 -6.303,-2.014c-2.443,0 -4.516,0.653 -6.218,1.957c-1.702,1.305 -3,3.149 -3.892,5.533c-0.893,2.384 -1.339,5.2 -1.339,8.448Z" style="fill:#212529;fill-rule:nonzero;"/></g></g><g><g><g><g><g><g><path d="M1180.32,572.921c-0,-15.615 -13.902,-28.292 -31.024,-28.292l-550.57,-0c-17.122,-0 -31.024,12.677 -31.024,28.292l0,56.584c0,15.616 13.902,28.293 31.024,28.293l550.57,0c17.122,0 31.024,-12.677 31.024,-28.293l-0,-56.584Z" style="fill:#fff;stroke:#212529;stroke-width:14.24px;"/><path d="M618.654,614.448c-2.626,0 -4.887,-0.477 -6.783,-1.433c-1.896,-0.955 -3.355,-2.315 -4.376,-4.08c-1.021,-1.765 -1.531,-3.857 -1.531,-6.275c-0,-2.359 0.512,-4.428 1.536,-6.208c1.025,-1.779 2.465,-3.166 4.323,-4.161c1.857,-0.994 4.041,-1.491 6.551,-1.491c1.694,-0 3.27,0.24 4.73,0.722c1.459,0.481 2.736,1.205 3.829,2.173c1.093,0.967 1.946,2.179 2.559,3.634c0.613,1.456 0.92,3.157 0.92,5.104l-0,1.742l-21.609,0l0,-3.937l14.93,-0c-0.006,-0.911 -0.232,-1.72 -0.678,-2.427c-0.445,-0.707 -1.059,-1.263 -1.843,-1.667c-0.783,-0.405 -1.689,-0.607 -2.717,-0.607c-1.074,-0 -2.025,0.223 -2.853,0.669c-0.829,0.447 -1.477,1.04 -1.945,1.78c-0.467,0.739 -0.708,1.562 -0.721,2.467l-0,3.746c-0,1.134 0.237,2.113 0.713,2.938c0.475,0.826 1.146,1.461 2.013,1.907c0.866,0.445 1.89,0.668 3.072,0.668c0.794,-0 1.516,-0.101 2.168,-0.302c0.653,-0.2 1.214,-0.498 1.685,-0.893c0.471,-0.395 0.826,-0.879 1.066,-1.454l6.559,0.382c-0.333,1.416 -1.012,2.648 -2.036,3.697c-1.025,1.049 -2.346,1.862 -3.964,2.44c-1.619,0.578 -3.485,0.866 -5.598,0.866Z" style="fill:#5e5e5e;fill-rule:nonzero;"/><path d="M638.477,614.389c-1.102,-0 -2.046,-0.349 -2.831,-1.046c-0.786,-0.697 -1.175,-1.541 -1.168,-2.533c-0.007,-0.975 0.382,-1.809 1.168,-2.503c0.785,-0.694 1.729,-1.041 2.831,-1.041c1.062,-0 1.992,0.347 2.791,1.041c0.798,0.694 1.201,1.528 1.208,2.503c-0.007,0.66 -0.196,1.261 -0.568,1.803c-0.373,0.541 -0.859,0.973 -1.458,1.294c-0.6,0.321 -1.258,0.482 -1.973,0.482Z" style="fill:#5e5e5e;fill-rule:nonzero;"/><path d="M671.989,622.932c-2.299,0 -4.27,-0.279 -5.913,-0.837c-1.643,-0.557 -2.947,-1.309 -3.913,-2.255c-0.965,-0.945 -1.591,-1.995 -1.878,-3.148l6.572,-0.788c0.196,0.412 0.509,0.805 0.94,1.18c0.431,0.375 1.005,0.682 1.721,0.92c0.717,0.239 1.594,0.358 2.631,0.358c1.54,0 2.813,-0.328 3.821,-0.984c1.008,-0.656 1.511,-1.736 1.511,-3.24l0,-4.188l-0.293,0c-0.315,0.633 -0.785,1.234 -1.409,1.803c-0.625,0.57 -1.423,1.035 -2.397,1.394c-0.973,0.359 -2.139,0.538 -3.499,0.538c-1.919,0 -3.665,-0.402 -5.237,-1.205c-1.572,-0.804 -2.823,-2.032 -3.753,-3.684c-0.929,-1.653 -1.394,-3.75 -1.394,-6.291c-0,-2.597 0.472,-4.764 1.418,-6.5c0.945,-1.736 2.205,-3.038 3.779,-3.905c1.574,-0.867 3.299,-1.3 5.174,-1.3c1.426,-0 2.623,0.216 3.589,0.649c0.967,0.432 1.749,0.968 2.346,1.607c0.598,0.64 1.054,1.272 1.37,1.896l0.28,0l-0,-3.854l7.038,0l0,23.136c0,1.903 -0.534,3.5 -1.601,4.792c-1.068,1.292 -2.542,2.266 -4.424,2.922c-1.882,0.656 -4.041,0.984 -6.479,0.984Zm0.147,-14.02c1.137,0 2.105,-0.256 2.904,-0.768c0.799,-0.512 1.41,-1.248 1.833,-2.207c0.424,-0.96 0.635,-2.112 0.635,-3.456c0,-1.34 -0.209,-2.506 -0.628,-3.498c-0.419,-0.991 -1.028,-1.76 -1.826,-2.305c-0.799,-0.546 -1.772,-0.819 -2.918,-0.819c-1.173,-0 -2.159,0.281 -2.958,0.842c-0.799,0.562 -1.403,1.341 -1.813,2.336c-0.41,0.996 -0.615,2.143 -0.615,3.444c0,1.316 0.208,2.455 0.622,3.417c0.414,0.961 1.021,1.704 1.819,2.228c0.799,0.524 1.781,0.786 2.945,0.786Z" style="fill:#5e5e5e;fill-rule:nonzero;"/><path d="M693.198,614.389c-1.102,-0 -2.046,-0.349 -2.831,-1.046c-0.786,-0.697 -1.175,-1.541 -1.168,-2.533c-0.007,-0.975 0.382,-1.809 1.168,-2.503c0.785,-0.694 1.729,-1.041 2.831,-1.041c1.062,-0 1.992,0.347 2.791,1.041c0.799,0.694 1.201,1.528 1.208,2.503c-0.007,0.66 -0.196,1.261 -0.568,1.803c-0.372,0.541 -0.858,0.973 -1.458,1.294c-0.6,0.321 -1.258,0.482 -1.973,0.482Z" style="fill:#5e5e5e;fill-rule:nonzero;"/><path d="M728.977,583.462l7.131,-0l0,21.298c-0.006,1.973 -0.501,3.683 -1.484,5.132c-0.983,1.449 -2.348,2.566 -4.093,3.353c-1.745,0.786 -3.769,1.18 -6.073,1.18c-2.06,-0 -3.924,-0.327 -5.592,-0.98c-1.669,-0.654 -2.993,-1.647 -3.973,-2.98c-0.98,-1.333 -1.466,-3.016 -1.459,-5.049l7.184,0c0.02,0.806 0.205,1.495 0.555,2.067c0.35,0.573 0.836,1.01 1.457,1.311c0.621,0.302 1.35,0.452 2.188,0.452c0.888,0 1.641,-0.17 2.257,-0.51c0.617,-0.34 1.086,-0.843 1.408,-1.511c0.323,-0.667 0.487,-1.489 0.494,-2.465l-0,-21.298Z" style="fill:#5e5e5e;fill-rule:nonzero;"/><path d="M747.932,614.437c-1.628,-0 -3.082,-0.255 -4.36,-0.765c-1.279,-0.511 -2.287,-1.271 -3.025,-2.281c-0.737,-1.01 -1.106,-2.27 -1.106,-3.779c0,-1.277 0.259,-2.346 0.777,-3.209c0.517,-0.862 1.226,-1.556 2.126,-2.083c0.9,-0.527 1.925,-0.927 3.077,-1.199c1.152,-0.273 2.363,-0.464 3.631,-0.573c1.482,-0.131 2.679,-0.259 3.591,-0.383c0.912,-0.125 1.575,-0.311 1.988,-0.561c0.413,-0.25 0.62,-0.619 0.62,-1.108l-0,-0.084c-0,-0.946 -0.332,-1.678 -0.997,-2.195c-0.664,-0.517 -1.598,-0.776 -2.802,-0.776c-1.278,0 -2.295,0.25 -3.051,0.75c-0.757,0.501 -1.255,1.129 -1.495,1.887l-6.572,-0.477c0.333,-1.392 0.988,-2.598 1.965,-3.617c0.976,-1.019 2.24,-1.805 3.79,-2.357c1.551,-0.551 3.348,-0.827 5.389,-0.827c1.429,-0 2.794,0.149 4.096,0.449c1.302,0.299 2.461,0.76 3.476,1.384c1.015,0.623 1.818,1.424 2.408,2.404c0.59,0.979 0.885,2.152 0.885,3.518l-0,15.452l-6.732,0l-0,-3.174l-0.2,0c-0.413,0.712 -0.963,1.34 -1.648,1.882c-0.686,0.543 -1.513,0.966 -2.483,1.268c-0.97,0.302 -2.086,0.454 -3.348,0.454Zm2.04,-4.379c1.042,-0 1.962,-0.187 2.761,-0.561c0.799,-0.374 1.425,-0.88 1.878,-1.519c0.453,-0.638 0.68,-1.357 0.68,-2.156l-0,-2.434c-0.213,0.125 -0.514,0.24 -0.902,0.346c-0.387,0.105 -0.818,0.2 -1.293,0.283c-0.474,0.084 -0.949,0.158 -1.426,0.224c-0.477,0.065 -0.909,0.123 -1.298,0.173c-0.835,0.107 -1.565,0.281 -2.188,0.52c-0.623,0.24 -1.108,0.561 -1.453,0.964c-0.346,0.403 -0.518,0.902 -0.518,1.499c-0,0.871 0.353,1.532 1.06,1.984c0.706,0.451 1.606,0.677 2.699,0.677Z" style="fill:#5e5e5e;fill-rule:nonzero;"/><path d="M774.193,600.763l0,13.244l-7.091,0l-0,-22.909l6.758,0l-0,4.045l0.293,-0c0.573,-1.336 1.526,-2.394 2.858,-3.174c1.332,-0.78 2.948,-1.169 4.847,-1.169c1.78,-0 3.331,0.348 4.654,1.045c1.323,0.697 2.351,1.689 3.083,2.976c0.732,1.286 1.094,2.818 1.088,4.593l-0,14.593l-7.092,0l0,-13.459c0.007,-1.4 -0.394,-2.496 -1.201,-3.287c-0.808,-0.792 -1.923,-1.188 -3.344,-1.188c-0.956,0 -1.798,0.186 -2.528,0.557c-0.73,0.371 -1.298,0.906 -1.705,1.605c-0.407,0.699 -0.613,1.541 -0.62,2.528Z" style="fill:#5e5e5e;fill-rule:nonzero;"/><path d="M806.213,614.448c-2.626,0 -4.887,-0.477 -6.784,-1.433c-1.896,-0.955 -3.355,-2.315 -4.375,-4.08c-1.021,-1.765 -1.532,-3.857 -1.532,-6.275c0,-2.359 0.512,-4.428 1.537,-6.208c1.024,-1.779 2.465,-3.166 4.322,-4.161c1.857,-0.994 4.041,-1.491 6.552,-1.491c1.693,-0 3.269,0.24 4.729,0.722c1.46,0.481 2.736,1.205 3.829,2.173c1.093,0.967 1.946,2.179 2.559,3.634c0.614,1.456 0.92,3.157 0.92,5.104l0,1.742l-21.608,0l-0,-3.937l14.93,-0c-0.007,-0.911 -0.233,-1.72 -0.678,-2.427c-0.446,-0.707 -1.06,-1.263 -1.843,-1.667c-0.784,-0.405 -1.69,-0.607 -2.718,-0.607c-1.073,-0 -2.024,0.223 -2.853,0.669c-0.829,0.447 -1.477,1.04 -1.945,1.78c-0.467,0.739 -0.708,1.562 -0.721,2.467l0,3.746c0,1.134 0.238,2.113 0.713,2.938c0.476,0.826 1.147,1.461 2.013,1.907c0.866,0.445 1.891,0.668 3.073,0.668c0.793,-0 1.516,-0.101 2.168,-0.302c0.652,-0.2 1.213,-0.498 1.684,-0.893c0.471,-0.395 0.827,-0.879 1.067,-1.454l6.558,0.382c-0.333,1.416 -1.012,2.648 -2.036,3.697c-1.024,1.049 -2.346,1.862 -3.964,2.44c-1.619,0.578 -3.484,0.866 -5.597,0.866Z" style="fill:#5e5e5e;fill-rule:nonzero;"/><path d="M847.31,614.007l-12.09,0l-0,-30.545l12.197,-0c3.43,-0 6.385,0.609 8.863,1.827c2.478,1.218 4.387,2.966 5.725,5.244c1.339,2.278 2.008,5.004 2.008,8.178c0,3.181 -0.67,5.915 -2.009,8.201c-1.34,2.286 -3.257,4.04 -5.752,5.262c-2.495,1.222 -5.476,1.833 -8.942,1.833Zm-4.879,-5.536l4.573,-0c2.142,-0 3.942,-0.341 5.4,-1.023c1.459,-0.682 2.559,-1.741 3.3,-3.177c0.741,-1.436 1.111,-3.289 1.111,-5.56c0,-2.264 -0.372,-4.11 -1.115,-5.54c-0.743,-1.43 -1.84,-2.483 -3.292,-3.159c-1.452,-0.676 -3.245,-1.014 -5.378,-1.014l-4.599,-0l0,19.473Z" style="fill:#5e5e5e;fill-rule:nonzero;"/><path d="M880.37,614.448c-2.591,0 -4.827,-0.493 -6.709,-1.481c-1.882,-0.987 -3.334,-2.367 -4.356,-4.14c-1.022,-1.773 -1.533,-3.836 -1.533,-6.191c0,-2.362 0.511,-4.432 1.533,-6.209c1.022,-1.777 2.474,-3.159 4.356,-4.146c1.882,-0.988 4.118,-1.481 6.709,-1.481c2.59,-0 4.826,0.493 6.708,1.481c1.882,0.987 3.334,2.369 4.356,4.146c1.022,1.777 1.533,3.847 1.533,6.209c-0,2.355 -0.511,4.418 -1.533,6.191c-1.022,1.773 -2.474,3.153 -4.356,4.14c-1.882,0.988 -4.118,1.481 -6.708,1.481Zm0.04,-4.915c1.168,-0 2.149,-0.302 2.942,-0.904c0.794,-0.603 1.392,-1.426 1.797,-2.47c0.404,-1.044 0.606,-2.23 0.606,-3.559c0,-1.334 -0.202,-2.524 -0.606,-3.569c-0.405,-1.045 -1.003,-1.871 -1.797,-2.477c-0.793,-0.607 -1.774,-0.91 -2.942,-0.91c-1.196,-0 -2.197,0.303 -3.003,0.91c-0.807,0.606 -1.412,1.432 -1.816,2.477c-0.405,1.045 -0.607,2.235 -0.607,3.569c0,1.329 0.202,2.515 0.607,3.559c0.404,1.044 1.009,1.867 1.816,2.47c0.806,0.602 1.807,0.904 3.003,0.904Z" style="fill:#5e5e5e;fill-rule:nonzero;"/><path d="M908.457,614.448c-2.626,0 -4.887,-0.477 -6.784,-1.433c-1.896,-0.955 -3.355,-2.315 -4.375,-4.08c-1.021,-1.765 -1.532,-3.857 -1.532,-6.275c0,-2.359 0.512,-4.428 1.537,-6.208c1.024,-1.779 2.465,-3.166 4.322,-4.161c1.857,-0.994 4.041,-1.491 6.552,-1.491c1.693,-0 3.269,0.24 4.729,0.722c1.459,0.481 2.736,1.205 3.829,2.173c1.093,0.967 1.946,2.179 2.559,3.634c0.614,1.456 0.92,3.157 0.92,5.104l0,1.742l-21.608,0l-0,-3.937l14.93,-0c-0.007,-0.911 -0.233,-1.72 -0.678,-2.427c-0.446,-0.707 -1.06,-1.263 -1.843,-1.667c-0.784,-0.405 -1.69,-0.607 -2.718,-0.607c-1.073,-0 -2.024,0.223 -2.853,0.669c-0.829,0.447 -1.477,1.04 -1.945,1.78c-0.467,0.739 -0.708,1.562 -0.721,2.467l-0,3.746c-0,1.134 0.238,2.113 0.713,2.938c0.476,0.826 1.146,1.461 2.013,1.907c0.866,0.445 1.891,0.668 3.073,0.668c0.793,-0 1.516,-0.101 2.168,-0.302c0.652,-0.2 1.213,-0.498 1.684,-0.893c0.471,-0.395 0.827,-0.879 1.067,-1.454l6.558,0.382c-0.333,1.416 -1.012,2.648 -2.036,3.697c-1.024,1.049 -2.346,1.862 -3.964,2.44c-1.619,0.578 -3.484,0.866 -5.597,0.866Z" style="fill:#5e5e5e;fill-rule:nonzero;"/></g></g></g></g><path d="M567.91,506.664l0,-36.363l24.062,-0l0,6.335l-16.377,-0l-0,8.665l14.787,-0l-0,6.335l-14.787,-0l-0,15.028l-7.685,0Z" style="fill-rule:nonzero;"/><path d="M612.882,495.045l-0,-15.653l7.556,-0l0,27.272l-7.258,0l-0,-4.957l-0.284,-0c-0.611,1.598 -1.63,2.883 -3.058,3.855c-1.427,0.972 -3.164,1.458 -5.209,1.458c-1.825,-0 -3.431,-0.414 -4.817,-1.24c-1.386,-0.826 -2.467,-2.005 -3.242,-3.537c-0.776,-1.532 -1.167,-3.358 -1.174,-5.479l-0,-17.372l7.557,-0l-0,16.023c0.007,1.605 0.438,2.875 1.294,3.81c0.856,0.935 2.001,1.402 3.436,1.402c0.906,0 1.756,-0.211 2.548,-0.633c0.792,-0.423 1.433,-1.048 1.924,-1.875c0.492,-0.828 0.734,-1.852 0.727,-3.074Z" style="fill-rule:nonzero;"/><rect x="624.444" y="470.301" width="7.557" height="36.364" style="fill-rule:nonzero;"/><rect x="636.305" y="470.301" width="7.557" height="36.364" style="fill-rule:nonzero;"/><path d="M692.782,470.301l0,36.363l-6.647,0l-15.81,-22.883l-0.27,-0l0,22.883l-7.685,0l0,-36.363l6.733,-0l15.711,22.869l0.312,0l-0,-22.869l7.656,-0Z" style="fill-rule:nonzero;"/><path d="M707.64,507.176c-1.735,-0 -3.284,-0.304 -4.646,-0.911c-1.363,-0.607 -2.437,-1.512 -3.223,-2.715c-0.786,-1.203 -1.179,-2.702 -1.179,-4.499c0,-1.52 0.276,-2.793 0.827,-3.819c0.552,-1.027 1.307,-1.853 2.266,-2.481c0.959,-0.627 2.052,-1.103 3.279,-1.428c1.228,-0.324 2.518,-0.551 3.869,-0.681c1.58,-0.157 2.855,-0.309 3.827,-0.457c0.972,-0.148 1.678,-0.37 2.118,-0.667c0.44,-0.297 0.661,-0.737 0.661,-1.32l-0,-0.099c-0,-1.127 -0.354,-1.998 -1.062,-2.614c-0.708,-0.615 -1.704,-0.923 -2.987,-0.923c-1.361,0 -2.445,0.298 -3.251,0.893c-0.806,0.596 -1.337,1.344 -1.593,2.246l-7.002,-0.568c0.355,-1.657 1.052,-3.092 2.093,-4.306c1.04,-1.213 2.387,-2.148 4.039,-2.805c1.653,-0.657 3.567,-0.985 5.743,-0.985c1.522,-0 2.976,0.178 4.364,0.534c1.387,0.356 2.622,0.906 3.704,1.648c1.082,0.742 1.937,1.696 2.565,2.862c0.629,1.166 0.943,2.562 0.943,4.189l0,18.394l-7.173,0l-0,-3.778l-0.213,0c-0.44,0.848 -1.026,1.594 -1.756,2.241c-0.73,0.646 -1.612,1.149 -2.646,1.509c-1.033,0.36 -2.222,0.54 -3.567,0.54Zm2.174,-5.213c1.11,-0 2.091,-0.223 2.942,-0.668c0.851,-0.445 1.518,-1.048 2.001,-1.808c0.483,-0.759 0.724,-1.615 0.724,-2.567l0,-2.898c-0.227,0.149 -0.547,0.287 -0.96,0.412c-0.413,0.126 -0.873,0.238 -1.378,0.338c-0.506,0.099 -1.012,0.188 -1.52,0.266c-0.508,0.078 -0.969,0.147 -1.383,0.206c-0.89,0.128 -1.668,0.334 -2.332,0.62c-0.664,0.285 -1.18,0.667 -1.548,1.147c-0.368,0.479 -0.552,1.074 -0.552,1.784c-0,1.037 0.376,1.824 1.129,2.362c0.753,0.537 1.712,0.806 2.877,0.806Z" style="fill-rule:nonzero;"/><path d="M728.066,506.664l0,-27.272l7.202,-0l0,4.815l0.312,0c0.569,-1.605 1.518,-2.868 2.848,-3.789c1.331,-0.921 2.919,-1.381 4.766,-1.381c1.87,-0 3.461,0.465 4.773,1.397c1.311,0.932 2.187,2.189 2.628,3.773l0.284,0c0.556,-1.565 1.565,-2.818 3.025,-3.759c1.461,-0.941 3.189,-1.411 5.185,-1.411c2.545,-0 4.616,0.808 6.213,2.425c1.596,1.617 2.395,3.905 2.395,6.864l-0,18.338l-7.557,0l0,-16.846c0,-1.523 -0.401,-2.661 -1.204,-3.415c-0.802,-0.754 -1.807,-1.131 -3.015,-1.131c-1.37,0 -2.442,0.435 -3.215,1.305c-0.773,0.87 -1.16,2.017 -1.16,3.439l0,16.648l-7.329,0l-0,-17.017c-0,-1.337 -0.382,-2.401 -1.147,-3.191c-0.765,-0.789 -1.77,-1.184 -3.015,-1.184c-0.841,0 -1.595,0.208 -2.262,0.625c-0.668,0.417 -1.196,1.002 -1.586,1.756c-0.389,0.754 -0.584,1.637 -0.584,2.648l0,16.363l-7.557,0Z" style="fill-rule:nonzero;"/><path d="M783.947,507.19c-2.798,-0 -5.208,-0.569 -7.228,-1.706c-2.021,-1.138 -3.575,-2.757 -4.663,-4.858c-1.088,-2.101 -1.632,-4.591 -1.632,-7.47c0,-2.808 0.546,-5.271 1.637,-7.39c1.092,-2.119 2.627,-3.77 4.606,-4.954c1.979,-1.184 4.306,-1.775 6.982,-1.775c1.804,-0 3.483,0.286 5.039,0.859c1.555,0.573 2.915,1.435 4.08,2.587c1.165,1.152 2.074,2.594 2.727,4.327c0.654,1.733 0.98,3.758 0.98,6.076l0,2.074l-23.025,-0l-0,-4.688l15.909,0c-0.007,-1.084 -0.248,-2.047 -0.723,-2.888c-0.474,-0.842 -1.129,-1.504 -1.963,-1.986c-0.835,-0.481 -1.8,-0.722 -2.896,-0.722c-1.144,-0 -2.157,0.265 -3.04,0.797c-0.883,0.531 -1.574,1.237 -2.072,2.118c-0.499,0.881 -0.755,1.86 -0.769,2.937l-0,4.46c-0,1.35 0.253,2.516 0.76,3.498c0.506,0.983 1.221,1.739 2.145,2.269c0.923,0.531 2.014,0.796 3.274,0.796c0.845,-0 1.615,-0.12 2.31,-0.359c0.695,-0.239 1.293,-0.593 1.795,-1.063c0.502,-0.47 0.881,-1.047 1.136,-1.732l6.989,0.455c-0.355,1.686 -1.078,3.153 -2.17,4.402c-1.091,1.248 -2.499,2.217 -4.224,2.904c-1.725,0.688 -3.713,1.032 -5.964,1.032Z" style="fill-rule:nonzero;"/></g><g transform="matrix(1.29373,0,0,1.29373,557.68,405.932)"><g transform="matrix(50,0,0,50,0,0)"><rect x="0.063" y="-0.727" width="0.154" height="0.727" style="fill-rule:nonzero;"/></g><g transform="matrix(50,0,0,50,13.2102,0)"><path d="M0.149,0.009c-0.024,0 -0.044,-0.008 -0.06,-0.025c-0.017,-0.016 -0.026,-0.037 -0.025,-0.06c-0.001,-0.023 0.008,-0.043 0.025,-0.06c0.016,-0.016 0.036,-0.025 0.06,-0.025c0.022,0 0.042,0.009 0.059,0.025c0.017,0.017 0.026,0.037 0.026,0.06c-0,0.016 -0.004,0.03 -0.012,0.043c-0.008,0.013 -0.018,0.023 -0.031,0.031c-0.013,0.007 -0.027,0.011 -0.042,0.011Z" style="fill-rule:nonzero;"/></g><g transform="matrix(50,0,0,50,41.0511,0)"><path d="M0.705,-0.473l-0.156,0c-0.003,-0.02 -0.008,-0.038 -0.017,-0.053c-0.009,-0.016 -0.02,-0.03 -0.034,-0.041c-0.013,-0.011 -0.029,-0.02 -0.047,-0.025c-0.018,-0.006 -0.037,-0.009 -0.058,-0.009c-0.038,-0 -0.071,0.009 -0.099,0.028c-0.028,0.018 -0.049,0.045 -0.065,0.081c-0.015,0.035 -0.023,0.078 -0.023,0.128c0,0.052 0.008,0.096 0.024,0.131c0.015,0.035 0.037,0.062 0.065,0.08c0.028,0.018 0.06,0.027 0.097,0.027c0.02,-0 0.039,-0.003 0.057,-0.008c0.018,-0.006 0.033,-0.014 0.047,-0.024c0.014,-0.011 0.025,-0.024 0.034,-0.039c0.01,-0.015 0.016,-0.032 0.019,-0.052l0.156,0.001c-0.004,0.034 -0.014,0.066 -0.03,0.097c-0.016,0.03 -0.038,0.058 -0.064,0.082c-0.027,0.025 -0.059,0.044 -0.096,0.058c-0.037,0.014 -0.079,0.021 -0.126,0.021c-0.065,-0 -0.123,-0.015 -0.174,-0.044c-0.051,-0.029 -0.091,-0.072 -0.121,-0.128c-0.029,-0.055 -0.044,-0.123 -0.044,-0.202c0,-0.079 0.015,-0.146 0.045,-0.202c0.03,-0.056 0.07,-0.098 0.121,-0.127c0.052,-0.03 0.109,-0.044 0.173,-0.044c0.042,-0 0.082,0.006 0.118,0.017c0.036,0.012 0.068,0.029 0.096,0.052c0.028,0.023 0.05,0.05 0.068,0.083c0.018,0.033 0.029,0.07 0.034,0.112Z" style="fill-rule:nonzero;"/></g><g transform="matrix(50,0,0,50,77.4148,0)"><path d="M0.307,0.011c-0.055,-0 -0.103,-0.012 -0.143,-0.036c-0.04,-0.023 -0.071,-0.056 -0.093,-0.098c-0.022,-0.043 -0.033,-0.092 -0.033,-0.148c0,-0.056 0.011,-0.105 0.033,-0.148c0.022,-0.042 0.053,-0.075 0.093,-0.098c0.04,-0.024 0.088,-0.036 0.143,-0.036c0.055,0 0.103,0.012 0.143,0.036c0.04,0.023 0.071,0.056 0.093,0.098c0.021,0.043 0.032,0.092 0.032,0.148c0,0.056 -0.011,0.105 -0.032,0.148c-0.022,0.042 -0.053,0.075 -0.093,0.098c-0.04,0.024 -0.088,0.036 -0.143,0.036Zm0.001,-0.118c0.025,0 0.045,-0.007 0.062,-0.021c0.017,-0.014 0.03,-0.034 0.039,-0.059c0.008,-0.025 0.013,-0.053 0.013,-0.085c-0,-0.031 -0.005,-0.06 -0.013,-0.085c-0.009,-0.024 -0.022,-0.044 -0.039,-0.059c-0.017,-0.014 -0.037,-0.021 -0.062,-0.021c-0.026,-0 -0.047,0.007 -0.064,0.021c-0.018,0.015 -0.03,0.035 -0.039,0.059c-0.009,0.025 -0.013,0.054 -0.013,0.085c0,0.032 0.004,0.06 0.013,0.085c0.009,0.025 0.021,0.045 0.039,0.059c0.017,0.014 0.038,0.021 0.064,0.021Z" style="fill-rule:nonzero;"/></g><g transform="matrix(50,0,0,50,107.244,0)"><path d="M0.212,-0.315l-0,0.315l-0.151,-0l-0,-0.545l0.144,-0l-0,0.096l0.006,-0c0.012,-0.032 0.032,-0.057 0.061,-0.076c0.028,-0.018 0.063,-0.028 0.103,-0.028c0.038,0 0.071,0.009 0.099,0.025c0.028,0.017 0.05,0.041 0.066,0.071c0.015,0.031 0.023,0.067 0.023,0.11l0,0.347l-0.151,-0l-0,-0.32c0,-0.034 -0.008,-0.06 -0.026,-0.079c-0.017,-0.019 -0.041,-0.028 -0.071,-0.028c-0.02,0 -0.038,0.004 -0.054,0.013c-0.015,0.009 -0.027,0.022 -0.036,0.038c-0.009,0.017 -0.013,0.037 -0.013,0.061Z" style="fill-rule:nonzero;"/></g><g transform="matrix(50,0,0,50,136.506,0)"><path d="M0.351,-0.545l-0,0.113l-0.329,0l-0,-0.113l0.329,-0Zm-0.254,-0.131l0.151,-0l-0,0.508c-0,0.014 0.002,0.025 0.006,0.033c0.005,0.008 0.011,0.013 0.018,0.016c0.008,0.003 0.017,0.005 0.027,0.005c0.007,-0 0.014,-0.001 0.021,-0.002c0.008,-0.002 0.013,-0.003 0.017,-0.003l0.024,0.112c-0.008,0.003 -0.019,0.006 -0.032,0.009c-0.014,0.003 -0.031,0.005 -0.051,0.006c-0.036,0.001 -0.068,-0.004 -0.095,-0.015c-0.028,-0.011 -0.049,-0.028 -0.064,-0.052c-0.015,-0.023 -0.023,-0.053 -0.022,-0.089l-0,-0.528Z" style="fill-rule:nonzero;"/></g><g transform="matrix(50,0,0,50,154.688,0)"><path d="M0.216,0.01c-0.035,0 -0.066,-0.006 -0.093,-0.018c-0.027,-0.012 -0.049,-0.03 -0.064,-0.054c-0.016,-0.024 -0.024,-0.054 -0.024,-0.09c-0,-0.031 0.005,-0.056 0.016,-0.077c0.012,-0.02 0.027,-0.037 0.046,-0.049c0.019,-0.013 0.041,-0.022 0.065,-0.029c0.025,-0.006 0.051,-0.011 0.078,-0.013c0.031,-0.004 0.057,-0.007 0.076,-0.01c0.02,-0.003 0.034,-0.007 0.043,-0.013c0.008,-0.006 0.013,-0.015 0.013,-0.026l-0,-0.002c-0,-0.023 -0.007,-0.04 -0.021,-0.053c-0.015,-0.012 -0.034,-0.018 -0.06,-0.018c-0.027,-0 -0.049,0.006 -0.065,0.018c-0.016,0.012 -0.027,0.027 -0.032,0.045l-0.14,-0.012c0.007,-0.033 0.021,-0.061 0.042,-0.086c0.021,-0.024 0.048,-0.043 0.081,-0.056c0.033,-0.013 0.071,-0.02 0.114,-0.02c0.031,0 0.06,0.004 0.088,0.011c0.028,0.007 0.052,0.018 0.074,0.033c0.021,0.015 0.039,0.034 0.051,0.057c0.013,0.024 0.019,0.052 0.019,0.084l0,0.368l-0.143,0l-0,-0.076l-0.005,0c-0.009,0.017 -0.02,0.032 -0.035,0.045c-0.014,0.013 -0.032,0.023 -0.053,0.03c-0.02,0.008 -0.044,0.011 -0.071,0.011Zm0.043,-0.104c0.023,-0 0.042,-0.004 0.059,-0.013c0.017,-0.009 0.031,-0.021 0.04,-0.037c0.01,-0.015 0.015,-0.032 0.015,-0.051l-0,-0.058c-0.005,0.003 -0.011,0.006 -0.019,0.008c-0.009,0.003 -0.018,0.005 -0.028,0.007c-0.01,0.002 -0.02,0.004 -0.03,0.005c-0.011,0.002 -0.02,0.003 -0.028,0.005c-0.018,0.002 -0.033,0.006 -0.047,0.012c-0.013,0.006 -0.023,0.013 -0.031,0.023c-0.007,0.01 -0.011,0.021 -0.011,0.036c0,0.02 0.008,0.036 0.023,0.047c0.015,0.011 0.034,0.016 0.057,0.016Z" style="fill-rule:nonzero;"/></g><g transform="matrix(50,0,0,50,182.884,0)"><path d="M0.307,0.011c-0.056,-0 -0.104,-0.012 -0.144,-0.036c-0.04,-0.024 -0.071,-0.057 -0.092,-0.099c-0.022,-0.043 -0.033,-0.091 -0.033,-0.147c0,-0.055 0.011,-0.104 0.033,-0.147c0.022,-0.042 0.052,-0.075 0.092,-0.099c0.04,-0.024 0.088,-0.036 0.143,-0.036c0.048,0 0.089,0.009 0.125,0.026c0.036,0.018 0.064,0.042 0.085,0.073c0.021,0.032 0.032,0.068 0.034,0.11l-0.142,0c-0.004,-0.027 -0.015,-0.049 -0.032,-0.066c-0.017,-0.016 -0.04,-0.025 -0.067,-0.025c-0.024,0 -0.044,0.007 -0.062,0.019c-0.017,0.013 -0.031,0.031 -0.04,0.056c-0.01,0.024 -0.015,0.053 -0.015,0.087c0,0.035 0.005,0.065 0.014,0.089c0.01,0.024 0.024,0.043 0.041,0.056c0.018,0.013 0.038,0.019 0.062,0.019c0.017,-0 0.032,-0.004 0.046,-0.011c0.014,-0.007 0.025,-0.017 0.035,-0.031c0.009,-0.013 0.015,-0.03 0.018,-0.049l0.142,-0c-0.002,0.042 -0.013,0.078 -0.034,0.11c-0.02,0.032 -0.048,0.056 -0.083,0.074c-0.036,0.018 -0.078,0.027 -0.126,0.027Z" style="fill-rule:nonzero;"/></g><g transform="matrix(50,0,0,50,210.795,0)"><path d="M0.351,-0.545l-0,0.113l-0.329,0l-0,-0.113l0.329,-0Zm-0.254,-0.131l0.151,-0l-0,0.508c-0,0.014 0.002,0.025 0.006,0.033c0.005,0.008 0.011,0.013 0.018,0.016c0.008,0.003 0.017,0.005 0.027,0.005c0.007,-0 0.014,-0.001 0.021,-0.002c0.008,-0.002 0.013,-0.003 0.017,-0.003l0.024,0.112c-0.008,0.003 -0.019,0.006 -0.032,0.009c-0.014,0.003 -0.031,0.005 -0.051,0.006c-0.036,0.001 -0.068,-0.004 -0.095,-0.015c-0.028,-0.011 -0.049,-0.028 -0.064,-0.052c-0.015,-0.023 -0.023,-0.053 -0.022,-0.089l-0,-0.528Z" style="fill-rule:nonzero;"/></g><g transform="matrix(50,0,0,50,243.04,0)"><path d="M0.321,-0l-0.258,-0l0,-0.727l0.26,-0c0.073,-0 0.136,0.014 0.189,0.043c0.053,0.029 0.094,0.071 0.122,0.125c0.029,0.054 0.043,0.119 0.043,0.195c-0,0.076 -0.014,0.141 -0.043,0.195c-0.028,0.055 -0.069,0.096 -0.122,0.125c-0.054,0.029 -0.117,0.044 -0.191,0.044Zm-0.104,-0.132l0.097,0c0.046,0 0.084,-0.008 0.116,-0.024c0.031,-0.016 0.054,-0.042 0.07,-0.076c0.016,-0.034 0.024,-0.078 0.024,-0.132c-0,-0.054 -0.008,-0.098 -0.024,-0.132c-0.016,-0.034 -0.039,-0.059 -0.07,-0.075c-0.031,-0.016 -0.069,-0.024 -0.115,-0.024l-0.098,-0l0,0.463Z" style="fill-rule:nonzero;"/></g><g transform="matrix(50,0,0,50,278.977,0)"><path d="M0.309,0.011c-0.056,-0 -0.104,-0.012 -0.145,-0.035c-0.04,-0.022 -0.071,-0.055 -0.093,-0.097c-0.022,-0.042 -0.033,-0.092 -0.033,-0.149c0,-0.056 0.011,-0.106 0.033,-0.148c0.022,-0.042 0.053,-0.075 0.092,-0.099c0.04,-0.024 0.086,-0.036 0.14,-0.036c0.036,0 0.07,0.006 0.101,0.018c0.031,0.011 0.058,0.028 0.081,0.051c0.024,0.023 0.042,0.052 0.055,0.087c0.013,0.035 0.019,0.075 0.019,0.121l0,0.042l-0.46,-0l-0,-0.094l0.318,0c-0,-0.022 -0.005,-0.041 -0.014,-0.058c-0.01,-0.016 -0.023,-0.03 -0.04,-0.039c-0.016,-0.01 -0.036,-0.015 -0.058,-0.015c-0.022,0 -0.043,0.006 -0.06,0.016c-0.018,0.011 -0.032,0.025 -0.042,0.043c-0.01,0.017 -0.015,0.037 -0.015,0.058l-0,0.089c-0,0.027 0.005,0.051 0.015,0.07c0.01,0.02 0.024,0.035 0.043,0.046c0.018,0.01 0.04,0.016 0.065,0.016c0.017,-0 0.033,-0.003 0.047,-0.007c0.013,-0.005 0.025,-0.012 0.035,-0.022c0.011,-0.009 0.018,-0.021 0.023,-0.034l0.14,0.009c-0.007,0.033 -0.022,0.063 -0.043,0.088c-0.022,0.025 -0.05,0.044 -0.085,0.058c-0.034,0.014 -0.074,0.021 -0.119,0.021Z" style="fill-rule:nonzero;"/></g><g transform="matrix(50,0,0,50,308.097,0)"><path d="M0.351,-0.545l-0,0.113l-0.329,0l-0,-0.113l0.329,-0Zm-0.254,-0.131l0.151,-0l-0,0.508c-0,0.014 0.002,0.025 0.006,0.033c0.005,0.008 0.011,0.013 0.018,0.016c0.008,0.003 0.017,0.005 0.027,0.005c0.007,-0 0.014,-0.001 0.021,-0.002c0.008,-0.002 0.013,-0.003 0.017,-0.003l0.024,0.112c-0.008,0.003 -0.019,0.006 -0.032,0.009c-0.014,0.003 -0.031,0.005 -0.051,0.006c-0.036,0.001 -0.068,-0.004 -0.095,-0.015c-0.028,-0.011 -0.049,-0.028 -0.064,-0.052c-0.015,-0.023 -0.023,-0.053 -0.022,-0.089l-0,-0.528Z" style="fill-rule:nonzero;"/></g><g transform="matrix(50,0,0,50,326.278,0)"><path d="M0.216,0.01c-0.035,0 -0.066,-0.006 -0.093,-0.018c-0.027,-0.012 -0.049,-0.03 -0.064,-0.054c-0.016,-0.024 -0.024,-0.054 -0.024,-0.09c-0,-0.031 0.005,-0.056 0.016,-0.077c0.012,-0.02 0.027,-0.037 0.046,-0.049c0.019,-0.013 0.041,-0.022 0.065,-0.029c0.025,-0.006 0.051,-0.011 0.078,-0.013c0.031,-0.004 0.057,-0.007 0.076,-0.01c0.02,-0.003 0.034,-0.007 0.043,-0.013c0.008,-0.006 0.013,-0.015 0.013,-0.026l-0,-0.002c-0,-0.023 -0.007,-0.04 -0.021,-0.053c-0.015,-0.012 -0.034,-0.018 -0.06,-0.018c-0.027,-0 -0.049,0.006 -0.065,0.018c-0.016,0.012 -0.027,0.027 -0.032,0.045l-0.14,-0.012c0.007,-0.033 0.021,-0.061 0.042,-0.086c0.021,-0.024 0.048,-0.043 0.081,-0.056c0.033,-0.013 0.071,-0.02 0.114,-0.02c0.031,0 0.06,0.004 0.088,0.011c0.028,0.007 0.052,0.018 0.074,0.033c0.021,0.015 0.039,0.034 0.051,0.057c0.013,0.024 0.019,0.052 0.019,0.084l0,0.368l-0.143,0l-0,-0.076l-0.005,0c-0.009,0.017 -0.02,0.032 -0.035,0.045c-0.014,0.013 -0.032,0.023 -0.053,0.03c-0.02,0.008 -0.044,0.011 -0.071,0.011Zm0.043,-0.104c0.023,-0 0.042,-0.004 0.059,-0.013c0.017,-0.009 0.031,-0.021 0.04,-0.037c0.01,-0.015 0.015,-0.032 0.015,-0.051l-0,-0.058c-0.005,0.003 -0.011,0.006 -0.019,0.008c-0.009,0.003 -0.018,0.005 -0.028,0.007c-0.01,0.002 -0.02,0.004 -0.03,0.005c-0.011,0.002 -0.02,0.003 -0.028,0.005c-0.018,0.002 -0.033,0.006 -0.047,0.012c-0.013,0.006 -0.023,0.013 -0.031,0.023c-0.007,0.01 -0.011,0.021 -0.011,0.036c0,0.02 0.008,0.036 0.023,0.047c0.015,0.011 0.034,0.016 0.057,0.016Z" style="fill-rule:nonzero;"/></g><g transform="matrix(50,0,0,50,354.474,0)"><path d="M0.06,-0l0,-0.545l0.152,-0l-0,0.545l-0.152,-0Zm0.077,-0.616c-0.023,0 -0.042,-0.007 -0.058,-0.022c-0.016,-0.015 -0.024,-0.033 -0.024,-0.054c-0,-0.021 0.008,-0.039 0.024,-0.054c0.016,-0.015 0.035,-0.023 0.057,-0.023c0.023,0 0.042,0.008 0.058,0.023c0.016,0.015 0.024,0.033 0.024,0.054c0,0.021 -0.008,0.039 -0.024,0.054c-0.016,0.015 -0.035,0.022 -0.057,0.022Z" style="fill-rule:nonzero;"/></g><g transform="matrix(50,0,0,50,366.335,0)"><rect x="0.061" y="-0.727" width="0.151" height="0.727" style="fill-rule:nonzero;"/></g><g transform="matrix(50,0,0,50,378.196,0)"><path d="M0.514,-0.39l-0.138,0.008c-0.003,-0.011 -0.008,-0.022 -0.015,-0.031c-0.008,-0.01 -0.018,-0.018 -0.031,-0.024c-0.013,-0.005 -0.028,-0.008 -0.046,-0.008c-0.023,-0 -0.043,0.005 -0.059,0.015c-0.016,0.009 -0.024,0.022 -0.024,0.039c-0,0.013 0.005,0.024 0.016,0.033c0.01,0.009 0.028,0.016 0.053,0.021l0.099,0.02c0.053,0.011 0.093,0.029 0.119,0.053c0.026,0.024 0.039,0.056 0.039,0.095c-0,0.036 -0.011,0.067 -0.032,0.094c-0.021,0.027 -0.049,0.048 -0.086,0.063c-0.036,0.015 -0.078,0.023 -0.125,0.023c-0.072,-0 -0.13,-0.016 -0.173,-0.046c-0.043,-0.03 -0.067,-0.071 -0.075,-0.123l0.149,-0.008c0.005,0.022 0.015,0.039 0.033,0.05c0.017,0.012 0.039,0.018 0.066,0.018c0.027,-0 0.048,-0.005 0.064,-0.016c0.016,-0.01 0.025,-0.023 0.025,-0.04c-0,-0.014 -0.006,-0.025 -0.017,-0.034c-0.012,-0.009 -0.029,-0.015 -0.053,-0.02l-0.094,-0.019c-0.054,-0.011 -0.093,-0.029 -0.119,-0.055c-0.026,-0.027 -0.039,-0.06 -0.039,-0.101c-0,-0.035 0.009,-0.065 0.028,-0.09c0.019,-0.026 0.046,-0.045 0.081,-0.059c0.035,-0.014 0.075,-0.021 0.122,-0.021c0.069,0 0.123,0.015 0.163,0.044c0.039,0.029 0.063,0.069 0.069,0.119Z" style="fill-rule:nonzero;"/></g><rect x="0" y="8.239" width="404.332" height="3.409"/></g></g><g><g><g><g><g><path d="M1181.46,797.612c-0,-15.616 -13.902,-28.292 -31.025,-28.292l-550.569,-0c-17.122,-0 -31.024,12.676 -31.024,28.292l-0,56.584c-0,15.615 13.902,28.292 31.024,28.292l550.569,0c17.123,0 31.025,-12.677 31.025,-28.292l-0,-56.584Z" style="fill:#fff;stroke:#212529;stroke-width:14.24px;"/><path d="M617.27,838.155c-2.375,-0 -4.42,-0.483 -6.136,-1.448c-1.715,-0.966 -3.034,-2.34 -3.957,-4.124c-0.923,-1.783 -1.385,-3.896 -1.385,-6.34c-0,-2.383 0.463,-4.474 1.39,-6.272c0.926,-1.799 2.229,-3.2 3.909,-4.205c1.68,-1.005 3.655,-1.507 5.925,-1.507c1.532,0 2.957,0.243 4.278,0.729c1.32,0.487 2.474,1.219 3.463,2.196c0.988,0.978 1.76,2.202 2.315,3.673c0.554,1.471 0.832,3.19 0.832,5.157l-0,1.76l-19.544,0l0,-3.978l13.503,-0c-0.006,-0.921 -0.21,-1.738 -0.613,-2.452c-0.403,-0.715 -0.959,-1.276 -1.667,-1.685c-0.708,-0.409 -1.528,-0.614 -2.458,-0.614c-0.971,0 -1.831,0.226 -2.58,0.677c-0.75,0.451 -1.336,1.05 -1.759,1.798c-0.423,0.748 -0.64,1.579 -0.652,2.493l-0,3.785c-0,1.146 0.215,2.136 0.645,2.969c0.43,0.834 1.036,1.476 1.82,1.926c0.784,0.451 1.71,0.676 2.779,0.676c0.718,-0 1.371,-0.102 1.961,-0.305c0.59,-0.203 1.098,-0.504 1.524,-0.903c0.426,-0.398 0.747,-0.888 0.964,-1.469l5.932,0.386c-0.302,1.431 -0.916,2.676 -1.842,3.736c-0.926,1.06 -2.121,1.882 -3.585,2.465c-1.464,0.584 -3.151,0.876 -5.062,0.876Z" style="fill:#5e5e5e;fill-rule:nonzero;"/><path d="M635.198,838.095c-0.997,-0 -1.851,-0.353 -2.561,-1.057c-0.71,-0.704 -1.062,-1.557 -1.056,-2.56c-0.006,-0.985 0.346,-1.828 1.056,-2.529c0.71,-0.701 1.564,-1.052 2.561,-1.052c0.96,-0 1.801,0.351 2.524,1.052c0.722,0.701 1.086,1.544 1.093,2.529c-0.007,0.667 -0.178,1.274 -0.514,1.822c-0.337,0.547 -0.777,0.983 -1.319,1.308c-0.543,0.324 -1.137,0.487 -1.784,0.487Z" style="fill:#5e5e5e;fill-rule:nonzero;"/><path d="M665.508,846.727c-2.08,0 -3.863,-0.282 -5.349,-0.845c-1.486,-0.564 -2.665,-1.324 -3.539,-2.279c-0.873,-0.956 -1.439,-2.016 -1.698,-3.181l5.944,-0.796c0.177,0.416 0.46,0.813 0.85,1.192c0.389,0.379 0.908,0.689 1.556,0.93c0.648,0.241 1.442,0.361 2.38,0.361c1.393,0 2.545,-0.331 3.456,-0.994c0.911,-0.663 1.367,-1.754 1.367,-3.274l-0,-4.231l-0.265,-0c-0.286,0.639 -0.711,1.246 -1.275,1.822c-0.565,0.575 -1.287,1.045 -2.167,1.407c-0.881,0.363 -1.936,0.544 -3.165,0.544c-1.737,0 -3.315,-0.405 -4.737,-1.217c-1.422,-0.812 -2.553,-2.053 -3.394,-3.723c-0.841,-1.67 -1.261,-3.788 -1.261,-6.357c-0,-2.624 0.427,-4.813 1.282,-6.567c0.855,-1.754 1.994,-3.07 3.418,-3.946c1.424,-0.876 2.984,-1.314 4.68,-1.314c1.29,0 2.372,0.219 3.246,0.656c0.874,0.437 1.581,0.978 2.122,1.624c0.54,0.646 0.953,1.285 1.239,1.916l0.253,-0l-0,-3.894l6.365,-0l0,23.377c0,1.923 -0.482,3.537 -1.448,4.842c-0.965,1.305 -2.299,2.289 -4.001,2.953c-1.702,0.663 -3.655,0.994 -5.859,0.994Zm0.132,-14.166c1.029,-0 1.904,-0.259 2.627,-0.776c0.722,-0.518 1.275,-1.261 1.658,-2.231c0.383,-0.969 0.574,-2.133 0.574,-3.492c0,-1.354 -0.189,-2.532 -0.568,-3.534c-0.379,-1.001 -0.93,-1.778 -1.652,-2.33c-0.722,-0.551 -1.602,-0.827 -2.639,-0.827c-1.061,-0 -1.953,0.284 -2.675,0.851c-0.722,0.568 -1.269,1.355 -1.64,2.361c-0.37,1.005 -0.556,2.165 -0.556,3.479c0,1.331 0.188,2.481 0.562,3.453c0.375,0.972 0.924,1.722 1.646,2.252c0.722,0.529 1.61,0.794 2.663,0.794Z" style="fill:#5e5e5e;fill-rule:nonzero;"/><path d="M684.689,838.095c-0.996,-0 -1.85,-0.353 -2.56,-1.057c-0.711,-0.704 -1.063,-1.557 -1.057,-2.56c-0.006,-0.985 0.346,-1.828 1.057,-2.529c0.71,-0.701 1.564,-1.052 2.56,-1.052c0.961,-0 1.802,0.351 2.525,1.052c0.722,0.701 1.086,1.544 1.092,2.529c-0.006,0.667 -0.177,1.274 -0.514,1.822c-0.336,0.547 -0.776,0.983 -1.318,1.308c-0.543,0.324 -1.138,0.487 -1.785,0.487Z" style="fill:#5e5e5e;fill-rule:nonzero;"/><path d="M704.564,814.561l6.42,-0l0,24.218c0,1.788 -0.354,3.245 -1.062,4.37c-0.708,1.126 -1.723,1.947 -3.044,2.464c-1.322,0.518 -2.911,0.751 -4.77,0.701l-0.535,0c-0.186,0 -0.405,-0.01 -0.656,-0.03l0,-5.018c0.171,0.01 0.319,0.017 0.445,0.022c0.125,0.005 0.259,0.008 0.399,0.008c1.035,-0 1.761,-0.219 2.178,-0.656c0.417,-0.437 0.625,-1.093 0.625,-1.967l0,-24.112Zm3.21,-2.984c-0.954,-0 -1.773,-0.319 -2.456,-0.957c-0.683,-0.638 -1.025,-1.405 -1.025,-2.299c0,-0.884 0.342,-1.645 1.025,-2.283c0.683,-0.638 1.497,-0.957 2.441,-0.957c0.965,0 1.786,0.319 2.464,0.957c0.678,0.638 1.018,1.399 1.018,2.283c-0,0.894 -0.34,1.661 -1.018,2.299c-0.678,0.638 -1.494,0.957 -2.449,0.957Z" style="fill:#5e5e5e;fill-rule:nonzero;"/><path d="M721.232,838.143c-1.472,-0 -2.787,-0.258 -3.944,-0.773c-1.156,-0.516 -2.068,-1.284 -2.735,-2.304c-0.667,-1.021 -1.001,-2.294 -1.001,-3.819c0,-1.29 0.235,-2.371 0.703,-3.242c0.468,-0.871 1.109,-1.573 1.923,-2.105c0.814,-0.533 1.741,-0.937 2.783,-1.212c1.042,-0.275 2.137,-0.468 3.284,-0.579c1.34,-0.132 2.423,-0.261 3.248,-0.387c0.825,-0.126 1.424,-0.314 1.798,-0.567c0.373,-0.252 0.56,-0.625 0.56,-1.119l0,-0.085c0,-0.956 -0.3,-1.696 -0.901,-2.218c-0.601,-0.523 -1.446,-0.784 -2.535,-0.784c-1.155,0 -2.075,0.253 -2.759,0.758c-0.684,0.505 -1.135,1.141 -1.352,1.907l-5.944,-0.483c0.302,-1.406 0.894,-2.625 1.777,-3.654c0.883,-1.03 2.026,-1.824 3.429,-2.381c1.402,-0.558 3.027,-0.837 4.873,-0.837c1.292,0 2.527,0.151 3.705,0.454c1.177,0.302 2.225,0.768 3.143,1.398c0.919,0.63 1.645,1.44 2.178,2.43c0.534,0.989 0.8,2.174 0.8,3.555l0,15.613l-6.088,-0l-0,-3.207l-0.181,-0c-0.374,0.719 -0.87,1.353 -1.49,1.902c-0.62,0.548 -1.369,0.975 -2.246,1.281c-0.877,0.305 -1.886,0.458 -3.028,0.458Zm1.845,-4.425c0.942,0 1.775,-0.189 2.497,-0.566c0.723,-0.378 1.289,-0.89 1.699,-1.535c0.41,-0.645 0.615,-1.371 0.615,-2.179l-0,-2.459c-0.193,0.126 -0.465,0.243 -0.816,0.349c-0.35,0.107 -0.74,0.202 -1.169,0.287c-0.429,0.084 -0.859,0.159 -1.29,0.226c-0.431,0.066 -0.823,0.124 -1.174,0.174c-0.756,0.109 -1.415,0.284 -1.979,0.526c-0.564,0.243 -1.002,0.567 -1.314,0.974c-0.313,0.407 -0.469,0.912 -0.469,1.515c0,0.88 0.32,1.548 0.959,2.004c0.639,0.456 1.452,0.684 2.441,0.684Z" style="fill:#5e5e5e;fill-rule:nonzero;"/><path d="M744.984,824.326l-0,13.383l-6.414,-0l-0,-23.148l6.112,-0l0,4.087l0.265,-0c0.519,-1.351 1.38,-2.42 2.585,-3.207c1.205,-0.788 2.666,-1.182 4.384,-1.182c1.609,0 3.012,0.352 4.209,1.057c1.197,0.704 2.126,1.706 2.788,3.006c0.662,1.3 0.99,2.847 0.984,4.642l0,14.745l-6.414,-0l0,-13.6c0.006,-1.414 -0.356,-2.522 -1.086,-3.321c-0.731,-0.8 -1.739,-1.2 -3.025,-1.2c-0.864,-0 -1.626,0.187 -2.286,0.562c-0.66,0.375 -1.174,0.915 -1.542,1.622c-0.368,0.706 -0.555,1.558 -0.56,2.554Z" style="fill:#5e5e5e;fill-rule:nonzero;"/><path d="M773.943,838.155c-2.375,-0 -4.42,-0.483 -6.135,-1.448c-1.715,-0.966 -3.034,-2.34 -3.958,-4.124c-0.923,-1.783 -1.385,-3.896 -1.385,-6.34c0,-2.383 0.464,-4.474 1.39,-6.272c0.926,-1.799 2.229,-3.2 3.909,-4.205c1.68,-1.005 3.655,-1.507 5.926,-1.507c1.531,0 2.957,0.243 4.277,0.729c1.32,0.487 2.474,1.219 3.463,2.196c0.989,0.978 1.76,2.202 2.315,3.673c0.555,1.471 0.832,3.19 0.832,5.157l-0,1.76l-19.544,0l0,-3.978l13.504,-0c-0.006,-0.921 -0.211,-1.738 -0.614,-2.452c-0.403,-0.715 -0.958,-1.276 -1.667,-1.685c-0.708,-0.409 -1.527,-0.614 -2.458,-0.614c-0.97,0 -1.83,0.226 -2.58,0.677c-0.749,0.451 -1.336,1.05 -1.758,1.798c-0.423,0.748 -0.641,1.579 -0.653,2.493l-0,3.785c-0,1.146 0.215,2.136 0.645,2.969c0.43,0.834 1.037,1.476 1.82,1.926c0.784,0.451 1.71,0.676 2.78,0.676c0.717,-0 1.371,-0.102 1.96,-0.305c0.59,-0.203 1.098,-0.504 1.524,-0.903c0.426,-0.398 0.747,-0.888 0.964,-1.469l5.932,0.386c-0.301,1.431 -0.915,2.676 -1.841,3.736c-0.927,1.06 -2.122,1.882 -3.586,2.465c-1.464,0.584 -3.151,0.876 -5.062,0.876Z" style="fill:#5e5e5e;fill-rule:nonzero;"/><path d="M796.645,838.083c-1.76,-0 -3.35,-0.456 -4.769,-1.366c-1.42,-0.91 -2.545,-2.251 -3.376,-4.024c-0.831,-1.772 -1.247,-3.95 -1.247,-6.534c0,-2.649 0.428,-4.855 1.283,-6.619c0.855,-1.764 1.994,-3.086 3.418,-3.964c1.424,-0.878 2.983,-1.317 4.679,-1.317c1.29,0 2.37,0.219 3.241,0.656c0.87,0.437 1.573,0.978 2.109,1.624c0.537,0.646 0.948,1.285 1.233,1.916l0.193,-0l-0,-11.611l6.414,0l-0,30.865l-6.329,-0l-0,-3.701l-0.278,-0c-0.297,0.639 -0.722,1.271 -1.273,1.897c-0.552,0.626 -1.261,1.145 -2.128,1.558c-0.867,0.413 -1.924,0.62 -3.17,0.62Zm2.038,-5.112c1.029,-0 1.904,-0.284 2.627,-0.852c0.722,-0.567 1.275,-1.363 1.658,-2.387c0.382,-1.024 0.574,-2.223 0.574,-3.597c-0,-1.379 -0.19,-2.574 -0.568,-3.586c-0.379,-1.011 -0.93,-1.794 -1.652,-2.348c-0.723,-0.553 -1.602,-0.83 -2.639,-0.83c-1.061,-0 -1.953,0.285 -2.675,0.854c-0.723,0.57 -1.269,1.363 -1.64,2.379c-0.371,1.015 -0.556,2.192 -0.556,3.531c0,1.346 0.187,2.533 0.562,3.561c0.375,1.028 0.923,1.831 1.646,2.408c0.722,0.578 1.61,0.867 2.663,0.867Z" style="fill:#5e5e5e;fill-rule:nonzero;"/><path d="M824.918,838.155c-2.343,-0 -4.366,-0.499 -6.068,-1.497c-1.702,-0.997 -3.015,-2.392 -3.939,-4.183c-0.924,-1.791 -1.387,-3.877 -1.387,-6.256c0,-2.387 0.463,-4.478 1.387,-6.274c0.924,-1.795 2.237,-3.192 3.939,-4.189c1.702,-0.998 3.725,-1.497 6.068,-1.497c2.343,0 4.365,0.499 6.067,1.497c1.702,0.997 3.015,2.394 3.94,4.189c0.924,1.796 1.386,3.887 1.386,6.274c0,2.379 -0.462,4.465 -1.386,6.256c-0.925,1.791 -2.238,3.186 -3.94,4.183c-1.702,0.998 -3.724,1.497 -6.067,1.497Zm0.036,-4.967c1.057,-0 1.944,-0.305 2.661,-0.914c0.718,-0.608 1.259,-1.44 1.625,-2.495c0.366,-1.055 0.549,-2.254 0.549,-3.596c-0,-1.348 -0.183,-2.551 -0.549,-3.606c-0.366,-1.056 -0.907,-1.891 -1.625,-2.504c-0.717,-0.613 -1.604,-0.919 -2.661,-0.919c-1.081,-0 -1.986,0.306 -2.716,0.919c-0.729,0.613 -1.277,1.448 -1.643,2.504c-0.365,1.055 -0.548,2.258 -0.548,3.606c-0,1.342 0.183,2.541 0.548,3.596c0.366,1.055 0.914,1.887 1.643,2.495c0.73,0.609 1.635,0.914 2.716,0.914Z" style="fill:#5e5e5e;fill-rule:nonzero;"/><path d="M850.321,838.155c-2.376,-0 -4.421,-0.483 -6.136,-1.448c-1.715,-0.966 -3.034,-2.34 -3.957,-4.124c-0.923,-1.783 -1.385,-3.896 -1.385,-6.34c-0,-2.383 0.463,-4.474 1.389,-6.272c0.927,-1.799 2.23,-3.2 3.91,-4.205c1.68,-1.005 3.655,-1.507 5.925,-1.507c1.532,0 2.957,0.243 4.277,0.729c1.321,0.487 2.475,1.219 3.464,2.196c0.988,0.978 1.76,2.202 2.314,3.673c0.555,1.471 0.832,3.19 0.832,5.157l0,1.76l-19.543,0l-0,-3.978l13.503,-0c-0.006,-0.921 -0.21,-1.738 -0.613,-2.452c-0.403,-0.715 -0.959,-1.276 -1.667,-1.685c-0.708,-0.409 -1.528,-0.614 -2.458,-0.614c-0.971,0 -1.831,0.226 -2.58,0.677c-0.75,0.451 -1.336,1.05 -1.759,1.798c-0.423,0.748 -0.64,1.579 -0.652,2.493l-0,3.785c-0,1.146 0.215,2.136 0.644,2.969c0.43,0.834 1.037,1.476 1.821,1.926c0.784,0.451 1.71,0.676 2.779,0.676c0.717,-0 1.371,-0.102 1.961,-0.305c0.59,-0.203 1.098,-0.504 1.524,-0.903c0.426,-0.398 0.747,-0.888 0.964,-1.469l5.932,0.386c-0.302,1.431 -0.916,2.676 -1.842,3.736c-0.926,1.06 -2.121,1.882 -3.585,2.465c-1.464,0.584 -3.152,0.876 -5.062,0.876Z" style="fill:#5e5e5e;fill-rule:nonzero;"/><path d="M884.706,846.606c-3.207,0 -6.062,-0.434 -8.565,-1.303c-2.503,-0.869 -4.618,-2.142 -6.346,-3.818c-1.728,-1.675 -3.044,-3.718 -3.946,-6.127c-0.902,-2.409 -1.356,-5.154 -1.362,-8.235c0.006,-3.034 0.463,-5.785 1.371,-8.254c0.909,-2.468 2.236,-4.589 3.983,-6.363c1.748,-1.773 3.885,-3.138 6.413,-4.094c2.528,-0.957 5.409,-1.435 8.644,-1.435c2.998,-0 5.674,0.439 8.028,1.316c2.354,0.877 4.353,2.121 5.995,3.731c1.643,1.611 2.893,3.523 3.75,5.737c0.857,2.215 1.283,4.664 1.276,7.349c0.007,1.849 -0.154,3.547 -0.482,5.095c-0.327,1.549 -0.847,2.898 -1.558,4.05c-0.711,1.151 -1.639,2.06 -2.783,2.727c-1.145,0.668 -2.531,1.046 -4.158,1.137c-1.168,0.084 -2.113,-0.002 -2.837,-0.26c-0.723,-0.257 -1.273,-0.645 -1.648,-1.163c-0.376,-0.518 -0.621,-1.125 -0.736,-1.82l-0.181,-0c-0.235,0.606 -0.705,1.153 -1.41,1.639c-0.706,0.487 -1.562,0.861 -2.568,1.125c-1.007,0.263 -2.08,0.362 -3.219,0.298c-1.186,-0.068 -2.309,-0.346 -3.37,-0.832c-1.061,-0.486 -2.001,-1.187 -2.82,-2.101c-0.819,-0.914 -1.461,-2.044 -1.927,-3.389c-0.467,-1.346 -0.703,-2.903 -0.709,-4.674c0.006,-1.748 0.254,-3.269 0.743,-4.563c0.489,-1.294 1.138,-2.384 1.947,-3.27c0.809,-0.886 1.71,-1.578 2.704,-2.077c0.994,-0.498 1.993,-0.82 2.998,-0.964c1.131,-0.173 2.205,-0.173 3.222,0.001c1.016,0.174 1.872,0.45 2.568,0.829c0.695,0.379 1.128,0.789 1.299,1.231l0.217,0l-0,-1.688l4.714,0l-0,14.709c0.012,0.699 0.168,1.238 0.468,1.616c0.301,0.378 0.707,0.567 1.22,0.567c0.693,-0 1.274,-0.305 1.743,-0.915c0.469,-0.61 0.822,-1.548 1.058,-2.812c0.236,-1.265 0.351,-2.88 0.345,-4.846c0.006,-1.889 -0.24,-3.549 -0.74,-4.981c-0.499,-1.431 -1.192,-2.652 -2.078,-3.662c-0.886,-1.009 -1.917,-1.829 -3.094,-2.459c-1.176,-0.63 -2.45,-1.091 -3.82,-1.384c-1.371,-0.292 -2.78,-0.438 -4.229,-0.438c-2.506,-0 -4.693,0.379 -6.563,1.138c-1.87,0.758 -3.427,1.821 -4.671,3.188c-1.243,1.368 -2.174,2.968 -2.792,4.802c-0.618,1.833 -0.93,3.83 -0.936,5.991c0.006,2.381 0.339,4.488 0.999,6.32c0.66,1.833 1.632,3.372 2.915,4.618c1.283,1.246 2.868,2.19 4.756,2.832c1.888,0.642 4.058,0.962 6.509,0.962c1.16,0 2.292,-0.082 3.397,-0.248c1.105,-0.166 2.106,-0.367 3.002,-0.603c0.896,-0.236 1.613,-0.463 2.149,-0.68l1.495,4.365c-0.629,0.357 -1.485,0.695 -2.569,1.014c-1.085,0.318 -2.3,0.577 -3.648,0.775c-1.347,0.197 -2.735,0.296 -4.163,0.296Zm-0.7,-13.623c1.232,-0 2.212,-0.237 2.94,-0.71c0.729,-0.473 1.249,-1.175 1.562,-2.104c0.312,-0.929 0.459,-2.077 0.441,-3.443c-0.006,-1.206 -0.158,-2.228 -0.456,-3.067c-0.299,-0.839 -0.807,-1.478 -1.525,-1.917c-0.719,-0.439 -1.714,-0.659 -2.986,-0.659c-1.115,0 -2.062,0.236 -2.841,0.707c-0.778,0.471 -1.372,1.132 -1.781,1.983c-0.409,0.851 -0.616,1.847 -0.623,2.989c0.007,1.069 0.176,2.078 0.508,3.027c0.333,0.95 0.882,1.719 1.646,2.309c0.765,0.59 1.803,0.885 3.115,0.885Z" style="fill:#5e5e5e;fill-rule:nonzero;"/><path d="M914.654,846.727c-2.08,0 -3.863,-0.282 -5.349,-0.845c-1.486,-0.564 -2.665,-1.324 -3.538,-2.279c-0.873,-0.956 -1.44,-2.016 -1.699,-3.181l5.944,-0.796c0.177,0.416 0.46,0.813 0.85,1.192c0.39,0.379 0.909,0.689 1.557,0.93c0.648,0.241 1.441,0.361 2.379,0.361c1.393,0 2.545,-0.331 3.456,-0.994c0.911,-0.663 1.367,-1.754 1.367,-3.274l-0,-4.231l-0.265,-0c-0.286,0.639 -0.711,1.246 -1.275,1.822c-0.565,0.575 -1.287,1.045 -2.167,1.407c-0.88,0.363 -1.935,0.544 -3.165,0.544c-1.736,0 -3.315,-0.405 -4.737,-1.217c-1.421,-0.812 -2.553,-2.053 -3.394,-3.723c-0.841,-1.67 -1.261,-3.788 -1.261,-6.357c-0,-2.624 0.427,-4.813 1.282,-6.567c0.855,-1.754 1.995,-3.07 3.418,-3.946c1.424,-0.876 2.984,-1.314 4.68,-1.314c1.29,0 2.372,0.219 3.246,0.656c0.874,0.437 1.581,0.978 2.122,1.624c0.54,0.646 0.953,1.285 1.239,1.916l0.253,-0l-0,-3.894l6.366,-0l-0,23.377c-0,1.923 -0.483,3.537 -1.449,4.842c-0.965,1.305 -2.299,2.289 -4.001,2.953c-1.702,0.663 -3.655,0.994 -5.859,0.994Zm0.132,-14.166c1.029,-0 1.905,-0.259 2.627,-0.776c0.723,-0.518 1.275,-1.261 1.658,-2.231c0.383,-0.969 0.574,-2.133 0.574,-3.492c0,-1.354 -0.189,-2.532 -0.568,-3.534c-0.379,-1.001 -0.929,-1.778 -1.652,-2.33c-0.722,-0.551 -1.602,-0.827 -2.639,-0.827c-1.061,-0 -1.952,0.284 -2.675,0.851c-0.722,0.568 -1.269,1.355 -1.639,2.361c-0.371,1.005 -0.556,2.165 -0.556,3.479c-0,1.331 0.187,2.481 0.562,3.453c0.374,0.972 0.923,1.722 1.645,2.252c0.723,0.529 1.61,0.794 2.663,0.794Z" style="fill:#5e5e5e;fill-rule:nonzero;"/><path d="M930.086,837.709l0,-23.148l6.113,-0l-0,4.087l0.265,-0c0.482,-1.363 1.288,-2.435 2.417,-3.216c1.129,-0.782 2.478,-1.173 4.045,-1.173c1.587,0 2.938,0.395 4.051,1.186c1.113,0.791 1.857,1.858 2.23,3.203l0.241,-0c0.473,-1.329 1.329,-2.392 2.569,-3.191c1.239,-0.799 2.706,-1.198 4.4,-1.198c2.16,0 3.918,0.686 5.273,2.059c1.356,1.372 2.033,3.314 2.033,5.826l0,15.565l-6.414,-0l0,-14.299c0,-1.292 -0.34,-2.258 -1.021,-2.898c-0.682,-0.64 -1.535,-0.96 -2.559,-0.96c-1.164,-0 -2.074,0.369 -2.73,1.107c-0.656,0.739 -0.984,1.712 -0.984,2.92l0,14.13l-6.221,-0l0,-14.444c0,-1.135 -0.324,-2.038 -0.973,-2.708c-0.649,-0.67 -1.503,-1.005 -2.559,-1.005c-0.714,-0 -1.354,0.177 -1.92,0.53c-0.567,0.354 -1.016,0.851 -1.346,1.491c-0.331,0.64 -0.496,1.389 -0.496,2.247l0,13.889l-6.414,-0Z" style="fill:#5e5e5e;fill-rule:nonzero;"/><path d="M973.574,838.143c-1.473,-0 -2.788,-0.258 -3.944,-0.773c-1.157,-0.516 -2.069,-1.284 -2.736,-2.304c-0.667,-1.021 -1,-2.294 -1,-3.819c-0,-1.29 0.234,-2.371 0.702,-3.242c0.468,-0.871 1.109,-1.573 1.923,-2.105c0.814,-0.533 1.742,-0.937 2.783,-1.212c1.042,-0.275 2.137,-0.468 3.284,-0.579c1.341,-0.132 2.423,-0.261 3.248,-0.387c0.825,-0.126 1.424,-0.314 1.798,-0.567c0.374,-0.252 0.561,-0.625 0.561,-1.119l-0,-0.085c-0,-0.956 -0.301,-1.696 -0.902,-2.218c-0.6,-0.523 -1.445,-0.784 -2.535,-0.784c-1.155,0 -2.075,0.253 -2.759,0.758c-0.684,0.505 -1.135,1.141 -1.352,1.907l-5.944,-0.483c0.302,-1.406 0.894,-2.625 1.777,-3.654c0.883,-1.03 2.026,-1.824 3.429,-2.381c1.402,-0.558 3.027,-0.837 4.874,-0.837c1.291,0 2.526,0.151 3.704,0.454c1.177,0.302 2.225,0.768 3.144,1.398c0.918,0.63 1.644,1.44 2.177,2.43c0.534,0.989 0.801,2.174 0.801,3.555l-0,15.613l-6.089,-0l0,-3.207l-0.181,-0c-0.373,0.719 -0.87,1.353 -1.49,1.902c-0.62,0.548 -1.369,0.975 -2.246,1.281c-0.877,0.305 -1.886,0.458 -3.027,0.458Zm1.844,-4.425c0.943,0 1.775,-0.189 2.497,-0.566c0.723,-0.378 1.289,-0.89 1.699,-1.535c0.41,-0.645 0.615,-1.371 0.615,-2.179l-0,-2.459c-0.193,0.126 -0.465,0.243 -0.816,0.349c-0.35,0.107 -0.74,0.202 -1.169,0.287c-0.429,0.084 -0.859,0.159 -1.29,0.226c-0.431,0.066 -0.822,0.124 -1.174,0.174c-0.756,0.109 -1.415,0.284 -1.979,0.526c-0.564,0.243 -1.002,0.567 -1.314,0.974c-0.313,0.407 -0.469,0.912 -0.469,1.515c0,0.88 0.32,1.548 0.959,2.004c0.639,0.456 1.453,0.684 2.441,0.684Z" style="fill:#5e5e5e;fill-rule:nonzero;"/><path d="M990.905,837.709l-0,-23.148l6.42,-0l-0,23.148l-6.42,-0Zm3.24,-26.132c-0.955,-0 -1.773,-0.319 -2.457,-0.957c-0.683,-0.638 -1.024,-1.405 -1.024,-2.299c-0,-0.884 0.341,-1.645 1.024,-2.283c0.684,-0.638 1.497,-0.957 2.442,-0.957c0.964,0 1.786,0.319 2.464,0.957c0.678,0.638 1.017,1.399 1.017,2.283c0,0.894 -0.339,1.661 -1.017,2.299c-0.678,0.638 -1.495,0.957 -2.449,0.957Z" style="fill:#5e5e5e;fill-rule:nonzero;"/><rect x="1000.98" y="806.844" width="6.414" height="30.864" style="fill:#5e5e5e;fill-rule:nonzero;"/><path d="M1014.8,838.095c-0.997,-0 -1.851,-0.353 -2.561,-1.057c-0.71,-0.704 -1.063,-1.557 -1.056,-2.56c-0.007,-0.985 0.346,-1.828 1.056,-2.529c0.71,-0.701 1.564,-1.052 2.561,-1.052c0.96,-0 1.801,0.351 2.524,1.052c0.722,0.701 1.086,1.544 1.092,2.529c-0.006,0.667 -0.177,1.274 -0.514,1.822c-0.336,0.547 -0.776,0.983 -1.318,1.308c-0.543,0.324 -1.138,0.487 -1.784,0.487Z" style="fill:#5e5e5e;fill-rule:nonzero;"/><path d="M1033.19,838.155c-2.376,-0 -4.413,-0.505 -6.113,-1.515c-1.7,-1.009 -3.005,-2.412 -3.915,-4.207c-0.911,-1.796 -1.366,-3.867 -1.366,-6.214c0,-2.363 0.46,-4.443 1.381,-6.241c0.92,-1.797 2.229,-3.2 3.927,-4.207c1.698,-1.008 3.719,-1.512 6.062,-1.512c2.013,0 3.78,0.366 5.3,1.099c1.52,0.732 2.721,1.763 3.603,3.092c0.882,1.329 1.367,2.886 1.453,4.671l-6.052,-0c-0.175,-1.152 -0.625,-2.083 -1.349,-2.793c-0.724,-0.71 -1.677,-1.065 -2.859,-1.065c-0.989,-0 -1.854,0.268 -2.595,0.806c-0.742,0.537 -1.318,1.318 -1.73,2.342c-0.412,1.024 -0.618,2.265 -0.618,3.724c-0,1.475 0.204,2.729 0.612,3.763c0.408,1.034 0.982,1.822 1.724,2.366c0.741,0.544 1.61,0.815 2.607,0.815c0.737,0 1.399,-0.15 1.983,-0.45c0.585,-0.301 1.071,-0.739 1.458,-1.315c0.386,-0.575 0.642,-1.273 0.767,-2.093l6.052,0c-0.099,1.77 -0.577,3.327 -1.435,4.671c-0.858,1.343 -2.041,2.389 -3.549,3.139c-1.508,0.749 -3.291,1.124 -5.348,1.124Z" style="fill:#5e5e5e;fill-rule:nonzero;"/><path d="M1056.88,838.155c-2.343,-0 -4.366,-0.499 -6.068,-1.497c-1.702,-0.997 -3.015,-2.392 -3.939,-4.183c-0.925,-1.791 -1.387,-3.877 -1.387,-6.256c0,-2.387 0.462,-4.478 1.387,-6.274c0.924,-1.795 2.237,-3.192 3.939,-4.189c1.702,-0.998 3.725,-1.497 6.068,-1.497c2.343,0 4.365,0.499 6.067,1.497c1.702,0.997 3.015,2.394 3.939,4.189c0.925,1.796 1.387,3.887 1.387,6.274c-0,2.379 -0.462,4.465 -1.387,6.256c-0.924,1.791 -2.237,3.186 -3.939,4.183c-1.702,0.998 -3.724,1.497 -6.067,1.497Zm0.036,-4.967c1.057,-0 1.944,-0.305 2.661,-0.914c0.718,-0.608 1.259,-1.44 1.625,-2.495c0.366,-1.055 0.548,-2.254 0.548,-3.596c0,-1.348 -0.182,-2.551 -0.548,-3.606c-0.366,-1.056 -0.907,-1.891 -1.625,-2.504c-0.717,-0.613 -1.604,-0.919 -2.661,-0.919c-1.081,-0 -1.987,0.306 -2.716,0.919c-0.73,0.613 -1.277,1.448 -1.643,2.504c-0.365,1.055 -0.548,2.258 -0.548,3.606c-0,1.342 0.183,2.541 0.548,3.596c0.366,1.055 0.913,1.887 1.643,2.495c0.729,0.609 1.635,0.914 2.716,0.914Z" style="fill:#5e5e5e;fill-rule:nonzero;"/><path d="M1071.75,837.709l0,-23.148l6.113,-0l-0,4.087l0.265,-0c0.482,-1.363 1.288,-2.435 2.417,-3.216c1.129,-0.782 2.478,-1.173 4.045,-1.173c1.587,0 2.938,0.395 4.051,1.186c1.113,0.791 1.857,1.858 2.23,3.203l0.242,-0c0.472,-1.329 1.328,-2.392 2.568,-3.191c1.24,-0.799 2.706,-1.198 4.4,-1.198c2.16,0 3.918,0.686 5.273,2.059c1.356,1.372 2.033,3.314 2.033,5.826l0,15.565l-6.414,-0l0,-14.299c0,-1.292 -0.34,-2.258 -1.021,-2.898c-0.681,-0.64 -1.534,-0.96 -2.559,-0.96c-1.164,-0 -2.074,0.369 -2.73,1.107c-0.656,0.739 -0.984,1.712 -0.984,2.92l0,14.13l-6.221,-0l0,-14.444c0,-1.135 -0.324,-2.038 -0.973,-2.708c-0.649,-0.67 -1.502,-1.005 -2.559,-1.005c-0.714,-0 -1.354,0.177 -1.92,0.53c-0.567,0.354 -1.016,0.851 -1.346,1.491c-0.331,0.64 -0.496,1.389 -0.496,2.247l0,13.889l-6.414,-0Z" style="fill:#5e5e5e;fill-rule:nonzero;"/></g></g></g><path d="M567.91,737.335l0,-36.364l24.503,0l-0,6.335l-16.818,0l-0,8.665l15.554,-0l-0,6.335l-15.554,0l-0,8.694l16.889,-0l-0,6.335l-24.574,-0Z" style="fill-rule:nonzero;"/><path d="M597.669,737.335l-0,-27.273l7.201,-0l0,4.815l0.313,0c0.568,-1.605 1.517,-2.868 2.848,-3.789c1.33,-0.921 2.919,-1.381 4.765,-1.381c1.871,-0 3.461,0.466 4.773,1.397c1.312,0.932 2.188,2.19 2.628,3.773l0.284,0c0.556,-1.565 1.565,-2.818 3.026,-3.759c1.46,-0.941 3.189,-1.411 5.184,-1.411c2.545,-0 4.616,0.808 6.213,2.425c1.597,1.617 2.395,3.905 2.395,6.865l0,18.338l-7.557,-0l0,-16.847c0,-1.522 -0.401,-2.66 -1.203,-3.414c-0.803,-0.755 -1.808,-1.132 -3.015,-1.132c-1.371,0 -2.443,0.435 -3.216,1.306c-0.773,0.87 -1.159,2.016 -1.159,3.439l-0,16.648l-7.33,-0l0,-17.017c0,-1.338 -0.382,-2.402 -1.147,-3.191c-0.765,-0.79 -1.77,-1.185 -3.015,-1.185c-0.84,0 -1.594,0.209 -2.262,0.625c-0.668,0.417 -1.196,1.003 -1.585,1.757c-0.39,0.754 -0.585,1.636 -0.585,2.647l0,16.364l-7.556,-0Z" style="fill-rule:nonzero;"/><path d="M648.904,737.846c-1.735,-0 -3.284,-0.304 -4.646,-0.911c-1.363,-0.607 -2.437,-1.512 -3.223,-2.715c-0.786,-1.202 -1.179,-2.702 -1.179,-4.499c0,-1.52 0.276,-2.793 0.828,-3.819c0.551,-1.026 1.306,-1.853 2.265,-2.481c0.959,-0.627 2.052,-1.103 3.28,-1.427c1.227,-0.325 2.517,-0.552 3.869,-0.682c1.579,-0.156 2.854,-0.308 3.826,-0.456c0.972,-0.148 1.678,-0.371 2.118,-0.668c0.441,-0.297 0.661,-0.737 0.661,-1.319l-0,-0.1c-0,-1.126 -0.354,-1.998 -1.062,-2.613c-0.708,-0.616 -1.703,-0.924 -2.987,-0.924c-1.361,0 -2.445,0.298 -3.251,0.894c-0.806,0.595 -1.337,1.344 -1.593,2.246l-7.002,-0.569c0.355,-1.657 1.053,-3.092 2.093,-4.305c1.041,-1.214 2.387,-2.149 4.04,-2.806c1.652,-0.657 3.566,-0.985 5.742,-0.985c1.522,-0 2.977,0.178 4.364,0.534c1.387,0.357 2.622,0.906 3.704,1.648c1.082,0.742 1.937,1.696 2.566,2.862c0.628,1.166 0.942,2.562 0.942,4.189l0,18.395l-7.173,-0l0,-3.779l-0.213,0c-0.44,0.848 -1.025,1.595 -1.756,2.241c-0.73,0.646 -1.612,1.149 -2.645,1.509c-1.034,0.36 -2.223,0.54 -3.568,0.54Zm2.174,-5.213c1.11,0 2.091,-0.223 2.942,-0.668c0.851,-0.445 1.518,-1.047 2.001,-1.807c0.483,-0.76 0.724,-1.616 0.724,-2.568l0,-2.897c-0.227,0.149 -0.547,0.286 -0.96,0.411c-0.413,0.126 -0.873,0.238 -1.378,0.338c-0.505,0.099 -1.012,0.188 -1.52,0.266c-0.508,0.078 -0.969,0.147 -1.383,0.206c-0.89,0.128 -1.667,0.335 -2.331,0.62c-0.665,0.285 -1.181,0.667 -1.549,1.147c-0.368,0.479 -0.552,1.074 -0.552,1.784c-0,1.037 0.376,1.825 1.129,2.362c0.753,0.537 1.712,0.806 2.877,0.806Z" style="fill-rule:nonzero;"/><path d="M669.323,737.335l0,-27.273l7.564,-0l0,27.273l-7.564,-0Zm3.818,-30.789c-1.125,0 -2.089,-0.375 -2.894,-1.127c-0.805,-0.752 -1.208,-1.654 -1.208,-2.708c0,-1.042 0.403,-1.938 1.208,-2.69c0.805,-0.752 1.763,-1.127 2.876,-1.127c1.137,-0 2.104,0.375 2.903,1.127c0.799,0.752 1.199,1.648 1.199,2.69c-0,1.054 -0.4,1.956 -1.199,2.708c-0.799,0.752 -1.761,1.127 -2.885,1.127Z" style="fill-rule:nonzero;"/><rect x="681.191" y="700.971" width="7.557" height="36.364" style="fill-rule:nonzero;"/></g></g><g><g><g><g><g><path d="M1181.46,1020.23c-0,-15.616 -13.902,-28.292 -31.025,-28.292l-550.569,-0c-17.122,-0 -31.024,12.676 -31.024,28.292l-0,56.584c-0,15.614 13.902,28.292 31.024,28.292l550.569,0c17.123,0 31.025,-12.678 31.025,-28.292l-0,-56.584Z" style="fill:#fff;stroke:#212529;stroke-width:14.24px;"/><path d="M616.977,1061.7c-2.375,-0 -4.42,-0.483 -6.135,-1.448c-1.715,-0.966 -3.034,-2.34 -3.957,-4.124c-0.924,-1.783 -1.385,-3.896 -1.385,-6.34c-0,-2.383 0.463,-4.474 1.389,-6.272c0.927,-1.799 2.23,-3.2 3.91,-4.205c1.679,-1.005 3.655,-1.507 5.925,-1.507c1.532,0 2.957,0.243 4.277,0.73c1.321,0.486 2.475,1.218 3.464,2.195c0.988,0.978 1.76,2.202 2.314,3.673c0.555,1.471 0.832,3.19 0.832,5.157l0,1.76l-19.543,0l-0,-3.978l13.503,-0c-0.006,-0.921 -0.21,-1.738 -0.613,-2.452c-0.403,-0.715 -0.959,-1.276 -1.667,-1.685c-0.709,-0.409 -1.528,-0.614 -2.458,-0.614c-0.971,0 -1.831,0.226 -2.58,0.677c-0.75,0.451 -1.336,1.051 -1.759,1.798c-0.423,0.748 -0.64,1.579 -0.653,2.493l0,3.785c0,1.146 0.215,2.136 0.645,2.969c0.43,0.834 1.037,1.476 1.821,1.926c0.784,0.451 1.71,0.676 2.779,0.676c0.717,-0 1.371,-0.102 1.961,-0.305c0.59,-0.203 1.097,-0.504 1.523,-0.902c0.426,-0.399 0.748,-0.889 0.965,-1.47l5.932,0.386c-0.302,1.431 -0.916,2.676 -1.842,3.736c-0.926,1.06 -2.121,1.882 -3.585,2.465c-1.464,0.584 -3.152,0.876 -5.063,0.876Z" style="fill:#5e5e5e;fill-rule:nonzero;"/><path d="M634.905,1061.64c-0.996,-0 -1.85,-0.353 -2.56,-1.057c-0.71,-0.704 -1.063,-1.557 -1.056,-2.56c-0.007,-0.985 0.346,-1.828 1.056,-2.529c0.71,-0.701 1.564,-1.052 2.56,-1.052c0.961,0 1.802,0.351 2.525,1.052c0.722,0.701 1.086,1.544 1.092,2.529c-0.006,0.667 -0.177,1.274 -0.514,1.822c-0.336,0.547 -0.776,0.983 -1.318,1.308c-0.543,0.324 -1.138,0.487 -1.785,0.487Z" style="fill:#5e5e5e;fill-rule:nonzero;"/><path d="M653.28,1070.27c-2.08,0 -3.863,-0.282 -5.349,-0.845c-1.486,-0.564 -2.665,-1.324 -3.539,-2.279c-0.873,-0.955 -1.439,-2.016 -1.698,-3.181l5.944,-0.796c0.177,0.416 0.46,0.813 0.85,1.192c0.389,0.379 0.908,0.689 1.556,0.93c0.648,0.241 1.442,0.361 2.38,0.361c1.393,0 2.544,-0.331 3.456,-0.994c0.911,-0.663 1.367,-1.754 1.367,-3.274l-0,-4.231l-0.265,-0c-0.286,0.639 -0.711,1.246 -1.275,1.822c-0.565,0.575 -1.287,1.045 -2.168,1.407c-0.88,0.363 -1.935,0.544 -3.164,0.544c-1.737,0 -3.315,-0.405 -4.737,-1.217c-1.422,-0.812 -2.553,-2.053 -3.394,-3.723c-0.841,-1.669 -1.261,-3.788 -1.261,-6.357c-0,-2.624 0.427,-4.813 1.282,-6.567c0.855,-1.754 1.994,-3.07 3.418,-3.946c1.424,-0.876 2.984,-1.314 4.68,-1.314c1.29,0 2.372,0.219 3.246,0.656c0.874,0.437 1.581,0.978 2.122,1.624c0.54,0.646 0.953,1.285 1.239,1.916l0.253,-0l-0,-3.894l6.365,-0l0,23.377c0,1.923 -0.482,3.537 -1.448,4.842c-0.965,1.305 -2.299,2.289 -4.001,2.953c-1.702,0.663 -3.655,0.994 -5.859,0.994Zm0.132,-14.166c1.029,-0 1.904,-0.259 2.627,-0.776c0.722,-0.518 1.275,-1.261 1.658,-2.231c0.383,-0.969 0.574,-2.133 0.574,-3.492c-0,-1.354 -0.189,-2.532 -0.568,-3.534c-0.379,-1.001 -0.93,-1.778 -1.652,-2.33c-0.722,-0.551 -1.602,-0.827 -2.639,-0.827c-1.061,-0 -1.953,0.284 -2.675,0.851c-0.722,0.568 -1.269,1.355 -1.64,2.361c-0.37,1.005 -0.556,2.165 -0.556,3.479c0,1.331 0.188,2.481 0.562,3.453c0.375,0.972 0.924,1.722 1.646,2.252c0.722,0.529 1.61,0.794 2.663,0.794Z" style="fill:#5e5e5e;fill-rule:nonzero;"/><path d="M672.461,1061.64c-0.996,-0 -1.85,-0.353 -2.56,-1.057c-0.711,-0.704 -1.063,-1.557 -1.057,-2.56c-0.006,-0.985 0.346,-1.828 1.057,-2.529c0.71,-0.701 1.564,-1.052 2.56,-1.052c0.961,0 1.802,0.351 2.524,1.052c0.723,0.701 1.087,1.544 1.093,2.529c-0.006,0.667 -0.177,1.274 -0.514,1.822c-0.336,0.547 -0.776,0.983 -1.318,1.308c-0.543,0.324 -1.138,0.487 -1.785,0.487Z" style="fill:#5e5e5e;fill-rule:nonzero;"/><path d="M701.499,1056.55l0,-21.34l5.395,-0l0,21.34l-5.395,-0Zm-7.972,-7.972l-0,-5.396l21.34,0l-0,5.396l-21.34,-0Z" style="fill:#5e5e5e;fill-rule:nonzero;"/><path d="M733.672,1030.39l-0,30.865l-6.523,-0l0,-24.668l-0.181,0l-7.065,4.425l0,-5.787l7.644,-4.835l6.125,0Z" style="fill:#5e5e5e;fill-rule:nonzero;"/><path d="M753.372,1045.82c-0,-3.738 0.5,-7.179 1.5,-10.324c0.999,-3.144 2.529,-6.058 4.588,-8.741l6.134,0c-0.783,0.995 -1.512,2.208 -2.185,3.64c-0.673,1.432 -1.261,3.002 -1.763,4.71c-0.503,1.707 -0.894,3.473 -1.176,5.297c-0.281,1.823 -0.422,3.629 -0.422,5.418c0,2.381 0.244,4.785 0.731,7.211c0.487,2.426 1.151,4.679 1.989,6.759c0.839,2.08 1.781,3.783 2.826,5.109l-6.134,-0c-2.059,-2.683 -3.589,-5.596 -4.588,-8.741c-1,-3.145 -1.5,-6.591 -1.5,-10.338Z" style="fill:#5e5e5e;fill-rule:nonzero;"/><path d="M767.273,1061.26l0,-4.702l10.984,-10.176c0.936,-0.902 1.723,-1.714 2.361,-2.437c0.638,-0.722 1.121,-1.433 1.45,-2.132c0.328,-0.699 0.493,-1.455 0.493,-2.267c-0,-0.91 -0.205,-1.693 -0.614,-2.348c-0.409,-0.655 -0.97,-1.161 -1.683,-1.517c-0.713,-0.357 -1.525,-0.536 -2.436,-0.536c-0.938,0 -1.759,0.191 -2.464,0.573c-0.704,0.382 -1.248,0.929 -1.632,1.64c-0.384,0.711 -0.575,1.561 -0.575,2.55l-6.197,-0c-0,-2.026 0.459,-3.782 1.377,-5.269c0.918,-1.487 2.199,-2.636 3.843,-3.448c1.644,-0.812 3.543,-1.218 5.697,-1.218c2.206,0 4.132,0.39 5.779,1.168c1.647,0.779 2.926,1.856 3.837,3.23c0.911,1.374 1.367,2.955 1.367,4.741c0,1.166 -0.229,2.315 -0.687,3.45c-0.458,1.134 -1.27,2.391 -2.436,3.769c-1.165,1.378 -2.807,3.035 -4.925,4.97l-4.509,4.413l0,0.205l12.973,0l-0,5.341l-22.003,-0Z" style="fill:#5e5e5e;fill-rule:nonzero;"/><path d="M804.359,1061.68c-2.255,-0 -4.258,-0.388 -6.009,-1.165c-1.751,-0.777 -3.131,-1.852 -4.14,-3.227c-1.008,-1.374 -1.532,-2.961 -1.57,-4.759l6.582,-0c0.039,0.754 0.285,1.414 0.74,1.982c0.456,0.568 1.065,1.008 1.829,1.322c0.763,0.313 1.623,0.47 2.58,0.47c0.994,-0 1.875,-0.176 2.64,-0.526c0.766,-0.351 1.365,-0.839 1.797,-1.464c0.432,-0.625 0.645,-1.344 0.638,-2.158c0.007,-0.828 -0.219,-1.56 -0.676,-2.197c-0.457,-0.637 -1.111,-1.135 -1.961,-1.495c-0.85,-0.36 -1.86,-0.539 -3.029,-0.539l-2.869,-0l-0,-4.799l2.869,-0c0.991,-0 1.863,-0.17 2.618,-0.509c0.754,-0.34 1.344,-0.815 1.769,-1.426c0.425,-0.611 0.635,-1.32 0.629,-2.128c0.006,-0.78 -0.174,-1.463 -0.54,-2.05c-0.366,-0.586 -0.878,-1.045 -1.536,-1.374c-0.658,-0.33 -1.425,-0.495 -2.301,-0.495c-0.884,0 -1.693,0.159 -2.428,0.477c-0.734,0.317 -1.323,0.766 -1.765,1.347c-0.442,0.581 -0.676,1.263 -0.702,2.047l-6.257,-0c0.03,-1.781 0.537,-3.349 1.52,-4.705c0.984,-1.357 2.312,-2.419 3.983,-3.186c1.672,-0.768 3.563,-1.152 5.673,-1.152c2.132,0 3.997,0.386 5.596,1.158c1.598,0.771 2.841,1.814 3.728,3.127c0.887,1.313 1.328,2.783 1.322,4.408c0.012,1.732 -0.524,3.175 -1.608,4.328c-1.084,1.154 -2.489,1.885 -4.215,2.195l-0,0.241c2.274,0.291 4.007,1.078 5.199,2.361c1.191,1.283 1.781,2.883 1.769,4.8c0.006,1.756 -0.5,3.32 -1.517,4.69c-1.018,1.371 -2.421,2.447 -4.208,3.228c-1.788,0.782 -3.838,1.173 -6.15,1.173Z" style="fill:#5e5e5e;fill-rule:nonzero;"/><path d="M819.49,1055.83l-0,-5.136l12.876,-20.304l4.437,0l-0,7.114l-2.629,-0l-8.114,12.852l0,0.241l18.302,-0l-0,5.233l-24.872,-0Zm14.817,5.425l-0,-6.993l0.108,-2.272l0,-21.6l6.125,0l0,30.865l-6.233,-0Z" style="fill:#5e5e5e;fill-rule:nonzero;"/><path d="M858.082,1045.82c0,3.747 -0.5,7.193 -1.499,10.338c-1,3.145 -2.53,6.058 -4.589,8.741l-6.134,-0c0.784,-0.995 1.512,-2.21 2.185,-3.647c0.673,-1.437 1.261,-3.007 1.763,-4.71c0.503,-1.703 0.895,-3.468 1.176,-5.297c0.281,-1.829 0.422,-3.637 0.422,-5.425c-0,-2.381 -0.244,-4.785 -0.731,-7.212c-0.487,-2.426 -1.15,-4.676 -1.989,-6.751c-0.839,-2.075 -1.781,-3.775 -2.826,-5.102l6.134,0c2.059,2.683 3.589,5.597 4.589,8.741c0.999,3.145 1.499,6.586 1.499,10.324Z" style="fill:#5e5e5e;fill-rule:nonzero;"/><path d="M885.788,1061.68c-2.13,-0 -4.028,-0.392 -5.695,-1.177c-1.667,-0.785 -2.986,-1.865 -3.958,-3.242c-0.971,-1.376 -1.479,-2.954 -1.524,-4.732l6.33,-0c0.074,1.198 0.577,2.168 1.509,2.912c0.931,0.743 2.044,1.115 3.338,1.115c1.019,-0 1.922,-0.229 2.709,-0.686c0.788,-0.457 1.407,-1.095 1.857,-1.915c0.45,-0.82 0.672,-1.762 0.666,-2.825c0.006,-1.081 -0.22,-2.033 -0.678,-2.858c-0.458,-0.825 -1.088,-1.47 -1.89,-1.935c-0.802,-0.466 -1.722,-0.7 -2.761,-0.704c-0.908,-0.004 -1.786,0.181 -2.632,0.556c-0.847,0.374 -1.505,0.88 -1.973,1.517l-5.811,-1.036l1.471,-16.277l18.856,0l-0,5.341l-13.479,0l-0.796,7.729l0.181,-0c0.542,-0.762 1.36,-1.394 2.453,-1.898c1.093,-0.503 2.317,-0.755 3.671,-0.755c1.859,0 3.517,0.436 4.975,1.308c1.458,0.872 2.608,2.07 3.451,3.595c0.843,1.524 1.262,3.273 1.256,5.249c0.006,2.077 -0.476,3.923 -1.446,5.538c-0.969,1.615 -2.319,2.882 -4.049,3.801c-1.73,0.919 -3.741,1.379 -6.031,1.379Z" style="fill:#5e5e5e;fill-rule:nonzero;"/><path d="M912.155,1061.68c-1.585,-0.008 -3.113,-0.275 -4.584,-0.8c-1.471,-0.526 -2.788,-1.376 -3.95,-2.552c-1.163,-1.175 -2.083,-2.731 -2.761,-4.666c-0.678,-1.935 -1.02,-4.314 -1.026,-7.137c0.006,-2.616 0.302,-4.954 0.89,-7.012c0.588,-2.059 1.431,-3.805 2.529,-5.237c1.098,-1.433 2.418,-2.525 3.959,-3.275c1.541,-0.751 3.265,-1.126 5.172,-1.126c2.054,-0 3.869,0.402 5.447,1.207c1.577,0.805 2.846,1.896 3.805,3.275c0.96,1.378 1.541,2.931 1.744,4.657l-6.426,-0c-0.251,-1.128 -0.78,-2 -1.587,-2.618c-0.807,-0.618 -1.801,-0.927 -2.983,-0.927c-2.011,0 -3.537,0.878 -4.577,2.634c-1.039,1.757 -1.567,4.158 -1.584,7.204l0.205,0c0.461,-0.908 1.084,-1.686 1.872,-2.333c0.788,-0.647 1.687,-1.145 2.698,-1.495c1.011,-0.349 2.08,-0.524 3.207,-0.524c1.828,-0 3.456,0.429 4.884,1.287c1.428,0.858 2.553,2.035 3.377,3.532c0.824,1.497 1.233,3.21 1.227,5.139c0.006,2.09 -0.477,3.949 -1.448,5.576c-0.972,1.628 -2.323,2.902 -4.056,3.822c-1.732,0.921 -3.743,1.377 -6.034,1.369Zm-0.036,-5.124c1.007,-0 1.906,-0.241 2.699,-0.723c0.793,-0.483 1.417,-1.136 1.872,-1.96c0.455,-0.824 0.68,-1.75 0.674,-2.779c0.006,-1.023 -0.215,-1.941 -0.662,-2.756c-0.447,-0.815 -1.063,-1.462 -1.848,-1.94c-0.784,-0.478 -1.68,-0.717 -2.687,-0.717c-0.749,-0 -1.444,0.14 -2.084,0.42c-0.64,0.281 -1.198,0.671 -1.674,1.17c-0.477,0.499 -0.85,1.078 -1.12,1.736c-0.27,0.658 -0.409,1.362 -0.415,2.111c0.006,0.997 0.236,1.907 0.691,2.731c0.454,0.824 1.076,1.481 1.865,1.971c0.79,0.491 1.686,0.736 2.689,0.736Z" style="fill:#5e5e5e;fill-rule:nonzero;"/><path d="M927.997,1061.26l12.792,-25.319l0,-0.205l-14.901,0l-0,-5.341l21.653,0l-0,5.414l-12.804,25.451l-6.74,-0Z" style="fill:#5e5e5e;fill-rule:nonzero;"/><path d="M974.463,1061.68c-2.323,-0 -4.387,-0.38 -6.193,-1.139c-1.805,-0.76 -3.221,-1.798 -4.247,-3.114c-1.025,-1.316 -1.536,-2.808 -1.532,-4.476c-0.004,-1.288 0.29,-2.471 0.881,-3.548c0.592,-1.077 1.396,-1.974 2.41,-2.693c1.015,-0.718 2.148,-1.178 3.4,-1.379l0,-0.217c-1.645,-0.333 -2.982,-1.135 -4.01,-2.403c-1.028,-1.269 -1.54,-2.747 -1.536,-4.433c-0.004,-1.597 0.462,-3.021 1.399,-4.272c0.936,-1.251 2.22,-2.236 3.852,-2.955c1.631,-0.72 3.49,-1.08 5.576,-1.08c2.078,0 3.931,0.362 5.561,1.084c1.629,0.722 2.913,1.709 3.852,2.96c0.938,1.251 1.409,2.672 1.414,4.263c-0.005,1.692 -0.526,3.171 -1.565,4.437c-1.039,1.266 -2.366,2.066 -3.981,2.399l-0,0.217c1.241,0.201 2.367,0.661 3.375,1.379c1.009,0.719 1.813,1.616 2.412,2.693c0.598,1.077 0.9,2.26 0.904,3.548c-0.004,1.668 -0.52,3.16 -1.548,4.476c-1.028,1.316 -2.442,2.354 -4.244,3.114c-1.801,0.759 -3.861,1.139 -6.18,1.139Zm-0,-4.798c1.035,-0 1.939,-0.187 2.713,-0.561c0.773,-0.374 1.378,-0.896 1.813,-1.566c0.435,-0.67 0.654,-1.44 0.658,-2.31c-0.004,-0.894 -0.231,-1.686 -0.682,-2.375c-0.452,-0.69 -1.065,-1.232 -1.841,-1.627c-0.775,-0.395 -1.662,-0.592 -2.661,-0.592c-0.997,0 -1.886,0.197 -2.669,0.592c-0.783,0.395 -1.399,0.937 -1.848,1.627c-0.449,0.689 -0.671,1.481 -0.667,2.375c-0.004,0.87 0.21,1.638 0.643,2.305c0.433,0.668 1.04,1.19 1.821,1.566c0.78,0.377 1.687,0.566 2.72,0.566Zm-0,-13.781c0.864,-0 1.631,-0.176 2.3,-0.528c0.669,-0.351 1.195,-0.839 1.579,-1.464c0.384,-0.625 0.578,-1.344 0.582,-2.156c-0.004,-0.803 -0.196,-1.51 -0.576,-2.12c-0.38,-0.61 -0.903,-1.086 -1.57,-1.429c-0.667,-0.342 -1.439,-0.514 -2.315,-0.514c-0.878,0 -1.654,0.172 -2.329,0.514c-0.674,0.343 -1.199,0.819 -1.574,1.429c-0.376,0.61 -0.562,1.317 -0.558,2.12c-0.004,0.812 0.185,1.529 0.567,2.151c0.381,0.622 0.909,1.11 1.584,1.465c0.674,0.355 1.444,0.532 2.31,0.532Z" style="fill:#5e5e5e;fill-rule:nonzero;"/><path d="M1000.28,1029.87c1.585,0.004 3.113,0.271 4.584,0.8c1.471,0.53 2.788,1.381 3.95,2.555c1.162,1.173 2.083,2.727 2.761,4.663c0.678,1.935 1.02,4.314 1.026,7.137c-0.006,2.616 -0.304,4.954 -0.893,7.012c-0.59,2.059 -1.431,3.805 -2.525,5.237c-1.093,1.433 -2.41,2.525 -3.951,3.275c-1.541,0.751 -3.268,1.126 -5.181,1.126c-2.06,-0 -3.878,-0.4 -5.456,-1.2c-1.577,-0.8 -2.845,-1.889 -3.804,-3.267c-0.958,-1.378 -1.537,-2.936 -1.736,-4.672l6.426,0c0.253,1.127 0.783,2 1.589,2.618c0.805,0.618 1.799,0.927 2.981,0.927c2.013,-0 3.542,-0.876 4.586,-2.627c1.044,-1.751 1.568,-4.155 1.574,-7.211l-0.204,-0c-0.461,0.904 -1.083,1.681 -1.869,2.33c-0.786,0.649 -1.684,1.148 -2.695,1.498c-1.011,0.349 -2.082,0.524 -3.213,0.524c-1.822,-0 -3.45,-0.428 -4.883,-1.283c-1.432,-0.855 -2.56,-2.032 -3.381,-3.532c-0.822,-1.5 -1.23,-3.215 -1.224,-5.144c-0.006,-2.089 0.474,-3.946 1.441,-5.568c0.966,-1.623 2.315,-2.897 4.047,-3.822c1.733,-0.925 3.749,-1.384 6.05,-1.376Zm0.036,5.124c-1.007,-0 -1.907,0.241 -2.699,0.723c-0.793,0.483 -1.417,1.136 -1.872,1.959c-0.455,0.824 -0.68,1.751 -0.674,2.78c-0.006,1.02 0.215,1.94 0.662,2.757c0.447,0.818 1.063,1.465 1.848,1.942c0.784,0.476 1.68,0.714 2.687,0.714c0.749,-0 1.444,-0.142 2.084,-0.425c0.64,-0.283 1.198,-0.674 1.674,-1.173c0.477,-0.498 0.85,-1.076 1.12,-1.734c0.27,-0.658 0.408,-1.36 0.415,-2.105c-0.007,-0.997 -0.237,-1.907 -0.691,-2.731c-0.454,-0.824 -1.076,-1.481 -1.866,-1.972c-0.789,-0.49 -1.685,-0.735 -2.688,-0.735Z" style="fill:#5e5e5e;fill-rule:nonzero;"/><path d="M1027.67,1061.93c-2.59,-0.006 -4.817,-0.643 -6.679,-1.911c-1.863,-1.268 -3.295,-3.101 -4.295,-5.501c-1.001,-2.399 -1.498,-5.285 -1.492,-8.659c0.006,-3.372 0.509,-6.242 1.508,-8.611c1,-2.37 2.431,-4.175 4.292,-5.417c1.862,-1.242 4.084,-1.863 6.666,-1.863c2.582,0 4.805,0.623 6.67,1.868c1.865,1.244 3.299,3.051 4.301,5.421c1.003,2.369 1.501,5.236 1.495,8.602c0,3.386 -0.5,6.278 -1.501,8.677c-1,2.4 -2.431,4.232 -4.29,5.497c-1.86,1.265 -4.085,1.897 -6.675,1.897Zm-0,-5.413c1.768,-0 3.18,-0.888 4.236,-2.663c1.056,-1.775 1.581,-4.44 1.575,-7.995c0,-2.341 -0.24,-4.291 -0.72,-5.851c-0.48,-1.559 -1.156,-2.73 -2.026,-3.513c-0.87,-0.782 -1.892,-1.174 -3.065,-1.174c-1.76,0 -3.166,0.879 -4.217,2.638c-1.051,1.758 -1.582,4.391 -1.594,7.9c-0.006,2.365 0.23,4.339 0.708,5.921c0.478,1.582 1.154,2.767 2.027,3.555c0.873,0.788 1.898,1.182 3.076,1.182Z" style="fill:#5e5e5e;fill-rule:nonzero;"/></g></g></g><path d="M567.91,959.947l0,-36.363l14.332,-0c2.761,-0 5.112,0.524 7.053,1.573c1.941,1.049 3.424,2.5 4.45,4.354c1.025,1.853 1.537,3.983 1.537,6.388c0,2.42 -0.52,4.551 -1.56,6.396c-1.041,1.844 -2.547,3.282 -4.517,4.314c-1.971,1.032 -4.354,1.549 -7.147,1.549l-9.148,-0l0,-6.165l7.898,-0c1.477,-0 2.699,-0.258 3.666,-0.773c0.967,-0.515 1.692,-1.23 2.174,-2.146c0.482,-0.916 0.722,-1.975 0.722,-3.175c0,-1.207 -0.24,-2.263 -0.722,-3.166c-0.482,-0.903 -1.209,-1.605 -2.181,-2.106c-0.972,-0.5 -2.201,-0.751 -3.688,-0.751l-5.184,0l-0,30.071l-7.685,0Z" style="fill-rule:nonzero;"/><path d="M607.072,944.18l0,15.767l-7.557,0l0,-36.363l7.344,-0l-0,13.906l0.312,0c0.625,-1.607 1.624,-2.871 2.997,-3.791c1.374,-0.92 3.092,-1.38 5.157,-1.38c1.901,0 3.559,0.411 4.973,1.233c1.415,0.821 2.513,1.998 3.296,3.529c0.782,1.532 1.17,3.363 1.163,5.494l-0,17.372l-7.557,0l-0,-16.023c0.007,-1.676 -0.417,-2.982 -1.273,-3.92c-0.856,-0.937 -2.056,-1.406 -3.599,-1.406c-1.026,-0 -1.934,0.221 -2.726,0.662c-0.792,0.442 -1.41,1.078 -1.854,1.911c-0.444,0.832 -0.669,1.835 -0.676,3.009Z" style="fill-rule:nonzero;"/><path d="M641.376,960.473c-2.76,-0 -5.143,-0.588 -7.148,-1.763c-2.006,-1.176 -3.553,-2.819 -4.642,-4.929c-1.089,-2.111 -1.633,-4.568 -1.633,-7.371c-0,-2.812 0.544,-5.276 1.633,-7.391c1.089,-2.116 2.636,-3.761 4.642,-4.936c2.005,-1.176 4.388,-1.764 7.148,-1.764c2.76,0 5.143,0.588 7.148,1.764c2.006,1.175 3.553,2.82 4.642,4.936c1.089,2.115 1.633,4.579 1.633,7.391c0,2.803 -0.544,5.26 -1.633,7.371c-1.089,2.11 -2.636,3.753 -4.642,4.929c-2.005,1.175 -4.388,1.763 -7.148,1.763Zm0.043,-5.852c1.245,-0 2.29,-0.359 3.135,-1.076c0.845,-0.718 1.484,-1.698 1.914,-2.941c0.431,-1.243 0.647,-2.655 0.647,-4.236c-0,-1.589 -0.216,-3.005 -0.647,-4.249c-0.43,-1.244 -1.069,-2.227 -1.914,-2.949c-0.845,-0.722 -1.89,-1.084 -3.135,-1.084c-1.274,0 -2.341,0.362 -3.2,1.084c-0.859,0.722 -1.505,1.705 -1.935,2.949c-0.431,1.244 -0.647,2.66 -0.647,4.249c0,1.581 0.216,2.993 0.647,4.236c0.43,1.243 1.076,2.223 1.935,2.941c0.859,0.717 1.926,1.076 3.2,1.076Z" style="fill-rule:nonzero;"/><path d="M666.447,944.18l0,15.767l-7.557,0l0,-27.272l7.202,-0l-0,4.815l0.312,0c0.611,-1.591 1.626,-2.85 3.045,-3.778c1.42,-0.928 3.141,-1.393 5.166,-1.393c1.896,0 3.549,0.415 4.959,1.245c1.409,0.83 2.504,2.011 3.284,3.542c0.78,1.532 1.167,3.355 1.16,5.469l-0,17.372l-7.557,0l0,-16.023c0.007,-1.666 -0.419,-2.971 -1.28,-3.913c-0.861,-0.942 -2.048,-1.413 -3.563,-1.413c-1.018,-0 -1.916,0.221 -2.694,0.662c-0.778,0.442 -1.383,1.078 -1.817,1.911c-0.433,0.832 -0.653,1.835 -0.66,3.009Z" style="fill-rule:nonzero;"/><path d="M700.566,960.473c-2.798,-0 -5.207,-0.569 -7.228,-1.706c-2.021,-1.138 -3.575,-2.757 -4.663,-4.858c-1.087,-2.101 -1.631,-4.591 -1.631,-7.47c-0,-2.808 0.545,-5.271 1.637,-7.39c1.091,-2.119 2.626,-3.77 4.606,-4.954c1.979,-1.184 4.306,-1.776 6.981,-1.776c1.804,0 3.484,0.287 5.039,0.86c1.555,0.573 2.916,1.435 4.08,2.587c1.165,1.152 2.074,2.594 2.728,4.327c0.653,1.733 0.98,3.758 0.98,6.076l-0,2.074l-23.026,-0l0,-4.688l15.909,0c-0.007,-1.084 -0.248,-2.047 -0.722,-2.889c-0.475,-0.841 -1.13,-1.503 -1.964,-1.985c-0.835,-0.482 -1.8,-0.722 -2.896,-0.722c-1.144,-0 -2.157,0.265 -3.04,0.797c-0.883,0.531 -1.574,1.237 -2.072,2.118c-0.498,0.881 -0.755,1.86 -0.769,2.937l0,4.46c0,1.35 0.253,2.516 0.76,3.498c0.507,0.983 1.222,1.739 2.145,2.269c0.923,0.531 2.015,0.796 3.274,0.796c0.845,-0 1.615,-0.12 2.31,-0.359c0.695,-0.239 1.294,-0.593 1.795,-1.063c0.502,-0.47 0.881,-1.047 1.137,-1.732l6.988,0.455c-0.355,1.686 -1.078,3.153 -2.169,4.402c-1.092,1.248 -2.5,2.217 -4.225,2.904c-1.724,0.688 -3.712,1.032 -5.964,1.032Z" style="fill-rule:nonzero;"/></g></g></g></g></g></svg>