<?xml version="1.0" encoding="UTF-8" standalone="no"?><!DOCTYPE svg PUBLIC "-//W3C//DTD SVG 1.1//EN" "http://www.w3.org/Graphics/SVG/1.1/DTD/svg11.dtd"><svg width="100%" height="100%" viewBox="0 0 420 298" version="1.1" xmlns="http://www.w3.org/2000/svg" xmlns:xlink="http://www.w3.org/1999/xlink" xml:space="preserve" xmlns:serif="http://www.serif.com/" style="fill-rule:evenodd;clip-rule:evenodd;stroke-linecap:round;stroke-linejoin:round;stroke-miterlimit:1.5;"><rect id="Artboard1" x="0" y="0" width="419.528" height="297.638" style="fill:none;"/><clipPath id="_clip1"><rect x="0" y="0" width="419.528" height="297.638"/></clipPath><g clip-path="url(#_clip1)"><g><rect x="0" y="0" width="419.528" height="297.639" style="fill:#ada7ff;"/><g><path d="M366.026,57.198c0,-16.603 -20.393,-30.083 -45.512,-30.083l-211.025,0c-25.119,0 -45.512,13.48 -45.512,30.083l-0,241.469c-0,16.604 20.393,30.083 45.512,30.083l211.025,0c25.119,0 45.512,-13.479 45.512,-30.083l0,-241.469Z" style="fill:#f8f9fa;stroke:#212529;stroke-width:7.69px;"/></g><g><g><g><g><path d="M285.664,112.802c0,-3.278 -3.207,-5.939 -7.157,-5.939l-127.011,0c-3.95,0 -7.157,2.661 -7.157,5.939l-0,11.878c-0,3.277 3.207,5.938 7.157,5.938l127.011,0c3.95,0 7.157,-2.661 7.157,-5.938l0,-11.878Z" style="fill:#fff;stroke:#212529;stroke-width:3.15px;"/><g transform="matrix(1,0,0,0.981527,2.84217e-14,2.2389)"><text x="150.233px" y="121.199px" style="font-family:'Inter-Regular', 'Inter', sans-serif;font-size:9.38px;fill:#616d79;">Email</text></g></g><g><path d="M285.664,147.79c0,-3.278 -3.207,-5.939 -7.157,-5.939l-127.011,-0c-3.95,-0 -7.157,2.661 -7.157,5.939l-0,11.877c-0,3.278 3.207,5.939 7.157,5.939l127.011,0c3.95,0 7.157,-2.661 7.157,-5.939l0,-11.877Z" style="fill:#fff;stroke:#212529;stroke-width:3.15px;"/><g transform="matrix(1,0,0,0.981527,0,2.89596)"><text x="151.486px" y="156.769px" style="font-family:'Inter-Regular', 'Inter', sans-serif;font-size:8.67px;fill:#616d79;">Passw<tspan x="177.828px 183.001px 186.08px " y="156.769px 156.769px 156.769px ">ord</tspan></text></g></g></g></g></g><g><g><g transform="matrix(1,0,0,0.963182,-2.84217e-14,2.54375)"><text x="170.357px" y="69.09px" style="font-family:'Inter-Regular_Bold', 'Inter', sans-serif;font-size:27.748px;fill:#212529;">Sign In</text></g></g></g></g><g><g><path d="M285.639,182.776c-0,-3.277 -3.207,-5.937 -7.156,-5.937l-126.989,-0c-3.949,-0 -7.155,2.66 -7.155,5.937l-0,11.876c-0,3.277 3.206,5.937 7.155,5.937l126.989,0c3.949,0 7.156,-2.66 7.156,-5.937l-0,-11.876Z" style="fill:#76f5c0;stroke:#212529;stroke-width:3.15px;"/><g transform="matrix(1,0,0,0.92218,-2.84217e-14,15.0149)"><text x="194.767px" y="192.944px" style="font-family:'Inter-Regular_Bold', 'Inter', sans-serif;font-size:12.094px;fill:#212529;">Submit</text></g></g></g></g></svg>