<?xml version="1.0" encoding="UTF-8" standalone="no"?><!DOCTYPE svg PUBLIC "-//W3C//DTD SVG 1.1//EN" "http://www.w3.org/Graphics/SVG/1.1/DTD/svg11.dtd"><svg width="100%" height="100%" viewBox="0 0 1749 1241" version="1.1" xmlns="http://www.w3.org/2000/svg" xmlns:xlink="http://www.w3.org/1999/xlink" xml:space="preserve" xmlns:serif="http://www.serif.com/" style="fill-rule:evenodd;clip-rule:evenodd;stroke-linecap:round;stroke-linejoin:round;stroke-miterlimit:1.5;"><rect id="Artboard2" x="0" y="0" width="1748.03" height="1240.16" style="fill:none;"/><clipPath id="_clip1"><rect id="Artboard21" serif:id="Artboard2" x="0" y="0" width="1748.03" height="1240.16"/></clipPath><g clip-path="url(#_clip1)"><rect id="Artboard1" x="0" y="0" width="1748.03" height="1240.16" style="fill:none;"/><g><g><rect x="0" y="0" width="1748.03" height="1240.16" style="fill:#ada7ff;"/><g><path d="M1404.82,242.872c0,-69.179 -71.523,-125.345 -159.621,-125.345l-740.108,0c-88.096,0 -159.62,56.166 -159.62,125.345l0,1006.12c0,69.18 71.524,125.345 159.62,125.345l740.108,0c88.098,0 159.621,-56.165 159.621,-125.345l0,-1006.12Z" style="fill:#f8f9fa;stroke:#212529;stroke-width:28.62px;"/></g><g><g><path d="M734.695,237.241c-0.284,-2.86 -1.505,-5.085 -3.661,-6.676c-2.157,-1.591 -5.075,-2.387 -8.754,-2.387c-2.509,0 -4.632,0.354 -6.367,1.062c-1.735,0.708 -3.055,1.675 -3.96,2.901c-0.904,1.227 -1.363,2.624 -1.377,4.191c-0.029,1.302 0.254,2.44 0.848,3.413c0.594,0.973 1.427,1.808 2.497,2.507c1.07,0.698 2.303,1.298 3.7,1.8c1.397,0.502 2.884,0.93 4.46,1.285l6.534,1.563c3.173,0.71 6.085,1.66 8.736,2.848c2.652,1.189 4.953,2.648 6.903,4.379c1.951,1.73 3.465,3.768 4.542,6.111c1.077,2.344 1.623,5.029 1.638,8.054c-0.015,4.441 -1.142,8.291 -3.381,11.548c-2.24,3.258 -5.46,5.779 -9.663,7.564c-4.202,1.785 -9.267,2.678 -15.195,2.678c-5.876,-0 -10.984,-0.897 -15.323,-2.692c-4.34,-1.794 -7.72,-4.461 -10.142,-8c-2.422,-3.54 -3.697,-7.93 -3.825,-13.172l14.887,0c0.165,2.434 0.871,4.463 2.116,6.087c1.245,1.624 2.911,2.844 4.996,3.658c2.086,0.814 4.459,1.222 7.121,1.222c2.609,-0 4.874,-0.377 6.797,-1.13c1.922,-0.753 3.416,-1.802 4.481,-3.146c1.066,-1.345 1.605,-2.903 1.619,-4.674c-0.014,-1.633 -0.5,-3.005 -1.459,-4.116c-0.959,-1.11 -2.354,-2.057 -4.187,-2.841c-1.832,-0.783 -4.07,-1.495 -6.712,-2.134l-7.926,-1.96c-6.136,-1.492 -10.979,-3.827 -14.528,-7.006c-3.548,-3.18 -5.315,-7.454 -5.301,-12.823c-0.014,-4.399 1.17,-8.247 3.554,-11.545c2.385,-3.298 5.659,-5.868 9.823,-7.71c4.164,-1.842 8.9,-2.762 14.208,-2.762c5.398,-0 10.111,0.923 14.14,2.769c4.03,1.847 7.173,4.417 9.429,7.71c2.256,3.293 3.415,7.101 3.476,11.424l-14.744,-0Z" style="fill:#212529;fill-rule:nonzero;"/><path d="M758.743,289.059l0,-54.545l15.128,-0l0,54.545l-15.128,0Zm7.635,-61.577c-2.249,0 -4.178,-0.751 -5.788,-2.255c-1.61,-1.503 -2.415,-3.308 -2.415,-5.415c0,-2.083 0.805,-3.877 2.415,-5.38c1.61,-1.503 3.527,-2.255 5.753,-2.255c2.273,0 4.208,0.752 5.806,2.255c1.598,1.503 2.397,3.297 2.397,5.38c-0,2.107 -0.799,3.912 -2.397,5.415c-1.598,1.504 -3.522,2.255 -5.771,2.255Z" style="fill:#212529;fill-rule:nonzero;"/><path d="M807.053,310.309c-4.9,0 -9.101,-0.664 -12.603,-1.992c-3.501,-1.328 -6.28,-3.118 -8.338,-5.369c-2.057,-2.252 -3.391,-4.751 -4.002,-7.497l14.005,-1.875c0.417,0.981 1.085,1.917 2.003,2.809c0.919,0.893 2.141,1.623 3.668,2.191c1.527,0.568 3.397,0.852 5.608,0.852c3.281,0 5.995,-0.781 8.143,-2.343c2.147,-1.563 3.221,-4.134 3.221,-7.713l-0,-9.972l-0.625,0c-0.673,1.506 -1.674,2.937 -3.005,4.293c-1.33,1.357 -3.032,2.463 -5.106,3.317c-2.074,0.855 -4.56,1.282 -7.458,1.282c-4.09,0 -7.811,-0.956 -11.161,-2.869c-3.35,-1.913 -6.015,-4.837 -7.997,-8.771c-1.982,-3.935 -2.972,-8.928 -2.972,-14.979c-0,-6.184 1.007,-11.343 3.022,-15.476c2.014,-4.133 4.699,-7.232 8.054,-9.297c3.355,-2.064 7.03,-3.097 11.026,-3.097c3.04,0 5.59,0.515 7.649,1.545c2.06,1.03 3.727,2.306 5,3.828c1.274,1.522 2.247,3.027 2.919,4.514l0.597,0l-0,-9.176l15,-0l-0,55.085c-0,4.531 -1.138,8.334 -3.413,11.41c-2.275,3.075 -5.418,5.394 -9.428,6.957c-4.011,1.562 -8.613,2.343 -13.807,2.343Zm0.313,-33.38c2.424,-0 4.487,-0.61 6.189,-1.829c1.702,-1.219 3.005,-2.971 3.907,-5.256c0.902,-2.284 1.353,-5.027 1.353,-8.228c-0,-3.191 -0.447,-5.967 -1.339,-8.328c-0.893,-2.36 -2.19,-4.19 -3.892,-5.49c-1.702,-1.3 -3.775,-1.95 -6.218,-1.95c-2.501,0 -4.602,0.669 -6.304,2.007c-1.702,1.338 -2.99,3.192 -3.863,5.562c-0.874,2.369 -1.311,5.103 -1.311,8.199c0,3.134 0.442,5.846 1.325,8.136c0.883,2.289 2.175,4.057 3.877,5.305c1.703,1.248 3.794,1.872 6.276,1.872Z" style="fill:#212529;fill-rule:nonzero;"/><path d="M858.53,257.525l0,31.534l-15.113,0l-0,-54.545l14.403,-0l0,9.631l0.625,-0c1.221,-3.182 3.251,-5.701 6.09,-7.557c2.839,-1.856 6.282,-2.785 10.331,-2.785c3.792,0 7.098,0.83 9.917,2.49c2.82,1.659 5.01,4.021 6.57,7.084c1.56,3.064 2.333,6.71 2.319,10.938l0,34.744l-15.113,0l-0,-32.046c0.014,-3.333 -0.84,-5.942 -2.561,-7.826c-1.721,-1.885 -4.096,-2.827 -7.127,-2.827c-2.036,0 -3.831,0.442 -5.387,1.325c-1.555,0.883 -2.766,2.156 -3.633,3.821c-0.866,1.664 -1.307,3.671 -1.321,6.019Z" style="fill:#212529;fill-rule:nonzero;"/><rect x="930.349" y="216.332" width="15.369" height="72.727" style="fill:#212529;fill-rule:nonzero;"/><path d="M971.598,257.525l0,31.534l-15.113,0l0,-54.545l14.403,-0l0,9.631l0.625,-0c1.221,-3.182 3.252,-5.701 6.09,-7.557c2.839,-1.856 6.282,-2.785 10.331,-2.785c3.792,0 7.098,0.83 9.918,2.49c2.819,1.659 5.009,4.021 6.569,7.084c1.56,3.064 2.333,6.71 2.319,10.938l0,34.744l-15.113,0l-0,-32.046c0.014,-3.333 -0.84,-5.942 -2.561,-7.826c-1.721,-1.885 -4.096,-2.827 -7.127,-2.827c-2.035,0 -3.831,0.442 -5.387,1.325c-1.555,0.883 -2.766,2.156 -3.633,3.821c-0.866,1.664 -1.306,3.671 -1.321,6.019Z" style="fill:#212529;fill-rule:nonzero;"/></g></g><g><g><g><g><g><path d="M1181.92,478.586c-0,-15.616 -13.902,-28.292 -31.025,-28.292l-550.569,-0c-17.122,-0 -31.024,12.676 -31.024,28.292l-0,56.584c-0,15.615 13.902,28.292 31.024,28.292l550.569,0c17.123,0 31.025,-12.677 31.025,-28.292l-0,-56.584Z" style="fill:#fff;stroke:#212529;stroke-width:14.24px;"/><path d="M607.192,495.534l6.42,0l-0,24.219c-0,1.788 -0.355,3.245 -1.063,4.37c-0.708,1.125 -1.723,1.947 -3.044,2.464c-1.321,0.518 -2.911,0.751 -4.77,0.701l-0.535,-0c-0.186,-0 -0.404,-0.01 -0.655,-0.03l-0,-5.019c0.17,0.01 0.318,0.018 0.444,0.023c0.126,0.005 0.259,0.007 0.399,0.007c1.035,0 1.761,-0.218 2.178,-0.655c0.417,-0.437 0.626,-1.093 0.626,-1.967l-0,-24.113Zm3.21,-2.984c-0.955,0 -1.774,-0.319 -2.457,-0.957c-0.683,-0.638 -1.025,-1.404 -1.025,-2.298c0,-0.884 0.342,-1.645 1.025,-2.283c0.683,-0.638 1.497,-0.957 2.442,-0.957c0.964,-0 1.785,0.319 2.464,0.957c0.678,0.638 1.017,1.399 1.017,2.283c-0,0.894 -0.339,1.66 -1.017,2.298c-0.679,0.638 -1.495,0.957 -2.449,0.957Z" style="fill:#22252a;fill-rule:nonzero;"/><path d="M623.86,519.117c-1.473,-0 -2.788,-0.258 -3.944,-0.773c-1.157,-0.516 -2.068,-1.284 -2.736,-2.305c-0.667,-1.02 -1,-2.293 -1,-3.819c-0,-1.29 0.234,-2.37 0.702,-3.241c0.468,-0.871 1.109,-1.573 1.923,-2.106c0.814,-0.532 1.742,-0.936 2.784,-1.211c1.041,-0.276 2.136,-0.469 3.283,-0.579c1.341,-0.133 2.423,-0.262 3.248,-0.387c0.825,-0.126 1.424,-0.315 1.798,-0.567c0.374,-0.252 0.561,-0.625 0.561,-1.12l-0,-0.084c-0,-0.956 -0.301,-1.696 -0.902,-2.218c-0.6,-0.523 -1.445,-0.784 -2.534,-0.784c-1.156,-0 -2.076,0.253 -2.76,0.758c-0.684,0.505 -1.135,1.141 -1.352,1.906l-5.944,-0.482c0.302,-1.407 0.894,-2.625 1.777,-3.655c0.883,-1.029 2.026,-1.823 3.429,-2.381c1.402,-0.557 3.027,-0.836 4.874,-0.836c1.292,-0 2.526,0.151 3.704,0.454c1.177,0.302 2.225,0.768 3.144,1.398c0.918,0.63 1.644,1.44 2.177,2.429c0.534,0.99 0.801,2.175 0.801,3.556l-0,15.613l-6.089,-0l0,-3.207l-0.181,-0c-0.373,0.719 -0.87,1.353 -1.49,1.902c-0.62,0.548 -1.369,0.975 -2.246,1.281c-0.877,0.305 -1.886,0.458 -3.027,0.458Zm1.844,-4.425c0.943,0 1.775,-0.189 2.497,-0.567c0.723,-0.377 1.289,-0.889 1.699,-1.534c0.41,-0.645 0.615,-1.371 0.615,-2.179l-0,-2.46c-0.193,0.127 -0.465,0.244 -0.815,0.35c-0.351,0.107 -0.741,0.202 -1.17,0.286c-0.429,0.085 -0.859,0.16 -1.29,0.226c-0.431,0.067 -0.822,0.125 -1.174,0.175c-0.756,0.109 -1.415,0.284 -1.979,0.526c-0.563,0.242 -1.002,0.567 -1.314,0.974c-0.312,0.407 -0.469,0.912 -0.469,1.514c0,0.881 0.32,1.549 0.959,2.005c0.639,0.456 1.453,0.684 2.441,0.684Z" style="fill:#22252a;fill-rule:nonzero;"/><path d="M647.611,505.3l-0,13.383l-6.414,-0l-0,-23.149l6.112,0l0,4.087l0.266,0c0.518,-1.35 1.379,-2.419 2.584,-3.207c1.205,-0.787 2.666,-1.181 4.384,-1.181c1.61,-0 3.013,0.352 4.209,1.056c1.197,0.705 2.126,1.707 2.788,3.007c0.662,1.3 0.99,2.847 0.984,4.642l0,14.745l-6.413,-0l-0,-13.6c0.006,-1.415 -0.357,-2.522 -1.087,-3.322c-0.73,-0.799 -1.739,-1.199 -3.025,-1.199c-0.864,-0 -1.626,0.187 -2.286,0.562c-0.66,0.375 -1.174,0.915 -1.542,1.621c-0.367,0.707 -0.554,1.558 -0.56,2.555Z" style="fill:#22252a;fill-rule:nonzero;"/><path d="M676.57,519.129c-2.375,-0 -4.42,-0.483 -6.135,-1.449c-1.715,-0.965 -3.034,-2.339 -3.957,-4.123c-0.924,-1.783 -1.385,-3.896 -1.385,-6.34c-0,-2.383 0.463,-4.474 1.389,-6.272c0.927,-1.799 2.23,-3.2 3.909,-4.205c1.68,-1.005 3.655,-1.507 5.926,-1.507c1.531,-0 2.957,0.243 4.277,0.729c1.32,0.487 2.475,1.219 3.463,2.196c0.989,0.978 1.761,2.202 2.315,3.673c0.555,1.471 0.832,3.19 0.832,5.157l0,1.76l-19.543,0l-0,-3.978l13.503,-0c-0.006,-0.921 -0.211,-1.738 -0.613,-2.452c-0.403,-0.715 -0.959,-1.276 -1.667,-1.685c-0.709,-0.409 -1.528,-0.614 -2.458,-0.614c-0.971,0 -1.831,0.226 -2.581,0.677c-0.749,0.451 -1.335,1.05 -1.758,1.798c-0.423,0.747 -0.641,1.578 -0.653,2.493l0,3.785c0,1.146 0.215,2.135 0.645,2.969c0.43,0.834 1.037,1.476 1.821,1.926c0.783,0.45 1.71,0.675 2.779,0.675c0.717,0 1.371,-0.101 1.961,-0.304c0.589,-0.203 1.097,-0.504 1.523,-0.903c0.426,-0.399 0.748,-0.888 0.965,-1.469l5.931,0.386c-0.301,1.43 -0.915,2.676 -1.841,3.736c-0.926,1.06 -2.122,1.881 -3.585,2.465c-1.464,0.584 -3.152,0.876 -5.063,0.876Z" style="fill:#22252a;fill-rule:nonzero;"/><path d="M699.273,519.056c-1.761,0 -3.351,-0.455 -4.77,-1.365c-1.42,-0.91 -2.545,-2.252 -3.376,-4.024c-0.831,-1.772 -1.246,-3.95 -1.246,-6.534c-0,-2.649 0.427,-4.855 1.282,-6.619c0.855,-1.765 1.994,-3.086 3.418,-3.964c1.424,-0.878 2.984,-1.317 4.68,-1.317c1.29,-0 2.37,0.218 3.24,0.655c0.87,0.438 1.573,0.979 2.11,1.625c0.536,0.646 0.947,1.285 1.232,1.916l0.193,-0l0,-11.611l6.414,0l0,30.865l-6.329,-0l-0,-3.702l-0.278,0c-0.297,0.639 -0.721,1.272 -1.273,1.898c-0.552,0.626 -1.261,1.145 -2.128,1.558c-0.867,0.413 -1.924,0.619 -3.169,0.619Zm2.037,-5.111c1.029,-0 1.904,-0.284 2.627,-0.852c0.722,-0.568 1.275,-1.363 1.658,-2.387c0.383,-1.024 0.574,-2.223 0.574,-3.598c0,-1.378 -0.189,-2.573 -0.568,-3.585c-0.379,-1.012 -0.93,-1.794 -1.652,-2.348c-0.722,-0.554 -1.602,-0.83 -2.639,-0.83c-1.061,-0 -1.953,0.284 -2.675,0.854c-0.722,0.57 -1.269,1.363 -1.64,2.378c-0.37,1.016 -0.556,2.193 -0.556,3.531c0,1.347 0.188,2.534 0.562,3.562c0.375,1.028 0.924,1.83 1.646,2.408c0.722,0.578 1.61,0.867 2.663,0.867Z" style="fill:#22252a;fill-rule:nonzero;"/><path d="M727.545,519.129c-2.343,-0 -4.366,-0.499 -6.067,-1.497c-1.702,-0.997 -3.016,-2.392 -3.94,-4.183c-0.924,-1.792 -1.386,-3.877 -1.386,-6.256c-0,-2.387 0.462,-4.479 1.386,-6.274c0.924,-1.795 2.238,-3.192 3.94,-4.19c1.701,-0.997 3.724,-1.496 6.067,-1.496c2.343,-0 4.365,0.499 6.067,1.496c1.702,0.998 3.015,2.395 3.94,4.19c0.924,1.795 1.386,3.887 1.386,6.274c0,2.379 -0.462,4.464 -1.386,6.256c-0.925,1.791 -2.238,3.186 -3.94,4.183c-1.702,0.998 -3.724,1.497 -6.067,1.497Zm0.036,-4.967c1.057,-0 1.944,-0.305 2.662,-0.914c0.717,-0.609 1.259,-1.441 1.624,-2.495c0.366,-1.055 0.549,-2.254 0.549,-3.596c-0,-1.349 -0.183,-2.551 -0.549,-3.607c-0.365,-1.056 -0.907,-1.89 -1.624,-2.503c-0.718,-0.613 -1.605,-0.919 -2.662,-0.919c-1.081,-0 -1.986,0.306 -2.716,0.919c-0.729,0.613 -1.277,1.447 -1.642,2.503c-0.366,1.056 -0.549,2.258 -0.549,3.607c0,1.342 0.183,2.541 0.549,3.596c0.365,1.054 0.913,1.886 1.642,2.495c0.73,0.609 1.635,0.914 2.716,0.914Z" style="fill:#22252a;fill-rule:nonzero;"/><path d="M752.948,519.129c-2.375,-0 -4.42,-0.483 -6.135,-1.449c-1.715,-0.965 -3.035,-2.339 -3.958,-4.123c-0.923,-1.783 -1.385,-3.896 -1.385,-6.34c0,-2.383 0.463,-4.474 1.39,-6.272c0.926,-1.799 2.229,-3.2 3.909,-4.205c1.68,-1.005 3.655,-1.507 5.926,-1.507c1.531,-0 2.957,0.243 4.277,0.729c1.32,0.487 2.474,1.219 3.463,2.196c0.988,0.978 1.76,2.202 2.315,3.673c0.554,1.471 0.832,3.19 0.832,5.157l-0,1.76l-19.544,0l0,-3.978l13.503,-0c-0.006,-0.921 -0.21,-1.738 -0.613,-2.452c-0.403,-0.715 -0.958,-1.276 -1.667,-1.685c-0.708,-0.409 -1.528,-0.614 -2.458,-0.614c-0.97,0 -1.831,0.226 -2.58,0.677c-0.75,0.451 -1.336,1.05 -1.759,1.798c-0.423,0.747 -0.64,1.578 -0.652,2.493l-0,3.785c-0,1.146 0.215,2.135 0.645,2.969c0.43,0.834 1.037,1.476 1.82,1.926c0.784,0.45 1.71,0.675 2.779,0.675c0.718,0 1.371,-0.101 1.961,-0.304c0.59,-0.203 1.098,-0.504 1.524,-0.903c0.426,-0.399 0.747,-0.888 0.964,-1.469l5.932,0.386c-0.302,1.43 -0.915,2.676 -1.842,3.736c-0.926,1.06 -2.121,1.881 -3.585,2.465c-1.464,0.584 -3.151,0.876 -5.062,0.876Z" style="fill:#22252a;fill-rule:nonzero;"/><path d="M787.333,527.58c-3.207,0 -6.062,-0.434 -8.565,-1.303c-2.503,-0.869 -4.618,-2.142 -6.346,-3.818c-1.728,-1.676 -3.043,-3.718 -3.945,-6.127c-0.903,-2.41 -1.357,-5.154 -1.363,-8.235c0.006,-3.034 0.463,-5.786 1.372,-8.254c0.908,-2.469 2.236,-4.589 3.983,-6.363c1.747,-1.773 3.884,-3.138 6.412,-4.094c2.528,-0.957 5.41,-1.435 8.645,-1.435c2.998,-0 5.674,0.438 8.028,1.316c2.354,0.877 4.352,2.12 5.995,3.731c1.642,1.611 2.892,3.523 3.749,5.737c0.857,2.215 1.283,4.664 1.277,7.349c0.006,1.848 -0.155,3.547 -0.482,5.095c-0.328,1.548 -0.847,2.898 -1.559,4.049c-0.711,1.152 -1.639,2.061 -2.783,2.728c-1.145,0.667 -2.531,1.046 -4.158,1.137c-1.168,0.084 -2.113,-0.003 -2.836,-0.26c-0.724,-0.257 -1.273,-0.645 -1.649,-1.163c-0.376,-0.518 -0.621,-1.125 -0.736,-1.821l-0.181,0c-0.235,0.607 -0.705,1.154 -1.41,1.64c-0.705,0.486 -1.561,0.861 -2.568,1.124c-1.007,0.264 -2.08,0.363 -3.219,0.299c-1.186,-0.069 -2.309,-0.346 -3.37,-0.832c-1.061,-0.487 -2.001,-1.187 -2.82,-2.101c-0.818,-0.914 -1.461,-2.044 -1.927,-3.389c-0.466,-1.346 -0.702,-2.903 -0.709,-4.674c0.007,-1.748 0.254,-3.269 0.743,-4.563c0.49,-1.294 1.139,-2.384 1.948,-3.27c0.808,-0.886 1.71,-1.579 2.703,-2.077c0.994,-0.498 1.993,-0.82 2.998,-0.965c1.131,-0.172 2.205,-0.172 3.222,0.002c1.017,0.174 1.873,0.45 2.568,0.829c0.695,0.379 1.128,0.789 1.299,1.231l0.217,-0l0,-1.688l4.714,0l0,14.709c0.012,0.699 0.168,1.238 0.469,1.616c0.3,0.377 0.707,0.566 1.219,0.566c0.693,0 1.274,-0.305 1.744,-0.914c0.469,-0.61 0.821,-1.548 1.057,-2.813c0.237,-1.265 0.352,-2.88 0.346,-4.845c0.006,-1.889 -0.241,-3.549 -0.74,-4.981c-0.5,-1.431 -1.192,-2.652 -2.079,-3.662c-0.886,-1.01 -1.917,-1.829 -3.093,-2.459c-1.177,-0.63 -2.45,-1.091 -3.821,-1.384c-1.37,-0.292 -2.78,-0.438 -4.229,-0.438c-2.505,-0 -4.693,0.379 -6.563,1.137c-1.87,0.759 -3.426,1.822 -4.67,3.189c-1.244,1.368 -2.175,2.968 -2.793,4.802c-0.618,1.833 -0.93,3.83 -0.936,5.99c0.006,2.382 0.339,4.488 0.999,6.321c0.66,1.833 1.632,3.372 2.915,4.618c1.283,1.245 2.869,2.189 4.756,2.831c1.888,0.642 4.058,0.963 6.509,0.963c1.16,0 2.292,-0.083 3.397,-0.248c1.105,-0.166 2.106,-0.367 3.002,-0.603c0.896,-0.236 1.613,-0.463 2.149,-0.68l1.495,4.365c-0.629,0.357 -1.485,0.695 -2.569,1.014c-1.084,0.318 -2.3,0.576 -3.647,0.774c-1.348,0.198 -2.736,0.297 -4.164,0.297Zm-0.7,-13.623c1.232,-0 2.212,-0.237 2.941,-0.71c0.728,-0.473 1.249,-1.175 1.561,-2.104c0.312,-0.929 0.46,-2.077 0.442,-3.444c-0.006,-1.205 -0.159,-2.228 -0.457,-3.067c-0.298,-0.838 -0.807,-1.477 -1.525,-1.917c-0.719,-0.439 -1.714,-0.658 -2.986,-0.658c-1.115,-0 -2.062,0.235 -2.841,0.707c-0.778,0.471 -1.372,1.132 -1.781,1.983c-0.409,0.851 -0.616,1.847 -0.622,2.988c0.006,1.069 0.175,2.079 0.508,3.028c0.332,0.95 0.881,1.719 1.645,2.309c0.765,0.59 1.803,0.885 3.115,0.885Z" style="fill:#22252a;fill-rule:nonzero;"/><path d="M817.281,527.701c-2.08,-0 -3.862,-0.282 -5.348,-0.845c-1.486,-0.564 -2.666,-1.324 -3.539,-2.279c-0.873,-0.956 -1.439,-2.016 -1.699,-3.182l5.944,-0.795c0.177,0.416 0.46,0.813 0.85,1.192c0.39,0.379 0.909,0.688 1.557,0.93c0.648,0.241 1.441,0.361 2.38,0.361c1.392,0 2.544,-0.331 3.455,-0.994c0.912,-0.663 1.367,-1.755 1.367,-3.274l0,-4.232l-0.265,0c-0.285,0.639 -0.71,1.247 -1.275,1.822c-0.564,0.576 -1.287,1.045 -2.167,1.408c-0.88,0.363 -1.935,0.544 -3.165,0.544c-1.736,0 -3.315,-0.406 -4.737,-1.218c-1.421,-0.811 -2.553,-2.052 -3.393,-3.722c-0.841,-1.67 -1.262,-3.789 -1.262,-6.357c0,-2.624 0.428,-4.813 1.283,-6.567c0.855,-1.755 1.994,-3.07 3.418,-3.946c1.423,-0.876 2.983,-1.314 4.679,-1.314c1.29,-0 2.372,0.218 3.246,0.655c0.874,0.438 1.582,0.979 2.122,1.625c0.541,0.646 0.954,1.285 1.239,1.916l0.253,-0l0,-3.895l6.366,0l-0,23.378c-0,1.923 -0.483,3.537 -1.448,4.842c-0.966,1.305 -2.3,2.289 -4.002,2.952c-1.702,0.663 -3.655,0.995 -5.859,0.995Zm0.133,-14.166c1.028,-0 1.904,-0.259 2.626,-0.776c0.723,-0.518 1.275,-1.261 1.658,-2.231c0.383,-0.969 0.575,-2.133 0.575,-3.492c-0,-1.354 -0.19,-2.532 -0.569,-3.534c-0.379,-1.002 -0.929,-1.778 -1.651,-2.33c-0.723,-0.552 -1.602,-0.827 -2.639,-0.827c-1.061,-0 -1.953,0.284 -2.675,0.851c-0.723,0.568 -1.269,1.355 -1.64,2.36c-0.371,1.006 -0.556,2.166 -0.556,3.48c-0,1.33 0.187,2.481 0.562,3.453c0.375,0.971 0.923,1.722 1.646,2.251c0.722,0.53 1.61,0.795 2.663,0.795Z" style="fill:#22252a;fill-rule:nonzero;"/><path d="M832.713,518.683l0,-23.149l6.113,0l-0,4.087l0.265,0c0.482,-1.362 1.288,-2.434 2.417,-3.216c1.13,-0.781 2.478,-1.172 4.045,-1.172c1.588,-0 2.938,0.395 4.051,1.186c1.113,0.791 1.857,1.858 2.231,3.202l0.241,0c0.472,-1.328 1.328,-2.391 2.568,-3.19c1.24,-0.799 2.707,-1.198 4.4,-1.198c2.161,-0 3.918,0.686 5.274,2.059c1.355,1.372 2.033,3.314 2.033,5.826l-0,15.565l-6.414,-0l-0,-14.299c-0,-1.292 -0.341,-2.258 -1.022,-2.898c-0.681,-0.64 -1.534,-0.961 -2.559,-0.961c-1.164,0 -2.073,0.37 -2.729,1.108c-0.657,0.739 -0.985,1.712 -0.985,2.919l0,14.131l-6.221,-0l0,-14.444c0,-1.135 -0.324,-2.038 -0.973,-2.708c-0.649,-0.67 -1.502,-1.006 -2.559,-1.006c-0.714,0 -1.354,0.177 -1.92,0.531c-0.567,0.354 -1.015,0.851 -1.346,1.491c-0.33,0.64 -0.496,1.389 -0.496,2.247l0,13.889l-6.414,-0Z" style="fill:#22252a;fill-rule:nonzero;"/><path d="M876.201,519.117c-1.473,-0 -2.788,-0.258 -3.944,-0.773c-1.157,-0.516 -2.068,-1.284 -2.735,-2.305c-0.668,-1.02 -1.001,-2.293 -1.001,-3.819c-0,-1.29 0.234,-2.37 0.702,-3.241c0.468,-0.871 1.109,-1.573 1.923,-2.106c0.814,-0.532 1.742,-0.936 2.784,-1.211c1.042,-0.276 2.136,-0.469 3.284,-0.579c1.34,-0.133 2.422,-0.262 3.247,-0.387c0.825,-0.126 1.424,-0.315 1.798,-0.567c0.374,-0.252 0.561,-0.625 0.561,-1.12l-0,-0.084c-0,-0.956 -0.301,-1.696 -0.901,-2.218c-0.601,-0.523 -1.446,-0.784 -2.535,-0.784c-1.156,-0 -2.075,0.253 -2.76,0.758c-0.684,0.505 -1.135,1.141 -1.352,1.906l-5.943,-0.482c0.301,-1.407 0.893,-2.625 1.776,-3.655c0.884,-1.029 2.026,-1.823 3.429,-2.381c1.403,-0.557 3.027,-0.836 4.874,-0.836c1.292,-0 2.527,0.151 3.704,0.454c1.178,0.302 2.226,0.768 3.144,1.398c0.918,0.63 1.644,1.44 2.177,2.429c0.534,0.99 0.801,2.175 0.801,3.556l-0,15.613l-6.089,-0l0,-3.207l-0.181,-0c-0.373,0.719 -0.87,1.353 -1.49,1.902c-0.62,0.548 -1.368,0.975 -2.245,1.281c-0.878,0.305 -1.887,0.458 -3.028,0.458Zm1.845,-4.425c0.942,0 1.774,-0.189 2.497,-0.567c0.722,-0.377 1.288,-0.889 1.698,-1.534c0.41,-0.645 0.615,-1.371 0.615,-2.179l0,-2.46c-0.193,0.127 -0.465,0.244 -0.815,0.35c-0.351,0.107 -0.741,0.202 -1.17,0.286c-0.429,0.085 -0.859,0.16 -1.29,0.226c-0.431,0.067 -0.822,0.125 -1.174,0.175c-0.755,0.109 -1.415,0.284 -1.979,0.526c-0.563,0.242 -1.001,0.567 -1.314,0.974c-0.312,0.407 -0.469,0.912 -0.469,1.514c0,0.881 0.32,1.549 0.959,2.005c0.639,0.456 1.453,0.684 2.442,0.684Z" style="fill:#22252a;fill-rule:nonzero;"/><path d="M893.532,518.683l-0,-23.149l6.42,0l-0,23.149l-6.42,-0Zm3.24,-26.133c-0.954,0 -1.773,-0.319 -2.456,-0.957c-0.684,-0.638 -1.025,-1.404 -1.025,-2.298c-0,-0.884 0.341,-1.645 1.025,-2.283c0.683,-0.638 1.497,-0.957 2.441,-0.957c0.965,-0 1.786,0.319 2.464,0.957c0.678,0.638 1.017,1.399 1.017,2.283c0,0.894 -0.339,1.66 -1.017,2.298c-0.678,0.638 -1.494,0.957 -2.449,0.957Z" style="fill:#22252a;fill-rule:nonzero;"/><rect x="903.605" y="487.818" width="6.414" height="30.864" style="fill:#22252a;fill-rule:nonzero;"/><path d="M917.422,519.068c-0.997,0 -1.85,-0.352 -2.561,-1.056c-0.71,-0.704 -1.062,-1.558 -1.056,-2.56c-0.006,-0.985 0.346,-1.828 1.056,-2.529c0.711,-0.702 1.564,-1.052 2.561,-1.052c0.96,-0 1.802,0.35 2.524,1.052c0.722,0.701 1.087,1.544 1.093,2.529c-0.006,0.667 -0.178,1.274 -0.514,1.822c-0.337,0.547 -0.776,0.983 -1.319,1.308c-0.543,0.324 -1.137,0.486 -1.784,0.486Z" style="fill:#22252a;fill-rule:nonzero;"/><path d="M935.82,519.129c-2.375,-0 -4.413,-0.505 -6.113,-1.515c-1.7,-1.01 -3.005,-2.412 -3.915,-4.208c-0.91,-1.795 -1.365,-3.866 -1.365,-6.213c-0,-2.363 0.46,-4.443 1.38,-6.241c0.92,-1.797 2.229,-3.2 3.927,-4.208c1.698,-1.007 3.719,-1.511 6.062,-1.511c2.013,-0 3.78,0.366 5.3,1.099c1.52,0.732 2.721,1.763 3.603,3.092c0.883,1.329 1.367,2.886 1.453,4.67l-6.052,0c-0.175,-1.151 -0.624,-2.082 -1.349,-2.792c-0.724,-0.711 -1.677,-1.066 -2.859,-1.066c-0.989,0 -1.854,0.269 -2.595,0.807c-0.741,0.537 -1.318,1.318 -1.73,2.342c-0.412,1.023 -0.618,2.265 -0.618,3.723c0,1.475 0.204,2.73 0.612,3.764c0.408,1.034 0.983,1.822 1.724,2.366c0.741,0.543 1.61,0.815 2.607,0.815c0.738,0 1.399,-0.15 1.983,-0.451c0.585,-0.3 1.071,-0.738 1.458,-1.314c0.387,-0.575 0.642,-1.273 0.767,-2.093l6.052,-0c-0.098,1.77 -0.576,3.327 -1.434,4.67c-0.858,1.344 -2.042,2.39 -3.55,3.14c-1.508,0.749 -3.291,1.124 -5.348,1.124Z" style="fill:#22252a;fill-rule:nonzero;"/><path d="M959.511,519.129c-2.343,-0 -4.366,-0.499 -6.068,-1.497c-1.702,-0.997 -3.015,-2.392 -3.939,-4.183c-0.924,-1.792 -1.387,-3.877 -1.387,-6.256c0,-2.387 0.463,-4.479 1.387,-6.274c0.924,-1.795 2.237,-3.192 3.939,-4.19c1.702,-0.997 3.725,-1.496 6.068,-1.496c2.343,-0 4.365,0.499 6.067,1.496c1.702,0.998 3.015,2.395 3.94,4.19c0.924,1.795 1.386,3.887 1.386,6.274c0,2.379 -0.462,4.464 -1.386,6.256c-0.925,1.791 -2.238,3.186 -3.94,4.183c-1.702,0.998 -3.724,1.497 -6.067,1.497Zm0.036,-4.967c1.057,-0 1.944,-0.305 2.661,-0.914c0.718,-0.609 1.259,-1.441 1.625,-2.495c0.366,-1.055 0.549,-2.254 0.549,-3.596c-0,-1.349 -0.183,-2.551 -0.549,-3.607c-0.366,-1.056 -0.907,-1.89 -1.625,-2.503c-0.717,-0.613 -1.604,-0.919 -2.661,-0.919c-1.081,-0 -1.986,0.306 -2.716,0.919c-0.729,0.613 -1.277,1.447 -1.643,2.503c-0.365,1.056 -0.548,2.258 -0.548,3.607c-0,1.342 0.183,2.541 0.548,3.596c0.366,1.054 0.914,1.886 1.643,2.495c0.73,0.609 1.635,0.914 2.716,0.914Z" style="fill:#22252a;fill-rule:nonzero;"/><path d="M974.376,518.683l0,-23.149l6.113,0l-0,4.087l0.265,0c0.482,-1.362 1.288,-2.434 2.417,-3.216c1.13,-0.781 2.478,-1.172 4.045,-1.172c1.588,-0 2.938,0.395 4.051,1.186c1.114,0.791 1.857,1.858 2.231,3.202l0.241,0c0.472,-1.328 1.328,-2.391 2.568,-3.19c1.24,-0.799 2.707,-1.198 4.401,-1.198c2.16,-0 3.917,0.686 5.273,2.059c1.355,1.372 2.033,3.314 2.033,5.826l-0,15.565l-6.414,-0l-0,-14.299c-0,-1.292 -0.341,-2.258 -1.022,-2.898c-0.681,-0.64 -1.534,-0.961 -2.559,-0.961c-1.163,0 -2.073,0.37 -2.729,1.108c-0.656,0.739 -0.984,1.712 -0.984,2.919l-0,14.131l-6.221,-0l-0,-14.444c-0,-1.135 -0.325,-2.038 -0.974,-2.708c-0.649,-0.67 -1.502,-1.006 -2.559,-1.006c-0.713,0 -1.353,0.177 -1.92,0.531c-0.567,0.354 -1.015,0.851 -1.346,1.491c-0.33,0.64 -0.496,1.389 -0.496,2.247l0,13.889l-6.414,-0Z" style="fill:#22252a;fill-rule:nonzero;"/></g></g></g><path d="M568.375,418.308l0,-36.363l24.503,-0l-0,6.335l-16.818,0l0,8.665l15.554,-0l-0,6.335l-15.554,-0l0,8.693l16.889,0l0,6.335l-24.574,0Z" style="fill-rule:nonzero;"/><path d="M598.134,418.308l-0,-27.272l7.202,-0l-0,4.815l0.312,0c0.568,-1.605 1.517,-2.868 2.848,-3.789c1.33,-0.921 2.919,-1.381 4.766,-1.381c1.87,-0 3.461,0.465 4.772,1.397c1.312,0.932 2.188,2.189 2.628,3.773l0.284,0c0.556,-1.565 1.565,-2.818 3.026,-3.759c1.461,-0.941 3.189,-1.411 5.184,-1.411c2.545,-0 4.616,0.808 6.213,2.425c1.597,1.617 2.395,3.905 2.395,6.864l0,18.338l-7.556,0l-0,-16.846c-0,-1.522 -0.402,-2.661 -1.204,-3.415c-0.803,-0.754 -1.808,-1.131 -3.015,-1.131c-1.371,0 -2.443,0.435 -3.216,1.305c-0.773,0.871 -1.159,2.017 -1.159,3.44l-0,16.647l-7.33,0l0,-17.017c0,-1.337 -0.382,-2.401 -1.147,-3.19c-0.764,-0.79 -1.769,-1.185 -3.015,-1.185c-0.84,0 -1.594,0.209 -2.262,0.625c-0.667,0.417 -1.196,1.002 -1.585,1.756c-0.39,0.754 -0.584,1.637 -0.584,2.648l-0,16.363l-7.557,0Z" style="fill-rule:nonzero;"/><path d="M649.37,418.82c-1.736,-0 -3.284,-0.304 -4.647,-0.911c-1.362,-0.607 -2.437,-1.512 -3.223,-2.715c-0.786,-1.203 -1.179,-2.702 -1.179,-4.499c0,-1.52 0.276,-2.793 0.828,-3.819c0.552,-1.027 1.307,-1.853 2.266,-2.481c0.958,-0.627 2.051,-1.103 3.279,-1.427c1.227,-0.325 2.517,-0.552 3.869,-0.682c1.579,-0.156 2.854,-0.308 3.826,-0.456c0.972,-0.148 1.678,-0.371 2.118,-0.668c0.441,-0.297 0.661,-0.737 0.661,-1.319l-0,-0.1c-0,-1.127 -0.354,-1.998 -1.062,-2.613c-0.708,-0.616 -1.703,-0.924 -2.986,-0.924c-1.362,0 -2.445,0.298 -3.251,0.893c-0.807,0.596 -1.338,1.344 -1.593,2.246l-7.003,-0.568c0.355,-1.657 1.053,-3.092 2.093,-4.306c1.041,-1.213 2.387,-2.148 4.04,-2.805c1.652,-0.657 3.566,-0.985 5.742,-0.985c1.522,-0 2.977,0.178 4.364,0.534c1.388,0.356 2.622,0.906 3.704,1.648c1.082,0.742 1.937,1.696 2.566,2.862c0.628,1.166 0.943,2.562 0.943,4.189l-0,18.394l-7.174,0l0,-3.778l-0.213,0c-0.44,0.848 -1.025,1.594 -1.756,2.241c-0.73,0.646 -1.612,1.149 -2.645,1.509c-1.033,0.36 -2.223,0.54 -3.567,0.54Zm2.173,-5.213c1.11,-0 2.091,-0.223 2.942,-0.668c0.851,-0.445 1.518,-1.047 2.001,-1.807c0.483,-0.76 0.725,-1.616 0.725,-2.568l-0,-2.898c-0.228,0.15 -0.548,0.287 -0.961,0.412c-0.413,0.126 -0.872,0.238 -1.378,0.338c-0.505,0.099 -1.012,0.188 -1.52,0.266c-0.507,0.078 -0.969,0.147 -1.383,0.206c-0.89,0.128 -1.667,0.334 -2.331,0.62c-0.664,0.285 -1.18,0.667 -1.549,1.147c-0.368,0.479 -0.552,1.074 -0.552,1.784c0,1.037 0.377,1.824 1.129,2.362c0.753,0.537 1.712,0.806 2.877,0.806Z" style="fill-rule:nonzero;"/><path d="M669.789,418.308l-0,-27.272l7.564,-0l-0,27.272l-7.564,0Zm3.817,-30.788c-1.124,0 -2.089,-0.376 -2.894,-1.127c-0.805,-0.752 -1.207,-1.655 -1.207,-2.708c-0,-1.042 0.402,-1.938 1.207,-2.69c0.805,-0.752 1.764,-1.128 2.876,-1.128c1.137,0 2.104,0.376 2.903,1.128c0.799,0.752 1.199,1.648 1.199,2.69c-0,1.053 -0.4,1.956 -1.199,2.708c-0.799,0.751 -1.76,1.127 -2.885,1.127Z" style="fill-rule:nonzero;"/><rect x="681.657" y="381.945" width="7.557" height="36.364" style="fill-rule:nonzero;"/></g></g><g><g><g><g><g><path d="M1181.92,707.591c-0,-15.615 -13.902,-28.292 -31.025,-28.292l-550.569,0c-17.122,0 -31.024,12.677 -31.024,28.292l-0,56.585c-0,15.614 13.902,28.292 31.024,28.292l550.569,-0c17.123,-0 31.025,-12.678 31.025,-28.292l-0,-56.585Z" style="fill:#fff;stroke:#212529;stroke-width:14.24px;"/><path d="M611.854,744.564l0.386,-5.835l-4.883,3.267l-2.025,-3.544l5.256,-2.569l-5.256,-2.568l2.025,-3.544l4.883,3.267l-0.386,-5.835l4.051,-0l-0.385,5.835l4.882,-3.267l2.026,3.544l-5.257,2.568l5.257,2.569l-2.026,3.544l-4.882,-3.267l0.385,5.835l-4.051,0Z" style="fill:#22252a;fill-rule:nonzero;"/><path d="M633.074,744.564l0.385,-5.835l-4.883,3.267l-2.025,-3.544l5.257,-2.569l-5.257,-2.568l2.025,-3.544l4.883,3.267l-0.385,-5.835l4.051,-0l-0.386,5.835l4.883,-3.267l2.025,3.544l-5.257,2.568l5.257,2.569l-2.025,3.544l-4.883,-3.267l0.386,5.835l-4.051,0Z" style="fill:#22252a;fill-rule:nonzero;"/><path d="M654.293,744.564l0.386,-5.835l-4.883,3.267l-2.026,-3.544l5.257,-2.569l-5.257,-2.568l2.026,-3.544l4.883,3.267l-0.386,-5.835l4.051,-0l-0.386,5.835l4.883,-3.267l2.025,3.544l-5.256,2.568l5.256,2.569l-2.025,3.544l-4.883,-3.267l0.386,5.835l-4.051,0Z" style="fill:#22252a;fill-rule:nonzero;"/><path d="M675.512,744.564l0.386,-5.835l-4.883,3.267l-2.025,-3.544l5.256,-2.569l-5.256,-2.568l2.025,-3.544l4.883,3.267l-0.386,-5.835l4.051,-0l-0.386,5.835l4.883,-3.267l2.026,3.544l-5.257,2.568l5.257,2.569l-2.026,3.544l-4.883,-3.267l0.386,5.835l-4.051,0Z" style="fill:#22252a;fill-rule:nonzero;"/><path d="M696.732,744.564l0.385,-5.835l-4.883,3.267l-2.025,-3.544l5.257,-2.569l-5.257,-2.568l2.025,-3.544l4.883,3.267l-0.385,-5.835l4.051,-0l-0.386,5.835l4.883,-3.267l2.025,3.544l-5.257,2.568l5.257,2.569l-2.025,3.544l-4.883,-3.267l0.386,5.835l-4.051,0Z" style="fill:#22252a;fill-rule:nonzero;"/><path d="M717.951,744.564l0.386,-5.835l-4.883,3.267l-2.026,-3.544l5.257,-2.569l-5.257,-2.568l2.026,-3.544l4.883,3.267l-0.386,-5.835l4.051,-0l-0.386,5.835l4.883,-3.267l2.025,3.544l-5.256,2.568l5.256,2.569l-2.025,3.544l-4.883,-3.267l0.386,5.835l-4.051,0Z" style="fill:#22252a;fill-rule:nonzero;"/><path d="M739.17,744.564l0.386,-5.835l-4.883,3.267l-2.025,-3.544l5.256,-2.569l-5.256,-2.568l2.025,-3.544l4.883,3.267l-0.386,-5.835l4.051,-0l-0.386,5.835l4.883,-3.267l2.026,3.544l-5.257,2.568l5.257,2.569l-2.026,3.544l-4.883,-3.267l0.386,5.835l-4.051,0Z" style="fill:#22252a;fill-rule:nonzero;"/><path d="M760.39,744.564l0.385,-5.835l-4.883,3.267l-2.025,-3.544l5.257,-2.569l-5.257,-2.568l2.025,-3.544l4.883,3.267l-0.385,-5.835l4.051,-0l-0.386,5.835l4.883,-3.267l2.025,3.544l-5.257,2.568l5.257,2.569l-2.025,3.544l-4.883,-3.267l0.386,5.835l-4.051,0Z" style="fill:#22252a;fill-rule:nonzero;"/><path d="M781.609,744.564l0.386,-5.835l-4.883,3.267l-2.026,-3.544l5.257,-2.569l-5.257,-2.568l2.026,-3.544l4.883,3.267l-0.386,-5.835l4.051,-0l-0.386,5.835l4.883,-3.267l2.025,3.544l-5.256,2.568l5.256,2.569l-2.025,3.544l-4.883,-3.267l0.386,5.835l-4.051,0Z" style="fill:#22252a;fill-rule:nonzero;"/></g></g></g><path d="M568.375,647.314l0,-36.364l14.333,0c2.76,0 5.111,0.525 7.052,1.574c1.941,1.048 3.425,2.5 4.45,4.353c1.025,1.854 1.537,3.983 1.537,6.389c0,2.419 -0.52,4.551 -1.56,6.395c-1.041,1.844 -2.546,3.283 -4.517,4.315c-1.971,1.032 -4.353,1.548 -7.147,1.548l-9.148,0l0,-6.165l7.898,0c1.477,0 2.7,-0.257 3.667,-0.772c0.967,-0.515 1.691,-1.23 2.173,-2.147c0.482,-0.916 0.723,-1.974 0.723,-3.174c-0,-1.208 -0.241,-2.263 -0.723,-3.166c-0.482,-0.903 -1.209,-1.605 -2.181,-2.106c-0.971,-0.501 -2.201,-0.751 -3.687,-0.751l-5.185,-0l0,30.071l-7.685,0Z" style="fill-rule:nonzero;"/><path d="M607.75,647.825c-1.735,0 -3.284,-0.303 -4.646,-0.911c-1.363,-0.607 -2.437,-1.512 -3.223,-2.714c-0.786,-1.203 -1.179,-2.703 -1.179,-4.5c0,-1.52 0.276,-2.793 0.828,-3.819c0.551,-1.026 1.306,-1.853 2.265,-2.48c0.959,-0.628 2.052,-1.103 3.28,-1.428c1.227,-0.324 2.517,-0.552 3.869,-0.682c1.579,-0.156 2.854,-0.308 3.826,-0.456c0.972,-0.148 1.678,-0.37 2.118,-0.668c0.44,-0.297 0.661,-0.736 0.661,-1.319l-0,-0.099c-0,-1.127 -0.354,-1.998 -1.062,-2.614c-0.708,-0.615 -1.703,-0.923 -2.987,-0.923c-1.361,-0 -2.445,0.297 -3.251,0.893c-0.806,0.595 -1.337,1.344 -1.593,2.246l-7.002,-0.568c0.355,-1.657 1.053,-3.093 2.093,-4.306c1.041,-1.213 2.387,-2.148 4.039,-2.805c1.653,-0.657 3.567,-0.986 5.743,-0.986c1.522,0 2.977,0.178 4.364,0.535c1.387,0.356 2.622,0.905 3.704,1.647c1.082,0.742 1.937,1.696 2.566,2.862c0.628,1.166 0.942,2.563 0.942,4.189l0,18.395l-7.173,0l0,-3.778l-0.213,-0c-0.44,0.847 -1.025,1.594 -1.756,2.24c-0.73,0.647 -1.612,1.15 -2.645,1.51c-1.034,0.359 -2.223,0.539 -3.568,0.539Zm2.174,-5.213c1.11,0 2.091,-0.222 2.942,-0.667c0.851,-0.445 1.518,-1.048 2.001,-1.808c0.483,-0.76 0.724,-1.616 0.724,-2.567l0,-2.898c-0.227,0.149 -0.547,0.286 -0.96,0.412c-0.413,0.125 -0.873,0.238 -1.378,0.337c-0.506,0.1 -1.012,0.188 -1.52,0.266c-0.508,0.079 -0.969,0.147 -1.383,0.206c-0.89,0.128 -1.667,0.335 -2.332,0.62c-0.664,0.285 -1.18,0.668 -1.548,1.147c-0.368,0.48 -0.552,1.074 -0.552,1.785c-0,1.037 0.376,1.824 1.129,2.361c0.753,0.538 1.712,0.806 2.877,0.806Z" style="fill-rule:nonzero;"/><path d="M650.861,627.811l-6.917,0.426c-0.124,-0.584 -0.379,-1.117 -0.768,-1.598c-0.388,-0.48 -0.9,-0.864 -1.535,-1.152c-0.636,-0.288 -1.393,-0.432 -2.271,-0.432c-1.172,0 -2.161,0.245 -2.966,0.736c-0.805,0.49 -1.204,1.139 -1.196,1.949c-0.008,0.658 0.249,1.211 0.768,1.659c0.52,0.447 1.414,0.808 2.683,1.083l4.944,0.994c2.651,0.542 4.626,1.416 5.924,2.623c1.299,1.206 1.952,2.794 1.959,4.763c-0.007,1.79 -0.532,3.359 -1.575,4.707c-1.043,1.349 -2.475,2.397 -4.297,3.147c-1.822,0.749 -3.913,1.123 -6.273,1.123c-3.612,0 -6.488,-0.752 -8.627,-2.258c-2.139,-1.506 -3.387,-3.561 -3.745,-6.165l7.429,-0.398c0.23,1.106 0.775,1.946 1.635,2.52c0.861,0.574 1.968,0.861 3.322,0.861c1.321,0 2.388,-0.259 3.202,-0.777c0.813,-0.519 1.223,-1.183 1.23,-1.993c-0.007,-0.691 -0.294,-1.258 -0.861,-1.701c-0.567,-0.442 -1.445,-0.784 -2.633,-1.026l-4.716,-0.937c-2.668,-0.528 -4.651,-1.45 -5.948,-2.767c-1.297,-1.316 -1.942,-2.993 -1.935,-5.032c-0.007,-1.752 0.467,-3.26 1.422,-4.526c0.955,-1.265 2.301,-2.24 4.037,-2.926c1.737,-0.685 3.766,-1.028 6.089,-1.028c3.444,0 6.159,0.727 8.144,2.181c1.985,1.453 3.144,3.435 3.475,5.944Z" style="fill-rule:nonzero;"/><path d="M676.997,627.811l-6.917,0.426c-0.123,-0.584 -0.379,-1.117 -0.767,-1.598c-0.388,-0.48 -0.9,-0.864 -1.536,-1.152c-0.636,-0.288 -1.393,-0.432 -2.271,-0.432c-1.172,0 -2.16,0.245 -2.965,0.736c-0.805,0.49 -1.204,1.139 -1.197,1.949c-0.007,0.658 0.249,1.211 0.769,1.659c0.519,0.447 1.414,0.808 2.683,1.083l4.943,0.994c2.651,0.542 4.626,1.416 5.925,2.623c1.298,1.206 1.951,2.794 1.958,4.763c-0.007,1.79 -0.532,3.359 -1.575,4.707c-1.042,1.349 -2.475,2.397 -4.296,3.147c-1.822,0.749 -3.913,1.123 -6.273,1.123c-3.613,0 -6.489,-0.752 -8.628,-2.258c-2.139,-1.506 -3.387,-3.561 -3.744,-6.165l7.428,-0.398c0.23,1.106 0.775,1.946 1.636,2.52c0.86,0.574 1.968,0.861 3.322,0.861c1.321,0 2.388,-0.259 3.201,-0.777c0.813,-0.519 1.224,-1.183 1.231,-1.993c-0.007,-0.691 -0.295,-1.258 -0.862,-1.701c-0.567,-0.442 -1.444,-0.784 -2.633,-1.026l-4.716,-0.937c-2.668,-0.528 -4.65,-1.45 -5.948,-2.767c-1.297,-1.316 -1.942,-2.993 -1.935,-5.032c-0.007,-1.752 0.467,-3.26 1.422,-4.526c0.955,-1.265 2.301,-2.24 4.038,-2.926c1.736,-0.685 3.766,-1.028 6.088,-1.028c3.445,0 6.159,0.727 8.145,2.181c1.985,1.453 3.143,3.435 3.474,5.944Z" style="fill-rule:nonzero;"/><path d="M685.818,647.314l-7.414,-27.273l7.642,0l4.233,18.324l0.241,0l4.418,-18.324l7.5,0l4.474,18.211l0.242,-0l4.147,-18.211l7.642,0l-7.414,27.273l-7.997,0l-4.688,-17.159l-0.341,-0l-4.688,17.159l-7.997,0Z" style="fill-rule:nonzero;"/><path d="M732.466,647.839c-2.76,0 -5.143,-0.587 -7.148,-1.763c-2.005,-1.175 -3.553,-2.818 -4.642,-4.928c-1.089,-2.111 -1.633,-4.568 -1.633,-7.371c-0,-2.812 0.544,-5.276 1.633,-7.392c1.089,-2.115 2.637,-3.76 4.642,-4.936c2.005,-1.175 4.388,-1.763 7.148,-1.763c2.761,0 5.143,0.588 7.149,1.763c2.005,1.176 3.552,2.821 4.641,4.936c1.089,2.116 1.634,4.58 1.634,7.392c-0,2.803 -0.545,5.26 -1.634,7.371c-1.089,2.11 -2.636,3.753 -4.641,4.928c-2.006,1.176 -4.388,1.763 -7.149,1.763Zm0.043,-5.852c1.245,0 2.29,-0.358 3.135,-1.076c0.846,-0.717 1.484,-1.697 1.915,-2.94c0.43,-1.243 0.646,-2.655 0.646,-4.236c-0,-1.589 -0.216,-3.005 -0.646,-4.25c-0.431,-1.244 -1.069,-2.227 -1.915,-2.949c-0.845,-0.722 -1.89,-1.083 -3.135,-1.083c-1.274,0 -2.34,0.361 -3.2,1.083c-0.859,0.722 -1.504,1.705 -1.935,2.949c-0.431,1.245 -0.646,2.661 -0.646,4.25c-0,1.581 0.215,2.993 0.646,4.236c0.431,1.243 1.076,2.223 1.935,2.94c0.86,0.718 1.926,1.076 3.2,1.076Z" style="fill-rule:nonzero;"/><path d="M749.981,647.314l-0,-27.273l7.329,0l-0,4.759l0.284,-0c0.497,-1.691 1.331,-2.97 2.502,-3.839c1.17,-0.869 2.519,-1.303 4.046,-1.303c0.379,-0 0.787,0.022 1.224,0.065c0.436,0.044 0.819,0.106 1.148,0.187l0,6.722c-0.348,-0.114 -0.835,-0.211 -1.463,-0.291c-0.627,-0.081 -1.205,-0.121 -1.733,-0.121c-1.105,0 -2.094,0.24 -2.966,0.719c-0.873,0.48 -1.56,1.145 -2.062,1.996c-0.502,0.851 -0.753,1.835 -0.753,2.953l0,15.426l-7.556,0Z" style="fill-rule:nonzero;"/><path d="M777.779,647.754c-2.074,0 -3.947,-0.536 -5.62,-1.608c-1.673,-1.073 -2.998,-2.653 -3.977,-4.741c-0.979,-2.088 -1.469,-4.655 -1.469,-7.699c0,-3.12 0.504,-5.72 1.511,-7.798c1.008,-2.079 2.35,-3.635 4.027,-4.67c1.678,-1.035 3.515,-1.552 5.514,-1.552c1.52,0 2.792,0.258 3.817,0.773c1.025,0.514 1.854,1.152 2.486,1.914c0.632,0.761 1.116,1.513 1.452,2.256l0.227,0l0,-13.679l7.557,0l0,36.364l-7.457,0l0,-4.361l-0.327,0c-0.35,0.753 -0.85,1.498 -1.5,2.236c-0.65,0.737 -1.486,1.349 -2.507,1.836c-1.022,0.486 -2.266,0.729 -3.734,0.729Zm2.4,-6.022c1.212,-0 2.244,-0.335 3.095,-1.003c0.851,-0.669 1.502,-1.607 1.953,-2.813c0.451,-1.206 0.677,-2.619 0.677,-4.238c-0,-1.624 -0.223,-3.033 -0.67,-4.225c-0.446,-1.192 -1.095,-2.114 -1.946,-2.766c-0.851,-0.652 -1.887,-0.978 -3.109,-0.978c-1.25,-0 -2.3,0.335 -3.151,1.006c-0.852,0.672 -1.495,1.606 -1.932,2.802c-0.437,1.197 -0.655,2.584 -0.655,4.161c-0,1.586 0.22,2.984 0.662,4.195c0.441,1.211 1.088,2.157 1.939,2.838c0.851,0.68 1.897,1.021 3.137,1.021Z" style="fill-rule:nonzero;"/></g></g></g><path d="M578.761,1038.21c-0.142,-1.43 -0.752,-2.543 -1.831,-3.338c-1.078,-0.796 -2.537,-1.193 -4.376,-1.193c-1.255,-0 -2.316,0.177 -3.184,0.531c-0.868,0.353 -1.528,0.837 -1.98,1.45c-0.452,0.613 -0.682,1.312 -0.689,2.096c-0.014,0.651 0.128,1.219 0.425,1.706c0.297,0.486 0.713,0.904 1.248,1.253c0.535,0.35 1.152,0.65 1.85,0.901c0.699,0.25 1.442,0.465 2.23,0.642l3.267,0.782c1.586,0.355 3.042,0.829 4.368,1.424c1.326,0.594 2.476,1.324 3.452,2.189c0.975,0.865 1.732,1.884 2.271,3.056c0.538,1.172 0.811,2.514 0.818,4.027c-0.007,2.22 -0.57,4.145 -1.69,5.774c-1.12,1.629 -2.73,2.889 -4.831,3.782c-2.101,0.892 -4.634,1.338 -7.598,1.338c-2.938,0 -5.492,-0.448 -7.662,-1.345c-2.169,-0.898 -3.86,-2.231 -5.07,-4.001c-1.211,-1.769 -1.849,-3.965 -1.913,-6.585l7.443,-0c0.083,1.217 0.436,2.231 1.059,3.043c0.622,0.812 1.455,1.422 2.498,1.829c1.043,0.407 2.229,0.611 3.56,0.611c1.304,-0 2.437,-0.188 3.398,-0.565c0.962,-0.376 1.709,-0.901 2.241,-1.573c0.533,-0.672 0.803,-1.451 0.81,-2.337c-0.007,-0.817 -0.25,-1.503 -0.73,-2.058c-0.479,-0.555 -1.177,-1.028 -2.093,-1.42c-0.917,-0.392 -2.035,-0.748 -3.356,-1.067l-3.963,-0.981c-3.069,-0.745 -5.49,-1.913 -7.264,-3.503c-1.775,-1.589 -2.658,-3.727 -2.651,-6.411c-0.007,-2.199 0.585,-4.124 1.777,-5.773c1.192,-1.649 2.829,-2.933 4.912,-3.854c2.082,-0.921 4.45,-1.382 7.104,-1.382c2.698,0 5.055,0.462 7.07,1.385c2.014,0.924 3.586,2.209 4.714,3.855c1.128,1.647 1.707,3.551 1.738,5.712l-7.372,-0Z" style="fill:#ff4343;fill-rule:nonzero;"/><path d="M590.785,1064.12l0,-27.273l7.564,0l0,27.273l-7.564,0Zm3.818,-30.788c-1.125,-0 -2.09,-0.376 -2.894,-1.128c-0.805,-0.751 -1.208,-1.654 -1.208,-2.707c0,-1.042 0.403,-1.939 1.208,-2.69c0.804,-0.752 1.763,-1.128 2.876,-1.128c1.136,0 2.104,0.376 2.903,1.128c0.799,0.751 1.199,1.648 1.199,2.69c-0,1.053 -0.4,1.956 -1.199,2.707c-0.799,0.752 -1.761,1.128 -2.885,1.128Z" style="fill:#ff4343;fill-rule:nonzero;"/><path d="M614.94,1074.74c-2.45,0 -4.551,-0.332 -6.301,-0.996c-1.751,-0.664 -3.141,-1.559 -4.169,-2.685c-1.029,-1.125 -1.696,-2.375 -2.001,-3.748l7.002,-0.937c0.209,0.49 0.542,0.958 1.002,1.404c0.459,0.446 1.07,0.812 1.834,1.096c0.763,0.284 1.698,0.426 2.804,0.426c1.64,-0 2.997,-0.391 4.071,-1.172c1.074,-0.781 1.61,-2.067 1.61,-3.857l0,-4.985l-0.312,-0c-0.336,0.752 -0.837,1.468 -1.502,2.146c-0.665,0.679 -1.516,1.231 -2.553,1.659c-1.037,0.427 -2.28,0.641 -3.729,0.641c-2.046,-0 -3.906,-0.479 -5.581,-1.435c-1.675,-0.957 -3.008,-2.418 -3.998,-4.386c-0.991,-1.967 -1.487,-4.463 -1.487,-7.489c0,-3.092 0.504,-5.671 1.511,-7.738c1.008,-2.067 2.35,-3.616 4.027,-4.648c1.678,-1.033 3.516,-1.549 5.514,-1.549c1.52,0 2.794,0.258 3.824,0.773c1.03,0.515 1.863,1.153 2.5,1.914c0.637,0.761 1.124,1.513 1.46,2.257l0.298,-0l0,-4.589l7.5,0l-0,27.543c-0,2.266 -0.569,4.167 -1.706,5.705c-1.138,1.538 -2.709,2.697 -4.715,3.478c-2.005,0.782 -4.306,1.172 -6.903,1.172Zm0.156,-16.69c1.212,-0 2.244,-0.305 3.095,-0.915c0.851,-0.609 1.502,-1.485 1.953,-2.627c0.451,-1.143 0.677,-2.514 0.677,-4.114c-0,-1.596 -0.223,-2.984 -0.67,-4.164c-0.446,-1.18 -1.094,-2.095 -1.946,-2.745c-0.851,-0.65 -1.887,-0.975 -3.109,-0.975c-1.25,-0 -2.3,0.334 -3.151,1.003c-0.851,0.669 -1.495,1.596 -1.932,2.781c-0.437,1.185 -0.655,2.551 -0.655,4.1c-0,1.567 0.22,2.923 0.662,4.067c0.441,1.145 1.088,2.029 1.939,2.653c0.851,0.624 1.897,0.936 3.137,0.936Z" style="fill:#ff4343;fill-rule:nonzero;"/><path d="M640.679,1048.35l-0,15.767l-7.557,0l0,-27.273l7.202,0l-0,4.816l0.312,-0c0.611,-1.591 1.626,-2.851 3.045,-3.779c1.419,-0.928 3.141,-1.392 5.165,-1.392c1.897,0 3.549,0.415 4.959,1.245c1.41,0.83 2.505,2.011 3.285,3.542c0.78,1.532 1.167,3.355 1.16,5.469l-0,17.372l-7.557,0l-0,-16.023c0.007,-1.666 -0.42,-2.971 -1.28,-3.913c-0.861,-0.942 -2.049,-1.413 -3.564,-1.413c-1.018,-0 -1.916,0.22 -2.693,0.662c-0.778,0.441 -1.384,1.078 -1.817,1.91c-0.433,0.833 -0.653,1.836 -0.66,3.01Z" style="fill:#ff4343;fill-rule:nonzero;"/><rect x="662.781" y="1046.19" width="16.591" height="5.994" style="fill:#ff4343;fill-rule:nonzero;"/><rect x="685.537" y="1027.75" width="7.685" height="36.364" style="fill:#ff4343;fill-rule:nonzero;"/><path d="M706.162,1048.35l-0,15.767l-7.557,0l-0,-27.273l7.202,0l-0,4.816l0.312,-0c0.611,-1.591 1.626,-2.851 3.045,-3.779c1.419,-0.928 3.141,-1.392 5.165,-1.392c1.896,0 3.549,0.415 4.959,1.245c1.41,0.83 2.505,2.011 3.285,3.542c0.78,1.532 1.167,3.355 1.16,5.469l-0,17.372l-7.557,0l-0,-16.023c0.007,-1.666 -0.42,-2.971 -1.28,-3.913c-0.861,-0.942 -2.049,-1.413 -3.564,-1.413c-1.018,-0 -1.916,0.22 -2.693,0.662c-0.778,0.441 -1.384,1.078 -1.817,1.91c-0.433,0.833 -0.653,1.836 -0.66,3.01Z" style="fill:#ff4343;fill-rule:nonzero;"/><path d="M747.298,1064.12l-7.415,-27.273l7.642,0l4.233,18.324l0.242,0l4.417,-18.324l7.5,0l4.475,18.211l0.241,-0l4.148,-18.211l7.642,0l-7.415,27.273l-7.997,0l-4.688,-17.159l-0.34,-0l-4.688,17.159l-7.997,0Z" style="fill:#ff4343;fill-rule:nonzero;"/><path d="M790.324,1064.63c-1.736,0 -3.284,-0.303 -4.647,-0.91c-1.362,-0.608 -2.437,-1.513 -3.223,-2.715c-0.786,-1.203 -1.179,-2.703 -1.179,-4.499c0,-1.52 0.276,-2.794 0.828,-3.82c0.552,-1.026 1.307,-1.853 2.266,-2.48c0.958,-0.627 2.051,-1.103 3.279,-1.428c1.227,-0.324 2.517,-0.551 3.869,-0.682c1.579,-0.156 2.854,-0.308 3.826,-0.456c0.972,-0.148 1.678,-0.37 2.118,-0.667c0.441,-0.298 0.661,-0.737 0.661,-1.32l-0,-0.099c-0,-1.127 -0.354,-1.998 -1.062,-2.614c-0.708,-0.615 -1.703,-0.923 -2.986,-0.923c-1.362,-0 -2.445,0.298 -3.251,0.893c-0.807,0.595 -1.338,1.344 -1.593,2.246l-7.003,-0.568c0.355,-1.657 1.053,-3.093 2.093,-4.306c1.041,-1.213 2.387,-2.148 4.04,-2.805c1.652,-0.657 3.566,-0.986 5.742,-0.986c1.522,0 2.977,0.178 4.364,0.535c1.388,0.356 2.622,0.905 3.704,1.647c1.082,0.743 1.937,1.697 2.566,2.863c0.628,1.166 0.943,2.562 0.943,4.188l-0,18.395l-7.174,0l0,-3.778l-0.213,-0c-0.44,0.847 -1.025,1.594 -1.756,2.24c-0.73,0.647 -1.612,1.15 -2.645,1.51c-1.033,0.36 -2.223,0.539 -3.567,0.539Zm2.173,-5.213c1.11,0 2.091,-0.222 2.942,-0.667c0.851,-0.445 1.518,-1.048 2.001,-1.808c0.483,-0.76 0.725,-1.616 0.725,-2.567l-0,-2.898c-0.228,0.149 -0.548,0.286 -0.961,0.412c-0.413,0.125 -0.872,0.238 -1.378,0.337c-0.505,0.1 -1.012,0.188 -1.52,0.267c-0.507,0.078 -0.969,0.146 -1.383,0.206c-0.89,0.127 -1.667,0.334 -2.331,0.619c-0.664,0.286 -1.18,0.668 -1.549,1.147c-0.368,0.48 -0.552,1.075 -0.552,1.785c0,1.037 0.377,1.824 1.129,2.361c0.753,0.538 1.712,0.806 2.877,0.806Z" style="fill:#ff4343;fill-rule:nonzero;"/><path d="M833.434,1044.62l-6.917,0.426c-0.123,-0.584 -0.379,-1.117 -0.767,-1.598c-0.388,-0.48 -0.9,-0.864 -1.536,-1.152c-0.636,-0.288 -1.393,-0.432 -2.271,-0.432c-1.172,0 -2.16,0.246 -2.965,0.736c-0.805,0.49 -1.204,1.14 -1.197,1.949c-0.007,0.658 0.249,1.211 0.769,1.659c0.519,0.447 1.414,0.808 2.683,1.083l4.943,0.994c2.651,0.542 4.626,1.416 5.925,2.623c1.298,1.206 1.951,2.794 1.958,4.763c-0.007,1.79 -0.532,3.359 -1.575,4.707c-1.043,1.349 -2.475,2.397 -4.297,3.147c-1.821,0.749 -3.912,1.124 -6.272,1.124c-3.613,-0 -6.489,-0.753 -8.628,-2.259c-2.139,-1.505 -3.387,-3.56 -3.745,-6.165l7.429,-0.397c0.23,1.105 0.775,1.945 1.635,2.519c0.861,0.574 1.968,0.861 3.323,0.861c1.321,0 2.388,-0.259 3.201,-0.777c0.813,-0.519 1.224,-1.183 1.231,-1.992c-0.007,-0.692 -0.295,-1.259 -0.862,-1.702c-0.567,-0.442 -1.444,-0.784 -2.633,-1.026l-4.716,-0.937c-2.668,-0.528 -4.651,-1.45 -5.948,-2.767c-1.297,-1.316 -1.942,-2.993 -1.935,-5.032c-0.007,-1.752 0.467,-3.26 1.422,-4.526c0.955,-1.265 2.301,-2.24 4.038,-2.926c1.736,-0.685 3.766,-1.028 6.088,-1.028c3.445,0 6.159,0.727 8.145,2.181c1.985,1.453 3.143,3.435 3.474,5.944Z" style="fill:#ff4343;fill-rule:nonzero;"/><path d="M858.505,1048.35l0,15.767l-7.556,0l-0,-27.273l7.201,0l0,4.816l0.313,-0c0.61,-1.591 1.625,-2.851 3.045,-3.779c1.419,-0.928 3.141,-1.392 5.165,-1.392c1.896,0 3.549,0.415 4.959,1.245c1.41,0.83 2.505,2.011 3.285,3.542c0.78,1.532 1.166,3.355 1.159,5.469l0,17.372l-7.556,0l-0,-16.023c0.007,-1.666 -0.42,-2.971 -1.281,-3.913c-0.86,-0.942 -2.048,-1.413 -3.563,-1.413c-1.018,-0 -1.916,0.22 -2.694,0.662c-0.777,0.441 -1.383,1.078 -1.816,1.91c-0.433,0.833 -0.654,1.836 -0.661,3.01Z" style="fill:#ff4343;fill-rule:nonzero;"/><path d="M892.525,1064.64c-2.76,-0 -5.143,-0.588 -7.148,-1.763c-2.005,-1.176 -3.552,-2.819 -4.641,-4.929c-1.089,-2.111 -1.634,-4.568 -1.634,-7.371c0,-2.812 0.545,-5.276 1.634,-7.392c1.089,-2.115 2.636,-3.76 4.641,-4.936c2.005,-1.175 4.388,-1.763 7.148,-1.763c2.761,0 5.144,0.588 7.149,1.763c2.005,1.176 3.552,2.821 4.641,4.936c1.089,2.116 1.634,4.58 1.634,7.392c-0,2.803 -0.545,5.26 -1.634,7.371c-1.089,2.11 -2.636,3.753 -4.641,4.929c-2.005,1.175 -4.388,1.763 -7.149,1.763Zm0.043,-5.853c1.245,0 2.29,-0.358 3.136,-1.076c0.845,-0.717 1.483,-1.697 1.914,-2.94c0.431,-1.243 0.646,-2.655 0.646,-4.236c0,-1.589 -0.215,-3.005 -0.646,-4.249c-0.431,-1.244 -1.069,-2.228 -1.914,-2.95c-0.846,-0.722 -1.891,-1.083 -3.136,-1.083c-1.274,0 -2.34,0.361 -3.2,1.083c-0.859,0.722 -1.504,1.706 -1.935,2.95c-0.431,1.244 -0.646,2.66 -0.646,4.249c-0,1.581 0.215,2.993 0.646,4.236c0.431,1.243 1.076,2.223 1.935,2.94c0.86,0.718 1.926,1.076 3.2,1.076Z" style="fill:#ff4343;fill-rule:nonzero;"/><path d="M924.542,1036.85l0,5.682l-16.434,0l-0,-5.682l16.434,0Zm-12.698,-6.534l7.556,0l0,25.419c0,0.701 0.109,1.245 0.327,1.632c0.218,0.387 0.518,0.657 0.902,0.81c0.384,0.152 0.826,0.229 1.328,0.229c0.362,-0 0.722,-0.032 1.078,-0.096c0.356,-0.064 0.627,-0.117 0.811,-0.16l1.194,5.639c-0.377,0.121 -0.91,0.261 -1.6,0.419c-0.69,0.159 -1.526,0.256 -2.506,0.292c-1.823,0.071 -3.418,-0.171 -4.787,-0.727c-1.368,-0.555 -2.431,-1.421 -3.188,-2.597c-0.758,-1.177 -1.13,-2.654 -1.115,-4.432l-0,-26.428Z" style="fill:#ff4343;fill-rule:nonzero;"/><path d="M964.969,1044.62l-6.918,0.426c-0.123,-0.584 -0.379,-1.117 -0.767,-1.598c-0.388,-0.48 -0.9,-0.864 -1.536,-1.152c-0.636,-0.288 -1.393,-0.432 -2.271,-0.432c-1.172,0 -2.16,0.246 -2.965,0.736c-0.805,0.49 -1.204,1.14 -1.197,1.949c-0.007,0.658 0.249,1.211 0.769,1.659c0.519,0.447 1.414,0.808 2.683,1.083l4.943,0.994c2.651,0.542 4.626,1.416 5.925,2.623c1.298,1.206 1.951,2.794 1.958,4.763c-0.007,1.79 -0.532,3.359 -1.575,4.707c-1.042,1.349 -2.475,2.397 -4.296,3.147c-1.822,0.749 -3.913,1.124 -6.273,1.124c-3.613,-0 -6.489,-0.753 -8.628,-2.259c-2.139,-1.505 -3.387,-3.56 -3.744,-6.165l7.428,-0.397c0.23,1.105 0.775,1.945 1.636,2.519c0.86,0.574 1.968,0.861 3.322,0.861c1.321,0 2.388,-0.259 3.201,-0.777c0.813,-0.519 1.224,-1.183 1.231,-1.992c-0.007,-0.692 -0.295,-1.259 -0.861,-1.702c-0.567,-0.442 -1.445,-0.784 -2.634,-1.026l-4.716,-0.937c-2.668,-0.528 -4.65,-1.45 -5.948,-2.767c-1.297,-1.316 -1.942,-2.993 -1.935,-5.032c-0.007,-1.752 0.467,-3.26 1.422,-4.526c0.955,-1.265 2.301,-2.24 4.038,-2.926c1.736,-0.685 3.766,-1.028 6.088,-1.028c3.445,0 6.16,0.727 8.145,2.181c1.985,1.453 3.143,3.435 3.475,5.944Z" style="fill:#ff4343;fill-rule:nonzero;"/><path d="M985.906,1052.5l0,-15.654l7.557,0l-0,27.273l-7.259,0l0,-4.957l-0.284,-0c-0.611,1.598 -1.63,2.883 -3.057,3.854c-1.428,0.972 -3.164,1.458 -5.21,1.458c-1.825,0 -3.431,-0.413 -4.817,-1.239c-1.386,-0.826 -2.467,-2.005 -3.242,-3.537c-0.775,-1.532 -1.167,-3.358 -1.174,-5.479l0,-17.373l7.557,0l0,16.023c0.007,1.605 0.439,2.875 1.294,3.81c0.856,0.936 2.001,1.403 3.436,1.403c0.907,0 1.756,-0.211 2.548,-0.634c0.792,-0.422 1.434,-1.047 1.925,-1.875c0.491,-0.827 0.733,-1.852 0.726,-3.073Z" style="fill:#ff4343;fill-rule:nonzero;"/><path d="M1009.78,1064.64c-2.799,-0 -5.199,-0.595 -7.202,-1.785c-2.003,-1.189 -3.54,-2.842 -4.613,-4.957c-1.072,-2.115 -1.608,-4.556 -1.608,-7.321c-0,-2.784 0.542,-5.235 1.626,-7.352c1.084,-2.118 2.627,-3.771 4.627,-4.958c2.001,-1.187 4.381,-1.781 7.142,-1.781c2.372,0 4.453,0.432 6.244,1.295c1.791,0.863 3.206,2.077 4.245,3.643c1.04,1.566 1.61,3.4 1.712,5.503l-7.131,-0c-0.205,-1.357 -0.735,-2.454 -1.589,-3.291c-0.853,-0.836 -1.976,-1.255 -3.368,-1.255c-1.165,0 -2.184,0.317 -3.058,0.95c-0.873,0.633 -1.553,1.553 -2.038,2.759c-0.485,1.206 -0.728,2.669 -0.728,4.388c0,1.737 0.24,3.215 0.721,4.433c0.481,1.219 1.158,2.148 2.031,2.788c0.874,0.641 1.898,0.961 3.072,0.961c0.869,-0 1.648,-0.177 2.337,-0.531c0.689,-0.354 1.261,-0.87 1.717,-1.549c0.456,-0.678 0.757,-1.5 0.903,-2.466l7.131,0c-0.116,2.086 -0.679,3.92 -1.69,5.503c-1.011,1.582 -2.405,2.815 -4.182,3.698c-1.776,0.883 -3.877,1.325 -6.301,1.325Z" style="fill:#ff4343;fill-rule:nonzero;"/><path d="M1037.7,1064.64c-2.799,-0 -5.199,-0.595 -7.202,-1.785c-2.003,-1.189 -3.54,-2.842 -4.613,-4.957c-1.072,-2.115 -1.609,-4.556 -1.609,-7.321c0,-2.784 0.543,-5.235 1.627,-7.352c1.084,-2.118 2.627,-3.771 4.627,-4.958c2.001,-1.187 4.381,-1.781 7.141,-1.781c2.373,0 4.454,0.432 6.245,1.295c1.791,0.863 3.206,2.077 4.245,3.643c1.04,1.566 1.61,3.4 1.712,5.503l-7.131,-0c-0.205,-1.357 -0.735,-2.454 -1.589,-3.291c-0.853,-0.836 -1.976,-1.255 -3.368,-1.255c-1.165,0 -2.184,0.317 -3.058,0.95c-0.873,0.633 -1.553,1.553 -2.038,2.759c-0.485,1.206 -0.728,2.669 -0.728,4.388c0,1.737 0.24,3.215 0.721,4.433c0.481,1.219 1.158,2.148 2.031,2.788c0.874,0.641 1.898,0.961 3.072,0.961c0.869,-0 1.648,-0.177 2.337,-0.531c0.688,-0.354 1.261,-0.87 1.717,-1.549c0.455,-0.678 0.757,-1.5 0.903,-2.466l7.131,0c-0.116,2.086 -0.679,3.92 -1.69,5.503c-1.011,1.582 -2.405,2.815 -4.182,3.698c-1.777,0.883 -3.877,1.325 -6.301,1.325Z" style="fill:#ff4343;fill-rule:nonzero;"/><path d="M1065.71,1064.64c-2.798,-0 -5.208,-0.569 -7.228,-1.707c-2.021,-1.137 -3.575,-2.756 -4.663,-4.857c-1.088,-2.102 -1.632,-4.592 -1.632,-7.47c0,-2.808 0.546,-5.271 1.638,-7.39c1.091,-2.119 2.626,-3.77 4.605,-4.954c1.979,-1.184 4.307,-1.776 6.982,-1.776c1.804,0 3.484,0.287 5.039,0.86c1.555,0.573 2.915,1.435 4.08,2.587c1.165,1.152 2.074,2.594 2.727,4.327c0.654,1.733 0.981,3.758 0.981,6.076l-0,2.074l-23.026,-0l0,-4.688l15.909,0c-0.007,-1.084 -0.248,-2.047 -0.723,-2.889c-0.474,-0.841 -1.129,-1.503 -1.963,-1.985c-0.835,-0.482 -1.8,-0.723 -2.896,-0.723c-1.144,0 -2.157,0.266 -3.04,0.798c-0.883,0.531 -1.574,1.237 -2.072,2.118c-0.499,0.881 -0.755,1.86 -0.769,2.937l-0,4.46c-0,1.349 0.253,2.515 0.76,3.498c0.506,0.982 1.221,1.739 2.145,2.269c0.923,0.53 2.014,0.795 3.274,0.795c0.845,0 1.615,-0.119 2.31,-0.358c0.695,-0.239 1.293,-0.594 1.795,-1.064c0.502,-0.47 0.881,-1.047 1.136,-1.731l6.989,0.455c-0.355,1.685 -1.078,3.153 -2.17,4.401c-1.091,1.249 -2.499,2.217 -4.224,2.905c-1.724,0.688 -3.713,1.032 -5.964,1.032Z" style="fill:#ff4343;fill-rule:nonzero;"/><path d="M1105.1,1044.62l-6.917,0.426c-0.123,-0.584 -0.379,-1.117 -0.767,-1.598c-0.388,-0.48 -0.9,-0.864 -1.536,-1.152c-0.636,-0.288 -1.393,-0.432 -2.271,-0.432c-1.172,0 -2.16,0.246 -2.965,0.736c-0.805,0.49 -1.204,1.14 -1.197,1.949c-0.007,0.658 0.249,1.211 0.769,1.659c0.519,0.447 1.414,0.808 2.683,1.083l4.943,0.994c2.651,0.542 4.626,1.416 5.925,2.623c1.298,1.206 1.951,2.794 1.958,4.763c-0.007,1.79 -0.532,3.359 -1.575,4.707c-1.043,1.349 -2.475,2.397 -4.297,3.147c-1.821,0.749 -3.912,1.124 -6.272,1.124c-3.613,-0 -6.489,-0.753 -8.628,-2.259c-2.139,-1.505 -3.387,-3.56 -3.745,-6.165l7.429,-0.397c0.23,1.105 0.775,1.945 1.635,2.519c0.861,0.574 1.968,0.861 3.323,0.861c1.321,0 2.388,-0.259 3.201,-0.777c0.813,-0.519 1.223,-1.183 1.231,-1.992c-0.008,-0.692 -0.295,-1.259 -0.862,-1.702c-0.567,-0.442 -1.444,-0.784 -2.633,-1.026l-4.716,-0.937c-2.668,-0.528 -4.651,-1.45 -5.948,-2.767c-1.297,-1.316 -1.942,-2.993 -1.935,-5.032c-0.007,-1.752 0.467,-3.26 1.422,-4.526c0.955,-1.265 2.301,-2.24 4.038,-2.926c1.736,-0.685 3.766,-1.028 6.088,-1.028c3.445,0 6.159,0.727 8.145,2.181c1.985,1.453 3.143,3.435 3.474,5.944Z" style="fill:#ff4343;fill-rule:nonzero;"/><path d="M1131.23,1044.62l-6.918,0.426c-0.123,-0.584 -0.379,-1.117 -0.767,-1.598c-0.388,-0.48 -0.9,-0.864 -1.536,-1.152c-0.635,-0.288 -1.392,-0.432 -2.271,-0.432c-1.172,0 -2.16,0.246 -2.965,0.736c-0.805,0.49 -1.204,1.14 -1.197,1.949c-0.007,0.658 0.249,1.211 0.769,1.659c0.52,0.447 1.414,0.808 2.683,1.083l4.943,0.994c2.652,0.542 4.627,1.416 5.925,2.623c1.299,1.206 1.951,2.794 1.958,4.763c-0.007,1.79 -0.531,3.359 -1.574,4.707c-1.043,1.349 -2.476,2.397 -4.297,3.147c-1.822,0.749 -3.913,1.124 -6.273,1.124c-3.613,-0 -6.489,-0.753 -8.628,-2.259c-2.138,-1.505 -3.387,-3.56 -3.744,-6.165l7.429,-0.397c0.229,1.105 0.774,1.945 1.635,2.519c0.86,0.574 1.968,0.861 3.322,0.861c1.321,0 2.388,-0.259 3.201,-0.777c0.814,-0.519 1.224,-1.183 1.231,-1.992c-0.007,-0.692 -0.294,-1.259 -0.861,-1.702c-0.567,-0.442 -1.445,-0.784 -2.634,-1.026l-4.715,-0.937c-2.668,-0.528 -4.651,-1.45 -5.948,-2.767c-1.298,-1.316 -1.943,-2.993 -1.936,-5.032c-0.007,-1.752 0.467,-3.26 1.422,-4.526c0.956,-1.265 2.301,-2.24 4.038,-2.926c1.737,-0.685 3.766,-1.028 6.088,-1.028c3.445,0 6.16,0.727 8.145,2.181c1.985,1.453 3.143,3.435 3.475,5.944Z" style="fill:#ff4343;fill-rule:nonzero;"/><path d="M1149.34,1036.85l-0,5.682l-16.833,0l0,-5.682l16.833,0Zm-12.984,27.273l0,-29.247c0,-1.974 0.389,-3.614 1.165,-4.918c0.777,-1.305 1.84,-2.281 3.189,-2.93c1.35,-0.649 2.881,-0.973 4.595,-0.973c1.158,-0 2.22,0.09 3.188,0.27c0.967,0.18 1.685,0.341 2.153,0.483l-1.335,5.667c-0.298,-0.092 -0.664,-0.179 -1.097,-0.261c-0.433,-0.081 -0.877,-0.122 -1.332,-0.122c-1.108,-0 -1.88,0.257 -2.315,0.77c-0.436,0.514 -0.654,1.233 -0.654,2.156l0,29.105l-7.557,0Z" style="fill:#ff4343;fill-rule:nonzero;"/><path d="M1170.21,1052.5l0,-15.654l7.557,0l-0,27.273l-7.259,0l0,-4.957l-0.284,-0c-0.611,1.598 -1.63,2.883 -3.057,3.854c-1.428,0.972 -3.164,1.458 -5.21,1.458c-1.825,0 -3.431,-0.413 -4.817,-1.239c-1.386,-0.826 -2.467,-2.005 -3.242,-3.537c-0.775,-1.532 -1.167,-3.358 -1.174,-5.479l0,-17.373l7.557,0l0,16.023c0.007,1.605 0.438,2.875 1.294,3.81c0.856,0.936 2.001,1.403 3.436,1.403c0.907,0 1.756,-0.211 2.548,-0.634c0.792,-0.422 1.433,-1.047 1.925,-1.875c0.491,-0.827 0.733,-1.852 0.726,-3.073Z" style="fill:#ff4343;fill-rule:nonzero;"/><rect x="1181.77" y="1027.75" width="7.557" height="36.364" style="fill:#ff4343;fill-rule:nonzero;"/><path d="M1198.05,1064.57c-1.174,-0 -2.18,-0.415 -3.017,-1.245c-0.837,-0.83 -1.252,-1.835 -1.244,-3.017c-0.008,-1.16 0.407,-2.153 1.244,-2.979c0.837,-0.826 1.843,-1.239 3.017,-1.239c1.132,-0 2.123,0.413 2.974,1.239c0.851,0.826 1.28,1.819 1.287,2.979c-0.007,0.786 -0.209,1.502 -0.605,2.147c-0.397,0.645 -0.915,1.159 -1.554,1.541c-0.639,0.382 -1.34,0.574 -2.102,0.574Z" style="fill:#ff4343;fill-rule:nonzero;"/><g><g><path d="M1180.3,878.256c-0,-15.62 -13.9,-28.3 -31.024,-28.3l-550.516,-0c-17.121,-0 -31.022,12.68 -31.022,28.3l0,56.599c0,15.619 13.901,28.3 31.022,28.3l550.516,-0c17.124,-0 31.024,-12.681 31.024,-28.3l-0,-56.599Z" style="fill:#76f5c0;stroke:#212529;stroke-width:14.24px;"/><g><g><path d="M801.107,898.098c-0.195,-1.77 -0.977,-3.114 -2.411,-4.091c-1.434,-0.977 -3.324,-1.465 -5.67,-1.465c-1.694,-0 -3.062,0.244 -4.17,0.671c-1.173,0.428 -2.02,1.038 -2.607,1.771c-0.586,0.733 -0.847,1.588 -0.912,2.565c-0,0.794 0.195,1.465 0.586,2.076c0.391,0.61 0.913,1.099 1.629,1.526c0.717,0.428 1.499,0.794 2.412,1.1c0.912,0.305 1.889,0.549 2.932,0.793l4.236,0.916c2.085,0.489 3.975,1.038 5.669,1.771c1.76,0.733 3.259,1.588 4.497,2.687c1.303,1.038 2.281,2.259 2.998,3.724c0.651,1.405 1.042,3.053 1.042,4.885c0,2.748 -0.716,5.068 -2.215,7.083c-1.434,1.954 -3.519,3.542 -6.256,4.58c-2.737,1.099 -6.061,1.649 -9.906,1.649c-3.845,-0 -7.168,-0.55 -10.035,-1.649c-2.803,-1.099 -5.018,-2.687 -6.582,-4.885c-1.564,-2.137 -2.411,-4.824 -2.477,-7.999l9.71,0c0.065,1.466 0.522,2.687 1.369,3.664c0.782,1.038 1.89,1.771 3.258,2.259c1.369,0.489 2.867,0.733 4.627,0.733c1.694,-0 3.193,-0.244 4.431,-0.672c1.238,-0.488 2.216,-1.099 2.933,-1.954c0.651,-0.794 1.042,-1.771 1.042,-2.809c0,-1.038 -0.325,-1.832 -0.977,-2.503c-0.587,-0.733 -1.499,-1.282 -2.737,-1.771c-1.173,-0.488 -2.607,-0.916 -4.366,-1.282l-5.148,-1.221c-3.976,-0.916 -7.169,-2.321 -9.45,-4.275c-2.346,-1.954 -3.453,-4.518 -3.453,-7.816c-0,-2.686 0.782,-5.068 2.28,-7.022c1.564,-2.015 3.715,-3.602 6.452,-4.762c2.672,-1.099 5.8,-1.649 9.254,-1.649c3.519,-0 6.581,0.55 9.188,1.649c2.607,1.16 4.692,2.747 6.126,4.762c1.499,2.015 2.216,4.336 2.281,6.961l-9.58,0Z" style="fill:#212529;fill-rule:nonzero;"/></g><g><path d="M839.542,915.562l-0,-19.112l9.84,-0l-0,33.278l-9.449,0l-0,-6.045l-0.326,-0c-0.847,1.954 -2.151,3.542 -4.041,4.702c-1.824,1.16 -4.105,1.77 -6.777,1.77c-2.346,0 -4.431,-0.488 -6.256,-1.526c-1.825,-0.977 -3.258,-2.442 -4.236,-4.274c-1.043,-1.893 -1.499,-4.152 -1.499,-6.717l0,-21.188l9.841,-0l-0,19.539c-0,1.954 0.521,3.542 1.694,4.641c1.108,1.16 2.607,1.71 4.431,1.71c1.173,-0 2.281,-0.245 3.324,-0.733c1.042,-0.55 1.89,-1.282 2.541,-2.32c0.652,-0.977 0.913,-2.26 0.913,-3.725Z" style="fill:#212529;fill-rule:nonzero;"/></g><g><path d="M854.788,929.728l0,-44.391l9.841,-0l-0,16.669l0.326,0c0.456,-0.916 1.042,-1.832 1.889,-2.747c0.848,-0.916 1.89,-1.71 3.259,-2.321c1.303,-0.61 2.997,-0.977 4.952,-0.977c2.607,0 5.018,0.672 7.169,1.893c2.215,1.282 3.975,3.175 5.278,5.74c1.304,2.503 1.955,5.679 1.955,9.525c0,3.725 -0.651,6.839 -1.89,9.404c-1.303,2.564 -2.997,4.457 -5.213,5.801c-2.15,1.282 -4.627,1.954 -7.299,1.954c-1.889,-0 -3.519,-0.306 -4.887,-0.916c-1.303,-0.611 -2.411,-1.344 -3.258,-2.26c-0.848,-0.854 -1.499,-1.77 -1.955,-2.686l-0.457,-0l0,5.312l-9.71,0Zm9.645,-16.67c0,2.015 0.326,3.725 0.913,5.191c0.586,1.465 1.433,2.625 2.541,3.419c1.108,0.855 2.476,1.221 4.04,1.221c1.63,0 2.998,-0.366 4.106,-1.221c1.108,-0.855 1.955,-2.015 2.476,-3.481c0.587,-1.465 0.913,-3.175 0.913,-5.129c-0,-1.893 -0.326,-3.602 -0.848,-5.068c-0.586,-1.465 -1.433,-2.625 -2.541,-3.419c-1.108,-0.794 -2.476,-1.221 -4.106,-1.221c-1.629,-0 -2.932,0.366 -4.04,1.16c-1.108,0.855 -1.955,1.954 -2.541,3.419c-0.587,1.466 -0.913,3.175 -0.913,5.129Z" style="fill:#212529;fill-rule:nonzero;"/></g><g><path d="M895.11,929.728l-0,-33.278l9.384,-0l-0,5.862l0.391,-0c0.717,-1.954 1.955,-3.542 3.714,-4.641c1.695,-1.099 3.78,-1.71 6.191,-1.71c2.411,0 4.497,0.611 6.256,1.71c1.695,1.16 2.802,2.687 3.389,4.641l0.391,-0c0.717,-1.893 2.02,-3.481 3.91,-4.58c1.89,-1.16 4.171,-1.771 6.777,-1.771c3.324,0 5.996,1.038 8.081,2.992c2.085,1.954 3.128,4.763 3.128,8.366l-0,22.409l-9.84,0l-0,-20.578c-0,-1.831 -0.522,-3.236 -1.564,-4.152c-1.043,-0.916 -2.346,-1.404 -3.91,-1.404c-1.825,-0 -3.193,0.549 -4.236,1.587c-0.978,1.1 -1.499,2.504 -1.499,4.214l0,20.333l-9.514,0l-0,-20.761c-0,-1.648 -0.522,-2.931 -1.499,-3.908c-1.043,-0.977 -2.346,-1.465 -3.975,-1.465c-1.108,-0 -2.086,0.244 -2.933,0.794c-0.847,0.488 -1.564,1.221 -2.085,2.137c-0.456,0.916 -0.717,2.015 -0.717,3.236l-0,19.967l-9.84,0Z" style="fill:#212529;fill-rule:nonzero;"/></g><g><path d="M951.695,929.728l0,-33.278l9.905,-0l0,33.278l-9.905,0Zm5.018,-37.614c-1.499,0 -2.737,-0.427 -3.78,-1.343c-1.042,-0.916 -1.564,-2.015 -1.564,-3.297c0,-1.283 0.522,-2.382 1.564,-3.298c1.043,-0.916 2.281,-1.404 3.715,-1.404c1.499,-0 2.737,0.488 3.779,1.404c1.043,0.916 1.564,2.015 1.564,3.298c0,1.282 -0.521,2.381 -1.564,3.297c-1.042,0.916 -2.28,1.343 -3.714,1.343Z" style="fill:#212529;fill-rule:nonzero;"/></g><g><path d="M986.118,896.45l-0,6.9l-21.44,-0l-0,-6.9l21.44,-0Zm-16.553,-7.999l9.84,-0l0,31.019c0,0.855 0.131,1.526 0.391,2.015c0.326,0.488 0.717,0.794 1.173,0.977c0.522,0.183 1.108,0.305 1.76,0.305c0.456,0 0.912,-0.061 1.368,-0.122c0.522,-0.122 0.848,-0.183 1.108,-0.183l1.564,6.839c-0.521,0.183 -1.238,0.366 -2.085,0.549c-0.912,0.183 -2.02,0.305 -3.324,0.367c-2.346,0.061 -4.431,-0.245 -6.191,-0.916c-1.824,-0.672 -3.193,-1.71 -4.17,-3.176c-0.978,-1.404 -1.499,-3.236 -1.434,-5.434l0,-32.24Z" style="fill:#212529;fill-rule:nonzero;"/></g></g></g></g></g></g></svg>