<?xml version="1.0" encoding="UTF-8" standalone="no"?>
<!DOCTYPE svg PUBLIC "-//W3C//DTD SVG 1.1//EN" "http://www.w3.org/Graphics/SVG/1.1/DTD/svg11.dtd">
<svg width="100%" height="100%" viewBox="0 0 420 298" version="1.1" xmlns="http://www.w3.org/2000/svg" xmlns:xlink="http://www.w3.org/1999/xlink" xml:space="preserve" xmlns:serif="http://www.serif.com/" style="fill-rule:evenodd;clip-rule:evenodd;stroke-linecap:round;stroke-linejoin:round;stroke-miterlimit:1.5;">
    <g id="Artboard1" transform="matrix(1.17911,0,0,1.62776,-206.48,876.003)">
        <rect x="175.115" y="-538.165" width="355.799" height="182.851" style="fill:none;"/>
        <clipPath id="_clip1">
            <rect x="175.115" y="-538.165" width="355.799" height="182.851"/>
        </clipPath>
        <g clip-path="url(#_clip1)">
            <g transform="matrix(0.203543,0,0,0.147442,175.115,-538.165)">
                <rect x="-0" y="0" width="1748.03" height="1240.16" style="fill:rgb(173,167,255);"/>
                <g transform="matrix(1.5129,0,0,1,-426.46,-50)">
                    <path d="M1289.95,288.326C1289.95,219.147 1233.79,162.981 1164.61,162.981L583.423,162.981C514.244,162.981 458.079,219.147 458.079,288.326L458.079,1294.45C458.079,1363.63 514.244,1419.79 583.423,1419.79L1164.61,1419.79C1233.79,1419.79 1289.95,1363.63 1289.95,1294.45L1289.95,288.326Z" style="fill:rgb(248,249,250);stroke:rgb(33,37,41);stroke-width:25px;"/>
                </g>
                <g transform="matrix(0.930387,0,0,0.930387,99.2377,258.356)">
                    <g>
                        <g>
                            <g transform="matrix(1.43769,0,0,1.19297,-362.854,-199.91)">
                                <path d="M1105.3,532.066C1105.3,517.679 1093.62,505.998 1079.23,505.998L616.621,505.998C602.234,505.998 590.553,517.679 590.553,532.066L590.553,584.202C590.553,598.59 602.234,610.271 616.621,610.271L1079.23,610.271C1093.62,610.271 1105.3,598.59 1105.3,584.202L1105.3,532.066Z" style="fill:white;stroke:rgb(33,37,41);stroke-width:12.5px;"/>
                            </g>
                            <g transform="matrix(1.67684,0,0,1.64586,532.591,483.869)">
                                <g transform="matrix(32.6522,0,0,32.6522,0,0)">
                                    <path d="M0.305,0.011C0.253,0.011 0.208,-0 0.17,-0.024C0.132,-0.047 0.102,-0.08 0.082,-0.122C0.061,-0.164 0.051,-0.213 0.051,-0.268C0.051,-0.324 0.061,-0.374 0.082,-0.416C0.102,-0.459 0.131,-0.492 0.168,-0.517C0.205,-0.541 0.248,-0.553 0.297,-0.553C0.325,-0.553 0.353,-0.548 0.381,-0.538C0.409,-0.529 0.434,-0.514 0.457,-0.492C0.479,-0.471 0.498,-0.443 0.511,-0.408C0.525,-0.374 0.531,-0.331 0.531,-0.28L0.531,-0.244L0.111,-0.244L0.111,-0.317L0.446,-0.317C0.446,-0.348 0.44,-0.375 0.428,-0.399C0.416,-0.423 0.398,-0.442 0.376,-0.456C0.354,-0.47 0.327,-0.477 0.297,-0.477C0.263,-0.477 0.235,-0.469 0.21,-0.453C0.186,-0.436 0.167,-0.415 0.154,-0.388C0.141,-0.362 0.135,-0.334 0.135,-0.304L0.135,-0.256C0.135,-0.214 0.142,-0.18 0.156,-0.151C0.171,-0.123 0.191,-0.101 0.216,-0.086C0.242,-0.071 0.272,-0.064 0.305,-0.064C0.327,-0.064 0.347,-0.067 0.365,-0.073C0.383,-0.08 0.399,-0.089 0.412,-0.102C0.425,-0.114 0.435,-0.13 0.442,-0.149L0.523,-0.126C0.514,-0.099 0.5,-0.075 0.48,-0.054C0.46,-0.033 0.435,-0.017 0.405,-0.006C0.376,0.006 0.342,0.011 0.305,0.011Z" style="fill:rgb(97,109,121);fill-rule:nonzero;"/>
                                </g>
                                <g transform="matrix(32.6522,0,0,32.6522,19.0162,0)">
                                    <path d="M0.138,0.006C0.12,0.006 0.105,-0.001 0.093,-0.013C0.08,-0.026 0.074,-0.041 0.074,-0.058C0.074,-0.076 0.08,-0.091 0.093,-0.103C0.105,-0.116 0.12,-0.122 0.138,-0.122C0.155,-0.122 0.17,-0.116 0.183,-0.103C0.195,-0.091 0.202,-0.076 0.202,-0.058C0.202,-0.047 0.199,-0.036 0.193,-0.026C0.187,-0.017 0.18,-0.009 0.17,-0.003C0.16,0.003 0.15,0.006 0.138,0.006Z" style="fill:rgb(97,109,121);fill-rule:nonzero;"/>
                                </g>
                                <g transform="matrix(32.6522,0,0,32.6522,28.0141,0)">
                                    <path d="M0.297,0.216C0.256,0.216 0.222,0.211 0.192,0.2C0.163,0.19 0.139,0.177 0.12,0.16C0.101,0.143 0.085,0.125 0.074,0.107L0.141,0.06C0.148,0.07 0.158,0.081 0.169,0.094C0.181,0.107 0.197,0.118 0.217,0.128C0.237,0.137 0.264,0.142 0.297,0.142C0.341,0.142 0.377,0.131 0.406,0.11C0.435,0.089 0.449,0.055 0.449,0.01L0.449,-0.101L0.442,-0.101C0.436,-0.091 0.427,-0.079 0.416,-0.064C0.404,-0.05 0.388,-0.037 0.367,-0.025C0.346,-0.014 0.318,-0.009 0.283,-0.009C0.239,-0.009 0.199,-0.019 0.164,-0.04C0.129,-0.061 0.102,-0.091 0.081,-0.131C0.061,-0.17 0.051,-0.219 0.051,-0.276C0.051,-0.331 0.061,-0.38 0.081,-0.422C0.1,-0.463 0.128,-0.495 0.163,-0.518C0.198,-0.541 0.238,-0.553 0.284,-0.553C0.32,-0.553 0.348,-0.547 0.369,-0.535C0.39,-0.523 0.406,-0.51 0.417,-0.495C0.428,-0.48 0.437,-0.468 0.443,-0.459L0.452,-0.459L0.452,-0.545L0.533,-0.545L0.533,0.016C0.533,0.063 0.522,0.101 0.501,0.13C0.48,0.16 0.451,0.181 0.416,0.195C0.38,0.209 0.34,0.216 0.297,0.216ZM0.294,-0.084C0.328,-0.084 0.356,-0.092 0.379,-0.107C0.402,-0.122 0.42,-0.144 0.432,-0.173C0.444,-0.202 0.45,-0.237 0.45,-0.277C0.45,-0.316 0.444,-0.351 0.433,-0.381C0.421,-0.411 0.403,-0.435 0.38,-0.452C0.357,-0.469 0.328,-0.477 0.294,-0.477C0.259,-0.477 0.229,-0.468 0.205,-0.45C0.182,-0.432 0.164,-0.408 0.153,-0.378C0.141,-0.348 0.135,-0.314 0.135,-0.277C0.135,-0.239 0.141,-0.206 0.153,-0.177C0.165,-0.148 0.183,-0.125 0.206,-0.108C0.23,-0.092 0.259,-0.084 0.294,-0.084Z" style="fill:rgb(97,109,121);fill-rule:nonzero;"/>
                                </g>
                                <g transform="matrix(32.6522,0,0,32.6522,47.9116,0)">
                                    <path d="M0.138,0.006C0.12,0.006 0.105,-0.001 0.093,-0.013C0.08,-0.026 0.074,-0.041 0.074,-0.058C0.074,-0.076 0.08,-0.091 0.093,-0.103C0.105,-0.116 0.12,-0.122 0.138,-0.122C0.155,-0.122 0.17,-0.116 0.183,-0.103C0.195,-0.091 0.202,-0.076 0.202,-0.058C0.202,-0.047 0.199,-0.036 0.193,-0.026C0.187,-0.017 0.18,-0.009 0.17,-0.003C0.16,0.003 0.15,0.006 0.138,0.006Z" style="fill:rgb(97,109,121);fill-rule:nonzero;"/>
                                </g>
                                <g transform="matrix(32.6522,0,0,32.6522,66.0929,0)">
                                    <path d="M0.366,-0.727L0.455,-0.727L0.455,-0.207C0.455,-0.161 0.446,-0.122 0.429,-0.089C0.412,-0.057 0.388,-0.032 0.357,-0.015C0.326,0.002 0.289,0.01 0.247,0.01C0.207,0.01 0.172,0.003 0.141,-0.012C0.11,-0.026 0.086,-0.047 0.068,-0.074C0.05,-0.101 0.041,-0.133 0.041,-0.17L0.128,-0.17C0.128,-0.15 0.133,-0.132 0.143,-0.117C0.154,-0.101 0.168,-0.089 0.186,-0.081C0.204,-0.072 0.224,-0.068 0.247,-0.068C0.272,-0.068 0.294,-0.074 0.312,-0.084C0.33,-0.095 0.343,-0.11 0.352,-0.131C0.362,-0.152 0.366,-0.177 0.366,-0.207L0.366,-0.727Z" style="fill:rgb(97,109,121);fill-rule:nonzero;"/>
                                </g>
                                <g transform="matrix(32.6522,0,0,32.6522,83.8104,0)">
                                    <path d="M0.237,0.013C0.203,0.013 0.171,0.006 0.143,-0.007C0.115,-0.02 0.093,-0.039 0.076,-0.064C0.059,-0.089 0.051,-0.119 0.051,-0.155C0.051,-0.186 0.057,-0.211 0.07,-0.231C0.082,-0.251 0.098,-0.266 0.119,-0.277C0.14,-0.288 0.162,-0.296 0.187,-0.302C0.212,-0.308 0.237,-0.312 0.263,-0.315C0.296,-0.32 0.323,-0.323 0.344,-0.325C0.364,-0.327 0.379,-0.331 0.389,-0.337C0.399,-0.342 0.403,-0.352 0.403,-0.365L0.403,-0.368C0.403,-0.403 0.394,-0.43 0.375,-0.45C0.356,-0.469 0.327,-0.479 0.288,-0.479C0.248,-0.479 0.217,-0.47 0.194,-0.452C0.172,-0.435 0.156,-0.416 0.146,-0.396L0.067,-0.425C0.081,-0.458 0.1,-0.484 0.124,-0.502C0.148,-0.521 0.174,-0.534 0.202,-0.541C0.23,-0.549 0.258,-0.553 0.286,-0.553C0.303,-0.553 0.323,-0.55 0.346,-0.546C0.369,-0.542 0.391,-0.534 0.412,-0.521C0.434,-0.508 0.452,-0.489 0.466,-0.463C0.48,-0.437 0.487,-0.403 0.487,-0.359L0.487,-0L0.403,-0L0.403,-0.074L0.399,-0.074C0.393,-0.062 0.384,-0.049 0.371,-0.036C0.357,-0.022 0.34,-0.011 0.318,-0.001C0.296,0.008 0.269,0.013 0.237,0.013ZM0.25,-0.063C0.283,-0.063 0.311,-0.069 0.334,-0.082C0.357,-0.095 0.374,-0.112 0.386,-0.132C0.398,-0.153 0.403,-0.175 0.403,-0.197L0.403,-0.274C0.4,-0.27 0.392,-0.266 0.38,-0.263C0.368,-0.259 0.354,-0.256 0.339,-0.254C0.323,-0.251 0.308,-0.249 0.294,-0.247C0.279,-0.246 0.268,-0.244 0.259,-0.243C0.237,-0.24 0.216,-0.235 0.198,-0.229C0.179,-0.223 0.164,-0.214 0.152,-0.201C0.141,-0.189 0.135,-0.172 0.135,-0.151C0.135,-0.121 0.146,-0.099 0.167,-0.085C0.189,-0.07 0.217,-0.063 0.25,-0.063Z" style="fill:rgb(97,109,121);fill-rule:nonzero;"/>
                                </g>
                                <g transform="matrix(32.6522,0,0,32.6522,102.224,0)">
                                    <path d="M0.161,-0.328L0.161,-0L0.077,-0L0.077,-0.545L0.158,-0.545L0.158,-0.46L0.165,-0.46C0.178,-0.488 0.197,-0.51 0.223,-0.527C0.249,-0.544 0.283,-0.553 0.324,-0.553C0.361,-0.553 0.393,-0.545 0.421,-0.53C0.449,-0.515 0.47,-0.492 0.485,-0.462C0.501,-0.431 0.509,-0.393 0.509,-0.347L0.509,-0L0.425,-0L0.425,-0.341C0.425,-0.384 0.414,-0.417 0.391,-0.441C0.369,-0.465 0.339,-0.477 0.3,-0.477C0.273,-0.477 0.249,-0.471 0.228,-0.46C0.207,-0.448 0.191,-0.431 0.179,-0.409C0.167,-0.387 0.161,-0.36 0.161,-0.328Z" style="fill:rgb(97,109,121);fill-rule:nonzero;"/>
                                </g>
                                <g transform="matrix(32.6522,0,0,32.6522,121.333,0)">
                                    <path d="M0.305,0.011C0.253,0.011 0.208,-0 0.17,-0.024C0.132,-0.047 0.102,-0.08 0.082,-0.122C0.061,-0.164 0.051,-0.213 0.051,-0.268C0.051,-0.324 0.061,-0.374 0.082,-0.416C0.102,-0.459 0.131,-0.492 0.168,-0.517C0.205,-0.541 0.248,-0.553 0.297,-0.553C0.325,-0.553 0.353,-0.548 0.381,-0.538C0.409,-0.529 0.434,-0.514 0.457,-0.492C0.479,-0.471 0.498,-0.443 0.511,-0.408C0.525,-0.374 0.531,-0.331 0.531,-0.28L0.531,-0.244L0.111,-0.244L0.111,-0.317L0.446,-0.317C0.446,-0.348 0.44,-0.375 0.428,-0.399C0.416,-0.423 0.398,-0.442 0.376,-0.456C0.354,-0.47 0.327,-0.477 0.297,-0.477C0.263,-0.477 0.235,-0.469 0.21,-0.453C0.186,-0.436 0.167,-0.415 0.154,-0.388C0.141,-0.362 0.135,-0.334 0.135,-0.304L0.135,-0.256C0.135,-0.214 0.142,-0.18 0.156,-0.151C0.171,-0.123 0.191,-0.101 0.216,-0.086C0.242,-0.071 0.272,-0.064 0.305,-0.064C0.327,-0.064 0.347,-0.067 0.365,-0.073C0.383,-0.08 0.399,-0.089 0.412,-0.102C0.425,-0.114 0.435,-0.13 0.442,-0.149L0.523,-0.126C0.514,-0.099 0.5,-0.075 0.48,-0.054C0.46,-0.033 0.435,-0.017 0.405,-0.006C0.376,0.006 0.342,0.011 0.305,0.011Z" style="fill:rgb(97,109,121);fill-rule:nonzero;"/>
                                </g>
                                <g transform="matrix(32.6522,0,0,32.6522,149.532,0)">
                                    <path d="M0.313,-0L0.088,-0L0.088,-0.727L0.322,-0.727C0.393,-0.727 0.453,-0.713 0.504,-0.684C0.554,-0.655 0.592,-0.613 0.619,-0.559C0.646,-0.505 0.659,-0.44 0.659,-0.365C0.659,-0.289 0.646,-0.224 0.619,-0.17C0.592,-0.115 0.552,-0.073 0.501,-0.044C0.449,-0.015 0.386,-0 0.313,-0ZM0.176,-0.078L0.307,-0.078C0.367,-0.078 0.417,-0.09 0.456,-0.113C0.496,-0.136 0.525,-0.169 0.545,-0.212C0.564,-0.255 0.574,-0.306 0.574,-0.365C0.574,-0.424 0.564,-0.474 0.545,-0.517C0.526,-0.559 0.497,-0.592 0.459,-0.615C0.421,-0.638 0.374,-0.649 0.317,-0.649L0.176,-0.649L0.176,-0.078Z" style="fill:rgb(97,109,121);fill-rule:nonzero;"/>
                                </g>
                                <g transform="matrix(32.6522,0,0,32.6522,173.001,0)">
                                    <path d="M0.298,0.011C0.249,0.011 0.206,-0 0.169,-0.024C0.132,-0.047 0.103,-0.08 0.082,-0.122C0.061,-0.164 0.051,-0.214 0.051,-0.27C0.051,-0.327 0.061,-0.376 0.082,-0.419C0.103,-0.461 0.132,-0.494 0.169,-0.517C0.206,-0.541 0.249,-0.553 0.298,-0.553C0.348,-0.553 0.391,-0.541 0.428,-0.517C0.465,-0.494 0.494,-0.461 0.514,-0.419C0.535,-0.376 0.545,-0.327 0.545,-0.27C0.545,-0.214 0.535,-0.164 0.514,-0.122C0.494,-0.08 0.465,-0.047 0.428,-0.024C0.391,-0 0.348,0.011 0.298,0.011ZM0.298,-0.064C0.336,-0.064 0.366,-0.074 0.391,-0.093C0.415,-0.112 0.433,-0.137 0.444,-0.168C0.456,-0.2 0.462,-0.233 0.462,-0.27C0.462,-0.306 0.456,-0.34 0.444,-0.372C0.433,-0.403 0.415,-0.429 0.391,-0.448C0.366,-0.468 0.336,-0.477 0.298,-0.477C0.261,-0.477 0.23,-0.468 0.206,-0.448C0.182,-0.429 0.164,-0.403 0.152,-0.372C0.141,-0.34 0.135,-0.306 0.135,-0.27C0.135,-0.233 0.141,-0.2 0.152,-0.168C0.164,-0.137 0.182,-0.112 0.206,-0.093C0.23,-0.074 0.261,-0.064 0.298,-0.064Z" style="fill:rgb(97,109,121);fill-rule:nonzero;"/>
                                </g>
                                <g transform="matrix(32.6522,0,0,32.6522,192.481,0)">
                                    <path d="M0.305,0.011C0.253,0.011 0.208,-0 0.17,-0.024C0.132,-0.047 0.102,-0.08 0.082,-0.122C0.061,-0.164 0.051,-0.213 0.051,-0.268C0.051,-0.324 0.061,-0.374 0.082,-0.416C0.102,-0.459 0.131,-0.492 0.168,-0.517C0.205,-0.541 0.248,-0.553 0.297,-0.553C0.325,-0.553 0.353,-0.548 0.381,-0.538C0.409,-0.529 0.434,-0.514 0.457,-0.492C0.479,-0.471 0.498,-0.443 0.511,-0.408C0.525,-0.374 0.531,-0.331 0.531,-0.28L0.531,-0.244L0.111,-0.244L0.111,-0.317L0.446,-0.317C0.446,-0.348 0.44,-0.375 0.428,-0.399C0.416,-0.423 0.398,-0.442 0.376,-0.456C0.354,-0.47 0.327,-0.477 0.297,-0.477C0.263,-0.477 0.235,-0.469 0.21,-0.453C0.186,-0.436 0.167,-0.415 0.154,-0.388C0.141,-0.362 0.135,-0.334 0.135,-0.304L0.135,-0.256C0.135,-0.214 0.142,-0.18 0.156,-0.151C0.171,-0.123 0.191,-0.101 0.216,-0.086C0.242,-0.071 0.272,-0.064 0.305,-0.064C0.327,-0.064 0.347,-0.067 0.365,-0.073C0.383,-0.08 0.399,-0.089 0.412,-0.102C0.425,-0.114 0.435,-0.13 0.442,-0.149L0.523,-0.126C0.514,-0.099 0.5,-0.075 0.48,-0.054C0.46,-0.033 0.435,-0.017 0.405,-0.006C0.376,0.006 0.342,0.011 0.305,0.011Z" style="fill:rgb(97,109,121);fill-rule:nonzero;"/>
                                </g>
                            </g>
                            <g transform="matrix(1.43769,0,0,1.19297,-362.854,-200.544)">
                                <path d="M1105.3,748.418C1105.3,734.03 1093.62,722.35 1079.23,722.35L616.621,722.35C602.234,722.35 590.553,734.03 590.553,748.418L590.553,800.554C590.553,814.941 602.234,826.622 616.621,826.622L1079.23,826.622C1093.62,826.622 1105.3,814.941 1105.3,800.554L1105.3,748.418Z" style="fill:white;stroke:rgb(33,37,41);stroke-width:12.5px;"/>
                            </g>
                            <g transform="matrix(1.67684,0,0,1.64586,481.844,626.504)">
                                <g transform="matrix(40.8153,0,0,40.8153,0,0)">
                                    <path d="M0.063,-0L0.063,-0.727L0.553,-0.727L0.553,-0.601L0.217,-0.601L0.217,-0.427L0.528,-0.427L0.528,-0.301L0.217,-0.301L0.217,-0.127L0.555,-0.127L0.555,-0L0.063,-0Z" style="fill:rgb(33,37,41);fill-rule:nonzero;"/>
                                </g>
                                <g transform="matrix(40.8153,0,0,40.8153,24.408,0)">
                                    <path d="M0.061,-0L0.061,-0.545L0.205,-0.545L0.205,-0.449L0.211,-0.449C0.222,-0.481 0.241,-0.507 0.268,-0.525C0.294,-0.543 0.326,-0.553 0.363,-0.553C0.4,-0.553 0.432,-0.543 0.459,-0.525C0.485,-0.506 0.502,-0.481 0.511,-0.449L0.517,-0.449C0.528,-0.48 0.548,-0.506 0.577,-0.524C0.606,-0.543 0.641,-0.553 0.681,-0.553C0.732,-0.553 0.773,-0.536 0.805,-0.504C0.837,-0.472 0.853,-0.426 0.853,-0.367L0.853,-0L0.702,-0L0.702,-0.337C0.702,-0.367 0.694,-0.39 0.678,-0.405C0.662,-0.42 0.642,-0.428 0.618,-0.428C0.59,-0.428 0.569,-0.419 0.553,-0.402C0.538,-0.384 0.53,-0.361 0.53,-0.333L0.53,-0L0.384,-0L0.384,-0.34C0.384,-0.367 0.376,-0.388 0.361,-0.404C0.345,-0.42 0.325,-0.428 0.3,-0.428C0.283,-0.428 0.268,-0.424 0.255,-0.415C0.242,-0.407 0.231,-0.395 0.223,-0.38C0.216,-0.365 0.212,-0.347 0.212,-0.327L0.212,-0L0.061,-0Z" style="fill:rgb(33,37,41);fill-rule:nonzero;"/>
                                </g>
                                <g transform="matrix(40.8153,0,0,40.8153,59.8894,0)">
                                    <path d="M0.216,0.01C0.181,0.01 0.15,0.004 0.123,-0.008C0.096,-0.02 0.074,-0.038 0.059,-0.062C0.043,-0.086 0.035,-0.116 0.035,-0.152C0.035,-0.183 0.04,-0.208 0.051,-0.229C0.063,-0.249 0.078,-0.266 0.097,-0.278C0.116,-0.291 0.138,-0.3 0.162,-0.307C0.187,-0.313 0.213,-0.318 0.24,-0.32C0.271,-0.324 0.297,-0.327 0.316,-0.33C0.336,-0.333 0.35,-0.337 0.359,-0.343C0.367,-0.349 0.372,-0.358 0.372,-0.369L0.372,-0.371C0.372,-0.394 0.365,-0.411 0.351,-0.424C0.336,-0.436 0.317,-0.442 0.291,-0.442C0.264,-0.442 0.242,-0.436 0.226,-0.424C0.21,-0.412 0.199,-0.397 0.194,-0.379L0.054,-0.391C0.061,-0.424 0.075,-0.452 0.096,-0.477C0.117,-0.501 0.144,-0.52 0.177,-0.533C0.21,-0.546 0.248,-0.553 0.291,-0.553C0.322,-0.553 0.351,-0.549 0.379,-0.542C0.407,-0.535 0.431,-0.524 0.453,-0.509C0.474,-0.494 0.492,-0.475 0.504,-0.452C0.517,-0.428 0.523,-0.4 0.523,-0.368L0.523,-0L0.38,-0L0.38,-0.076L0.375,-0.076C0.366,-0.059 0.355,-0.044 0.34,-0.031C0.326,-0.018 0.308,-0.008 0.287,-0.001C0.267,0.007 0.243,0.01 0.216,0.01ZM0.259,-0.094C0.282,-0.094 0.301,-0.098 0.318,-0.107C0.335,-0.116 0.349,-0.128 0.358,-0.144C0.368,-0.159 0.373,-0.176 0.373,-0.195L0.373,-0.253C0.368,-0.25 0.362,-0.247 0.354,-0.245C0.345,-0.242 0.336,-0.24 0.326,-0.238C0.316,-0.236 0.306,-0.234 0.296,-0.233C0.285,-0.231 0.276,-0.23 0.268,-0.228C0.25,-0.226 0.235,-0.222 0.221,-0.216C0.208,-0.21 0.198,-0.203 0.19,-0.193C0.183,-0.183 0.179,-0.172 0.179,-0.157C0.179,-0.137 0.187,-0.121 0.202,-0.11C0.217,-0.099 0.236,-0.094 0.259,-0.094Z" style="fill:rgb(33,37,41);fill-rule:nonzero;"/>
                                </g>
                                <g transform="matrix(40.8153,0,0,40.8153,82.906,0)">
                                    <path d="M0.06,-0L0.06,-0.545L0.212,-0.545L0.212,-0L0.06,-0ZM0.137,-0.616C0.114,-0.616 0.095,-0.623 0.079,-0.638C0.063,-0.653 0.055,-0.671 0.055,-0.692C0.055,-0.713 0.063,-0.731 0.079,-0.746C0.095,-0.761 0.114,-0.769 0.136,-0.769C0.159,-0.769 0.178,-0.761 0.194,-0.746C0.21,-0.731 0.218,-0.713 0.218,-0.692C0.218,-0.671 0.21,-0.653 0.194,-0.638C0.178,-0.623 0.159,-0.616 0.137,-0.616Z" style="fill:rgb(33,37,41);fill-rule:nonzero;"/>
                                </g>
                                <g transform="matrix(40.8153,0,0,40.8153,92.588,0)">
                                    <rect x="0.061" y="-0.727" width="0.151" height="0.727" style="fill:rgb(33,37,41);fill-rule:nonzero;"/>
                                </g>
                            </g>
                            <g transform="matrix(1.67684,0,0,1.64586,528.979,740.573)">
                                <g transform="matrix(32.6522,0,0,32.6522,0,0)">
                                    <path d="M0.305,0.011C0.253,0.011 0.208,-0 0.17,-0.024C0.132,-0.047 0.102,-0.08 0.082,-0.122C0.061,-0.164 0.051,-0.213 0.051,-0.268C0.051,-0.324 0.061,-0.374 0.082,-0.416C0.102,-0.459 0.131,-0.492 0.168,-0.517C0.205,-0.541 0.248,-0.553 0.297,-0.553C0.325,-0.553 0.353,-0.548 0.381,-0.538C0.409,-0.529 0.434,-0.514 0.457,-0.492C0.479,-0.471 0.498,-0.443 0.511,-0.408C0.525,-0.374 0.531,-0.331 0.531,-0.28L0.531,-0.244L0.111,-0.244L0.111,-0.317L0.446,-0.317C0.446,-0.348 0.44,-0.375 0.428,-0.399C0.416,-0.423 0.398,-0.442 0.376,-0.456C0.354,-0.47 0.327,-0.477 0.297,-0.477C0.263,-0.477 0.235,-0.469 0.21,-0.453C0.186,-0.436 0.167,-0.415 0.154,-0.388C0.141,-0.362 0.135,-0.334 0.135,-0.304L0.135,-0.256C0.135,-0.214 0.142,-0.18 0.156,-0.151C0.171,-0.123 0.191,-0.101 0.216,-0.086C0.242,-0.071 0.272,-0.064 0.305,-0.064C0.327,-0.064 0.347,-0.067 0.365,-0.073C0.383,-0.08 0.399,-0.089 0.412,-0.102C0.425,-0.114 0.435,-0.13 0.442,-0.149L0.523,-0.126C0.514,-0.099 0.5,-0.075 0.48,-0.054C0.46,-0.033 0.435,-0.017 0.405,-0.006C0.376,0.006 0.342,0.011 0.305,0.011Z" style="fill:rgb(97,109,121);fill-rule:nonzero;"/>
                                </g>
                                <g transform="matrix(32.6522,0,0,32.6522,19.0162,0)">
                                    <path d="M0.138,0.006C0.12,0.006 0.105,-0.001 0.093,-0.013C0.08,-0.026 0.074,-0.041 0.074,-0.058C0.074,-0.076 0.08,-0.091 0.093,-0.103C0.105,-0.116 0.12,-0.122 0.138,-0.122C0.155,-0.122 0.17,-0.116 0.183,-0.103C0.195,-0.091 0.202,-0.076 0.202,-0.058C0.202,-0.047 0.199,-0.036 0.193,-0.026C0.187,-0.017 0.18,-0.009 0.17,-0.003C0.16,0.003 0.15,0.006 0.138,0.006Z" style="fill:rgb(97,109,121);fill-rule:nonzero;"/>
                                </g>
                                <g transform="matrix(32.6522,0,0,32.6522,28.0141,0)">
                                    <path d="M0.297,0.216C0.256,0.216 0.222,0.211 0.192,0.2C0.163,0.19 0.139,0.177 0.12,0.16C0.101,0.143 0.085,0.125 0.074,0.107L0.141,0.06C0.148,0.07 0.158,0.081 0.169,0.094C0.181,0.107 0.197,0.118 0.217,0.128C0.237,0.137 0.264,0.142 0.297,0.142C0.341,0.142 0.377,0.131 0.406,0.11C0.435,0.089 0.449,0.055 0.449,0.01L0.449,-0.101L0.442,-0.101C0.436,-0.091 0.427,-0.079 0.416,-0.064C0.404,-0.05 0.388,-0.037 0.367,-0.025C0.346,-0.014 0.318,-0.009 0.283,-0.009C0.239,-0.009 0.199,-0.019 0.164,-0.04C0.129,-0.061 0.102,-0.091 0.081,-0.131C0.061,-0.17 0.051,-0.219 0.051,-0.276C0.051,-0.331 0.061,-0.38 0.081,-0.422C0.1,-0.463 0.128,-0.495 0.163,-0.518C0.198,-0.541 0.238,-0.553 0.284,-0.553C0.32,-0.553 0.348,-0.547 0.369,-0.535C0.39,-0.523 0.406,-0.51 0.417,-0.495C0.428,-0.48 0.437,-0.468 0.443,-0.459L0.452,-0.459L0.452,-0.545L0.533,-0.545L0.533,0.016C0.533,0.063 0.522,0.101 0.501,0.13C0.48,0.16 0.451,0.181 0.416,0.195C0.38,0.209 0.34,0.216 0.297,0.216ZM0.294,-0.084C0.328,-0.084 0.356,-0.092 0.379,-0.107C0.402,-0.122 0.42,-0.144 0.432,-0.173C0.444,-0.202 0.45,-0.237 0.45,-0.277C0.45,-0.316 0.444,-0.351 0.433,-0.381C0.421,-0.411 0.403,-0.435 0.38,-0.452C0.357,-0.469 0.328,-0.477 0.294,-0.477C0.259,-0.477 0.229,-0.468 0.205,-0.45C0.182,-0.432 0.164,-0.408 0.153,-0.378C0.141,-0.348 0.135,-0.314 0.135,-0.277C0.135,-0.239 0.141,-0.206 0.153,-0.177C0.165,-0.148 0.183,-0.125 0.206,-0.108C0.23,-0.092 0.259,-0.084 0.294,-0.084Z" style="fill:rgb(97,109,121);fill-rule:nonzero;"/>
                                </g>
                                <g transform="matrix(32.6522,0,0,32.6522,47.9116,0)">
                                    <path d="M0.138,0.006C0.12,0.006 0.105,-0.001 0.093,-0.013C0.08,-0.026 0.074,-0.041 0.074,-0.058C0.074,-0.076 0.08,-0.091 0.093,-0.103C0.105,-0.116 0.12,-0.122 0.138,-0.122C0.155,-0.122 0.17,-0.116 0.183,-0.103C0.195,-0.091 0.202,-0.076 0.202,-0.058C0.202,-0.047 0.199,-0.036 0.193,-0.026C0.187,-0.017 0.18,-0.009 0.17,-0.003C0.16,0.003 0.15,0.006 0.138,0.006Z" style="fill:rgb(97,109,121);fill-rule:nonzero;"/>
                                </g>
                                <g transform="matrix(32.6522,0,0,32.6522,66.0929,0)">
                                    <path d="M0.077,-0.545L0.161,-0.545L0.161,0.04C0.161,0.073 0.155,0.103 0.143,0.127C0.132,0.152 0.115,0.171 0.091,0.184C0.068,0.198 0.039,0.205 0.004,0.205L-0.013,0.205L-0.013,0.126L0.003,0.126C0.028,0.126 0.047,0.119 0.059,0.104C0.071,0.089 0.077,0.067 0.077,0.04L0.077,-0.545ZM0.118,-0.636C0.102,-0.636 0.088,-0.642 0.076,-0.653C0.064,-0.664 0.058,-0.678 0.058,-0.693C0.058,-0.709 0.064,-0.722 0.076,-0.733C0.088,-0.744 0.102,-0.75 0.118,-0.75C0.134,-0.75 0.148,-0.744 0.16,-0.733C0.172,-0.722 0.178,-0.709 0.178,-0.693C0.178,-0.678 0.172,-0.664 0.16,-0.653C0.148,-0.642 0.134,-0.636 0.118,-0.636Z" style="fill:rgb(97,109,121);fill-rule:nonzero;"/>
                                </g>
                                <g transform="matrix(32.6522,0,0,32.6522,73.8385,0)">
                                    <path d="M0.237,0.013C0.203,0.013 0.171,0.006 0.143,-0.007C0.115,-0.02 0.093,-0.039 0.076,-0.064C0.059,-0.089 0.051,-0.119 0.051,-0.155C0.051,-0.186 0.057,-0.211 0.07,-0.231C0.082,-0.251 0.098,-0.266 0.119,-0.277C0.14,-0.288 0.162,-0.296 0.187,-0.302C0.212,-0.308 0.237,-0.312 0.263,-0.315C0.296,-0.32 0.323,-0.323 0.344,-0.325C0.364,-0.327 0.379,-0.331 0.389,-0.337C0.399,-0.342 0.403,-0.352 0.403,-0.365L0.403,-0.368C0.403,-0.403 0.394,-0.43 0.375,-0.45C0.356,-0.469 0.327,-0.479 0.288,-0.479C0.248,-0.479 0.217,-0.47 0.194,-0.452C0.172,-0.435 0.156,-0.416 0.146,-0.396L0.067,-0.425C0.081,-0.458 0.1,-0.484 0.124,-0.502C0.148,-0.521 0.174,-0.534 0.202,-0.541C0.23,-0.549 0.258,-0.553 0.286,-0.553C0.303,-0.553 0.323,-0.55 0.346,-0.546C0.369,-0.542 0.391,-0.534 0.412,-0.521C0.434,-0.508 0.452,-0.489 0.466,-0.463C0.48,-0.437 0.487,-0.403 0.487,-0.359L0.487,-0L0.403,-0L0.403,-0.074L0.399,-0.074C0.393,-0.062 0.384,-0.049 0.371,-0.036C0.357,-0.022 0.34,-0.011 0.318,-0.001C0.296,0.008 0.269,0.013 0.237,0.013ZM0.25,-0.063C0.283,-0.063 0.311,-0.069 0.334,-0.082C0.357,-0.095 0.374,-0.112 0.386,-0.132C0.398,-0.153 0.403,-0.175 0.403,-0.197L0.403,-0.274C0.4,-0.27 0.392,-0.266 0.38,-0.263C0.368,-0.259 0.354,-0.256 0.339,-0.254C0.323,-0.251 0.308,-0.249 0.294,-0.247C0.279,-0.246 0.268,-0.244 0.259,-0.243C0.237,-0.24 0.216,-0.235 0.198,-0.229C0.179,-0.223 0.164,-0.214 0.152,-0.201C0.141,-0.189 0.135,-0.172 0.135,-0.151C0.135,-0.121 0.146,-0.099 0.167,-0.085C0.189,-0.07 0.217,-0.063 0.25,-0.063Z" style="fill:rgb(97,109,121);fill-rule:nonzero;"/>
                                </g>
                                <g transform="matrix(32.6522,0,0,32.6522,92.2518,0)">
                                    <path d="M0.161,-0.328L0.161,-0L0.077,-0L0.077,-0.545L0.158,-0.545L0.158,-0.46L0.165,-0.46C0.178,-0.488 0.197,-0.51 0.223,-0.527C0.249,-0.544 0.283,-0.553 0.324,-0.553C0.361,-0.553 0.393,-0.545 0.421,-0.53C0.449,-0.515 0.47,-0.492 0.485,-0.462C0.501,-0.431 0.509,-0.393 0.509,-0.347L0.509,-0L0.425,-0L0.425,-0.341C0.425,-0.384 0.414,-0.417 0.391,-0.441C0.369,-0.465 0.339,-0.477 0.3,-0.477C0.273,-0.477 0.249,-0.471 0.228,-0.46C0.207,-0.448 0.191,-0.431 0.179,-0.409C0.167,-0.387 0.161,-0.36 0.161,-0.328Z" style="fill:rgb(97,109,121);fill-rule:nonzero;"/>
                                </g>
                                <g transform="matrix(32.6522,0,0,32.6522,111.361,0)">
                                    <path d="M0.305,0.011C0.253,0.011 0.208,-0 0.17,-0.024C0.132,-0.047 0.102,-0.08 0.082,-0.122C0.061,-0.164 0.051,-0.213 0.051,-0.268C0.051,-0.324 0.061,-0.374 0.082,-0.416C0.102,-0.459 0.131,-0.492 0.168,-0.517C0.205,-0.541 0.248,-0.553 0.297,-0.553C0.325,-0.553 0.353,-0.548 0.381,-0.538C0.409,-0.529 0.434,-0.514 0.457,-0.492C0.479,-0.471 0.498,-0.443 0.511,-0.408C0.525,-0.374 0.531,-0.331 0.531,-0.28L0.531,-0.244L0.111,-0.244L0.111,-0.317L0.446,-0.317C0.446,-0.348 0.44,-0.375 0.428,-0.399C0.416,-0.423 0.398,-0.442 0.376,-0.456C0.354,-0.47 0.327,-0.477 0.297,-0.477C0.263,-0.477 0.235,-0.469 0.21,-0.453C0.186,-0.436 0.167,-0.415 0.154,-0.388C0.141,-0.362 0.135,-0.334 0.135,-0.304L0.135,-0.256C0.135,-0.214 0.142,-0.18 0.156,-0.151C0.171,-0.123 0.191,-0.101 0.216,-0.086C0.242,-0.071 0.272,-0.064 0.305,-0.064C0.327,-0.064 0.347,-0.067 0.365,-0.073C0.383,-0.08 0.399,-0.089 0.412,-0.102C0.425,-0.114 0.435,-0.13 0.442,-0.149L0.523,-0.126C0.514,-0.099 0.5,-0.075 0.48,-0.054C0.46,-0.033 0.435,-0.017 0.405,-0.006C0.376,0.006 0.342,0.011 0.305,0.011Z" style="fill:rgb(97,109,121);fill-rule:nonzero;"/>
                                </g>
                                <g transform="matrix(32.6522,0,0,32.6522,130.377,0)">
                                    <path d="M0.138,0.006C0.12,0.006 0.105,-0.001 0.093,-0.013C0.08,-0.026 0.074,-0.041 0.074,-0.058C0.074,-0.076 0.08,-0.091 0.093,-0.103C0.105,-0.116 0.12,-0.122 0.138,-0.122C0.155,-0.122 0.17,-0.116 0.183,-0.103C0.195,-0.091 0.202,-0.076 0.202,-0.058C0.202,-0.047 0.199,-0.036 0.193,-0.026C0.187,-0.017 0.18,-0.009 0.17,-0.003C0.16,0.003 0.15,0.006 0.138,0.006Z" style="fill:rgb(97,109,121);fill-rule:nonzero;"/>
                                </g>
                                <g transform="matrix(32.6522,0,0,32.6522,139.375,0)">
                                    <path d="M0.283,0.011C0.237,0.011 0.197,-0 0.162,-0.023C0.127,-0.046 0.1,-0.079 0.081,-0.121C0.061,-0.164 0.051,-0.214 0.051,-0.271C0.051,-0.329 0.061,-0.378 0.081,-0.42C0.1,-0.463 0.128,-0.495 0.163,-0.518C0.198,-0.541 0.238,-0.553 0.284,-0.553C0.32,-0.553 0.348,-0.547 0.368,-0.535C0.389,-0.523 0.405,-0.51 0.416,-0.495C0.427,-0.48 0.436,-0.468 0.442,-0.459L0.449,-0.459L0.449,-0.727L0.533,-0.727L0.533,-0L0.452,-0L0.452,-0.084L0.442,-0.084C0.436,-0.074 0.427,-0.061 0.415,-0.046C0.404,-0.031 0.388,-0.018 0.367,-0.006C0.346,0.006 0.318,0.011 0.283,0.011ZM0.294,-0.064C0.328,-0.064 0.356,-0.073 0.379,-0.09C0.402,-0.108 0.42,-0.133 0.432,-0.164C0.444,-0.195 0.45,-0.232 0.45,-0.273C0.45,-0.313 0.444,-0.349 0.433,-0.38C0.421,-0.41 0.403,-0.434 0.38,-0.452C0.357,-0.469 0.328,-0.477 0.294,-0.477C0.259,-0.477 0.229,-0.468 0.205,-0.45C0.182,-0.432 0.164,-0.407 0.153,-0.377C0.141,-0.346 0.135,-0.311 0.135,-0.273C0.135,-0.234 0.141,-0.199 0.153,-0.167C0.165,-0.135 0.183,-0.11 0.206,-0.092C0.23,-0.073 0.259,-0.064 0.294,-0.064Z" style="fill:rgb(97,109,121);fill-rule:nonzero;"/>
                                </g>
                                <g transform="matrix(32.6522,0,0,32.6522,159.643,0)">
                                    <path d="M0.298,0.011C0.249,0.011 0.206,-0 0.169,-0.024C0.132,-0.047 0.103,-0.08 0.082,-0.122C0.061,-0.164 0.051,-0.214 0.051,-0.27C0.051,-0.327 0.061,-0.376 0.082,-0.419C0.103,-0.461 0.132,-0.494 0.169,-0.517C0.206,-0.541 0.249,-0.553 0.298,-0.553C0.348,-0.553 0.391,-0.541 0.428,-0.517C0.465,-0.494 0.494,-0.461 0.514,-0.419C0.535,-0.376 0.545,-0.327 0.545,-0.27C0.545,-0.214 0.535,-0.164 0.514,-0.122C0.494,-0.08 0.465,-0.047 0.428,-0.024C0.391,-0 0.348,0.011 0.298,0.011ZM0.298,-0.064C0.336,-0.064 0.366,-0.074 0.391,-0.093C0.415,-0.112 0.433,-0.137 0.444,-0.168C0.456,-0.2 0.462,-0.233 0.462,-0.27C0.462,-0.306 0.456,-0.34 0.444,-0.372C0.433,-0.403 0.415,-0.429 0.391,-0.448C0.366,-0.468 0.336,-0.477 0.298,-0.477C0.261,-0.477 0.23,-0.468 0.206,-0.448C0.182,-0.429 0.164,-0.403 0.152,-0.372C0.141,-0.34 0.135,-0.306 0.135,-0.27C0.135,-0.233 0.141,-0.2 0.152,-0.168C0.164,-0.137 0.182,-0.112 0.206,-0.093C0.23,-0.074 0.261,-0.064 0.298,-0.064Z" style="fill:rgb(97,109,121);fill-rule:nonzero;"/>
                                </g>
                                <g transform="matrix(32.6522,0,0,32.6522,179.123,0)">
                                    <path d="M0.305,0.011C0.253,0.011 0.208,-0 0.17,-0.024C0.132,-0.047 0.102,-0.08 0.082,-0.122C0.061,-0.164 0.051,-0.213 0.051,-0.268C0.051,-0.324 0.061,-0.374 0.082,-0.416C0.102,-0.459 0.131,-0.492 0.168,-0.517C0.205,-0.541 0.248,-0.553 0.297,-0.553C0.325,-0.553 0.353,-0.548 0.381,-0.538C0.409,-0.529 0.434,-0.514 0.457,-0.492C0.479,-0.471 0.498,-0.443 0.511,-0.408C0.525,-0.374 0.531,-0.331 0.531,-0.28L0.531,-0.244L0.111,-0.244L0.111,-0.317L0.446,-0.317C0.446,-0.348 0.44,-0.375 0.428,-0.399C0.416,-0.423 0.398,-0.442 0.376,-0.456C0.354,-0.47 0.327,-0.477 0.297,-0.477C0.263,-0.477 0.235,-0.469 0.21,-0.453C0.186,-0.436 0.167,-0.415 0.154,-0.388C0.141,-0.362 0.135,-0.334 0.135,-0.304L0.135,-0.256C0.135,-0.214 0.142,-0.18 0.156,-0.151C0.171,-0.123 0.191,-0.101 0.216,-0.086C0.242,-0.071 0.272,-0.064 0.305,-0.064C0.327,-0.064 0.347,-0.067 0.365,-0.073C0.383,-0.08 0.399,-0.089 0.412,-0.102C0.425,-0.114 0.435,-0.13 0.442,-0.149L0.523,-0.126C0.514,-0.099 0.5,-0.075 0.48,-0.054C0.46,-0.033 0.435,-0.017 0.405,-0.006C0.376,0.006 0.342,0.011 0.305,0.011Z" style="fill:rgb(97,109,121);fill-rule:nonzero;"/>
                                </g>
                                <g transform="matrix(32.6522,0,0,32.6522,198.14,0)">
                                    <path d="M0.496,0.192C0.423,0.192 0.359,0.182 0.304,0.162C0.248,0.142 0.201,0.113 0.163,0.075C0.125,0.037 0.097,-0.01 0.077,-0.066C0.058,-0.122 0.048,-0.185 0.048,-0.257C0.048,-0.326 0.058,-0.388 0.078,-0.443C0.098,-0.498 0.126,-0.544 0.164,-0.583C0.202,-0.621 0.248,-0.65 0.302,-0.67C0.356,-0.69 0.417,-0.7 0.486,-0.7C0.552,-0.7 0.611,-0.689 0.661,-0.668C0.711,-0.646 0.753,-0.617 0.786,-0.58C0.82,-0.543 0.845,-0.502 0.862,-0.456C0.879,-0.41 0.888,-0.363 0.888,-0.314C0.888,-0.28 0.886,-0.245 0.883,-0.21C0.879,-0.174 0.873,-0.142 0.862,-0.112C0.851,-0.083 0.835,-0.059 0.813,-0.041C0.791,-0.023 0.761,-0.014 0.723,-0.014C0.706,-0.014 0.688,-0.017 0.668,-0.022C0.648,-0.027 0.631,-0.036 0.615,-0.048C0.6,-0.06 0.591,-0.076 0.588,-0.097L0.584,-0.097C0.578,-0.083 0.569,-0.07 0.558,-0.058C0.546,-0.045 0.531,-0.035 0.512,-0.028C0.493,-0.021 0.47,-0.018 0.443,-0.018C0.412,-0.02 0.385,-0.027 0.362,-0.039C0.338,-0.052 0.319,-0.069 0.303,-0.091C0.287,-0.113 0.276,-0.138 0.268,-0.167C0.26,-0.196 0.256,-0.228 0.256,-0.261C0.256,-0.293 0.26,-0.323 0.27,-0.349C0.279,-0.376 0.293,-0.399 0.309,-0.419C0.326,-0.439 0.346,-0.454 0.369,-0.466C0.392,-0.478 0.417,-0.486 0.443,-0.489C0.467,-0.491 0.488,-0.49 0.508,-0.486C0.527,-0.481 0.543,-0.475 0.556,-0.466C0.568,-0.457 0.576,-0.448 0.58,-0.438L0.584,-0.438L0.584,-0.477L0.659,-0.477L0.659,-0.156C0.659,-0.136 0.665,-0.119 0.676,-0.104C0.687,-0.089 0.703,-0.081 0.724,-0.081C0.749,-0.081 0.767,-0.089 0.78,-0.106C0.793,-0.122 0.802,-0.148 0.807,-0.183C0.811,-0.217 0.814,-0.261 0.814,-0.315C0.814,-0.347 0.81,-0.378 0.801,-0.409C0.792,-0.44 0.779,-0.469 0.762,-0.496C0.744,-0.523 0.723,-0.547 0.696,-0.567C0.67,-0.588 0.638,-0.604 0.603,-0.616C0.567,-0.628 0.527,-0.634 0.482,-0.634C0.426,-0.634 0.376,-0.625 0.332,-0.608C0.288,-0.591 0.251,-0.566 0.22,-0.533C0.19,-0.5 0.166,-0.46 0.15,-0.414C0.134,-0.367 0.126,-0.314 0.126,-0.254C0.126,-0.194 0.134,-0.14 0.15,-0.093C0.166,-0.047 0.19,-0.007 0.221,0.025C0.253,0.057 0.292,0.082 0.338,0.099C0.384,0.115 0.438,0.124 0.499,0.124C0.525,0.124 0.55,0.121 0.576,0.116C0.601,0.111 0.623,0.106 0.643,0.1C0.662,0.094 0.676,0.089 0.685,0.087L0.705,0.152C0.69,0.158 0.671,0.164 0.647,0.17C0.624,0.177 0.599,0.182 0.572,0.186C0.545,0.19 0.52,0.192 0.496,0.192ZM0.455,-0.091C0.486,-0.091 0.512,-0.097 0.532,-0.11C0.551,-0.123 0.566,-0.142 0.575,-0.168C0.584,-0.194 0.588,-0.226 0.588,-0.266C0.588,-0.305 0.583,-0.336 0.573,-0.359C0.563,-0.381 0.549,-0.397 0.529,-0.406C0.51,-0.415 0.486,-0.419 0.457,-0.419C0.43,-0.419 0.407,-0.412 0.388,-0.398C0.369,-0.384 0.355,-0.365 0.345,-0.342C0.335,-0.318 0.33,-0.293 0.33,-0.266C0.33,-0.235 0.334,-0.207 0.342,-0.18C0.35,-0.154 0.363,-0.132 0.381,-0.116C0.399,-0.099 0.424,-0.091 0.455,-0.091Z" style="fill:rgb(97,109,121);fill-rule:nonzero;"/>
                                </g>
                                <g transform="matrix(32.6522,0,0,32.6522,228.705,0)">
                                    <path d="M0.297,0.216C0.256,0.216 0.222,0.211 0.192,0.2C0.163,0.19 0.139,0.177 0.12,0.16C0.101,0.143 0.085,0.125 0.074,0.107L0.141,0.06C0.148,0.07 0.158,0.081 0.169,0.094C0.181,0.107 0.197,0.118 0.217,0.128C0.237,0.137 0.264,0.142 0.297,0.142C0.341,0.142 0.377,0.131 0.406,0.11C0.435,0.089 0.449,0.055 0.449,0.01L0.449,-0.101L0.442,-0.101C0.436,-0.091 0.427,-0.079 0.416,-0.064C0.404,-0.05 0.388,-0.037 0.367,-0.025C0.346,-0.014 0.318,-0.009 0.283,-0.009C0.239,-0.009 0.199,-0.019 0.164,-0.04C0.129,-0.061 0.102,-0.091 0.081,-0.131C0.061,-0.17 0.051,-0.219 0.051,-0.276C0.051,-0.331 0.061,-0.38 0.081,-0.422C0.1,-0.463 0.128,-0.495 0.163,-0.518C0.198,-0.541 0.238,-0.553 0.284,-0.553C0.32,-0.553 0.348,-0.547 0.369,-0.535C0.39,-0.523 0.406,-0.51 0.417,-0.495C0.428,-0.48 0.437,-0.468 0.443,-0.459L0.452,-0.459L0.452,-0.545L0.533,-0.545L0.533,0.016C0.533,0.063 0.522,0.101 0.501,0.13C0.48,0.16 0.451,0.181 0.416,0.195C0.38,0.209 0.34,0.216 0.297,0.216ZM0.294,-0.084C0.328,-0.084 0.356,-0.092 0.379,-0.107C0.402,-0.122 0.42,-0.144 0.432,-0.173C0.444,-0.202 0.45,-0.237 0.45,-0.277C0.45,-0.316 0.444,-0.351 0.433,-0.381C0.421,-0.411 0.403,-0.435 0.38,-0.452C0.357,-0.469 0.328,-0.477 0.294,-0.477C0.259,-0.477 0.229,-0.468 0.205,-0.45C0.182,-0.432 0.164,-0.408 0.153,-0.378C0.141,-0.348 0.135,-0.314 0.135,-0.277C0.135,-0.239 0.141,-0.206 0.153,-0.177C0.165,-0.148 0.183,-0.125 0.206,-0.108C0.23,-0.092 0.259,-0.084 0.294,-0.084Z" style="fill:rgb(97,109,121);fill-rule:nonzero;"/>
                                </g>
                                <g transform="matrix(32.6522,0,0,32.6522,248.602,0)">
                                    <path d="M0.077,-0L0.077,-0.545L0.158,-0.545L0.158,-0.46L0.165,-0.46C0.176,-0.489 0.194,-0.512 0.22,-0.528C0.245,-0.544 0.276,-0.553 0.311,-0.553C0.347,-0.553 0.377,-0.544 0.401,-0.528C0.425,-0.512 0.444,-0.489 0.457,-0.46L0.463,-0.46C0.477,-0.488 0.498,-0.511 0.526,-0.528C0.554,-0.544 0.587,-0.553 0.626,-0.553C0.675,-0.553 0.715,-0.537 0.746,-0.507C0.777,-0.477 0.793,-0.429 0.793,-0.365L0.793,-0L0.709,-0L0.709,-0.365C0.709,-0.405 0.698,-0.434 0.676,-0.451C0.654,-0.469 0.628,-0.477 0.598,-0.477C0.56,-0.477 0.53,-0.466 0.509,-0.443C0.488,-0.42 0.477,-0.39 0.477,-0.355L0.477,-0L0.392,-0L0.392,-0.374C0.392,-0.405 0.382,-0.43 0.362,-0.449C0.342,-0.468 0.316,-0.477 0.284,-0.477C0.262,-0.477 0.242,-0.471 0.223,-0.46C0.204,-0.448 0.189,-0.432 0.178,-0.412C0.166,-0.391 0.161,-0.368 0.161,-0.341L0.161,-0L0.077,-0Z" style="fill:rgb(97,109,121);fill-rule:nonzero;"/>
                                </g>
                                <g transform="matrix(32.6522,0,0,32.6522,276.987,0)">
                                    <path d="M0.237,0.013C0.203,0.013 0.171,0.006 0.143,-0.007C0.115,-0.02 0.093,-0.039 0.076,-0.064C0.059,-0.089 0.051,-0.119 0.051,-0.155C0.051,-0.186 0.057,-0.211 0.07,-0.231C0.082,-0.251 0.098,-0.266 0.119,-0.277C0.14,-0.288 0.162,-0.296 0.187,-0.302C0.212,-0.308 0.237,-0.312 0.263,-0.315C0.296,-0.32 0.323,-0.323 0.344,-0.325C0.364,-0.327 0.379,-0.331 0.389,-0.337C0.399,-0.342 0.403,-0.352 0.403,-0.365L0.403,-0.368C0.403,-0.403 0.394,-0.43 0.375,-0.45C0.356,-0.469 0.327,-0.479 0.288,-0.479C0.248,-0.479 0.217,-0.47 0.194,-0.452C0.172,-0.435 0.156,-0.416 0.146,-0.396L0.067,-0.425C0.081,-0.458 0.1,-0.484 0.124,-0.502C0.148,-0.521 0.174,-0.534 0.202,-0.541C0.23,-0.549 0.258,-0.553 0.286,-0.553C0.303,-0.553 0.323,-0.55 0.346,-0.546C0.369,-0.542 0.391,-0.534 0.412,-0.521C0.434,-0.508 0.452,-0.489 0.466,-0.463C0.48,-0.437 0.487,-0.403 0.487,-0.359L0.487,-0L0.403,-0L0.403,-0.074L0.399,-0.074C0.393,-0.062 0.384,-0.049 0.371,-0.036C0.357,-0.022 0.34,-0.011 0.318,-0.001C0.296,0.008 0.269,0.013 0.237,0.013ZM0.25,-0.063C0.283,-0.063 0.311,-0.069 0.334,-0.082C0.357,-0.095 0.374,-0.112 0.386,-0.132C0.398,-0.153 0.403,-0.175 0.403,-0.197L0.403,-0.274C0.4,-0.27 0.392,-0.266 0.38,-0.263C0.368,-0.259 0.354,-0.256 0.339,-0.254C0.323,-0.251 0.308,-0.249 0.294,-0.247C0.279,-0.246 0.268,-0.244 0.259,-0.243C0.237,-0.24 0.216,-0.235 0.198,-0.229C0.179,-0.223 0.164,-0.214 0.152,-0.201C0.141,-0.189 0.135,-0.172 0.135,-0.151C0.135,-0.121 0.146,-0.099 0.167,-0.085C0.189,-0.07 0.217,-0.063 0.25,-0.063Z" style="fill:rgb(97,109,121);fill-rule:nonzero;"/>
                                </g>
                                <g transform="matrix(32.6522,0,0,32.6522,295.4,0)">
                                    <path d="M0.077,-0L0.077,-0.545L0.161,-0.545L0.161,-0L0.077,-0ZM0.119,-0.636C0.103,-0.636 0.089,-0.642 0.077,-0.653C0.066,-0.664 0.06,-0.678 0.06,-0.693C0.06,-0.709 0.066,-0.722 0.077,-0.733C0.089,-0.744 0.103,-0.75 0.119,-0.75C0.136,-0.75 0.15,-0.744 0.161,-0.733C0.173,-0.722 0.179,-0.709 0.179,-0.693C0.179,-0.678 0.173,-0.664 0.161,-0.653C0.15,-0.642 0.136,-0.636 0.119,-0.636Z" style="fill:rgb(97,109,121);fill-rule:nonzero;"/>
                                </g>
                                <g transform="matrix(32.6522,0,0,32.6522,303.146,0)">
                                    <rect x="0.077" y="-0.727" width="0.084" height="0.727" style="fill:rgb(97,109,121);fill-rule:nonzero;"/>
                                </g>
                                <g transform="matrix(32.6522,0,0,32.6522,310.892,0)">
                                    <path d="M0.138,0.006C0.12,0.006 0.105,-0.001 0.093,-0.013C0.08,-0.026 0.074,-0.041 0.074,-0.058C0.074,-0.076 0.08,-0.091 0.093,-0.103C0.105,-0.116 0.12,-0.122 0.138,-0.122C0.155,-0.122 0.17,-0.116 0.183,-0.103C0.195,-0.091 0.202,-0.076 0.202,-0.058C0.202,-0.047 0.199,-0.036 0.193,-0.026C0.187,-0.017 0.18,-0.009 0.17,-0.003C0.16,0.003 0.15,0.006 0.138,0.006Z" style="fill:rgb(97,109,121);fill-rule:nonzero;"/>
                                </g>
                                <g transform="matrix(32.6522,0,0,32.6522,319.89,0)">
                                    <path d="M0.298,0.011C0.247,0.011 0.203,-0.001 0.166,-0.025C0.129,-0.049 0.101,-0.082 0.081,-0.125C0.061,-0.167 0.051,-0.215 0.051,-0.27C0.051,-0.325 0.061,-0.374 0.082,-0.417C0.102,-0.459 0.131,-0.492 0.168,-0.517C0.205,-0.541 0.248,-0.553 0.297,-0.553C0.335,-0.553 0.37,-0.545 0.401,-0.531C0.431,-0.517 0.457,-0.497 0.476,-0.472C0.496,-0.446 0.508,-0.416 0.513,-0.382L0.429,-0.382C0.423,-0.407 0.408,-0.429 0.387,-0.448C0.365,-0.468 0.335,-0.477 0.298,-0.477C0.266,-0.477 0.237,-0.469 0.213,-0.452C0.188,-0.435 0.169,-0.411 0.155,-0.381C0.142,-0.35 0.135,-0.314 0.135,-0.273C0.135,-0.231 0.142,-0.194 0.155,-0.163C0.168,-0.131 0.187,-0.107 0.212,-0.09C0.236,-0.073 0.265,-0.064 0.298,-0.064C0.32,-0.064 0.34,-0.068 0.358,-0.075C0.375,-0.083 0.39,-0.094 0.403,-0.108C0.415,-0.122 0.424,-0.139 0.429,-0.159L0.513,-0.159C0.508,-0.127 0.496,-0.098 0.478,-0.072C0.459,-0.047 0.435,-0.026 0.404,-0.011C0.374,0.004 0.339,0.011 0.298,0.011Z" style="fill:rgb(97,109,121);fill-rule:nonzero;"/>
                                </g>
                                <g transform="matrix(32.6522,0,0,32.6522,338.117,0)">
                                    <path d="M0.298,0.011C0.249,0.011 0.206,-0 0.169,-0.024C0.132,-0.047 0.103,-0.08 0.082,-0.122C0.061,-0.164 0.051,-0.214 0.051,-0.27C0.051,-0.327 0.061,-0.376 0.082,-0.419C0.103,-0.461 0.132,-0.494 0.169,-0.517C0.206,-0.541 0.249,-0.553 0.298,-0.553C0.348,-0.553 0.391,-0.541 0.428,-0.517C0.465,-0.494 0.494,-0.461 0.514,-0.419C0.535,-0.376 0.545,-0.327 0.545,-0.27C0.545,-0.214 0.535,-0.164 0.514,-0.122C0.494,-0.08 0.465,-0.047 0.428,-0.024C0.391,-0 0.348,0.011 0.298,0.011ZM0.298,-0.064C0.336,-0.064 0.366,-0.074 0.391,-0.093C0.415,-0.112 0.433,-0.137 0.444,-0.168C0.456,-0.2 0.462,-0.233 0.462,-0.27C0.462,-0.306 0.456,-0.34 0.444,-0.372C0.433,-0.403 0.415,-0.429 0.391,-0.448C0.366,-0.468 0.336,-0.477 0.298,-0.477C0.261,-0.477 0.23,-0.468 0.206,-0.448C0.182,-0.429 0.164,-0.403 0.152,-0.372C0.141,-0.34 0.135,-0.306 0.135,-0.27C0.135,-0.233 0.141,-0.2 0.152,-0.168C0.164,-0.137 0.182,-0.112 0.206,-0.093C0.23,-0.074 0.261,-0.064 0.298,-0.064Z" style="fill:rgb(97,109,121);fill-rule:nonzero;"/>
                                </g>
                                <g transform="matrix(32.6522,0,0,32.6522,357.597,0)">
                                    <path d="M0.077,-0L0.077,-0.545L0.158,-0.545L0.158,-0.46L0.165,-0.46C0.176,-0.489 0.194,-0.512 0.22,-0.528C0.245,-0.544 0.276,-0.553 0.311,-0.553C0.347,-0.553 0.377,-0.544 0.401,-0.528C0.425,-0.512 0.444,-0.489 0.457,-0.46L0.463,-0.46C0.477,-0.488 0.498,-0.511 0.526,-0.528C0.554,-0.544 0.587,-0.553 0.626,-0.553C0.675,-0.553 0.715,-0.537 0.746,-0.507C0.777,-0.477 0.793,-0.429 0.793,-0.365L0.793,-0L0.709,-0L0.709,-0.365C0.709,-0.405 0.698,-0.434 0.676,-0.451C0.654,-0.469 0.628,-0.477 0.598,-0.477C0.56,-0.477 0.53,-0.466 0.509,-0.443C0.488,-0.42 0.477,-0.39 0.477,-0.355L0.477,-0L0.392,-0L0.392,-0.374C0.392,-0.405 0.382,-0.43 0.362,-0.449C0.342,-0.468 0.316,-0.477 0.284,-0.477C0.262,-0.477 0.242,-0.471 0.223,-0.46C0.204,-0.448 0.189,-0.432 0.178,-0.412C0.166,-0.391 0.161,-0.368 0.161,-0.341L0.161,-0L0.077,-0Z" style="fill:rgb(97,109,121);fill-rule:nonzero;"/>
                                </g>
                            </g>
                            <g transform="matrix(1.67684,0,0,1.64586,481.844,365.966)">
                                <g transform="matrix(40.8153,0,0,40.8153,0,0)">
                                    <path d="M0.672,-0.727L0.672,-0L0.539,-0L0.222,-0.458L0.217,-0.458L0.217,-0L0.063,-0L0.063,-0.727L0.198,-0.727L0.512,-0.27L0.518,-0.27L0.518,-0.727L0.672,-0.727Z" style="fill:rgb(33,37,41);fill-rule:nonzero;"/>
                                </g>
                                <g transform="matrix(40.8153,0,0,40.8153,30.7274,0)">
                                    <path d="M0.216,0.01C0.181,0.01 0.15,0.004 0.123,-0.008C0.096,-0.02 0.074,-0.038 0.059,-0.062C0.043,-0.086 0.035,-0.116 0.035,-0.152C0.035,-0.183 0.04,-0.208 0.051,-0.229C0.063,-0.249 0.078,-0.266 0.097,-0.278C0.116,-0.291 0.138,-0.3 0.162,-0.307C0.187,-0.313 0.213,-0.318 0.24,-0.32C0.271,-0.324 0.297,-0.327 0.316,-0.33C0.336,-0.333 0.35,-0.337 0.359,-0.343C0.367,-0.349 0.372,-0.358 0.372,-0.369L0.372,-0.371C0.372,-0.394 0.365,-0.411 0.351,-0.424C0.336,-0.436 0.317,-0.442 0.291,-0.442C0.264,-0.442 0.242,-0.436 0.226,-0.424C0.21,-0.412 0.199,-0.397 0.194,-0.379L0.054,-0.391C0.061,-0.424 0.075,-0.452 0.096,-0.477C0.117,-0.501 0.144,-0.52 0.177,-0.533C0.21,-0.546 0.248,-0.553 0.291,-0.553C0.322,-0.553 0.351,-0.549 0.379,-0.542C0.407,-0.535 0.431,-0.524 0.453,-0.509C0.474,-0.494 0.492,-0.475 0.504,-0.452C0.517,-0.428 0.523,-0.4 0.523,-0.368L0.523,-0L0.38,-0L0.38,-0.076L0.375,-0.076C0.366,-0.059 0.355,-0.044 0.34,-0.031C0.326,-0.018 0.308,-0.008 0.287,-0.001C0.267,0.007 0.243,0.01 0.216,0.01ZM0.259,-0.094C0.282,-0.094 0.301,-0.098 0.318,-0.107C0.335,-0.116 0.349,-0.128 0.358,-0.144C0.368,-0.159 0.373,-0.176 0.373,-0.195L0.373,-0.253C0.368,-0.25 0.362,-0.247 0.354,-0.245C0.345,-0.242 0.336,-0.24 0.326,-0.238C0.316,-0.236 0.306,-0.234 0.296,-0.233C0.285,-0.231 0.276,-0.23 0.268,-0.228C0.25,-0.226 0.235,-0.222 0.221,-0.216C0.208,-0.21 0.198,-0.203 0.19,-0.193C0.183,-0.183 0.179,-0.172 0.179,-0.157C0.179,-0.137 0.187,-0.121 0.202,-0.11C0.217,-0.099 0.236,-0.094 0.259,-0.094Z" style="fill:rgb(33,37,41);fill-rule:nonzero;"/>
                                </g>
                                <g transform="matrix(40.8153,0,0,40.8153,53.744,0)">
                                    <path d="M0.061,-0L0.061,-0.545L0.205,-0.545L0.205,-0.449L0.211,-0.449C0.222,-0.481 0.241,-0.507 0.268,-0.525C0.294,-0.543 0.326,-0.553 0.363,-0.553C0.4,-0.553 0.432,-0.543 0.459,-0.525C0.485,-0.506 0.502,-0.481 0.511,-0.449L0.517,-0.449C0.528,-0.48 0.548,-0.506 0.577,-0.524C0.606,-0.543 0.641,-0.553 0.681,-0.553C0.732,-0.553 0.773,-0.536 0.805,-0.504C0.837,-0.472 0.853,-0.426 0.853,-0.367L0.853,-0L0.702,-0L0.702,-0.337C0.702,-0.367 0.694,-0.39 0.678,-0.405C0.662,-0.42 0.642,-0.428 0.618,-0.428C0.59,-0.428 0.569,-0.419 0.553,-0.402C0.538,-0.384 0.53,-0.361 0.53,-0.333L0.53,-0L0.384,-0L0.384,-0.34C0.384,-0.367 0.376,-0.388 0.361,-0.404C0.345,-0.42 0.325,-0.428 0.3,-0.428C0.283,-0.428 0.268,-0.424 0.255,-0.415C0.242,-0.407 0.231,-0.395 0.223,-0.38C0.216,-0.365 0.212,-0.347 0.212,-0.327L0.212,-0L0.061,-0Z" style="fill:rgb(33,37,41);fill-rule:nonzero;"/>
                                </g>
                                <g transform="matrix(40.8153,0,0,40.8153,89.2254,0)">
                                    <path d="M0.309,0.011C0.253,0.011 0.205,-0.001 0.164,-0.024C0.124,-0.046 0.093,-0.079 0.071,-0.121C0.049,-0.163 0.038,-0.213 0.038,-0.27C0.038,-0.326 0.049,-0.376 0.071,-0.418C0.093,-0.46 0.124,-0.493 0.163,-0.517C0.203,-0.541 0.249,-0.553 0.303,-0.553C0.339,-0.553 0.373,-0.547 0.404,-0.535C0.435,-0.524 0.462,-0.507 0.485,-0.484C0.509,-0.461 0.527,-0.432 0.54,-0.397C0.553,-0.362 0.559,-0.322 0.559,-0.276L0.559,-0.234L0.099,-0.234L0.099,-0.328L0.417,-0.328C0.417,-0.35 0.412,-0.369 0.403,-0.386C0.393,-0.402 0.38,-0.416 0.363,-0.425C0.347,-0.435 0.327,-0.44 0.305,-0.44C0.283,-0.44 0.262,-0.434 0.245,-0.424C0.227,-0.413 0.213,-0.399 0.203,-0.381C0.193,-0.364 0.188,-0.344 0.188,-0.323L0.188,-0.234C0.188,-0.207 0.193,-0.183 0.203,-0.164C0.213,-0.144 0.227,-0.129 0.246,-0.118C0.264,-0.108 0.286,-0.102 0.311,-0.102C0.328,-0.102 0.344,-0.105 0.358,-0.109C0.371,-0.114 0.383,-0.121 0.393,-0.131C0.404,-0.14 0.411,-0.152 0.416,-0.165L0.556,-0.156C0.549,-0.123 0.534,-0.093 0.513,-0.068C0.491,-0.043 0.463,-0.024 0.428,-0.01C0.394,0.004 0.354,0.011 0.309,0.011Z" style="fill:rgb(33,37,41);fill-rule:nonzero;"/>
                                </g>
                            </g>
                            <g transform="matrix(1.67684,0,0,1.64586,481.226,244.595)">
                                <g transform="matrix(46.2573,0,0,46.2573,0,0)">
                                    <rect x="0.063" y="-0.727" width="0.154" height="0.727" style="fill:rgb(33,37,41);fill-rule:nonzero;"/>
                                </g>
                                <g transform="matrix(46.2573,0,0,46.2573,12.2214,0)">
                                    <path d="M0.149,0.009C0.125,0.009 0.105,0.001 0.089,-0.016C0.072,-0.032 0.063,-0.053 0.064,-0.076C0.063,-0.099 0.072,-0.119 0.089,-0.136C0.105,-0.152 0.125,-0.161 0.149,-0.161C0.171,-0.161 0.191,-0.152 0.208,-0.136C0.225,-0.119 0.234,-0.099 0.234,-0.076C0.234,-0.06 0.23,-0.046 0.222,-0.033C0.214,-0.02 0.204,-0.01 0.191,-0.002C0.178,0.005 0.164,0.009 0.149,0.009Z" style="fill:rgb(33,37,41);fill-rule:nonzero;"/>
                                </g>
                                <g transform="matrix(46.2573,0,0,46.2573,37.9783,0)">
                                    <path d="M0.705,-0.473L0.549,-0.473C0.546,-0.493 0.541,-0.511 0.532,-0.526C0.523,-0.542 0.512,-0.556 0.498,-0.567C0.485,-0.578 0.469,-0.587 0.451,-0.592C0.433,-0.598 0.414,-0.601 0.393,-0.601C0.355,-0.601 0.322,-0.592 0.294,-0.573C0.266,-0.555 0.245,-0.528 0.229,-0.492C0.214,-0.457 0.206,-0.414 0.206,-0.364C0.206,-0.312 0.214,-0.268 0.23,-0.233C0.245,-0.198 0.267,-0.171 0.295,-0.153C0.323,-0.135 0.355,-0.126 0.392,-0.126C0.412,-0.126 0.431,-0.129 0.449,-0.134C0.467,-0.14 0.482,-0.148 0.496,-0.158C0.51,-0.169 0.521,-0.182 0.53,-0.197C0.54,-0.212 0.546,-0.229 0.549,-0.249L0.705,-0.248C0.701,-0.214 0.691,-0.182 0.675,-0.151C0.659,-0.121 0.637,-0.093 0.611,-0.069C0.584,-0.044 0.552,-0.025 0.515,-0.011C0.478,0.003 0.436,0.01 0.389,0.01C0.324,0.01 0.266,-0.005 0.215,-0.034C0.164,-0.063 0.124,-0.106 0.094,-0.162C0.065,-0.217 0.05,-0.285 0.05,-0.364C0.05,-0.443 0.065,-0.51 0.095,-0.566C0.125,-0.622 0.165,-0.664 0.216,-0.693C0.268,-0.723 0.325,-0.737 0.389,-0.737C0.431,-0.737 0.471,-0.731 0.507,-0.72C0.543,-0.708 0.575,-0.691 0.603,-0.668C0.631,-0.645 0.653,-0.618 0.671,-0.585C0.689,-0.552 0.7,-0.515 0.705,-0.473Z" style="fill:rgb(33,37,41);fill-rule:nonzero;"/>
                                </g>
                                <g transform="matrix(46.2573,0,0,46.2573,71.62,0)">
                                    <path d="M0.307,0.011C0.252,0.011 0.204,-0.001 0.164,-0.025C0.124,-0.048 0.093,-0.081 0.071,-0.123C0.049,-0.166 0.038,-0.215 0.038,-0.271C0.038,-0.327 0.049,-0.376 0.071,-0.419C0.093,-0.461 0.124,-0.494 0.164,-0.517C0.204,-0.541 0.252,-0.553 0.307,-0.553C0.362,-0.553 0.41,-0.541 0.45,-0.517C0.49,-0.494 0.521,-0.461 0.543,-0.419C0.564,-0.376 0.575,-0.327 0.575,-0.271C0.575,-0.215 0.564,-0.166 0.543,-0.123C0.521,-0.081 0.49,-0.048 0.45,-0.025C0.41,-0.001 0.362,0.011 0.307,0.011ZM0.308,-0.107C0.333,-0.107 0.353,-0.114 0.37,-0.128C0.387,-0.142 0.4,-0.162 0.409,-0.187C0.417,-0.212 0.422,-0.24 0.422,-0.272C0.422,-0.303 0.417,-0.332 0.409,-0.357C0.4,-0.381 0.387,-0.401 0.37,-0.416C0.353,-0.43 0.333,-0.437 0.308,-0.437C0.282,-0.437 0.261,-0.43 0.244,-0.416C0.226,-0.401 0.214,-0.381 0.205,-0.357C0.196,-0.332 0.192,-0.303 0.192,-0.272C0.192,-0.24 0.196,-0.212 0.205,-0.187C0.214,-0.162 0.226,-0.142 0.244,-0.128C0.261,-0.114 0.282,-0.107 0.308,-0.107Z" style="fill:rgb(33,37,41);fill-rule:nonzero;"/>
                                </g>
                                <g transform="matrix(46.2573,0,0,46.2573,99.2167,0)">
                                    <path d="M0.212,-0.315L0.212,-0L0.061,-0L0.061,-0.545L0.205,-0.545L0.205,-0.449L0.211,-0.449C0.223,-0.481 0.243,-0.506 0.272,-0.525C0.3,-0.543 0.335,-0.553 0.375,-0.553C0.413,-0.553 0.446,-0.544 0.474,-0.528C0.502,-0.511 0.524,-0.487 0.54,-0.457C0.555,-0.426 0.563,-0.39 0.563,-0.347L0.563,-0L0.412,-0L0.412,-0.32C0.412,-0.354 0.404,-0.38 0.386,-0.399C0.369,-0.418 0.345,-0.427 0.315,-0.427C0.295,-0.427 0.277,-0.423 0.261,-0.414C0.246,-0.405 0.234,-0.392 0.225,-0.376C0.216,-0.359 0.212,-0.339 0.212,-0.315Z" style="fill:rgb(33,37,41);fill-rule:nonzero;"/>
                                </g>
                                <g transform="matrix(46.2573,0,0,46.2573,126.288,0)">
                                    <path d="M0.351,-0.545L0.351,-0.432L0.022,-0.432L0.022,-0.545L0.351,-0.545ZM0.097,-0.676L0.248,-0.676L0.248,-0.168C0.248,-0.154 0.25,-0.143 0.254,-0.135C0.259,-0.127 0.265,-0.122 0.272,-0.119C0.28,-0.116 0.289,-0.114 0.299,-0.114C0.306,-0.114 0.313,-0.115 0.32,-0.116C0.328,-0.118 0.333,-0.119 0.337,-0.119L0.361,-0.007C0.353,-0.004 0.342,-0.001 0.329,0.002C0.315,0.005 0.298,0.007 0.278,0.008C0.242,0.009 0.21,0.004 0.183,-0.007C0.155,-0.018 0.134,-0.035 0.119,-0.059C0.104,-0.082 0.096,-0.112 0.097,-0.148L0.097,-0.676Z" style="fill:rgb(33,37,41);fill-rule:nonzero;"/>
                                </g>
                                <g transform="matrix(46.2573,0,0,46.2573,143.109,0)">
                                    <path d="M0.216,0.01C0.181,0.01 0.15,0.004 0.123,-0.008C0.096,-0.02 0.074,-0.038 0.059,-0.062C0.043,-0.086 0.035,-0.116 0.035,-0.152C0.035,-0.183 0.04,-0.208 0.051,-0.229C0.063,-0.249 0.078,-0.266 0.097,-0.278C0.116,-0.291 0.138,-0.3 0.162,-0.307C0.187,-0.313 0.213,-0.318 0.24,-0.32C0.271,-0.324 0.297,-0.327 0.316,-0.33C0.336,-0.333 0.35,-0.337 0.359,-0.343C0.367,-0.349 0.372,-0.358 0.372,-0.369L0.372,-0.371C0.372,-0.394 0.365,-0.411 0.351,-0.424C0.336,-0.436 0.317,-0.442 0.291,-0.442C0.264,-0.442 0.242,-0.436 0.226,-0.424C0.21,-0.412 0.199,-0.397 0.194,-0.379L0.054,-0.391C0.061,-0.424 0.075,-0.452 0.096,-0.477C0.117,-0.501 0.144,-0.52 0.177,-0.533C0.21,-0.546 0.248,-0.553 0.291,-0.553C0.322,-0.553 0.351,-0.549 0.379,-0.542C0.407,-0.535 0.431,-0.524 0.453,-0.509C0.474,-0.494 0.492,-0.475 0.504,-0.452C0.517,-0.428 0.523,-0.4 0.523,-0.368L0.523,-0L0.38,-0L0.38,-0.076L0.375,-0.076C0.366,-0.059 0.355,-0.044 0.34,-0.031C0.326,-0.018 0.308,-0.008 0.287,-0.001C0.267,0.007 0.243,0.01 0.216,0.01ZM0.259,-0.094C0.282,-0.094 0.301,-0.098 0.318,-0.107C0.335,-0.116 0.349,-0.128 0.358,-0.144C0.368,-0.159 0.373,-0.176 0.373,-0.195L0.373,-0.253C0.368,-0.25 0.362,-0.247 0.354,-0.245C0.345,-0.242 0.336,-0.24 0.326,-0.238C0.316,-0.236 0.306,-0.234 0.296,-0.233C0.285,-0.231 0.276,-0.23 0.268,-0.228C0.25,-0.226 0.235,-0.222 0.221,-0.216C0.208,-0.21 0.198,-0.203 0.19,-0.193C0.183,-0.183 0.179,-0.172 0.179,-0.157C0.179,-0.137 0.187,-0.121 0.202,-0.11C0.217,-0.099 0.236,-0.094 0.259,-0.094Z" style="fill:rgb(33,37,41);fill-rule:nonzero;"/>
                                </g>
                                <g transform="matrix(46.2573,0,0,46.2573,169.194,0)">
                                    <path d="M0.307,0.011C0.251,0.011 0.203,-0.001 0.163,-0.025C0.123,-0.049 0.092,-0.082 0.071,-0.124C0.049,-0.167 0.038,-0.215 0.038,-0.271C0.038,-0.326 0.049,-0.375 0.071,-0.418C0.093,-0.46 0.123,-0.493 0.163,-0.517C0.203,-0.541 0.251,-0.553 0.306,-0.553C0.354,-0.553 0.395,-0.544 0.431,-0.527C0.467,-0.509 0.495,-0.485 0.516,-0.454C0.537,-0.422 0.548,-0.386 0.55,-0.344L0.408,-0.344C0.404,-0.371 0.393,-0.393 0.376,-0.41C0.359,-0.426 0.336,-0.435 0.309,-0.435C0.285,-0.435 0.265,-0.428 0.247,-0.416C0.23,-0.403 0.216,-0.385 0.207,-0.36C0.197,-0.336 0.192,-0.307 0.192,-0.273C0.192,-0.238 0.197,-0.208 0.206,-0.184C0.216,-0.16 0.23,-0.141 0.247,-0.128C0.265,-0.115 0.285,-0.109 0.309,-0.109C0.326,-0.109 0.341,-0.113 0.355,-0.12C0.369,-0.127 0.38,-0.137 0.39,-0.151C0.399,-0.164 0.405,-0.181 0.408,-0.2L0.55,-0.2C0.548,-0.158 0.537,-0.122 0.516,-0.09C0.496,-0.058 0.468,-0.034 0.433,-0.016C0.397,0.002 0.355,0.011 0.307,0.011Z" style="fill:rgb(33,37,41);fill-rule:nonzero;"/>
                                </g>
                                <g transform="matrix(46.2573,0,0,46.2573,195.017,0)">
                                    <path d="M0.351,-0.545L0.351,-0.432L0.022,-0.432L0.022,-0.545L0.351,-0.545ZM0.097,-0.676L0.248,-0.676L0.248,-0.168C0.248,-0.154 0.25,-0.143 0.254,-0.135C0.259,-0.127 0.265,-0.122 0.272,-0.119C0.28,-0.116 0.289,-0.114 0.299,-0.114C0.306,-0.114 0.313,-0.115 0.32,-0.116C0.328,-0.118 0.333,-0.119 0.337,-0.119L0.361,-0.007C0.353,-0.004 0.342,-0.001 0.329,0.002C0.315,0.005 0.298,0.007 0.278,0.008C0.242,0.009 0.21,0.004 0.183,-0.007C0.155,-0.018 0.134,-0.035 0.119,-0.059C0.104,-0.082 0.096,-0.112 0.097,-0.148L0.097,-0.676Z" style="fill:rgb(33,37,41);fill-rule:nonzero;"/>
                                </g>
                                <g transform="matrix(46.2573,0,0,46.2573,224.847,0)">
                                    <path d="M0.321,-0L0.063,-0L0.063,-0.727L0.323,-0.727C0.396,-0.727 0.459,-0.713 0.512,-0.684C0.565,-0.655 0.606,-0.613 0.634,-0.559C0.663,-0.505 0.677,-0.44 0.677,-0.364C0.677,-0.288 0.663,-0.223 0.634,-0.169C0.606,-0.114 0.565,-0.073 0.512,-0.044C0.458,-0.015 0.395,-0 0.321,-0ZM0.217,-0.132L0.314,-0.132C0.36,-0.132 0.398,-0.14 0.43,-0.156C0.461,-0.172 0.484,-0.198 0.5,-0.232C0.516,-0.266 0.524,-0.31 0.524,-0.364C0.524,-0.418 0.516,-0.462 0.5,-0.496C0.484,-0.53 0.461,-0.555 0.43,-0.571C0.399,-0.587 0.361,-0.595 0.315,-0.595L0.217,-0.595L0.217,-0.132Z" style="fill:rgb(33,37,41);fill-rule:nonzero;"/>
                                </g>
                                <g transform="matrix(46.2573,0,0,46.2573,258.095,0)">
                                    <path d="M0.309,0.011C0.253,0.011 0.205,-0.001 0.164,-0.024C0.124,-0.046 0.093,-0.079 0.071,-0.121C0.049,-0.163 0.038,-0.213 0.038,-0.27C0.038,-0.326 0.049,-0.376 0.071,-0.418C0.093,-0.46 0.124,-0.493 0.163,-0.517C0.203,-0.541 0.249,-0.553 0.303,-0.553C0.339,-0.553 0.373,-0.547 0.404,-0.535C0.435,-0.524 0.462,-0.507 0.485,-0.484C0.509,-0.461 0.527,-0.432 0.54,-0.397C0.553,-0.362 0.559,-0.322 0.559,-0.276L0.559,-0.234L0.099,-0.234L0.099,-0.328L0.417,-0.328C0.417,-0.35 0.412,-0.369 0.403,-0.386C0.393,-0.402 0.38,-0.416 0.363,-0.425C0.347,-0.435 0.327,-0.44 0.305,-0.44C0.283,-0.44 0.262,-0.434 0.245,-0.424C0.227,-0.413 0.213,-0.399 0.203,-0.381C0.193,-0.364 0.188,-0.344 0.188,-0.323L0.188,-0.234C0.188,-0.207 0.193,-0.183 0.203,-0.164C0.213,-0.144 0.227,-0.129 0.246,-0.118C0.264,-0.108 0.286,-0.102 0.311,-0.102C0.328,-0.102 0.344,-0.105 0.358,-0.109C0.371,-0.114 0.383,-0.121 0.393,-0.131C0.404,-0.14 0.411,-0.152 0.416,-0.165L0.556,-0.156C0.549,-0.123 0.534,-0.093 0.513,-0.068C0.491,-0.043 0.463,-0.024 0.428,-0.01C0.394,0.004 0.354,0.011 0.309,0.011Z" style="fill:rgb(33,37,41);fill-rule:nonzero;"/>
                                </g>
                                <g transform="matrix(46.2573,0,0,46.2573,285.034,0)">
                                    <path d="M0.351,-0.545L0.351,-0.432L0.022,-0.432L0.022,-0.545L0.351,-0.545ZM0.097,-0.676L0.248,-0.676L0.248,-0.168C0.248,-0.154 0.25,-0.143 0.254,-0.135C0.259,-0.127 0.265,-0.122 0.272,-0.119C0.28,-0.116 0.289,-0.114 0.299,-0.114C0.306,-0.114 0.313,-0.115 0.32,-0.116C0.328,-0.118 0.333,-0.119 0.337,-0.119L0.361,-0.007C0.353,-0.004 0.342,-0.001 0.329,0.002C0.315,0.005 0.298,0.007 0.278,0.008C0.242,0.009 0.21,0.004 0.183,-0.007C0.155,-0.018 0.134,-0.035 0.119,-0.059C0.104,-0.082 0.096,-0.112 0.097,-0.148L0.097,-0.676Z" style="fill:rgb(33,37,41);fill-rule:nonzero;"/>
                                </g>
                                <g transform="matrix(46.2573,0,0,46.2573,301.855,0)">
                                    <path d="M0.216,0.01C0.181,0.01 0.15,0.004 0.123,-0.008C0.096,-0.02 0.074,-0.038 0.059,-0.062C0.043,-0.086 0.035,-0.116 0.035,-0.152C0.035,-0.183 0.04,-0.208 0.051,-0.229C0.063,-0.249 0.078,-0.266 0.097,-0.278C0.116,-0.291 0.138,-0.3 0.162,-0.307C0.187,-0.313 0.213,-0.318 0.24,-0.32C0.271,-0.324 0.297,-0.327 0.316,-0.33C0.336,-0.333 0.35,-0.337 0.359,-0.343C0.367,-0.349 0.372,-0.358 0.372,-0.369L0.372,-0.371C0.372,-0.394 0.365,-0.411 0.351,-0.424C0.336,-0.436 0.317,-0.442 0.291,-0.442C0.264,-0.442 0.242,-0.436 0.226,-0.424C0.21,-0.412 0.199,-0.397 0.194,-0.379L0.054,-0.391C0.061,-0.424 0.075,-0.452 0.096,-0.477C0.117,-0.501 0.144,-0.52 0.177,-0.533C0.21,-0.546 0.248,-0.553 0.291,-0.553C0.322,-0.553 0.351,-0.549 0.379,-0.542C0.407,-0.535 0.431,-0.524 0.453,-0.509C0.474,-0.494 0.492,-0.475 0.504,-0.452C0.517,-0.428 0.523,-0.4 0.523,-0.368L0.523,-0L0.38,-0L0.38,-0.076L0.375,-0.076C0.366,-0.059 0.355,-0.044 0.34,-0.031C0.326,-0.018 0.308,-0.008 0.287,-0.001C0.267,0.007 0.243,0.01 0.216,0.01ZM0.259,-0.094C0.282,-0.094 0.301,-0.098 0.318,-0.107C0.335,-0.116 0.349,-0.128 0.358,-0.144C0.368,-0.159 0.373,-0.176 0.373,-0.195L0.373,-0.253C0.368,-0.25 0.362,-0.247 0.354,-0.245C0.345,-0.242 0.336,-0.24 0.326,-0.238C0.316,-0.236 0.306,-0.234 0.296,-0.233C0.285,-0.231 0.276,-0.23 0.268,-0.228C0.25,-0.226 0.235,-0.222 0.221,-0.216C0.208,-0.21 0.198,-0.203 0.19,-0.193C0.183,-0.183 0.179,-0.172 0.179,-0.157C0.179,-0.137 0.187,-0.121 0.202,-0.11C0.217,-0.099 0.236,-0.094 0.259,-0.094Z" style="fill:rgb(33,37,41);fill-rule:nonzero;"/>
                                </g>
                                <g transform="matrix(46.2573,0,0,46.2573,327.941,0)">
                                    <path d="M0.06,-0L0.06,-0.545L0.212,-0.545L0.212,-0L0.06,-0ZM0.137,-0.616C0.114,-0.616 0.095,-0.623 0.079,-0.638C0.063,-0.653 0.055,-0.671 0.055,-0.692C0.055,-0.713 0.063,-0.731 0.079,-0.746C0.095,-0.761 0.114,-0.769 0.136,-0.769C0.159,-0.769 0.178,-0.761 0.194,-0.746C0.21,-0.731 0.218,-0.713 0.218,-0.692C0.218,-0.671 0.21,-0.653 0.194,-0.638C0.178,-0.623 0.159,-0.616 0.137,-0.616Z" style="fill:rgb(33,37,41);fill-rule:nonzero;"/>
                                </g>
                                <g transform="matrix(46.2573,0,0,46.2573,338.914,0)">
                                    <rect x="0.061" y="-0.727" width="0.151" height="0.727" style="fill:rgb(33,37,41);fill-rule:nonzero;"/>
                                </g>
                                <g transform="matrix(46.2573,0,0,46.2573,349.887,0)">
                                    <path d="M0.514,-0.39L0.376,-0.382C0.373,-0.393 0.368,-0.404 0.361,-0.413C0.353,-0.423 0.343,-0.431 0.33,-0.437C0.317,-0.442 0.302,-0.445 0.284,-0.445C0.261,-0.445 0.241,-0.44 0.225,-0.43C0.209,-0.421 0.201,-0.408 0.201,-0.391C0.201,-0.378 0.206,-0.367 0.217,-0.358C0.227,-0.349 0.245,-0.342 0.27,-0.337L0.369,-0.317C0.422,-0.306 0.462,-0.288 0.488,-0.264C0.514,-0.24 0.527,-0.208 0.527,-0.169C0.527,-0.133 0.516,-0.102 0.495,-0.075C0.474,-0.048 0.446,-0.027 0.409,-0.012C0.373,0.003 0.331,0.011 0.284,0.011C0.212,0.011 0.154,-0.005 0.111,-0.035C0.068,-0.065 0.044,-0.106 0.036,-0.158L0.185,-0.166C0.19,-0.144 0.2,-0.127 0.218,-0.116C0.235,-0.104 0.257,-0.098 0.284,-0.098C0.311,-0.098 0.332,-0.103 0.348,-0.114C0.364,-0.124 0.373,-0.137 0.373,-0.154C0.373,-0.168 0.367,-0.179 0.356,-0.188C0.344,-0.197 0.327,-0.203 0.303,-0.208L0.209,-0.227C0.155,-0.238 0.116,-0.256 0.09,-0.282C0.064,-0.309 0.051,-0.342 0.051,-0.383C0.051,-0.418 0.06,-0.448 0.079,-0.473C0.098,-0.499 0.125,-0.518 0.16,-0.532C0.195,-0.546 0.235,-0.553 0.282,-0.553C0.351,-0.553 0.405,-0.538 0.445,-0.509C0.484,-0.48 0.508,-0.44 0.514,-0.39Z" style="fill:rgb(33,37,41);fill-rule:nonzero;"/>
                                </g>
                            </g>
                        </g>
                    </g>
                </g>
                <g transform="matrix(1.43769,0,0,1.38476,651.42,317.579)">
                    <g>
                        <g transform="matrix(105.313,0,0,105.313,0,0)">
                            <path d="M0.063,-0L0.063,-0.727L0.217,-0.727L0.217,-0.127L0.529,-0.127L0.529,-0L0.063,-0Z" style="fill:rgb(33,37,41);fill-rule:nonzero;"/>
                        </g>
                        <g transform="matrix(105.313,0,0,105.313,59.2386,0)">
                            <path d="M0.307,0.011C0.252,0.011 0.204,-0.001 0.164,-0.025C0.124,-0.048 0.093,-0.081 0.071,-0.123C0.049,-0.166 0.038,-0.215 0.038,-0.271C0.038,-0.327 0.049,-0.376 0.071,-0.419C0.093,-0.461 0.124,-0.494 0.164,-0.517C0.204,-0.541 0.252,-0.553 0.307,-0.553C0.362,-0.553 0.41,-0.541 0.45,-0.517C0.49,-0.494 0.521,-0.461 0.543,-0.419C0.564,-0.376 0.575,-0.327 0.575,-0.271C0.575,-0.215 0.564,-0.166 0.543,-0.123C0.521,-0.081 0.49,-0.048 0.45,-0.025C0.41,-0.001 0.362,0.011 0.307,0.011ZM0.308,-0.107C0.333,-0.107 0.353,-0.114 0.37,-0.128C0.387,-0.142 0.4,-0.162 0.409,-0.187C0.417,-0.212 0.422,-0.24 0.422,-0.272C0.422,-0.303 0.417,-0.332 0.409,-0.357C0.4,-0.381 0.387,-0.401 0.37,-0.416C0.353,-0.43 0.333,-0.437 0.308,-0.437C0.282,-0.437 0.261,-0.43 0.244,-0.416C0.226,-0.401 0.214,-0.381 0.205,-0.357C0.196,-0.332 0.192,-0.303 0.192,-0.272C0.192,-0.24 0.196,-0.212 0.205,-0.187C0.214,-0.162 0.226,-0.142 0.244,-0.128C0.261,-0.114 0.282,-0.107 0.308,-0.107Z" style="fill:rgb(33,37,41);fill-rule:nonzero;"/>
                        </g>
                        <g transform="matrix(105.313,0,0,105.313,122.067,0)">
                            <path d="M0.306,0.213C0.257,0.213 0.215,0.206 0.18,0.193C0.145,0.179 0.117,0.161 0.097,0.139C0.076,0.116 0.063,0.091 0.057,0.064L0.197,0.045C0.201,0.055 0.208,0.064 0.217,0.073C0.226,0.082 0.238,0.089 0.254,0.095C0.269,0.101 0.288,0.104 0.31,0.104C0.342,0.104 0.37,0.096 0.391,0.08C0.413,0.065 0.423,0.039 0.423,0.003L0.423,-0.097L0.417,-0.097C0.41,-0.082 0.4,-0.067 0.387,-0.054C0.374,-0.04 0.357,-0.029 0.336,-0.02C0.315,-0.012 0.29,-0.008 0.261,-0.008C0.22,-0.008 0.183,-0.017 0.15,-0.036C0.116,-0.055 0.09,-0.085 0.07,-0.124C0.05,-0.163 0.04,-0.213 0.04,-0.274C0.04,-0.336 0.05,-0.387 0.07,-0.429C0.09,-0.47 0.117,-0.501 0.151,-0.522C0.184,-0.542 0.221,-0.553 0.261,-0.553C0.291,-0.553 0.317,-0.547 0.338,-0.537C0.358,-0.527 0.375,-0.514 0.388,-0.499C0.4,-0.484 0.41,-0.469 0.417,-0.454L0.423,-0.454L0.423,-0.545L0.573,-0.545L0.573,0.005C0.573,0.051 0.561,0.089 0.539,0.119C0.516,0.15 0.484,0.173 0.444,0.189C0.404,0.205 0.358,0.213 0.306,0.213ZM0.309,-0.121C0.334,-0.121 0.354,-0.127 0.371,-0.14C0.388,-0.152 0.401,-0.169 0.41,-0.192C0.419,-0.215 0.424,-0.242 0.424,-0.274C0.424,-0.306 0.419,-0.334 0.41,-0.358C0.402,-0.381 0.389,-0.4 0.372,-0.413C0.355,-0.426 0.334,-0.432 0.309,-0.432C0.284,-0.432 0.263,-0.425 0.246,-0.412C0.229,-0.399 0.216,-0.38 0.208,-0.356C0.199,-0.333 0.195,-0.305 0.195,-0.274C0.195,-0.243 0.199,-0.216 0.208,-0.193C0.217,-0.17 0.23,-0.152 0.247,-0.14C0.264,-0.128 0.285,-0.121 0.309,-0.121Z" style="fill:rgb(33,37,41);fill-rule:nonzero;"/>
                        </g>
                        <g transform="matrix(105.313,0,0,105.313,215.862,0)">
                            <rect x="0.063" y="-0.727" width="0.154" height="0.727" style="fill:rgb(33,37,41);fill-rule:nonzero;"/>
                        </g>
                        <g transform="matrix(105.313,0,0,105.313,243.686,0)">
                            <path d="M0.212,-0.315L0.212,-0L0.061,-0L0.061,-0.545L0.205,-0.545L0.205,-0.449L0.211,-0.449C0.223,-0.481 0.243,-0.506 0.272,-0.525C0.3,-0.543 0.335,-0.553 0.375,-0.553C0.413,-0.553 0.446,-0.544 0.474,-0.528C0.502,-0.511 0.524,-0.487 0.54,-0.457C0.555,-0.426 0.563,-0.39 0.563,-0.347L0.563,-0L0.412,-0L0.412,-0.32C0.412,-0.354 0.404,-0.38 0.386,-0.399C0.369,-0.418 0.345,-0.427 0.315,-0.427C0.295,-0.427 0.277,-0.423 0.261,-0.414C0.246,-0.405 0.234,-0.392 0.225,-0.376C0.216,-0.359 0.212,-0.339 0.212,-0.315Z" style="fill:rgb(33,37,41);fill-rule:nonzero;"/>
                        </g>
                    </g>
                </g>
                <g transform="matrix(4.16666,0,0,4.16666,0,58.3333)">
                    <path d="M132.369,106.481L271.401,106.481" style="fill:rgb(33,37,41);stroke:rgb(33,37,41);stroke-width:1.5px;"/>
                </g>
            </g>
        </g>
    </g>
</svg>
