<?xml version="1.0" encoding="UTF-8" standalone="no"?><!DOCTYPE svg PUBLIC "-//W3C//DTD SVG 1.1//EN" "http://www.w3.org/Graphics/SVG/1.1/DTD/svg11.dtd"><svg width="100%" height="100%" viewBox="0 0 1749 1241" version="1.1" xmlns="http://www.w3.org/2000/svg" xmlns:xlink="http://www.w3.org/1999/xlink" xml:space="preserve" xmlns:serif="http://www.serif.com/" style="fill-rule:evenodd;clip-rule:evenodd;stroke-linecap:round;stroke-linejoin:round;stroke-miterlimit:1.5;"><rect id="Artboard1" x="0" y="-0" width="1748.03" height="1240.16" style="fill:none;"/><clipPath id="_clip1"><rect x="0" y="-0" width="1748.03" height="1240.16"/></clipPath><g clip-path="url(#_clip1)"><g><rect x="0" y="0" width="1748.03" height="1240.16" style="fill:#ada7ff;"/><g><path d="M1525.11,250.826c-0,-69.179 -84.972,-125.345 -189.635,-125.345l-879.272,0c-104.662,0 -189.634,56.166 -189.634,125.345l0,1006.12c0,69.18 84.972,125.345 189.634,125.345l879.272,0c104.663,0 189.635,-56.165 189.635,-125.345l-0,-1006.12Z" style="fill:#f8f9fa;stroke:#212529;stroke-width:32.06px;"/></g><g><g><path d="M681.1,300.302l-0,-72.727l28.664,-0c5.512,-0 10.211,0.975 14.099,2.926c3.887,1.951 6.855,4.706 8.906,8.267c2.05,3.561 3.075,7.746 3.075,12.557c0,4.839 -1.043,8.994 -3.129,12.464c-2.085,3.471 -5.099,6.129 -9.041,7.976c-3.942,1.847 -8.701,2.77 -14.279,2.77l-19.205,-0l0,-12.386l16.705,0c2.945,0 5.387,-0.401 7.326,-1.204c1.939,-0.803 3.39,-2.006 4.354,-3.612c0.964,-1.605 1.445,-3.607 1.445,-6.008c0,-2.415 -0.484,-4.452 -1.452,-6.112c-0.968,-1.659 -2.424,-2.916 -4.368,-3.771c-1.944,-0.855 -4.397,-1.282 -7.362,-1.282l-10.369,-0l0,60.142l-15.369,0Zm39.261,-33.096l18.068,33.096l-16.96,0l-17.698,-33.096l16.59,-0Z" style="fill-rule:nonzero;"/><path d="M768.997,301.353c-5.596,0 -10.415,-1.137 -14.456,-3.412c-4.041,-2.275 -7.15,-5.514 -9.326,-9.716c-2.175,-4.202 -3.263,-9.182 -3.263,-14.94c0,-5.615 1.091,-10.542 3.274,-14.78c2.183,-4.237 5.254,-7.54 9.212,-9.907c3.958,-2.368 8.612,-3.551 13.963,-3.551c3.608,-0 6.967,0.572 10.078,1.718c3.111,1.146 5.831,2.871 8.16,5.174c2.33,2.304 4.148,5.189 5.455,8.655c1.307,3.465 1.96,7.516 1.96,12.151l0,4.148l-46.051,0l0,-9.375l31.819,0c-0.015,-2.168 -0.497,-4.094 -1.446,-5.777c-0.949,-1.684 -2.258,-3.007 -3.927,-3.971c-1.67,-0.963 -3.6,-1.445 -5.792,-1.445c-2.288,-0 -4.314,0.531 -6.08,1.594c-1.766,1.063 -3.148,2.475 -4.144,4.237c-0.997,1.761 -1.509,3.719 -1.538,5.874l0,8.92c0,2.699 0.507,5.031 1.52,6.996c1.013,1.965 2.443,3.478 4.29,4.538c1.846,1.061 4.029,1.591 6.548,1.591c1.691,-0 3.231,-0.239 4.62,-0.717c1.39,-0.478 2.587,-1.187 3.591,-2.127c1.003,-0.94 1.761,-2.094 2.272,-3.463l13.977,0.909c-0.71,3.372 -2.156,6.306 -4.339,8.804c-2.183,2.497 -4.999,4.434 -8.448,5.809c-3.45,1.376 -7.426,2.063 -11.929,2.063Z" style="fill-rule:nonzero;"/><path d="M826.981,321.553c-4.901,-0 -9.102,-0.665 -12.603,-1.993c-3.502,-1.328 -6.281,-3.118 -8.338,-5.369c-2.058,-2.252 -3.392,-4.75 -4.003,-7.497l14.006,-1.875c0.417,0.981 1.084,1.917 2.003,2.809c0.918,0.893 2.141,1.623 3.668,2.191c1.527,0.569 3.396,0.853 5.607,0.853c3.282,-0 5.996,-0.782 8.143,-2.344c2.147,-1.563 3.221,-4.134 3.221,-7.713l0,-9.972l-0.625,0c-0.672,1.506 -1.674,2.937 -3.004,4.293c-1.33,1.357 -3.033,2.463 -5.106,3.317c-2.074,0.855 -4.56,1.282 -7.458,1.282c-4.091,0 -7.811,-0.956 -11.161,-2.869c-3.35,-1.913 -6.016,-4.837 -7.998,-8.771c-1.981,-3.935 -2.972,-8.928 -2.972,-14.979c0,-6.184 1.007,-11.343 3.022,-15.476c2.015,-4.133 4.7,-7.232 8.054,-9.297c3.355,-2.064 7.03,-3.096 11.027,-3.096c3.039,-0 5.589,0.514 7.649,1.544c2.06,1.03 3.726,2.306 5,3.828c1.273,1.522 2.246,3.027 2.919,4.514l0.596,0l0,-9.176l15,-0l0,55.085c0,4.531 -1.137,8.334 -3.413,11.41c-2.275,3.075 -5.417,5.394 -9.428,6.957c-4.01,1.562 -8.612,2.344 -13.806,2.344Zm0.312,-33.381c2.424,-0 4.487,-0.61 6.19,-1.829c1.702,-1.219 3.004,-2.971 3.906,-5.256c0.902,-2.284 1.353,-5.027 1.353,-8.228c0,-3.191 -0.446,-5.967 -1.339,-8.328c-0.892,-2.36 -2.19,-4.19 -3.892,-5.49c-1.702,-1.299 -3.775,-1.949 -6.218,-1.949c-2.5,-0 -4.601,0.668 -6.303,2.006c-1.703,1.338 -2.99,3.192 -3.864,5.562c-0.874,2.369 -1.31,5.103 -1.31,8.199c-0,3.134 0.441,5.846 1.324,8.136c0.883,2.289 2.176,4.058 3.878,5.305c1.702,1.248 3.794,1.872 6.275,1.872Z" style="fill-rule:nonzero;"/><path d="M863.33,300.302l-0,-54.545l15.128,-0l-0,54.545l-15.128,0Zm7.635,-61.576c-2.249,-0 -4.179,-0.752 -5.788,-2.255c-1.61,-1.504 -2.415,-3.309 -2.415,-5.416c-0,-2.083 0.805,-3.877 2.415,-5.38c1.609,-1.503 3.527,-2.255 5.752,-2.255c2.273,0 4.208,0.752 5.807,2.255c1.598,1.503 2.397,3.297 2.397,5.38c-0,2.107 -0.799,3.912 -2.397,5.416c-1.599,1.503 -3.522,2.255 -5.771,2.255Z" style="fill-rule:nonzero;"/><path d="M932.435,261.296l-13.835,0.853c-0.246,-1.17 -0.758,-2.235 -1.534,-3.196c-0.777,-0.961 -1.8,-1.73 -3.072,-2.305c-1.271,-0.575 -2.785,-0.863 -4.542,-0.863c-2.344,-0 -4.321,0.49 -5.93,1.47c-1.61,0.981 -2.408,2.28 -2.394,3.899c-0.014,1.317 0.498,2.422 1.538,3.317c1.039,0.895 2.828,1.617 5.366,2.166l9.886,1.989c5.303,1.084 9.253,2.833 11.85,5.245c2.597,2.413 3.903,5.589 3.917,9.528c-0.014,3.579 -1.064,6.718 -3.15,9.414c-2.086,2.696 -4.95,4.794 -8.594,6.292c-3.643,1.499 -7.825,2.248 -12.546,2.248c-7.225,0 -12.977,-1.505 -17.254,-4.517c-4.278,-3.011 -6.775,-7.121 -7.49,-12.329l14.858,-0.796c0.459,2.212 1.549,3.891 3.27,5.04c1.721,1.148 3.936,1.722 6.645,1.722c2.642,-0 4.776,-0.519 6.402,-1.555c1.627,-1.037 2.447,-2.365 2.462,-3.985c-0.015,-1.383 -0.589,-2.517 -1.723,-3.402c-1.134,-0.885 -2.889,-1.57 -5.266,-2.053l-9.432,-1.875c-5.336,-1.055 -9.302,-2.9 -11.896,-5.532c-2.595,-2.633 -3.885,-5.988 -3.871,-10.064c-0.014,-3.504 0.934,-6.521 2.844,-9.052c1.911,-2.531 4.603,-4.482 8.076,-5.852c3.473,-1.371 7.532,-2.056 12.176,-2.056c6.889,-0 12.319,1.453 16.289,4.36c3.971,2.907 6.287,6.87 6.95,11.889Z" style="fill-rule:nonzero;"/><path d="M968.344,245.757l0,11.363l-32.869,0l-0,-11.363l32.869,-0Zm-25.398,-13.068l15.114,-0l-0,50.837c-0,1.402 0.218,2.49 0.653,3.264c0.436,0.774 1.037,1.314 1.804,1.62c0.768,0.305 1.653,0.458 2.657,0.458c0.724,-0 1.443,-0.064 2.155,-0.192c0.713,-0.128 1.254,-0.234 1.623,-0.319l2.387,11.278c-0.753,0.241 -1.82,0.521 -3.2,0.838c-1.38,0.317 -3.051,0.511 -5.011,0.582c-3.646,0.142 -6.837,-0.342 -9.574,-1.452c-2.736,-1.11 -4.862,-2.842 -6.377,-5.196c-1.516,-2.353 -2.259,-5.307 -2.231,-8.863l0,-52.855Z" style="fill-rule:nonzero;"/><path d="M999.963,301.353c-5.596,0 -10.415,-1.137 -14.456,-3.412c-4.041,-2.275 -7.15,-5.514 -9.325,-9.716c-2.176,-4.202 -3.264,-9.182 -3.264,-14.94c0,-5.615 1.092,-10.542 3.274,-14.78c2.183,-4.237 5.254,-7.54 9.212,-9.907c3.958,-2.368 8.613,-3.551 13.963,-3.551c3.608,-0 6.967,0.572 10.078,1.718c3.111,1.146 5.831,2.871 8.161,5.174c2.329,2.304 4.147,5.189 5.454,8.655c1.307,3.465 1.961,7.516 1.961,12.151l-0,4.148l-46.052,0l0,-9.375l31.819,0c-0.015,-2.168 -0.497,-4.094 -1.446,-5.777c-0.949,-1.684 -2.258,-3.007 -3.927,-3.971c-1.67,-0.963 -3.6,-1.445 -5.792,-1.445c-2.287,-0 -4.314,0.531 -6.08,1.594c-1.766,1.063 -3.148,2.475 -4.144,4.237c-0.997,1.761 -1.509,3.719 -1.538,5.874l0,8.92c0,2.699 0.507,5.031 1.52,6.996c1.013,1.965 2.443,3.478 4.29,4.538c1.846,1.061 4.029,1.591 6.548,1.591c1.691,-0 3.231,-0.239 4.621,-0.717c1.389,-0.478 2.586,-1.187 3.59,-2.127c1.004,-0.94 1.761,-2.094 2.272,-3.463l13.977,0.909c-0.71,3.372 -2.156,6.306 -4.339,8.804c-2.183,2.497 -4.999,4.434 -8.448,5.809c-3.45,1.376 -7.426,2.063 -11.929,2.063Z" style="fill-rule:nonzero;"/><path d="M1033.37,300.302l-0,-54.545l14.658,-0l0,9.517l0.569,-0c0.994,-3.381 2.662,-5.94 5.003,-7.678c2.342,-1.737 5.04,-2.606 8.094,-2.606c0.757,-0 1.573,0.044 2.446,0.131c0.874,0.088 1.64,0.212 2.298,0.373l-0,13.444c-0.696,-0.227 -1.671,-0.421 -2.926,-0.582c-1.255,-0.161 -2.41,-0.241 -3.466,-0.241c-2.211,-0 -4.189,0.479 -5.934,1.438c-1.745,0.959 -3.119,2.289 -4.123,3.991c-1.004,1.703 -1.506,3.671 -1.506,5.906l0,30.852l-15.113,0Z" style="fill-rule:nonzero;"/></g></g><g><g><g><path d="M1268.03,832.108c0,-14.387 -14.782,-26.068 -32.988,-26.068l-585.412,0c-18.206,0 -32.988,11.681 -32.988,26.068l0,52.136c0,14.388 14.782,26.069 32.988,26.069l585.412,0c18.206,0 32.988,-11.681 32.988,-26.069l0,-52.136Z" style="fill:#fff;stroke:#212529;stroke-width:14.26px;"/></g><g><path d="M616.642,766.659l0,-36.363l24.503,-0l-0,6.335l-16.818,-0l-0,8.665l15.554,-0l-0,6.335l-15.554,-0l-0,8.693l16.889,0l-0,6.335l-24.574,0Z" style="fill:#212529;fill-rule:nonzero;"/><path d="M646.401,766.659l-0,-27.272l7.201,-0l0,4.815l0.313,0c0.568,-1.605 1.517,-2.868 2.848,-3.789c1.33,-0.921 2.919,-1.381 4.765,-1.381c1.87,-0 3.461,0.465 4.773,1.397c1.312,0.932 2.187,2.189 2.628,3.773l0.284,0c0.556,-1.565 1.565,-2.818 3.025,-3.759c1.461,-0.941 3.189,-1.411 5.185,-1.411c2.545,-0 4.616,0.808 6.213,2.425c1.597,1.617 2.395,3.905 2.395,6.864l0,18.338l-7.557,0l0,-16.846c0,-1.523 -0.401,-2.661 -1.203,-3.415c-0.803,-0.754 -1.808,-1.131 -3.015,-1.131c-1.371,0 -2.443,0.435 -3.216,1.305c-0.773,0.87 -1.159,2.017 -1.159,3.439l-0,16.648l-7.33,0l0,-17.017c0,-1.337 -0.382,-2.401 -1.147,-3.191c-0.765,-0.789 -1.77,-1.184 -3.015,-1.184c-0.84,0 -1.594,0.208 -2.262,0.625c-0.668,0.417 -1.196,1.002 -1.586,1.756c-0.389,0.754 -0.584,1.637 -0.584,2.648l0,16.363l-7.556,0Z" style="fill:#212529;fill-rule:nonzero;"/><path d="M697.636,767.171c-1.735,-0 -3.284,-0.304 -4.646,-0.911c-1.363,-0.607 -2.437,-1.512 -3.223,-2.715c-0.786,-1.203 -1.179,-2.702 -1.179,-4.499c0,-1.52 0.276,-2.793 0.828,-3.819c0.551,-1.027 1.306,-1.853 2.265,-2.481c0.959,-0.627 2.052,-1.103 3.28,-1.428c1.227,-0.324 2.517,-0.551 3.869,-0.681c1.579,-0.157 2.854,-0.309 3.826,-0.457c0.972,-0.148 1.678,-0.37 2.118,-0.667c0.44,-0.297 0.661,-0.737 0.661,-1.32l-0,-0.099c-0,-1.127 -0.354,-1.998 -1.062,-2.614c-0.708,-0.615 -1.703,-0.923 -2.987,-0.923c-1.361,0 -2.445,0.298 -3.251,0.893c-0.806,0.596 -1.337,1.344 -1.593,2.246l-7.002,-0.568c0.355,-1.657 1.053,-3.092 2.093,-4.306c1.041,-1.213 2.387,-2.148 4.039,-2.805c1.653,-0.657 3.567,-0.985 5.743,-0.985c1.522,-0 2.977,0.178 4.364,0.534c1.387,0.356 2.622,0.906 3.704,1.648c1.082,0.742 1.937,1.696 2.566,2.862c0.628,1.166 0.942,2.562 0.942,4.188l0,18.395l-7.173,0l0,-3.778l-0.213,0c-0.44,0.848 -1.025,1.594 -1.756,2.241c-0.73,0.646 -1.612,1.149 -2.645,1.509c-1.034,0.36 -2.223,0.54 -3.568,0.54Zm2.174,-5.213c1.11,-0 2.091,-0.223 2.942,-0.668c0.851,-0.445 1.518,-1.048 2.001,-1.808c0.483,-0.759 0.724,-1.615 0.724,-2.567l0,-2.898c-0.227,0.149 -0.547,0.287 -0.96,0.412c-0.413,0.126 -0.873,0.238 -1.378,0.338c-0.506,0.099 -1.012,0.188 -1.52,0.266c-0.508,0.078 -0.969,0.147 -1.383,0.206c-0.89,0.128 -1.667,0.334 -2.332,0.62c-0.664,0.285 -1.18,0.667 -1.548,1.147c-0.368,0.479 -0.552,1.074 -0.552,1.784c-0,1.037 0.376,1.824 1.129,2.362c0.753,0.537 1.712,0.806 2.877,0.806Z" style="fill:#212529;fill-rule:nonzero;"/><path d="M718.055,766.659l0,-27.272l7.564,-0l0,27.272l-7.564,0Zm3.818,-30.788c-1.125,0 -2.089,-0.376 -2.894,-1.127c-0.805,-0.752 -1.208,-1.655 -1.208,-2.708c0,-1.042 0.403,-1.939 1.208,-2.69c0.805,-0.752 1.763,-1.128 2.876,-1.128c1.136,0 2.104,0.376 2.903,1.128c0.799,0.751 1.199,1.648 1.199,2.69c-0,1.053 -0.4,1.956 -1.199,2.708c-0.799,0.751 -1.761,1.127 -2.885,1.127Z" style="fill:#212529;fill-rule:nonzero;"/><rect x="729.923" y="730.296" width="7.557" height="36.364" style="fill:#212529;fill-rule:nonzero;"/></g></g><g><g><path d="M1268.03,1060.47c0,-14.387 -14.782,-26.068 -32.988,-26.068l-585.412,0c-18.206,0 -32.988,11.681 -32.988,26.068l0,52.136c0,14.388 14.782,26.069 32.988,26.069l585.412,0c18.206,0 32.988,-11.681 32.988,-26.069l0,-52.136Z" style="fill:#fff;stroke:#212529;stroke-width:14.26px;"/></g><g><path d="M616.642,995.021l0,-36.363l14.332,-0c2.761,-0 5.112,0.524 7.053,1.573c1.941,1.049 3.424,2.5 4.449,4.354c1.026,1.853 1.538,3.983 1.538,6.388c0,2.42 -0.52,4.551 -1.561,6.396c-1.04,1.844 -2.546,3.282 -4.517,4.314c-1.971,1.033 -4.353,1.549 -7.146,1.549l-9.148,-0l-0,-6.165l7.898,-0c1.477,-0 2.699,-0.258 3.666,-0.773c0.967,-0.514 1.692,-1.23 2.174,-2.146c0.481,-0.916 0.722,-1.975 0.722,-3.175c0,-1.207 -0.241,-2.263 -0.722,-3.166c-0.482,-0.903 -1.209,-1.605 -2.181,-2.106c-0.972,-0.5 -2.201,-0.751 -3.688,-0.751l-5.184,0l-0,30.071l-7.685,0Z" style="fill:#212529;fill-rule:nonzero;"/><path d="M655.804,979.254l-0,15.767l-7.557,0l0,-36.363l7.344,-0l-0,13.906l0.312,0c0.625,-1.607 1.624,-2.871 2.997,-3.791c1.373,-0.92 3.092,-1.379 5.157,-1.379c1.901,-0 3.558,0.41 4.973,1.232c1.414,0.821 2.513,1.998 3.295,3.53c0.783,1.531 1.171,3.362 1.164,5.493l-0,17.372l-7.557,0l-0,-16.022c0.007,-1.676 -0.418,-2.983 -1.273,-3.921c-0.856,-0.937 -2.056,-1.406 -3.599,-1.406c-1.026,-0 -1.934,0.221 -2.726,0.662c-0.792,0.442 -1.41,1.078 -1.854,1.911c-0.444,0.832 -0.669,1.835 -0.676,3.009Z" style="fill:#212529;fill-rule:nonzero;"/><path d="M690.108,995.547c-2.761,-0 -5.143,-0.588 -7.149,-1.763c-2.005,-1.176 -3.552,-2.819 -4.641,-4.929c-1.089,-2.111 -1.633,-4.567 -1.633,-7.371c-0,-2.812 0.544,-5.276 1.633,-7.391c1.089,-2.116 2.636,-3.761 4.641,-4.936c2.006,-1.176 4.388,-1.763 7.149,-1.763c2.76,-0 5.143,0.587 7.148,1.763c2.006,1.175 3.553,2.82 4.642,4.936c1.089,2.115 1.633,4.579 1.633,7.391c0,2.804 -0.544,5.26 -1.633,7.371c-1.089,2.11 -2.636,3.753 -4.642,4.929c-2.005,1.175 -4.388,1.763 -7.148,1.763Zm0.043,-5.852c1.245,-0 2.29,-0.359 3.135,-1.076c0.845,-0.718 1.483,-1.698 1.914,-2.941c0.431,-1.243 0.647,-2.655 0.647,-4.236c-0,-1.589 -0.216,-3.005 -0.647,-4.249c-0.431,-1.244 -1.069,-2.227 -1.914,-2.949c-0.845,-0.722 -1.89,-1.083 -3.135,-1.083c-1.274,-0 -2.341,0.361 -3.2,1.083c-0.86,0.722 -1.505,1.705 -1.936,2.949c-0.43,1.244 -0.646,2.66 -0.646,4.249c0,1.581 0.216,2.993 0.646,4.236c0.431,1.243 1.076,2.223 1.936,2.941c0.859,0.717 1.926,1.076 3.2,1.076Z" style="fill:#212529;fill-rule:nonzero;"/><path d="M715.179,979.254l-0,15.767l-7.557,0l0,-27.272l7.202,-0l-0,4.815l0.312,0c0.611,-1.591 1.626,-2.85 3.045,-3.778c1.42,-0.928 3.141,-1.392 5.166,-1.392c1.896,-0 3.549,0.414 4.959,1.244c1.409,0.83 2.504,2.011 3.284,3.543c0.78,1.531 1.167,3.354 1.16,5.468l-0,17.372l-7.557,0l0,-16.022c0.007,-1.667 -0.42,-2.971 -1.28,-3.914c-0.861,-0.942 -2.048,-1.413 -3.564,-1.413c-1.018,-0 -1.915,0.221 -2.693,0.662c-0.778,0.442 -1.383,1.078 -1.817,1.911c-0.433,0.832 -0.653,1.835 -0.66,3.009Z" style="fill:#212529;fill-rule:nonzero;"/><path d="M749.298,995.547c-2.798,-0 -5.207,-0.569 -7.228,-1.706c-2.021,-1.138 -3.575,-2.757 -4.663,-4.858c-1.088,-2.101 -1.631,-4.591 -1.631,-7.47c-0,-2.808 0.545,-5.271 1.637,-7.39c1.091,-2.119 2.626,-3.77 4.605,-4.954c1.98,-1.184 4.307,-1.775 6.982,-1.775c1.804,-0 3.484,0.286 5.039,0.859c1.555,0.573 2.916,1.435 4.08,2.587c1.165,1.152 2.074,2.594 2.728,4.327c0.653,1.733 0.98,3.758 0.98,6.076l-0,2.074l-23.026,-0l0,-4.688l15.909,0c-0.007,-1.084 -0.248,-2.047 -0.722,-2.888c-0.475,-0.842 -1.13,-1.504 -1.964,-1.986c-0.835,-0.481 -1.8,-0.722 -2.896,-0.722c-1.144,-0 -2.157,0.265 -3.04,0.797c-0.883,0.531 -1.574,1.237 -2.072,2.118c-0.498,0.881 -0.755,1.86 -0.769,2.937l0,4.46c0,1.35 0.253,2.516 0.76,3.498c0.507,0.983 1.222,1.739 2.145,2.269c0.923,0.531 2.015,0.796 3.274,0.796c0.845,-0 1.615,-0.12 2.31,-0.359c0.695,-0.239 1.294,-0.593 1.795,-1.063c0.502,-0.47 0.881,-1.047 1.137,-1.732l6.988,0.455c-0.355,1.686 -1.078,3.153 -2.17,4.402c-1.091,1.248 -2.499,2.217 -4.224,2.904c-1.724,0.688 -3.712,1.032 -5.964,1.032Z" style="fill:#212529;fill-rule:nonzero;"/></g></g><g><g><path d="M1268.03,610.002c0,-14.387 -14.782,-26.068 -32.988,-26.068l-585.412,0c-18.206,0 -32.988,11.681 -32.988,26.068l0,52.136c0,14.388 14.782,26.069 32.988,26.069l585.412,0c18.206,0 32.988,-11.681 32.988,-26.069l0,-52.136Z" style="fill:#fff;stroke:#212529;stroke-width:14.26px;"/></g><g><path d="M647.054,508.19l-0,36.363l-6.648,0l-15.81,-22.883l-0.269,-0l-0,22.883l-7.685,0l0,-36.363l6.733,-0l15.71,22.869l0.313,0l-0,-22.869l7.656,-0Z" style="fill:#212529;fill-rule:nonzero;"/><path d="M661.912,545.065c-1.735,-0 -3.284,-0.304 -4.647,-0.911c-1.362,-0.607 -2.436,-1.512 -3.222,-2.715c-0.786,-1.203 -1.179,-2.702 -1.179,-4.499c-0,-1.52 0.275,-2.793 0.827,-3.82c0.552,-1.026 1.307,-1.853 2.266,-2.48c0.959,-0.627 2.052,-1.103 3.279,-1.428c1.228,-0.324 2.517,-0.551 3.869,-0.682c1.579,-0.156 2.855,-0.308 3.826,-0.456c0.972,-0.148 1.678,-0.37 2.119,-0.667c0.44,-0.297 0.66,-0.737 0.66,-1.32l0,-0.099c0,-1.127 -0.354,-1.998 -1.062,-2.614c-0.707,-0.615 -1.703,-0.923 -2.986,-0.923c-1.361,0 -2.445,0.298 -3.251,0.893c-0.806,0.595 -1.337,1.344 -1.593,2.246l-7.003,-0.568c0.355,-1.657 1.053,-3.092 2.094,-4.306c1.04,-1.213 2.387,-2.148 4.039,-2.805c1.653,-0.657 3.567,-0.986 5.742,-0.986c1.522,0 2.977,0.179 4.364,0.535c1.388,0.356 2.622,0.905 3.704,1.648c1.082,0.742 1.937,1.696 2.566,2.862c0.629,1.166 0.943,2.562 0.943,4.188l-0,18.395l-7.173,0l-0,-3.778l-0.213,-0c-0.441,0.847 -1.026,1.594 -1.756,2.241c-0.731,0.646 -1.613,1.149 -2.646,1.509c-1.033,0.36 -2.222,0.54 -3.567,0.54Zm2.173,-5.213c1.111,-0 2.091,-0.223 2.942,-0.668c0.851,-0.445 1.518,-1.048 2.001,-1.808c0.483,-0.76 0.725,-1.615 0.725,-2.567l-0,-2.898c-0.227,0.149 -0.548,0.287 -0.961,0.412c-0.413,0.126 -0.872,0.238 -1.378,0.337c-0.505,0.1 -1.012,0.189 -1.519,0.267c-0.508,0.078 -0.969,0.147 -1.384,0.206c-0.89,0.128 -1.667,0.334 -2.331,0.619c-0.664,0.286 -1.18,0.668 -1.548,1.147c-0.369,0.48 -0.553,1.075 -0.553,1.785c0,1.037 0.377,1.824 1.13,2.362c0.753,0.537 1.711,0.806 2.876,0.806Z" style="fill:#212529;fill-rule:nonzero;"/><path d="M682.338,544.553l0,-27.272l7.202,-0l-0,4.815l0.312,-0c0.568,-1.605 1.518,-2.868 2.848,-3.789c1.331,-0.921 2.919,-1.382 4.766,-1.382c1.87,0 3.461,0.466 4.772,1.398c1.312,0.931 2.188,2.189 2.628,3.773l0.284,-0c0.557,-1.565 1.565,-2.818 3.026,-3.759c1.461,-0.941 3.189,-1.412 5.185,-1.412c2.545,0 4.616,0.809 6.212,2.426c1.597,1.617 2.396,3.905 2.396,6.864l-0,18.338l-7.557,0l-0,-16.846c-0,-1.523 -0.401,-2.661 -1.204,-3.415c-0.802,-0.754 -1.807,-1.131 -3.015,-1.131c-1.371,-0 -2.443,0.435 -3.216,1.305c-0.772,0.87 -1.159,2.017 -1.159,3.439l0,16.648l-7.329,0l-0,-17.017c-0,-1.337 -0.383,-2.401 -1.147,-3.191c-0.765,-0.789 -1.77,-1.184 -3.015,-1.184c-0.841,-0 -1.595,0.208 -2.263,0.625c-0.667,0.417 -1.196,1.002 -1.585,1.756c-0.389,0.754 -0.584,1.637 -0.584,2.647l-0,16.364l-7.557,0Z" style="fill:#212529;fill-rule:nonzero;"/><path d="M738.219,545.079c-2.799,-0 -5.208,-0.569 -7.229,-1.706c-2.02,-1.138 -3.574,-2.757 -4.662,-4.858c-1.088,-2.101 -1.632,-4.591 -1.632,-7.47c-0,-2.808 0.546,-5.271 1.637,-7.39c1.092,-2.119 2.627,-3.77 4.606,-4.954c1.979,-1.184 4.306,-1.776 6.981,-1.776c1.804,0 3.484,0.287 5.04,0.86c1.555,0.573 2.915,1.435 4.08,2.587c1.164,1.152 2.074,2.594 2.727,4.327c0.653,1.733 0.98,3.758 0.98,6.076l0,2.074l-23.025,-0l-0,-4.688l15.909,0c-0.007,-1.084 -0.248,-2.047 -0.723,-2.889c-0.475,-0.841 -1.129,-1.503 -1.964,-1.985c-0.834,-0.482 -1.8,-0.722 -2.896,-0.722c-1.143,-0 -2.157,0.265 -3.04,0.797c-0.883,0.531 -1.573,1.237 -2.072,2.118c-0.498,0.881 -0.754,1.86 -0.768,2.937l-0,4.46c-0,1.35 0.253,2.516 0.759,3.498c0.507,0.983 1.222,1.739 2.145,2.269c0.924,0.531 2.015,0.796 3.275,0.796c0.845,-0 1.615,-0.12 2.31,-0.359c0.695,-0.239 1.293,-0.594 1.795,-1.063c0.502,-0.47 0.88,-1.048 1.136,-1.732l6.989,0.455c-0.356,1.685 -1.079,3.153 -2.17,4.402c-1.091,1.248 -2.499,2.217 -4.224,2.904c-1.725,0.688 -3.713,1.032 -5.964,1.032Z" style="fill:#212529;fill-rule:nonzero;"/></g><g><path d="M659.936,654.558c-2.628,-0 -4.892,-0.583 -6.792,-1.749c-1.9,-1.166 -3.362,-2.8 -4.386,-4.901c-1.024,-2.101 -1.536,-4.548 -1.536,-7.342c0,-2.793 0.512,-5.258 1.536,-7.395c1.024,-2.136 2.457,-3.805 4.297,-5.007c1.841,-1.201 3.992,-1.802 6.454,-1.802c1.421,-0 2.824,0.237 4.209,0.71c1.384,0.474 2.645,1.24 3.781,2.299c1.137,1.06 2.042,2.46 2.717,4.2c0.675,1.74 1.012,3.882 1.012,6.427l0,1.776l-21.023,-0l0,-3.622l16.762,-0c-0,-1.539 -0.305,-2.912 -0.915,-4.12c-0.609,-1.207 -1.473,-2.16 -2.592,-2.858c-1.119,-0.699 -2.435,-1.048 -3.951,-1.048c-1.669,0 -3.11,0.411 -4.323,1.234c-1.213,0.823 -2.146,1.891 -2.797,3.205c-0.651,1.314 -0.976,2.723 -0.976,4.226l-0,2.415c-0,2.059 0.358,3.802 1.074,5.229c0.716,1.426 1.713,2.509 2.992,3.249c1.278,0.74 2.764,1.11 4.457,1.11c1.1,-0 2.098,-0.157 2.991,-0.471c0.894,-0.314 1.666,-0.787 2.317,-1.42c0.652,-0.634 1.155,-1.424 1.51,-2.371l4.048,1.137c-0.426,1.373 -1.142,2.577 -2.148,3.613c-1.007,1.036 -2.249,1.841 -3.729,2.415c-1.48,0.574 -3.143,0.861 -4.989,0.861Z" style="fill:#888c90;fill-rule:nonzero;"/><path d="M680.674,654.274c-0.876,-0 -1.627,-0.314 -2.255,-0.941c-0.627,-0.628 -0.941,-1.379 -0.941,-2.255c0,-0.876 0.314,-1.628 0.941,-2.255c0.628,-0.628 1.379,-0.941 2.255,-0.941c0.876,-0 1.628,0.313 2.255,0.941c0.628,0.627 0.941,1.379 0.941,2.255c0,0.58 -0.145,1.112 -0.435,1.598c-0.29,0.485 -0.675,0.873 -1.154,1.163c-0.479,0.29 -1.015,0.435 -1.607,0.435Z" style="fill:#888c90;fill-rule:nonzero;"/><path d="M702.407,664.785c-2.024,0 -3.764,-0.257 -5.22,-0.772c-1.456,-0.515 -2.666,-1.19 -3.631,-2.024c-0.965,-0.835 -1.731,-1.726 -2.299,-2.673l3.338,-2.343c0.378,0.497 0.858,1.068 1.438,1.713c0.58,0.645 1.376,1.208 2.388,1.687c1.012,0.479 2.341,0.719 3.986,0.719c2.202,0 4.019,-0.533 5.451,-1.598c1.432,-1.065 2.149,-2.734 2.149,-5.007l-0,-5.54l-0.356,0c-0.307,0.497 -0.742,1.11 -1.305,1.838c-0.562,0.728 -1.367,1.373 -2.414,1.935c-1.048,0.562 -2.459,0.844 -4.235,0.844c-2.202,-0 -4.176,-0.521 -5.922,-1.563c-1.746,-1.042 -3.125,-2.557 -4.137,-4.545c-1.012,-1.989 -1.518,-4.404 -1.518,-7.245c0,-2.793 0.491,-5.229 1.474,-7.306c0.982,-2.078 2.35,-3.687 4.102,-4.83c1.751,-1.142 3.776,-1.713 6.072,-1.713c1.776,-0 3.187,0.293 4.235,0.879c1.047,0.586 1.852,1.249 2.414,1.988c0.563,0.74 0.998,1.347 1.306,1.82l0.426,0l-0,-4.332l4.048,-0l-0,28.054c-0,2.344 -0.53,4.252 -1.589,5.726c-1.06,1.474 -2.48,2.557 -4.262,3.249c-1.781,0.693 -3.761,1.039 -5.939,1.039Zm-0.142,-14.986c1.681,0 3.101,-0.384 4.261,-1.154c1.161,-0.769 2.042,-1.876 2.646,-3.32c0.604,-1.444 0.906,-3.172 0.906,-5.185c-0,-1.965 -0.296,-3.699 -0.888,-5.202c-0.592,-1.503 -1.468,-2.681 -2.628,-3.534c-1.16,-0.852 -2.592,-1.278 -4.297,-1.278c-1.775,0 -3.252,0.45 -4.43,1.35c-1.178,0.899 -2.06,2.107 -2.646,3.622c-0.585,1.515 -0.878,3.196 -0.878,5.042c-0,1.894 0.298,3.566 0.896,5.016c0.598,1.45 1.486,2.587 2.664,3.409c1.177,0.823 2.642,1.234 4.394,1.234Z" style="fill:#888c90;fill-rule:nonzero;"/><path d="M724.921,654.274c-0.876,-0 -1.627,-0.314 -2.255,-0.941c-0.627,-0.628 -0.941,-1.379 -0.941,-2.255c0,-0.876 0.314,-1.628 0.941,-2.255c0.628,-0.628 1.379,-0.941 2.255,-0.941c0.876,-0 1.628,0.313 2.255,0.941c0.628,0.627 0.941,1.379 0.941,2.255c0,0.58 -0.145,1.112 -0.435,1.598c-0.29,0.485 -0.674,0.873 -1.154,1.163c-0.479,0.29 -1.015,0.435 -1.607,0.435Z" style="fill:#888c90;fill-rule:nonzero;"/><path d="M764.197,617.626l4.403,0l0,25.994c0,2.32 -0.426,4.291 -1.278,5.913c-0.852,1.622 -2.054,2.853 -3.604,3.693c-1.551,0.841 -3.38,1.261 -5.487,1.261c-1.989,-0 -3.758,-0.364 -5.309,-1.092c-1.551,-0.728 -2.77,-1.767 -3.658,-3.116c-0.887,-1.35 -1.331,-2.954 -1.331,-4.812l4.332,-0c0,1.03 0.258,1.926 0.773,2.69c0.514,0.763 1.222,1.358 2.121,1.784c0.9,0.427 1.924,0.64 3.072,0.64c1.267,-0 2.344,-0.267 3.232,-0.799c0.887,-0.533 1.565,-1.317 2.033,-2.353c0.467,-1.036 0.701,-2.305 0.701,-3.809l-0,-25.994Z" style="fill:#888c90;fill-rule:nonzero;"/><path d="M784.865,654.629c-1.729,-0 -3.297,-0.329 -4.706,-0.986c-1.408,-0.656 -2.527,-1.609 -3.355,-2.858c-0.829,-1.249 -1.243,-2.761 -1.243,-4.537c-0,-1.562 0.307,-2.832 0.923,-3.808c0.615,-0.977 1.438,-1.743 2.468,-2.3c1.03,-0.556 2.169,-0.973 3.418,-1.251c1.249,-0.279 2.506,-0.501 3.773,-0.666c1.657,-0.213 3.004,-0.376 4.039,-0.489c1.036,-0.112 1.794,-0.304 2.273,-0.577c0.48,-0.272 0.719,-0.745 0.719,-1.42l0,-0.142c0,-1.752 -0.476,-3.113 -1.429,-4.084c-0.953,-0.971 -2.394,-1.456 -4.324,-1.456c-2,0 -3.568,0.438 -4.705,1.314c-1.136,0.876 -1.935,1.811 -2.397,2.805l-3.977,-1.42c0.71,-1.657 1.66,-2.95 2.85,-3.88c1.189,-0.929 2.491,-1.58 3.906,-1.953c1.414,-0.373 2.808,-0.559 4.181,-0.559c0.876,-0 1.885,0.103 3.028,0.311c1.142,0.207 2.249,0.63 3.32,1.269c1.071,0.639 1.962,1.604 2.672,2.894c0.711,1.291 1.066,3.019 1.066,5.185l-0,17.969l-4.191,-0l0,-3.693l-0.213,-0c-0.284,0.591 -0.757,1.225 -1.42,1.899c-0.663,0.675 -1.545,1.249 -2.646,1.723c-1.101,0.473 -2.444,0.71 -4.03,0.71Zm0.639,-3.764c1.657,-0 3.057,-0.326 4.199,-0.977c1.142,-0.651 2.006,-1.491 2.592,-2.521c0.586,-1.03 0.879,-2.113 0.879,-3.249l0,-3.836c-0.177,0.213 -0.565,0.406 -1.163,0.577c-0.597,0.172 -1.284,0.32 -2.059,0.444c-0.776,0.125 -1.527,0.231 -2.255,0.32c-0.728,0.089 -1.317,0.163 -1.767,0.222c-1.089,0.142 -2.104,0.37 -3.045,0.683c-0.941,0.314 -1.699,0.782 -2.273,1.403c-0.574,0.622 -0.861,1.465 -0.861,2.53c-0,1.456 0.542,2.554 1.625,3.294c1.083,0.74 2.459,1.11 4.128,1.11Z" style="fill:#888c90;fill-rule:nonzero;"/><path d="M809.225,637.583l0,16.407l-4.19,-0l0,-27.273l4.048,-0l0,4.261l0.356,0c0.639,-1.385 1.609,-2.5 2.911,-3.347c1.303,-0.846 2.983,-1.269 5.043,-1.269c1.847,-0 3.462,0.376 4.847,1.127c1.385,0.752 2.462,1.888 3.232,3.409c0.769,1.522 1.154,3.442 1.154,5.762l0,17.33l-4.19,-0l-0,-17.046c-0,-2.142 -0.557,-3.814 -1.669,-5.016c-1.113,-1.201 -2.64,-1.802 -4.581,-1.802c-1.338,0 -2.531,0.29 -3.578,0.87c-1.048,0.58 -1.873,1.426 -2.477,2.539c-0.604,1.113 -0.906,2.462 -0.906,4.048Z" style="fill:#888c90;fill-rule:nonzero;"/><path d="M845.731,654.558c-2.628,-0 -4.892,-0.583 -6.791,-1.749c-1.9,-1.166 -3.362,-2.8 -4.386,-4.901c-1.024,-2.101 -1.536,-4.548 -1.536,-7.342c0,-2.793 0.512,-5.258 1.536,-7.395c1.024,-2.136 2.456,-3.805 4.297,-5.007c1.84,-1.201 3.992,-1.802 6.454,-1.802c1.42,-0 2.823,0.237 4.208,0.71c1.385,0.474 2.646,1.24 3.782,2.299c1.136,1.06 2.042,2.46 2.717,4.2c0.674,1.74 1.012,3.882 1.012,6.427l-0,1.776l-21.023,-0l0,-3.622l16.761,-0c0,-1.539 -0.304,-2.912 -0.914,-4.12c-0.61,-1.207 -1.474,-2.16 -2.592,-2.858c-1.119,-0.699 -2.436,-1.048 -3.951,-1.048c-1.669,0 -3.11,0.411 -4.323,1.234c-1.214,0.823 -2.146,1.891 -2.797,3.205c-0.651,1.314 -0.977,2.723 -0.977,4.226l0,2.415c0,2.059 0.358,3.802 1.075,5.229c0.716,1.426 1.713,2.509 2.991,3.249c1.279,0.74 2.764,1.11 4.457,1.11c1.101,-0 2.098,-0.157 2.992,-0.471c0.894,-0.314 1.666,-0.787 2.317,-1.42c0.651,-0.634 1.154,-1.424 1.509,-2.371l4.049,1.137c-0.426,1.373 -1.143,2.577 -2.149,3.613c-1.006,1.036 -2.249,1.841 -3.728,2.415c-1.48,0.574 -3.143,0.861 -4.99,0.861Z" style="fill:#888c90;fill-rule:nonzero;"/><path d="M889.268,653.99l-11.221,-0l-0,-36.364l11.718,0c3.528,0 6.546,0.725 9.056,2.175c2.509,1.45 4.433,3.528 5.77,6.232c1.338,2.705 2.007,5.94 2.007,9.704c-0,3.788 -0.675,7.046 -2.024,9.774c-1.35,2.729 -3.315,4.824 -5.895,6.286c-2.581,1.462 -5.718,2.193 -9.411,2.193Zm-6.818,-3.907l6.534,0c3.007,0 5.498,-0.58 7.475,-1.74c1.977,-1.16 3.451,-2.811 4.421,-4.953c0.971,-2.143 1.456,-4.694 1.456,-7.653c0,-2.936 -0.479,-5.466 -1.438,-7.591c-0.959,-2.124 -2.391,-3.758 -4.297,-4.9c-1.906,-1.143 -4.279,-1.714 -7.12,-1.714l-7.031,0l-0,28.551Z" style="fill:#888c90;fill-rule:nonzero;"/><path d="M924.495,654.558c-2.462,-0 -4.619,-0.586 -6.472,-1.758c-1.852,-1.172 -3.296,-2.811 -4.332,-4.918c-1.036,-2.107 -1.554,-4.569 -1.554,-7.387c0,-2.841 0.518,-5.32 1.554,-7.439c1.036,-2.119 2.48,-3.764 4.332,-4.936c1.853,-1.172 4.01,-1.758 6.472,-1.758c2.463,-0 4.62,0.586 6.472,1.758c1.853,1.172 3.297,2.817 4.333,4.936c1.036,2.119 1.553,4.598 1.553,7.439c0,2.818 -0.517,5.28 -1.553,7.387c-1.036,2.107 -2.48,3.746 -4.333,4.918c-1.852,1.172 -4.009,1.758 -6.472,1.758Zm0,-3.764c1.871,-0 3.41,-0.48 4.617,-1.439c1.207,-0.958 2.101,-2.219 2.681,-3.781c0.58,-1.563 0.87,-3.256 0.87,-5.079c0,-1.823 -0.29,-3.521 -0.87,-5.095c-0.58,-1.575 -1.474,-2.847 -2.681,-3.818c-1.207,-0.971 -2.746,-1.456 -4.617,-1.456c-1.87,0 -3.409,0.485 -4.616,1.456c-1.207,0.971 -2.101,2.243 -2.681,3.818c-0.58,1.574 -0.87,3.272 -0.87,5.095c-0,1.823 0.29,3.516 0.87,5.079c0.58,1.562 1.474,2.823 2.681,3.781c1.207,0.959 2.746,1.439 4.616,1.439Z" style="fill:#888c90;fill-rule:nonzero;"/><path d="M954.68,654.558c-2.628,-0 -4.892,-0.583 -6.791,-1.749c-1.9,-1.166 -3.362,-2.8 -4.386,-4.901c-1.024,-2.101 -1.536,-4.548 -1.536,-7.342c0,-2.793 0.512,-5.258 1.536,-7.395c1.024,-2.136 2.456,-3.805 4.297,-5.007c1.84,-1.201 3.992,-1.802 6.454,-1.802c1.42,-0 2.823,0.237 4.208,0.71c1.385,0.474 2.646,1.24 3.782,2.299c1.136,1.06 2.042,2.46 2.717,4.2c0.674,1.74 1.012,3.882 1.012,6.427l-0,1.776l-21.023,-0l-0,-3.622l16.761,-0c0,-1.539 -0.304,-2.912 -0.914,-4.12c-0.61,-1.207 -1.474,-2.16 -2.592,-2.858c-1.119,-0.699 -2.436,-1.048 -3.951,-1.048c-1.669,0 -3.11,0.411 -4.324,1.234c-1.213,0.823 -2.145,1.891 -2.796,3.205c-0.651,1.314 -0.977,2.723 -0.977,4.226l0,2.415c0,2.059 0.358,3.802 1.075,5.229c0.716,1.426 1.713,2.509 2.991,3.249c1.279,0.74 2.764,1.11 4.457,1.11c1.101,-0 2.098,-0.157 2.992,-0.471c0.894,-0.314 1.666,-0.787 2.317,-1.42c0.651,-0.634 1.154,-1.424 1.509,-2.371l4.049,1.137c-0.427,1.373 -1.143,2.577 -2.149,3.613c-1.006,1.036 -2.249,1.841 -3.729,2.415c-1.479,0.574 -3.142,0.861 -4.989,0.861Z" style="fill:#888c90;fill-rule:nonzero;"/><path d="M661.526,880.986c-2.628,0 -4.891,-0.583 -6.791,-1.749c-1.9,-1.166 -3.362,-2.799 -4.386,-4.9c-1.024,-2.101 -1.536,-4.549 -1.536,-7.342c0,-2.794 0.512,-5.259 1.536,-7.395c1.024,-2.137 2.456,-3.806 4.297,-5.008c1.841,-1.201 3.992,-1.802 6.454,-1.802c1.421,0 2.823,0.237 4.208,0.71c1.385,0.474 2.646,1.24 3.782,2.3c1.137,1.059 2.042,2.459 2.717,4.199c0.675,1.74 1.012,3.883 1.012,6.428l-0,1.775l-21.023,0l0,-3.622l16.762,-0c-0,-1.539 -0.305,-2.912 -0.915,-4.119c-0.609,-1.208 -1.474,-2.161 -2.592,-2.859c-1.119,-0.698 -2.436,-1.048 -3.951,-1.048c-1.669,0 -3.11,0.412 -4.323,1.234c-1.214,0.823 -2.146,1.891 -2.797,3.205c-0.651,1.314 -0.976,2.723 -0.976,4.226l-0,2.415c-0,2.06 0.358,3.803 1.074,5.229c0.716,1.426 1.713,2.509 2.992,3.249c1.278,0.74 2.764,1.11 4.456,1.11c1.101,0 2.098,-0.157 2.992,-0.47c0.894,-0.314 1.666,-0.788 2.317,-1.421c0.651,-0.633 1.154,-1.423 1.509,-2.37l4.049,1.136c-0.426,1.373 -1.142,2.578 -2.149,3.613c-1.006,1.036 -2.249,1.841 -3.728,2.415c-1.48,0.574 -3.143,0.861 -4.99,0.861Z" style="fill:#888c90;fill-rule:nonzero;"/><path d="M682.265,880.702c-0.876,0 -1.628,-0.314 -2.255,-0.941c-0.627,-0.627 -0.941,-1.379 -0.941,-2.255c-0,-0.876 0.314,-1.627 0.941,-2.255c0.627,-0.627 1.379,-0.941 2.255,-0.941c0.876,0 1.628,0.314 2.255,0.941c0.627,0.628 0.941,1.379 0.941,2.255c-0,0.58 -0.145,1.113 -0.435,1.598c-0.29,0.485 -0.675,0.873 -1.154,1.163c-0.48,0.29 -1.015,0.435 -1.607,0.435Z" style="fill:#888c90;fill-rule:nonzero;"/><path d="M703.998,891.214c-2.024,-0 -3.764,-0.258 -5.22,-0.773c-1.456,-0.515 -2.667,-1.189 -3.631,-2.024c-0.965,-0.835 -1.731,-1.725 -2.3,-2.672l3.338,-2.344c0.379,0.497 0.859,1.068 1.439,1.713c0.58,0.646 1.376,1.208 2.388,1.687c1.012,0.48 2.341,0.719 3.986,0.719c2.202,0 4.019,-0.532 5.451,-1.598c1.432,-1.065 2.148,-2.734 2.148,-5.007l0,-5.54l-0.355,0c-0.308,0.498 -0.743,1.11 -1.305,1.838c-0.562,0.728 -1.367,1.373 -2.415,1.936c-1.047,0.562 -2.459,0.843 -4.234,0.843c-2.202,-0 -4.176,-0.521 -5.922,-1.563c-1.746,-1.041 -3.125,-2.556 -4.137,-4.545c-1.012,-1.989 -1.518,-4.403 -1.518,-7.244c-0,-2.794 0.491,-5.229 1.474,-7.307c0.982,-2.077 2.349,-3.687 4.101,-4.829c1.752,-1.143 3.776,-1.714 6.073,-1.714c1.775,0 3.187,0.293 4.234,0.879c1.048,0.586 1.853,1.249 2.415,1.989c0.563,0.74 0.998,1.346 1.305,1.82l0.426,-0l0,-4.333l4.049,0l-0,28.054c-0,2.344 -0.53,4.253 -1.589,5.727c-1.06,1.473 -2.48,2.556 -4.262,3.249c-1.781,0.692 -3.761,1.039 -5.939,1.039Zm-0.142,-14.986c1.681,-0 3.101,-0.385 4.261,-1.154c1.16,-0.77 2.042,-1.877 2.646,-3.321c0.604,-1.444 0.905,-3.172 0.905,-5.184c0,-1.965 -0.296,-3.699 -0.887,-5.203c-0.592,-1.503 -1.468,-2.681 -2.628,-3.533c-1.16,-0.852 -2.593,-1.279 -4.297,-1.279c-1.776,0 -3.252,0.45 -4.43,1.35c-1.178,0.899 -2.06,2.107 -2.646,3.622c-0.586,1.515 -0.879,3.196 -0.879,5.043c0,1.894 0.299,3.566 0.897,5.016c0.598,1.45 1.486,2.586 2.663,3.409c1.178,0.822 2.643,1.234 4.395,1.234Z" style="fill:#888c90;fill-rule:nonzero;"/><path d="M726.512,880.702c-0.876,0 -1.627,-0.314 -2.255,-0.941c-0.627,-0.627 -0.941,-1.379 -0.941,-2.255c0,-0.876 0.314,-1.627 0.941,-2.255c0.628,-0.627 1.379,-0.941 2.255,-0.941c0.876,0 1.628,0.314 2.255,0.941c0.628,0.628 0.941,1.379 0.941,2.255c0,0.58 -0.145,1.113 -0.435,1.598c-0.29,0.485 -0.675,0.873 -1.154,1.163c-0.479,0.29 -1.015,0.435 -1.607,0.435Z" style="fill:#888c90;fill-rule:nonzero;"/><path d="M751.299,853.145l4.19,0l0,29.262c0,1.681 -0.287,3.137 -0.861,4.368c-0.574,1.231 -1.438,2.184 -2.592,2.858c-1.154,0.675 -2.607,1.012 -4.359,1.012l-0.852,0l-0,-3.906l0.781,0c1.278,0 2.213,-0.376 2.805,-1.127c0.592,-0.752 0.888,-1.82 0.888,-3.205l0,-29.262Zm2.06,-4.545c-0.817,-0 -1.518,-0.278 -2.104,-0.835c-0.586,-0.556 -0.879,-1.225 -0.879,-2.006c-0,-0.781 0.293,-1.45 0.879,-2.006c0.586,-0.557 1.287,-0.835 2.104,-0.835c0.817,0 1.518,0.278 2.104,0.835c0.586,0.556 0.879,1.225 0.879,2.006c-0,0.781 -0.293,1.45 -0.879,2.006c-0.586,0.557 -1.287,0.835 -2.104,0.835Z" style="fill:#888c90;fill-rule:nonzero;"/><path d="M771.185,881.057c-1.728,0 -3.296,-0.328 -4.705,-0.985c-1.408,-0.657 -2.527,-1.61 -3.356,-2.859c-0.828,-1.249 -1.242,-2.761 -1.242,-4.536c-0,-1.563 0.307,-2.832 0.923,-3.809c0.615,-0.977 1.438,-1.743 2.468,-2.299c1.03,-0.557 2.169,-0.974 3.418,-1.252c1.249,-0.278 2.506,-0.5 3.773,-0.666c1.657,-0.213 3.004,-0.376 4.039,-0.488c1.036,-0.113 1.794,-0.305 2.273,-0.577c0.479,-0.273 0.719,-0.746 0.719,-1.421l0,-0.142c0,-1.752 -0.476,-3.113 -1.429,-4.084c-0.953,-0.97 -2.394,-1.456 -4.324,-1.456c-2,0 -3.569,0.438 -4.705,1.314c-1.136,0.876 -1.935,1.811 -2.397,2.806l-3.977,-1.421c0.71,-1.657 1.66,-2.95 2.85,-3.879c1.189,-0.93 2.491,-1.581 3.906,-1.954c1.414,-0.372 2.808,-0.559 4.181,-0.559c0.876,0 1.885,0.104 3.028,0.311c1.142,0.207 2.249,0.63 3.32,1.269c1.071,0.64 1.962,1.604 2.672,2.895c0.71,1.29 1.066,3.018 1.066,5.184l-0,17.969l-4.191,0l0,-3.693l-0.213,-0c-0.284,0.592 -0.757,1.225 -1.42,1.9c-0.663,0.674 -1.545,1.249 -2.646,1.722c-1.101,0.474 -2.444,0.71 -4.031,0.71Zm0.64,-3.764c1.657,0 3.057,-0.325 4.199,-0.977c1.142,-0.651 2.006,-1.491 2.592,-2.521c0.586,-1.03 0.879,-2.113 0.879,-3.249l0,-3.835c-0.177,0.213 -0.565,0.405 -1.163,0.577c-0.598,0.171 -1.284,0.319 -2.059,0.444c-0.776,0.124 -1.527,0.23 -2.255,0.319c-0.728,0.089 -1.317,0.163 -1.767,0.222c-1.089,0.142 -2.104,0.37 -3.045,0.684c-0.941,0.313 -1.699,0.781 -2.273,1.402c-0.574,0.622 -0.861,1.465 -0.861,2.531c-0,1.456 0.541,2.554 1.625,3.293c1.083,0.74 2.459,1.11 4.128,1.11Z" style="fill:#888c90;fill-rule:nonzero;"/><path d="M795.546,864.012l0,16.406l-4.19,0l-0,-27.273l4.048,0l0,4.262l0.355,-0c0.64,-1.385 1.61,-2.501 2.912,-3.347c1.302,-0.847 2.983,-1.27 5.043,-1.27c1.847,0 3.462,0.376 4.847,1.128c1.385,0.751 2.462,1.888 3.232,3.409c0.769,1.521 1.154,3.441 1.154,5.761l-0,17.33l-4.19,0l-0,-17.045c-0,-2.143 -0.557,-3.815 -1.669,-5.016c-1.113,-1.202 -2.64,-1.803 -4.581,-1.803c-1.338,0 -2.531,0.29 -3.578,0.87c-1.048,0.58 -1.873,1.427 -2.477,2.539c-0.604,1.113 -0.906,2.463 -0.906,4.049Z" style="fill:#888c90;fill-rule:nonzero;"/><path d="M832.052,880.986c-2.628,0 -4.892,-0.583 -6.792,-1.749c-1.899,-1.166 -3.361,-2.799 -4.385,-4.9c-1.024,-2.101 -1.536,-4.549 -1.536,-7.342c-0,-2.794 0.512,-5.259 1.536,-7.395c1.024,-2.137 2.456,-3.806 4.297,-5.008c1.84,-1.201 3.992,-1.802 6.454,-1.802c1.42,0 2.823,0.237 4.208,0.71c1.385,0.474 2.646,1.24 3.782,2.3c1.136,1.059 2.042,2.459 2.717,4.199c0.674,1.74 1.012,3.883 1.012,6.428l-0,1.775l-21.023,0l-0,-3.622l16.761,-0c0,-1.539 -0.305,-2.912 -0.914,-4.119c-0.61,-1.208 -1.474,-2.161 -2.592,-2.859c-1.119,-0.698 -2.436,-1.048 -3.951,-1.048c-1.669,0 -3.11,0.412 -4.324,1.234c-1.213,0.823 -2.145,1.891 -2.796,3.205c-0.651,1.314 -0.977,2.723 -0.977,4.226l0,2.415c0,2.06 0.358,3.803 1.075,5.229c0.716,1.426 1.713,2.509 2.991,3.249c1.279,0.74 2.764,1.11 4.457,1.11c1.101,0 2.098,-0.157 2.992,-0.47c0.894,-0.314 1.666,-0.788 2.317,-1.421c0.651,-0.633 1.154,-1.423 1.509,-2.37l4.049,1.136c-0.427,1.373 -1.143,2.578 -2.149,3.613c-1.006,1.036 -2.249,1.841 -3.729,2.415c-1.479,0.574 -3.142,0.861 -4.989,0.861Z" style="fill:#888c90;fill-rule:nonzero;"/><path d="M852.791,880.702c-0.876,0 -1.628,-0.314 -2.255,-0.941c-0.628,-0.627 -0.941,-1.379 -0.941,-2.255c-0,-0.876 0.313,-1.627 0.941,-2.255c0.627,-0.627 1.379,-0.941 2.255,-0.941c0.876,0 1.627,0.314 2.255,0.941c0.627,0.628 0.941,1.379 0.941,2.255c-0,0.58 -0.145,1.113 -0.435,1.598c-0.29,0.485 -0.675,0.873 -1.154,1.163c-0.48,0.29 -1.015,0.435 -1.607,0.435Z" style="fill:#888c90;fill-rule:nonzero;"/><path d="M873.813,880.986c-2.272,0 -4.279,-0.577 -6.019,-1.731c-1.74,-1.154 -3.101,-2.788 -4.084,-4.901c-0.982,-2.112 -1.473,-4.613 -1.473,-7.501c-0,-2.865 0.491,-5.351 1.473,-7.458c0.983,-2.107 2.35,-3.734 4.102,-4.883c1.752,-1.148 3.776,-1.722 6.072,-1.722c1.776,0 3.182,0.293 4.217,0.879c1.036,0.586 1.829,1.249 2.38,1.989c0.55,0.74 0.979,1.346 1.287,1.82l0.355,-0l0,-13.424l4.19,0l0,36.364l-4.048,0l0,-4.19l-0.497,-0c-0.308,0.497 -0.746,1.121 -1.314,1.873c-0.568,0.752 -1.379,1.42 -2.432,2.006c-1.054,0.586 -2.457,0.879 -4.209,0.879Zm0.569,-3.764c1.68,0 3.101,-0.441 4.261,-1.323c1.16,-0.882 2.042,-2.107 2.646,-3.675c0.603,-1.569 0.905,-3.383 0.905,-5.442c0,-2.036 -0.296,-3.821 -0.888,-5.354c-0.592,-1.533 -1.467,-2.728 -2.628,-3.586c-1.16,-0.859 -2.592,-1.288 -4.296,-1.288c-1.776,0 -3.253,0.453 -4.43,1.359c-1.178,0.905 -2.06,2.13 -2.646,3.675c-0.586,1.545 -0.879,3.276 -0.879,5.194c0,1.941 0.299,3.702 0.897,5.282c0.597,1.58 1.485,2.835 2.663,3.764c1.178,0.929 2.643,1.394 4.395,1.394Z" style="fill:#888c90;fill-rule:nonzero;"/><path d="M905.632,880.986c-2.462,0 -4.62,-0.586 -6.472,-1.758c-1.853,-1.171 -3.297,-2.811 -4.333,-4.918c-1.035,-2.107 -1.553,-4.569 -1.553,-7.386c-0,-2.841 0.518,-5.321 1.553,-7.44c1.036,-2.119 2.48,-3.764 4.333,-4.936c1.852,-1.172 4.01,-1.758 6.472,-1.758c2.462,0 4.619,0.586 6.472,1.758c1.852,1.172 3.296,2.817 4.332,4.936c1.036,2.119 1.554,4.599 1.554,7.44c-0,2.817 -0.518,5.279 -1.554,7.386c-1.036,2.107 -2.48,3.747 -4.332,4.918c-1.853,1.172 -4.01,1.758 -6.472,1.758Zm-0,-3.764c1.87,0 3.409,-0.479 4.616,-1.438c1.208,-0.959 2.101,-2.22 2.681,-3.782c0.58,-1.563 0.87,-3.255 0.87,-5.078c0,-1.823 -0.29,-3.522 -0.87,-5.096c-0.58,-1.574 -1.473,-2.847 -2.681,-3.818c-1.207,-0.97 -2.746,-1.456 -4.616,-1.456c-1.871,0 -3.409,0.486 -4.617,1.456c-1.207,0.971 -2.101,2.244 -2.681,3.818c-0.58,1.574 -0.87,3.273 -0.87,5.096c0,1.823 0.29,3.515 0.87,5.078c0.58,1.562 1.474,2.823 2.681,3.782c1.208,0.959 2.746,1.438 4.617,1.438Z" style="fill:#888c90;fill-rule:nonzero;"/><path d="M935.816,880.986c-2.628,0 -4.891,-0.583 -6.791,-1.749c-1.9,-1.166 -3.362,-2.799 -4.386,-4.9c-1.024,-2.101 -1.536,-4.549 -1.536,-7.342c0,-2.794 0.512,-5.259 1.536,-7.395c1.024,-2.137 2.456,-3.806 4.297,-5.008c1.841,-1.201 3.992,-1.802 6.454,-1.802c1.421,0 2.823,0.237 4.208,0.71c1.385,0.474 2.646,1.24 3.782,2.3c1.137,1.059 2.042,2.459 2.717,4.199c0.675,1.74 1.012,3.883 1.012,6.428l-0,1.775l-21.023,0l0,-3.622l16.762,-0c-0,-1.539 -0.305,-2.912 -0.915,-4.119c-0.609,-1.208 -1.474,-2.161 -2.592,-2.859c-1.119,-0.698 -2.436,-1.048 -3.951,-1.048c-1.669,0 -3.11,0.412 -4.323,1.234c-1.214,0.823 -2.146,1.891 -2.797,3.205c-0.651,1.314 -0.976,2.723 -0.976,4.226l-0,2.415c-0,2.06 0.358,3.803 1.074,5.229c0.716,1.426 1.713,2.509 2.992,3.249c1.278,0.74 2.764,1.11 4.456,1.11c1.101,0 2.098,-0.157 2.992,-0.47c0.894,-0.314 1.666,-0.788 2.317,-1.421c0.651,-0.633 1.154,-1.423 1.51,-2.37l4.048,1.136c-0.426,1.373 -1.142,2.578 -2.149,3.613c-1.006,1.036 -2.249,1.841 -3.728,2.415c-1.48,0.574 -3.143,0.861 -4.99,0.861Z" style="fill:#888c90;fill-rule:nonzero;"/><path d="M974.453,890.006c-3.622,0 -6.824,-0.494 -9.606,-1.482c-2.782,-0.989 -5.12,-2.442 -7.014,-4.359c-1.894,-1.918 -3.326,-4.268 -4.296,-7.05c-0.971,-2.781 -1.456,-5.965 -1.456,-9.552c-0,-3.468 0.494,-6.57 1.482,-9.304c0.989,-2.734 2.427,-5.057 4.315,-6.969c1.888,-1.912 4.184,-3.371 6.889,-4.377c2.705,-1.006 5.768,-1.509 9.189,-1.509c3.326,-0 6.241,0.541 8.744,1.624c2.504,1.084 4.599,2.545 6.286,4.386c1.687,1.841 2.953,3.909 3.799,6.206c0.847,2.296 1.27,4.664 1.27,7.102c0,1.716 -0.083,3.456 -0.249,5.22c-0.165,1.764 -0.514,3.383 -1.047,4.856c-0.533,1.474 -1.353,2.661 -2.459,3.56c-1.107,0.9 -2.602,1.35 -4.484,1.35c-0.828,-0 -1.74,-0.13 -2.734,-0.391c-0.994,-0.26 -1.876,-0.692 -2.646,-1.296c-0.769,-0.604 -1.225,-1.414 -1.367,-2.432l-0.213,-0c-0.284,0.686 -0.719,1.337 -1.305,1.953c-0.586,0.615 -1.349,1.106 -2.29,1.473c-0.941,0.367 -2.087,0.527 -3.436,0.48c-1.539,-0.059 -2.894,-0.406 -4.066,-1.039c-1.172,-0.633 -2.152,-1.497 -2.939,-2.592c-0.787,-1.095 -1.379,-2.368 -1.775,-3.818c-0.397,-1.45 -0.595,-3.015 -0.595,-4.696c-0,-1.598 0.237,-3.06 0.71,-4.386c0.474,-1.326 1.133,-2.486 1.98,-3.48c0.846,-0.994 1.841,-1.79 2.983,-2.388c1.142,-0.598 2.376,-0.968 3.702,-1.11c1.184,-0.118 2.261,-0.068 3.231,0.151c0.971,0.219 1.77,0.545 2.397,0.977c0.628,0.432 1.024,0.908 1.19,1.429l0.213,0l0,-1.989l3.764,0l0,16.052c0,0.994 0.279,1.87 0.835,2.627c0.556,0.758 1.367,1.137 2.432,1.137c1.208,-0 2.134,-0.415 2.779,-1.243c0.645,-0.829 1.089,-2.107 1.332,-3.835c0.242,-1.729 0.364,-3.942 0.364,-6.641c-0,-1.586 -0.216,-3.152 -0.648,-4.696c-0.432,-1.545 -1.083,-2.992 -1.953,-4.342c-0.87,-1.349 -1.968,-2.539 -3.294,-3.569c-1.326,-1.029 -2.879,-1.837 -4.661,-2.423c-1.781,-0.586 -3.803,-0.879 -6.064,-0.879c-2.781,-0 -5.27,0.429 -7.466,1.287c-2.196,0.858 -4.06,2.107 -5.593,3.747c-1.533,1.639 -2.699,3.628 -3.498,5.966c-0.799,2.337 -1.198,4.992 -1.198,7.963c-0,3.018 0.399,5.7 1.198,8.043c0.799,2.344 1.983,4.321 3.551,5.931c1.569,1.61 3.513,2.832 5.833,3.666c2.32,0.835 4.995,1.252 8.026,1.252c1.302,0 2.586,-0.124 3.853,-0.373c1.266,-0.248 2.385,-0.521 3.356,-0.817c0.97,-0.296 1.669,-0.515 2.095,-0.657l0.994,3.267c-0.734,0.308 -1.69,0.616 -2.867,0.924c-1.178,0.308 -2.433,0.562 -3.765,0.763c-1.331,0.202 -2.601,0.302 -3.808,0.302Zm-2.06,-14.133c1.586,-0 2.871,-0.32 3.853,-0.959c0.983,-0.639 1.699,-1.604 2.148,-2.894c0.45,-1.291 0.675,-2.918 0.675,-4.883c0,-1.989 -0.248,-3.54 -0.746,-4.652c-0.497,-1.113 -1.231,-1.894 -2.201,-2.344c-0.971,-0.45 -2.166,-0.675 -3.587,-0.675c-1.349,0 -2.5,0.352 -3.453,1.057c-0.953,0.704 -1.681,1.639 -2.184,2.805c-0.503,1.166 -0.755,2.436 -0.755,3.809c0,1.515 0.201,2.938 0.604,4.27c0.402,1.332 1.059,2.409 1.971,3.232c0.911,0.822 2.136,1.234 3.675,1.234Z" style="fill:#888c90;fill-rule:nonzero;"/><path d="M1011.31,891.214c-2.025,-0 -3.765,-0.258 -5.221,-0.773c-1.456,-0.515 -2.666,-1.189 -3.631,-2.024c-0.964,-0.835 -1.731,-1.725 -2.299,-2.672l3.338,-2.344c0.379,0.497 0.858,1.068 1.438,1.713c0.58,0.646 1.376,1.208 2.388,1.687c1.012,0.48 2.341,0.719 3.987,0.719c2.201,0 4.018,-0.532 5.451,-1.598c1.432,-1.065 2.148,-2.734 2.148,-5.007l-0,-5.54l-0.355,0c-0.308,0.498 -0.743,1.11 -1.305,1.838c-0.562,0.728 -1.367,1.373 -2.415,1.936c-1.048,0.562 -2.459,0.843 -4.235,0.843c-2.201,-0 -4.175,-0.521 -5.921,-1.563c-1.746,-1.041 -3.125,-2.556 -4.137,-4.545c-1.012,-1.989 -1.518,-4.403 -1.518,-7.244c-0,-2.794 0.491,-5.229 1.473,-7.307c0.983,-2.077 2.35,-3.687 4.102,-4.829c1.752,-1.143 3.776,-1.714 6.072,-1.714c1.776,0 3.187,0.293 4.235,0.879c1.048,0.586 1.853,1.249 2.415,1.989c0.562,0.74 0.997,1.346 1.305,1.82l0.426,-0l0,-4.333l4.048,0l0,28.054c0,2.344 -0.529,4.253 -1.589,5.727c-1.059,1.473 -2.48,2.556 -4.261,3.249c-1.782,0.692 -3.761,1.039 -5.939,1.039Zm-0.143,-14.986c1.681,-0 3.102,-0.385 4.262,-1.154c1.16,-0.77 2.042,-1.877 2.645,-3.321c0.604,-1.444 0.906,-3.172 0.906,-5.184c0,-1.965 -0.296,-3.699 -0.888,-5.203c-0.592,-1.503 -1.468,-2.681 -2.628,-3.533c-1.16,-0.852 -2.592,-1.279 -4.297,-1.279c-1.775,0 -3.252,0.45 -4.43,1.35c-1.177,0.899 -2.059,2.107 -2.645,3.622c-0.586,1.515 -0.879,3.196 -0.879,5.043c-0,1.894 0.299,3.566 0.897,5.016c0.597,1.45 1.485,2.586 2.663,3.409c1.178,0.822 2.643,1.234 4.394,1.234Z" style="fill:#888c90;fill-rule:nonzero;"/><path d="M1030.77,880.418l-0,-27.273l4.048,0l0,4.262l0.355,-0c0.568,-1.456 1.486,-2.59 2.752,-3.401c1.267,-0.81 2.788,-1.216 4.564,-1.216c1.799,0 3.299,0.406 4.501,1.216c1.201,0.811 2.139,1.945 2.814,3.401l0.284,-0c0.698,-1.409 1.746,-2.531 3.143,-3.365c1.397,-0.835 3.071,-1.252 5.025,-1.252c2.438,0 4.433,0.761 5.983,2.282c1.551,1.521 2.326,3.885 2.326,7.093l0,18.253l-4.19,0l-0,-18.253c-0,-2.012 -0.55,-3.45 -1.651,-4.314c-1.101,-0.865 -2.397,-1.297 -3.889,-1.297c-1.917,0 -3.403,0.577 -4.457,1.732c-1.053,1.154 -1.58,2.613 -1.58,4.376l0,17.756l-4.261,0l-0,-18.679c-0,-1.551 -0.503,-2.802 -1.509,-3.755c-1.007,-0.953 -2.303,-1.43 -3.889,-1.43c-1.089,0 -2.104,0.29 -3.045,0.87c-0.941,0.58 -1.699,1.382 -2.273,2.406c-0.574,1.024 -0.861,2.205 -0.861,3.543l0,17.045l-4.19,0Z" style="fill:#888c90;fill-rule:nonzero;"/><path d="M1082.27,881.057c-1.728,0 -3.296,-0.328 -4.705,-0.985c-1.409,-0.657 -2.527,-1.61 -3.356,-2.859c-0.828,-1.249 -1.243,-2.761 -1.243,-4.536c0,-1.563 0.308,-2.832 0.924,-3.809c0.615,-0.977 1.438,-1.743 2.468,-2.299c1.029,-0.557 2.169,-0.974 3.418,-1.252c1.248,-0.278 2.506,-0.5 3.773,-0.666c1.657,-0.213 3.003,-0.376 4.039,-0.488c1.036,-0.113 1.793,-0.305 2.273,-0.577c0.479,-0.273 0.719,-0.746 0.719,-1.421l-0,-0.142c-0,-1.752 -0.476,-3.113 -1.429,-4.084c-0.953,-0.97 -2.394,-1.456 -4.324,-1.456c-2,0 -3.569,0.438 -4.705,1.314c-1.136,0.876 -1.936,1.811 -2.397,2.806l-3.977,-1.421c0.71,-1.657 1.66,-2.95 2.849,-3.879c1.19,-0.93 2.492,-1.581 3.907,-1.954c1.414,-0.372 2.808,-0.559 4.181,-0.559c0.876,0 1.885,0.104 3.027,0.311c1.143,0.207 2.249,0.63 3.321,1.269c1.071,0.64 1.962,1.604 2.672,2.895c0.71,1.29 1.065,3.018 1.065,5.184l0,17.969l-4.19,0l-0,-3.693l-0.213,-0c-0.284,0.592 -0.758,1.225 -1.421,1.9c-0.662,0.674 -1.544,1.249 -2.645,1.722c-1.101,0.474 -2.445,0.71 -4.031,0.71Zm0.64,-3.764c1.657,0 3.056,-0.325 4.199,-0.977c1.142,-0.651 2.006,-1.491 2.592,-2.521c0.586,-1.03 0.879,-2.113 0.879,-3.249l-0,-3.835c-0.178,0.213 -0.565,0.405 -1.163,0.577c-0.598,0.171 -1.284,0.319 -2.06,0.444c-0.775,0.124 -1.527,0.23 -2.255,0.319c-0.728,0.089 -1.317,0.163 -1.766,0.222c-1.089,0.142 -2.104,0.37 -3.045,0.684c-0.942,0.313 -1.699,0.781 -2.273,1.402c-0.574,0.622 -0.861,1.465 -0.861,2.531c-0,1.456 0.541,2.554 1.624,3.293c1.083,0.74 2.459,1.11 4.129,1.11Z" style="fill:#888c90;fill-rule:nonzero;"/><path d="M1102.44,880.418l-0,-27.273l4.19,0l0,27.273l-4.19,0Zm2.13,-31.818c-0.816,-0 -1.518,-0.278 -2.104,-0.835c-0.586,-0.556 -0.878,-1.225 -0.878,-2.006c-0,-0.781 0.292,-1.45 0.878,-2.006c0.586,-0.557 1.288,-0.835 2.104,-0.835c0.817,0 1.519,0.278 2.105,0.835c0.585,0.556 0.878,1.225 0.878,2.006c0,0.781 -0.293,1.45 -0.878,2.006c-0.586,0.557 -1.288,0.835 -2.105,0.835Z" style="fill:#888c90;fill-rule:nonzero;"/><rect x="1114.3" y="844.054" width="4.19" height="36.364" style="fill:#888c90;fill-rule:nonzero;"/><path d="M1129.21,880.702c-0.876,0 -1.627,-0.314 -2.255,-0.941c-0.627,-0.627 -0.941,-1.379 -0.941,-2.255c0,-0.876 0.314,-1.627 0.941,-2.255c0.628,-0.627 1.379,-0.941 2.255,-0.941c0.876,0 1.628,0.314 2.255,0.941c0.628,0.628 0.941,1.379 0.941,2.255c0,0.58 -0.145,1.113 -0.435,1.598c-0.29,0.485 -0.674,0.873 -1.154,1.163c-0.479,0.29 -1.015,0.435 -1.607,0.435Z" style="fill:#888c90;fill-rule:nonzero;"/><path d="M1151.02,880.986c-2.556,0 -4.758,-0.603 -6.605,-1.811c-1.846,-1.207 -3.267,-2.87 -4.261,-4.989c-0.994,-2.119 -1.492,-4.54 -1.492,-7.262c0,-2.77 0.512,-5.217 1.536,-7.342c1.024,-2.125 2.456,-3.788 4.297,-4.99c1.841,-1.201 3.992,-1.802 6.454,-1.802c1.918,0 3.646,0.355 5.185,1.066c1.539,0.71 2.799,1.704 3.782,2.982c0.982,1.279 1.592,2.77 1.829,4.475l-4.191,-0c-0.319,-1.243 -1.026,-2.347 -2.121,-3.312c-1.095,-0.964 -2.566,-1.447 -4.413,-1.447c-1.633,0 -3.062,0.424 -4.288,1.27c-1.225,0.846 -2.178,2.036 -2.858,3.569c-0.681,1.533 -1.021,3.329 -1.021,5.389c-0,2.107 0.334,3.941 1.003,5.504c0.669,1.562 1.616,2.776 2.841,3.64c1.225,0.864 2.666,1.296 4.323,1.296c1.089,0 2.078,-0.189 2.966,-0.568c0.887,-0.379 1.639,-0.923 2.255,-1.634c0.615,-0.71 1.053,-1.562 1.313,-2.556l4.191,-0c-0.237,1.609 -0.82,3.056 -1.749,4.341c-0.929,1.284 -2.154,2.302 -3.676,3.054c-1.521,0.751 -3.287,1.127 -5.3,1.127Z" style="fill:#888c90;fill-rule:nonzero;"/><path d="M1178.93,880.986c-2.462,0 -4.619,-0.586 -6.472,-1.758c-1.852,-1.171 -3.296,-2.811 -4.332,-4.918c-1.036,-2.107 -1.554,-4.569 -1.554,-7.386c0,-2.841 0.518,-5.321 1.554,-7.44c1.036,-2.119 2.48,-3.764 4.332,-4.936c1.853,-1.172 4.01,-1.758 6.472,-1.758c2.462,0 4.62,0.586 6.472,1.758c1.853,1.172 3.297,2.817 4.333,4.936c1.035,2.119 1.553,4.599 1.553,7.44c0,2.817 -0.518,5.279 -1.553,7.386c-1.036,2.107 -2.48,3.747 -4.333,4.918c-1.852,1.172 -4.01,1.758 -6.472,1.758Zm0,-3.764c1.871,0 3.409,-0.479 4.617,-1.438c1.207,-0.959 2.101,-2.22 2.681,-3.782c0.58,-1.563 0.87,-3.255 0.87,-5.078c-0,-1.823 -0.29,-3.522 -0.87,-5.096c-0.58,-1.574 -1.474,-2.847 -2.681,-3.818c-1.208,-0.97 -2.746,-1.456 -4.617,-1.456c-1.87,0 -3.409,0.486 -4.616,1.456c-1.208,0.971 -2.101,2.244 -2.681,3.818c-0.58,1.574 -0.87,3.273 -0.87,5.096c-0,1.823 0.29,3.515 0.87,5.078c0.58,1.562 1.473,2.823 2.681,3.782c1.207,0.959 2.746,1.438 4.616,1.438Z" style="fill:#888c90;fill-rule:nonzero;"/><path d="M1197.68,880.418l0,-27.273l4.049,0l-0,4.262l0.355,-0c0.568,-1.456 1.485,-2.59 2.752,-3.401c1.266,-0.81 2.788,-1.216 4.563,-1.216c1.799,0 3.3,0.406 4.501,1.216c1.202,0.811 2.14,1.945 2.814,3.401l0.285,-0c0.698,-1.409 1.746,-2.531 3.142,-3.365c1.397,-0.835 3.072,-1.252 5.025,-1.252c2.439,0 4.433,0.761 5.984,2.282c1.55,1.521 2.326,3.885 2.326,7.093l-0,18.253l-4.191,0l0,-18.253c0,-2.012 -0.55,-3.45 -1.651,-4.314c-1.101,-0.865 -2.397,-1.297 -3.888,-1.297c-1.918,0 -3.403,0.577 -4.457,1.732c-1.053,1.154 -1.58,2.613 -1.58,4.376l-0,17.756l-4.262,0l0,-18.679c0,-1.551 -0.503,-2.802 -1.509,-3.755c-1.006,-0.953 -2.302,-1.43 -3.888,-1.43c-1.089,0 -2.104,0.29 -3.045,0.87c-0.941,0.58 -1.699,1.382 -2.273,2.406c-0.574,1.024 -0.861,2.205 -0.861,3.543l-0,17.045l-4.191,0Z" style="fill:#888c90;fill-rule:nonzero;"/><path d="M661.526,1109.35c-2.628,0 -4.891,-0.583 -6.791,-1.749c-1.9,-1.166 -3.362,-2.799 -4.386,-4.9c-1.024,-2.101 -1.536,-4.549 -1.536,-7.342c0,-2.794 0.512,-5.259 1.536,-7.395c1.024,-2.137 2.456,-3.806 4.297,-5.008c1.841,-1.201 3.992,-1.802 6.454,-1.802c1.421,0 2.823,0.237 4.208,0.71c1.385,0.474 2.646,1.24 3.782,2.3c1.137,1.059 2.042,2.459 2.717,4.199c0.675,1.74 1.012,3.883 1.012,6.428l-0,1.775l-21.023,0l0,-3.622l16.762,0c-0,-1.539 -0.305,-2.912 -0.915,-4.119c-0.609,-1.208 -1.474,-2.161 -2.592,-2.859c-1.119,-0.698 -2.436,-1.048 -3.951,-1.048c-1.669,0 -3.11,0.412 -4.323,1.234c-1.214,0.823 -2.146,1.891 -2.797,3.205c-0.651,1.314 -0.976,2.723 -0.976,4.226l-0,2.415c-0,2.06 0.358,3.803 1.074,5.229c0.716,1.426 1.713,2.51 2.992,3.249c1.278,0.74 2.764,1.11 4.456,1.11c1.101,0 2.098,-0.157 2.992,-0.47c0.894,-0.314 1.666,-0.788 2.317,-1.421c0.651,-0.633 1.154,-1.423 1.509,-2.37l4.049,1.136c-0.426,1.373 -1.142,2.578 -2.149,3.613c-1.006,1.036 -2.249,1.841 -3.728,2.415c-1.48,0.574 -3.143,0.861 -4.99,0.861Z" style="fill:#888c90;fill-rule:nonzero;"/><path d="M682.265,1109.06c-0.876,0 -1.628,-0.314 -2.255,-0.941c-0.627,-0.627 -0.941,-1.379 -0.941,-2.255c-0,-0.876 0.314,-1.627 0.941,-2.255c0.627,-0.627 1.379,-0.941 2.255,-0.941c0.876,0 1.628,0.314 2.255,0.941c0.627,0.628 0.941,1.379 0.941,2.255c-0,0.58 -0.145,1.113 -0.435,1.598c-0.29,0.485 -0.675,0.873 -1.154,1.163c-0.48,0.29 -1.015,0.435 -1.607,0.435Z" style="fill:#888c90;fill-rule:nonzero;"/><path d="M703.998,1119.58c-2.024,-0 -3.764,-0.258 -5.22,-0.773c-1.456,-0.515 -2.667,-1.189 -3.631,-2.024c-0.965,-0.834 -1.731,-1.725 -2.3,-2.672l3.338,-2.344c0.379,0.497 0.859,1.068 1.439,1.713c0.58,0.646 1.376,1.208 2.388,1.687c1.012,0.48 2.341,0.719 3.986,0.719c2.202,0 4.019,-0.532 5.451,-1.598c1.432,-1.065 2.148,-2.734 2.148,-5.007l0,-5.54l-0.355,0c-0.308,0.498 -0.743,1.11 -1.305,1.838c-0.562,0.728 -1.367,1.373 -2.415,1.936c-1.047,0.562 -2.459,0.843 -4.234,0.843c-2.202,-0 -4.176,-0.521 -5.922,-1.563c-1.746,-1.041 -3.125,-2.556 -4.137,-4.545c-1.012,-1.989 -1.518,-4.403 -1.518,-7.244c-0,-2.794 0.491,-5.229 1.474,-7.307c0.982,-2.077 2.349,-3.687 4.101,-4.829c1.752,-1.143 3.776,-1.714 6.073,-1.714c1.775,0 3.187,0.293 4.234,0.879c1.048,0.586 1.853,1.249 2.415,1.989c0.563,0.74 0.998,1.346 1.305,1.82l0.426,-0l0,-4.333l4.049,0l-0,28.054c-0,2.344 -0.53,4.253 -1.589,5.727c-1.06,1.473 -2.48,2.556 -4.262,3.249c-1.781,0.692 -3.761,1.039 -5.939,1.039Zm-0.142,-14.986c1.681,-0 3.101,-0.385 4.261,-1.154c1.16,-0.77 2.042,-1.877 2.646,-3.321c0.604,-1.444 0.905,-3.172 0.905,-5.184c0,-1.965 -0.296,-3.699 -0.887,-5.203c-0.592,-1.503 -1.468,-2.681 -2.628,-3.533c-1.16,-0.852 -2.593,-1.279 -4.297,-1.279c-1.776,0 -3.252,0.45 -4.43,1.35c-1.178,0.899 -2.06,2.107 -2.646,3.622c-0.586,1.515 -0.879,3.196 -0.879,5.043c0,1.894 0.299,3.566 0.897,5.016c0.598,1.45 1.486,2.586 2.663,3.409c1.178,0.822 2.643,1.234 4.395,1.234Z" style="fill:#888c90;fill-rule:nonzero;"/><path d="M726.512,1109.06c-0.876,0 -1.627,-0.314 -2.255,-0.941c-0.627,-0.627 -0.941,-1.379 -0.941,-2.255c0,-0.876 0.314,-1.627 0.941,-2.255c0.628,-0.627 1.379,-0.941 2.255,-0.941c0.876,0 1.628,0.314 2.255,0.941c0.628,0.628 0.941,1.379 0.941,2.255c0,0.58 -0.145,1.113 -0.435,1.598c-0.29,0.485 -0.675,0.873 -1.154,1.163c-0.479,0.29 -1.015,0.435 -1.607,0.435Z" style="fill:#888c90;fill-rule:nonzero;"/><path d="M761.953,1102.39l-0,-23.437l3.977,-0l-0,23.437l-3.977,0Zm-9.731,-9.73l0,-3.977l23.438,-0l-0,3.977l-23.438,-0Z" style="fill:#888c90;fill-rule:nonzero;"/><path d="M796.967,1072.42l-0,36.364l-4.404,0l0,-31.747l-0.213,-0l-8.878,5.895l0,-4.475l9.091,-6.037l4.404,0Z" style="fill:#888c90;fill-rule:nonzero;"/><path d="M823.032,1090.6c0,-4.474 0.583,-8.591 1.749,-12.349c1.166,-3.758 2.832,-7.218 4.998,-10.378l3.693,-0c-0.852,1.172 -1.648,2.613 -2.388,4.323c-0.739,1.711 -1.388,3.587 -1.944,5.629c-0.556,2.042 -0.991,4.152 -1.305,6.33c-0.314,2.178 -0.47,4.326 -0.47,6.445c-0,2.817 0.272,5.676 0.816,8.576c0.545,2.9 1.279,5.593 2.202,8.079c0.923,2.486 1.953,4.51 3.089,6.073l-3.693,-0c-2.166,-3.161 -3.832,-6.62 -4.998,-10.379c-1.166,-3.758 -1.749,-7.874 -1.749,-12.349Z" style="fill:#888c90;fill-rule:nonzero;"/><path d="M852.365,1072.42l-0,36.364l-4.404,0l0,-31.747l-0.213,-0l-8.878,5.895l0,-4.475l9.091,-6.037l4.404,0Z" style="fill:#888c90;fill-rule:nonzero;"/><path d="M862.805,1108.78l-0,-3.196l12.003,-13.139c1.408,-1.539 2.568,-2.88 3.48,-4.022c0.911,-1.142 1.589,-2.219 2.033,-3.231c0.444,-1.012 0.666,-2.075 0.666,-3.188c-0,-1.278 -0.305,-2.385 -0.915,-3.32c-0.609,-0.935 -1.441,-1.657 -2.494,-2.166c-1.054,-0.509 -2.238,-0.764 -3.552,-0.764c-1.396,0 -2.613,0.288 -3.648,0.862c-1.036,0.574 -1.835,1.376 -2.397,2.406c-0.563,1.029 -0.844,2.237 -0.844,3.622l-4.19,-0c-0,-2.131 0.491,-4.001 1.474,-5.611c0.982,-1.61 2.323,-2.865 4.021,-3.764c1.699,-0.9 3.608,-1.35 5.727,-1.35c2.13,0 4.018,0.45 5.664,1.35c1.645,0.899 2.935,2.113 3.87,3.64c0.935,1.527 1.403,3.225 1.403,5.095c0,1.338 -0.24,2.643 -0.719,3.916c-0.479,1.272 -1.308,2.687 -2.486,4.243c-1.178,1.557 -2.808,3.454 -4.892,5.691l-8.167,8.736l-0,0.284l16.903,-0l0,3.906l-22.94,0Z" style="fill:#888c90;fill-rule:nonzero;"/><path d="M905.348,1109.28c-2.344,0 -4.431,-0.402 -6.259,-1.207c-1.829,-0.805 -3.279,-1.927 -4.35,-3.365c-1.072,-1.438 -1.655,-3.11 -1.749,-5.016l4.474,0c0.095,1.172 0.497,2.181 1.207,3.028c0.711,0.846 1.64,1.5 2.788,1.962c1.148,0.461 2.421,0.692 3.818,0.692c1.562,-0 2.947,-0.272 4.154,-0.817c1.208,-0.544 2.155,-1.302 2.841,-2.272c0.687,-0.971 1.03,-2.096 1.03,-3.374c0,-1.338 -0.331,-2.518 -0.994,-3.542c-0.663,-1.024 -1.634,-1.826 -2.912,-2.406c-1.279,-0.58 -2.841,-0.87 -4.688,-0.87l-2.912,-0l0,-3.907l2.912,0c1.444,0 2.714,-0.26 3.809,-0.781c1.095,-0.521 1.953,-1.255 2.575,-2.201c0.621,-0.947 0.932,-2.06 0.932,-3.339c-0,-1.231 -0.273,-2.302 -0.817,-3.213c-0.545,-0.912 -1.311,-1.622 -2.299,-2.131c-0.989,-0.509 -2.152,-0.764 -3.489,-0.764c-1.255,0 -2.436,0.228 -3.543,0.684c-1.106,0.456 -2.009,1.113 -2.707,1.971c-0.699,0.858 -1.078,1.891 -1.137,3.098l-4.261,0c0.071,-1.905 0.645,-3.577 1.722,-5.016c1.077,-1.438 2.489,-2.559 4.235,-3.364c1.746,-0.805 3.666,-1.208 5.762,-1.208c2.249,0 4.178,0.453 5.788,1.359c1.61,0.905 2.847,2.098 3.711,3.577c0.864,1.48 1.296,3.078 1.296,4.794c0,2.048 -0.536,3.794 -1.607,5.238c-1.071,1.444 -2.524,2.445 -4.359,3.001l0,0.284c2.297,0.379 4.09,1.353 5.38,2.921c1.29,1.568 1.935,3.507 1.935,5.815c0,1.977 -0.535,3.749 -1.606,5.318c-1.072,1.568 -2.531,2.802 -4.377,3.702c-1.847,0.899 -3.948,1.349 -6.303,1.349Z" style="fill:#888c90;fill-rule:nonzero;"/><path d="M933.899,1090.6c-0,4.475 -0.583,8.591 -1.749,12.349c-1.166,3.759 -2.832,7.218 -4.998,10.379l-3.694,-0c0.853,-1.172 1.649,-2.614 2.388,-4.324c0.74,-1.71 1.388,-3.587 1.945,-5.629c0.556,-2.041 0.991,-4.154 1.305,-6.338c0.313,-2.184 0.47,-4.33 0.47,-6.437c0,-2.817 -0.272,-5.676 -0.816,-8.576c-0.545,-2.9 -1.279,-5.593 -2.202,-8.079c-0.923,-2.485 -1.953,-4.51 -3.09,-6.072l3.694,-0c2.166,3.16 3.832,6.62 4.998,10.378c1.166,3.758 1.749,7.875 1.749,12.349Z" style="fill:#888c90;fill-rule:nonzero;"/><path d="M969.836,1072.42l0,36.364l-4.403,0l-0,-31.747l-0.213,-0l-8.878,5.895l-0,-4.475l9.091,-6.037l4.403,0Z" style="fill:#888c90;fill-rule:nonzero;"/><path d="M980.277,1108.78l-0,-3.196l12.002,-13.139c1.409,-1.539 2.569,-2.88 3.481,-4.022c0.911,-1.142 1.589,-2.219 2.033,-3.231c0.443,-1.012 0.665,-2.075 0.665,-3.188c0,-1.278 -0.304,-2.385 -0.914,-3.32c-0.61,-0.935 -1.441,-1.657 -2.495,-2.166c-1.053,-0.509 -2.237,-0.764 -3.551,-0.764c-1.397,0 -2.613,0.288 -3.649,0.862c-1.035,0.574 -1.834,1.376 -2.397,2.406c-0.562,1.029 -0.843,2.237 -0.843,3.622l-4.19,-0c-0,-2.131 0.491,-4.001 1.473,-5.611c0.983,-1.61 2.323,-2.865 4.022,-3.764c1.699,-0.9 3.607,-1.35 5.726,-1.35c2.131,0 4.019,0.45 5.664,1.35c1.646,0.899 2.936,2.113 3.871,3.64c0.935,1.527 1.403,3.225 1.403,5.095c-0,1.338 -0.24,2.643 -0.719,3.916c-0.48,1.272 -1.308,2.687 -2.486,4.243c-1.178,1.557 -2.809,3.454 -4.892,5.691l-8.167,8.736l-0,0.284l16.903,-0l-0,3.906l-22.94,0Z" style="fill:#888c90;fill-rule:nonzero;"/><path d="M1022.82,1109.28c-2.344,0 -4.43,-0.402 -6.259,-1.207c-1.828,-0.805 -3.279,-1.927 -4.35,-3.365c-1.071,-1.438 -1.654,-3.11 -1.749,-5.016l4.475,0c0.094,1.172 0.497,2.181 1.207,3.028c0.71,0.846 1.64,1.5 2.788,1.962c1.148,0.461 2.42,0.692 3.817,0.692c1.563,-0 2.948,-0.272 4.155,-0.817c1.207,-0.544 2.154,-1.302 2.841,-2.272c0.687,-0.971 1.03,-2.096 1.03,-3.374c-0,-1.338 -0.332,-2.518 -0.995,-3.542c-0.662,-1.024 -1.633,-1.826 -2.911,-2.406c-1.279,-0.58 -2.841,-0.87 -4.688,-0.87l-2.912,-0l0,-3.907l2.912,0c1.444,0 2.714,-0.26 3.809,-0.781c1.095,-0.521 1.953,-1.255 2.574,-2.201c0.622,-0.947 0.932,-2.06 0.932,-3.339c0,-1.231 -0.272,-2.302 -0.816,-3.213c-0.545,-0.912 -1.311,-1.622 -2.3,-2.131c-0.988,-0.509 -2.151,-0.764 -3.489,-0.764c-1.254,0 -2.435,0.228 -3.542,0.684c-1.107,0.456 -2.009,1.113 -2.708,1.971c-0.698,0.858 -1.077,1.891 -1.136,3.098l-4.261,0c0.071,-1.905 0.645,-3.577 1.722,-5.016c1.077,-1.438 2.489,-2.559 4.235,-3.364c1.746,-0.805 3.666,-1.208 5.761,-1.208c2.249,0 4.179,0.453 5.789,1.359c1.609,0.905 2.846,2.098 3.711,3.577c0.864,1.48 1.296,3.078 1.296,4.794c-0,2.048 -0.536,3.794 -1.607,5.238c-1.071,1.444 -2.524,2.445 -4.359,3.001l-0,0.284c2.296,0.379 4.09,1.353 5.38,2.921c1.29,1.568 1.935,3.507 1.935,5.815c0,1.977 -0.535,3.749 -1.607,5.318c-1.071,1.568 -2.53,2.802 -4.376,3.702c-1.847,0.899 -3.948,1.349 -6.304,1.349Z" style="fill:#888c90;fill-rule:nonzero;"/><rect x="1042.14" y="1088.64" width="15.909" height="3.906" style="fill:#888c90;fill-rule:nonzero;"/><path d="M1064.51,1101.32l-0,-3.622l15.98,-25.285l2.628,0l-0,5.611l-1.776,0l-12.074,19.105l0,0.284l21.52,0l0,3.907l-26.278,-0Zm17.116,7.457l0,-36.364l4.19,0l0,36.364l-4.19,0Z" style="fill:#888c90;fill-rule:nonzero;"/><path d="M1108.83,1109.28c-2.084,0 -3.96,-0.414 -5.629,-1.243c-1.669,-0.828 -3.006,-1.965 -4.013,-3.409c-1.006,-1.444 -1.556,-3.089 -1.651,-4.936l4.262,0c0.165,1.646 0.914,3.004 2.246,4.075c1.331,1.071 2.926,1.607 4.785,1.607c1.491,-0 2.82,-0.349 3.986,-1.048c1.166,-0.698 2.083,-1.66 2.752,-2.885c0.669,-1.225 1.003,-2.613 1.003,-4.164c0,-1.586 -0.346,-3.003 -1.038,-4.252c-0.693,-1.249 -1.643,-2.234 -2.85,-2.956c-1.208,-0.722 -2.587,-1.089 -4.137,-1.101c-1.113,-0.012 -2.255,0.157 -3.427,0.506c-1.172,0.349 -2.137,0.796 -2.894,1.34l-4.12,-0.497l2.202,-17.898l18.892,0l0,3.907l-15.199,-0l-1.278,10.724l0.213,0c0.746,-0.592 1.681,-1.083 2.805,-1.474c1.125,-0.39 2.297,-0.586 3.516,-0.586c2.225,0 4.211,0.53 5.957,1.59c1.746,1.059 3.119,2.506 4.119,4.341c1.001,1.835 1.501,3.93 1.501,6.285c-0,2.32 -0.518,4.389 -1.554,6.206c-1.036,1.817 -2.459,3.249 -4.27,4.297c-1.811,1.047 -3.871,1.571 -6.179,1.571Z" style="fill:#888c90;fill-rule:nonzero;"/><path d="M1139.94,1109.28c-1.492,-0.023 -2.983,-0.308 -4.475,-0.852c-1.491,-0.545 -2.852,-1.465 -4.083,-2.761c-1.231,-1.296 -2.22,-3.054 -2.966,-5.273c-0.745,-2.22 -1.118,-5.011 -1.118,-8.372c-0,-3.232 0.302,-6.099 0.905,-8.603c0.604,-2.503 1.48,-4.613 2.628,-6.33c1.148,-1.716 2.536,-3.018 4.164,-3.906c1.627,-0.888 3.465,-1.332 5.513,-1.332c2.036,0 3.85,0.409 5.442,1.225c1.592,0.817 2.891,1.951 3.897,3.401c1.007,1.45 1.658,3.128 1.954,5.033l-4.333,0c-0.402,-1.669 -1.183,-3.045 -2.344,-4.128c-1.16,-1.083 -2.698,-1.625 -4.616,-1.625c-2.817,0 -5.034,1.229 -6.65,3.685c-1.615,2.456 -2.429,5.915 -2.441,10.378l0.284,0c0.663,-1.006 1.453,-1.867 2.371,-2.583c0.917,-0.717 1.932,-1.27 3.045,-1.661c1.112,-0.39 2.29,-0.586 3.533,-0.586c2.083,0 3.989,0.518 5.717,1.554c1.729,1.036 3.114,2.462 4.155,4.279c1.042,1.817 1.563,3.898 1.563,6.241c-0,2.249 -0.503,4.306 -1.51,6.17c-1.006,1.865 -2.417,3.344 -4.234,4.439c-1.817,1.095 -3.951,1.631 -6.401,1.607Zm-0,-3.906c1.491,-0 2.832,-0.373 4.021,-1.119c1.19,-0.745 2.131,-1.746 2.824,-3c0.692,-1.255 1.038,-2.652 1.038,-4.191c0,-1.503 -0.334,-2.873 -1.003,-4.11c-0.669,-1.237 -1.586,-2.223 -2.752,-2.956c-1.166,-0.734 -2.495,-1.101 -3.986,-1.101c-1.125,-0 -2.172,0.222 -3.143,0.666c-0.971,0.443 -1.82,1.05 -2.548,1.82c-0.728,0.769 -1.299,1.648 -1.713,2.636c-0.415,0.989 -0.622,2.027 -0.622,3.116c0,1.444 0.341,2.794 1.021,4.049c0.681,1.254 1.616,2.266 2.806,3.036c1.189,0.769 2.542,1.154 4.057,1.154Z" style="fill:#888c90;fill-rule:nonzero;"/><path d="M1160.18,1108.78l16.265,-32.173l-0,-0.284l-18.75,-0l-0,-3.907l23.295,0l-0,4.12l-16.193,32.244l-4.617,0Z" style="fill:#888c90;fill-rule:nonzero;"/></g></g><g><rect x="616.642" y="397.745" width="8.965" height="42.424" style="fill:#212529;fill-rule:nonzero;"/><path d="M637.042,440.7c-1.37,-0 -2.543,-0.484 -3.52,-1.452c-0.976,-0.968 -1.46,-2.141 -1.452,-3.519c-0.008,-1.354 0.476,-2.512 1.452,-3.476c0.977,-0.964 2.15,-1.446 3.52,-1.446c1.32,-0 2.477,0.482 3.47,1.446c0.993,0.964 1.493,2.122 1.502,3.476c-0.009,0.916 -0.244,1.751 -0.707,2.504c-0.463,0.753 -1.067,1.352 -1.812,1.798c-0.746,0.446 -1.564,0.669 -2.453,0.669Z" style="fill:#212529;fill-rule:nonzero;"/><path d="M701.954,412.594l-9.064,-0c-0.172,-1.171 -0.514,-2.217 -1.026,-3.136c-0.512,-0.92 -1.167,-1.705 -1.964,-2.356c-0.796,-0.65 -1.715,-1.146 -2.757,-1.487c-1.041,-0.341 -2.175,-0.512 -3.401,-0.512c-2.188,0 -4.097,0.542 -5.728,1.624c-1.631,1.083 -2.896,2.656 -3.795,4.719c-0.899,2.064 -1.348,4.567 -1.348,7.512c-0,3.027 0.453,5.57 1.36,7.629c0.908,2.059 2.175,3.611 3.802,4.657c1.626,1.045 3.513,1.568 5.659,1.568c1.202,0 2.315,-0.158 3.339,-0.474c1.025,-0.317 1.938,-0.782 2.739,-1.395c0.801,-0.613 1.47,-1.362 2.007,-2.247c0.537,-0.886 0.908,-1.894 1.113,-3.027l9.064,0.05c-0.237,1.944 -0.821,3.816 -1.752,5.616c-0.931,1.799 -2.179,3.408 -3.743,4.826c-1.565,1.419 -3.429,2.538 -5.591,3.358c-2.163,0.821 -4.604,1.231 -7.325,1.231c-3.784,-0 -7.165,-0.855 -10.144,-2.565c-2.979,-1.709 -5.328,-4.19 -7.048,-7.441c-1.719,-3.251 -2.579,-7.179 -2.579,-11.786c0,-4.624 0.87,-8.559 2.611,-11.806c1.74,-3.247 4.101,-5.723 7.084,-7.428c2.983,-1.706 6.342,-2.559 10.076,-2.559c2.464,0 4.748,0.344 6.852,1.032c2.105,0.688 3.971,1.691 5.598,3.01c1.626,1.319 2.955,2.932 3.985,4.841c1.03,1.909 1.689,4.091 1.976,6.546Z" style="fill:#212529;fill-rule:nonzero;"/><path d="M721.161,440.783c-3.22,-0 -6,-0.686 -8.34,-2.057c-2.339,-1.371 -4.144,-3.288 -5.414,-5.751c-1.271,-2.462 -1.906,-5.328 -1.906,-8.598c-0,-3.282 0.635,-6.156 1.906,-8.624c1.27,-2.468 3.075,-4.388 5.414,-5.759c2.34,-1.371 5.12,-2.057 8.34,-2.057c3.221,0 6.001,0.686 8.34,2.057c2.34,1.371 4.145,3.291 5.415,5.759c1.271,2.468 1.906,5.342 1.906,8.624c-0,3.27 -0.635,6.136 -1.906,8.598c-1.27,2.463 -3.075,4.38 -5.415,5.751c-2.339,1.371 -5.119,2.057 -8.34,2.057Zm0.05,-6.828c1.453,0 2.672,-0.418 3.658,-1.255c0.986,-0.837 1.731,-1.981 2.233,-3.431c0.503,-1.45 0.754,-3.097 0.754,-4.942c0,-1.853 -0.251,-3.506 -0.754,-4.957c-0.502,-1.452 -1.247,-2.599 -2.233,-3.441c-0.986,-0.842 -2.205,-1.264 -3.658,-1.264c-1.486,0 -2.73,0.422 -3.733,1.264c-1.003,0.842 -1.755,1.989 -2.258,3.441c-0.502,1.451 -0.754,3.104 -0.754,4.957c0,1.845 0.252,3.492 0.754,4.942c0.503,1.45 1.255,2.594 2.258,3.431c1.003,0.837 2.247,1.255 3.733,1.255Z" style="fill:#212529;fill-rule:nonzero;"/><path d="M750.411,421.775l-0,18.395l-8.816,-0l-0,-31.818l8.402,-0l-0,5.617l0.364,0c0.713,-1.856 1.897,-3.325 3.553,-4.408c1.656,-1.082 3.664,-1.624 6.026,-1.624c2.212,0 4.14,0.484 5.785,1.452c1.645,0.968 2.922,2.346 3.832,4.133c0.911,1.787 1.361,3.914 1.353,6.38l0,20.268l-8.816,-0l0,-18.694c0.008,-1.944 -0.49,-3.466 -1.494,-4.565c-1.003,-1.099 -2.389,-1.649 -4.157,-1.649c-1.188,-0 -2.235,0.257 -3.142,0.773c-0.908,0.515 -1.614,1.258 -2.12,2.228c-0.505,0.971 -0.762,2.142 -0.77,3.512Z" style="fill:#212529;fill-rule:nonzero;"/><path d="M792.653,408.352l-0,6.628l-19.174,0l-0,-6.628l19.174,-0Zm-14.816,-7.624l8.817,0l-0,29.656c-0,0.817 0.127,1.452 0.381,1.904c0.254,0.451 0.605,0.766 1.052,0.944c0.448,0.178 0.964,0.267 1.55,0.267c0.422,0 0.841,-0.037 1.257,-0.111c0.416,-0.075 0.731,-0.137 0.947,-0.187l1.392,6.579c-0.439,0.141 -1.062,0.304 -1.867,0.489c-0.805,0.185 -1.779,0.299 -2.922,0.34c-2.127,0.083 -3.989,-0.2 -5.585,-0.847c-1.597,-0.648 -2.837,-1.658 -3.721,-3.031c-0.884,-1.373 -1.317,-3.096 -1.301,-5.17l0,-30.833Z" style="fill:#212529;fill-rule:nonzero;"/><path d="M806.01,440.766c-2.025,0 -3.832,-0.354 -5.421,-1.062c-1.59,-0.709 -2.843,-1.765 -3.76,-3.168c-0.917,-1.403 -1.375,-3.152 -1.375,-5.249c-0,-1.773 0.321,-3.258 0.965,-4.456c0.643,-1.197 1.525,-2.161 2.643,-2.893c1.119,-0.732 2.394,-1.288 3.826,-1.666c1.432,-0.378 2.937,-0.644 4.514,-0.796c1.842,-0.182 3.33,-0.359 4.464,-0.532c1.134,-0.172 1.957,-0.432 2.471,-0.779c0.514,-0.346 0.771,-0.859 0.771,-1.539l-0,-0.116c-0,-1.314 -0.413,-2.331 -1.239,-3.049c-0.826,-0.718 -1.987,-1.077 -3.484,-1.077c-1.588,-0 -2.853,0.347 -3.793,1.042c-0.941,0.694 -1.56,1.568 -1.858,2.62l-8.17,-0.663c0.414,-1.933 1.228,-3.608 2.442,-5.023c1.214,-1.416 2.785,-2.507 4.713,-3.273c1.928,-0.767 4.161,-1.15 6.699,-1.15c1.776,0 3.473,0.208 5.092,0.624c1.618,0.415 3.059,1.056 4.321,1.922c1.262,0.866 2.26,1.979 2.993,3.339c0.733,1.361 1.1,2.989 1.1,4.887l0,21.461l-8.369,-0l0,-4.408l-0.248,-0c-0.514,0.988 -1.197,1.86 -2.049,2.614c-0.852,0.754 -1.881,1.341 -3.086,1.761c-1.206,0.419 -2.593,0.629 -4.162,0.629Zm2.535,-6.082c1.296,0 2.44,-0.259 3.433,-0.778c0.993,-0.52 1.771,-1.223 2.334,-2.109c0.564,-0.887 0.846,-1.885 0.846,-2.996l-0,-3.38c-0.265,0.174 -0.639,0.334 -1.121,0.48c-0.482,0.147 -1.018,0.278 -1.608,0.394c-0.589,0.116 -1.18,0.219 -1.773,0.31c-0.592,0.092 -1.13,0.172 -1.613,0.241c-1.039,0.149 -1.946,0.39 -2.72,0.723c-0.775,0.333 -1.377,0.779 -1.807,1.338c-0.429,0.559 -0.644,1.253 -0.644,2.082c-0,1.21 0.439,2.128 1.317,2.755c0.879,0.627 1.997,0.94 3.356,0.94Z" style="fill:#212529;fill-rule:nonzero;"/><path d="M844.208,440.783c-3.265,-0 -6.065,-0.694 -8.402,-2.082c-2.336,-1.388 -4.13,-3.316 -5.382,-5.784c-1.251,-2.467 -1.876,-5.314 -1.876,-8.54c-0,-3.248 0.632,-6.108 1.897,-8.578c1.265,-2.471 3.065,-4.399 5.399,-5.784c2.333,-1.385 5.111,-2.078 8.331,-2.078c2.768,0 5.196,0.504 7.285,1.51c2.09,1.007 3.741,2.424 4.953,4.251c1.213,1.827 1.879,3.967 1.997,6.42l-8.319,-0c-0.24,-1.583 -0.858,-2.863 -1.854,-3.839c-0.995,-0.976 -2.305,-1.464 -3.929,-1.464c-1.359,-0 -2.548,0.369 -3.568,1.108c-1.019,0.739 -1.811,1.812 -2.378,3.219c-0.566,1.407 -0.849,3.113 -0.849,5.119c0,2.027 0.28,3.751 0.841,5.172c0.561,1.421 1.351,2.505 2.37,3.253c1.019,0.747 2.214,1.12 3.584,1.12c1.013,0 1.922,-0.206 2.726,-0.619c0.803,-0.413 1.471,-1.015 2.003,-1.807c0.532,-0.791 0.883,-1.75 1.054,-2.877l8.319,-0c-0.135,2.433 -0.792,4.573 -1.972,6.42c-1.179,1.846 -2.805,3.284 -4.878,4.315c-2.073,1.03 -4.524,1.545 -7.352,1.545Z" style="fill:#212529;fill-rule:nonzero;"/><path d="M879.324,408.352l0,6.628l-19.174,0l0,-6.628l19.174,-0Zm-14.815,-7.624l8.816,0l0,29.656c0,0.817 0.127,1.452 0.381,1.904c0.254,0.451 0.605,0.766 1.053,0.944c0.447,0.178 0.964,0.267 1.549,0.267c0.423,0 0.842,-0.037 1.257,-0.111c0.416,-0.075 0.732,-0.137 0.947,-0.187l1.392,6.579c-0.439,0.141 -1.061,0.304 -1.866,0.489c-0.805,0.185 -1.78,0.299 -2.923,0.34c-2.127,0.083 -3.988,-0.2 -5.585,-0.847c-1.596,-0.648 -2.836,-1.658 -3.72,-3.031c-0.884,-1.373 -1.318,-3.096 -1.301,-5.17l-0,-30.833Z" style="fill:#212529;fill-rule:nonzero;"/><path d="M915.219,440.17l-15.031,-0l0,-42.425l15.164,0c4.264,0 7.937,0.846 11.018,2.538c3.081,1.692 5.454,4.12 7.118,7.283c1.664,3.164 2.496,6.95 2.496,11.359c-0,4.419 -0.833,8.216 -2.499,11.391c-1.665,3.175 -4.049,5.611 -7.15,7.308c-3.102,1.697 -6.807,2.546 -11.116,2.546Zm-6.065,-7.689l5.684,-0c2.663,-0 4.9,-0.474 6.714,-1.421c1.813,-0.948 3.18,-2.419 4.101,-4.413c0.921,-1.994 1.382,-4.568 1.382,-7.722c0,-3.144 -0.462,-5.708 -1.386,-7.694c-0.924,-1.986 -2.288,-3.448 -4.093,-4.388c-1.805,-0.939 -4.033,-1.408 -6.685,-1.408l-5.717,-0l-0,27.046Z" style="fill:#212529;fill-rule:nonzero;"/><path d="M956.433,440.783c-3.264,-0 -6.075,-0.664 -8.432,-1.991c-2.358,-1.327 -4.171,-3.216 -5.44,-5.667c-1.269,-2.452 -1.904,-5.357 -1.904,-8.715c0,-3.276 0.637,-6.15 1.91,-8.622c1.273,-2.472 3.064,-4.398 5.373,-5.779c2.309,-1.381 5.024,-2.072 8.145,-2.072c2.105,0 4.065,0.334 5.879,1.003c1.815,0.668 3.402,1.674 4.761,3.018c1.359,1.344 2.419,3.027 3.182,5.048c0.762,2.022 1.143,4.385 1.143,7.089l0,2.419l-26.863,0l0,-5.468l18.561,-0c-0.009,-1.265 -0.29,-2.389 -0.844,-3.371c-0.553,-0.982 -1.317,-1.754 -2.291,-2.316c-0.973,-0.562 -2.1,-0.843 -3.378,-0.843c-1.334,0 -2.517,0.31 -3.547,0.93c-1.03,0.62 -1.836,1.444 -2.417,2.472c-0.582,1.027 -0.881,2.169 -0.897,3.426l-0,5.203c-0,1.575 0.295,2.935 0.886,4.082c0.591,1.146 1.426,2.028 2.503,2.647c1.077,0.618 2.35,0.928 3.82,0.928c0.986,-0 1.884,-0.14 2.695,-0.419c0.811,-0.278 1.509,-0.692 2.094,-1.24c0.586,-0.549 1.028,-1.222 1.326,-2.02l8.153,0.53c-0.414,1.967 -1.258,3.679 -2.531,5.136c-1.273,1.456 -2.916,2.586 -4.928,3.388c-2.012,0.803 -4.332,1.204 -6.959,1.204Z" style="fill:#212529;fill-rule:nonzero;"/><path d="M992.842,408.352l0,6.628l-19.174,0l0,-6.628l19.174,-0Zm-14.815,-7.624l8.816,0l-0,29.656c-0,0.817 0.127,1.452 0.381,1.904c0.254,0.451 0.605,0.766 1.053,0.944c0.447,0.178 0.964,0.267 1.549,0.267c0.423,0 0.842,-0.037 1.257,-0.111c0.416,-0.075 0.732,-0.137 0.947,-0.187l1.392,6.579c-0.439,0.141 -1.061,0.304 -1.866,0.489c-0.805,0.185 -1.78,0.299 -2.923,0.34c-2.127,0.083 -3.988,-0.2 -5.585,-0.847c-1.596,-0.648 -2.836,-1.658 -3.72,-3.031c-0.884,-1.373 -1.318,-3.096 -1.301,-5.17l-0,-30.833Z" style="fill:#212529;fill-rule:nonzero;"/><path d="M1006.2,440.766c-2.024,0 -3.831,-0.354 -5.421,-1.062c-1.589,-0.709 -2.843,-1.765 -3.76,-3.168c-0.917,-1.403 -1.375,-3.152 -1.375,-5.249c-0,-1.773 0.322,-3.258 0.965,-4.456c0.644,-1.197 1.525,-2.161 2.644,-2.893c1.118,-0.732 2.394,-1.288 3.826,-1.666c1.432,-0.378 2.936,-0.644 4.513,-0.796c1.843,-0.182 3.331,-0.359 4.464,-0.532c1.134,-0.172 1.958,-0.432 2.472,-0.779c0.513,-0.346 0.77,-0.859 0.77,-1.539l0,-0.116c0,-1.314 -0.413,-2.331 -1.238,-3.049c-0.826,-0.718 -1.988,-1.077 -3.485,-1.077c-1.588,-0 -2.852,0.347 -3.793,1.042c-0.94,0.694 -1.56,1.568 -1.858,2.62l-8.17,-0.663c0.414,-1.933 1.229,-3.608 2.442,-5.023c1.214,-1.416 2.785,-2.507 4.713,-3.273c1.928,-0.767 4.161,-1.15 6.699,-1.15c1.776,0 3.473,0.208 5.092,0.624c1.619,0.415 3.059,1.056 4.321,1.922c1.262,0.866 2.26,1.979 2.993,3.339c0.734,1.361 1.1,2.989 1.1,4.887l0,21.461l-8.368,-0l-0,-4.408l-0.249,-0c-0.514,0.988 -1.196,1.86 -2.049,2.614c-0.852,0.754 -1.88,1.341 -3.086,1.761c-1.206,0.419 -2.593,0.629 -4.162,0.629Zm2.536,-6.082c1.295,0 2.439,-0.259 3.432,-0.778c0.993,-0.52 1.771,-1.223 2.335,-2.109c0.563,-0.887 0.845,-1.885 0.845,-2.996l0,-3.38c-0.265,0.174 -0.639,0.334 -1.121,0.48c-0.482,0.147 -1.017,0.278 -1.607,0.394c-0.59,0.116 -1.181,0.219 -1.773,0.31c-0.593,0.092 -1.131,0.172 -1.614,0.241c-1.039,0.149 -1.945,0.39 -2.72,0.723c-0.775,0.333 -1.377,0.779 -1.806,1.338c-0.43,0.559 -0.645,1.253 -0.645,2.082c0,1.21 0.44,2.128 1.318,2.755c0.878,0.627 1.997,0.94 3.356,0.94Z" style="fill:#212529;fill-rule:nonzero;"/><path d="M1030.02,440.17l0,-31.818l8.825,-0l-0,31.818l-8.825,-0Zm4.454,-35.92c-1.312,-0 -2.437,-0.438 -3.376,-1.315c-0.94,-0.877 -1.409,-1.93 -1.409,-3.159c-0,-1.216 0.469,-2.262 1.409,-3.139c0.939,-0.877 2.057,-1.315 3.355,-1.315c1.326,-0 2.455,0.438 3.387,1.315c0.932,0.877 1.399,1.923 1.399,3.139c-0,1.229 -0.467,2.282 -1.399,3.159c-0.932,0.877 -2.054,1.315 -3.366,1.315Z" style="fill:#212529;fill-rule:nonzero;"/><rect x="1043.87" y="397.745" width="8.816" height="42.424" style="fill:#212529;fill-rule:nonzero;"/><path d="M1084.17,417.416l-8.07,0.497c-0.144,-0.682 -0.442,-1.303 -0.895,-1.864c-0.453,-0.56 -1.05,-1.009 -1.792,-1.344c-0.742,-0.336 -1.625,-0.504 -2.649,-0.504c-1.368,0 -2.521,0.286 -3.46,0.858c-0.939,0.572 -1.404,1.33 -1.396,2.274c-0.008,0.768 0.291,1.413 0.897,1.935c0.606,0.522 1.649,0.943 3.13,1.264l5.767,1.16c3.093,0.632 5.397,1.652 6.912,3.06c1.515,1.407 2.277,3.26 2.285,5.557c-0.008,2.089 -0.62,3.919 -1.837,5.492c-1.217,1.573 -2.888,2.796 -5.013,3.671c-2.125,0.874 -4.565,1.311 -7.318,1.311c-4.215,-0 -7.57,-0.879 -10.066,-2.635c-2.495,-1.757 -3.952,-4.154 -4.369,-7.192l8.667,-0.464c0.268,1.29 0.904,2.269 1.908,2.939c1.004,0.67 2.296,1.005 3.876,1.005c1.541,-0 2.786,-0.303 3.735,-0.907c0.949,-0.605 1.427,-1.38 1.436,-2.325c-0.009,-0.806 -0.344,-1.468 -1.005,-1.984c-0.662,-0.517 -1.686,-0.916 -3.072,-1.198l-5.502,-1.093c-3.113,-0.616 -5.426,-1.692 -6.94,-3.228c-1.513,-1.535 -2.266,-3.492 -2.258,-5.87c-0.008,-2.044 0.545,-3.804 1.66,-5.281c1.114,-1.476 2.684,-2.614 4.71,-3.413c2.026,-0.8 4.394,-1.2 7.103,-1.2c4.019,0 7.186,0.848 9.502,2.544c2.316,1.696 3.668,4.008 4.054,6.935Z" style="fill:#212529;fill-rule:nonzero;"/></g></g></g></g></svg>