<?xml version="1.0" encoding="UTF-8" standalone="no"?><!DOCTYPE svg PUBLIC "-//W3C//DTD SVG 1.1//EN" "http://www.w3.org/Graphics/SVG/1.1/DTD/svg11.dtd"><svg width="100%" height="100%" viewBox="0 0 1749 1241" version="1.1" xmlns="http://www.w3.org/2000/svg" xmlns:xlink="http://www.w3.org/1999/xlink" xml:space="preserve" xmlns:serif="http://www.serif.com/" style="fill-rule:evenodd;clip-rule:evenodd;stroke-linecap:round;stroke-linejoin:round;stroke-miterlimit:1.5;"><rect id="Artboard2" x="0" y="0" width="1748.03" height="1240.16" style="fill:none;"/><clipPath id="_clip1"><rect id="Artboard21" serif:id="Artboard2" x="0" y="0" width="1748.03" height="1240.16"/></clipPath><g clip-path="url(#_clip1)"><rect id="Artboard1" x="0" y="0" width="1748.03" height="1240.16" style="fill:none;"/><g><g><rect x="0" y="0" width="1748.03" height="1240.16" style="fill:#ada7ff;"/><g><path d="M1289.95,243.326c0,-69.179 -56.165,-125.345 -125.345,-125.345l-581.182,0c-69.179,0 -125.344,56.166 -125.344,125.345l0,1006.12c0,69.18 56.165,125.345 125.344,125.345l581.182,0c69.18,0 125.345,-56.165 125.345,-125.345l0,-1006.12Z" style="fill:#f8f9fa;stroke:#212529;stroke-width:25px;"/></g><g><g><path d="M760.022,224.522c-0.284,-2.86 -1.505,-5.085 -3.662,-6.676c-2.156,-1.591 -5.074,-2.387 -8.753,-2.387c-2.509,0 -4.632,0.354 -6.367,1.062c-1.736,0.708 -3.056,1.675 -3.96,2.901c-0.904,1.227 -1.364,2.624 -1.378,4.191c-0.028,1.302 0.255,2.44 0.849,3.413c0.594,0.973 1.426,1.809 2.497,2.507c1.07,0.698 2.303,1.298 3.7,1.8c1.397,0.502 2.883,0.93 4.46,1.286l6.534,1.562c3.172,0.71 6.084,1.66 8.736,2.848c2.651,1.189 4.952,2.648 6.903,4.379c1.951,1.731 3.465,3.768 4.542,6.111c1.077,2.344 1.623,5.029 1.637,8.054c-0.014,4.441 -1.141,8.291 -3.38,11.548c-2.24,3.258 -5.461,5.779 -9.663,7.564c-4.202,1.785 -9.267,2.678 -15.195,2.678c-5.876,-0 -10.984,-0.897 -15.323,-2.692c-4.34,-1.794 -7.721,-4.461 -10.142,-8c-2.422,-3.54 -3.697,-7.93 -3.825,-13.172l14.886,0c0.166,2.434 0.872,4.463 2.117,6.087c1.245,1.624 2.91,2.844 4.996,3.658c2.086,0.814 4.459,1.222 7.12,1.222c2.609,-0 4.875,-0.377 6.797,-1.13c1.923,-0.753 3.417,-1.802 4.482,-3.146c1.065,-1.345 1.605,-2.903 1.619,-4.674c-0.014,-1.633 -0.5,-3.005 -1.459,-4.116c-0.959,-1.11 -2.355,-2.057 -4.187,-2.84c-1.833,-0.784 -4.07,-1.496 -6.712,-2.135l-7.926,-1.96c-6.136,-1.492 -10.979,-3.827 -14.528,-7.006c-3.549,-3.18 -5.316,-7.454 -5.301,-12.823c-0.015,-4.399 1.17,-8.247 3.554,-11.545c2.384,-3.298 5.658,-5.868 9.823,-7.71c4.164,-1.841 8.9,-2.762 14.208,-2.762c5.397,-0 10.111,0.923 14.14,2.77c4.029,1.846 7.172,4.416 9.428,7.709c2.256,3.293 3.415,7.101 3.477,11.424l-14.744,-0Z" style="fill:#212529;fill-rule:nonzero;"/><path d="M784.07,276.34l0,-54.545l15.128,-0l-0,54.545l-15.128,0Zm7.635,-61.576c-2.249,-0 -4.178,-0.752 -5.788,-2.255c-1.61,-1.504 -2.415,-3.309 -2.415,-5.416c-0,-2.083 0.805,-3.877 2.415,-5.38c1.61,-1.503 3.527,-2.255 5.753,-2.255c2.272,0 4.208,0.752 5.806,2.255c1.598,1.503 2.397,3.297 2.397,5.38c-0,2.107 -0.799,3.912 -2.397,5.416c-1.598,1.503 -3.522,2.255 -5.771,2.255Z" style="fill:#212529;fill-rule:nonzero;"/><path d="M832.38,297.591c-4.901,-0 -9.102,-0.665 -12.603,-1.993c-3.501,-1.328 -6.281,-3.118 -8.338,-5.369c-2.058,-2.252 -3.392,-4.75 -4.002,-7.497l14.005,-1.875c0.417,0.981 1.084,1.917 2.003,2.809c0.918,0.893 2.141,1.623 3.668,2.191c1.527,0.569 3.396,0.853 5.608,0.853c3.281,-0 5.995,-0.782 8.142,-2.344c2.148,-1.563 3.221,-4.134 3.221,-7.713l0,-9.972l-0.624,0c-0.673,1.506 -1.674,2.937 -3.005,4.293c-1.33,1.357 -3.032,2.463 -5.106,3.317c-2.074,0.855 -4.56,1.282 -7.458,1.282c-4.091,0 -7.811,-0.956 -11.161,-2.869c-3.35,-1.913 -6.016,-4.837 -7.997,-8.771c-1.982,-3.935 -2.973,-8.928 -2.973,-14.979c0,-6.184 1.008,-11.343 3.022,-15.476c2.015,-4.133 4.7,-7.232 8.055,-9.297c3.354,-2.064 7.03,-3.096 11.026,-3.096c3.04,-0 5.59,0.515 7.649,1.544c2.06,1.03 3.726,2.306 5,3.828c1.274,1.523 2.247,3.027 2.919,4.514l0.597,0l-0,-9.176l14.999,-0l0,55.085c0,4.531 -1.137,8.334 -3.412,11.41c-2.275,3.075 -5.418,5.394 -9.429,6.957c-4.01,1.562 -8.612,2.344 -13.806,2.344Zm0.312,-33.381c2.424,-0 4.488,-0.61 6.19,-1.829c1.702,-1.219 3.004,-2.971 3.906,-5.256c0.902,-2.284 1.353,-5.027 1.353,-8.228c0,-3.191 -0.446,-5.967 -1.338,-8.327c-0.893,-2.361 -2.19,-4.191 -3.893,-5.491c-1.702,-1.299 -3.774,-1.949 -6.218,-1.949c-2.5,-0 -4.601,0.668 -6.303,2.006c-1.702,1.338 -2.99,3.192 -3.864,5.562c-0.873,2.37 -1.31,5.103 -1.31,8.199c-0,3.134 0.441,5.846 1.324,8.136c0.883,2.289 2.176,4.058 3.878,5.305c1.702,1.248 3.794,1.872 6.275,1.872Z" style="fill:#212529;fill-rule:nonzero;"/><path d="M883.857,244.806l0,31.534l-15.113,0l-0,-54.545l14.403,-0l-0,9.631l0.625,-0c1.221,-3.182 3.251,-5.701 6.09,-7.557c2.838,-1.856 6.282,-2.784 10.33,-2.784c3.793,-0 7.099,0.829 9.918,2.489c2.82,1.66 5.01,4.021 6.57,7.085c1.56,3.063 2.333,6.709 2.319,10.937l-0,34.744l-15.114,0l0,-32.045c0.014,-3.334 -0.839,-5.943 -2.56,-7.827c-1.721,-1.885 -4.097,-2.827 -7.127,-2.827c-2.036,0 -3.832,0.442 -5.387,1.325c-1.556,0.883 -2.767,2.156 -3.633,3.821c-0.867,1.664 -1.307,3.671 -1.321,6.019Z" style="fill:#212529;fill-rule:nonzero;"/><rect x="955.675" y="203.613" width="15.369" height="72.727" style="fill:#212529;fill-rule:nonzero;"/><path d="M996.925,244.806l0,31.534l-15.113,0l-0,-54.545l14.403,-0l-0,9.631l0.625,-0c1.221,-3.182 3.251,-5.701 6.09,-7.557c2.839,-1.856 6.282,-2.784 10.33,-2.784c3.793,-0 7.099,0.829 9.918,2.489c2.82,1.66 5.01,4.021 6.57,7.085c1.56,3.063 2.333,6.709 2.319,10.937l0,34.744l-15.113,0l-0,-32.045c0.014,-3.334 -0.84,-5.943 -2.561,-7.827c-1.721,-1.885 -4.096,-2.827 -7.127,-2.827c-2.036,0 -3.831,0.442 -5.387,1.325c-1.555,0.883 -2.766,2.156 -3.633,3.821c-0.866,1.664 -1.307,3.671 -1.321,6.019Z" style="fill:#212529;fill-rule:nonzero;"/></g></g><g><g><g><path d="M616.714,414.198l0,-36.363l24.503,-0l-0,6.335l-16.818,-0l-0,8.665l15.554,-0l-0,6.335l-15.554,-0l-0,8.693l16.889,0l-0,6.335l-24.574,0Z" style="fill-rule:nonzero;"/><path d="M646.473,414.198l-0,-27.272l7.201,-0l0,4.815l0.313,-0c0.568,-1.605 1.517,-2.868 2.848,-3.789c1.33,-0.921 2.919,-1.382 4.765,-1.382c1.871,0 3.462,0.466 4.773,1.398c1.312,0.932 2.188,2.189 2.628,3.773l0.284,-0c0.556,-1.565 1.565,-2.818 3.026,-3.759c1.46,-0.941 3.189,-1.412 5.184,-1.412c2.545,0 4.616,0.809 6.213,2.426c1.597,1.617 2.395,3.905 2.395,6.864l0,18.338l-7.556,0l-0,-16.846c-0,-1.523 -0.402,-2.661 -1.204,-3.415c-0.803,-0.754 -1.808,-1.131 -3.015,-1.131c-1.371,0 -2.443,0.435 -3.216,1.305c-0.773,0.87 -1.159,2.017 -1.159,3.439l-0,16.648l-7.33,0l0,-17.017c0,-1.337 -0.382,-2.401 -1.147,-3.191c-0.764,-0.789 -1.769,-1.184 -3.015,-1.184c-0.84,0 -1.594,0.208 -2.262,0.625c-0.667,0.417 -1.196,1.002 -1.585,1.756c-0.39,0.754 -0.584,1.637 -0.584,2.648l-0,16.363l-7.557,0Z" style="fill-rule:nonzero;"/><path d="M697.709,414.71c-1.736,-0 -3.285,-0.304 -4.647,-0.911c-1.363,-0.607 -2.437,-1.512 -3.223,-2.715c-0.786,-1.203 -1.179,-2.702 -1.179,-4.499c0,-1.52 0.276,-2.793 0.828,-3.82c0.551,-1.026 1.307,-1.853 2.265,-2.48c0.959,-0.627 2.052,-1.103 3.28,-1.428c1.227,-0.324 2.517,-0.551 3.869,-0.682c1.579,-0.156 2.854,-0.308 3.826,-0.456c0.972,-0.148 1.678,-0.37 2.118,-0.667c0.441,-0.297 0.661,-0.737 0.661,-1.32l-0,-0.099c-0,-1.127 -0.354,-1.998 -1.062,-2.614c-0.708,-0.615 -1.703,-0.923 -2.986,-0.923c-1.362,0 -2.445,0.298 -3.252,0.893c-0.806,0.596 -1.337,1.344 -1.592,2.246l-7.003,-0.568c0.355,-1.657 1.053,-3.092 2.093,-4.306c1.041,-1.213 2.387,-2.148 4.04,-2.805c1.652,-0.657 3.566,-0.986 5.742,-0.986c1.522,0 2.977,0.179 4.364,0.535c1.388,0.356 2.622,0.906 3.704,1.648c1.082,0.742 1.937,1.696 2.566,2.862c0.628,1.166 0.943,2.562 0.943,4.188l-0,18.395l-7.174,0l0,-3.778l-0.213,-0c-0.44,0.847 -1.025,1.594 -1.756,2.241c-0.73,0.646 -1.612,1.149 -2.645,1.509c-1.034,0.36 -2.223,0.54 -3.567,0.54Zm2.173,-5.213c1.11,-0 2.091,-0.223 2.942,-0.668c0.851,-0.445 1.518,-1.048 2.001,-1.808c0.483,-0.76 0.725,-1.615 0.725,-2.567l-0,-2.898c-0.228,0.149 -0.548,0.287 -0.961,0.412c-0.413,0.126 -0.872,0.238 -1.378,0.337c-0.505,0.1 -1.012,0.189 -1.52,0.267c-0.508,0.078 -0.969,0.147 -1.383,0.206c-0.89,0.128 -1.667,0.334 -2.331,0.619c-0.664,0.286 -1.181,0.668 -1.549,1.148c-0.368,0.479 -0.552,1.074 -0.552,1.784c0,1.037 0.377,1.824 1.129,2.362c0.753,0.537 1.712,0.806 2.877,0.806Z" style="fill-rule:nonzero;"/><path d="M718.128,414.198l-0,-27.272l7.563,-0l0,27.272l-7.563,0Zm3.817,-30.788c-1.125,-0 -2.089,-0.376 -2.894,-1.128c-0.805,-0.751 -1.208,-1.654 -1.208,-2.707c0,-1.042 0.403,-1.939 1.208,-2.69c0.805,-0.752 1.764,-1.128 2.876,-1.128c1.137,0 2.104,0.376 2.903,1.128c0.799,0.751 1.199,1.648 1.199,2.69c-0,1.053 -0.4,1.956 -1.199,2.707c-0.799,0.752 -1.76,1.128 -2.885,1.128Z" style="fill-rule:nonzero;"/><rect x="729.996" y="377.835" width="7.557" height="36.364" style="fill-rule:nonzero;"/><path d="M1130.25,466.83c-0,-14.387 -11.681,-26.068 -26.068,-26.068l-462.611,0c-14.387,0 -26.068,11.681 -26.068,26.068l-0,52.136c-0,14.388 11.681,26.069 26.068,26.069l462.611,0c14.387,0 26.068,-11.681 26.068,-26.069l-0,-52.136Z" style="fill:#fff;stroke:#212529;stroke-width:12.5px;"/><path d="M657.03,505.084c-1.874,0 -3.489,-0.408 -4.844,-1.224c-1.355,-0.816 -2.397,-1.96 -3.128,-3.431c-0.73,-1.47 -1.095,-3.184 -1.095,-5.139c0,-1.955 0.365,-3.681 1.095,-5.177c0.731,-1.495 1.752,-2.664 3.065,-3.505c1.313,-0.841 2.847,-1.261 4.603,-1.261c1.013,-0 2.013,0.166 3.001,0.497c0.988,0.331 1.887,0.868 2.697,1.61c0.811,0.741 1.456,1.721 1.938,2.939c0.481,1.218 0.721,2.718 0.721,4.499l0,1.243l-14.992,0l-0,-2.535l11.953,-0c0,-1.078 -0.217,-2.039 -0.652,-2.884c-0.435,-0.845 -1.051,-1.512 -1.849,-2.001c-0.797,-0.489 -1.737,-0.733 -2.817,-0.733c-1.19,-0 -2.218,0.288 -3.084,0.864c-0.865,0.575 -1.53,1.323 -1.994,2.243c-0.464,0.92 -0.696,1.906 -0.696,2.958l-0,1.69c-0,1.442 0.255,2.662 0.766,3.661c0.51,0.998 1.222,1.756 2.133,2.274c0.912,0.518 1.972,0.777 3.179,0.777c0.785,0 1.496,-0.11 2.133,-0.329c0.638,-0.22 1.189,-0.551 1.653,-0.995c0.464,-0.443 0.823,-0.996 1.076,-1.659l2.887,0.796c-0.303,0.961 -0.814,1.804 -1.532,2.529c-0.717,0.725 -1.604,1.288 -2.659,1.69c-1.055,0.402 -2.241,0.603 -3.558,0.603Z" style="fill:#919191;fill-rule:nonzero;"/><path d="M671.82,504.885c-0.625,0 -1.161,-0.219 -1.608,-0.659c-0.448,-0.439 -0.671,-0.965 -0.671,-1.578c-0,-0.613 0.223,-1.139 0.671,-1.579c0.447,-0.439 0.983,-0.658 1.608,-0.658c0.625,-0 1.161,0.219 1.608,0.658c0.448,0.44 0.671,0.966 0.671,1.579c0,0.406 -0.103,0.779 -0.31,1.119c-0.207,0.339 -0.481,0.611 -0.823,0.814c-0.342,0.203 -0.724,0.304 -1.146,0.304Z" style="fill:#919191;fill-rule:nonzero;"/><path d="M687.319,512.243c-1.443,0 -2.684,-0.18 -3.722,-0.541c-1.039,-0.36 -1.902,-0.832 -2.59,-1.416c-0.688,-0.585 -1.235,-1.208 -1.64,-1.871l2.381,-1.641c0.27,0.348 0.612,0.748 1.025,1.2c0.414,0.451 0.982,0.845 1.704,1.181c0.721,0.335 1.669,0.503 2.842,0.503c1.571,-0 2.866,-0.373 3.888,-1.119c1.021,-0.745 1.532,-1.914 1.532,-3.505l0,-3.878l-0.253,0c-0.22,0.348 -0.53,0.777 -0.931,1.287c-0.401,0.509 -0.975,0.961 -1.722,1.355c-0.747,0.393 -1.754,0.59 -3.02,0.59c-1.57,0 -2.978,-0.365 -4.223,-1.094c-1.245,-0.729 -2.229,-1.79 -2.951,-3.182c-0.721,-1.392 -1.082,-3.082 -1.082,-5.071c-0,-1.955 0.35,-3.66 1.051,-5.114c0.7,-1.454 1.675,-2.581 2.925,-3.381c1.249,-0.799 2.693,-1.199 4.331,-1.199c1.266,-0 2.273,0.205 3.02,0.615c0.747,0.41 1.321,0.874 1.722,1.392c0.401,0.518 0.711,0.943 0.931,1.274l0.303,0l0,-3.033l2.888,0l-0,19.638c-0,1.641 -0.378,2.977 -1.134,4.009c-0.755,1.031 -1.768,1.789 -3.039,2.274c-1.27,0.485 -2.682,0.727 -4.236,0.727Zm-0.101,-10.49c1.199,0 2.212,-0.269 3.039,-0.808c0.828,-0.538 1.456,-1.313 1.887,-2.324c0.431,-1.011 0.646,-2.221 0.646,-3.629c-0,-1.376 -0.211,-2.59 -0.633,-3.642c-0.422,-1.052 -1.047,-1.877 -1.874,-2.473c-0.828,-0.597 -1.849,-0.895 -3.065,-0.895c-1.266,-0 -2.319,0.315 -3.159,0.944c-0.84,0.63 -1.469,1.475 -1.887,2.536c-0.418,1.06 -0.627,2.237 -0.627,3.53c0,1.325 0.213,2.496 0.64,3.511c0.426,1.015 1.059,1.81 1.899,2.386c0.84,0.576 1.885,0.864 3.134,0.864Z" style="fill:#919191;fill-rule:nonzero;"/><path d="M711.227,485.595l2.988,0l0,20.483c0,1.177 -0.204,2.196 -0.614,3.058c-0.409,0.862 -1.025,1.529 -1.849,2.001c-0.823,0.472 -1.859,0.708 -3.108,0.708l-0.608,0l-0,-2.734l0.557,0c0.912,0 1.579,-0.263 2.001,-0.789c0.422,-0.526 0.633,-1.274 0.633,-2.244l-0,-20.483Zm1.469,-3.181c-0.583,-0 -1.083,-0.195 -1.501,-0.585c-0.418,-0.389 -0.626,-0.857 -0.626,-1.404c-0,-0.547 0.208,-1.015 0.626,-1.405c0.418,-0.389 0.918,-0.584 1.501,-0.584c0.582,0 1.083,0.195 1.5,0.584c0.418,0.39 0.627,0.858 0.627,1.405c0,0.547 -0.209,1.015 -0.627,1.404c-0.417,0.39 -0.918,0.585 -1.5,0.585Z" style="fill:#919191;fill-rule:nonzero;"/><path d="M725.409,505.134c-1.232,-0 -2.351,-0.23 -3.355,-0.69c-1.005,-0.46 -1.803,-1.127 -2.394,-2.001c-0.59,-0.874 -0.886,-1.933 -0.886,-3.176c0,-1.093 0.22,-1.982 0.659,-2.666c0.439,-0.683 1.025,-1.22 1.76,-1.609c0.734,-0.39 1.547,-0.682 2.437,-0.877c0.891,-0.194 1.788,-0.35 2.691,-0.466c1.182,-0.149 2.142,-0.263 2.881,-0.341c0.739,-0.079 1.279,-0.214 1.621,-0.404c0.342,-0.191 0.513,-0.522 0.513,-0.995l-0,-0.099c-0,-1.226 -0.34,-2.179 -1.02,-2.859c-0.679,-0.679 -1.707,-1.019 -3.083,-1.019c-1.427,0 -2.545,0.307 -3.356,0.92c-0.81,0.613 -1.38,1.268 -1.709,1.964l-2.837,-0.995c0.507,-1.16 1.184,-2.065 2.033,-2.715c0.848,-0.651 1.777,-1.107 2.785,-1.368c1.009,-0.261 2.003,-0.391 2.983,-0.391c0.624,-0 1.344,0.072 2.159,0.217c0.814,0.145 1.604,0.442 2.368,0.889c0.764,0.447 1.399,1.123 1.905,2.026c0.507,0.903 0.76,2.113 0.76,3.629l0,12.578l-2.988,0l-0,-2.585l-0.152,0c-0.203,0.414 -0.541,0.858 -1.013,1.33c-0.473,0.472 -1.102,0.874 -1.887,1.206c-0.785,0.331 -1.743,0.497 -2.875,0.497Zm0.456,-2.635c1.182,-0 2.18,-0.228 2.995,-0.684c0.815,-0.456 1.431,-1.044 1.849,-1.765c0.418,-0.721 0.627,-1.479 0.627,-2.274l-0,-2.685c-0.127,0.149 -0.403,0.284 -0.83,0.404c-0.426,0.12 -0.916,0.224 -1.469,0.311c-0.553,0.087 -1.089,0.161 -1.608,0.224c-0.519,0.062 -0.939,0.113 -1.26,0.155c-0.776,0.099 -1.5,0.259 -2.171,0.478c-0.672,0.22 -1.212,0.547 -1.621,0.982c-0.41,0.435 -0.614,1.026 -0.614,1.771c-0,1.02 0.386,1.788 1.158,2.306c0.773,0.518 1.754,0.777 2.944,0.777Z" style="fill:#919191;fill-rule:nonzero;"/><path d="M742.783,493.202l-0,11.484l-2.989,0l0,-19.091l2.888,0l-0,2.983l0.253,0c0.456,-0.969 1.148,-1.75 2.077,-2.343c0.928,-0.592 2.127,-0.888 3.596,-0.888c1.317,-0 2.469,0.263 3.457,0.789c0.988,0.526 1.756,1.322 2.304,2.386c0.549,1.065 0.824,2.41 0.824,4.034l-0,12.13l-2.989,0l0,-11.932c0,-1.499 -0.397,-2.67 -1.19,-3.511c-0.794,-0.841 -1.883,-1.261 -3.267,-1.261c-0.954,-0 -1.805,0.203 -2.552,0.609c-0.747,0.406 -1.336,0.998 -1.766,1.777c-0.431,0.779 -0.646,1.724 -0.646,2.834Z" style="fill:#919191;fill-rule:nonzero;"/><path d="M768.818,505.084c-1.874,0 -3.489,-0.408 -4.844,-1.224c-1.355,-0.816 -2.397,-1.96 -3.127,-3.431c-0.731,-1.47 -1.096,-3.184 -1.096,-5.139c0,-1.955 0.365,-3.681 1.096,-5.177c0.73,-1.495 1.751,-2.664 3.064,-3.505c1.313,-0.841 2.847,-1.261 4.603,-1.261c1.013,-0 2.013,0.166 3.001,0.497c0.988,0.331 1.887,0.868 2.697,1.61c0.811,0.741 1.456,1.721 1.938,2.939c0.481,1.218 0.721,2.718 0.721,4.499l0,1.243l-14.992,0l-0,-2.535l11.953,-0c0,-1.078 -0.217,-2.039 -0.652,-2.884c-0.435,-0.845 -1.051,-1.512 -1.849,-2.001c-0.797,-0.489 -1.737,-0.733 -2.817,-0.733c-1.19,-0 -2.218,0.288 -3.083,0.864c-0.866,0.575 -1.531,1.323 -1.995,2.243c-0.464,0.92 -0.696,1.906 -0.696,2.958l-0,1.69c-0,1.442 0.255,2.662 0.766,3.661c0.51,0.998 1.222,1.756 2.133,2.274c0.912,0.518 1.972,0.777 3.179,0.777c0.785,0 1.496,-0.11 2.134,-0.329c0.637,-0.22 1.188,-0.551 1.652,-0.995c0.464,-0.443 0.823,-0.996 1.076,-1.659l2.888,0.796c-0.304,0.961 -0.815,1.804 -1.533,2.529c-0.717,0.725 -1.604,1.288 -2.659,1.69c-1.055,0.402 -2.241,0.603 -3.558,0.603Z" style="fill:#919191;fill-rule:nonzero;"/><path d="M783.608,504.885c-0.625,0 -1.161,-0.219 -1.608,-0.659c-0.448,-0.439 -0.671,-0.965 -0.671,-1.578c-0,-0.613 0.223,-1.139 0.671,-1.579c0.447,-0.439 0.983,-0.658 1.608,-0.658c0.625,-0 1.161,0.219 1.608,0.658c0.448,0.44 0.671,0.966 0.671,1.579c0,0.406 -0.103,0.779 -0.31,1.119c-0.207,0.339 -0.481,0.611 -0.823,0.814c-0.342,0.203 -0.724,0.304 -1.146,0.304Z" style="fill:#919191;fill-rule:nonzero;"/><path d="M798.601,505.084c-1.621,0 -3.052,-0.404 -4.293,-1.212c-1.241,-0.808 -2.212,-1.951 -2.912,-3.43c-0.701,-1.479 -1.051,-3.23 -1.051,-5.251c-0,-2.006 0.35,-3.746 1.051,-5.221c0.7,-1.475 1.675,-2.614 2.925,-3.418c1.249,-0.803 2.693,-1.205 4.331,-1.205c1.266,-0 2.268,0.205 3.007,0.615c0.739,0.41 1.304,0.874 1.697,1.392c0.392,0.518 0.698,0.943 0.918,1.274l0.253,0l0,-9.396l2.989,-0l-0,25.454l-2.887,0l-0,-2.933l-0.355,0c-0.22,0.348 -0.532,0.785 -0.937,1.311c-0.405,0.526 -0.984,0.995 -1.735,1.405c-0.751,0.41 -1.752,0.615 -3.001,0.615Zm0.405,-2.635c1.199,0 2.212,-0.309 3.039,-0.926c0.828,-0.617 1.457,-1.475 1.887,-2.573c0.431,-1.098 0.646,-2.367 0.646,-3.809c-0,-1.425 -0.211,-2.674 -0.633,-3.747c-0.422,-1.074 -1.047,-1.91 -1.874,-2.511c-0.828,-0.601 -1.849,-0.901 -3.065,-0.901c-1.266,-0 -2.319,0.317 -3.159,0.951c-0.84,0.633 -1.469,1.491 -1.887,2.572c-0.418,1.082 -0.627,2.294 -0.627,3.636c0,1.359 0.213,2.591 0.64,3.697c0.426,1.107 1.059,1.985 1.899,2.635c0.84,0.651 1.885,0.976 3.134,0.976Z" style="fill:#919191;fill-rule:nonzero;"/><path d="M821.293,505.084c-1.756,0 -3.295,-0.41 -4.616,-1.23c-1.321,-0.821 -2.351,-1.968 -3.09,-3.443c-0.738,-1.475 -1.108,-3.199 -1.108,-5.171c0,-1.988 0.37,-3.724 1.108,-5.207c0.739,-1.484 1.769,-2.635 3.09,-3.456c1.321,-0.82 2.86,-1.23 4.616,-1.23c1.756,-0 3.294,0.41 4.615,1.23c1.322,0.821 2.352,1.972 3.09,3.456c0.739,1.483 1.108,3.219 1.108,5.207c0,1.972 -0.369,3.696 -1.108,5.171c-0.738,1.475 -1.768,2.622 -3.09,3.443c-1.321,0.82 -2.859,1.23 -4.615,1.23Zm-0,-2.635c1.334,0 2.431,-0.335 3.292,-1.007c0.861,-0.671 1.499,-1.553 1.912,-2.647c0.414,-1.094 0.621,-2.279 0.621,-3.555c-0,-1.276 -0.207,-2.465 -0.621,-3.567c-0.413,-1.102 -1.051,-1.993 -1.912,-2.672c-0.861,-0.68 -1.958,-1.019 -3.292,-1.019c-1.334,-0 -2.431,0.339 -3.292,1.019c-0.862,0.679 -1.499,1.57 -1.913,2.672c-0.413,1.102 -0.62,2.291 -0.62,3.567c-0,1.276 0.207,2.461 0.62,3.555c0.414,1.094 1.051,1.976 1.913,2.647c0.861,0.672 1.958,1.007 3.292,1.007Z" style="fill:#919191;fill-rule:nonzero;"/><path d="M842.82,505.084c-1.874,0 -3.489,-0.408 -4.844,-1.224c-1.355,-0.816 -2.397,-1.96 -3.127,-3.431c-0.731,-1.47 -1.096,-3.184 -1.096,-5.139c0,-1.955 0.365,-3.681 1.096,-5.177c0.73,-1.495 1.751,-2.664 3.064,-3.505c1.313,-0.841 2.847,-1.261 4.603,-1.261c1.013,-0 2.013,0.166 3.001,0.497c0.988,0.331 1.887,0.868 2.697,1.61c0.811,0.741 1.456,1.721 1.938,2.939c0.481,1.218 0.721,2.718 0.721,4.499l0,1.243l-14.992,0l-0,-2.535l11.953,-0c0,-1.078 -0.217,-2.039 -0.652,-2.884c-0.435,-0.845 -1.051,-1.512 -1.849,-2.001c-0.797,-0.489 -1.737,-0.733 -2.817,-0.733c-1.19,-0 -2.218,0.288 -3.084,0.864c-0.865,0.575 -1.53,1.323 -1.994,2.243c-0.464,0.92 -0.696,1.906 -0.696,2.958l-0,1.69c-0,1.442 0.255,2.662 0.766,3.661c0.51,0.998 1.222,1.756 2.133,2.274c0.912,0.518 1.972,0.777 3.179,0.777c0.785,0 1.496,-0.11 2.133,-0.329c0.638,-0.22 1.189,-0.551 1.653,-0.995c0.464,-0.443 0.823,-0.996 1.076,-1.659l2.887,0.796c-0.303,0.961 -0.814,1.804 -1.532,2.529c-0.717,0.725 -1.604,1.288 -2.659,1.69c-1.055,0.402 -2.241,0.603 -3.558,0.603Z" style="fill:#919191;fill-rule:nonzero;"/><path d="M870.374,511.398c-2.583,-0 -4.867,-0.346 -6.85,-1.038c-1.984,-0.692 -3.652,-1.709 -5.002,-3.051c-1.351,-1.343 -2.372,-2.987 -3.065,-4.934c-0.692,-1.948 -1.038,-4.177 -1.038,-6.687c0,-2.428 0.352,-4.599 1.057,-6.513c0.705,-1.914 1.731,-3.54 3.077,-4.878c1.347,-1.339 2.985,-2.36 4.914,-3.064c1.929,-0.704 4.113,-1.057 6.553,-1.057c2.372,0 4.451,0.379 6.236,1.138c1.786,0.758 3.28,1.781 4.483,3.07c1.203,1.288 2.106,2.736 2.71,4.343c0.603,1.608 0.905,3.265 0.905,4.972c0,1.202 -0.059,2.42 -0.177,3.654c-0.118,1.235 -0.367,2.368 -0.747,3.4c-0.38,1.031 -0.965,1.862 -1.754,2.492c-0.789,0.629 -1.855,0.944 -3.197,0.944c-0.591,0 -1.241,-0.091 -1.951,-0.273c-0.709,-0.183 -1.338,-0.485 -1.886,-0.908c-0.549,-0.422 -0.874,-0.99 -0.975,-1.702l-0.152,-0c-0.203,0.48 -0.513,0.936 -0.931,1.367c-0.418,0.431 -0.962,0.775 -1.634,1.031c-0.671,0.257 -1.487,0.369 -2.45,0.336c-1.097,-0.041 -2.064,-0.284 -2.9,-0.727c-0.835,-0.443 -1.534,-1.048 -2.095,-1.815c-0.562,-0.766 -0.984,-1.657 -1.267,-2.672c-0.282,-1.015 -0.424,-2.111 -0.424,-3.287c0,-1.119 0.169,-2.142 0.507,-3.07c0.337,-0.928 0.808,-1.74 1.412,-2.436c0.603,-0.696 1.312,-1.254 2.127,-1.672c0.815,-0.419 1.695,-0.678 2.64,-0.777c0.844,-0.083 1.613,-0.048 2.305,0.106c0.692,0.153 1.262,0.381 1.709,0.683c0.448,0.303 0.731,0.636 0.849,1.001l0.152,-0l-0,-1.392l2.684,-0l0,11.236c0,0.696 0.199,1.309 0.595,1.839c0.397,0.53 0.975,0.795 1.735,0.795c0.861,0 1.522,-0.29 1.982,-0.87c0.46,-0.58 0.777,-1.474 0.95,-2.684c0.173,-1.21 0.259,-2.759 0.259,-4.649c0,-1.11 -0.154,-2.206 -0.462,-3.287c-0.308,-1.081 -0.772,-2.094 -1.393,-3.039c-0.62,-0.945 -1.403,-1.777 -2.349,-2.498c-0.945,-0.721 -2.053,-1.287 -3.324,-1.697c-1.27,-0.41 -2.712,-0.615 -4.324,-0.615c-1.984,0 -3.759,0.3 -5.325,0.901c-1.566,0.601 -2.896,1.475 -3.989,2.623c-1.093,1.147 -1.925,2.539 -2.494,4.176c-0.57,1.636 -0.855,3.494 -0.855,5.574c-0,2.113 0.285,3.99 0.855,5.63c0.569,1.641 1.414,3.025 2.532,4.152c1.119,1.127 2.505,1.982 4.16,2.566c1.655,0.585 3.562,0.877 5.724,0.877c0.928,-0 1.844,-0.087 2.747,-0.261c0.904,-0.174 1.701,-0.365 2.394,-0.572c0.692,-0.207 1.19,-0.361 1.494,-0.46l0.709,2.287c-0.523,0.215 -1.205,0.431 -2.045,0.646c-0.84,0.216 -1.735,0.394 -2.685,0.535c-0.949,0.141 -1.855,0.211 -2.716,0.211Zm-1.469,-9.894c1.132,0 2.048,-0.223 2.748,-0.671c0.701,-0.447 1.212,-1.122 1.532,-2.026c0.321,-0.903 0.482,-2.042 0.482,-3.418c-0,-1.392 -0.178,-2.477 -0.532,-3.256c-0.355,-0.779 -0.878,-1.326 -1.57,-1.641c-0.693,-0.314 -1.545,-0.472 -2.558,-0.472c-0.963,0 -1.784,0.247 -2.463,0.74c-0.68,0.493 -1.199,1.147 -1.558,1.963c-0.359,0.817 -0.538,1.705 -0.538,2.666c0,1.061 0.144,2.057 0.431,2.99c0.287,0.932 0.755,1.686 1.405,2.262c0.65,0.576 1.524,0.863 2.621,0.863Z" style="fill:#919191;fill-rule:nonzero;"/><path d="M896.662,512.243c-1.443,0 -2.684,-0.18 -3.722,-0.541c-1.039,-0.36 -1.902,-0.832 -2.59,-1.416c-0.688,-0.585 -1.235,-1.208 -1.64,-1.871l2.381,-1.641c0.27,0.348 0.612,0.748 1.025,1.2c0.414,0.451 0.982,0.845 1.704,1.181c0.721,0.335 1.669,0.503 2.842,0.503c1.571,-0 2.866,-0.373 3.888,-1.119c1.021,-0.745 1.532,-1.914 1.532,-3.505l0,-3.878l-0.253,0c-0.22,0.348 -0.53,0.777 -0.931,1.287c-0.401,0.509 -0.975,0.961 -1.722,1.355c-0.747,0.393 -1.754,0.59 -3.02,0.59c-1.57,0 -2.978,-0.365 -4.223,-1.094c-1.245,-0.729 -2.229,-1.79 -2.951,-3.182c-0.721,-1.392 -1.082,-3.082 -1.082,-5.071c-0,-1.955 0.35,-3.66 1.051,-5.114c0.7,-1.454 1.675,-2.581 2.925,-3.381c1.249,-0.799 2.693,-1.199 4.331,-1.199c1.266,-0 2.273,0.205 3.02,0.615c0.747,0.41 1.321,0.874 1.722,1.392c0.401,0.518 0.711,0.943 0.931,1.274l0.303,0l0,-3.033l2.888,0l-0,19.638c-0,1.641 -0.378,2.977 -1.134,4.009c-0.755,1.031 -1.768,1.789 -3.039,2.274c-1.27,0.485 -2.682,0.727 -4.236,0.727Zm-0.101,-10.49c1.199,0 2.212,-0.269 3.039,-0.808c0.828,-0.538 1.456,-1.313 1.887,-2.324c0.431,-1.011 0.646,-2.221 0.646,-3.629c-0,-1.376 -0.211,-2.59 -0.633,-3.642c-0.422,-1.052 -1.047,-1.877 -1.874,-2.473c-0.828,-0.597 -1.849,-0.895 -3.065,-0.895c-1.266,-0 -2.319,0.315 -3.159,0.944c-0.84,0.63 -1.469,1.475 -1.887,2.536c-0.418,1.06 -0.627,2.237 -0.627,3.53c0,1.325 0.213,2.496 0.64,3.511c0.426,1.015 1.059,1.81 1.899,2.386c0.84,0.576 1.885,0.864 3.134,0.864Z" style="fill:#919191;fill-rule:nonzero;"/><path d="M910.541,504.686l-0,-19.091l2.887,0l0,2.983l0.253,0c0.406,-1.019 1.06,-1.812 1.963,-2.38c0.903,-0.567 1.988,-0.851 3.254,-0.851c1.284,-0 2.354,0.284 3.211,0.851c0.856,0.568 1.525,1.361 2.007,2.38l0.202,0c0.498,-0.986 1.245,-1.771 2.242,-2.355c0.996,-0.584 2.19,-0.876 3.583,-0.876c1.739,-0 3.162,0.532 4.268,1.597c1.105,1.065 1.658,2.72 1.658,4.965l0,12.777l-2.988,0l-0,-12.777c-0,-1.408 -0.393,-2.415 -1.178,-3.02c-0.785,-0.605 -1.709,-0.907 -2.773,-0.907c-1.367,-0 -2.427,0.404 -3.178,1.212c-0.752,0.807 -1.127,1.829 -1.127,3.063l-0,12.429l-3.039,0l-0,-13.075c-0,-1.085 -0.359,-1.962 -1.077,-2.629c-0.717,-0.667 -1.642,-1 -2.773,-1c-0.777,-0 -1.5,0.203 -2.172,0.609c-0.671,0.406 -1.211,0.967 -1.62,1.684c-0.41,0.717 -0.615,1.543 -0.615,2.479l0,11.932l-2.988,0Z" style="fill:#919191;fill-rule:nonzero;"/><path d="M947.263,505.134c-1.232,-0 -2.351,-0.23 -3.355,-0.69c-1.005,-0.46 -1.803,-1.127 -2.394,-2.001c-0.591,-0.874 -0.886,-1.933 -0.886,-3.176c0,-1.093 0.22,-1.982 0.658,-2.666c0.439,-0.683 1.026,-1.22 1.761,-1.609c0.734,-0.39 1.547,-0.682 2.437,-0.877c0.891,-0.194 1.788,-0.35 2.691,-0.466c1.182,-0.149 2.142,-0.263 2.881,-0.341c0.739,-0.079 1.279,-0.214 1.621,-0.404c0.342,-0.191 0.513,-0.522 0.513,-0.995l-0,-0.099c-0,-1.226 -0.34,-2.179 -1.02,-2.859c-0.679,-0.679 -1.707,-1.019 -3.083,-1.019c-1.427,0 -2.545,0.307 -3.356,0.92c-0.81,0.613 -1.38,1.268 -1.709,1.964l-2.837,-0.995c0.507,-1.16 1.184,-2.065 2.033,-2.715c0.848,-0.651 1.777,-1.107 2.785,-1.368c1.009,-0.261 2.003,-0.391 2.983,-0.391c0.624,-0 1.344,0.072 2.159,0.217c0.814,0.145 1.604,0.442 2.368,0.889c0.764,0.447 1.399,1.123 1.905,2.026c0.507,0.903 0.76,2.113 0.76,3.629l0,12.578l-2.988,0l-0,-2.585l-0.152,0c-0.203,0.414 -0.541,0.858 -1.013,1.33c-0.473,0.472 -1.102,0.874 -1.887,1.206c-0.785,0.331 -1.743,0.497 -2.875,0.497Zm0.456,-2.635c1.182,-0 2.18,-0.228 2.995,-0.684c0.815,-0.456 1.431,-1.044 1.849,-1.765c0.418,-0.721 0.627,-1.479 0.627,-2.274l-0,-2.685c-0.127,0.149 -0.403,0.284 -0.83,0.404c-0.426,0.12 -0.916,0.224 -1.469,0.311c-0.553,0.087 -1.089,0.161 -1.608,0.224c-0.519,0.062 -0.939,0.113 -1.26,0.155c-0.777,0.099 -1.5,0.259 -2.172,0.478c-0.671,0.22 -1.211,0.547 -1.62,0.982c-0.41,0.435 -0.615,1.026 -0.615,1.771c0,1.02 0.387,1.788 1.159,2.306c0.773,0.518 1.754,0.777 2.944,0.777Z" style="fill:#919191;fill-rule:nonzero;"/><path d="M961.648,504.686l0,-19.091l2.989,0l-0,19.091l-2.989,0Zm1.52,-22.272c-0.583,-0 -1.083,-0.195 -1.501,-0.585c-0.417,-0.389 -0.626,-0.857 -0.626,-1.404c-0,-0.547 0.209,-1.015 0.626,-1.405c0.418,-0.389 0.918,-0.584 1.501,-0.584c0.582,0 1.083,0.195 1.501,0.584c0.417,0.39 0.626,0.858 0.626,1.405c0,0.547 -0.209,1.015 -0.626,1.404c-0.418,0.39 -0.919,0.585 -1.501,0.585Z" style="fill:#919191;fill-rule:nonzero;"/><rect x="970.107" y="479.232" width="2.988" height="25.455" style="fill:#919191;fill-rule:nonzero;"/><path d="M980.744,504.885c-0.625,0 -1.161,-0.219 -1.608,-0.659c-0.448,-0.439 -0.671,-0.965 -0.671,-1.578c-0,-0.613 0.223,-1.139 0.671,-1.579c0.447,-0.439 0.983,-0.658 1.608,-0.658c0.625,-0 1.161,0.219 1.608,0.658c0.448,0.44 0.671,0.966 0.671,1.579c0,0.406 -0.103,0.779 -0.31,1.119c-0.207,0.339 -0.481,0.611 -0.823,0.814c-0.342,0.203 -0.724,0.304 -1.146,0.304Z" style="fill:#919191;fill-rule:nonzero;"/><path d="M996.294,505.084c-1.823,0 -3.394,-0.423 -4.71,-1.268c-1.317,-0.845 -2.33,-2.009 -3.04,-3.492c-0.709,-1.483 -1.063,-3.178 -1.063,-5.084c-0,-1.939 0.365,-3.652 1.095,-5.139c0.73,-1.487 1.752,-2.652 3.064,-3.493c1.313,-0.841 2.848,-1.261 4.603,-1.261c1.368,-0 2.601,0.248 3.698,0.746c1.097,0.497 1.997,1.193 2.697,2.088c0.701,0.895 1.136,1.939 1.304,3.132l-2.988,-0c-0.228,-0.87 -0.732,-1.643 -1.513,-2.318c-0.781,-0.676 -1.83,-1.013 -3.147,-1.013c-1.165,-0 -2.184,0.296 -3.058,0.888c-0.874,0.593 -1.553,1.426 -2.039,2.499c-0.485,1.073 -0.728,2.33 -0.728,3.772c0,1.475 0.239,2.759 0.716,3.853c0.477,1.094 1.152,1.943 2.026,2.548c0.873,0.605 1.901,0.907 3.083,0.907c0.777,0 1.482,-0.132 2.115,-0.398c0.633,-0.265 1.169,-0.646 1.608,-1.143c0.439,-0.497 0.751,-1.094 0.937,-1.79l2.988,0c-0.168,1.127 -0.584,2.14 -1.247,3.039c-0.662,0.899 -1.536,1.612 -2.621,2.138c-1.085,0.526 -2.345,0.789 -3.78,0.789Z" style="fill:#919191;fill-rule:nonzero;"/><path d="M1016.2,505.084c-1.756,0 -3.294,-0.41 -4.615,-1.23c-1.322,-0.821 -2.352,-1.968 -3.09,-3.443c-0.739,-1.475 -1.108,-3.199 -1.108,-5.171c-0,-1.988 0.369,-3.724 1.108,-5.207c0.738,-1.484 1.768,-2.635 3.09,-3.456c1.321,-0.82 2.859,-1.23 4.615,-1.23c1.756,-0 3.295,0.41 4.616,1.23c1.321,0.821 2.351,1.972 3.09,3.456c0.738,1.483 1.108,3.219 1.108,5.207c-0,1.972 -0.37,3.696 -1.108,5.171c-0.739,1.475 -1.769,2.622 -3.09,3.443c-1.321,0.82 -2.86,1.23 -4.616,1.23Zm0,-2.635c1.334,0 2.431,-0.335 3.293,-1.007c0.861,-0.671 1.498,-1.553 1.912,-2.647c0.413,-1.094 0.62,-2.279 0.62,-3.555c0,-1.276 -0.207,-2.465 -0.62,-3.567c-0.414,-1.102 -1.051,-1.993 -1.912,-2.672c-0.862,-0.68 -1.959,-1.019 -3.293,-1.019c-1.334,-0 -2.431,0.339 -3.292,1.019c-0.861,0.679 -1.499,1.57 -1.912,2.672c-0.414,1.102 -0.621,2.291 -0.621,3.567c0,1.276 0.207,2.461 0.621,3.555c0.413,1.094 1.051,1.976 1.912,2.647c0.861,0.672 1.958,1.007 3.292,1.007Z" style="fill:#919191;fill-rule:nonzero;"/><path d="M1029.57,504.686l0,-19.091l2.887,0l0,2.983l0.254,0c0.405,-1.019 1.059,-1.812 1.962,-2.38c0.904,-0.567 1.988,-0.851 3.255,-0.851c1.283,-0 2.353,0.284 3.21,0.851c0.857,0.568 1.526,1.361 2.007,2.38l0.202,0c0.499,-0.986 1.246,-1.771 2.242,-2.355c0.996,-0.584 2.19,-0.876 3.583,-0.876c1.739,-0 3.162,0.532 4.268,1.597c1.106,1.065 1.659,2.72 1.659,4.965l-0,12.777l-2.989,0l0,-12.777c0,-1.408 -0.392,-2.415 -1.177,-3.02c-0.786,-0.605 -1.71,-0.907 -2.774,-0.907c-1.367,-0 -2.427,0.404 -3.178,1.212c-0.751,0.807 -1.127,1.829 -1.127,3.063l-0,12.429l-3.039,0l-0,-13.075c-0,-1.085 -0.359,-1.962 -1.076,-2.629c-0.718,-0.667 -1.642,-1 -2.774,-1c-0.776,-0 -1.5,0.203 -2.171,0.609c-0.671,0.406 -1.212,0.967 -1.621,1.684c-0.41,0.717 -0.614,1.543 -0.614,2.479l-0,11.932l-2.989,0Z" style="fill:#919191;fill-rule:nonzero;"/></g></g></g><g><path d="M615.506,639.003l-0,-36.364l14.332,0c2.761,0 5.111,0.525 7.053,1.574c1.941,1.048 3.424,2.5 4.449,4.353c1.025,1.854 1.538,3.983 1.538,6.389c-0,2.419 -0.52,4.551 -1.561,6.395c-1.04,1.844 -2.546,3.283 -4.517,4.315c-1.971,1.032 -4.353,1.548 -7.146,1.548l-9.148,0l-0,-6.165l7.897,0c1.478,0 2.7,-0.257 3.667,-0.772c0.967,-0.515 1.692,-1.23 2.173,-2.147c0.482,-0.916 0.723,-1.974 0.723,-3.174c0,-1.208 -0.241,-2.263 -0.723,-3.166c-0.481,-0.903 -1.208,-1.605 -2.18,-2.106c-0.972,-0.501 -2.201,-0.751 -3.688,-0.751l-5.185,-0l0,30.071l-7.684,-0Z" style="fill-rule:nonzero;"/><path d="M654.881,639.514c-1.735,0 -3.284,-0.303 -4.647,-0.911c-1.362,-0.607 -2.436,-1.512 -3.222,-2.714c-0.786,-1.203 -1.179,-2.703 -1.179,-4.5c-0,-1.52 0.275,-2.793 0.827,-3.819c0.552,-1.026 1.307,-1.853 2.266,-2.48c0.958,-0.628 2.052,-1.104 3.279,-1.428c1.228,-0.324 2.517,-0.552 3.869,-0.682c1.579,-0.156 2.855,-0.308 3.826,-0.456c0.972,-0.148 1.678,-0.37 2.119,-0.668c0.44,-0.297 0.66,-0.736 0.66,-1.319l0,-0.099c0,-1.127 -0.354,-1.998 -1.062,-2.614c-0.707,-0.615 -1.703,-0.923 -2.986,-0.923c-1.361,-0 -2.445,0.297 -3.251,0.893c-0.806,0.595 -1.337,1.344 -1.593,2.246l-7.003,-0.568c0.355,-1.657 1.053,-3.093 2.094,-4.306c1.04,-1.213 2.386,-2.148 4.039,-2.805c1.652,-0.657 3.567,-0.986 5.742,-0.986c1.522,0 2.977,0.178 4.364,0.535c1.388,0.356 2.622,0.905 3.704,1.647c1.082,0.742 1.937,1.696 2.566,2.862c0.629,1.166 0.943,2.563 0.943,4.189l-0,18.395l-7.173,-0l-0,-3.778l-0.214,-0c-0.44,0.847 -1.025,1.594 -1.755,2.24c-0.731,0.647 -1.613,1.15 -2.646,1.51c-1.033,0.359 -2.222,0.539 -3.567,0.539Zm2.173,-5.213c1.11,0 2.091,-0.222 2.942,-0.667c0.851,-0.445 1.518,-1.048 2.001,-1.808c0.483,-0.76 0.725,-1.616 0.725,-2.567l-0,-2.898c-0.227,0.149 -0.548,0.286 -0.961,0.412c-0.413,0.125 -0.872,0.238 -1.378,0.337c-0.505,0.1 -1.012,0.188 -1.52,0.266c-0.507,0.079 -0.968,0.147 -1.383,0.206c-0.89,0.128 -1.667,0.335 -2.331,0.62c-0.664,0.285 -1.18,0.668 -1.548,1.147c-0.369,0.48 -0.553,1.074 -0.553,1.785c0,1.037 0.377,1.824 1.13,2.361c0.752,0.538 1.711,0.806 2.876,0.806Z" style="fill-rule:nonzero;"/><path d="M697.992,619.5l-6.918,0.426c-0.123,-0.584 -0.379,-1.117 -0.767,-1.598c-0.388,-0.48 -0.9,-0.864 -1.536,-1.152c-0.636,-0.288 -1.393,-0.432 -2.271,-0.432c-1.172,0 -2.16,0.245 -2.965,0.736c-0.805,0.49 -1.204,1.139 -1.197,1.949c-0.007,0.658 0.249,1.211 0.769,1.659c0.52,0.447 1.414,0.808 2.683,1.083l4.943,0.994c2.651,0.542 4.626,1.416 5.925,2.622c1.299,1.207 1.951,2.795 1.958,4.764c-0.007,1.79 -0.532,3.359 -1.574,4.707c-1.043,1.349 -2.476,2.397 -4.297,3.147c-1.822,0.749 -3.913,1.123 -6.273,1.123c-3.613,0 -6.489,-0.752 -8.628,-2.258c-2.139,-1.506 -3.387,-3.561 -3.744,-6.165l7.428,-0.398c0.23,1.106 0.775,1.946 1.636,2.52c0.86,0.574 1.968,0.861 3.322,0.861c1.321,0 2.388,-0.259 3.201,-0.777c0.813,-0.519 1.224,-1.183 1.231,-1.993c-0.007,-0.691 -0.294,-1.258 -0.861,-1.701c-0.567,-0.442 -1.445,-0.784 -2.634,-1.026l-4.715,-0.937c-2.669,-0.528 -4.651,-1.45 -5.949,-2.767c-1.297,-1.316 -1.942,-2.993 -1.935,-5.032c-0.007,-1.752 0.467,-3.26 1.422,-4.526c0.955,-1.265 2.301,-2.24 4.038,-2.926c1.736,-0.685 3.766,-1.028 6.088,-1.028c3.445,0 6.16,0.727 8.145,2.18c1.985,1.454 3.143,3.436 3.475,5.945Z" style="fill-rule:nonzero;"/><path d="M724.128,619.5l-6.918,0.426c-0.123,-0.584 -0.378,-1.117 -0.767,-1.598c-0.388,-0.48 -0.9,-0.864 -1.536,-1.152c-0.635,-0.288 -1.392,-0.432 -2.271,-0.432c-1.171,0 -2.16,0.245 -2.965,0.736c-0.805,0.49 -1.204,1.139 -1.197,1.949c-0.007,0.658 0.25,1.211 0.769,1.659c0.52,0.447 1.414,0.808 2.683,1.083l4.943,0.994c2.652,0.542 4.627,1.416 5.925,2.622c1.299,1.207 1.952,2.795 1.959,4.764c-0.007,1.79 -0.532,3.359 -1.575,4.707c-1.043,1.349 -2.475,2.397 -4.297,3.147c-1.822,0.749 -3.913,1.123 -6.273,1.123c-3.613,0 -6.488,-0.752 -8.627,-2.258c-2.139,-1.506 -3.387,-3.561 -3.745,-6.165l7.429,-0.398c0.229,1.106 0.774,1.946 1.635,2.52c0.861,0.574 1.968,0.861 3.322,0.861c1.321,0 2.388,-0.259 3.202,-0.777c0.813,-0.519 1.223,-1.183 1.23,-1.993c-0.007,-0.691 -0.294,-1.258 -0.861,-1.701c-0.567,-0.442 -1.445,-0.784 -2.633,-1.026l-4.716,-0.937c-2.668,-0.528 -4.651,-1.45 -5.948,-2.767c-1.298,-1.316 -1.943,-2.993 -1.936,-5.032c-0.007,-1.752 0.467,-3.26 1.423,-4.526c0.955,-1.265 2.301,-2.24 4.037,-2.926c1.737,-0.685 3.766,-1.028 6.089,-1.028c3.444,0 6.159,0.727 8.144,2.18c1.985,1.454 3.144,3.436 3.475,5.945Z" style="fill-rule:nonzero;"/><path d="M732.949,639.003l-7.415,-27.273l7.642,0l4.233,18.324l0.242,0l4.417,-18.324l7.5,0l4.475,18.211l0.241,-0l4.148,-18.211l7.642,0l-7.415,27.273l-7.997,-0l-4.688,-17.159l-0.34,-0l-4.688,17.159l-7.997,-0Z" style="fill-rule:nonzero;"/><path d="M779.597,639.528c-2.761,0 -5.144,-0.587 -7.149,-1.763c-2.005,-1.175 -3.552,-2.818 -4.641,-4.928c-1.089,-2.111 -1.634,-4.568 -1.634,-7.371c0,-2.812 0.545,-5.276 1.634,-7.392c1.089,-2.115 2.636,-3.76 4.641,-4.936c2.005,-1.175 4.388,-1.763 7.149,-1.763c2.76,0 5.143,0.588 7.148,1.763c2.005,1.176 3.552,2.821 4.641,4.936c1.089,2.116 1.634,4.58 1.634,7.392c-0,2.803 -0.545,5.26 -1.634,7.371c-1.089,2.11 -2.636,3.753 -4.641,4.928c-2.005,1.176 -4.388,1.763 -7.148,1.763Zm0.042,-5.852c1.246,0 2.291,-0.358 3.136,-1.076c0.845,-0.717 1.483,-1.697 1.914,-2.94c0.431,-1.243 0.646,-2.655 0.646,-4.236c0,-1.589 -0.215,-3.005 -0.646,-4.25c-0.431,-1.244 -1.069,-2.227 -1.914,-2.949c-0.845,-0.722 -1.89,-1.083 -3.136,-1.083c-1.273,0 -2.34,0.361 -3.199,1.083c-0.86,0.722 -1.505,1.705 -1.936,2.949c-0.431,1.245 -0.646,2.661 -0.646,4.25c-0,1.581 0.215,2.993 0.646,4.236c0.431,1.243 1.076,2.223 1.936,2.94c0.859,0.718 1.926,1.076 3.199,1.076Z" style="fill-rule:nonzero;"/><path d="M797.111,639.003l0,-27.273l7.329,0l0,4.759l0.284,-0c0.497,-1.691 1.331,-2.97 2.502,-3.839c1.171,-0.869 2.52,-1.303 4.047,-1.303c0.379,-0 0.786,0.022 1.223,0.065c0.437,0.044 0.82,0.106 1.149,0.187l-0,6.722c-0.348,-0.114 -0.836,-0.211 -1.463,-0.291c-0.627,-0.081 -1.205,-0.121 -1.733,-0.121c-1.106,0 -2.095,0.24 -2.967,0.719c-0.872,0.48 -1.56,1.145 -2.061,1.996c-0.502,0.851 -0.753,1.835 -0.753,2.953l-0,15.426l-7.557,-0Z" style="fill-rule:nonzero;"/><path d="M824.909,639.443c-2.074,0 -3.947,-0.536 -5.619,-1.608c-1.673,-1.073 -2.999,-2.653 -3.978,-4.741c-0.979,-2.088 -1.468,-4.655 -1.468,-7.699c-0,-3.12 0.503,-5.72 1.511,-7.798c1.007,-2.079 2.35,-3.635 4.027,-4.67c1.677,-1.035 3.515,-1.552 5.513,-1.552c1.52,0 2.792,0.258 3.818,0.773c1.025,0.514 1.853,1.152 2.485,1.914c0.632,0.761 1.117,1.513 1.453,2.256l0.227,0l-0,-13.679l7.557,0l-0,36.364l-7.458,-0l0,-4.361l-0.326,0c-0.351,0.753 -0.851,1.498 -1.501,2.236c-0.649,0.737 -1.485,1.349 -2.507,1.835c-1.021,0.487 -2.266,0.73 -3.734,0.73Zm2.401,-6.022c1.212,-0 2.243,-0.335 3.095,-1.003c0.851,-0.669 1.502,-1.607 1.953,-2.813c0.451,-1.206 0.676,-2.619 0.676,-4.238c0,-1.624 -0.223,-3.033 -0.669,-4.225c-0.446,-1.192 -1.095,-2.114 -1.946,-2.766c-0.851,-0.652 -1.888,-0.978 -3.109,-0.978c-1.25,-0 -2.301,0.335 -3.152,1.006c-0.851,0.672 -1.495,1.606 -1.932,2.802c-0.436,1.197 -0.655,2.584 -0.655,4.161c0,1.586 0.221,2.984 0.662,4.195c0.442,1.211 1.088,2.157 1.939,2.838c0.851,0.68 1.897,1.021 3.138,1.021Z" style="fill-rule:nonzero;"/><path d="M1132.52,688.376c0,-14.388 -11.681,-26.068 -26.068,-26.068l-462.611,0c-14.387,0 -26.068,11.68 -26.068,26.068l0,52.136c0,14.387 11.681,26.068 26.068,26.068l462.611,0c14.387,0 26.068,-11.681 26.068,-26.068l0,-52.136Z" style="fill:#fff;stroke:#212529;stroke-width:12.5px;"/><path d="M652.784,722.654l0.203,-5.468l-4.711,2.933l-1.215,-2.088l4.964,-2.536l-4.964,-2.535l1.215,-2.088l4.711,2.933l-0.203,-5.469l2.432,0l-0.203,5.469l4.711,-2.933l1.215,2.088l-4.964,2.535l4.964,2.536l-1.215,2.088l-4.711,-2.933l0.203,5.468l-2.432,0Z" style="fill:#919191;fill-rule:nonzero;"/><path d="M670.614,722.654l0.202,-5.468l-4.71,2.933l-1.216,-2.088l4.964,-2.536l-4.964,-2.535l1.216,-2.088l4.71,2.933l-0.202,-5.469l2.431,0l-0.203,5.469l4.711,-2.933l1.216,2.088l-4.964,2.535l4.964,2.536l-1.216,2.088l-4.711,-2.933l0.203,5.468l-2.431,0Z" style="fill:#919191;fill-rule:nonzero;"/><path d="M688.443,722.654l0.203,-5.468l-4.711,2.933l-1.215,-2.088l4.963,-2.536l-4.963,-2.535l1.215,-2.088l4.711,2.933l-0.203,-5.469l2.431,0l-0.202,5.469l4.71,-2.933l1.216,2.088l-4.964,2.535l4.964,2.536l-1.216,2.088l-4.71,-2.933l0.202,5.468l-2.431,0Z" style="fill:#919191;fill-rule:nonzero;"/><path d="M706.273,722.654l0.202,-5.468l-4.71,2.933l-1.216,-2.088l4.964,-2.536l-4.964,-2.535l1.216,-2.088l4.71,2.933l-0.202,-5.469l2.431,0l-0.203,5.469l4.711,-2.933l1.215,2.088l-4.963,2.535l4.963,2.536l-1.215,2.088l-4.711,-2.933l0.203,5.468l-2.431,0Z" style="fill:#919191;fill-rule:nonzero;"/><path d="M724.102,722.654l0.202,-5.468l-4.71,2.933l-1.216,-2.088l4.964,-2.536l-4.964,-2.535l1.216,-2.088l4.71,2.933l-0.202,-5.469l2.431,0l-0.202,5.469l4.71,-2.933l1.216,2.088l-4.964,2.535l4.964,2.536l-1.216,2.088l-4.71,-2.933l0.202,5.468l-2.431,0Z" style="fill:#919191;fill-rule:nonzero;"/><path d="M741.931,722.654l0.203,-5.468l-4.711,2.933l-1.215,-2.088l4.963,-2.536l-4.963,-2.535l1.215,-2.088l4.711,2.933l-0.203,-5.469l2.432,0l-0.203,5.469l4.71,-2.933l1.216,2.088l-4.964,2.535l4.964,2.536l-1.216,2.088l-4.71,-2.933l0.203,5.468l-2.432,0Z" style="fill:#919191;fill-rule:nonzero;"/><path d="M759.761,722.654l0.202,-5.468l-4.71,2.933l-1.216,-2.088l4.964,-2.536l-4.964,-2.535l1.216,-2.088l4.71,2.933l-0.202,-5.469l2.431,0l-0.203,5.469l4.711,-2.933l1.215,2.088l-4.963,2.535l4.963,2.536l-1.215,2.088l-4.711,-2.933l0.203,5.468l-2.431,0Z" style="fill:#919191;fill-rule:nonzero;"/><path d="M777.59,722.654l0.203,-5.468l-4.711,2.933l-1.216,-2.088l4.964,-2.536l-4.964,-2.535l1.216,-2.088l4.711,2.933l-0.203,-5.469l2.431,0l-0.202,5.469l4.71,-2.933l1.216,2.088l-4.964,2.535l4.964,2.536l-1.216,2.088l-4.71,-2.933l0.202,5.468l-2.431,0Z" style="fill:#919191;fill-rule:nonzero;"/><path d="M795.419,722.654l0.203,-5.468l-4.711,2.933l-1.215,-2.088l4.964,-2.536l-4.964,-2.535l1.215,-2.088l4.711,2.933l-0.203,-5.469l2.432,0l-0.203,5.469l4.711,-2.933l1.215,2.088l-4.964,2.535l4.964,2.536l-1.215,2.088l-4.711,-2.933l0.203,5.468l-2.432,0Z" style="fill:#919191;fill-rule:nonzero;"/><path d="M813.249,722.654l0.202,-5.468l-4.71,2.933l-1.216,-2.088l4.964,-2.536l-4.964,-2.535l1.216,-2.088l4.71,2.933l-0.202,-5.469l2.431,0l-0.203,5.469l4.711,-2.933l1.216,2.088l-4.964,2.535l4.964,2.536l-1.216,2.088l-4.711,-2.933l0.203,5.468l-2.431,0Z" style="fill:#919191;fill-rule:nonzero;"/></g></g><g><g><path d="M535.889,1023.13l-6.667,-0l10.142,-28.834l8.001,-0l10.143,28.834l-6.668,-0l-7.354,-22.251l-0.242,0l-7.355,22.251Zm-0.444,-11.344l15.759,0l0,4.76l-15.759,-0l-0,-4.76Z" style="fill:#f85555;fill-rule:nonzero;"/></g><g><path d="M564.14,1010.63l0,12.494l-6.101,-0l-0,-21.616l5.819,0l-0,3.808l0.242,-0c0.485,-1.27 1.293,-2.261 2.465,-3.015c1.131,-0.714 2.546,-1.11 4.162,-1.11c1.536,-0 2.869,0.357 4,0.991c1.132,0.675 2.021,1.626 2.667,2.816c0.607,1.23 0.93,2.658 0.93,4.363l-0,13.763l-6.102,-0l0,-12.692c0,-1.349 -0.323,-2.38 -1.05,-3.133c-0.687,-0.754 -1.657,-1.111 -2.869,-1.111c-0.809,0 -1.536,0.159 -2.183,0.516c-0.606,0.357 -1.091,0.872 -1.454,1.507c-0.364,0.674 -0.526,1.467 -0.526,2.419Z" style="fill:#f85555;fill-rule:nonzero;"/></g><g><path d="M603.071,1023.56c-2.263,0 -4.202,-0.476 -5.859,-1.388c-1.616,-0.873 -2.869,-2.181 -3.758,-3.847c-0.889,-1.666 -1.334,-3.649 -1.334,-5.91c0,-2.221 0.445,-4.204 1.334,-5.87c0.889,-1.666 2.142,-2.975 3.717,-3.926c1.617,-0.952 3.476,-1.428 5.658,-1.428c1.454,-0 2.828,0.238 4.081,0.714c1.253,0.436 2.344,1.11 3.273,2.022c0.97,0.913 1.697,2.063 2.222,3.451c0.526,1.388 0.768,2.975 0.768,4.799l0,1.666l-18.588,-0l0,-3.728l12.85,-0c0,-0.873 -0.202,-1.626 -0.565,-2.301c-0.405,-0.634 -0.93,-1.19 -1.617,-1.547c-0.646,-0.396 -1.455,-0.594 -2.344,-0.594c-0.888,-0 -1.737,0.237 -2.424,0.634c-0.727,0.436 -1.293,0.992 -1.697,1.706c-0.404,0.674 -0.606,1.467 -0.606,2.3l-0,3.53c-0,1.071 0.202,2.023 0.606,2.776c0.404,0.793 0.97,1.388 1.737,1.825c0.728,0.396 1.617,0.634 2.627,0.634c0.687,0 1.333,-0.119 1.899,-0.277c0.525,-0.199 1.01,-0.476 1.414,-0.873c0.445,-0.357 0.728,-0.833 0.93,-1.348l5.657,0.357c-0.283,1.308 -0.889,2.498 -1.738,3.49c-0.889,0.991 -2.02,1.745 -3.434,2.3c-1.374,0.555 -2.99,0.833 -4.809,0.833Z" style="fill:#f85555;fill-rule:nonzero;"/></g><g><path d="M616.585,1023.13l-0,-21.616l5.899,0l0,3.768l0.243,-0c0.404,-1.349 1.051,-2.38 2.02,-3.054c0.93,-0.674 2.021,-1.031 3.273,-1.031c0.283,-0 0.607,-0 0.97,0.039c0.364,0.04 0.687,0.08 0.93,0.159l-0,5.315c-0.283,-0.08 -0.687,-0.159 -1.172,-0.199c-0.526,-0.079 -0.97,-0.119 -1.415,-0.119c-0.888,0 -1.697,0.199 -2.384,0.595c-0.727,0.357 -1.252,0.873 -1.656,1.547c-0.404,0.674 -0.606,1.468 -0.606,2.34l-0,12.256l-6.102,-0Z" style="fill:#f85555;fill-rule:nonzero;"/></g><g><path d="M631.623,1023.13l-0,-21.616l5.899,0l0,3.768l0.243,-0c0.404,-1.349 1.05,-2.38 2.02,-3.054c0.929,-0.674 2.02,-1.031 3.273,-1.031c0.283,-0 0.606,-0 0.97,0.039c0.364,0.04 0.687,0.08 0.929,0.159l0,5.315c-0.283,-0.08 -0.687,-0.159 -1.172,-0.199c-0.525,-0.079 -0.969,-0.119 -1.414,-0.119c-0.889,0 -1.697,0.199 -2.384,0.595c-0.727,0.357 -1.253,0.873 -1.657,1.547c-0.404,0.674 -0.606,1.468 -0.606,2.34l0,12.256l-6.101,-0Z" style="fill:#f85555;fill-rule:nonzero;"/></g><g><path d="M655.925,1023.56c-2.222,0 -4.162,-0.476 -5.778,-1.428c-1.616,-0.912 -2.869,-2.221 -3.758,-3.887c-0.889,-1.705 -1.334,-3.649 -1.334,-5.87c0,-2.221 0.445,-4.164 1.334,-5.87c0.889,-1.665 2.142,-2.974 3.758,-3.886c1.616,-0.952 3.556,-1.428 5.778,-1.428c2.223,-0 4.162,0.476 5.779,1.428c1.616,0.912 2.869,2.221 3.758,3.886c0.848,1.706 1.293,3.649 1.293,5.87c-0,2.221 -0.445,4.165 -1.293,5.87c-0.889,1.666 -2.142,2.975 -3.758,3.887c-1.617,0.952 -3.556,1.428 -5.779,1.428Zm0.041,-4.68c1.01,-0 1.818,-0.278 2.505,-0.833c0.687,-0.555 1.212,-1.348 1.576,-2.34c0.323,-0.992 0.525,-2.102 0.525,-3.371c0,-1.23 -0.202,-2.38 -0.525,-3.372c-0.364,-0.951 -0.889,-1.745 -1.576,-2.34c-0.687,-0.555 -1.495,-0.832 -2.505,-0.832c-1.051,-0 -1.899,0.277 -2.586,0.832c-0.728,0.595 -1.213,1.389 -1.576,2.34c-0.364,0.992 -0.526,2.142 -0.526,3.372c0,1.269 0.162,2.379 0.526,3.371c0.363,0.992 0.848,1.785 1.576,2.34c0.687,0.555 1.535,0.833 2.586,0.833Z" style="fill:#f85555;fill-rule:nonzero;"/></g><g><path d="M670.091,1023.13l0,-21.616l5.9,0l0,3.768l0.242,-0c0.405,-1.349 1.051,-2.38 2.021,-3.054c0.929,-0.674 2.02,-1.031 3.273,-1.031c0.283,-0 0.606,-0 0.97,0.039c0.363,0.04 0.687,0.08 0.929,0.159l0,5.315c-0.283,-0.08 -0.687,-0.159 -1.172,-0.199c-0.525,-0.079 -0.969,-0.119 -1.414,-0.119c-0.889,0 -1.697,0.199 -2.384,0.595c-0.727,0.357 -1.253,0.873 -1.657,1.547c-0.404,0.674 -0.606,1.468 -0.606,2.34l0,12.256l-6.102,-0Z" style="fill:#f85555;fill-rule:nonzero;"/></g><g><path d="M706.436,1023.56c-2.223,0 -4.162,-0.476 -5.779,-1.428c-1.616,-0.912 -2.869,-2.221 -3.758,-3.887c-0.888,-1.705 -1.333,-3.649 -1.333,-5.87c0,-2.221 0.445,-4.164 1.333,-5.87c0.889,-1.665 2.142,-2.974 3.758,-3.886c1.617,-0.952 3.556,-1.428 5.779,-1.428c2.222,-0 4.162,0.476 5.778,1.428c1.617,0.912 2.869,2.221 3.758,3.886c0.849,1.706 1.293,3.649 1.293,5.87c0,2.221 -0.444,4.165 -1.293,5.87c-0.889,1.666 -2.141,2.975 -3.758,3.887c-1.616,0.952 -3.556,1.428 -5.778,1.428Zm0.04,-4.68c1.01,-0 1.819,-0.278 2.506,-0.833c0.687,-0.555 1.212,-1.348 1.576,-2.34c0.323,-0.992 0.525,-2.102 0.525,-3.371c-0,-1.23 -0.202,-2.38 -0.525,-3.372c-0.364,-0.951 -0.889,-1.745 -1.576,-2.34c-0.687,-0.555 -1.496,-0.832 -2.506,-0.832c-1.05,-0 -1.899,0.277 -2.586,0.832c-0.727,0.595 -1.212,1.389 -1.576,2.34c-0.363,0.992 -0.525,2.142 -0.525,3.372c-0,1.269 0.162,2.379 0.525,3.371c0.364,0.992 0.849,1.785 1.576,2.34c0.687,0.555 1.536,0.833 2.586,0.833Z" style="fill:#f85555;fill-rule:nonzero;"/></g><g><path d="M730.542,1023.56c-2.262,0 -4.202,-0.476 -5.818,-1.428c-1.617,-0.952 -2.869,-2.26 -3.718,-3.926c-0.889,-1.706 -1.333,-3.61 -1.333,-5.831c-0,-2.181 0.444,-4.124 1.333,-5.83c0.889,-1.666 2.101,-2.975 3.718,-3.926c1.616,-0.952 3.556,-1.428 5.778,-1.428c1.94,-0 3.596,0.357 5.051,1.031c1.455,0.714 2.586,1.666 3.435,2.895c0.848,1.269 1.293,2.697 1.374,4.363l-5.738,0c-0.162,-1.071 -0.606,-1.943 -1.293,-2.618c-0.687,-0.634 -1.617,-0.991 -2.708,-0.991c-0.97,-0 -1.778,0.277 -2.505,0.753c-0.687,0.516 -1.253,1.23 -1.616,2.221c-0.405,0.952 -0.607,2.103 -0.607,3.451c0,1.388 0.202,2.578 0.566,3.53c0.404,0.952 0.97,1.705 1.657,2.221c0.727,0.516 1.535,0.754 2.505,0.754c0.687,-0 1.293,-0.159 1.859,-0.437c0.566,-0.277 1.01,-0.674 1.414,-1.229c0.364,-0.516 0.606,-1.19 0.728,-1.944l5.738,0c-0.081,1.666 -0.526,3.094 -1.374,4.363c-0.808,1.269 -1.94,2.221 -3.354,2.935c-1.455,0.714 -3.152,1.071 -5.092,1.071Z" style="fill:#f85555;fill-rule:nonzero;"/></g><g><path d="M753.099,1023.56c-2.263,0 -4.203,-0.476 -5.819,-1.428c-1.616,-0.952 -2.869,-2.26 -3.717,-3.926c-0.889,-1.706 -1.334,-3.61 -1.334,-5.831c0,-2.181 0.445,-4.124 1.334,-5.83c0.889,-1.666 2.101,-2.975 3.717,-3.926c1.616,-0.952 3.556,-1.428 5.779,-1.428c1.939,-0 3.596,0.357 5.051,1.031c1.454,0.714 2.586,1.666 3.434,2.895c0.849,1.269 1.293,2.697 1.374,4.363l-5.738,0c-0.161,-1.071 -0.606,-1.943 -1.293,-2.618c-0.687,-0.634 -1.616,-0.991 -2.707,-0.991c-0.97,-0 -1.778,0.277 -2.506,0.753c-0.686,0.516 -1.252,1.23 -1.616,2.221c-0.404,0.952 -0.606,2.103 -0.606,3.451c-0,1.388 0.202,2.578 0.566,3.53c0.404,0.952 0.97,1.705 1.656,2.221c0.728,0.516 1.536,0.754 2.506,0.754c0.687,-0 1.293,-0.159 1.859,-0.437c0.565,-0.277 1.01,-0.674 1.414,-1.229c0.364,-0.516 0.606,-1.19 0.727,-1.944l5.738,0c-0.081,1.666 -0.525,3.094 -1.374,4.363c-0.808,1.269 -1.939,2.221 -3.354,2.935c-1.454,0.714 -3.151,1.071 -5.091,1.071Z" style="fill:#f85555;fill-rule:nonzero;"/></g><g><path d="M779.82,1013.92l0,-12.414l6.102,0l0,21.616l-5.859,-0l-0,-3.927l-0.202,0c-0.525,1.269 -1.334,2.301 -2.505,3.054c-1.132,0.754 -2.546,1.15 -4.203,1.15c-1.455,0 -2.748,-0.317 -3.879,-0.991c-1.132,-0.635 -2.021,-1.587 -2.627,-2.776c-0.646,-1.23 -0.929,-2.697 -0.929,-4.363l-0,-13.763l6.102,0l-0,12.692c-0,1.269 0.323,2.3 1.05,3.014c0.687,0.754 1.617,1.111 2.748,1.111c0.727,-0 1.414,-0.159 2.061,-0.476c0.646,-0.357 1.172,-0.833 1.576,-1.507c0.404,-0.635 0.565,-1.468 0.565,-2.42Z" style="fill:#f85555;fill-rule:nonzero;"/></g><g><path d="M789.192,1023.13l0,-21.616l5.9,0l-0,3.768l0.242,-0c0.405,-1.349 1.051,-2.38 2.021,-3.054c0.929,-0.674 2.02,-1.031 3.273,-1.031c0.283,-0 0.606,-0 0.97,0.039c0.363,0.04 0.687,0.08 0.929,0.159l0,5.315c-0.283,-0.08 -0.687,-0.159 -1.172,-0.199c-0.525,-0.079 -0.97,-0.119 -1.414,-0.119c-0.889,0 -1.697,0.199 -2.384,0.595c-0.727,0.357 -1.253,0.873 -1.657,1.547c-0.404,0.674 -0.606,1.468 -0.606,2.34l0,12.256l-6.102,-0Z" style="fill:#f85555;fill-rule:nonzero;"/></g><g><path d="M804.233,1023.13l-0,-21.616l5.9,0l-0,3.768l0.242,-0c0.404,-1.349 1.051,-2.38 2.02,-3.054c0.93,-0.674 2.021,-1.031 3.274,-1.031c0.282,-0 0.606,-0 0.969,0.039c0.364,0.04 0.687,0.08 0.93,0.159l-0,5.315c-0.283,-0.08 -0.687,-0.159 -1.172,-0.199c-0.525,-0.079 -0.97,-0.119 -1.414,-0.119c-0.889,0 -1.698,0.199 -2.385,0.595c-0.727,0.357 -1.252,0.873 -1.656,1.547c-0.404,0.674 -0.606,1.468 -0.606,2.34l-0,12.256l-6.102,-0Z" style="fill:#f85555;fill-rule:nonzero;"/></g><g><path d="M828.617,1023.56c-2.263,0 -4.203,-0.476 -5.86,-1.388c-1.616,-0.873 -2.869,-2.181 -3.758,-3.847c-0.889,-1.666 -1.333,-3.649 -1.333,-5.91c-0,-2.221 0.444,-4.204 1.333,-5.87c0.889,-1.666 2.142,-2.975 3.718,-3.926c1.616,-0.952 3.475,-1.428 5.657,-1.428c1.455,-0 2.829,0.238 4.081,0.714c1.253,0.436 2.344,1.11 3.273,2.022c0.97,0.913 1.698,2.063 2.223,3.451c0.525,1.388 0.768,2.975 0.768,4.799l-0,1.666l-18.588,-0l-0,-3.728l12.85,-0c-0,-0.873 -0.202,-1.626 -0.566,-2.301c-0.404,-0.634 -0.929,-1.19 -1.616,-1.547c-0.647,-0.396 -1.455,-0.594 -2.344,-0.594c-0.889,-0 -1.738,0.237 -2.425,0.634c-0.727,0.436 -1.293,0.992 -1.697,1.706c-0.404,0.674 -0.606,1.467 -0.606,2.3l0,3.53c0,1.071 0.202,2.023 0.606,2.776c0.404,0.793 0.97,1.388 1.738,1.825c0.727,0.396 1.616,0.634 2.626,0.634c0.687,0 1.334,-0.119 1.9,-0.277c0.525,-0.199 1.01,-0.476 1.414,-0.873c0.444,-0.357 0.727,-0.833 0.929,-1.348l5.657,0.357c-0.282,1.308 -0.889,2.498 -1.737,3.49c-0.889,0.991 -2.021,1.745 -3.435,2.3c-1.374,0.555 -2.99,0.833 -4.808,0.833Z" style="fill:#f85555;fill-rule:nonzero;"/></g><g><path d="M850.209,1023.48c-1.657,-0 -3.192,-0.437 -4.526,-1.269c-1.333,-0.873 -2.424,-2.102 -3.232,-3.768c-0.768,-1.666 -1.172,-3.689 -1.172,-6.108c-0,-2.499 0.404,-4.561 1.212,-6.188c0.808,-1.665 1.899,-2.895 3.273,-3.728c1.334,-0.793 2.829,-1.229 4.445,-1.229c1.212,-0 2.263,0.238 3.071,0.634c0.849,0.397 1.536,0.913 2.021,1.507c0.525,0.595 0.889,1.19 1.171,1.785l0.202,0l0,-10.827l6.102,-0l0,28.834l-6.021,-0l0,-3.451l-0.283,0c-0.282,0.595 -0.687,1.19 -1.212,1.745c-0.525,0.595 -1.212,1.071 -2.02,1.468c-0.808,0.396 -1.819,0.595 -3.031,0.595Zm1.94,-4.799c1.01,-0 1.818,-0.238 2.505,-0.794c0.687,-0.515 1.212,-1.269 1.576,-2.221c0.364,-0.952 0.566,-2.062 0.566,-3.371c-0,-1.269 -0.202,-2.38 -0.566,-3.332c-0.323,-0.951 -0.849,-1.665 -1.536,-2.221c-0.687,-0.515 -1.535,-0.753 -2.545,-0.753c-1.011,-0 -1.859,0.277 -2.546,0.793c-0.687,0.516 -1.212,1.269 -1.536,2.221c-0.363,0.952 -0.525,2.063 -0.525,3.292c0,1.269 0.162,2.38 0.525,3.332c0.364,0.952 0.889,1.705 1.576,2.26c0.687,0.556 1.536,0.794 2.506,0.794Z" style="fill:#f85555;fill-rule:nonzero;"/></g><g><path d="M870.765,1023.48c-0.969,-0 -1.778,-0.318 -2.424,-0.992c-0.687,-0.634 -1.051,-1.467 -1.01,-2.379c-0.041,-0.913 0.323,-1.706 1.01,-2.38c0.646,-0.635 1.455,-0.992 2.424,-0.992c0.889,0 1.698,0.357 2.385,0.992c0.686,0.674 1.05,1.467 1.05,2.38c0,0.634 -0.162,1.189 -0.485,1.705c-0.323,0.516 -0.727,0.912 -1.252,1.229c-0.526,0.278 -1.091,0.437 -1.698,0.437Z" style="fill:#f85555;fill-rule:nonzero;"/></g><g><path d="M915.734,1004.37l-6.303,-0c-0.122,-0.794 -0.324,-1.507 -0.687,-2.102c-0.364,-0.635 -0.809,-1.19 -1.374,-1.627c-0.526,-0.436 -1.172,-0.793 -1.9,-0.991c-0.727,-0.238 -1.495,-0.357 -2.343,-0.357c-1.536,-0 -2.869,0.357 -4.001,1.11c-1.131,0.714 -1.98,1.785 -2.626,3.213c-0.606,1.388 -0.93,3.094 -0.93,5.077c0,2.062 0.324,3.807 0.97,5.196c0.606,1.388 1.495,2.459 2.627,3.173c1.131,0.713 2.424,1.07 3.919,1.07c0.809,0 1.576,-0.119 2.304,-0.317c0.727,-0.238 1.333,-0.555 1.899,-0.952c0.566,-0.436 1.01,-0.952 1.374,-1.547c0.404,-0.595 0.646,-1.269 0.768,-2.062l6.303,0.04c-0.161,1.348 -0.565,2.617 -1.212,3.847c-0.647,1.19 -1.536,2.3 -2.586,3.252c-1.091,0.992 -2.384,1.745 -3.879,2.301c-1.495,0.555 -3.193,0.832 -5.092,0.832c-2.626,0 -4.97,-0.594 -7.031,-1.745c-2.061,-1.15 -3.677,-2.855 -4.889,-5.076c-1.172,-2.182 -1.778,-4.879 -1.778,-8.012c-0,-3.133 0.606,-5.791 1.818,-8.012c1.212,-2.221 2.829,-3.887 4.889,-5.037c2.102,-1.19 4.405,-1.745 6.991,-1.745c1.697,-0 3.314,0.238 4.768,0.674c1.455,0.476 2.748,1.15 3.88,2.063c1.131,0.912 2.02,1.983 2.747,3.292c0.728,1.308 1.172,2.776 1.374,4.442Z" style="fill:#f85555;fill-rule:nonzero;"/></g><g><path d="M925.201,1010.63l0,12.494l-6.101,-0l-0,-28.834l5.899,-0l0,11.026l0.283,-0c0.485,-1.27 1.293,-2.301 2.425,-3.015c1.091,-0.714 2.465,-1.11 4.162,-1.11c1.535,-0 2.869,0.357 4,0.991c1.132,0.675 2.021,1.587 2.667,2.816c0.647,1.19 0.93,2.658 0.93,4.363l-0,13.763l-6.102,-0l-0,-12.692c-0,-1.349 -0.323,-2.38 -1.01,-3.133c-0.687,-0.754 -1.657,-1.111 -2.91,-1.111c-0.848,0 -1.576,0.159 -2.222,0.516c-0.647,0.357 -1.132,0.872 -1.495,1.507c-0.364,0.674 -0.526,1.467 -0.526,2.419Z" style="fill:#f85555;fill-rule:nonzero;"/></g><g><path d="M952.997,1023.56c-2.263,0 -4.203,-0.476 -5.86,-1.388c-1.616,-0.873 -2.869,-2.181 -3.758,-3.847c-0.889,-1.666 -1.333,-3.649 -1.333,-5.91c-0,-2.221 0.444,-4.204 1.333,-5.87c0.889,-1.666 2.142,-2.975 3.718,-3.926c1.616,-0.952 3.475,-1.428 5.657,-1.428c1.455,-0 2.829,0.238 4.081,0.714c1.253,0.436 2.344,1.11 3.273,2.022c0.97,0.913 1.698,2.063 2.223,3.451c0.525,1.388 0.768,2.975 0.768,4.799l-0,1.666l-18.588,-0l-0,-3.728l12.85,-0c-0,-0.873 -0.202,-1.626 -0.566,-2.301c-0.404,-0.634 -0.929,-1.19 -1.616,-1.547c-0.647,-0.396 -1.455,-0.594 -2.344,-0.594c-0.889,-0 -1.738,0.237 -2.425,0.634c-0.727,0.436 -1.293,0.992 -1.697,1.706c-0.404,0.674 -0.606,1.467 -0.606,2.3l0,3.53c0,1.071 0.202,2.023 0.606,2.776c0.404,0.793 0.97,1.388 1.738,1.825c0.727,0.396 1.616,0.634 2.626,0.634c0.687,0 1.334,-0.119 1.9,-0.277c0.525,-0.199 1.01,-0.476 1.414,-0.873c0.444,-0.357 0.727,-0.833 0.929,-1.348l5.657,0.357c-0.282,1.308 -0.889,2.498 -1.737,3.49c-0.889,0.991 -2.021,1.745 -3.435,2.3c-1.374,0.555 -2.99,0.833 -4.808,0.833Z" style="fill:#f85555;fill-rule:nonzero;"/></g><g><path d="M976.451,1023.56c-2.263,0 -4.203,-0.476 -5.819,-1.428c-1.616,-0.952 -2.869,-2.26 -3.718,-3.926c-0.889,-1.706 -1.333,-3.61 -1.333,-5.831c-0,-2.181 0.444,-4.124 1.333,-5.83c0.889,-1.666 2.102,-2.975 3.718,-3.926c1.616,-0.952 3.556,-1.428 5.778,-1.428c1.94,-0 3.597,0.357 5.051,1.031c1.455,0.714 2.587,1.666 3.435,2.895c0.849,1.269 1.293,2.697 1.374,4.363l-5.738,0c-0.162,-1.071 -0.606,-1.943 -1.293,-2.618c-0.687,-0.634 -1.616,-0.991 -2.707,-0.991c-0.97,-0 -1.778,0.277 -2.506,0.753c-0.687,0.516 -1.252,1.23 -1.616,2.221c-0.404,0.952 -0.606,2.103 -0.606,3.451c-0,1.388 0.202,2.578 0.566,3.53c0.404,0.952 0.969,1.705 1.656,2.221c0.728,0.516 1.536,0.754 2.506,0.754c0.687,-0 1.293,-0.159 1.858,-0.437c0.566,-0.277 1.011,-0.674 1.415,-1.229c0.363,-0.516 0.606,-1.19 0.727,-1.944l5.738,0c-0.081,1.666 -0.525,3.094 -1.374,4.363c-0.808,1.269 -1.939,2.221 -3.354,2.935c-1.454,0.714 -3.152,1.071 -5.091,1.071Z" style="fill:#f85555;fill-rule:nonzero;"/></g><g><path d="M994.562,1016.9l0.041,-7.179l0.889,0l7.071,-8.21l6.991,0l-9.456,10.867l-1.495,0l-4.041,4.522Zm-5.495,6.227l-0,-28.834l6.102,-0l-0,28.834l-6.102,-0Zm13.739,-0l-6.466,-9.4l4.041,-4.244l9.577,13.644l-7.152,-0Z" style="fill:#f85555;fill-rule:nonzero;"/></g><g><path d="M1026.17,1031.22c-0.767,-0 -1.495,-0.079 -2.182,-0.198c-0.687,-0.119 -1.252,-0.278 -1.656,-0.437l1.373,-4.482c1.051,0.318 1.98,0.397 2.708,0.238c0.768,-0.119 1.333,-0.713 1.778,-1.665l0.363,-0.913l-7.92,-22.25l6.425,0l4.566,15.865l0.243,-0l4.606,-15.865l6.466,0l-8.567,23.956c-0.404,1.15 -0.97,2.142 -1.697,3.014c-0.687,0.873 -1.576,1.547 -2.626,2.023c-1.091,0.476 -2.385,0.714 -3.88,0.714Z" style="fill:#f85555;fill-rule:nonzero;"/></g><g><path d="M1054.1,1023.56c-2.223,0 -4.163,-0.476 -5.779,-1.428c-1.616,-0.912 -2.869,-2.221 -3.758,-3.887c-0.889,-1.705 -1.333,-3.649 -1.333,-5.87c-0,-2.221 0.444,-4.164 1.333,-5.87c0.889,-1.665 2.142,-2.974 3.758,-3.886c1.616,-0.952 3.556,-1.428 5.779,-1.428c2.222,-0 4.162,0.476 5.778,1.428c1.616,0.912 2.869,2.221 3.758,3.886c0.849,1.706 1.293,3.649 1.293,5.87c0,2.221 -0.444,4.165 -1.293,5.87c-0.889,1.666 -2.142,2.975 -3.758,3.887c-1.616,0.952 -3.556,1.428 -5.778,1.428Zm0.04,-4.68c1.01,-0 1.818,-0.278 2.505,-0.833c0.687,-0.555 1.213,-1.348 1.576,-2.34c0.323,-0.992 0.526,-2.102 0.526,-3.371c-0,-1.23 -0.203,-2.38 -0.526,-3.372c-0.363,-0.951 -0.889,-1.745 -1.576,-2.34c-0.687,-0.555 -1.495,-0.832 -2.505,-0.832c-1.051,-0 -1.899,0.277 -2.586,0.832c-0.728,0.595 -1.212,1.389 -1.576,2.34c-0.364,0.992 -0.525,2.142 -0.525,3.372c-0,1.269 0.161,2.379 0.525,3.371c0.364,0.992 0.848,1.785 1.576,2.34c0.687,0.555 1.535,0.833 2.586,0.833Z" style="fill:#f85555;fill-rule:nonzero;"/></g><g><path d="M1082.36,1013.92l0,-12.414l6.102,0l-0,21.616l-5.859,-0l-0,-3.927l-0.202,0c-0.526,1.269 -1.334,2.301 -2.506,3.054c-1.131,0.754 -2.546,1.15 -4.202,1.15c-1.455,0 -2.748,-0.317 -3.879,-0.991c-1.132,-0.635 -2.021,-1.587 -2.627,-2.776c-0.647,-1.23 -0.929,-2.697 -0.929,-4.363l-0,-13.763l6.101,0l0,12.692c0,1.269 0.324,2.3 1.051,3.014c0.687,0.754 1.616,1.111 2.748,1.111c0.727,-0 1.414,-0.159 2.06,-0.476c0.647,-0.357 1.172,-0.833 1.576,-1.507c0.405,-0.635 0.566,-1.468 0.566,-2.42Z" style="fill:#f85555;fill-rule:nonzero;"/></g><g><path d="M1091.74,1023.13l-0,-21.616l5.9,0l-0,3.768l0.242,-0c0.404,-1.349 1.051,-2.38 2.02,-3.054c0.93,-0.674 2.021,-1.031 3.273,-1.031c0.283,-0 0.607,-0 0.97,0.039c0.364,0.04 0.687,0.08 0.93,0.159l-0,5.315c-0.283,-0.08 -0.687,-0.159 -1.172,-0.199c-0.525,-0.079 -0.97,-0.119 -1.414,-0.119c-0.889,0 -1.698,0.199 -2.385,0.595c-0.727,0.357 -1.252,0.873 -1.656,1.547c-0.404,0.674 -0.606,1.468 -0.606,2.34l-0,12.256l-6.102,-0Z" style="fill:#f85555;fill-rule:nonzero;"/></g><g><path d="M1126.23,1023.48c-1.657,-0 -3.193,-0.437 -4.526,-1.269c-1.334,-0.873 -2.425,-2.102 -3.233,-3.768c-0.768,-1.666 -1.172,-3.689 -1.172,-6.108c0,-2.499 0.404,-4.561 1.213,-6.188c0.808,-1.665 1.899,-2.895 3.273,-3.728c1.333,-0.793 2.828,-1.229 4.445,-1.229c1.212,-0 2.262,0.238 3.071,0.634c0.848,0.397 1.535,0.913 2.02,1.507c0.525,0.595 0.889,1.19 1.172,1.785l0.202,0l-0,-10.827l6.102,-0l-0,28.834l-6.021,-0l-0,-3.451l-0.283,0c-0.283,0.595 -0.687,1.19 -1.212,1.745c-0.526,0.595 -1.213,1.071 -2.021,1.468c-0.808,0.396 -1.818,0.595 -3.03,0.595Zm1.939,-4.799c1.01,-0 1.819,-0.238 2.506,-0.794c0.686,-0.515 1.212,-1.269 1.575,-2.221c0.364,-0.952 0.566,-2.062 0.566,-3.371c0,-1.269 -0.202,-2.38 -0.566,-3.332c-0.323,-0.951 -0.848,-1.665 -1.535,-2.221c-0.687,-0.515 -1.536,-0.753 -2.546,-0.753c-1.01,-0 -1.859,0.277 -2.546,0.793c-0.686,0.516 -1.212,1.269 -1.535,2.221c-0.364,0.952 -0.525,2.063 -0.525,3.292c-0,1.269 0.161,2.38 0.525,3.332c0.364,0.952 0.889,1.705 1.576,2.26c0.687,0.556 1.535,0.794 2.505,0.794Z" style="fill:#f85555;fill-rule:nonzero;"/></g><g><path d="M1149.49,1023.52c-1.414,0 -2.667,-0.238 -3.758,-0.713c-1.091,-0.476 -1.98,-1.19 -2.586,-2.142c-0.646,-0.952 -0.97,-2.142 -0.97,-3.57c0,-1.229 0.202,-2.221 0.647,-3.054c0.485,-0.793 1.091,-1.467 1.859,-1.943c0.767,-0.516 1.656,-0.873 2.626,-1.15c1.01,-0.238 2.061,-0.437 3.152,-0.516c1.253,-0.159 2.303,-0.278 3.071,-0.397c0.808,-0.119 1.374,-0.277 1.738,-0.515c0.323,-0.238 0.525,-0.595 0.525,-1.031l0,-0.08c0,-0.912 -0.283,-1.586 -0.849,-2.102c-0.606,-0.476 -1.373,-0.714 -2.424,-0.714c-1.091,0 -1.98,0.238 -2.627,0.714c-0.646,0.476 -1.091,1.071 -1.293,1.785l-5.657,-0.476c0.283,-1.309 0.849,-2.419 1.697,-3.411c0.849,-0.952 1.94,-1.705 3.273,-2.221c1.334,-0.516 2.869,-0.793 4.607,-0.793c1.253,-0 2.424,0.158 3.556,0.436c1.131,0.278 2.101,0.714 2.99,1.309c0.849,0.595 1.576,1.348 2.061,2.261c0.525,0.951 0.768,2.062 0.768,3.331l-0,14.596l-5.779,-0l0,-3.014l-0.202,-0c-0.363,0.674 -0.808,1.269 -1.414,1.784c-0.566,0.516 -1.293,0.913 -2.142,1.19c-0.808,0.317 -1.778,0.436 -2.869,0.436Zm1.738,-4.124c0.929,-0 1.697,-0.159 2.384,-0.516c0.687,-0.357 1.253,-0.833 1.616,-1.468c0.404,-0.594 0.606,-1.269 0.606,-2.022l0,-2.301c-0.202,0.119 -0.444,0.238 -0.767,0.318c-0.364,0.119 -0.728,0.198 -1.132,0.277c-0.404,0.08 -0.808,0.159 -1.212,0.199c-0.445,0.079 -0.808,0.119 -1.131,0.198c-0.728,0.079 -1.334,0.238 -1.9,0.476c-0.525,0.238 -0.929,0.515 -1.252,0.912c-0.283,0.397 -0.445,0.833 -0.445,1.428c0,0.793 0.323,1.428 0.93,1.864c0.606,0.436 1.373,0.635 2.303,0.635Z" style="fill:#f85555;fill-rule:nonzero;"/></g><g><path d="M1177.73,1001.51l-0,4.482l-13.294,-0l-0,-4.482l13.294,0Zm-10.264,-5.196l6.102,0l-0,20.149c-0,0.555 0.081,0.991 0.242,1.308c0.202,0.318 0.445,0.516 0.728,0.635c0.323,0.119 0.687,0.198 1.091,0.198c0.283,0 0.565,-0.039 0.848,-0.079c0.324,-0.079 0.526,-0.119 0.687,-0.119l0.97,4.442c-0.323,0.119 -0.768,0.238 -1.293,0.357c-0.566,0.119 -1.253,0.198 -2.061,0.238c-1.455,0.04 -2.748,-0.159 -3.839,-0.595c-1.131,-0.436 -1.98,-1.11 -2.586,-2.062c-0.606,-0.912 -0.929,-2.102 -0.889,-3.53l0,-20.942Z" style="fill:#f85555;fill-rule:nonzero;"/></g><g><path d="M1186.97,1023.52c-1.414,0 -2.667,-0.238 -3.758,-0.713c-1.091,-0.476 -1.98,-1.19 -2.586,-2.142c-0.647,-0.952 -0.97,-2.142 -0.97,-3.57c0,-1.229 0.202,-2.221 0.647,-3.054c0.485,-0.793 1.091,-1.467 1.858,-1.943c0.768,-0.516 1.657,-0.873 2.627,-1.15c1.01,-0.238 2.061,-0.437 3.152,-0.516c1.252,-0.159 2.303,-0.278 3.071,-0.397c0.808,-0.119 1.374,-0.277 1.737,-0.515c0.324,-0.238 0.526,-0.595 0.526,-1.031l-0,-0.08c-0,-0.912 -0.283,-1.586 -0.849,-2.102c-0.606,-0.476 -1.374,-0.714 -2.424,-0.714c-1.091,0 -1.98,0.238 -2.627,0.714c-0.646,0.476 -1.091,1.071 -1.293,1.785l-5.657,-0.476c0.283,-1.309 0.848,-2.419 1.697,-3.411c0.849,-0.952 1.94,-1.705 3.273,-2.221c1.334,-0.516 2.869,-0.793 4.607,-0.793c1.252,-0 2.424,0.158 3.556,0.436c1.131,0.278 2.101,0.714 2.99,1.309c0.848,0.595 1.576,1.348 2.061,2.261c0.525,0.951 0.767,2.062 0.767,3.331l0,14.596l-5.778,-0l0,-3.014l-0.202,-0c-0.364,0.674 -0.808,1.269 -1.414,1.784c-0.566,0.516 -1.293,0.913 -2.142,1.19c-0.808,0.317 -1.778,0.436 -2.869,0.436Zm1.738,-4.124c0.929,-0 1.697,-0.159 2.384,-0.516c0.687,-0.357 1.252,-0.833 1.616,-1.468c0.404,-0.594 0.606,-1.269 0.606,-2.022l0,-2.301c-0.202,0.119 -0.444,0.238 -0.768,0.318c-0.363,0.119 -0.727,0.198 -1.131,0.277c-0.404,0.08 -0.808,0.159 -1.212,0.199c-0.445,0.079 -0.808,0.119 -1.132,0.198c-0.727,0.079 -1.333,0.238 -1.899,0.476c-0.525,0.238 -0.929,0.515 -1.253,0.912c-0.282,0.397 -0.444,0.833 -0.444,1.428c-0,0.793 0.323,1.428 0.929,1.864c0.606,0.436 1.374,0.635 2.304,0.635Z" style="fill:#f85555;fill-rule:nonzero;"/></g><g><path d="M1207.05,1023.48c-0.97,-0 -1.778,-0.318 -2.424,-0.992c-0.687,-0.634 -1.051,-1.467 -1.011,-2.379c-0.04,-0.913 0.324,-1.706 1.011,-2.38c0.646,-0.635 1.454,-0.992 2.424,-0.992c0.889,0 1.697,0.357 2.384,0.992c0.687,0.674 1.051,1.467 1.051,2.38c-0,0.634 -0.162,1.189 -0.485,1.705c-0.323,0.516 -0.727,0.912 -1.253,1.229c-0.525,0.278 -1.091,0.437 -1.697,0.437Z" style="fill:#f85555;fill-rule:nonzero;"/></g></g><g><g><path d="M1127.2,850.259c0,-14.391 -11.679,-26.075 -26.067,-26.075l-462.567,0c-14.386,0 -26.066,11.684 -26.066,26.075l0,52.15c0,14.391 11.68,26.075 26.066,26.075l462.567,0c14.388,0 26.067,-11.684 26.067,-26.075l0,-52.15Z" style="fill:#76f5c0;stroke:#212529;stroke-width:12.5px;"/><g><g><path d="M808.593,868.542c-0.164,-1.631 -0.821,-2.869 -2.026,-3.769c-1.204,-0.9 -2.792,-1.35 -4.764,-1.35c-1.423,-0 -2.573,0.225 -3.504,0.618c-0.986,0.394 -1.697,0.957 -2.19,1.632c-0.493,0.675 -0.712,1.463 -0.767,2.363c0,0.731 0.164,1.35 0.493,1.913c0.329,0.562 0.767,1.013 1.369,1.406c0.602,0.394 1.259,0.732 2.026,1.013c0.766,0.281 1.588,0.506 2.464,0.731l3.559,0.844c1.752,0.45 3.34,0.957 4.764,1.632c1.478,0.675 2.738,1.463 3.778,2.475c1.095,0.957 1.916,2.082 2.519,3.432c0.547,1.294 0.876,2.813 0.876,4.501c-0,2.532 -0.602,4.67 -1.862,6.527c-1.205,1.8 -2.957,3.263 -5.256,4.219c-2.3,1.013 -5.093,1.519 -8.323,1.519c-3.231,0 -6.024,-0.506 -8.433,-1.519c-2.354,-1.013 -4.216,-2.475 -5.53,-4.501c-1.314,-1.969 -2.026,-4.444 -2.081,-7.37l8.159,0c0.055,1.35 0.438,2.476 1.15,3.376c0.657,0.956 1.588,1.631 2.737,2.081c1.15,0.45 2.41,0.675 3.888,0.675c1.424,0 2.683,-0.225 3.724,-0.618c1.04,-0.45 1.861,-1.013 2.464,-1.801c0.547,-0.731 0.876,-1.631 0.876,-2.588c-0,-0.956 -0.274,-1.688 -0.822,-2.306c-0.492,-0.676 -1.259,-1.182 -2.299,-1.632c-0.986,-0.45 -2.191,-0.844 -3.669,-1.182l-4.326,-1.125c-3.34,-0.844 -6.023,-2.138 -7.939,-3.938c-1.972,-1.8 -2.903,-4.163 -2.903,-7.201c0,-2.476 0.658,-4.67 1.917,-6.47c1.314,-1.857 3.121,-3.32 5.421,-4.389c2.245,-1.012 4.873,-1.519 7.775,-1.519c2.957,0 5.531,0.507 7.721,1.519c2.19,1.069 3.942,2.532 5.147,4.389c1.259,1.856 1.862,3.994 1.916,6.413l-8.049,0Z" style="fill:#212529;fill-rule:nonzero;"/></g><g><path d="M840.887,884.633l0,-17.61l8.269,0l-0,30.663l-7.94,-0l-0,-5.57l-0.274,-0c-0.712,1.8 -1.807,3.263 -3.395,4.332c-1.533,1.069 -3.449,1.631 -5.694,1.631c-1.972,0 -3.724,-0.45 -5.257,-1.406c-1.533,-0.9 -2.738,-2.251 -3.559,-3.938c-0.876,-1.745 -1.259,-3.826 -1.259,-6.189l-0,-19.523l8.268,0l-0,18.004c-0,1.8 0.438,3.263 1.423,4.276c0.931,1.069 2.191,1.575 3.724,1.575c0.985,-0 1.916,-0.225 2.792,-0.675c0.876,-0.507 1.588,-1.182 2.136,-2.138c0.547,-0.9 0.766,-2.082 0.766,-3.432Z" style="fill:#212529;fill-rule:nonzero;"/></g><g><path d="M853.698,897.686l0,-40.902l8.269,-0l-0,15.359l0.273,0c0.384,-0.844 0.876,-1.688 1.588,-2.532c0.712,-0.844 1.588,-1.575 2.738,-2.138c1.095,-0.562 2.519,-0.9 4.162,-0.9c2.19,0 4.216,0.619 6.023,1.744c1.861,1.182 3.34,2.926 4.435,5.289c1.095,2.307 1.643,5.232 1.643,8.777c-0,3.431 -0.548,6.301 -1.588,8.664c-1.095,2.363 -2.519,4.107 -4.381,5.345c-1.807,1.181 -3.887,1.8 -6.132,1.8c-1.588,-0 -2.957,-0.281 -4.107,-0.844c-1.095,-0.563 -2.026,-1.238 -2.738,-2.082c-0.712,-0.787 -1.259,-1.631 -1.643,-2.475l-0.383,-0l0,4.895l-8.159,-0Zm8.104,-15.36c0,1.857 0.274,3.432 0.767,4.782c0.493,1.351 1.205,2.42 2.135,3.151c0.931,0.788 2.081,1.125 3.395,1.125c1.369,0 2.519,-0.337 3.45,-1.125c0.931,-0.788 1.643,-1.857 2.081,-3.207c0.492,-1.35 0.766,-2.925 0.766,-4.726c0,-1.744 -0.274,-3.319 -0.712,-4.669c-0.492,-1.351 -1.204,-2.42 -2.135,-3.151c-0.931,-0.731 -2.081,-1.125 -3.45,-1.125c-1.369,-0 -2.464,0.337 -3.395,1.069c-0.93,0.787 -1.642,1.8 -2.135,3.15c-0.493,1.351 -0.767,2.926 -0.767,4.726Z" style="fill:#212529;fill-rule:nonzero;"/></g><g><path d="M887.578,897.686l0,-30.663l7.885,0l-0,5.401l0.328,0c0.603,-1.8 1.643,-3.263 3.122,-4.275c1.423,-1.013 3.175,-1.576 5.201,-1.576c2.026,0 3.778,0.563 5.257,1.576c1.424,1.068 2.354,2.475 2.847,4.275l0.329,0c0.602,-1.744 1.697,-3.207 3.285,-4.219c1.588,-1.069 3.504,-1.632 5.695,-1.632c2.792,0 5.037,0.957 6.789,2.757c1.753,1.8 2.629,4.388 2.629,7.708l-0,20.648l-8.268,-0l-0,-18.96c-0,-1.688 -0.438,-2.982 -1.315,-3.826c-0.876,-0.844 -1.971,-1.294 -3.285,-1.294c-1.533,-0 -2.683,0.506 -3.559,1.463c-0.821,1.012 -1.259,2.306 -1.259,3.882l-0,18.735l-7.995,-0l0,-19.129c0,-1.519 -0.438,-2.701 -1.259,-3.601c-0.876,-0.9 -1.971,-1.35 -3.34,-1.35c-0.931,-0 -1.752,0.225 -2.464,0.731c-0.712,0.45 -1.314,1.125 -1.753,1.969c-0.383,0.844 -0.602,1.857 -0.602,2.982l0,18.398l-8.268,-0Z" style="fill:#212529;fill-rule:nonzero;"/></g><g><path d="M935.123,897.686l0,-30.663l8.323,0l0,30.663l-8.323,-0Zm4.217,-34.657c-1.26,-0 -2.3,-0.394 -3.176,-1.238c-0.876,-0.844 -1.314,-1.857 -1.314,-3.038c-0,-1.182 0.438,-2.194 1.314,-3.038c0.876,-0.844 1.916,-1.294 3.121,-1.294c1.259,-0 2.3,0.45 3.176,1.294c0.876,0.844 1.314,1.856 1.314,3.038c-0,1.181 -0.438,2.194 -1.314,3.038c-0.876,0.844 -1.917,1.238 -3.121,1.238Z" style="fill:#212529;fill-rule:nonzero;"/></g><g><path d="M964.047,867.023l-0,6.358l-18.015,-0l-0,-6.358l18.015,0Zm-13.908,-7.37l8.268,0l-0,28.581c-0,0.787 0.109,1.406 0.328,1.856c0.274,0.45 0.603,0.732 0.986,0.9c0.438,0.169 0.931,0.282 1.478,0.282c0.384,-0 0.767,-0.056 1.15,-0.113c0.438,-0.112 0.712,-0.169 0.931,-0.169l1.314,6.302c-0.438,0.168 -1.04,0.337 -1.752,0.506c-0.767,0.169 -1.698,0.281 -2.793,0.338c-1.971,0.056 -3.723,-0.225 -5.201,-0.844c-1.534,-0.619 -2.684,-1.576 -3.505,-2.926c-0.821,-1.294 -1.259,-2.982 -1.204,-5.007l-0,-29.706Z" style="fill:#212529;fill-rule:nonzero;"/></g></g></g></g></g></g></svg>