<?xml version="1.0" encoding="UTF-8" standalone="no"?><!DOCTYPE svg PUBLIC "-//W3C//DTD SVG 1.1//EN" "http://www.w3.org/Graphics/SVG/1.1/DTD/svg11.dtd"><svg width="100%" height="100%" viewBox="0 0 1749 1241" version="1.1" xmlns="http://www.w3.org/2000/svg" xmlns:xlink="http://www.w3.org/1999/xlink" xml:space="preserve" xmlns:serif="http://www.serif.com/" style="fill-rule:evenodd;clip-rule:evenodd;stroke-linecap:round;stroke-linejoin:round;stroke-miterlimit:1.5;"><rect id="Artboard1" x="0" y="-0" width="1748.03" height="1240.16" style="fill:none;"/><clipPath id="_clip1"><rect x="0" y="-0" width="1748.03" height="1240.16"/></clipPath><g clip-path="url(#_clip1)"><g><rect x="0" y="0" width="1748.03" height="1240.16" style="fill:#ada7ff;"/><g><path d="M1525.11,288.326c-0,-69.179 -84.972,-125.345 -189.635,-125.345l-879.272,0c-104.662,0 -189.634,56.166 -189.634,125.345l0,1006.12c0,69.18 84.972,125.345 189.634,125.345l879.272,0c104.663,0 189.635,-56.165 189.635,-125.345l-0,-1006.12Z" style="fill:#f8f9fa;stroke:#212529;stroke-width:32.06px;"/></g><g><g><text x="674.764px" y="346.136px" style="font-family:'Inter-Regular_Bold', 'Inter', sans-serif;font-size:100px;">R<tspan x="738.117px " y="346.136px ">e</tspan>gist<tspan x="969.083px " y="346.136px ">e</tspan>r</text></g></g><g><g><g><path d="M1268.03,877.942c0,-14.387 -14.782,-26.068 -32.988,-26.068l-585.412,-0c-18.206,-0 -32.988,11.681 -32.988,26.068l0,52.136c0,14.388 14.782,26.069 32.988,26.069l585.412,-0c18.206,-0 32.988,-11.681 32.988,-26.069l0,-52.136Z" style="fill:#fff;stroke:#212529;stroke-width:14.26px;"/></g><g><text x="613.474px" y="812.493px" style="font-family:'Inter-Regular_Bold', 'Inter', sans-serif;font-size:50px;fill:#212529;">Email</text></g></g><g><g><path d="M1268.03,1106.3c0,-14.387 -14.782,-26.068 -32.988,-26.068l-585.412,-0c-18.206,-0 -32.988,11.681 -32.988,26.068l0,52.136c0,14.388 14.782,26.069 32.988,26.069l585.412,-0c18.206,-0 32.988,-11.681 32.988,-26.069l0,-52.136Z" style="fill:#fff;stroke:#212529;stroke-width:14.26px;"/></g><g><text x="613.474px" y="1040.86px" style="font-family:'Inter-Regular_Bold', 'Inter', sans-serif;font-size:50px;fill:#212529;">Phone</text></g></g><g><g><path d="M1268.03,647.502c0,-14.387 -14.782,-26.068 -32.988,-26.068l-585.412,0c-18.206,0 -32.988,11.681 -32.988,26.068l0,52.136c0,14.388 14.782,26.069 32.988,26.069l585.412,0c18.206,0 32.988,-11.681 32.988,-26.069l0,-52.136Z" style="fill:#fff;stroke:#212529;stroke-width:14.26px;"/></g><g><text x="613.474px" y="582.053px" style="font-family:'Inter-Regular_Bold', 'Inter', sans-serif;font-size:50px;fill:#212529;">Name</text></g><g><text x="644.666px" y="691.49px" style="font-family:'Inter-Regular_Bold', 'Inter', sans-serif;font-size:50px;fill:#888c90;">e.g. Jane Doe</text><text x="646.256px" y="917.918px" style="font-family:'Inter-Regular_Bold', 'Inter', sans-serif;font-size:50px;fill:#888c90;">e.g. jane.doe@gmail.com</text><text x="646.256px" y="1146.28px" style="font-family:'Inter-Regular_Bold', 'Inter', sans-serif;font-size:50px;fill:#888c90;">e.g. 1 123 1234567</text></g></g><g><text x="612.946px" y="486.003px" style="font-family:'Inter-Regular_Bold', 'Inter', sans-serif;font-size:58.333px;fill:#212529;">I. Contact Details</text></g></g></g></g></svg>