<?xml version="1.0" encoding="UTF-8" standalone="no"?><!DOCTYPE svg PUBLIC "-//W3C//DTD SVG 1.1//EN" "http://www.w3.org/Graphics/SVG/1.1/DTD/svg11.dtd"><svg width="100%" height="100%" viewBox="0 0 1749 1241" version="1.1" xmlns="http://www.w3.org/2000/svg" xmlns:xlink="http://www.w3.org/1999/xlink" xml:space="preserve" xmlns:serif="http://www.serif.com/" style="fill-rule:evenodd;clip-rule:evenodd;stroke-linecap:round;stroke-linejoin:round;stroke-miterlimit:1.5;"><rect id="Artboard2" x="0" y="0" width="1748.03" height="1240.16" style="fill:none;"/><clipPath id="_clip1"><rect id="Artboard21" serif:id="Artboard2" x="0" y="0" width="1748.03" height="1240.16"/></clipPath><g clip-path="url(#_clip1)"><rect id="Artboard1" x="0" y="0" width="1748.03" height="1240.16" style="fill:none;"/><g><g><rect x="0" y="0" width="1748.03" height="1240.16" style="fill:#ada7ff;"/><g><path d="M1404.82,242.872c0,-69.179 -71.523,-125.345 -159.621,-125.345l-740.108,0c-88.096,0 -159.62,56.166 -159.62,125.345l0,1006.12c0,69.18 71.524,125.345 159.62,125.345l740.108,0c88.098,0 159.621,-56.165 159.621,-125.345l0,-1006.12Z" style="fill:#f8f9fa;stroke:#212529;stroke-width:28.62px;"/></g><g><g><path d="M734.695,237.241c-0.284,-2.86 -1.505,-5.085 -3.661,-6.676c-2.157,-1.591 -5.075,-2.387 -8.754,-2.387c-2.509,0 -4.632,0.354 -6.367,1.062c-1.735,0.708 -3.055,1.675 -3.96,2.901c-0.904,1.227 -1.363,2.624 -1.377,4.191c-0.029,1.302 0.254,2.44 0.848,3.413c0.594,0.973 1.427,1.808 2.497,2.507c1.07,0.698 2.303,1.298 3.7,1.8c1.397,0.502 2.884,0.93 4.46,1.285l6.534,1.563c3.173,0.71 6.085,1.66 8.736,2.848c2.652,1.189 4.953,2.648 6.903,4.379c1.951,1.73 3.465,3.768 4.542,6.111c1.077,2.344 1.623,5.029 1.638,8.054c-0.015,4.441 -1.142,8.291 -3.381,11.548c-2.24,3.258 -5.46,5.779 -9.663,7.564c-4.202,1.785 -9.267,2.678 -15.195,2.678c-5.876,-0 -10.984,-0.897 -15.323,-2.692c-4.34,-1.794 -7.72,-4.461 -10.142,-8c-2.422,-3.54 -3.697,-7.93 -3.825,-13.172l14.887,0c0.165,2.434 0.871,4.463 2.116,6.087c1.245,1.624 2.911,2.844 4.996,3.658c2.086,0.814 4.459,1.222 7.121,1.222c2.609,-0 4.874,-0.377 6.797,-1.13c1.922,-0.753 3.416,-1.802 4.481,-3.146c1.066,-1.345 1.605,-2.903 1.619,-4.674c-0.014,-1.633 -0.5,-3.005 -1.459,-4.116c-0.959,-1.11 -2.354,-2.057 -4.187,-2.841c-1.832,-0.783 -4.07,-1.495 -6.712,-2.134l-7.926,-1.96c-6.136,-1.492 -10.979,-3.827 -14.528,-7.006c-3.548,-3.18 -5.315,-7.454 -5.301,-12.823c-0.014,-4.399 1.17,-8.247 3.554,-11.545c2.385,-3.298 5.659,-5.868 9.823,-7.71c4.164,-1.842 8.9,-2.762 14.208,-2.762c5.398,-0 10.111,0.923 14.14,2.769c4.03,1.847 7.173,4.417 9.429,7.71c2.256,3.293 3.415,7.101 3.476,11.424l-14.744,-0Z" style="fill:#212529;fill-rule:nonzero;"/><path d="M758.743,289.059l0,-54.545l15.128,-0l0,54.545l-15.128,0Zm7.635,-61.577c-2.249,0 -4.178,-0.751 -5.788,-2.255c-1.61,-1.503 -2.415,-3.308 -2.415,-5.415c0,-2.083 0.805,-3.877 2.415,-5.38c1.61,-1.503 3.527,-2.255 5.753,-2.255c2.273,0 4.208,0.752 5.806,2.255c1.598,1.503 2.397,3.297 2.397,5.38c-0,2.107 -0.799,3.912 -2.397,5.415c-1.598,1.504 -3.522,2.255 -5.771,2.255Z" style="fill:#212529;fill-rule:nonzero;"/><path d="M807.053,310.309c-4.9,0 -9.101,-0.664 -12.603,-1.992c-3.501,-1.328 -6.28,-3.118 -8.338,-5.369c-2.057,-2.252 -3.391,-4.751 -4.002,-7.497l14.005,-1.875c0.417,0.981 1.085,1.917 2.003,2.809c0.919,0.893 2.141,1.623 3.668,2.191c1.527,0.568 3.397,0.852 5.608,0.852c3.281,0 5.995,-0.781 8.143,-2.343c2.147,-1.563 3.221,-4.134 3.221,-7.713l-0,-9.972l-0.625,0c-0.673,1.506 -1.674,2.937 -3.005,4.293c-1.33,1.357 -3.032,2.463 -5.106,3.317c-2.074,0.855 -4.56,1.282 -7.458,1.282c-4.09,0 -7.811,-0.956 -11.161,-2.869c-3.35,-1.913 -6.015,-4.837 -7.997,-8.771c-1.982,-3.935 -2.972,-8.928 -2.972,-14.979c-0,-6.184 1.007,-11.343 3.022,-15.476c2.014,-4.133 4.699,-7.232 8.054,-9.297c3.355,-2.064 7.03,-3.097 11.026,-3.097c3.04,0 5.59,0.515 7.649,1.545c2.06,1.03 3.727,2.306 5,3.828c1.274,1.522 2.247,3.027 2.919,4.514l0.597,0l-0,-9.176l15,-0l-0,55.085c-0,4.531 -1.138,8.334 -3.413,11.41c-2.275,3.075 -5.418,5.394 -9.428,6.957c-4.011,1.562 -8.613,2.343 -13.807,2.343Zm0.313,-33.38c2.424,-0 4.487,-0.61 6.189,-1.829c1.702,-1.219 3.005,-2.971 3.907,-5.256c0.902,-2.284 1.353,-5.027 1.353,-8.228c-0,-3.191 -0.447,-5.967 -1.339,-8.328c-0.893,-2.36 -2.19,-4.19 -3.892,-5.49c-1.702,-1.3 -3.775,-1.95 -6.218,-1.95c-2.501,0 -4.602,0.669 -6.304,2.007c-1.702,1.338 -2.99,3.192 -3.863,5.562c-0.874,2.369 -1.311,5.103 -1.311,8.199c0,3.134 0.442,5.846 1.325,8.136c0.883,2.289 2.175,4.057 3.877,5.305c1.703,1.248 3.794,1.872 6.276,1.872Z" style="fill:#212529;fill-rule:nonzero;"/><path d="M858.53,257.525l0,31.534l-15.113,0l-0,-54.545l14.403,-0l0,9.631l0.625,-0c1.221,-3.182 3.251,-5.701 6.09,-7.557c2.839,-1.856 6.282,-2.785 10.331,-2.785c3.792,0 7.098,0.83 9.917,2.49c2.82,1.659 5.01,4.021 6.57,7.084c1.56,3.064 2.333,6.71 2.319,10.938l0,34.744l-15.113,0l-0,-32.046c0.014,-3.333 -0.84,-5.942 -2.561,-7.826c-1.721,-1.885 -4.096,-2.827 -7.127,-2.827c-2.036,0 -3.831,0.442 -5.387,1.325c-1.555,0.883 -2.766,2.156 -3.633,3.821c-0.866,1.664 -1.307,3.671 -1.321,6.019Z" style="fill:#212529;fill-rule:nonzero;"/><path d="M975.263,216.332l15.37,-0l-0,47.216c-0,5.312 -1.259,9.958 -3.775,13.938c-2.517,3.98 -6.036,7.074 -10.558,9.283c-4.521,2.208 -9.791,3.313 -15.809,3.313c-6.047,-0 -11.331,-1.105 -15.853,-3.313c-4.522,-2.209 -8.034,-5.303 -10.536,-9.283c-2.502,-3.98 -3.753,-8.626 -3.753,-13.938l-0,-47.216l15.369,-0l-0,45.909c-0,2.77 0.611,5.235 1.832,7.397c1.222,2.162 2.941,3.856 5.16,5.082c2.218,1.226 4.812,1.839 7.781,1.839c2.983,0 5.582,-0.613 7.798,-1.839c2.216,-1.226 3.932,-2.92 5.149,-5.082c1.217,-2.162 1.825,-4.627 1.825,-7.397l0,-45.909Z" style="fill:#212529;fill-rule:nonzero;"/><path d="M1004.21,309.514l0,-75l14.915,-0l-0,9.176l0.653,0c0.672,-1.487 1.641,-2.992 2.905,-4.514c1.264,-1.522 2.921,-2.798 4.971,-3.828c2.051,-1.03 4.596,-1.545 7.635,-1.545c3.997,0 7.672,1.035 11.027,3.104c3.354,2.069 6.039,5.182 8.054,9.34c2.015,4.157 3.022,9.356 3.022,15.596c-0,6.089 -0.979,11.222 -2.937,15.398c-1.958,4.176 -4.609,7.336 -7.955,9.481c-3.345,2.145 -7.091,3.218 -11.239,3.218c-2.935,-0 -5.425,-0.487 -7.468,-1.46c-2.043,-0.973 -3.715,-2.197 -5.014,-3.672c-1.3,-1.474 -2.3,-2.965 -3.001,-4.47l-0.454,-0l-0,29.176l-15.114,-0Zm14.801,-47.728c-0,3.239 0.451,6.065 1.353,8.477c0.902,2.413 2.204,4.288 3.906,5.625c1.703,1.338 3.766,2.007 6.19,2.007c2.481,-0 4.573,-0.681 6.275,-2.042c1.702,-1.361 2.995,-3.253 3.878,-5.675c0.883,-2.422 1.324,-5.219 1.324,-8.392c0,-3.153 -0.437,-5.927 -1.31,-8.32c-0.874,-2.394 -2.161,-4.261 -3.864,-5.604c-1.702,-1.342 -3.803,-2.014 -6.303,-2.014c-2.443,0 -4.516,0.653 -6.218,1.957c-1.702,1.305 -3,3.149 -3.892,5.533c-0.893,2.384 -1.339,5.2 -1.339,8.448Z" style="fill:#212529;fill-rule:nonzero;"/></g></g><g><g><g><g><path d="M1182.11,435.908c0,-15.614 -13.902,-28.292 -31.024,-28.292l-550.569,0c-17.123,0 -31.025,12.678 -31.025,28.292l0,56.584c0,15.616 13.902,28.294 31.025,28.294l550.569,-0c17.122,-0 31.024,-12.678 31.024,-28.294l0,-56.584Z" style="fill:#fff;stroke:#212529;stroke-width:14.24px;"/><path d="M608.64,476.994l0,-27.626l20.424,0l-0,4.813l-13.901,0l-0,6.583l12.551,-0l-0,4.813l-12.551,-0l-0,11.417l-6.523,0Z" style="fill:#636363;fill-rule:nonzero;"/><path d="M646.811,468.167l-0,-11.892l6.414,-0l-0,20.719l-6.161,0l0,-3.766l-0.241,0c-0.518,1.214 -1.383,2.19 -2.595,2.929c-1.212,0.738 -2.686,1.107 -4.422,1.107c-1.549,0 -2.912,-0.314 -4.088,-0.941c-1.177,-0.628 -2.094,-1.524 -2.752,-2.687c-0.658,-1.164 -0.99,-2.552 -0.996,-4.163l-0,-13.198l6.413,-0l0,12.173c0.006,1.219 0.373,2.184 1.099,2.894c0.727,0.711 1.699,1.066 2.916,1.066c0.77,-0 1.491,-0.161 2.163,-0.482c0.672,-0.321 1.217,-0.795 1.633,-1.424c0.417,-0.629 0.623,-1.407 0.617,-2.335Z" style="fill:#636363;fill-rule:nonzero;"/><rect x="656.625" y="449.368" width="6.414" height="27.626" style="fill:#636363;fill-rule:nonzero;"/><rect x="666.692" y="449.368" width="6.414" height="27.626" style="fill:#636363;fill-rule:nonzero;"/><path d="M714.628,449.368l0,27.626l-5.642,0l-13.419,-17.385l-0.229,0l0,17.385l-6.522,0l-0,-27.626l5.714,0l13.335,17.375l0.265,-0l-0,-17.375l6.498,0Z" style="fill:#636363;fill-rule:nonzero;"/><path d="M727.239,477.383c-1.472,-0 -2.787,-0.231 -3.943,-0.692c-1.157,-0.461 -2.069,-1.149 -2.736,-2.063c-0.667,-0.913 -1,-2.053 -1,-3.418c-0,-1.155 0.234,-2.122 0.702,-2.901c0.468,-0.78 1.109,-1.408 1.923,-1.885c0.814,-0.476 1.742,-0.838 2.783,-1.084c1.042,-0.247 2.137,-0.42 3.284,-0.519c1.341,-0.118 2.423,-0.234 3.248,-0.346c0.825,-0.112 1.424,-0.282 1.798,-0.507c0.374,-0.226 0.56,-0.56 0.56,-1.003l0,-0.075c0,-0.856 -0.3,-1.518 -0.901,-1.986c-0.601,-0.467 -1.445,-0.701 -2.535,-0.701c-1.155,-0 -2.075,0.226 -2.759,0.678c-0.684,0.453 -1.135,1.021 -1.352,1.707l-5.944,-0.432c0.302,-1.259 0.894,-2.349 1.777,-3.271c0.883,-0.922 2.026,-1.632 3.429,-2.131c1.402,-0.5 3.027,-0.749 4.873,-0.749c1.292,-0 2.527,0.135 3.705,0.406c1.177,0.271 2.225,0.688 3.143,1.252c0.919,0.563 1.645,1.288 2.178,2.174c0.534,0.886 0.8,1.947 0.8,3.182l0,13.975l-6.088,0l-0,-2.87l-0.181,-0c-0.374,0.644 -0.87,1.211 -1.49,1.702c-0.62,0.491 -1.369,0.873 -2.246,1.147c-0.877,0.273 -1.886,0.41 -3.028,0.41Zm1.845,-3.961c0.943,0 1.775,-0.169 2.497,-0.507c0.723,-0.338 1.289,-0.796 1.699,-1.373c0.41,-0.577 0.615,-1.228 0.615,-1.951l-0,-2.201c-0.193,0.113 -0.465,0.217 -0.816,0.313c-0.35,0.095 -0.74,0.181 -1.169,0.256c-0.429,0.076 -0.859,0.143 -1.29,0.202c-0.431,0.06 -0.823,0.112 -1.174,0.157c-0.756,0.097 -1.415,0.254 -1.979,0.471c-0.564,0.216 -1.002,0.507 -1.314,0.871c-0.313,0.364 -0.469,0.816 -0.469,1.356c0,0.788 0.32,1.386 0.959,1.794c0.639,0.408 1.452,0.612 2.441,0.612Z" style="fill:#636363;fill-rule:nonzero;"/><path d="M744.577,476.994l-0,-20.719l6.112,-0l0,3.658l0.265,0c0.483,-1.22 1.288,-2.179 2.418,-2.879c1.129,-0.699 2.477,-1.049 4.045,-1.049c1.587,-0 2.937,0.354 4.051,1.062c1.113,0.707 1.856,1.663 2.23,2.866l0.241,0c0.472,-1.189 1.328,-2.141 2.568,-2.856c1.24,-0.715 2.707,-1.072 4.401,-1.072c2.16,-0 3.918,0.614 5.273,1.843c1.355,1.228 2.033,2.966 2.033,5.215l-0,13.931l-6.414,0l-0,-12.798c-0,-1.157 -0.341,-2.022 -1.022,-2.595c-0.681,-0.572 -1.534,-0.859 -2.559,-0.859c-1.163,0 -2.073,0.331 -2.729,0.992c-0.656,0.661 -0.984,1.532 -0.984,2.613l-0,12.647l-6.221,0l-0,-12.928c-0,-1.016 -0.325,-1.824 -0.974,-2.424c-0.649,-0.6 -1.502,-0.9 -2.559,-0.9c-0.713,0 -1.353,0.158 -1.92,0.475c-0.566,0.317 -1.015,0.761 -1.346,1.334c-0.33,0.573 -0.495,1.243 -0.495,2.011l-0,12.432l-6.414,0Z" style="fill:#636363;fill-rule:nonzero;"/><path d="M792.006,477.394c-2.375,-0 -4.42,-0.432 -6.135,-1.297c-1.715,-0.864 -3.034,-2.094 -3.957,-3.69c-0.923,-1.597 -1.385,-3.488 -1.385,-5.675c-0,-2.133 0.463,-4.005 1.389,-5.615c0.927,-1.609 2.23,-2.864 3.91,-3.763c1.68,-0.9 3.655,-1.349 5.925,-1.349c1.532,-0 2.957,0.217 4.277,0.653c1.321,0.435 2.475,1.09 3.464,1.965c0.988,0.875 1.76,1.971 2.314,3.288c0.555,1.316 0.832,2.855 0.832,4.616l0,1.575l-19.543,0l-0,-3.561l13.503,-0c-0.006,-0.824 -0.21,-1.555 -0.613,-2.195c-0.403,-0.639 -0.959,-1.142 -1.667,-1.508c-0.708,-0.366 -1.528,-0.549 -2.458,-0.549c-0.971,0 -1.831,0.202 -2.58,0.606c-0.75,0.403 -1.336,0.94 -1.759,1.609c-0.423,0.669 -0.64,1.413 -0.653,2.231l0,3.389c0,1.025 0.215,1.911 0.645,2.657c0.43,0.747 1.037,1.321 1.821,1.724c0.784,0.403 1.71,0.604 2.779,0.604c0.717,0 1.371,-0.09 1.961,-0.272c0.59,-0.182 1.098,-0.451 1.524,-0.808c0.426,-0.357 0.747,-0.795 0.964,-1.315l5.932,0.345c-0.302,1.281 -0.916,2.395 -1.842,3.344c-0.926,0.949 -2.121,1.685 -3.585,2.207c-1.464,0.522 -3.152,0.784 -5.063,0.784Z" style="fill:#636363;fill-rule:nonzero;"/></g></g></g></g><g><g><path d="M1183.46,598.814c-0,-15.616 -13.902,-28.292 -31.025,-28.292l-550.569,-0c-17.122,-0 -31.024,12.676 -31.024,28.292l-0,56.584c-0,15.615 13.902,28.292 31.024,28.292l550.569,0c17.123,0 31.025,-12.677 31.025,-28.292l-0,-56.584Z" style="fill:#fff;stroke:#212529;stroke-width:14.24px;"/><path d="M607.942,634.912l-0,-28.146l20.797,-0l-0,4.903l-14.275,0l0,6.707l13.202,0l-0,4.904l-13.202,-0l0,6.728l14.335,0l0,4.904l-20.857,0Z" style="fill:#636363;fill-rule:nonzero;"/><path d="M633.2,634.912l-0,-21.11l6.112,0l0,3.728l0.266,-0c0.482,-1.243 1.288,-2.221 2.417,-2.933c1.129,-0.713 2.477,-1.07 4.045,-1.07c1.587,0 2.938,0.361 4.051,1.082c1.113,0.721 1.857,1.695 2.23,2.921l0.241,-0c0.472,-1.212 1.329,-2.182 2.568,-2.91c1.24,-0.728 2.707,-1.093 4.401,-1.093c2.16,0 3.918,0.626 5.273,1.878c1.355,1.251 2.033,3.022 2.033,5.313l0,14.194l-6.414,0l0,-13.04c0,-1.178 -0.34,-2.059 -1.022,-2.643c-0.681,-0.583 -1.534,-0.875 -2.558,-0.875c-1.164,-0 -2.074,0.337 -2.73,1.01c-0.656,0.674 -0.984,1.561 -0.984,2.662l0,12.886l-6.221,0l0,-13.172c0,-1.035 -0.325,-1.858 -0.974,-2.469c-0.649,-0.611 -1.502,-0.917 -2.559,-0.917c-0.713,-0 -1.353,0.161 -1.92,0.484c-0.566,0.322 -1.015,0.775 -1.345,1.359c-0.331,0.584 -0.496,1.267 -0.496,2.049l-0,12.666l-6.414,0Z" style="fill:#636363;fill-rule:nonzero;"/><path d="M676.687,635.308c-1.472,-0 -2.787,-0.235 -3.943,-0.705c-1.157,-0.47 -2.069,-1.171 -2.736,-2.102c-0.667,-0.93 -1,-2.091 -1,-3.482c-0,-1.177 0.234,-2.162 0.702,-2.956c0.468,-0.795 1.109,-1.435 1.923,-1.92c0.814,-0.486 1.742,-0.854 2.783,-1.105c1.042,-0.251 2.137,-0.427 3.284,-0.528c1.341,-0.121 2.423,-0.239 3.248,-0.353c0.825,-0.115 1.424,-0.287 1.798,-0.517c0.374,-0.23 0.56,-0.57 0.56,-1.021l0,-0.077c0,-0.872 -0.3,-1.547 -0.901,-2.023c-0.601,-0.476 -1.445,-0.715 -2.535,-0.715c-1.155,0 -2.075,0.231 -2.759,0.692c-0.684,0.46 -1.135,1.04 -1.352,1.738l-5.944,-0.44c0.302,-1.282 0.894,-2.393 1.777,-3.332c0.883,-0.939 2.026,-1.663 3.429,-2.172c1.402,-0.508 3.027,-0.763 4.873,-0.763c1.292,0 2.527,0.138 3.705,0.414c1.177,0.276 2.225,0.701 3.143,1.275c0.919,0.575 1.645,1.313 2.178,2.216c0.534,0.902 0.8,1.983 0.8,3.242l0,14.238l-6.088,0l-0,-2.925l-0.181,0c-0.374,0.656 -0.87,1.235 -1.49,1.735c-0.62,0.5 -1.369,0.89 -2.246,1.168c-0.877,0.279 -1.886,0.418 -3.028,0.418Zm1.845,-4.035c0.943,-0 1.775,-0.172 2.497,-0.517c0.723,-0.344 1.289,-0.811 1.699,-1.399c0.41,-0.588 0.615,-1.251 0.615,-1.987l-0,-2.243c-0.193,0.115 -0.465,0.221 -0.816,0.319c-0.35,0.097 -0.74,0.184 -1.169,0.261c-0.429,0.077 -0.859,0.145 -1.29,0.206c-0.431,0.06 -0.823,0.113 -1.174,0.159c-0.756,0.099 -1.415,0.259 -1.979,0.48c-0.564,0.221 -1.002,0.517 -1.314,0.888c-0.313,0.371 -0.469,0.831 -0.469,1.381c0,0.803 0.32,1.412 0.959,1.828c0.639,0.416 1.452,0.624 2.441,0.624Z" style="fill:#636363;fill-rule:nonzero;"/><path d="M694.019,634.912l-0,-21.11l6.42,0l-0,21.11l-6.42,0Zm3.24,-23.831c-0.955,0 -1.774,-0.291 -2.457,-0.873c-0.683,-0.581 -1.025,-1.28 -1.025,-2.095c0,-0.807 0.342,-1.501 1.025,-2.083c0.683,-0.581 1.497,-0.872 2.442,-0.872c0.964,-0 1.785,0.291 2.464,0.872c0.678,0.582 1.017,1.276 1.017,2.083c-0,0.815 -0.339,1.514 -1.017,2.095c-0.679,0.582 -1.495,0.873 -2.449,0.873Z" style="fill:#636363;fill-rule:nonzero;"/><rect x="704.092" y="606.766" width="6.414" height="28.146" style="fill:#636363;fill-rule:nonzero;"/><path d="M1183.46,750.866c-0,-15.616 -13.902,-28.292 -31.025,-28.292l-550.569,-0c-17.122,-0 -31.024,12.676 -31.024,28.292l-0,56.584c-0,15.614 13.902,28.292 31.024,28.292l550.569,0c17.123,0 31.025,-12.678 31.025,-28.292l-0,-56.584Z" style="fill:#fff;stroke:#212529;stroke-width:14.24px;"/><path d="M628.408,774.108c-0.211,-0.662 -0.509,-1.252 -0.893,-1.769c-0.384,-0.518 -0.848,-0.959 -1.394,-1.325c-0.545,-0.366 -1.169,-0.643 -1.872,-0.833c-0.702,-0.19 -1.472,-0.284 -2.31,-0.284c-1.575,-0 -2.959,0.356 -4.152,1.069c-1.192,0.713 -2.121,1.751 -2.785,3.114c-0.664,1.363 -0.996,3.022 -0.996,4.975c-0,1.965 0.326,3.634 0.98,5.008c0.653,1.375 1.577,2.421 2.773,3.139c1.195,0.719 2.609,1.078 4.24,1.078c1.473,-0 2.735,-0.24 3.785,-0.72c1.049,-0.48 1.853,-1.161 2.409,-2.043c0.557,-0.881 0.835,-1.919 0.835,-3.114l1.327,0.17l-7.946,0l0,-4.474l12.913,-0l-0,3.551c-0,2.466 -0.573,4.588 -1.72,6.365c-1.146,1.776 -2.724,3.142 -4.732,4.098c-2.008,0.955 -4.311,1.433 -6.907,1.433c-2.895,0 -5.437,-0.583 -7.625,-1.751c-2.189,-1.167 -3.894,-2.829 -5.117,-4.986c-1.223,-2.156 -1.834,-4.719 -1.834,-7.688c-0,-2.287 0.365,-4.325 1.096,-6.116c0.73,-1.79 1.752,-3.308 3.066,-4.555c1.315,-1.247 2.847,-2.196 4.597,-2.845c1.75,-0.65 3.645,-0.975 5.685,-0.975c1.748,0 3.376,0.231 4.884,0.692c1.508,0.46 2.847,1.113 4.018,1.957c1.17,0.843 2.127,1.844 2.871,3.002c0.743,1.159 1.219,2.434 1.428,3.827l-6.624,-0Z" style="fill:#636363;fill-rule:nonzero;"/><path d="M649.886,793.568c-2.375,0 -4.42,-0.44 -6.135,-1.321c-1.715,-0.88 -3.035,-2.133 -3.958,-3.76c-0.923,-1.626 -1.385,-3.553 -1.385,-5.781c0,-2.174 0.463,-4.08 1.39,-5.72c0.926,-1.641 2.229,-2.919 3.909,-3.835c1.68,-0.916 3.655,-1.374 5.926,-1.374c1.531,-0 2.957,0.222 4.277,0.665c1.32,0.443 2.474,1.111 3.463,2.002c0.989,0.892 1.76,2.008 2.315,3.35c0.554,1.341 0.832,2.909 0.832,4.703l-0,1.605l-19.544,-0l0,-3.628l13.504,-0c-0.007,-0.84 -0.211,-1.585 -0.614,-2.236c-0.403,-0.652 -0.958,-1.164 -1.667,-1.537c-0.708,-0.373 -1.527,-0.559 -2.458,-0.559c-0.97,-0 -1.83,0.205 -2.58,0.617c-0.749,0.411 -1.336,0.958 -1.759,1.639c-0.423,0.682 -0.64,1.44 -0.652,2.274l-0,3.452c-0,1.044 0.215,1.947 0.645,2.707c0.43,0.761 1.037,1.346 1.82,1.757c0.784,0.41 1.71,0.615 2.779,0.615c0.718,0 1.371,-0.092 1.961,-0.277c0.59,-0.185 1.098,-0.46 1.524,-0.823c0.426,-0.364 0.747,-0.811 0.964,-1.34l5.932,0.351c-0.301,1.305 -0.915,2.441 -1.842,3.407c-0.926,0.967 -2.121,1.716 -3.585,2.249c-1.464,0.532 -3.151,0.798 -5.062,0.798Z" style="fill:#636363;fill-rule:nonzero;"/><path d="M670.478,780.957l0,12.204l-6.414,0l0,-21.109l6.113,-0l-0,3.727l0.265,-0c0.518,-1.232 1.38,-2.206 2.585,-2.925c1.204,-0.718 2.666,-1.077 4.384,-1.077c1.609,-0 3.012,0.321 4.209,0.963c1.196,0.643 2.126,1.556 2.788,2.742c0.662,1.186 0.99,2.597 0.984,4.233l0,13.446l-6.414,0l0,-12.402c0.006,-1.29 -0.356,-2.299 -1.086,-3.029c-0.731,-0.729 -1.739,-1.094 -3.025,-1.094c-0.864,0 -1.626,0.171 -2.286,0.513c-0.66,0.342 -1.174,0.835 -1.542,1.479c-0.368,0.644 -0.555,1.42 -0.561,2.329Z" style="fill:#636363;fill-rule:nonzero;"/><path d="M697.424,793.502c-1.76,0 -3.35,-0.415 -4.769,-1.245c-1.42,-0.83 -2.545,-2.053 -3.376,-3.669c-0.831,-1.617 -1.247,-3.603 -1.247,-5.96c0,-2.415 0.428,-4.427 1.283,-6.036c0.855,-1.608 1.994,-2.813 3.418,-3.614c1.424,-0.801 2.984,-1.201 4.679,-1.201c1.291,-0 2.371,0.199 3.241,0.598c0.87,0.398 1.573,0.892 2.11,1.481c0.536,0.589 0.947,1.172 1.232,1.747l0.193,0l0,-10.588l6.414,0l0,28.146l-6.329,0l-0,-3.375l-0.278,0c-0.297,0.583 -0.722,1.159 -1.273,1.73c-0.552,0.571 -1.261,1.045 -2.128,1.421c-0.867,0.377 -1.924,0.565 -3.17,0.565Zm2.038,-4.661c1.029,-0 1.904,-0.259 2.627,-0.777c0.722,-0.518 1.275,-1.243 1.658,-2.177c0.382,-0.934 0.574,-2.027 0.574,-3.28c-0,-1.258 -0.19,-2.347 -0.568,-3.27c-0.379,-0.923 -0.93,-1.636 -1.652,-2.141c-0.722,-0.505 -1.602,-0.758 -2.639,-0.758c-1.061,0 -1.953,0.26 -2.675,0.78c-0.722,0.519 -1.269,1.242 -1.64,2.168c-0.37,0.927 -0.556,2 -0.556,3.221c0,1.227 0.188,2.31 0.562,3.247c0.375,0.937 0.924,1.67 1.646,2.196c0.722,0.527 1.61,0.791 2.663,0.791Z" style="fill:#636363;fill-rule:nonzero;"/><path d="M725.781,793.568c-2.375,0 -4.42,-0.44 -6.135,-1.321c-1.715,-0.88 -3.034,-2.133 -3.958,-3.76c-0.923,-1.626 -1.385,-3.553 -1.385,-5.781c0,-2.174 0.464,-4.08 1.39,-5.72c0.926,-1.641 2.229,-2.919 3.909,-3.835c1.68,-0.916 3.655,-1.374 5.926,-1.374c1.531,-0 2.957,0.222 4.277,0.665c1.32,0.443 2.475,1.111 3.463,2.002c0.989,0.892 1.76,2.008 2.315,3.35c0.555,1.341 0.832,2.909 0.832,4.703l0,1.605l-19.543,-0l-0,-3.628l13.503,-0c-0.006,-0.84 -0.211,-1.585 -0.614,-2.236c-0.402,-0.652 -0.958,-1.164 -1.666,-1.537c-0.709,-0.373 -1.528,-0.559 -2.458,-0.559c-0.971,-0 -1.831,0.205 -2.581,0.617c-0.749,0.411 -1.335,0.958 -1.758,1.639c-0.423,0.682 -0.641,1.44 -0.653,2.274l0,3.452c0,1.044 0.215,1.947 0.645,2.707c0.43,0.761 1.037,1.346 1.821,1.757c0.783,0.41 1.71,0.615 2.779,0.615c0.717,0 1.371,-0.092 1.96,-0.277c0.59,-0.185 1.098,-0.46 1.524,-0.823c0.426,-0.364 0.748,-0.811 0.965,-1.34l5.931,0.351c-0.301,1.305 -0.915,2.441 -1.841,3.407c-0.927,0.967 -2.122,1.716 -3.586,2.249c-1.463,0.532 -3.151,0.798 -5.062,0.798Z" style="fill:#636363;fill-rule:nonzero;"/><path d="M739.96,793.161l-0,-21.109l6.221,-0l-0,3.683l0.241,-0c0.422,-1.308 1.129,-2.299 2.123,-2.971c0.994,-0.673 2.139,-1.009 3.435,-1.009c0.321,-0 0.667,0.017 1.038,0.051c0.371,0.034 0.696,0.082 0.975,0.144l0,5.203c-0.295,-0.088 -0.709,-0.163 -1.241,-0.225c-0.533,-0.063 -1.023,-0.094 -1.472,-0.094c-0.938,0 -1.777,0.186 -2.518,0.557c-0.74,0.371 -1.323,0.886 -1.749,1.545c-0.426,0.658 -0.639,1.42 -0.639,2.285l-0,11.94l-6.414,0Z" style="fill:#636363;fill-rule:nonzero;"/></g></g></g><g><g><path d="M1177.13,902.925c0,-15.62 -13.899,-28.3 -31.024,-28.3l-550.516,0c-17.121,0 -31.022,12.68 -31.022,28.3l0,56.599c0,15.619 13.901,28.3 31.022,28.3l550.516,-0c17.125,-0 31.024,-12.681 31.024,-28.3l0,-56.599Z" style="fill:#76f5c0;stroke:#212529;stroke-width:14.24px;"/><g><g><path d="M797.942,922.768c-0.196,-1.771 -0.978,-3.115 -2.412,-4.092c-1.433,-0.977 -3.323,-1.465 -5.669,-1.465c-1.695,0 -3.063,0.244 -4.171,0.672c-1.173,0.427 -2.02,1.038 -2.607,1.77c-0.586,0.733 -0.847,1.588 -0.912,2.565c0,0.794 0.196,1.465 0.587,2.076c0.391,0.611 0.912,1.099 1.629,1.527c0.717,0.427 1.499,0.793 2.411,1.099c0.912,0.305 1.89,0.549 2.932,0.794l4.236,0.915c2.086,0.489 3.976,1.038 5.67,1.771c1.759,0.733 3.258,1.588 4.496,2.687c1.304,1.038 2.281,2.259 2.998,3.725c0.652,1.404 1.043,3.053 1.043,4.885c-0,2.747 -0.717,5.068 -2.216,7.083c-1.434,1.954 -3.519,3.541 -6.256,4.579c-2.737,1.099 -6.06,1.649 -9.905,1.649c-3.845,-0 -7.169,-0.55 -10.036,-1.649c-2.802,-1.099 -5.018,-2.686 -6.582,-4.885c-1.564,-2.137 -2.411,-4.823 -2.476,-7.999l9.71,0c0.065,1.466 0.521,2.687 1.368,3.664c0.782,1.038 1.89,1.771 3.258,2.259c1.369,0.489 2.868,0.733 4.627,0.733c1.695,-0 3.194,-0.244 4.432,-0.672c1.238,-0.488 2.215,-1.099 2.932,-1.954c0.652,-0.793 1.043,-1.77 1.043,-2.808c-0,-1.038 -0.326,-1.832 -0.978,-2.504c-0.586,-0.733 -1.498,-1.282 -2.737,-1.771c-1.173,-0.488 -2.606,-0.916 -4.366,-1.282l-5.148,-1.221c-3.975,-0.916 -7.168,-2.321 -9.449,-4.275c-2.346,-1.953 -3.454,-4.518 -3.454,-7.815c-0,-2.687 0.782,-5.068 2.281,-7.022c1.564,-2.015 3.714,-3.603 6.451,-4.763c2.672,-1.099 5.8,-1.649 9.254,-1.649c3.519,0 6.582,0.55 9.189,1.649c2.606,1.16 4.692,2.748 6.125,4.763c1.499,2.015 2.216,4.335 2.281,6.961l-9.579,-0Z" style="fill:#212529;fill-rule:nonzero;"/></g><g><path d="M836.376,940.231l-0,-19.112l9.84,-0l0,33.278l-9.449,0l-0,-6.045l-0.326,0c-0.847,1.954 -2.15,3.542 -4.04,4.702c-1.825,1.16 -4.106,1.771 -6.778,1.771c-2.346,-0 -4.431,-0.489 -6.256,-1.527c-1.824,-0.977 -3.258,-2.442 -4.235,-4.274c-1.043,-1.893 -1.499,-4.152 -1.499,-6.717l-0,-21.188l9.84,-0l-0,19.54c-0,1.953 0.521,3.541 1.694,4.64c1.108,1.16 2.607,1.71 4.432,1.71c1.173,-0 2.28,-0.244 3.323,-0.733c1.043,-0.549 1.89,-1.282 2.542,-2.32c0.651,-0.977 0.912,-2.259 0.912,-3.725Z" style="fill:#212529;fill-rule:nonzero;"/></g><g><path d="M851.623,954.397l-0,-44.391l9.84,-0l0,16.669l0.326,0c0.456,-0.915 1.043,-1.831 1.89,-2.747c0.847,-0.916 1.89,-1.71 3.258,-2.321c1.303,-0.61 2.998,-0.977 4.953,-0.977c2.606,0 5.018,0.672 7.168,1.893c2.216,1.283 3.975,3.176 5.279,5.74c1.303,2.504 1.955,5.679 1.955,9.526c-0,3.724 -0.652,6.838 -1.89,9.403c-1.304,2.565 -2.998,4.458 -5.214,5.801c-2.15,1.282 -4.626,1.954 -7.298,1.954c-1.89,-0 -3.519,-0.305 -4.888,-0.916c-1.303,-0.611 -2.411,-1.343 -3.258,-2.259c-0.847,-0.855 -1.499,-1.771 -1.955,-2.687l-0.456,-0l-0,5.312l-9.71,0Zm9.645,-16.669c-0,2.015 0.325,3.724 0.912,5.19c0.586,1.465 1.434,2.625 2.541,3.419c1.108,0.855 2.477,1.221 4.041,1.221c1.629,0 2.997,-0.366 4.105,-1.221c1.108,-0.855 1.955,-2.015 2.477,-3.48c0.586,-1.466 0.912,-3.175 0.912,-5.129c-0,-1.893 -0.326,-3.603 -0.847,-5.069c-0.587,-1.465 -1.434,-2.625 -2.542,-3.419c-1.108,-0.794 -2.476,-1.221 -4.105,-1.221c-1.629,-0 -2.933,0.366 -4.041,1.16c-1.107,0.855 -1.955,1.954 -2.541,3.419c-0.587,1.466 -0.912,3.176 -0.912,5.13Z" style="fill:#212529;fill-rule:nonzero;"/></g><g><path d="M891.944,954.397l0,-33.278l9.384,-0l0,5.862l0.391,-0c0.717,-1.954 1.955,-3.542 3.715,-4.641c1.694,-1.099 3.779,-1.71 6.191,-1.71c2.411,0 4.496,0.611 6.256,1.71c1.694,1.16 2.802,2.687 3.388,4.641l0.391,-0c0.717,-1.893 2.02,-3.481 3.91,-4.58c1.89,-1.16 4.171,-1.771 6.778,-1.771c3.323,0 5.995,1.038 8.08,2.992c2.086,1.954 3.128,4.763 3.128,8.366l0,22.409l-9.84,0l0,-20.577c0,-1.832 -0.521,-3.237 -1.564,-4.153c-1.043,-0.915 -2.346,-1.404 -3.91,-1.404c-1.825,0 -3.193,0.55 -4.236,1.588c-0.977,1.099 -1.499,2.503 -1.499,4.213l0,20.333l-9.514,0l0,-20.761c0,-1.648 -0.521,-2.93 -1.499,-3.907c-1.042,-0.977 -2.346,-1.466 -3.975,-1.466c-1.108,0 -2.085,0.244 -2.932,0.794c-0.848,0.488 -1.564,1.221 -2.086,2.137c-0.456,0.916 -0.717,2.015 -0.717,3.236l0,19.967l-9.84,0Z" style="fill:#212529;fill-rule:nonzero;"/></g><g><path d="M948.529,954.397l0,-33.278l9.906,-0l-0,33.278l-9.906,0Zm5.018,-37.613c-1.499,-0 -2.737,-0.428 -3.779,-1.344c-1.043,-0.916 -1.564,-2.015 -1.564,-3.297c-0,-1.282 0.521,-2.381 1.564,-3.297c1.042,-0.916 2.28,-1.405 3.714,-1.405c1.499,0 2.737,0.489 3.78,1.405c1.042,0.916 1.564,2.015 1.564,3.297c-0,1.282 -0.522,2.381 -1.564,3.297c-1.043,0.916 -2.281,1.344 -3.715,1.344Z" style="fill:#212529;fill-rule:nonzero;"/></g><g><path d="M982.952,921.119l-0,6.9l-21.44,-0l-0,-6.9l21.44,-0Zm-16.553,-7.999l9.841,-0l-0,31.019c-0,0.855 0.13,1.527 0.391,2.015c0.326,0.488 0.717,0.794 1.173,0.977c0.521,0.183 1.108,0.305 1.759,0.305c0.456,0 0.913,-0.061 1.369,-0.122c0.521,-0.122 0.847,-0.183 1.108,-0.183l1.564,6.839c-0.522,0.183 -1.239,0.366 -2.086,0.549c-0.912,0.184 -2.02,0.306 -3.323,0.367c-2.346,0.061 -4.432,-0.244 -6.191,-0.916c-1.825,-0.672 -3.193,-1.71 -4.171,-3.175c-0.977,-1.405 -1.499,-3.237 -1.434,-5.435l0,-32.24Z" style="fill:#212529;fill-rule:nonzero;"/></g></g></g></g></g></g></svg>