<?xml version="1.0" encoding="UTF-8" standalone="no"?><!DOCTYPE svg PUBLIC "-//W3C//DTD SVG 1.1//EN" "http://www.w3.org/Graphics/SVG/1.1/DTD/svg11.dtd"><svg width="100%" height="100%" viewBox="0 0 1749 1241" version="1.1" xmlns="http://www.w3.org/2000/svg" xmlns:xlink="http://www.w3.org/1999/xlink" xml:space="preserve" xmlns:serif="http://www.serif.com/" style="fill-rule:evenodd;clip-rule:evenodd;stroke-linecap:round;stroke-linejoin:round;stroke-miterlimit:1.5;"><rect id="Artboard2" x="0" y="0" width="1748.03" height="1240.16" style="fill:none;"/><clipPath id="_clip1"><rect id="Artboard21" serif:id="Artboard2" x="0" y="0" width="1748.03" height="1240.16"/></clipPath><g clip-path="url(#_clip1)"><rect id="Artboard1" x="0" y="0" width="1748.03" height="1240.16" style="fill:none;"/><g><g><rect x="0" y="0" width="1748.03" height="1240.16" style="fill:#ada7ff;"/><g><path d="M1289.95,243.326c0,-69.179 -56.165,-125.345 -125.345,-125.345l-581.182,0c-69.179,0 -125.344,56.166 -125.344,125.345l0,1006.12c0,69.18 56.165,125.345 125.344,125.345l581.182,0c69.18,0 125.345,-56.165 125.345,-125.345l0,-1006.12Z" style="fill:#f8f9fa;stroke:#212529;stroke-width:25px;"/></g><g><g><path d="M760.022,224.522c-0.284,-2.86 -1.505,-5.085 -3.662,-6.676c-2.156,-1.591 -5.074,-2.387 -8.753,-2.387c-2.509,0 -4.632,0.354 -6.367,1.062c-1.736,0.708 -3.056,1.675 -3.96,2.901c-0.904,1.227 -1.364,2.624 -1.378,4.191c-0.028,1.302 0.255,2.44 0.849,3.413c0.594,0.973 1.426,1.809 2.497,2.507c1.07,0.698 2.303,1.298 3.7,1.8c1.397,0.502 2.883,0.93 4.46,1.286l6.534,1.562c3.172,0.71 6.084,1.66 8.736,2.848c2.651,1.189 4.952,2.648 6.903,4.379c1.951,1.731 3.465,3.768 4.542,6.111c1.077,2.344 1.623,5.029 1.637,8.054c-0.014,4.441 -1.141,8.291 -3.38,11.548c-2.24,3.258 -5.461,5.779 -9.663,7.564c-4.202,1.785 -9.267,2.678 -15.195,2.678c-5.876,-0 -10.984,-0.897 -15.323,-2.692c-4.34,-1.794 -7.721,-4.461 -10.142,-8c-2.422,-3.54 -3.697,-7.93 -3.825,-13.172l14.886,0c0.166,2.434 0.872,4.463 2.117,6.087c1.245,1.624 2.91,2.844 4.996,3.658c2.086,0.814 4.459,1.222 7.12,1.222c2.609,-0 4.875,-0.377 6.797,-1.13c1.923,-0.753 3.417,-1.802 4.482,-3.146c1.065,-1.345 1.605,-2.903 1.619,-4.674c-0.014,-1.633 -0.5,-3.005 -1.459,-4.116c-0.959,-1.11 -2.355,-2.057 -4.187,-2.84c-1.833,-0.784 -4.07,-1.496 -6.712,-2.135l-7.926,-1.96c-6.136,-1.492 -10.979,-3.827 -14.528,-7.006c-3.549,-3.18 -5.316,-7.454 -5.301,-12.823c-0.015,-4.399 1.17,-8.247 3.554,-11.545c2.384,-3.298 5.658,-5.868 9.823,-7.71c4.164,-1.841 8.9,-2.762 14.208,-2.762c5.397,-0 10.111,0.923 14.14,2.77c4.029,1.846 7.172,4.416 9.428,7.709c2.256,3.293 3.415,7.101 3.477,11.424l-14.744,-0Z" style="fill:#212529;fill-rule:nonzero;"/><path d="M784.07,276.34l0,-54.545l15.128,-0l-0,54.545l-15.128,0Zm7.635,-61.576c-2.249,-0 -4.178,-0.752 -5.788,-2.255c-1.61,-1.504 -2.415,-3.309 -2.415,-5.416c-0,-2.083 0.805,-3.877 2.415,-5.38c1.61,-1.503 3.527,-2.255 5.753,-2.255c2.272,0 4.208,0.752 5.806,2.255c1.598,1.503 2.397,3.297 2.397,5.38c-0,2.107 -0.799,3.912 -2.397,5.416c-1.598,1.503 -3.522,2.255 -5.771,2.255Z" style="fill:#212529;fill-rule:nonzero;"/><path d="M832.38,297.591c-4.901,-0 -9.102,-0.665 -12.603,-1.993c-3.501,-1.328 -6.281,-3.118 -8.338,-5.369c-2.058,-2.252 -3.392,-4.75 -4.002,-7.497l14.005,-1.875c0.417,0.981 1.084,1.917 2.003,2.809c0.918,0.893 2.141,1.623 3.668,2.191c1.527,0.569 3.396,0.853 5.608,0.853c3.281,-0 5.995,-0.782 8.142,-2.344c2.148,-1.563 3.221,-4.134 3.221,-7.713l0,-9.972l-0.624,0c-0.673,1.506 -1.674,2.937 -3.005,4.293c-1.33,1.357 -3.032,2.463 -5.106,3.317c-2.074,0.855 -4.56,1.282 -7.458,1.282c-4.091,0 -7.811,-0.956 -11.161,-2.869c-3.35,-1.913 -6.016,-4.837 -7.997,-8.771c-1.982,-3.935 -2.973,-8.928 -2.973,-14.979c0,-6.184 1.008,-11.343 3.022,-15.476c2.015,-4.133 4.7,-7.232 8.055,-9.297c3.354,-2.064 7.03,-3.096 11.026,-3.096c3.04,-0 5.59,0.515 7.649,1.544c2.06,1.03 3.726,2.306 5,3.828c1.274,1.523 2.247,3.027 2.919,4.514l0.597,0l-0,-9.176l14.999,-0l0,55.085c0,4.531 -1.137,8.334 -3.412,11.41c-2.275,3.075 -5.418,5.394 -9.429,6.957c-4.01,1.562 -8.612,2.344 -13.806,2.344Zm0.312,-33.381c2.424,-0 4.488,-0.61 6.19,-1.829c1.702,-1.219 3.004,-2.971 3.906,-5.256c0.902,-2.284 1.353,-5.027 1.353,-8.228c0,-3.191 -0.446,-5.967 -1.338,-8.327c-0.893,-2.361 -2.19,-4.191 -3.893,-5.491c-1.702,-1.299 -3.774,-1.949 -6.218,-1.949c-2.5,-0 -4.601,0.668 -6.303,2.006c-1.702,1.338 -2.99,3.192 -3.864,5.562c-0.873,2.37 -1.31,5.103 -1.31,8.199c-0,3.134 0.441,5.846 1.324,8.136c0.883,2.289 2.176,4.058 3.878,5.305c1.702,1.248 3.794,1.872 6.275,1.872Z" style="fill:#212529;fill-rule:nonzero;"/><path d="M883.857,244.806l0,31.534l-15.113,0l-0,-54.545l14.403,-0l-0,9.631l0.625,-0c1.221,-3.182 3.251,-5.701 6.09,-7.557c2.838,-1.856 6.282,-2.784 10.33,-2.784c3.793,-0 7.099,0.829 9.918,2.489c2.82,1.66 5.01,4.021 6.57,7.085c1.56,3.063 2.333,6.709 2.319,10.937l-0,34.744l-15.114,0l0,-32.045c0.014,-3.334 -0.839,-5.943 -2.56,-7.827c-1.721,-1.885 -4.097,-2.827 -7.127,-2.827c-2.036,0 -3.832,0.442 -5.387,1.325c-1.556,0.883 -2.767,2.156 -3.633,3.821c-0.867,1.664 -1.307,3.671 -1.321,6.019Z" style="fill:#212529;fill-rule:nonzero;"/><rect x="955.675" y="203.613" width="15.369" height="72.727" style="fill:#212529;fill-rule:nonzero;"/><path d="M996.925,244.806l0,31.534l-15.113,0l-0,-54.545l14.403,-0l-0,9.631l0.625,-0c1.221,-3.182 3.251,-5.701 6.09,-7.557c2.839,-1.856 6.282,-2.784 10.33,-2.784c3.793,-0 7.099,0.829 9.918,2.489c2.82,1.66 5.01,4.021 6.57,7.085c1.56,3.063 2.333,6.709 2.319,10.937l0,34.744l-15.113,0l-0,-32.045c0.014,-3.334 -0.84,-5.943 -2.561,-7.827c-1.721,-1.885 -4.096,-2.827 -7.127,-2.827c-2.036,0 -3.831,0.442 -5.387,1.325c-1.555,0.883 -2.766,2.156 -3.633,3.821c-0.866,1.664 -1.307,3.671 -1.321,6.019Z" style="fill:#212529;fill-rule:nonzero;"/></g></g><g><g><g><g><path d="M1130.25,466.83c-0,-14.387 -11.681,-26.068 -26.068,-26.068l-462.611,0c-14.387,0 -26.068,11.681 -26.068,26.068l-0,52.136c-0,14.388 11.681,26.069 26.068,26.069l462.611,0c14.387,0 26.068,-11.681 26.068,-26.069l-0,-52.136Z" style="fill:#fff;stroke:#212529;stroke-width:12.5px;"/><path d="M649.28,504.686l0,-25.454l15.651,-0l0,2.734l-12.511,0l0,8.601l11.701,-0l-0,2.734l-11.701,0l0,8.651l12.714,-0l0,2.734l-15.854,0Z" style="fill:#919191;fill-rule:nonzero;"/><path d="M670.199,504.686l0,-19.091l2.887,0l0,2.983l0.254,0c0.405,-1.019 1.059,-1.812 1.962,-2.38c0.904,-0.567 1.988,-0.851 3.255,-0.851c1.283,-0 2.353,0.284 3.21,0.851c0.857,0.568 1.526,1.361 2.007,2.38l0.202,0c0.498,-0.986 1.246,-1.771 2.242,-2.355c0.996,-0.584 2.19,-0.876 3.583,-0.876c1.739,-0 3.162,0.532 4.268,1.597c1.106,1.065 1.659,2.72 1.659,4.965l-0,12.777l-2.989,0l0,-12.777c0,-1.408 -0.392,-2.415 -1.178,-3.02c-0.785,-0.605 -1.709,-0.907 -2.773,-0.907c-1.367,-0 -2.427,0.404 -3.178,1.212c-0.751,0.807 -1.127,1.829 -1.127,3.063l-0,12.429l-3.039,0l-0,-13.075c-0,-1.085 -0.359,-1.962 -1.077,-2.629c-0.717,-0.667 -1.641,-1 -2.773,-1c-0.776,-0 -1.5,0.203 -2.171,0.609c-0.672,0.406 -1.212,0.967 -1.621,1.684c-0.41,0.717 -0.614,1.543 -0.614,2.479l-0,11.932l-2.989,0Z" style="fill:#919191;fill-rule:nonzero;"/><path d="M706.922,505.134c-1.233,-0 -2.351,-0.23 -3.356,-0.69c-1.005,-0.46 -1.802,-1.127 -2.393,-2.001c-0.591,-0.874 -0.887,-1.933 -0.887,-3.176c0,-1.093 0.22,-1.982 0.659,-2.666c0.439,-0.683 1.025,-1.22 1.76,-1.609c0.734,-0.39 1.547,-0.682 2.437,-0.877c0.891,-0.194 1.788,-0.35 2.691,-0.466c1.182,-0.149 2.142,-0.263 2.881,-0.341c0.739,-0.079 1.279,-0.214 1.621,-0.404c0.342,-0.191 0.513,-0.522 0.513,-0.995l-0,-0.099c-0,-1.226 -0.34,-2.179 -1.02,-2.859c-0.679,-0.679 -1.707,-1.019 -3.083,-1.019c-1.427,0 -2.545,0.307 -3.356,0.92c-0.81,0.613 -1.38,1.268 -1.709,1.964l-2.837,-0.995c0.507,-1.16 1.184,-2.065 2.033,-2.715c0.848,-0.651 1.777,-1.107 2.786,-1.368c1.008,-0.261 2.002,-0.391 2.982,-0.391c0.624,-0 1.344,0.072 2.159,0.217c0.814,0.145 1.604,0.442 2.368,0.889c0.764,0.447 1.399,1.123 1.905,2.026c0.507,0.903 0.76,2.113 0.76,3.629l0,12.578l-2.988,0l-0,-2.585l-0.152,0c-0.203,0.414 -0.54,0.858 -1.013,1.33c-0.473,0.472 -1.102,0.874 -1.887,1.206c-0.785,0.331 -1.743,0.497 -2.874,0.497Zm0.455,-2.635c1.182,-0 2.181,-0.228 2.995,-0.684c0.815,-0.456 1.431,-1.044 1.849,-1.765c0.418,-0.721 0.627,-1.479 0.627,-2.274l-0,-2.685c-0.127,0.149 -0.403,0.284 -0.83,0.404c-0.426,0.12 -0.916,0.224 -1.468,0.311c-0.553,0.087 -1.09,0.161 -1.609,0.224c-0.519,0.062 -0.939,0.113 -1.26,0.155c-0.776,0.099 -1.5,0.259 -2.171,0.478c-0.671,0.22 -1.212,0.547 -1.621,0.982c-0.41,0.435 -0.614,1.026 -0.614,1.771c-0,1.02 0.386,1.788 1.158,2.306c0.773,0.518 1.754,0.777 2.944,0.777Z" style="fill:#919191;fill-rule:nonzero;"/><path d="M721.307,504.686l-0,-19.091l2.988,0l0,19.091l-2.988,0Zm1.519,-22.272c-0.582,-0 -1.082,-0.195 -1.5,-0.585c-0.418,-0.389 -0.627,-0.857 -0.627,-1.404c-0,-0.547 0.209,-1.015 0.627,-1.405c0.418,-0.389 0.918,-0.584 1.5,-0.584c0.583,0 1.083,0.195 1.501,0.584c0.418,0.39 0.627,0.858 0.627,1.405c-0,0.547 -0.209,1.015 -0.627,1.404c-0.418,0.39 -0.918,0.585 -1.501,0.585Z" style="fill:#919191;fill-rule:nonzero;"/><rect x="729.765" y="479.232" width="2.988" height="25.455" style="fill:#919191;fill-rule:nonzero;"/></g></g></g></g><g><g><path d="M1132.52,658.542c0,-14.388 -11.681,-26.068 -26.068,-26.068l-462.611,-0c-14.387,-0 -26.068,11.68 -26.068,26.068l0,52.136c0,14.387 11.681,26.068 26.068,26.068l462.611,-0c14.387,-0 26.068,-11.681 26.068,-26.068l0,-52.136Z" style="fill:#fff;stroke:#212529;stroke-width:12.5px;"/><path d="M649.829,697.349l-0,-25.934l8.762,0c2.035,0 3.7,0.365 4.996,1.095c1.296,0.731 2.256,1.716 2.881,2.957c0.624,1.241 0.937,2.626 0.937,4.154c-0,1.528 -0.31,2.916 -0.931,4.166c-0.62,1.249 -1.576,2.243 -2.868,2.982c-1.292,0.738 -2.946,1.108 -4.964,1.108l-6.281,-0l0,-2.786l6.18,-0c1.393,-0 2.511,-0.241 3.355,-0.722c0.845,-0.481 1.459,-1.133 1.843,-1.956c0.384,-0.823 0.576,-1.754 0.576,-2.792c0,-1.039 -0.192,-1.967 -0.576,-2.786c-0.384,-0.819 -1.003,-1.463 -1.855,-1.931c-0.853,-0.469 -1.984,-0.703 -3.394,-0.703l-5.521,-0l0,23.148l-3.14,-0Z" style="fill:#919191;fill-rule:nonzero;"/><path d="M677.788,697.804c-1.232,0 -2.351,-0.234 -3.355,-0.702c-1.005,-0.469 -1.803,-1.148 -2.394,-2.039c-0.591,-0.891 -0.886,-1.969 -0.886,-3.235c-0,-1.115 0.219,-2.02 0.658,-2.717c0.439,-0.696 1.026,-1.243 1.761,-1.639c0.734,-0.397 1.547,-0.695 2.437,-0.893c0.891,-0.199 1.788,-0.357 2.691,-0.475c1.182,-0.152 2.142,-0.268 2.881,-0.348c0.739,-0.08 1.279,-0.218 1.621,-0.412c0.342,-0.194 0.513,-0.532 0.513,-1.013l-0,-0.101c-0,-1.25 -0.34,-2.22 -1.02,-2.913c-0.679,-0.692 -1.707,-1.038 -3.083,-1.038c-1.427,0 -2.545,0.312 -3.356,0.937c-0.81,0.625 -1.38,1.292 -1.709,2.001l-2.837,-1.013c0.507,-1.182 1.184,-2.104 2.033,-2.767c0.848,-0.663 1.777,-1.127 2.785,-1.393c1.009,-0.266 2.003,-0.399 2.982,-0.399c0.625,0 1.345,0.074 2.16,0.222c0.814,0.147 1.603,0.449 2.367,0.905c0.764,0.456 1.4,1.144 1.906,2.064c0.507,0.92 0.76,2.153 0.76,3.698l0,12.815l-2.988,-0l-0,-2.634l-0.152,-0c-0.203,0.422 -0.541,0.873 -1.013,1.355c-0.473,0.481 -1.102,0.89 -1.887,1.228c-0.785,0.338 -1.743,0.506 -2.875,0.506Zm0.456,-2.684c1.182,-0 2.18,-0.232 2.995,-0.697c0.815,-0.464 1.431,-1.063 1.849,-1.798c0.418,-0.734 0.627,-1.507 0.627,-2.317l-0,-2.735c-0.127,0.152 -0.404,0.289 -0.83,0.411c-0.426,0.123 -0.916,0.228 -1.469,0.317c-0.553,0.089 -1.089,0.165 -1.608,0.228c-0.519,0.063 -0.939,0.116 -1.26,0.158c-0.777,0.101 -1.5,0.264 -2.172,0.488c-0.671,0.223 -1.211,0.557 -1.62,1c-0.41,0.443 -0.615,1.045 -0.615,1.805c0,1.038 0.387,1.821 1.159,2.349c0.773,0.527 1.754,0.791 2.944,0.791Z" style="fill:#919191;fill-rule:nonzero;"/><path d="M705.951,682.254l-2.685,0.76c-0.169,-0.447 -0.416,-0.884 -0.741,-1.31c-0.325,-0.427 -0.766,-0.779 -1.323,-1.058c-0.557,-0.278 -1.27,-0.418 -2.14,-0.418c-1.19,0 -2.18,0.273 -2.969,0.817c-0.79,0.545 -1.184,1.235 -1.184,2.071c-0,0.742 0.27,1.329 0.81,1.76c0.54,0.43 1.384,0.789 2.533,1.076l2.887,0.709c1.739,0.422 3.035,1.066 3.887,1.931c0.853,0.866 1.279,1.978 1.279,3.337c0,1.114 -0.319,2.11 -0.956,2.988c-0.637,0.878 -1.526,1.571 -2.665,2.077c-1.14,0.507 -2.465,0.76 -3.977,0.76c-1.983,-0 -3.625,-0.431 -4.925,-1.292c-1.3,-0.861 -2.124,-2.119 -2.47,-3.773l2.837,-0.709c0.27,1.046 0.783,1.831 1.538,2.355c0.756,0.523 1.746,0.785 2.97,0.785c1.393,-0 2.501,-0.298 3.324,-0.893c0.823,-0.595 1.234,-1.31 1.234,-2.146c0,-0.676 -0.236,-1.243 -0.709,-1.703c-0.472,-0.46 -1.198,-0.804 -2.178,-1.032l-3.241,-0.76c-1.782,-0.422 -3.088,-1.079 -3.92,-1.969c-0.831,-0.891 -1.247,-2.007 -1.247,-3.35c0,-1.097 0.31,-2.068 0.931,-2.912c0.62,-0.844 1.469,-1.507 2.545,-1.988c1.076,-0.481 2.298,-0.722 3.666,-0.722c1.925,0 3.438,0.422 4.54,1.266c1.101,0.845 1.884,1.959 2.349,3.343Z" style="fill:#919191;fill-rule:nonzero;"/><path d="M724.59,682.254l-2.684,0.76c-0.169,-0.447 -0.416,-0.884 -0.741,-1.31c-0.325,-0.427 -0.766,-0.779 -1.323,-1.058c-0.557,-0.278 -1.271,-0.418 -2.14,-0.418c-1.191,0 -2.18,0.273 -2.97,0.817c-0.789,0.545 -1.184,1.235 -1.184,2.071c0,0.742 0.27,1.329 0.811,1.76c0.54,0.43 1.384,0.789 2.532,1.076l2.887,0.709c1.74,0.422 3.035,1.066 3.888,1.931c0.853,0.866 1.279,1.978 1.279,3.337c-0,1.114 -0.319,2.11 -0.956,2.988c-0.637,0.878 -1.526,1.571 -2.666,2.077c-1.139,0.507 -2.465,0.76 -3.976,0.76c-1.984,-0 -3.626,-0.431 -4.926,-1.292c-1.3,-0.861 -2.123,-2.119 -2.469,-3.773l2.837,-0.709c0.27,1.046 0.783,1.831 1.538,2.355c0.756,0.523 1.745,0.785 2.97,0.785c1.392,-0 2.5,-0.298 3.324,-0.893c0.823,-0.595 1.234,-1.31 1.234,-2.146c0,-0.676 -0.236,-1.243 -0.709,-1.703c-0.473,-0.46 -1.199,-0.804 -2.178,-1.032l-3.242,-0.76c-1.781,-0.422 -3.087,-1.079 -3.919,-1.969c-0.831,-0.891 -1.247,-2.007 -1.247,-3.35c-0,-1.097 0.31,-2.068 0.931,-2.912c0.62,-0.844 1.469,-1.507 2.545,-1.988c1.076,-0.481 2.298,-0.722 3.666,-0.722c1.925,0 3.438,0.422 4.539,1.266c1.102,0.845 1.885,1.959 2.349,3.343Z" style="fill:#919191;fill-rule:nonzero;"/><path d="M733.86,697.349l-5.927,-19.451l3.141,0l4.204,14.892l0.202,-0l4.154,-14.892l3.191,0l4.103,14.841l0.202,0l4.204,-14.841l3.141,0l-5.926,19.451l-2.938,-0l-4.255,-14.943l-0.304,0l-4.255,14.943l-2.937,-0Z" style="fill:#919191;fill-rule:nonzero;"/><path d="M765.669,697.754c-1.756,-0 -3.295,-0.418 -4.616,-1.254c-1.321,-0.836 -2.351,-2.005 -3.09,-3.507c-0.738,-1.503 -1.108,-3.259 -1.108,-5.268c0,-2.026 0.37,-3.795 1.108,-5.306c0.739,-1.511 1.769,-2.684 3.09,-3.52c1.321,-0.836 2.86,-1.254 4.616,-1.254c1.756,0 3.294,0.418 4.615,1.254c1.322,0.836 2.352,2.009 3.09,3.52c0.739,1.511 1.108,3.28 1.108,5.306c0,2.009 -0.369,3.765 -1.108,5.268c-0.738,1.502 -1.768,2.671 -3.09,3.507c-1.321,0.836 -2.859,1.254 -4.615,1.254Zm-0,-2.685c1.334,0 2.431,-0.342 3.292,-1.025c0.861,-0.684 1.499,-1.583 1.912,-2.698c0.414,-1.114 0.621,-2.321 0.621,-3.621c-0,-1.3 -0.207,-2.512 -0.621,-3.634c-0.413,-1.123 -1.051,-2.031 -1.912,-2.723c-0.861,-0.692 -1.958,-1.038 -3.292,-1.038c-1.334,-0 -2.431,0.346 -3.293,1.038c-0.861,0.692 -1.498,1.6 -1.912,2.723c-0.413,1.122 -0.62,2.334 -0.62,3.634c-0,1.3 0.207,2.507 0.62,3.621c0.414,1.115 1.051,2.014 1.912,2.698c0.862,0.683 1.959,1.025 3.293,1.025Z" style="fill:#919191;fill-rule:nonzero;"/><path d="M779.041,697.349l-0,-19.451l2.887,0l-0,2.938l0.203,0c0.354,-0.962 0.996,-1.743 1.924,-2.342c0.929,-0.6 1.976,-0.9 3.141,-0.9c0.219,0 0.494,0.005 0.823,0.013c0.329,0.009 0.578,0.021 0.747,0.038l-0,3.039c-0.101,-0.025 -0.331,-0.065 -0.69,-0.12c-0.359,-0.055 -0.737,-0.082 -1.133,-0.082c-0.946,-0 -1.788,0.196 -2.527,0.588c-0.738,0.393 -1.321,0.933 -1.747,1.621c-0.427,0.688 -0.64,1.471 -0.64,2.349l0,12.309l-2.988,-0Z" style="fill:#919191;fill-rule:nonzero;"/><path d="M799.048,697.754c-1.621,-0 -3.052,-0.412 -4.292,-1.235c-1.241,-0.823 -2.212,-1.988 -2.913,-3.495c-0.701,-1.507 -1.051,-3.29 -1.051,-5.35c0,-2.043 0.35,-3.816 1.051,-5.318c0.701,-1.503 1.676,-2.664 2.925,-3.483c1.25,-0.818 2.693,-1.228 4.331,-1.228c1.266,0 2.269,0.209 3.007,0.627c0.739,0.418 1.305,0.891 1.697,1.418c0.393,0.528 0.699,0.96 0.918,1.298l0.253,0l0,-9.573l2.989,0l-0,25.934l-2.887,-0l-0,-2.989l-0.355,0c-0.219,0.355 -0.532,0.8 -0.937,1.336c-0.405,0.536 -0.983,1.013 -1.735,1.431c-0.751,0.418 -1.751,0.627 -3.001,0.627Zm0.405,-2.685c1.199,0 2.212,-0.314 3.04,-0.943c0.827,-0.629 1.456,-1.503 1.886,-2.621c0.431,-1.119 0.646,-2.413 0.646,-3.881c0,-1.453 -0.211,-2.725 -0.633,-3.818c-0.422,-1.094 -1.047,-1.946 -1.874,-2.558c-0.827,-0.612 -1.849,-0.918 -3.065,-0.918c-1.266,-0 -2.319,0.323 -3.159,0.968c-0.84,0.646 -1.469,1.52 -1.887,2.622c-0.418,1.101 -0.627,2.336 -0.627,3.704c0,1.384 0.214,2.64 0.64,3.767c0.426,1.127 1.059,2.022 1.899,2.684c0.84,0.663 1.885,0.994 3.134,0.994Z" style="fill:#919191;fill-rule:nonzero;"/></g></g></g><g><g><path d="M1127.2,850.259c0,-14.391 -11.679,-26.075 -26.067,-26.075l-462.567,0c-14.386,0 -26.066,11.684 -26.066,26.075l0,52.15c0,14.391 11.68,26.075 26.066,26.075l462.567,0c14.388,0 26.067,-11.684 26.067,-26.075l0,-52.15Z" style="fill:#76f5c0;stroke:#212529;stroke-width:12.5px;"/><g><g><path d="M808.593,868.542c-0.164,-1.631 -0.821,-2.869 -2.026,-3.769c-1.204,-0.9 -2.792,-1.35 -4.764,-1.35c-1.423,-0 -2.573,0.225 -3.504,0.618c-0.986,0.394 -1.697,0.957 -2.19,1.632c-0.493,0.675 -0.712,1.463 -0.767,2.363c0,0.731 0.164,1.35 0.493,1.913c0.329,0.562 0.767,1.013 1.369,1.406c0.602,0.394 1.259,0.732 2.026,1.013c0.766,0.281 1.588,0.506 2.464,0.731l3.559,0.844c1.752,0.45 3.34,0.957 4.764,1.632c1.478,0.675 2.738,1.463 3.778,2.475c1.095,0.957 1.916,2.082 2.519,3.432c0.547,1.294 0.876,2.813 0.876,4.501c-0,2.532 -0.602,4.67 -1.862,6.527c-1.205,1.8 -2.957,3.263 -5.256,4.219c-2.3,1.013 -5.093,1.519 -8.323,1.519c-3.231,0 -6.024,-0.506 -8.433,-1.519c-2.354,-1.013 -4.216,-2.475 -5.53,-4.501c-1.314,-1.969 -2.026,-4.444 -2.081,-7.37l8.159,0c0.055,1.35 0.438,2.476 1.15,3.376c0.657,0.956 1.588,1.631 2.737,2.081c1.15,0.45 2.41,0.675 3.888,0.675c1.424,0 2.683,-0.225 3.724,-0.618c1.04,-0.45 1.861,-1.013 2.464,-1.801c0.547,-0.731 0.876,-1.631 0.876,-2.588c-0,-0.956 -0.274,-1.688 -0.822,-2.306c-0.492,-0.676 -1.259,-1.182 -2.299,-1.632c-0.986,-0.45 -2.191,-0.844 -3.669,-1.182l-4.326,-1.125c-3.34,-0.844 -6.023,-2.138 -7.939,-3.938c-1.972,-1.8 -2.903,-4.163 -2.903,-7.201c0,-2.476 0.658,-4.67 1.917,-6.47c1.314,-1.857 3.121,-3.32 5.421,-4.389c2.245,-1.012 4.873,-1.519 7.775,-1.519c2.957,0 5.531,0.507 7.721,1.519c2.19,1.069 3.942,2.532 5.147,4.389c1.259,1.856 1.862,3.994 1.916,6.413l-8.049,0Z" style="fill:#212529;fill-rule:nonzero;"/></g><g><path d="M840.887,884.633l0,-17.61l8.269,0l-0,30.663l-7.94,-0l-0,-5.57l-0.274,-0c-0.712,1.8 -1.807,3.263 -3.395,4.332c-1.533,1.069 -3.449,1.631 -5.694,1.631c-1.972,0 -3.724,-0.45 -5.257,-1.406c-1.533,-0.9 -2.738,-2.251 -3.559,-3.938c-0.876,-1.745 -1.259,-3.826 -1.259,-6.189l-0,-19.523l8.268,0l-0,18.004c-0,1.8 0.438,3.263 1.423,4.276c0.931,1.069 2.191,1.575 3.724,1.575c0.985,-0 1.916,-0.225 2.792,-0.675c0.876,-0.507 1.588,-1.182 2.136,-2.138c0.547,-0.9 0.766,-2.082 0.766,-3.432Z" style="fill:#212529;fill-rule:nonzero;"/></g><g><path d="M853.698,897.686l0,-40.902l8.269,-0l-0,15.359l0.273,0c0.384,-0.844 0.876,-1.688 1.588,-2.532c0.712,-0.844 1.588,-1.575 2.738,-2.138c1.095,-0.562 2.519,-0.9 4.162,-0.9c2.19,0 4.216,0.619 6.023,1.744c1.861,1.182 3.34,2.926 4.435,5.289c1.095,2.307 1.643,5.232 1.643,8.777c-0,3.431 -0.548,6.301 -1.588,8.664c-1.095,2.363 -2.519,4.107 -4.381,5.345c-1.807,1.181 -3.887,1.8 -6.132,1.8c-1.588,-0 -2.957,-0.281 -4.107,-0.844c-1.095,-0.563 -2.026,-1.238 -2.738,-2.082c-0.712,-0.787 -1.259,-1.631 -1.643,-2.475l-0.383,-0l0,4.895l-8.159,-0Zm8.104,-15.36c0,1.857 0.274,3.432 0.767,4.782c0.493,1.351 1.205,2.42 2.135,3.151c0.931,0.788 2.081,1.125 3.395,1.125c1.369,0 2.519,-0.337 3.45,-1.125c0.931,-0.788 1.643,-1.857 2.081,-3.207c0.492,-1.35 0.766,-2.925 0.766,-4.726c0,-1.744 -0.274,-3.319 -0.712,-4.669c-0.492,-1.351 -1.204,-2.42 -2.135,-3.151c-0.931,-0.731 -2.081,-1.125 -3.45,-1.125c-1.369,-0 -2.464,0.337 -3.395,1.069c-0.93,0.787 -1.642,1.8 -2.135,3.15c-0.493,1.351 -0.767,2.926 -0.767,4.726Z" style="fill:#212529;fill-rule:nonzero;"/></g><g><path d="M887.578,897.686l0,-30.663l7.885,0l-0,5.401l0.328,0c0.603,-1.8 1.643,-3.263 3.122,-4.275c1.423,-1.013 3.175,-1.576 5.201,-1.576c2.026,0 3.778,0.563 5.257,1.576c1.424,1.068 2.354,2.475 2.847,4.275l0.329,0c0.602,-1.744 1.697,-3.207 3.285,-4.219c1.588,-1.069 3.504,-1.632 5.695,-1.632c2.792,0 5.037,0.957 6.789,2.757c1.753,1.8 2.629,4.388 2.629,7.708l-0,20.648l-8.268,-0l-0,-18.96c-0,-1.688 -0.438,-2.982 -1.315,-3.826c-0.876,-0.844 -1.971,-1.294 -3.285,-1.294c-1.533,-0 -2.683,0.506 -3.559,1.463c-0.821,1.012 -1.259,2.306 -1.259,3.882l-0,18.735l-7.995,-0l0,-19.129c0,-1.519 -0.438,-2.701 -1.259,-3.601c-0.876,-0.9 -1.971,-1.35 -3.34,-1.35c-0.931,-0 -1.752,0.225 -2.464,0.731c-0.712,0.45 -1.314,1.125 -1.753,1.969c-0.383,0.844 -0.602,1.857 -0.602,2.982l0,18.398l-8.268,-0Z" style="fill:#212529;fill-rule:nonzero;"/></g><g><path d="M935.123,897.686l0,-30.663l8.323,0l0,30.663l-8.323,-0Zm4.217,-34.657c-1.26,-0 -2.3,-0.394 -3.176,-1.238c-0.876,-0.844 -1.314,-1.857 -1.314,-3.038c-0,-1.182 0.438,-2.194 1.314,-3.038c0.876,-0.844 1.916,-1.294 3.121,-1.294c1.259,-0 2.3,0.45 3.176,1.294c0.876,0.844 1.314,1.856 1.314,3.038c-0,1.181 -0.438,2.194 -1.314,3.038c-0.876,0.844 -1.917,1.238 -3.121,1.238Z" style="fill:#212529;fill-rule:nonzero;"/></g><g><path d="M964.047,867.023l-0,6.358l-18.015,-0l-0,-6.358l18.015,0Zm-13.908,-7.37l8.268,0l-0,28.581c-0,0.787 0.109,1.406 0.328,1.856c0.274,0.45 0.603,0.732 0.986,0.9c0.438,0.169 0.931,0.282 1.478,0.282c0.384,-0 0.767,-0.056 1.15,-0.113c0.438,-0.112 0.712,-0.169 0.931,-0.169l1.314,6.302c-0.438,0.168 -1.04,0.337 -1.752,0.506c-0.767,0.169 -1.698,0.281 -2.793,0.338c-1.971,0.056 -3.723,-0.225 -5.201,-0.844c-1.534,-0.619 -2.684,-1.576 -3.505,-2.926c-0.821,-1.294 -1.259,-2.982 -1.204,-5.007l-0,-29.706Z" style="fill:#212529;fill-rule:nonzero;"/></g></g></g></g></g></g></svg>