<?xml version="1.0" encoding="UTF-8" standalone="no"?><!DOCTYPE svg PUBLIC "-//W3C//DTD SVG 1.1//EN" "http://www.w3.org/Graphics/SVG/1.1/DTD/svg11.dtd"><svg width="100%" height="100%" viewBox="0 0 1749 1241" version="1.1" xmlns="http://www.w3.org/2000/svg" xmlns:xlink="http://www.w3.org/1999/xlink" xml:space="preserve" xmlns:serif="http://www.serif.com/" style="fill-rule:evenodd;clip-rule:evenodd;stroke-linecap:round;stroke-linejoin:round;stroke-miterlimit:1.5;"><rect id="Artboard2" x="0" y="0" width="1748.03" height="1240.16" style="fill:none;"/><clipPath id="_clip1"><rect id="Artboard21" serif:id="Artboard2" x="0" y="0" width="1748.03" height="1240.16"/></clipPath><g clip-path="url(#_clip1)"><rect id="Artboard1" x="0" y="0" width="1748.03" height="1240.16" style="fill:none;"/><g><g><rect x="0" y="0" width="1748.03" height="1240.16" style="fill:#ada7ff;"/><g><path d="M1289.95,243.326c0,-69.179 -56.165,-125.345 -125.345,-125.345l-581.182,0c-69.179,0 -125.344,56.166 -125.344,125.345l0,1006.12c0,69.18 56.165,125.345 125.344,125.345l581.182,0c69.18,0 125.345,-56.165 125.345,-125.345l0,-1006.12Z" style="fill:#f8f9fa;stroke:#212529;stroke-width:25px;"/></g><g><g><path d="M734.695,222.678c-0.284,-2.86 -1.505,-5.086 -3.661,-6.677c-2.157,-1.591 -5.075,-2.386 -8.754,-2.386c-2.509,-0 -4.632,0.354 -6.367,1.062c-1.735,0.708 -3.055,1.675 -3.96,2.901c-0.904,1.227 -1.363,2.623 -1.377,4.191c-0.029,1.302 0.254,2.439 0.848,3.412c0.594,0.973 1.427,1.809 2.497,2.508c1.07,0.698 2.303,1.298 3.7,1.8c1.397,0.502 2.884,0.93 4.46,1.285l6.534,1.563c3.173,0.71 6.085,1.659 8.736,2.848c2.652,1.188 4.953,2.648 6.903,4.379c1.951,1.73 3.465,3.767 4.542,6.111c1.077,2.344 1.623,5.028 1.638,8.054c-0.015,4.441 -1.142,8.29 -3.381,11.548c-2.24,3.258 -5.46,5.779 -9.663,7.564c-4.202,1.785 -9.267,2.678 -15.195,2.678c-5.876,-0 -10.984,-0.898 -15.323,-2.692c-4.34,-1.795 -7.72,-4.461 -10.142,-8.001c-2.422,-3.539 -3.697,-7.93 -3.825,-13.171l14.887,-0c0.165,2.434 0.871,4.463 2.116,6.087c1.245,1.624 2.911,2.843 4.996,3.658c2.086,0.814 4.459,1.221 7.121,1.221c2.609,0 4.874,-0.376 6.797,-1.129c1.922,-0.753 3.416,-1.802 4.481,-3.147c1.066,-1.344 1.605,-2.902 1.619,-4.673c-0.014,-1.634 -0.5,-3.006 -1.459,-4.116c-0.959,-1.11 -2.354,-2.057 -4.187,-2.841c-1.832,-0.783 -4.07,-1.495 -6.712,-2.134l-7.926,-1.96c-6.136,-1.492 -10.979,-3.827 -14.528,-7.007c-3.548,-3.179 -5.315,-7.453 -5.301,-12.823c-0.014,-4.398 1.17,-8.247 3.554,-11.544c2.385,-3.298 5.659,-5.868 9.823,-7.71c4.164,-1.842 8.9,-2.763 14.208,-2.763c5.398,0 10.111,0.924 14.14,2.77c4.03,1.847 7.173,4.417 9.429,7.71c2.256,3.293 3.415,7.101 3.476,11.424l-14.744,-0Z" style="fill:#212529;fill-rule:nonzero;"/><path d="M758.743,274.496l0,-54.546l15.128,0l0,54.546l-15.128,-0Zm7.635,-61.577c-2.249,0 -4.178,-0.751 -5.788,-2.255c-1.61,-1.503 -2.415,-3.308 -2.415,-5.415c0,-2.084 0.805,-3.877 2.415,-5.38c1.61,-1.504 3.527,-2.255 5.753,-2.255c2.273,-0 4.208,0.751 5.806,2.255c1.598,1.503 2.397,3.296 2.397,5.38c-0,2.107 -0.799,3.912 -2.397,5.415c-1.598,1.504 -3.522,2.255 -5.771,2.255Z" style="fill:#212529;fill-rule:nonzero;"/><path d="M807.053,295.746c-4.9,0 -9.101,-0.664 -12.603,-1.992c-3.501,-1.328 -6.28,-3.118 -8.338,-5.37c-2.057,-2.251 -3.391,-4.75 -4.002,-7.496l14.005,-1.875c0.417,0.98 1.085,1.917 2.003,2.809c0.919,0.892 2.141,1.623 3.668,2.191c1.527,0.568 3.397,0.852 5.608,0.852c3.281,0 5.995,-0.781 8.143,-2.344c2.147,-1.562 3.221,-4.133 3.221,-7.713l-0,-9.971l-0.625,-0c-0.673,1.505 -1.674,2.936 -3.005,4.293c-1.33,1.357 -3.032,2.462 -5.106,3.317c-2.074,0.855 -4.56,1.282 -7.458,1.282c-4.09,0 -7.811,-0.956 -11.161,-2.869c-3.35,-1.913 -6.015,-4.837 -7.997,-8.772c-1.982,-3.934 -2.972,-8.927 -2.972,-14.979c-0,-6.183 1.007,-11.342 3.022,-15.475c2.014,-4.134 4.699,-7.233 8.054,-9.297c3.355,-2.065 7.03,-3.097 11.026,-3.097c3.04,0 5.59,0.515 7.649,1.545c2.06,1.03 3.727,2.306 5,3.828c1.274,1.522 2.247,3.027 2.919,4.514l0.597,-0l-0,-9.177l15,0l-0,55.086c-0,4.531 -1.138,8.334 -3.413,11.409c-2.275,3.076 -5.418,5.395 -9.428,6.957c-4.011,1.563 -8.613,2.344 -13.807,2.344Zm0.313,-33.381c2.424,0 4.487,-0.609 6.189,-1.828c1.702,-1.22 3.005,-2.972 3.907,-5.256c0.902,-2.285 1.353,-5.027 1.353,-8.228c-0,-3.192 -0.447,-5.968 -1.339,-8.328c-0.893,-2.36 -2.19,-4.19 -3.892,-5.49c-1.702,-1.3 -3.775,-1.95 -6.218,-1.95c-2.501,0 -4.602,0.669 -6.304,2.007c-1.702,1.338 -2.99,3.191 -3.863,5.561c-0.874,2.37 -1.311,5.103 -1.311,8.2c0,3.134 0.442,5.846 1.325,8.135c0.883,2.29 2.175,4.058 3.877,5.306c1.703,1.248 3.794,1.871 6.276,1.871Z" style="fill:#212529;fill-rule:nonzero;"/><path d="M858.53,242.962l0,31.534l-15.113,-0l-0,-54.546l14.403,0l0,9.631l0.625,0c1.221,-3.182 3.251,-5.701 6.09,-7.557c2.839,-1.856 6.282,-2.784 10.331,-2.784c3.792,0 7.098,0.83 9.917,2.49c2.82,1.659 5.01,4.021 6.57,7.084c1.56,3.064 2.333,6.709 2.319,10.937l0,34.745l-15.113,-0l-0,-32.046c0.014,-3.333 -0.84,-5.942 -2.561,-7.826c-1.721,-1.885 -4.096,-2.827 -7.127,-2.827c-2.036,-0 -3.831,0.441 -5.387,1.324c-1.555,0.883 -2.766,2.157 -3.633,3.821c-0.866,1.665 -1.307,3.671 -1.321,6.02Z" style="fill:#212529;fill-rule:nonzero;"/><path d="M975.263,201.769l15.37,-0l-0,47.215c-0,5.313 -1.259,9.959 -3.775,13.939c-2.517,3.979 -6.036,7.074 -10.558,9.282c-4.521,2.209 -9.791,3.314 -15.809,3.314c-6.047,-0 -11.331,-1.105 -15.853,-3.314c-4.522,-2.208 -8.034,-5.303 -10.536,-9.282c-2.502,-3.98 -3.753,-8.626 -3.753,-13.939l-0,-47.215l15.369,-0l-0,45.909c-0,2.769 0.611,5.235 1.832,7.397c1.222,2.161 2.941,3.855 5.16,5.082c2.218,1.226 4.812,1.839 7.781,1.839c2.983,-0 5.582,-0.613 7.798,-1.839c2.216,-1.227 3.932,-2.921 5.149,-5.082c1.217,-2.162 1.825,-4.628 1.825,-7.397l0,-45.909Z" style="fill:#212529;fill-rule:nonzero;"/><path d="M1004.21,294.95l0,-75l14.915,0l-0,9.177l0.653,-0c0.672,-1.487 1.641,-2.992 2.905,-4.514c1.264,-1.522 2.921,-2.798 4.971,-3.828c2.051,-1.03 4.596,-1.545 7.635,-1.545c3.997,0 7.672,1.035 11.027,3.104c3.354,2.069 6.039,5.182 8.054,9.339c2.015,4.158 3.022,9.356 3.022,15.597c-0,6.089 -0.979,11.221 -2.937,15.398c-1.958,4.176 -4.609,7.336 -7.955,9.481c-3.345,2.145 -7.091,3.217 -11.239,3.217c-2.935,0 -5.425,-0.486 -7.468,-1.459c-2.043,-0.973 -3.715,-2.197 -5.014,-3.672c-1.3,-1.475 -2.3,-2.965 -3.001,-4.47l-0.454,-0l-0,29.175l-15.114,0Zm14.801,-47.727c-0,3.239 0.451,6.064 1.353,8.477c0.902,2.412 2.204,4.287 3.906,5.625c1.703,1.338 3.766,2.006 6.19,2.006c2.481,0 4.573,-0.68 6.275,-2.041c1.702,-1.362 2.995,-3.253 3.878,-5.675c0.883,-2.422 1.324,-5.219 1.324,-8.392c0,-3.153 -0.437,-5.927 -1.31,-8.32c-0.874,-2.394 -2.161,-4.262 -3.864,-5.604c-1.702,-1.343 -3.803,-2.014 -6.303,-2.014c-2.443,0 -4.516,0.652 -6.218,1.957c-1.702,1.304 -3,3.149 -3.892,5.533c-0.893,2.384 -1.339,5.2 -1.339,8.448Z" style="fill:#212529;fill-rule:nonzero;"/></g></g><g><g><g><g><path d="M1131.39,429.956c-0.001,-14.387 -11.682,-26.068 -26.069,-26.068l-462.611,0c-14.387,0 -26.068,11.681 -26.068,26.068l0,52.136c0,14.388 11.681,26.069 26.068,26.069l462.611,0c14.387,0 26.068,-11.681 26.068,-26.069l0,-52.136Z" style="fill:#fff;stroke:#212529;stroke-width:12.5px;"/><path d="M650.416,467.813l-0,-25.455l15.55,0l-0,2.735l-12.41,-0l0,8.6l11.245,0l-0,2.735l-11.245,-0l0,11.385l-3.14,-0Z" style="fill:#919191;fill-rule:nonzero;"/><path d="M681.972,460.007l-0,-11.285l2.988,-0l0,19.091l-2.988,-0l-0,-3.232l-0.203,0c-0.456,0.97 -1.165,1.792 -2.127,2.467c-0.963,0.676 -2.178,1.013 -3.647,1.013c-1.216,0 -2.296,-0.263 -3.242,-0.789c-0.945,-0.526 -1.688,-1.322 -2.229,-2.386c-0.54,-1.065 -0.81,-2.409 -0.81,-4.034l-0,-12.13l2.988,-0l0,11.932c0,1.392 0.399,2.502 1.197,3.331c0.798,0.828 1.817,1.242 3.058,1.242c0.743,0 1.501,-0.186 2.273,-0.559c0.773,-0.373 1.423,-0.944 1.95,-1.715c0.528,-0.771 0.792,-1.753 0.792,-2.946Z" style="fill:#919191;fill-rule:nonzero;"/><rect x="690.43" y="442.358" width="2.988" height="25.455" style="fill:#919191;fill-rule:nonzero;"/><rect x="698.889" y="442.358" width="2.988" height="25.455" style="fill:#919191;fill-rule:nonzero;"/><path d="M738.347,442.358l-0,25.455l-3.039,-0l-14.132,-19.986l-0.253,-0l-0,19.986l-3.141,-0l0,-25.455l3.039,0l14.183,20.036l0.253,-0l0,-20.036l3.09,0Z" style="fill:#919191;fill-rule:nonzero;"/><path d="M749.946,468.26c-1.232,0 -2.351,-0.23 -3.356,-0.69c-1.004,-0.46 -1.802,-1.127 -2.393,-2.001c-0.591,-0.874 -0.886,-1.932 -0.886,-3.175c-0,-1.094 0.219,-1.983 0.658,-2.666c0.439,-0.684 1.026,-1.22 1.76,-1.61c0.735,-0.389 1.547,-0.681 2.438,-0.876c0.891,-0.195 1.788,-0.35 2.691,-0.466c1.182,-0.149 2.142,-0.263 2.881,-0.342c0.738,-0.079 1.279,-0.213 1.62,-0.404c0.342,-0.191 0.513,-0.522 0.513,-0.994l0,-0.1c0,-1.226 -0.339,-2.179 -1.019,-2.858c-0.68,-0.68 -1.707,-1.02 -3.083,-1.02c-1.427,0 -2.546,0.307 -3.356,0.92c-0.811,0.613 -1.38,1.268 -1.71,1.964l-2.836,-0.994c0.506,-1.16 1.184,-2.066 2.032,-2.716c0.849,-0.651 1.777,-1.106 2.786,-1.367c1.009,-0.261 2.003,-0.392 2.982,-0.392c0.625,0 1.345,0.073 2.159,0.218c0.815,0.145 1.604,0.441 2.368,0.888c0.764,0.448 1.399,1.123 1.906,2.026c0.506,0.903 0.76,2.113 0.76,3.63l-0,12.578l-2.989,-0l0,-2.586l-0.152,0c-0.202,0.415 -0.54,0.858 -1.013,1.33c-0.472,0.473 -1.101,0.875 -1.886,1.206c-0.786,0.331 -1.744,0.497 -2.875,0.497Zm0.456,-2.635c1.182,0 2.18,-0.228 2.995,-0.683c0.814,-0.456 1.431,-1.044 1.848,-1.765c0.418,-0.721 0.627,-1.479 0.627,-2.275l0,-2.684c-0.126,0.149 -0.403,0.283 -0.829,0.403c-0.426,0.121 -0.916,0.224 -1.469,0.311c-0.553,0.087 -1.089,0.162 -1.608,0.224c-0.519,0.062 -0.939,0.114 -1.26,0.155c-0.777,0.1 -1.501,0.259 -2.172,0.479c-0.671,0.219 -1.211,0.547 -1.621,0.982c-0.409,0.435 -0.614,1.025 -0.614,1.771c0,1.019 0.386,1.788 1.159,2.305c0.772,0.518 1.754,0.777 2.944,0.777Z" style="fill:#919191;fill-rule:nonzero;"/><path d="M764.331,467.813l0,-19.091l2.887,-0l0,2.983l0.254,-0c0.405,-1.019 1.059,-1.813 1.962,-2.38c0.904,-0.568 1.988,-0.852 3.255,-0.852c1.283,0 2.353,0.284 3.21,0.852c0.857,0.567 1.526,1.361 2.007,2.38l0.202,-0c0.498,-0.986 1.246,-1.771 2.242,-2.356c0.996,-0.584 2.19,-0.876 3.583,-0.876c1.739,0 3.162,0.533 4.268,1.597c1.106,1.065 1.659,2.72 1.659,4.966l-0,12.777l-2.989,-0l0,-12.777c0,-1.409 -0.392,-2.416 -1.178,-3.021c-0.785,-0.604 -1.709,-0.907 -2.773,-0.907c-1.367,0 -2.427,0.404 -3.178,1.212c-0.751,0.808 -1.127,1.829 -1.127,3.064l-0,12.429l-3.039,-0l-0,-13.076c-0,-1.085 -0.359,-1.961 -1.077,-2.628c-0.717,-0.667 -1.642,-1.001 -2.773,-1.001c-0.776,0 -1.5,0.203 -2.171,0.609c-0.672,0.406 -1.212,0.968 -1.621,1.684c-0.41,0.717 -0.614,1.544 -0.614,2.48l-0,11.932l-2.989,-0Z" style="fill:#919191;fill-rule:nonzero;"/><path d="M803.485,468.21c-1.874,0 -3.489,-0.408 -4.844,-1.224c-1.355,-0.816 -2.397,-1.959 -3.128,-3.43c-0.73,-1.471 -1.095,-3.184 -1.095,-5.14c0,-1.955 0.365,-3.681 1.095,-5.176c0.731,-1.496 1.752,-2.664 3.065,-3.505c1.313,-0.841 2.847,-1.262 4.603,-1.262c1.013,0 2.013,0.166 3.001,0.497c0.988,0.332 1.887,0.868 2.697,1.61c0.811,0.742 1.456,1.721 1.938,2.939c0.481,1.218 0.721,2.718 0.721,4.5l0,1.243l-14.992,-0l-0,-2.536l11.953,0c0,-1.077 -0.217,-2.038 -0.652,-2.883c-0.435,-0.846 -1.051,-1.513 -1.849,-2.002c-0.797,-0.488 -1.737,-0.733 -2.817,-0.733c-1.19,0 -2.218,0.288 -3.084,0.864c-0.865,0.576 -1.53,1.324 -1.994,2.243c-0.464,0.92 -0.696,1.906 -0.696,2.958l-0,1.691c-0,1.442 0.255,2.662 0.766,3.66c0.51,0.999 1.222,1.757 2.133,2.275c0.912,0.518 1.972,0.776 3.179,0.776c0.785,0 1.496,-0.109 2.133,-0.329c0.638,-0.219 1.189,-0.551 1.653,-0.994c0.464,-0.444 0.823,-0.997 1.076,-1.659l2.887,0.795c-0.303,0.961 -0.814,1.804 -1.532,2.529c-0.717,0.725 -1.604,1.289 -2.659,1.691c-1.055,0.401 -2.241,0.602 -3.558,0.602Z" style="fill:#919191;fill-rule:nonzero;"/></g></g></g></g><g><g><path d="M1132.52,580.056c0,-14.388 -11.681,-26.068 -26.068,-26.068l-462.611,-0c-14.387,-0 -26.068,11.68 -26.068,26.068l0,52.136c0,14.387 11.681,26.068 26.068,26.068l462.611,-0c14.387,-0 26.068,-11.681 26.068,-26.068l0,-52.136Z" style="fill:#fff;stroke:#212529;stroke-width:12.5px;"/><path d="M649.829,613.316l-0,-25.934l15.651,0l-0,2.786l-12.511,0l0,8.763l11.701,-0l-0,2.786l-11.701,-0l0,8.813l12.714,0l-0,2.786l-15.854,-0Z" style="fill:#919191;fill-rule:nonzero;"/><path d="M670.748,613.316l-0,-19.45l2.887,-0l-0,3.039l0.253,-0c0.405,-1.039 1.06,-1.847 1.963,-2.425c0.903,-0.578 1.988,-0.868 3.254,-0.868c1.283,0 2.353,0.29 3.21,0.868c0.857,0.578 1.526,1.386 2.007,2.425l0.203,-0c0.498,-1.005 1.245,-1.805 2.241,-2.4c0.996,-0.595 2.191,-0.893 3.584,-0.893c1.739,0 3.161,0.543 4.267,1.628c1.106,1.084 1.659,2.771 1.659,5.059l0,13.017l-2.988,-0l-0,-13.017c-0,-1.436 -0.393,-2.461 -1.178,-3.078c-0.785,-0.616 -1.709,-0.924 -2.773,-0.924c-1.368,0 -2.427,0.412 -3.178,1.235c-0.752,0.823 -1.127,1.863 -1.127,3.121l-0,12.663l-3.04,-0l0,-13.321c0,-1.106 -0.358,-1.999 -1.076,-2.679c-0.717,-0.679 -1.642,-1.019 -2.773,-1.019c-0.777,0 -1.501,0.207 -2.172,0.621c-0.671,0.413 -1.211,0.985 -1.621,1.715c-0.409,0.731 -0.614,1.573 -0.614,2.527l0,12.156l-2.988,-0Z" style="fill:#919191;fill-rule:nonzero;"/><path d="M707.47,613.772c-1.232,-0 -2.351,-0.234 -3.356,-0.703c-1.004,-0.468 -1.802,-1.148 -2.393,-2.039c-0.591,-0.89 -0.886,-1.969 -0.886,-3.235c-0,-1.114 0.219,-2.02 0.658,-2.716c0.439,-0.697 1.026,-1.243 1.76,-1.64c0.735,-0.397 1.547,-0.694 2.438,-0.893c0.891,-0.198 1.788,-0.357 2.691,-0.475c1.182,-0.152 2.142,-0.268 2.881,-0.348c0.738,-0.08 1.279,-0.217 1.621,-0.411c0.341,-0.195 0.512,-0.532 0.512,-1.013l0,-0.102c0,-1.249 -0.339,-2.22 -1.019,-2.912c-0.68,-0.693 -1.707,-1.039 -3.083,-1.039c-1.427,0 -2.546,0.313 -3.356,0.937c-0.81,0.625 -1.38,1.292 -1.71,2.001l-2.836,-1.013c0.506,-1.182 1.184,-2.104 2.032,-2.767c0.849,-0.662 1.777,-1.127 2.786,-1.393c1.009,-0.266 2.003,-0.399 2.982,-0.399c0.625,0 1.345,0.074 2.159,0.222c0.815,0.148 1.604,0.45 2.368,0.905c0.764,0.456 1.4,1.144 1.906,2.065c0.507,0.92 0.76,2.152 0.76,3.697l-0,12.815l-2.989,-0l0,-2.634l-0.152,0c-0.202,0.422 -0.54,0.874 -1.013,1.355c-0.472,0.481 -1.101,0.891 -1.886,1.228c-0.785,0.338 -1.744,0.507 -2.875,0.507Zm0.456,-2.685c1.182,0 2.18,-0.232 2.995,-0.696c0.814,-0.464 1.431,-1.064 1.849,-1.798c0.417,-0.735 0.626,-1.507 0.626,-2.318l0,-2.735c-0.126,0.152 -0.403,0.289 -0.829,0.412c-0.426,0.122 -0.916,0.228 -1.469,0.316c-0.553,0.089 -1.089,0.165 -1.608,0.228c-0.519,0.064 -0.939,0.116 -1.26,0.159c-0.777,0.101 -1.501,0.263 -2.172,0.487c-0.671,0.224 -1.211,0.557 -1.621,1c-0.409,0.444 -0.614,1.045 -0.614,1.805c0,1.038 0.386,1.821 1.159,2.349c0.772,0.527 1.754,0.791 2.944,0.791Z" style="fill:#919191;fill-rule:nonzero;"/><path d="M721.855,613.316l0,-19.45l2.989,-0l-0,19.45l-2.989,-0Zm1.52,-22.692c-0.583,0 -1.083,-0.198 -1.501,-0.595c-0.418,-0.397 -0.627,-0.874 -0.627,-1.431c0,-0.557 0.209,-1.034 0.627,-1.431c0.418,-0.397 0.918,-0.595 1.501,-0.595c0.582,-0 1.082,0.198 1.5,0.595c0.418,0.397 0.627,0.874 0.627,1.431c0,0.557 -0.209,1.034 -0.627,1.431c-0.418,0.397 -0.918,0.595 -1.5,0.595Z" style="fill:#919191;fill-rule:nonzero;"/><rect x="730.314" y="587.382" width="2.988" height="25.934" style="fill:#919191;fill-rule:nonzero;"/><path d="M1132.52,720.154c0,-14.388 -11.681,-26.068 -26.068,-26.068l-462.611,0c-14.387,0 -26.068,11.68 -26.068,26.068l0,52.136c0,14.387 11.681,26.068 26.068,26.068l462.611,0c14.387,0 26.068,-11.681 26.068,-26.068l0,-52.136Z" style="fill:#fff;stroke:#212529;stroke-width:12.5px;"/><path d="M667.557,741.296c-0.279,-0.853 -0.644,-1.619 -1.096,-2.299c-0.451,-0.679 -0.987,-1.26 -1.608,-1.741c-0.62,-0.481 -1.323,-0.848 -2.108,-1.102c-0.785,-0.253 -1.646,-0.38 -2.583,-0.38c-1.537,0 -2.934,0.397 -4.192,1.191c-1.258,0.793 -2.258,1.963 -3.001,3.507c-0.743,1.545 -1.114,3.441 -1.114,5.686c-0,2.246 0.375,4.141 1.127,5.686c0.751,1.545 1.768,2.714 3.051,3.507c1.284,0.794 2.727,1.191 4.331,1.191c1.486,-0 2.797,-0.319 3.932,-0.956c1.135,-0.638 2.022,-1.541 2.659,-2.71c0.638,-1.169 0.956,-2.548 0.956,-4.135l0.963,0.203l-7.801,-0l0,-2.786l9.877,0l0,2.786c0,2.136 -0.453,3.993 -1.361,5.572c-0.907,1.578 -2.157,2.8 -3.748,3.665c-1.591,0.866 -3.417,1.298 -5.477,1.298c-2.296,0 -4.312,-0.54 -6.046,-1.62c-1.735,-1.081 -3.086,-2.617 -4.052,-4.61c-0.967,-1.992 -1.45,-4.356 -1.45,-7.091c-0,-2.051 0.276,-3.898 0.829,-5.54c0.553,-1.642 1.336,-3.041 2.349,-4.198c1.013,-1.156 2.212,-2.043 3.596,-2.659c1.385,-0.616 2.909,-0.924 4.572,-0.924c1.367,-0 2.644,0.204 3.83,0.614c1.186,0.409 2.246,0.988 3.178,1.735c0.933,0.747 1.712,1.637 2.337,2.672c0.625,1.034 1.055,2.18 1.291,3.438l-3.241,-0Z" style="fill:#919191;fill-rule:nonzero;"/><path d="M684.069,759.53c-1.874,0 -3.488,-0.416 -4.843,-1.247c-1.355,-0.832 -2.398,-1.997 -3.128,-3.495c-0.73,-1.499 -1.096,-3.244 -1.096,-5.236c0,-1.993 0.366,-3.751 1.096,-5.274c0.73,-1.524 1.752,-2.714 3.064,-3.571c1.313,-0.857 2.847,-1.286 4.603,-1.286c1.013,0 2.014,0.169 3.001,0.507c0.988,0.338 1.887,0.884 2.698,1.64c0.81,0.755 1.456,1.754 1.937,2.995c0.481,1.241 0.722,2.768 0.722,4.584l-0,1.266l-14.993,-0l-0,-2.583l11.954,-0c-0,-1.098 -0.218,-2.077 -0.653,-2.938c-0.434,-0.861 -1.051,-1.541 -1.848,-2.039c-0.798,-0.498 -1.737,-0.747 -2.818,-0.747c-1.19,-0 -2.218,0.293 -3.083,0.88c-0.865,0.587 -1.53,1.349 -1.995,2.286c-0.464,0.937 -0.696,1.941 -0.696,3.013l-0,1.723c-0,1.468 0.255,2.712 0.766,3.729c0.511,1.017 1.222,1.79 2.134,2.317c0.911,0.528 1.971,0.792 3.178,0.792c0.785,-0 1.496,-0.112 2.134,-0.336c0.637,-0.224 1.188,-0.561 1.652,-1.013c0.465,-0.452 0.823,-1.015 1.077,-1.691l2.887,0.811c-0.304,0.979 -0.815,1.838 -1.532,2.577c-0.718,0.738 -1.604,1.313 -2.66,1.722c-1.055,0.409 -2.241,0.614 -3.558,0.614Z" style="fill:#919191;fill-rule:nonzero;"/><path d="M699.67,747.424l-0,11.701l-2.989,-0l0,-19.45l2.888,-0l-0,3.039l0.253,-0c0.456,-0.988 1.148,-1.784 2.076,-2.387c0.929,-0.604 2.128,-0.906 3.597,-0.906c1.317,0 2.469,0.268 3.457,0.805c0.987,0.536 1.756,1.346 2.304,2.431c0.549,1.085 0.823,2.454 0.823,4.109l0,12.359l-2.988,-0l0,-12.157c0,-1.527 -0.397,-2.72 -1.19,-3.577c-0.794,-0.857 -1.883,-1.285 -3.267,-1.285c-0.954,-0 -1.805,0.207 -2.552,0.62c-0.747,0.414 -1.336,1.018 -1.766,1.811c-0.431,0.794 -0.646,1.756 -0.646,2.887Z" style="fill:#919191;fill-rule:nonzero;"/><path d="M724.894,759.53c-1.621,0 -3.051,-0.411 -4.292,-1.235c-1.241,-0.823 -2.212,-1.988 -2.913,-3.495c-0.701,-1.506 -1.051,-3.29 -1.051,-5.35c0,-2.043 0.35,-3.815 1.051,-5.318c0.701,-1.503 1.676,-2.663 2.925,-3.482c1.25,-0.819 2.693,-1.229 4.331,-1.229c1.266,0 2.269,0.209 3.007,0.627c0.739,0.418 1.305,0.891 1.697,1.418c0.393,0.528 0.699,0.961 0.918,1.298l0.254,0l-0,-9.573l2.988,0l-0,25.934l-2.887,-0l-0,-2.989l-0.355,0c-0.219,0.355 -0.532,0.8 -0.937,1.336c-0.405,0.536 -0.983,1.013 -1.735,1.431c-0.751,0.418 -1.751,0.627 -3.001,0.627Zm0.406,-2.684c1.198,-0 2.211,-0.315 3.039,-0.944c0.827,-0.629 1.456,-1.502 1.886,-2.621c0.431,-1.119 0.646,-2.412 0.646,-3.881c0,-1.452 -0.211,-2.725 -0.633,-3.818c-0.422,-1.093 -1.047,-1.946 -1.874,-2.558c-0.827,-0.612 -1.849,-0.918 -3.064,-0.918c-1.267,-0 -2.32,0.323 -3.16,0.969c-0.84,0.645 -1.469,1.519 -1.887,2.621c-0.418,1.102 -0.626,2.336 -0.626,3.704c-0,1.384 0.213,2.64 0.639,3.767c0.426,1.127 1.059,2.022 1.899,2.685c0.84,0.662 1.885,0.994 3.135,0.994Z" style="fill:#919191;fill-rule:nonzero;"/><path d="M747.839,759.53c-1.874,0 -3.488,-0.416 -4.843,-1.247c-1.355,-0.832 -2.398,-1.997 -3.128,-3.495c-0.73,-1.499 -1.095,-3.244 -1.095,-5.236c-0,-1.993 0.365,-3.751 1.095,-5.274c0.73,-1.524 1.752,-2.714 3.065,-3.571c1.312,-0.857 2.847,-1.286 4.603,-1.286c1.013,0 2.013,0.169 3.001,0.507c0.987,0.338 1.886,0.884 2.697,1.64c0.81,0.755 1.456,1.754 1.937,2.995c0.481,1.241 0.722,2.768 0.722,4.584l0,1.266l-14.993,-0l0,-2.583l11.954,-0c-0,-1.098 -0.217,-2.077 -0.652,-2.938c-0.435,-0.861 -1.051,-1.541 -1.849,-2.039c-0.798,-0.498 -1.737,-0.747 -2.817,-0.747c-1.191,-0 -2.219,0.293 -3.084,0.88c-0.865,0.587 -1.53,1.349 -1.994,2.286c-0.465,0.937 -0.697,1.941 -0.697,3.013l0,1.723c0,1.468 0.256,2.712 0.766,3.729c0.511,1.017 1.222,1.79 2.134,2.317c0.912,0.528 1.971,0.792 3.178,0.792c0.786,-0 1.497,-0.112 2.134,-0.336c0.638,-0.224 1.188,-0.561 1.653,-1.013c0.464,-0.452 0.823,-1.015 1.076,-1.691l2.887,0.811c-0.304,0.979 -0.814,1.838 -1.532,2.577c-0.718,0.738 -1.604,1.313 -2.659,1.722c-1.055,0.409 -2.242,0.614 -3.559,0.614Z" style="fill:#919191;fill-rule:nonzero;"/><path d="M760.452,759.125l-0,-19.45l2.887,-0l-0,2.937l0.202,0c0.355,-0.962 0.997,-1.743 1.925,-2.342c0.929,-0.6 1.976,-0.899 3.141,-0.899c0.219,-0 0.493,0.004 0.823,0.012c0.329,0.009 0.578,0.022 0.747,0.038l-0,3.04c-0.101,-0.026 -0.332,-0.066 -0.69,-0.121c-0.359,-0.055 -0.737,-0.082 -1.134,-0.082c-0.945,-0 -1.787,0.196 -2.526,0.589c-0.739,0.392 -1.321,0.933 -1.747,1.621c-0.427,0.688 -0.64,1.471 -0.64,2.349l0,12.308l-2.988,-0Z" style="fill:#919191;fill-rule:nonzero;"/></g></g></g><g><g><path d="M1127.2,860.259c0,-14.391 -11.679,-26.075 -26.067,-26.075l-462.567,0c-14.386,0 -26.066,11.684 -26.066,26.075l0,52.15c0,14.391 11.68,26.075 26.066,26.075l462.567,0c14.388,0 26.067,-11.684 26.067,-26.075l0,-52.15Z" style="fill:#76f5c0;stroke:#212529;stroke-width:12.5px;"/><g><g><path d="M808.593,878.542c-0.164,-1.631 -0.821,-2.869 -2.026,-3.769c-1.204,-0.9 -2.792,-1.35 -4.764,-1.35c-1.423,-0 -2.573,0.225 -3.504,0.618c-0.986,0.394 -1.697,0.957 -2.19,1.632c-0.493,0.675 -0.712,1.463 -0.767,2.363c0,0.731 0.164,1.35 0.493,1.913c0.329,0.562 0.767,1.013 1.369,1.406c0.602,0.394 1.259,0.732 2.026,1.013c0.766,0.281 1.588,0.506 2.464,0.731l3.559,0.844c1.752,0.45 3.34,0.957 4.764,1.632c1.478,0.675 2.738,1.463 3.778,2.475c1.095,0.957 1.916,2.082 2.519,3.432c0.547,1.294 0.876,2.813 0.876,4.501c-0,2.532 -0.602,4.67 -1.862,6.527c-1.205,1.8 -2.957,3.263 -5.256,4.219c-2.3,1.013 -5.093,1.519 -8.323,1.519c-3.231,0 -6.024,-0.506 -8.433,-1.519c-2.354,-1.013 -4.216,-2.475 -5.53,-4.501c-1.314,-1.969 -2.026,-4.444 -2.081,-7.37l8.159,0c0.055,1.35 0.438,2.476 1.15,3.376c0.657,0.956 1.588,1.631 2.737,2.081c1.15,0.45 2.41,0.675 3.888,0.675c1.424,0 2.683,-0.225 3.724,-0.618c1.04,-0.45 1.861,-1.013 2.464,-1.801c0.547,-0.731 0.876,-1.631 0.876,-2.588c-0,-0.956 -0.274,-1.688 -0.822,-2.306c-0.492,-0.676 -1.259,-1.182 -2.299,-1.632c-0.986,-0.45 -2.191,-0.844 -3.669,-1.182l-4.326,-1.125c-3.34,-0.844 -6.023,-2.138 -7.939,-3.938c-1.972,-1.8 -2.903,-4.163 -2.903,-7.201c0,-2.476 0.658,-4.67 1.917,-6.47c1.314,-1.857 3.121,-3.32 5.421,-4.389c2.245,-1.012 4.873,-1.519 7.775,-1.519c2.957,0 5.531,0.507 7.721,1.519c2.19,1.069 3.942,2.532 5.147,4.389c1.259,1.856 1.862,3.994 1.916,6.413l-8.049,0Z" style="fill:#212529;fill-rule:nonzero;"/></g><g><path d="M840.887,894.633l0,-17.61l8.269,0l-0,30.663l-7.94,-0l-0,-5.57l-0.274,-0c-0.712,1.8 -1.807,3.263 -3.395,4.332c-1.533,1.069 -3.449,1.631 -5.694,1.631c-1.972,0 -3.724,-0.45 -5.257,-1.406c-1.533,-0.9 -2.738,-2.251 -3.559,-3.938c-0.876,-1.745 -1.259,-3.826 -1.259,-6.189l-0,-19.523l8.268,0l-0,18.004c-0,1.8 0.438,3.263 1.423,4.276c0.931,1.069 2.191,1.575 3.724,1.575c0.985,-0 1.916,-0.225 2.792,-0.675c0.876,-0.507 1.588,-1.182 2.136,-2.138c0.547,-0.9 0.766,-2.082 0.766,-3.432Z" style="fill:#212529;fill-rule:nonzero;"/></g><g><path d="M853.698,907.686l0,-40.902l8.269,-0l-0,15.359l0.273,0c0.384,-0.844 0.876,-1.688 1.588,-2.532c0.712,-0.844 1.588,-1.575 2.738,-2.138c1.095,-0.562 2.519,-0.9 4.162,-0.9c2.19,0 4.216,0.619 6.023,1.744c1.861,1.182 3.34,2.926 4.435,5.289c1.095,2.307 1.643,5.232 1.643,8.777c-0,3.431 -0.548,6.301 -1.588,8.664c-1.095,2.363 -2.519,4.107 -4.381,5.345c-1.807,1.181 -3.887,1.8 -6.132,1.8c-1.588,-0 -2.957,-0.281 -4.107,-0.844c-1.095,-0.563 -2.026,-1.238 -2.738,-2.082c-0.712,-0.787 -1.259,-1.631 -1.643,-2.475l-0.383,-0l0,4.895l-8.159,-0Zm8.104,-15.36c0,1.857 0.274,3.432 0.767,4.782c0.493,1.351 1.205,2.42 2.135,3.151c0.931,0.788 2.081,1.125 3.395,1.125c1.369,0 2.519,-0.337 3.45,-1.125c0.931,-0.788 1.643,-1.857 2.081,-3.207c0.492,-1.35 0.766,-2.925 0.766,-4.726c0,-1.744 -0.274,-3.319 -0.712,-4.669c-0.492,-1.351 -1.204,-2.42 -2.135,-3.151c-0.931,-0.731 -2.081,-1.125 -3.45,-1.125c-1.369,-0 -2.464,0.337 -3.395,1.069c-0.93,0.787 -1.642,1.8 -2.135,3.15c-0.493,1.351 -0.767,2.926 -0.767,4.726Z" style="fill:#212529;fill-rule:nonzero;"/></g><g><path d="M887.578,907.686l0,-30.663l7.885,0l-0,5.401l0.328,0c0.603,-1.8 1.643,-3.263 3.122,-4.275c1.423,-1.013 3.175,-1.576 5.201,-1.576c2.026,0 3.778,0.563 5.257,1.576c1.424,1.068 2.354,2.475 2.847,4.275l0.329,0c0.602,-1.744 1.697,-3.207 3.285,-4.219c1.588,-1.069 3.504,-1.632 5.695,-1.632c2.792,0 5.037,0.957 6.789,2.757c1.753,1.8 2.629,4.388 2.629,7.708l-0,20.648l-8.268,-0l-0,-18.96c-0,-1.688 -0.438,-2.982 -1.315,-3.826c-0.876,-0.844 -1.971,-1.294 -3.285,-1.294c-1.533,-0 -2.683,0.506 -3.559,1.463c-0.821,1.012 -1.259,2.306 -1.259,3.882l-0,18.735l-7.995,-0l0,-19.129c0,-1.519 -0.438,-2.701 -1.259,-3.601c-0.876,-0.9 -1.971,-1.35 -3.34,-1.35c-0.931,-0 -1.752,0.225 -2.464,0.731c-0.712,0.45 -1.314,1.125 -1.753,1.969c-0.383,0.844 -0.602,1.857 -0.602,2.982l0,18.398l-8.268,-0Z" style="fill:#212529;fill-rule:nonzero;"/></g><g><path d="M935.123,907.686l0,-30.663l8.323,0l0,30.663l-8.323,-0Zm4.217,-34.657c-1.26,-0 -2.3,-0.394 -3.176,-1.238c-0.876,-0.844 -1.314,-1.857 -1.314,-3.038c-0,-1.182 0.438,-2.194 1.314,-3.038c0.876,-0.844 1.916,-1.294 3.121,-1.294c1.259,-0 2.3,0.45 3.176,1.294c0.876,0.844 1.314,1.856 1.314,3.038c-0,1.181 -0.438,2.194 -1.314,3.038c-0.876,0.844 -1.917,1.238 -3.121,1.238Z" style="fill:#212529;fill-rule:nonzero;"/></g><g><path d="M964.047,877.023l-0,6.358l-18.015,-0l-0,-6.358l18.015,0Zm-13.908,-7.37l8.268,0l-0,28.581c-0,0.787 0.109,1.406 0.328,1.856c0.274,0.45 0.603,0.732 0.986,0.9c0.438,0.169 0.931,0.282 1.478,0.282c0.384,-0 0.767,-0.056 1.15,-0.113c0.438,-0.112 0.712,-0.169 0.931,-0.169l1.314,6.302c-0.438,0.168 -1.04,0.337 -1.752,0.506c-0.767,0.169 -1.698,0.281 -2.793,0.338c-1.971,0.056 -3.723,-0.225 -5.201,-0.844c-1.534,-0.619 -2.684,-1.576 -3.505,-2.926c-0.821,-1.294 -1.259,-2.982 -1.204,-5.007l-0,-29.706Z" style="fill:#212529;fill-rule:nonzero;"/></g></g></g></g></g></g></svg>