<?xml version="1.0" encoding="UTF-8" standalone="no"?><!DOCTYPE svg PUBLIC "-//W3C//DTD SVG 1.1//EN" "http://www.w3.org/Graphics/SVG/1.1/DTD/svg11.dtd"><svg width="100%" height="100%" viewBox="0 0 1749 1241" version="1.1" xmlns="http://www.w3.org/2000/svg" xmlns:xlink="http://www.w3.org/1999/xlink" xml:space="preserve" xmlns:serif="http://www.serif.com/" style="fill-rule:evenodd;clip-rule:evenodd;stroke-linecap:round;stroke-linejoin:round;stroke-miterlimit:1.5;"><rect id="Artboard2" x="0" y="0" width="1748.03" height="1240.16" style="fill:none;"/><clipPath id="_clip1"><rect id="Artboard21" serif:id="Artboard2" x="0" y="0" width="1748.03" height="1240.16"/></clipPath><g clip-path="url(#_clip1)"><rect id="Artboard1" x="0" y="0" width="1748.03" height="1240.16" style="fill:none;"/><g><g><rect x="0" y="0" width="1748.03" height="1240.16" style="fill:#ada7ff;"/><g><path d="M1289.95,243.326c0,-69.179 -56.165,-125.345 -125.345,-125.345l-581.182,0c-69.179,0 -125.344,56.166 -125.344,125.345l0,1006.12c0,69.18 56.165,125.345 125.344,125.345l581.182,0c69.18,0 125.345,-56.165 125.345,-125.345l0,-1006.12Z" style="fill:#f8f9fa;stroke:#212529;stroke-width:25px;"/></g><g><g><text x="714.255px" y="276.34px" style="font-family:'Inter-Regular_Bold', 'Inter', sans-serif;font-size:100px;fill:#212529;">Sign In</text></g></g><g><g><g><g><path d="M1130.25,466.83c-0,-14.387 -11.681,-26.068 -26.068,-26.068l-462.611,0c-14.387,0 -26.068,11.681 -26.068,26.068l-0,52.136c-0,14.388 11.681,26.069 26.068,26.069l462.611,0c14.387,0 26.068,-11.681 26.068,-26.069l-0,-52.136Z" style="fill:#fff;stroke:#212529;stroke-width:12.5px;"/><g transform="matrix(1,0,0,0.981527,0,9.32299)"><text x="646.14px" y="504.686px" style="font-family:'Inter-Regular', 'Inter', sans-serif;font-size:35.659px;fill:#919191;">Email</text></g></g></g></g></g><g><g><path d="M1132.52,658.542c0,-14.388 -11.681,-26.068 -26.068,-26.068l-462.611,-0c-14.387,-0 -26.068,11.68 -26.068,26.068l0,52.136c0,14.387 11.681,26.068 26.068,26.068l462.611,-0c14.387,-0 26.068,-11.681 26.068,-26.068l0,-52.136Z" style="fill:#fff;stroke:#212529;stroke-width:12.5px;"/><text x="646.688px" y="697.349px" style="font-family:'Inter-Regular', 'Inter', sans-serif;font-size:35.659px;fill:#919191;">Passw<tspan x="755.032px 776.306px 788.969px " y="697.349px 697.349px 697.349px ">ord</tspan></text></g></g></g><g><g><path d="M1127.2,850.259c0,-14.391 -11.679,-26.075 -26.067,-26.075l-462.567,0c-14.386,0 -26.066,11.684 -26.066,26.075l0,52.15c0,14.391 11.68,26.075 26.066,26.075l462.567,0c14.388,0 26.067,-11.684 26.067,-26.075l0,-52.15Z" style="fill:#76f5c0;stroke:#212529;stroke-width:12.5px;"/><g><g><path d="M808.593,868.542c-0.164,-1.631 -0.821,-2.869 -2.026,-3.769c-1.204,-0.9 -2.792,-1.35 -4.764,-1.35c-1.423,-0 -2.573,0.225 -3.504,0.618c-0.986,0.394 -1.697,0.957 -2.19,1.632c-0.493,0.675 -0.712,1.463 -0.767,2.363c0,0.731 0.164,1.35 0.493,1.913c0.329,0.562 0.767,1.013 1.369,1.406c0.602,0.394 1.259,0.732 2.026,1.013c0.766,0.281 1.588,0.506 2.464,0.731l3.559,0.844c1.752,0.45 3.34,0.957 4.764,1.632c1.478,0.675 2.738,1.463 3.778,2.475c1.095,0.957 1.916,2.082 2.519,3.432c0.547,1.294 0.876,2.813 0.876,4.501c-0,2.532 -0.602,4.67 -1.862,6.527c-1.205,1.8 -2.957,3.263 -5.256,4.219c-2.3,1.013 -5.093,1.519 -8.323,1.519c-3.231,0 -6.024,-0.506 -8.433,-1.519c-2.354,-1.013 -4.216,-2.475 -5.53,-4.501c-1.314,-1.969 -2.026,-4.444 -2.081,-7.37l8.159,0c0.055,1.35 0.438,2.476 1.15,3.376c0.657,0.956 1.588,1.631 2.737,2.081c1.15,0.45 2.41,0.675 3.888,0.675c1.424,0 2.683,-0.225 3.724,-0.618c1.04,-0.45 1.861,-1.013 2.464,-1.801c0.547,-0.731 0.876,-1.631 0.876,-2.588c-0,-0.956 -0.274,-1.688 -0.822,-2.306c-0.492,-0.676 -1.259,-1.182 -2.299,-1.632c-0.986,-0.45 -2.191,-0.844 -3.669,-1.182l-4.326,-1.125c-3.34,-0.844 -6.023,-2.138 -7.939,-3.938c-1.972,-1.8 -2.903,-4.163 -2.903,-7.201c0,-2.476 0.658,-4.67 1.917,-6.47c1.314,-1.857 3.121,-3.32 5.421,-4.389c2.245,-1.012 4.873,-1.519 7.775,-1.519c2.957,0 5.531,0.507 7.721,1.519c2.19,1.069 3.942,2.532 5.147,4.389c1.259,1.856 1.862,3.994 1.916,6.413l-8.049,0Z" style="fill:#212529;fill-rule:nonzero;"/></g><g><path d="M840.887,884.633l0,-17.61l8.269,0l-0,30.663l-7.94,-0l-0,-5.57l-0.274,-0c-0.712,1.8 -1.807,3.263 -3.395,4.332c-1.533,1.069 -3.449,1.631 -5.694,1.631c-1.972,0 -3.724,-0.45 -5.257,-1.406c-1.533,-0.9 -2.738,-2.251 -3.559,-3.938c-0.876,-1.745 -1.259,-3.826 -1.259,-6.189l-0,-19.523l8.268,0l-0,18.004c-0,1.8 0.438,3.263 1.423,4.276c0.931,1.069 2.191,1.575 3.724,1.575c0.985,-0 1.916,-0.225 2.792,-0.675c0.876,-0.507 1.588,-1.182 2.136,-2.138c0.547,-0.9 0.766,-2.082 0.766,-3.432Z" style="fill:#212529;fill-rule:nonzero;"/></g><g><path d="M853.698,897.686l0,-40.902l8.269,-0l-0,15.359l0.273,0c0.384,-0.844 0.876,-1.688 1.588,-2.532c0.712,-0.844 1.588,-1.575 2.738,-2.138c1.095,-0.562 2.519,-0.9 4.162,-0.9c2.19,0 4.216,0.619 6.023,1.744c1.861,1.182 3.34,2.926 4.435,5.289c1.095,2.307 1.643,5.232 1.643,8.777c-0,3.431 -0.548,6.301 -1.588,8.664c-1.095,2.363 -2.519,4.107 -4.381,5.345c-1.807,1.181 -3.887,1.8 -6.132,1.8c-1.588,-0 -2.957,-0.281 -4.107,-0.844c-1.095,-0.563 -2.026,-1.238 -2.738,-2.082c-0.712,-0.787 -1.259,-1.631 -1.643,-2.475l-0.383,-0l0,4.895l-8.159,-0Zm8.104,-15.36c0,1.857 0.274,3.432 0.767,4.782c0.493,1.351 1.205,2.42 2.135,3.151c0.931,0.788 2.081,1.125 3.395,1.125c1.369,0 2.519,-0.337 3.45,-1.125c0.931,-0.788 1.643,-1.857 2.081,-3.207c0.492,-1.35 0.766,-2.925 0.766,-4.726c0,-1.744 -0.274,-3.319 -0.712,-4.669c-0.492,-1.351 -1.204,-2.42 -2.135,-3.151c-0.931,-0.731 -2.081,-1.125 -3.45,-1.125c-1.369,-0 -2.464,0.337 -3.395,1.069c-0.93,0.787 -1.642,1.8 -2.135,3.15c-0.493,1.351 -0.767,2.926 -0.767,4.726Z" style="fill:#212529;fill-rule:nonzero;"/></g><g><path d="M887.578,897.686l0,-30.663l7.885,0l-0,5.401l0.328,0c0.603,-1.8 1.643,-3.263 3.122,-4.275c1.423,-1.013 3.175,-1.576 5.201,-1.576c2.026,0 3.778,0.563 5.257,1.576c1.424,1.068 2.354,2.475 2.847,4.275l0.329,0c0.602,-1.744 1.697,-3.207 3.285,-4.219c1.588,-1.069 3.504,-1.632 5.695,-1.632c2.792,0 5.037,0.957 6.789,2.757c1.753,1.8 2.629,4.388 2.629,7.708l-0,20.648l-8.268,-0l-0,-18.96c-0,-1.688 -0.438,-2.982 -1.315,-3.826c-0.876,-0.844 -1.971,-1.294 -3.285,-1.294c-1.533,-0 -2.683,0.506 -3.559,1.463c-0.821,1.012 -1.259,2.306 -1.259,3.882l-0,18.735l-7.995,-0l0,-19.129c0,-1.519 -0.438,-2.701 -1.259,-3.601c-0.876,-0.9 -1.971,-1.35 -3.34,-1.35c-0.931,-0 -1.752,0.225 -2.464,0.731c-0.712,0.45 -1.314,1.125 -1.753,1.969c-0.383,0.844 -0.602,1.857 -0.602,2.982l0,18.398l-8.268,-0Z" style="fill:#212529;fill-rule:nonzero;"/></g><g><path d="M935.123,897.686l0,-30.663l8.323,0l0,30.663l-8.323,-0Zm4.217,-34.657c-1.26,-0 -2.3,-0.394 -3.176,-1.238c-0.876,-0.844 -1.314,-1.857 -1.314,-3.038c-0,-1.182 0.438,-2.194 1.314,-3.038c0.876,-0.844 1.916,-1.294 3.121,-1.294c1.259,-0 2.3,0.45 3.176,1.294c0.876,0.844 1.314,1.856 1.314,3.038c-0,1.181 -0.438,2.194 -1.314,3.038c-0.876,0.844 -1.917,1.238 -3.121,1.238Z" style="fill:#212529;fill-rule:nonzero;"/></g><g><path d="M964.047,867.023l-0,6.358l-18.015,-0l-0,-6.358l18.015,0Zm-13.908,-7.37l8.268,0l-0,28.581c-0,0.787 0.109,1.406 0.328,1.856c0.274,0.45 0.603,0.732 0.986,0.9c0.438,0.169 0.931,0.282 1.478,0.282c0.384,-0 0.767,-0.056 1.15,-0.113c0.438,-0.112 0.712,-0.169 0.931,-0.169l1.314,6.302c-0.438,0.168 -1.04,0.337 -1.752,0.506c-0.767,0.169 -1.698,0.281 -2.793,0.338c-1.971,0.056 -3.723,-0.225 -5.201,-0.844c-1.534,-0.619 -2.684,-1.576 -3.505,-2.926c-0.821,-1.294 -1.259,-2.982 -1.204,-5.007l-0,-29.706Z" style="fill:#212529;fill-rule:nonzero;"/></g></g></g></g></g></g></svg>