<?xml version="1.0" encoding="UTF-8" standalone="no"?><!DOCTYPE svg PUBLIC "-//W3C//DTD SVG 1.1//EN" "http://www.w3.org/Graphics/SVG/1.1/DTD/svg11.dtd"><svg width="100%" height="100%" viewBox="0 0 1749 1241" version="1.1" xmlns="http://www.w3.org/2000/svg" xmlns:xlink="http://www.w3.org/1999/xlink" xml:space="preserve" xmlns:serif="http://www.serif.com/" style="fill-rule:evenodd;clip-rule:evenodd;stroke-linecap:round;stroke-linejoin:round;stroke-miterlimit:1.5;"><rect id="Artboard1" x="0" y="-0" width="1748.03" height="1240.16" style="fill:none;"/><clipPath id="_clip1"><rect x="0" y="-0" width="1748.03" height="1240.16"/></clipPath><g clip-path="url(#_clip1)"><g><rect x="0" y="0" width="1748.03" height="1240.16" style="fill:#ada7ff;"/><g><path d="M1525.11,288.326c-0,-69.179 -84.972,-125.345 -189.635,-125.345l-879.272,0c-104.662,0 -189.634,56.166 -189.634,125.345l0,1006.12c0,69.18 84.972,125.345 189.634,125.345l879.272,0c104.663,0 189.635,-56.165 189.635,-125.345l-0,-1006.12Z" style="fill:#f8f9fa;stroke:#212529;stroke-width:32.06px;"/></g><g><g><text x="688.279px" y="374.222px" style="font-family:'Inter-Regular_Bold', 'Inter', sans-serif;font-size:100px;">Sign Up</text></g></g><g><g><path d="M1131.87,531.052c0,-14.387 -11.681,-26.068 -26.068,-26.068l-462.611,0c-14.387,0 -26.068,11.681 -26.068,26.068l0,52.136c0,14.389 11.681,26.07 26.068,26.07l462.611,-0c14.387,-0 26.068,-11.681 26.068,-26.07l0,-52.136Z" style="fill:#fff;stroke:#212529;stroke-width:12.5px;"/></g><g><text x="654.735px" y="576.086px" style="font-family:'Inter-Regular', 'Inter', sans-serif;font-size:50px;fill:#727272;">Name</text></g></g><g><path d="M1131.87,700.147c0,-14.388 -11.681,-26.068 -26.068,-26.068l-462.611,-0c-14.387,-0 -26.068,11.68 -26.068,26.068l0,52.136c0,14.387 11.681,26.068 26.068,26.068l462.611,0c14.387,0 26.068,-11.681 26.068,-26.068l0,-52.136Z" style="fill:#fff;stroke:#212529;stroke-width:12.5px;"/><g><text x="647.634px" y="745.18px" style="font-family:'Inter-Regular', 'Inter', sans-serif;font-size:50px;fill:#727272;">Email</text></g></g><g><g><path d="M1131.87,869.241c0,-14.388 -11.681,-26.068 -26.068,-26.068l-462.611,-0c-14.387,-0 -26.068,11.68 -26.068,26.068l0,52.136c0,14.387 11.681,26.068 26.068,26.068l462.611,-0c14.387,-0 26.068,-11.681 26.068,-26.068l0,-52.136Z" style="fill:#fff;stroke:#212529;stroke-width:12.5px;"/><text x="647.634px" y="914.273px" style="font-family:'Inter-Regular', 'Inter', sans-serif;font-size:50px;fill:#727272;">Gender</text></g></g><g><g><path d="M1131.87,1038.33c0,-14.388 -11.681,-26.068 -26.068,-26.068l-462.611,0c-14.387,0 -26.068,11.68 -26.068,26.068l0,52.136c0,14.387 11.681,26.068 26.068,26.068l462.611,0c14.387,0 26.068,-11.681 26.068,-26.068l0,-52.136Z" style="fill:#76f5c0;stroke:#212529;stroke-width:12.5px;"/><text x="790.843px" y="1083.37px" style="font-family:'Inter-Regular_Bold', 'Inter', sans-serif;font-size:50px;fill:#212529;">Submit</text></g></g></g></g></svg>