<?xml version="1.0" encoding="UTF-8" standalone="no"?><!DOCTYPE svg PUBLIC "-//W3C//DTD SVG 1.1//EN" "http://www.w3.org/Graphics/SVG/1.1/DTD/svg11.dtd"><svg width="100%" height="100%" viewBox="0 0 1749 1241" version="1.1" xmlns="http://www.w3.org/2000/svg" xmlns:xlink="http://www.w3.org/1999/xlink" xml:space="preserve" xmlns:serif="http://www.serif.com/" style="fill-rule:evenodd;clip-rule:evenodd;stroke-linecap:round;stroke-linejoin:round;stroke-miterlimit:1.5;"><rect id="Artboard1" x="0" y="-0" width="1748.03" height="1240.16" style="fill:none;"/><clipPath id="_clip1"><rect x="0" y="-0" width="1748.03" height="1240.16"/></clipPath><g clip-path="url(#_clip1)"><g><rect x="0" y="0" width="1748.03" height="1240.16" style="fill:#ada7ff;"/></g><rect x="1100.33" y="766.104" width="260.925" height="82.82" style="fill:#212529;stroke:#212529;stroke-width:6.25px;"/><path d="M1636.86,190.765c-0,-59.237 -48.093,-107.329 -107.329,-107.329l-1311.03,-0c-59.237,-0 -107.329,48.092 -107.329,107.329l-0,858.631c-0,59.237 48.092,107.329 107.329,107.329l1311.03,0c59.236,0 107.329,-48.092 107.329,-107.329l-0,-858.631Z" style="fill:#fff;stroke:#212529;stroke-width:12.5px;"/><path d="M842.14,164.297c-0,916.29 -0,911.566 -0,911.566" style="fill:none;stroke:#212529;stroke-width:6.25px;"/><path d="M235.602,612.593c1300.05,-0 1293.35,-0 1293.35,-0" style="fill:none;stroke:#212529;stroke-width:6.25px;"/><g><path d="M404.484,332.472c0,-13.981 -11.351,-25.332 -25.332,-25.332l-118.217,-0c-13.982,-0 -25.333,11.351 -25.333,25.332l0,206.918c0,13.982 11.351,25.333 25.333,25.333l118.217,-0c13.981,-0 25.332,-11.351 25.332,-25.333l0,-206.918Z" style="fill:#212529;fill-opacity:0;stroke:#212529;stroke-width:20.83px;"/><rect x="289.192" y="317.389" width="61.702" height="12.624" style="fill:#212529;fill-opacity:0;stroke:#212529;stroke-width:29.17px;"/><path d="M288.29,416.773l0,30.303l-6.404,-0l0,-24.219l-0.177,-0l-6.937,4.344l0,-5.682l7.505,-4.746l6.013,-0Z" style="fill:#212529;fill-rule:nonzero;"/><path d="M306.093,447.49c-1.556,-0.008 -3.057,-0.27 -4.501,-0.786c-1.444,-0.516 -2.737,-1.351 -3.878,-2.505c-1.141,-1.154 -2.045,-2.681 -2.711,-4.581c-0.665,-1.899 -1.001,-4.235 -1.007,-7.007c0.006,-2.569 0.297,-4.864 0.874,-6.885c0.577,-2.021 1.405,-3.735 2.483,-5.142c1.078,-1.406 2.374,-2.478 3.887,-3.215c1.513,-0.737 3.206,-1.105 5.078,-1.105c2.016,-0 3.799,0.395 5.347,1.185c1.549,0.79 2.795,1.862 3.737,3.215c0.942,1.354 1.512,2.878 1.712,4.572l-6.309,0c-0.247,-1.106 -0.766,-1.963 -1.559,-2.57c-0.792,-0.606 -1.768,-0.91 -2.928,-0.91c-1.975,0 -3.473,0.862 -4.494,2.587c-1.02,1.724 -1.539,4.081 -1.555,7.072l0.202,0c0.451,-0.891 1.064,-1.655 1.837,-2.29c0.774,-0.635 1.656,-1.125 2.649,-1.468c0.992,-0.343 2.042,-0.515 3.149,-0.515c1.795,0 3.393,0.421 4.795,1.264c1.402,0.842 2.507,1.998 3.316,3.468c0.809,1.47 1.21,3.152 1.204,5.045c0.006,2.052 -0.468,3.877 -1.422,5.475c-0.953,1.598 -2.281,2.849 -3.981,3.753c-1.701,0.903 -3.676,1.351 -5.925,1.343Zm-0.035,-5.031c0.988,0 1.871,-0.236 2.65,-0.71c0.778,-0.473 1.391,-1.115 1.837,-1.923c0.447,-0.809 0.668,-1.719 0.662,-2.729c0.006,-1.004 -0.211,-1.906 -0.65,-2.706c-0.439,-0.8 -1.043,-1.435 -1.814,-1.905c-0.77,-0.469 -1.65,-0.704 -2.638,-0.704c-0.736,0 -1.418,0.138 -2.046,0.413c-0.629,0.275 -1.177,0.658 -1.644,1.148c-0.468,0.49 -0.834,1.059 -1.1,1.705c-0.265,0.646 -0.401,1.337 -0.406,2.073c0.005,0.978 0.231,1.872 0.677,2.681c0.446,0.809 1.057,1.454 1.832,1.935c0.775,0.482 1.655,0.722 2.64,0.722Z" style="fill:#212529;fill-rule:nonzero;"/><path d="M320.511,455.599l-0,-31.25l6.214,-0l0,3.823l0.273,0c0.28,-0.62 0.683,-1.246 1.21,-1.881c0.527,-0.634 1.217,-1.166 2.071,-1.595c0.855,-0.429 1.915,-0.643 3.182,-0.643c1.665,-0 3.196,0.431 4.594,1.293c1.398,0.862 2.516,2.159 3.356,3.891c0.839,1.732 1.259,3.899 1.259,6.499c-0,2.537 -0.408,4.675 -1.224,6.416c-0.816,1.74 -1.92,3.056 -3.314,3.95c-1.394,0.894 -2.955,1.341 -4.683,1.341c-1.223,-0 -2.261,-0.203 -3.112,-0.608c-0.851,-0.406 -1.548,-0.916 -2.089,-1.53c-0.542,-0.615 -0.959,-1.236 -1.25,-1.863l-0.19,-0l0,12.157l-6.297,-0Zm6.167,-19.887c-0,1.35 0.188,2.527 0.564,3.532c0.375,1.005 0.918,1.787 1.627,2.344c0.71,0.557 1.569,0.836 2.579,0.836c1.034,-0 1.906,-0.284 2.615,-0.851c0.709,-0.567 1.248,-1.355 1.616,-2.364c0.368,-1.01 0.552,-2.175 0.552,-3.497c-0,-1.314 -0.182,-2.469 -0.546,-3.467c-0.364,-0.997 -0.901,-1.775 -1.61,-2.335c-0.709,-0.559 -1.585,-0.839 -2.627,-0.839c-1.018,0 -1.881,0.272 -2.591,0.816c-0.709,0.543 -1.249,1.312 -1.621,2.305c-0.372,0.993 -0.558,2.167 -0.558,3.52Z" style="fill:#212529;fill-rule:nonzero;"/><path d="M350.222,424.349l4.167,7.942l4.273,-7.942l6.475,-0l-6.594,11.363l6.771,11.364l-6.439,-0l-4.486,-7.86l-4.416,7.86l-6.51,-0l6.759,-11.364l-6.51,-11.363l6.51,-0Z" style="fill:#212529;fill-rule:nonzero;"/></g><g><path d="M755.193,185.022c-0,-22.961 -18.641,-41.602 -41.601,-41.602l-194.139,0c-22.961,0 -41.601,18.641 -41.601,41.602l-0,339.806c-0,22.96 18.64,41.601 41.601,41.601l194.139,-0c22.96,-0 41.601,-18.641 41.601,-41.601l-0,-339.806Z" style="fill:#212529;fill-opacity:0;stroke:#212529;stroke-width:20.83px;"/><rect x="565.858" y="160.253" width="101.328" height="20.732" style="fill:#212529;fill-opacity:0;stroke:#212529;stroke-width:29.17px;"/><path d="M584.438,335.566l-0,30.62l-6.471,-0l-0,-24.472l-0.18,-0l-7.009,4.39l0,-5.742l7.584,-4.796l6.076,0Z" style="fill:#212529;fill-rule:nonzero;"/><path d="M602.426,366.604c-1.572,-0.008 -3.088,-0.272 -4.548,-0.794c-1.459,-0.521 -2.765,-1.365 -3.918,-2.531c-1.153,-1.166 -2.066,-2.709 -2.739,-4.629c-0.673,-1.919 -1.012,-4.279 -1.018,-7.08c0.006,-2.596 0.3,-4.915 0.883,-6.957c0.583,-2.042 1.42,-3.774 2.509,-5.195c1.089,-1.422 2.399,-2.505 3.928,-3.249c1.529,-0.745 3.239,-1.117 5.131,-1.117c2.037,-0 3.838,0.399 5.403,1.197c1.565,0.799 2.823,1.882 3.775,3.249c0.952,1.368 1.528,2.908 1.73,4.62l-6.375,0c-0.249,-1.118 -0.774,-1.984 -1.574,-2.597c-0.801,-0.613 -1.787,-0.919 -2.959,-0.919c-1.996,-0 -3.509,0.871 -4.541,2.613c-1.031,1.742 -1.555,4.124 -1.571,7.147l0.203,-0c0.457,-0.901 1.076,-1.673 1.857,-2.315c0.781,-0.642 1.673,-1.136 2.676,-1.483c1.003,-0.347 2.063,-0.52 3.182,-0.52c1.814,-0 3.429,0.425 4.845,1.277c1.417,0.851 2.533,2.019 3.351,3.504c0.817,1.485 1.223,3.185 1.217,5.098c0.006,2.074 -0.473,3.917 -1.437,5.532c-0.964,1.615 -2.305,2.879 -4.023,3.792c-1.719,0.913 -3.714,1.365 -5.987,1.357Zm-0.035,-5.083c0.998,0 1.891,-0.239 2.677,-0.718c0.787,-0.478 1.406,-1.126 1.857,-1.943c0.452,-0.818 0.675,-1.737 0.669,-2.757c0.006,-1.015 -0.213,-1.926 -0.657,-2.735c-0.443,-0.808 -1.054,-1.45 -1.833,-1.924c-0.778,-0.474 -1.667,-0.712 -2.666,-0.712c-0.743,0 -1.432,0.139 -2.067,0.418c-0.635,0.278 -1.189,0.664 -1.661,1.16c-0.473,0.495 -0.843,1.069 -1.111,1.722c-0.268,0.653 -0.405,1.351 -0.411,2.095c0.006,0.989 0.234,1.892 0.684,2.709c0.451,0.817 1.068,1.469 1.851,1.955c0.784,0.487 1.673,0.73 2.668,0.73Z" style="fill:#212529;fill-rule:nonzero;"/><path d="M616.995,374.797l-0,-31.576l6.279,0l-0,3.864l0.275,-0c0.283,-0.627 0.691,-1.26 1.223,-1.901c0.532,-0.641 1.23,-1.178 2.093,-1.612c0.863,-0.433 1.935,-0.65 3.215,-0.65c1.682,0 3.229,0.436 4.642,1.307c1.412,0.871 2.543,2.182 3.391,3.932c0.848,1.75 1.272,3.939 1.272,6.566c0,2.564 -0.412,4.725 -1.236,6.483c-0.825,1.758 -1.941,3.089 -3.349,3.992c-1.409,0.903 -2.986,1.354 -4.732,1.354c-1.236,0 -2.284,-0.204 -3.145,-0.614c-0.86,-0.41 -1.564,-0.925 -2.111,-1.546c-0.547,-0.621 -0.968,-1.248 -1.263,-1.882l-0.191,-0l-0,12.283l-6.363,0Zm6.231,-20.094c-0,1.364 0.19,2.554 0.57,3.569c0.379,1.016 0.928,1.805 1.644,2.369c0.717,0.563 1.586,0.844 2.606,0.844c1.045,0 1.926,-0.286 2.642,-0.859c0.717,-0.574 1.261,-1.37 1.633,-2.39c0.372,-1.019 0.557,-2.197 0.557,-3.533c0,-1.327 -0.183,-2.495 -0.551,-3.503c-0.368,-1.007 -0.91,-1.794 -1.627,-2.359c-0.716,-0.565 -1.601,-0.848 -2.654,-0.848c-1.028,0 -1.901,0.275 -2.618,0.824c-0.716,0.549 -1.263,1.326 -1.638,2.33c-0.376,1.003 -0.564,2.189 -0.564,3.556Z" style="fill:#212529;fill-rule:nonzero;"/><path d="M647.016,343.221l4.21,8.026l4.318,-8.026l6.542,0l-6.662,11.482l6.842,11.483l-6.507,-0l-4.533,-7.942l-4.461,7.942l-6.578,-0l6.829,-11.483l-6.578,-11.482l6.578,0Z" style="fill:#212529;fill-rule:nonzero;"/></g><g><path d="M404.484,872.697c0,-13.981 -11.351,-25.332 -25.332,-25.332l-118.217,-0c-13.982,-0 -25.333,11.351 -25.333,25.332l0,206.919c0,13.981 11.351,25.332 25.333,25.332l118.217,-0c13.981,-0 25.332,-11.351 25.332,-25.332l0,-206.919Z" style="fill:#212529;fill-opacity:0;stroke:#212529;stroke-width:20.83px;"/><rect x="289.192" y="857.615" width="61.702" height="12.624" style="fill:#212529;fill-opacity:0;stroke:#212529;stroke-width:29.17px;"/><path d="M288.29,956.998l0,30.303l-6.404,0l0,-24.219l-0.177,0l-6.937,4.344l0,-5.681l7.505,-4.747l6.013,0Z" style="fill:#212529;fill-rule:nonzero;"/><path d="M306.093,987.715c-1.556,-0.008 -3.057,-0.269 -4.501,-0.785c-1.444,-0.516 -2.737,-1.351 -3.878,-2.505c-1.141,-1.155 -2.045,-2.682 -2.711,-4.581c-0.665,-1.9 -1.001,-4.236 -1.007,-7.008c0.006,-2.569 0.297,-4.863 0.874,-6.885c0.577,-2.021 1.405,-3.735 2.483,-5.141c1.078,-1.407 2.374,-2.479 3.887,-3.216c1.513,-0.737 3.206,-1.105 5.078,-1.105c2.016,-0 3.799,0.395 5.347,1.185c1.549,0.79 2.795,1.862 3.737,3.215c0.942,1.354 1.512,2.878 1.712,4.573l-6.309,-0c-0.247,-1.107 -0.766,-1.964 -1.559,-2.571c-0.792,-0.606 -1.768,-0.91 -2.928,-0.91c-1.975,0 -3.473,0.863 -4.494,2.587c-1.02,1.724 -1.539,4.082 -1.555,7.072l0.202,0c0.451,-0.891 1.064,-1.655 1.837,-2.29c0.774,-0.635 1.656,-1.124 2.649,-1.468c0.992,-0.343 2.042,-0.515 3.149,-0.515c1.795,0 3.393,0.421 4.795,1.264c1.402,0.842 2.507,1.998 3.316,3.468c0.809,1.47 1.21,3.152 1.204,5.046c0.006,2.051 -0.468,3.876 -1.422,5.474c-0.953,1.598 -2.281,2.849 -3.981,3.753c-1.701,0.903 -3.676,1.351 -5.925,1.343Zm-0.035,-5.03c0.988,-0 1.871,-0.237 2.65,-0.711c0.778,-0.473 1.391,-1.114 1.837,-1.923c0.447,-0.809 0.668,-1.719 0.662,-2.729c0.006,-1.004 -0.211,-1.906 -0.65,-2.706c-0.439,-0.8 -1.043,-1.435 -1.814,-1.904c-0.77,-0.47 -1.65,-0.705 -2.638,-0.705c-0.736,0 -1.418,0.138 -2.046,0.413c-0.629,0.276 -1.177,0.658 -1.644,1.148c-0.468,0.491 -0.834,1.059 -1.1,1.705c-0.265,0.646 -0.401,1.337 -0.406,2.073c0.005,0.979 0.231,1.872 0.677,2.681c0.446,0.809 1.057,1.454 1.832,1.936c0.775,0.481 1.655,0.722 2.64,0.722Z" style="fill:#212529;fill-rule:nonzero;"/><path d="M320.511,995.824l-0,-31.25l6.214,-0l0,3.823l0.273,0c0.28,-0.619 0.683,-1.246 1.21,-1.88c0.527,-0.635 1.217,-1.166 2.071,-1.596c0.855,-0.429 1.915,-0.643 3.182,-0.643c1.665,-0 3.196,0.431 4.594,1.293c1.398,0.862 2.516,2.159 3.356,3.891c0.839,1.733 1.259,3.899 1.259,6.499c-0,2.537 -0.408,4.676 -1.224,6.416c-0.816,1.74 -1.92,3.057 -3.314,3.95c-1.394,0.894 -2.955,1.341 -4.683,1.341c-1.223,-0 -2.261,-0.203 -3.112,-0.608c-0.851,-0.406 -1.548,-0.916 -2.089,-1.53c-0.542,-0.615 -0.959,-1.236 -1.25,-1.863l-0.19,0l0,12.157l-6.297,-0Zm6.167,-19.887c-0,1.35 0.188,2.527 0.564,3.532c0.375,1.006 0.918,1.787 1.627,2.344c0.71,0.558 1.569,0.836 2.579,0.836c1.034,0 1.906,-0.283 2.615,-0.851c0.709,-0.567 1.248,-1.355 1.616,-2.364c0.368,-1.009 0.552,-2.175 0.552,-3.497c-0,-1.314 -0.182,-2.469 -0.546,-3.466c-0.364,-0.998 -0.901,-1.776 -1.61,-2.335c-0.709,-0.56 -1.585,-0.839 -2.627,-0.839c-1.018,-0 -1.881,0.271 -2.591,0.815c-0.709,0.543 -1.249,1.312 -1.621,2.305c-0.372,0.994 -0.558,2.167 -0.558,3.52Z" style="fill:#212529;fill-rule:nonzero;"/><path d="M350.222,964.574l4.167,7.942l4.273,-7.942l6.475,-0l-6.594,11.363l6.771,11.364l-6.439,0l-4.486,-7.86l-4.416,7.86l-6.51,0l6.759,-11.364l-6.51,-11.363l6.51,-0Z" style="fill:#212529;fill-rule:nonzero;"/></g><g><path d="M755.193,725.247c-0,-22.96 -18.641,-41.601 -41.601,-41.601l-194.139,-0c-22.961,-0 -41.601,18.641 -41.601,41.601l-0,339.806c-0,22.96 18.64,41.601 41.601,41.601l194.139,0c22.96,0 41.601,-18.641 41.601,-41.601l-0,-339.806Z" style="fill:#212529;fill-opacity:0;stroke:#212529;stroke-width:20.83px;"/><rect x="565.858" y="700.478" width="101.328" height="20.732" style="fill:#212529;fill-opacity:0;stroke:#212529;stroke-width:29.17px;"/><path d="M571.125,906.411l0,-4.665l10.897,-10.095c0.929,-0.895 1.709,-1.7 2.342,-2.417c0.633,-0.717 1.113,-1.422 1.439,-2.116c0.326,-0.693 0.488,-1.443 0.488,-2.248c0,-0.903 -0.202,-1.68 -0.608,-2.33c-0.406,-0.65 -0.962,-1.151 -1.67,-1.505c-0.708,-0.354 -1.513,-0.531 -2.416,-0.531c-0.931,-0 -1.746,0.189 -2.445,0.568c-0.698,0.379 -1.238,0.921 -1.619,1.627c-0.381,0.705 -0.571,1.549 -0.571,2.53l-6.148,-0c0,-2.01 0.456,-3.752 1.367,-5.227c0.911,-1.476 2.182,-2.616 3.812,-3.421c1.631,-0.805 3.515,-1.208 5.652,-1.208c2.189,-0 4.1,0.386 5.733,1.159c1.634,0.772 2.903,1.84 3.807,3.204c0.904,1.363 1.356,2.931 1.356,4.703c-0,1.156 -0.227,2.297 -0.682,3.422c-0.454,1.126 -1.26,2.372 -2.416,3.74c-1.156,1.367 -2.785,3.011 -4.886,4.93l-4.473,4.378l-0,0.203l12.869,0l0,5.299l-21.828,-0Z" style="fill:#212529;fill-rule:nonzero;"/><path d="M608.598,907.081c-2.569,-0.006 -4.778,-0.638 -6.626,-1.896c-1.848,-1.258 -3.268,-3.077 -4.261,-5.457c-0.993,-2.38 -1.486,-5.244 -1.48,-8.591c0.006,-3.345 0.505,-6.193 1.496,-8.543c0.992,-2.35 2.412,-4.141 4.258,-5.373c1.847,-1.232 4.052,-1.848 6.613,-1.848c2.562,-0 4.768,0.617 6.617,1.852c1.85,1.235 3.273,3.028 4.267,5.378c0.995,2.35 1.489,5.195 1.483,8.534c0,3.359 -0.496,6.229 -1.489,8.609c-0.992,2.38 -2.411,4.198 -4.256,5.452c-1.845,1.255 -4.052,1.883 -6.622,1.883Zm0,-5.37c1.754,-0 3.155,-0.881 4.203,-2.642c1.047,-1.762 1.568,-4.405 1.562,-7.932c0,-2.322 -0.238,-4.257 -0.714,-5.804c-0.477,-1.547 -1.147,-2.708 -2.01,-3.485c-0.863,-0.776 -1.877,-1.165 -3.041,-1.165c-1.746,0 -3.141,0.872 -4.183,2.617c-1.043,1.744 -1.57,4.357 -1.582,7.837c-0.006,2.346 0.228,4.304 0.703,5.874c0.474,1.57 1.145,2.746 2.011,3.527c0.866,0.782 1.883,1.173 3.051,1.173Z" style="fill:#212529;fill-rule:nonzero;"/><path d="M622.975,915.023l0,-31.577l6.279,0l0,3.864l0.275,-0c0.283,-0.626 0.691,-1.26 1.223,-1.901c0.533,-0.64 1.23,-1.178 2.093,-1.611c0.864,-0.434 1.935,-0.651 3.215,-0.651c1.682,0 3.23,0.436 4.642,1.307c1.413,0.871 2.543,2.182 3.391,3.932c0.848,1.75 1.272,3.939 1.272,6.566c0,2.564 -0.412,4.725 -1.236,6.483c-0.824,1.758 -1.941,3.089 -3.349,3.992c-1.408,0.903 -2.986,1.355 -4.732,1.355c-1.236,-0 -2.284,-0.205 -3.144,-0.615c-0.86,-0.41 -1.564,-0.925 -2.111,-1.546c-0.548,-0.621 -0.969,-1.248 -1.264,-1.882l-0.191,0l0,12.284l-6.363,-0Zm6.231,-20.094c0,1.363 0.19,2.553 0.57,3.568c0.38,1.016 0.928,1.806 1.645,2.369c0.716,0.563 1.585,0.845 2.606,0.845c1.044,-0 1.925,-0.287 2.642,-0.86c0.716,-0.573 1.26,-1.37 1.632,-2.389c0.372,-1.02 0.558,-2.198 0.558,-3.533c-0,-1.328 -0.184,-2.496 -0.552,-3.503c-0.368,-1.008 -0.91,-1.795 -1.627,-2.36c-0.716,-0.565 -1.601,-0.848 -2.653,-0.848c-1.029,0 -1.902,0.275 -2.618,0.824c-0.717,0.55 -1.263,1.326 -1.639,2.33c-0.376,1.003 -0.564,2.189 -0.564,3.557Z" style="fill:#212529;fill-rule:nonzero;"/><path d="M652.996,883.446l4.211,8.026l4.317,-8.026l6.543,0l-6.662,11.483l6.841,11.482l-6.506,-0l-4.533,-7.942l-4.462,7.942l-6.578,-0l6.829,-11.482l-6.578,-11.483l6.578,0Z" style="fill:#212529;fill-rule:nonzero;"/></g><g><path d="M1131.12,332.472c0,-13.981 -11.351,-25.332 -25.332,-25.332l-118.217,-0c-13.982,-0 -25.333,11.351 -25.333,25.332l0,206.918c0,13.982 11.351,25.333 25.333,25.333l118.217,-0c13.981,-0 25.332,-11.351 25.332,-25.333l0,-206.918Z" style="fill:#212529;fill-opacity:0;stroke:#212529;stroke-width:20.83px;"/><rect x="1015.83" y="317.389" width="61.702" height="12.624" style="fill:#212529;fill-opacity:0;stroke:#212529;stroke-width:29.17px;"/><path d="M996.984,455.409l-0,-4.616l10.783,-9.991c0.92,-0.886 1.693,-1.683 2.319,-2.392c0.626,-0.71 1.101,-1.408 1.423,-2.094c0.323,-0.687 0.484,-1.428 0.484,-2.225c0,-0.894 -0.201,-1.663 -0.602,-2.306c-0.401,-0.643 -0.952,-1.14 -1.653,-1.49c-0.7,-0.35 -1.497,-0.525 -2.391,-0.525c-0.921,-0 -1.728,0.187 -2.419,0.562c-0.692,0.375 -1.226,0.912 -1.603,1.61c-0.376,0.698 -0.565,1.533 -0.565,2.504l-6.084,-0c0,-1.989 0.451,-3.713 1.352,-5.173c0.902,-1.46 2.16,-2.589 3.773,-3.386c1.614,-0.797 3.478,-1.195 5.593,-1.195c2.167,-0 4.058,0.382 5.675,1.147c1.616,0.764 2.872,1.821 3.767,3.17c0.895,1.35 1.342,2.901 1.342,4.655c-0,1.144 -0.225,2.273 -0.675,3.387c-0.45,1.114 -1.247,2.347 -2.391,3.701c-1.144,1.353 -2.756,2.98 -4.835,4.88l-4.427,4.332l-0,0.201l12.736,0l0,5.244l-21.602,0Z" style="fill:#212529;fill-rule:nonzero;"/><path d="M1034.07,456.072c-2.543,-0.006 -4.729,-0.631 -6.557,-1.876c-1.829,-1.245 -3.235,-3.045 -4.217,-5.401c-0.983,-2.355 -1.471,-5.189 -1.465,-8.502c0.006,-3.31 0.499,-6.129 1.481,-8.454c0.981,-2.326 2.386,-4.099 4.214,-5.318c1.828,-1.22 4.009,-1.829 6.544,-1.829c2.535,-0 4.718,0.611 6.549,1.833c1.831,1.222 3.239,2.996 4.223,5.322c0.985,2.326 1.474,5.142 1.468,8.446c-0,3.325 -0.491,6.164 -1.474,8.52c-0.982,2.356 -2.386,4.154 -4.212,5.396c-1.826,1.242 -4.011,1.863 -6.554,1.863Zm0,-5.315c1.736,0 3.123,-0.871 4.16,-2.614c1.036,-1.743 1.552,-4.36 1.546,-7.85c-0,-2.298 -0.236,-4.213 -0.707,-5.744c-0.472,-1.531 -1.135,-2.68 -1.989,-3.449c-0.854,-0.768 -1.858,-1.153 -3.01,-1.153c-1.728,0 -3.108,0.863 -4.14,2.59c-1.032,1.726 -1.553,4.312 -1.565,7.756c-0.006,2.322 0.226,4.26 0.695,5.814c0.47,1.553 1.133,2.717 1.99,3.49c0.858,0.774 1.864,1.16 3.02,1.16Z" style="fill:#212529;fill-rule:nonzero;"/><path d="M1048.3,463.932l-0,-31.25l6.214,-0l-0,3.823l0.272,0c0.28,-0.619 0.684,-1.246 1.211,-1.88c0.526,-0.635 1.217,-1.166 2.071,-1.595c0.854,-0.429 1.915,-0.644 3.181,-0.644c1.665,-0 3.197,0.431 4.595,1.293c1.397,0.862 2.516,2.159 3.355,3.892c0.84,1.732 1.26,3.898 1.26,6.498c-0,2.537 -0.408,4.676 -1.224,6.416c-0.816,1.74 -1.921,3.057 -3.314,3.95c-1.394,0.894 -2.955,1.341 -4.683,1.341c-1.224,0 -2.261,-0.203 -3.112,-0.608c-0.852,-0.406 -1.548,-0.915 -2.09,-1.53c-0.541,-0.615 -0.958,-1.235 -1.25,-1.863l-0.189,0l-0,12.157l-6.297,-0Zm6.167,-19.886c-0,1.349 0.187,2.526 0.563,3.531c0.376,1.006 0.919,1.787 1.628,2.344c0.709,0.558 1.569,0.836 2.579,0.836c1.034,0 1.905,-0.283 2.615,-0.85c0.709,-0.568 1.247,-1.356 1.615,-2.365c0.368,-1.009 0.552,-2.175 0.552,-3.496c0,-1.314 -0.182,-2.47 -0.546,-3.467c-0.364,-0.998 -0.9,-1.776 -1.61,-2.335c-0.709,-0.56 -1.584,-0.839 -2.626,-0.839c-1.018,-0 -1.882,0.271 -2.591,0.815c-0.709,0.544 -1.25,1.312 -1.622,2.305c-0.372,0.994 -0.557,2.167 -0.557,3.521Z" style="fill:#212529;fill-rule:nonzero;"/><path d="M1078.01,432.682l4.166,7.943l4.274,-7.943l6.474,-0l-6.593,11.364l6.771,11.363l-6.439,0l-4.487,-7.86l-4.415,7.86l-6.51,0l6.759,-11.363l-6.511,-11.364l6.511,-0Z" style="fill:#212529;fill-rule:nonzero;"/></g><g><path d="M1481.83,185.022c-0,-22.961 -18.641,-41.602 -41.602,-41.602l-194.138,0c-22.961,0 -41.602,18.641 -41.602,41.602l0,339.806c0,22.96 18.641,41.601 41.602,41.601l194.138,-0c22.961,-0 41.602,-18.641 41.602,-41.601l-0,-339.806Z" style="fill:#212529;fill-opacity:0;stroke:#212529;stroke-width:20.83px;"/><rect x="1292.49" y="160.253" width="101.328" height="20.732" style="fill:#212529;fill-opacity:0;stroke:#212529;stroke-width:29.17px;"/><path d="M1311.07,335.566l0,30.62l-6.47,-0l-0,-24.472l-0.18,-0l-7.009,4.39l0,-5.742l7.584,-4.796l6.075,0Z" style="fill:#212529;fill-rule:nonzero;"/><path d="M1329.06,366.604c-1.572,-0.008 -3.088,-0.272 -4.548,-0.794c-1.459,-0.521 -2.765,-1.365 -3.918,-2.531c-1.153,-1.166 -2.066,-2.709 -2.739,-4.629c-0.673,-1.919 -1.012,-4.279 -1.018,-7.08c0.006,-2.596 0.3,-4.915 0.883,-6.957c0.583,-2.042 1.419,-3.774 2.509,-5.195c1.089,-1.422 2.398,-2.505 3.928,-3.249c1.529,-0.745 3.239,-1.117 5.131,-1.117c2.037,-0 3.838,0.399 5.403,1.197c1.565,0.799 2.823,1.882 3.775,3.249c0.952,1.368 1.528,2.908 1.73,4.62l-6.375,0c-0.249,-1.118 -0.774,-1.984 -1.575,-2.597c-0.8,-0.613 -1.786,-0.919 -2.958,-0.919c-1.996,-0 -3.509,0.871 -4.541,2.613c-1.032,1.742 -1.555,4.124 -1.571,7.147l0.203,-0c0.457,-0.901 1.076,-1.673 1.857,-2.315c0.781,-0.642 1.673,-1.136 2.676,-1.483c1.003,-0.347 2.063,-0.52 3.182,-0.52c1.814,-0 3.429,0.425 4.845,1.277c1.417,0.851 2.533,2.019 3.351,3.504c0.817,1.485 1.223,3.185 1.217,5.098c0.006,2.074 -0.473,3.917 -1.437,5.532c-0.964,1.615 -2.305,2.879 -4.023,3.792c-1.719,0.913 -3.714,1.365 -5.987,1.357Zm-0.036,-5.083c0.999,0 1.892,-0.239 2.678,-0.718c0.787,-0.478 1.406,-1.126 1.857,-1.943c0.452,-0.818 0.675,-1.737 0.669,-2.757c0.006,-1.015 -0.213,-1.926 -0.657,-2.735c-0.443,-0.808 -1.054,-1.45 -1.833,-1.924c-0.778,-0.474 -1.667,-0.712 -2.666,-0.712c-0.743,0 -1.432,0.139 -2.067,0.418c-0.635,0.278 -1.189,0.664 -1.661,1.16c-0.473,0.495 -0.843,1.069 -1.111,1.722c-0.268,0.653 -0.406,1.351 -0.411,2.095c0.005,0.989 0.234,1.892 0.684,2.709c0.451,0.817 1.068,1.469 1.851,1.955c0.784,0.487 1.673,0.73 2.667,0.73Z" style="fill:#212529;fill-rule:nonzero;"/><path d="M1343.63,374.797l-0,-31.576l6.279,0l-0,3.864l0.275,-0c0.283,-0.627 0.691,-1.26 1.223,-1.901c0.532,-0.641 1.23,-1.178 2.093,-1.612c0.863,-0.433 1.935,-0.65 3.215,-0.65c1.682,0 3.229,0.436 4.642,1.307c1.412,0.871 2.542,2.182 3.391,3.932c0.848,1.75 1.272,3.939 1.272,6.566c0,2.564 -0.412,4.725 -1.236,6.483c-0.825,1.758 -1.941,3.089 -3.349,3.992c-1.409,0.903 -2.986,1.354 -4.732,1.354c-1.236,0 -2.284,-0.204 -3.145,-0.614c-0.86,-0.41 -1.564,-0.925 -2.111,-1.546c-0.547,-0.621 -0.968,-1.248 -1.263,-1.882l-0.191,-0l-0,12.283l-6.363,0Zm6.231,-20.094c-0,1.364 0.19,2.554 0.57,3.569c0.379,1.016 0.928,1.805 1.644,2.369c0.717,0.563 1.586,0.844 2.606,0.844c1.045,0 1.926,-0.286 2.642,-0.859c0.717,-0.574 1.261,-1.37 1.633,-2.39c0.371,-1.019 0.557,-2.197 0.557,-3.533c0,-1.327 -0.184,-2.495 -0.551,-3.503c-0.368,-1.007 -0.91,-1.794 -1.627,-2.359c-0.717,-0.565 -1.601,-0.848 -2.654,-0.848c-1.028,0 -1.901,0.275 -2.618,0.824c-0.716,0.549 -1.263,1.326 -1.638,2.33c-0.376,1.003 -0.564,2.189 -0.564,3.556Z" style="fill:#212529;fill-rule:nonzero;"/><path d="M1373.65,343.221l4.21,8.026l4.318,-8.026l6.542,0l-6.662,11.482l6.842,11.483l-6.507,-0l-4.533,-7.942l-4.461,7.942l-6.578,-0l6.829,-11.483l-6.578,-11.482l6.578,0Z" style="fill:#212529;fill-rule:nonzero;"/></g><g><path d="M1131.12,872.697c0,-13.981 -11.351,-25.332 -25.332,-25.332l-118.217,-0c-13.982,-0 -25.333,11.351 -25.333,25.332l0,206.919c0,13.981 11.351,25.332 25.333,25.332l118.217,-0c13.981,-0 25.332,-11.351 25.332,-25.332l0,-206.919Z" style="fill:#212529;fill-opacity:0;stroke:#212529;stroke-width:20.83px;"/><rect x="1015.83" y="857.615" width="61.702" height="12.624" style="fill:#212529;fill-opacity:0;stroke:#212529;stroke-width:29.17px;"/><path d="M1013.73,986.543l-0,-0.497c0.007,-1.73 0.163,-3.108 0.467,-4.134c0.304,-1.026 0.745,-1.853 1.323,-2.481c0.578,-0.628 1.279,-1.201 2.104,-1.718c0.612,-0.391 1.16,-0.799 1.644,-1.225c0.484,-0.426 0.868,-0.898 1.151,-1.415c0.283,-0.517 0.425,-1.097 0.425,-1.74c-0,-0.682 -0.162,-1.278 -0.486,-1.787c-0.323,-0.509 -0.758,-0.903 -1.305,-1.181c-0.546,-0.278 -1.153,-0.417 -1.82,-0.417c-0.643,-0 -1.249,0.141 -1.818,0.423c-0.569,0.282 -1.036,0.697 -1.4,1.246c-0.364,0.548 -0.562,1.227 -0.593,2.036l-6.037,-0c0.043,-1.973 0.514,-3.605 1.411,-4.896c0.898,-1.292 2.088,-2.254 3.569,-2.889c1.482,-0.634 3.117,-0.951 4.904,-0.951c1.961,0 3.696,0.323 5.205,0.969c1.51,0.646 2.692,1.581 3.548,2.806c0.857,1.224 1.285,2.7 1.285,4.428c-0,1.15 -0.189,2.172 -0.567,3.065c-0.378,0.892 -0.907,1.682 -1.589,2.37c-0.682,0.688 -1.486,1.306 -2.413,1.857c-0.774,0.466 -1.41,0.949 -1.909,1.451c-0.499,0.503 -0.87,1.085 -1.113,1.746c-0.242,0.662 -0.368,1.475 -0.376,2.437l0,0.497l-5.61,0Zm2.923,9.47c-0.978,0 -1.816,-0.346 -2.514,-1.037c-0.697,-0.691 -1.043,-1.529 -1.037,-2.514c-0.006,-0.967 0.34,-1.794 1.037,-2.483c0.698,-0.688 1.536,-1.033 2.514,-1.033c0.943,0 1.77,0.345 2.479,1.033c0.709,0.689 1.067,1.516 1.072,2.483c-0.005,0.655 -0.174,1.251 -0.504,1.789c-0.33,0.538 -0.762,0.966 -1.295,1.284c-0.532,0.319 -1.116,0.478 -1.752,0.478Z" style="fill:#212529;fill-rule:nonzero;"/><path d="M1041.17,1004.16l0,-31.25l6.214,0l0,3.824l0.273,-0c0.28,-0.62 0.683,-1.247 1.21,-1.881c0.527,-0.634 1.217,-1.166 2.072,-1.595c0.854,-0.429 1.914,-0.644 3.181,-0.644c1.665,0 3.196,0.431 4.594,1.293c1.398,0.862 2.516,2.16 3.356,3.892c0.839,1.732 1.259,3.898 1.259,6.498c0,2.537 -0.408,4.676 -1.224,6.416c-0.815,1.74 -1.92,3.057 -3.314,3.951c-1.394,0.893 -2.955,1.34 -4.683,1.34c-1.223,0 -2.26,-0.202 -3.112,-0.608c-0.851,-0.405 -1.548,-0.915 -2.089,-1.53c-0.542,-0.614 -0.958,-1.235 -1.25,-1.863l-0.19,0l0,12.157l-6.297,0Zm6.167,-19.886c0,1.349 0.188,2.526 0.564,3.532c0.376,1.005 0.918,1.786 1.628,2.344c0.709,0.557 1.568,0.836 2.578,0.836c1.034,-0 1.906,-0.284 2.615,-0.851c0.709,-0.567 1.248,-1.356 1.616,-2.365c0.368,-1.009 0.552,-2.174 0.552,-3.496c-0,-1.314 -0.182,-2.47 -0.546,-3.467c-0.364,-0.997 -0.901,-1.776 -1.61,-2.335c-0.709,-0.559 -1.585,-0.839 -2.627,-0.839c-1.018,-0 -1.881,0.272 -2.59,0.815c-0.71,0.544 -1.25,1.312 -1.622,2.306c-0.372,0.993 -0.558,2.166 -0.558,3.52Z" style="fill:#212529;fill-rule:nonzero;"/><path d="M1070.88,972.907l4.167,7.943l4.273,-7.943l6.475,0l-6.593,11.364l6.77,11.363l-6.439,0l-4.486,-7.86l-4.415,7.86l-6.511,0l6.759,-11.363l-6.51,-11.364l6.51,0Z" style="fill:#212529;fill-rule:nonzero;"/></g><g><path d="M1481.83,725.247c-0,-22.96 -18.641,-41.601 -41.602,-41.601l-194.138,-0c-22.961,-0 -41.602,18.641 -41.602,41.601l0,339.806c0,22.96 18.641,41.601 41.602,41.601l194.138,0c22.961,0 41.602,-18.641 41.602,-41.601l-0,-339.806Z" style="fill:#212529;fill-opacity:0;stroke:#212529;stroke-width:20.83px;"/><rect x="1292.49" y="700.478" width="101.328" height="20.732" style="fill:#212529;fill-opacity:0;stroke:#212529;stroke-width:29.17px;"/><path d="M1303.29,897.225l0,-0.502c0.008,-1.748 0.166,-3.141 0.473,-4.178c0.307,-1.036 0.752,-1.872 1.336,-2.507c0.584,-0.635 1.293,-1.213 2.126,-1.736c0.618,-0.394 1.172,-0.807 1.661,-1.238c0.49,-0.43 0.877,-0.907 1.163,-1.429c0.286,-0.522 0.429,-1.108 0.429,-1.758c0,-0.69 -0.163,-1.292 -0.49,-1.806c-0.327,-0.515 -0.766,-0.912 -1.319,-1.193c-0.552,-0.281 -1.165,-0.422 -1.839,-0.422c-0.649,0 -1.262,0.143 -1.837,0.428c-0.575,0.285 -1.047,0.704 -1.415,1.258c-0.367,0.555 -0.567,1.24 -0.599,2.058l-6.1,-0c0.044,-1.994 0.519,-3.643 1.426,-4.947c0.907,-1.305 2.109,-2.278 3.607,-2.919c1.497,-0.641 3.148,-0.961 4.954,-0.961c1.982,-0 3.735,0.326 5.26,0.979c1.525,0.653 2.72,1.598 3.585,2.835c0.865,1.237 1.298,2.728 1.298,4.475c-0,1.162 -0.191,2.194 -0.573,3.096c-0.381,0.902 -0.917,1.7 -1.605,2.395c-0.689,0.695 -1.502,1.32 -2.439,1.876c-0.781,0.471 -1.424,0.96 -1.929,1.467c-0.504,0.508 -0.879,1.096 -1.124,1.764c-0.245,0.669 -0.372,1.49 -0.38,2.463l0,0.502l-5.669,0Zm2.954,9.569c-0.988,-0 -1.835,-0.35 -2.54,-1.048c-0.704,-0.699 -1.054,-1.546 -1.048,-2.54c-0.006,-0.977 0.344,-1.813 1.048,-2.509c0.705,-0.696 1.552,-1.044 2.54,-1.044c0.953,0 1.788,0.348 2.505,1.044c0.716,0.696 1.078,1.532 1.084,2.509c-0.006,0.661 -0.176,1.264 -0.51,1.807c-0.334,0.543 -0.77,0.976 -1.308,1.298c-0.539,0.322 -1.129,0.483 -1.771,0.483Z" style="fill:#212529;fill-rule:nonzero;"/><path d="M1331.01,915.023l0,-31.577l6.279,0l0,3.864l0.275,-0c0.283,-0.626 0.691,-1.26 1.223,-1.901c0.533,-0.64 1.23,-1.178 2.094,-1.611c0.863,-0.434 1.934,-0.651 3.214,-0.651c1.682,0 3.23,0.436 4.642,1.307c1.413,0.871 2.543,2.182 3.391,3.932c0.848,1.75 1.272,3.939 1.272,6.566c0,2.564 -0.412,4.725 -1.236,6.483c-0.824,1.758 -1.941,3.089 -3.349,3.992c-1.408,0.903 -2.986,1.355 -4.732,1.355c-1.236,-0 -2.284,-0.205 -3.144,-0.615c-0.86,-0.41 -1.564,-0.925 -2.111,-1.546c-0.548,-0.621 -0.969,-1.248 -1.264,-1.882l-0.191,0l0,12.284l-6.363,-0Zm6.231,-20.094c0,1.363 0.19,2.553 0.57,3.568c0.38,1.016 0.928,1.806 1.645,2.369c0.716,0.563 1.585,0.845 2.606,0.845c1.044,-0 1.925,-0.287 2.642,-0.86c0.716,-0.573 1.26,-1.37 1.632,-2.389c0.372,-1.02 0.558,-2.198 0.558,-3.533c-0,-1.328 -0.184,-2.496 -0.552,-3.503c-0.368,-1.008 -0.91,-1.795 -1.626,-2.36c-0.717,-0.565 -1.602,-0.848 -2.654,-0.848c-1.029,0 -1.902,0.275 -2.618,0.824c-0.717,0.55 -1.263,1.326 -1.639,2.33c-0.376,1.003 -0.564,2.189 -0.564,3.557Z" style="fill:#212529;fill-rule:nonzero;"/><path d="M1361.03,883.446l4.211,8.026l4.317,-8.026l6.543,0l-6.662,11.483l6.841,11.482l-6.506,-0l-4.533,-7.942l-4.462,7.942l-6.578,-0l6.83,-11.482l-6.579,-11.483l6.578,0Z" style="fill:#212529;fill-rule:nonzero;"/></g></g></svg>