<?xml version="1.0" encoding="UTF-8" standalone="no"?><!DOCTYPE svg PUBLIC "-//W3C//DTD SVG 1.1//EN" "http://www.w3.org/Graphics/SVG/1.1/DTD/svg11.dtd"><svg width="100%" height="100%" viewBox="0 0 1749 1241" version="1.1" xmlns="http://www.w3.org/2000/svg" xmlns:xlink="http://www.w3.org/1999/xlink" xml:space="preserve" xmlns:serif="http://www.serif.com/" style="fill-rule:evenodd;clip-rule:evenodd;stroke-linecap:round;stroke-linejoin:round;stroke-miterlimit:1.5;"><rect id="Artboard1" x="0" y="-0" width="1748.03" height="1240.16" style="fill:none;"/><clipPath id="_clip1"><rect x="0" y="-0" width="1748.03" height="1240.16"/></clipPath><g clip-path="url(#_clip1)"><g><rect x="0" y="0" width="1748.03" height="1240.16" style="fill:#ada7ff;"/></g><path d="M1636.86,190.765c-0,-59.237 -48.093,-107.329 -107.329,-107.329l-1311.03,-0c-59.237,-0 -107.329,48.092 -107.329,107.329l-0,858.631c-0,59.237 48.092,107.329 107.329,107.329l1311.03,0c59.236,0 107.329,-48.092 107.329,-107.329l-0,-858.631Z" style="fill:#fff;stroke:#212529;stroke-width:12.5px;"/><path d="M842.14,164.297c-0,916.29 -0,911.566 -0,911.566" style="fill:none;stroke:#212529;stroke-width:6.25px;"/><path d="M235.602,612.593c1300.05,-0 1293.35,-0 1293.35,-0" style="fill:none;stroke:#212529;stroke-width:6.25px;"/><g transform="matrix(4.16667,0,0,4.16667,48.0097,82.3196)"><g transform="matrix(20,0,0,20,61.7315,52.724)"><path d="M0.055,-0.011l0,-0.227l0.059,0c0.016,0.068 0.04,0.116 0.073,0.145c0.033,0.029 0.068,0.044 0.105,0.044c0.028,-0 0.051,-0.009 0.067,-0.025c0.017,-0.017 0.025,-0.036 0.025,-0.059c0,-0.016 -0.005,-0.032 -0.015,-0.048c-0.011,-0.016 -0.036,-0.033 -0.075,-0.053c-0.075,-0.037 -0.126,-0.065 -0.152,-0.082c-0.026,-0.018 -0.047,-0.04 -0.063,-0.067c-0.016,-0.028 -0.024,-0.059 -0.024,-0.095c-0,-0.057 0.02,-0.103 0.061,-0.14c0.041,-0.037 0.088,-0.056 0.142,-0.056c0.056,0 0.104,0.019 0.143,0.057c0.007,-0.01 0.012,-0.025 0.016,-0.045l0.057,-0l-0,0.195l-0.055,0c-0.01,-0.043 -0.028,-0.079 -0.056,-0.107c-0.027,-0.028 -0.058,-0.042 -0.092,-0.042c-0.026,0 -0.046,0.007 -0.061,0.022c-0.015,0.014 -0.023,0.032 -0.023,0.053c0,0.017 0.005,0.032 0.015,0.047c0.009,0.014 0.023,0.025 0.039,0.035c0.017,0.009 0.052,0.026 0.106,0.051c0.048,0.023 0.084,0.043 0.107,0.061c0.023,0.018 0.041,0.041 0.055,0.068c0.013,0.027 0.02,0.057 0.02,0.088c-0,0.059 -0.022,0.107 -0.065,0.146c-0.043,0.039 -0.095,0.059 -0.155,0.059c-0.034,-0 -0.068,-0.007 -0.1,-0.022c-0.033,-0.014 -0.059,-0.033 -0.079,-0.057c-0.007,0.015 -0.013,0.033 -0.016,0.054l-0.059,-0Z" style="fill:#212529;fill-rule:nonzero;"/></g><g transform="matrix(20,0,0,20,72.9815,52.724)"><path d="M0.316,-0.042c-0.023,0.017 -0.048,0.03 -0.074,0.038c-0.026,0.009 -0.053,0.013 -0.081,0.013c-0.038,0 -0.066,-0.008 -0.085,-0.025c-0.018,-0.017 -0.028,-0.038 -0.028,-0.063c0,-0.036 0.019,-0.067 0.056,-0.094c0.038,-0.028 0.106,-0.058 0.204,-0.091l-0,-0.036c-0,-0.026 -0.007,-0.043 -0.019,-0.05c-0.012,-0.007 -0.027,-0.011 -0.044,-0.011c-0.041,0 -0.064,0.015 -0.068,0.045c-0.003,0.021 -0.01,0.035 -0.02,0.045c-0.01,0.009 -0.025,0.014 -0.045,0.014c-0.019,-0 -0.033,-0.005 -0.044,-0.015c-0.011,-0.01 -0.017,-0.022 -0.017,-0.035c0,-0.03 0.02,-0.056 0.06,-0.077c0.04,-0.021 0.094,-0.032 0.161,-0.032c0.037,-0 0.069,0.002 0.094,0.007c0.025,0.004 0.046,0.013 0.061,0.025c0.015,0.013 0.026,0.026 0.031,0.039c0.005,0.014 0.007,0.033 0.007,0.056l0,0.185c0,0.028 0.009,0.042 0.026,0.042c0.014,0 0.024,-0.009 0.028,-0.027l0.04,0c-0.001,0.034 -0.013,0.058 -0.037,0.074c-0.023,0.016 -0.052,0.024 -0.085,0.024c-0.059,0 -0.1,-0.017 -0.121,-0.051Zm-0.008,-0.053l-0,-0.114c-0.046,0.018 -0.075,0.035 -0.089,0.051c-0.014,0.015 -0.021,0.031 -0.021,0.047c0,0.013 0.004,0.024 0.012,0.034c0.009,0.01 0.019,0.015 0.033,0.015c0.011,-0 0.023,-0.003 0.033,-0.009c0.011,-0.005 0.022,-0.013 0.032,-0.024Z" style="fill:#212529;fill-rule:nonzero;"/></g><g transform="matrix(20,0,0,20,84.2315,52.724)"><path d="M0.247,-0.274l0,0.158c0,0.023 0.003,0.039 0.01,0.049c0.007,0.01 0.019,0.015 0.037,0.015l-0,0.052l-0.273,0l-0,-0.052c0.028,0 0.046,-0.004 0.054,-0.013c0.008,-0.009 0.011,-0.026 0.011,-0.051l0,-0.136c0,-0.025 -0.003,-0.042 -0.011,-0.051c-0.008,-0.01 -0.026,-0.014 -0.054,-0.014l-0,-0.052l0.216,-0.036c0.006,0.013 0.009,0.032 0.01,0.059c0.022,-0.024 0.044,-0.041 0.068,-0.053c0.023,-0.011 0.048,-0.017 0.073,-0.017c0.046,-0 0.082,0.013 0.108,0.038c0.026,0.025 0.039,0.06 0.039,0.104l-0,0.158c-0,0.025 0.004,0.041 0.012,0.051c0.008,0.009 0.025,0.013 0.052,0.013l-0,0.052l-0.272,0l-0,-0.052c0.013,-0 0.025,-0.004 0.034,-0.011c0.009,-0.008 0.014,-0.025 0.014,-0.053l0,-0.146c0,-0.027 -0.004,-0.045 -0.011,-0.055c-0.007,-0.01 -0.018,-0.015 -0.031,-0.015c-0.014,0 -0.028,0.005 -0.042,0.015c-0.015,0.009 -0.029,0.023 -0.044,0.043Z" style="fill:#212529;fill-rule:nonzero;"/></g><g transform="matrix(20,0,0,20,96.3116,52.724)"><path d="M0.049,0.016l-0.003,-0.133l0.048,0c0.025,0.055 0.072,0.083 0.139,0.083c0.029,-0 0.052,-0.005 0.071,-0.015c0.018,-0.01 0.028,-0.021 0.028,-0.033c-0,-0.011 -0.006,-0.019 -0.016,-0.025c-0.01,-0.005 -0.033,-0.012 -0.069,-0.019c-0.056,-0.012 -0.098,-0.023 -0.124,-0.033c-0.027,-0.01 -0.049,-0.026 -0.065,-0.047c-0.016,-0.022 -0.024,-0.046 -0.024,-0.073c-0,-0.041 0.016,-0.074 0.049,-0.099c0.034,-0.025 0.078,-0.038 0.134,-0.038c0.043,-0 0.087,0.008 0.131,0.025c0.008,-0.007 0.014,-0.016 0.019,-0.025l0.04,-0l0.005,0.121l-0.039,0c-0.026,-0.05 -0.075,-0.075 -0.15,-0.075c-0.025,0 -0.045,0.004 -0.06,0.012c-0.016,0.008 -0.024,0.018 -0.024,0.031c0,0.013 0.007,0.022 0.019,0.029c0.013,0.006 0.043,0.014 0.091,0.023c0.05,0.01 0.088,0.02 0.113,0.031c0.025,0.01 0.045,0.025 0.06,0.046c0.014,0.02 0.021,0.043 0.021,0.069c0,0.043 -0.019,0.078 -0.056,0.105c-0.038,0.027 -0.085,0.04 -0.14,0.04c-0.043,0 -0.088,-0.009 -0.134,-0.027c-0.009,0.006 -0.016,0.015 -0.02,0.027l-0.044,0Z" style="fill:#212529;fill-rule:nonzero;"/></g><g transform="matrix(20,0,0,20,105.892,52.724)"><rect x="0.03" y="-0.265" width="0.289" height="0.132" style="fill:#212529;fill-rule:nonzero;"/></g><g transform="matrix(20,0,0,20,112.767,52.724)"><path d="M0.055,-0.011l0,-0.227l0.059,0c0.016,0.068 0.04,0.116 0.073,0.145c0.033,0.029 0.068,0.044 0.105,0.044c0.028,-0 0.051,-0.009 0.067,-0.025c0.017,-0.017 0.025,-0.036 0.025,-0.059c0,-0.016 -0.005,-0.032 -0.015,-0.048c-0.011,-0.016 -0.036,-0.033 -0.075,-0.053c-0.075,-0.037 -0.126,-0.065 -0.152,-0.082c-0.026,-0.018 -0.047,-0.04 -0.063,-0.067c-0.016,-0.028 -0.024,-0.059 -0.024,-0.095c-0,-0.057 0.02,-0.103 0.061,-0.14c0.041,-0.037 0.088,-0.056 0.142,-0.056c0.056,0 0.104,0.019 0.143,0.057c0.007,-0.01 0.012,-0.025 0.016,-0.045l0.057,-0l-0,0.195l-0.055,0c-0.01,-0.043 -0.028,-0.079 -0.056,-0.107c-0.027,-0.028 -0.058,-0.042 -0.092,-0.042c-0.026,0 -0.046,0.007 -0.061,0.022c-0.015,0.014 -0.023,0.032 -0.023,0.053c0,0.017 0.005,0.032 0.015,0.047c0.009,0.014 0.023,0.025 0.039,0.035c0.017,0.009 0.052,0.026 0.106,0.051c0.048,0.023 0.084,0.043 0.107,0.061c0.023,0.018 0.041,0.041 0.055,0.068c0.013,0.027 0.02,0.057 0.02,0.088c-0,0.059 -0.022,0.107 -0.065,0.146c-0.043,0.039 -0.095,0.059 -0.155,0.059c-0.034,-0 -0.068,-0.007 -0.1,-0.022c-0.033,-0.014 -0.059,-0.033 -0.079,-0.057c-0.007,0.015 -0.013,0.033 -0.016,0.054l-0.059,-0Z" style="fill:#212529;fill-rule:nonzero;"/></g><g transform="matrix(20,0,0,20,124.017,52.724)"><path d="M0.213,-0.205c0,0.053 0.009,0.093 0.027,0.12c0.019,0.027 0.046,0.04 0.082,0.04c0.038,0 0.074,-0.019 0.106,-0.059l0.045,0.028c-0.018,0.027 -0.045,0.049 -0.08,0.066c-0.034,0.017 -0.073,0.026 -0.115,0.026c-0.064,0 -0.119,-0.019 -0.165,-0.059c-0.046,-0.039 -0.069,-0.092 -0.069,-0.159c-0,-0.066 0.022,-0.119 0.067,-0.157c0.044,-0.038 0.097,-0.057 0.16,-0.057c0.063,-0 0.114,0.017 0.155,0.052c0.04,0.035 0.06,0.088 0.06,0.159l-0.273,0Zm-0,-0.049l0.123,0c-0.002,-0.072 -0.023,-0.108 -0.063,-0.108c-0.02,0 -0.035,0.009 -0.045,0.027c-0.01,0.018 -0.015,0.045 -0.015,0.081Z" style="fill:#212529;fill-rule:nonzero;"/></g><g transform="matrix(20,0,0,20,134.437,52.724)"><path d="M0.242,-0.315c0.019,-0.034 0.041,-0.059 0.065,-0.076c0.024,-0.017 0.05,-0.025 0.079,-0.025c0.028,-0 0.049,0.009 0.063,0.026c0.015,0.018 0.022,0.036 0.022,0.057c-0,0.019 -0.006,0.036 -0.017,0.049c-0.012,0.014 -0.028,0.021 -0.048,0.021c-0.011,-0 -0.02,-0.002 -0.028,-0.007c-0.007,-0.004 -0.016,-0.013 -0.028,-0.026c-0.012,-0.013 -0.024,-0.019 -0.038,-0.019c-0.021,-0 -0.037,0.013 -0.048,0.038c-0.01,0.026 -0.015,0.065 -0.015,0.117l-0,0.043c-0,0.024 0.003,0.041 0.011,0.051c0.007,0.009 0.025,0.014 0.052,0.014l0.009,0l0,0.052l-0.296,0l-0,-0.052c0.028,0 0.046,-0.004 0.054,-0.014c0.007,-0.009 0.011,-0.026 0.011,-0.051l-0,-0.139c-0,-0.025 -0.004,-0.042 -0.012,-0.051c-0.007,-0.01 -0.025,-0.014 -0.054,-0.014l-0,-0.052l0.203,-0.043c0.009,0.026 0.014,0.06 0.015,0.101Z" style="fill:#212529;fill-rule:nonzero;"/></g><g transform="matrix(20,0,0,20,144.017,52.724)"><path d="M0.085,-0.585c0,-0.025 0.009,-0.045 0.026,-0.063c0.018,-0.017 0.038,-0.026 0.062,-0.026c0.025,0 0.045,0.009 0.062,0.026c0.017,0.017 0.026,0.038 0.026,0.063c-0,0.024 -0.009,0.045 -0.026,0.062c-0.017,0.017 -0.038,0.026 -0.062,0.026c-0.025,-0 -0.046,-0.009 -0.062,-0.027c-0.017,-0.017 -0.026,-0.038 -0.026,-0.061Zm0.165,0.169l0,0.299c0,0.025 0.004,0.042 0.012,0.051c0.008,0.01 0.026,0.014 0.054,0.014l0,0.052l-0.298,-0l-0,-0.052l0.011,0c0.027,0 0.045,-0.005 0.052,-0.014c0.008,-0.01 0.011,-0.027 0.011,-0.051l0,-0.145c0,-0.024 -0.003,-0.041 -0.011,-0.051c-0.007,-0.009 -0.025,-0.014 -0.052,-0.014l-0.011,-0l-0,-0.052l0.232,-0.037Z" style="fill:#212529;fill-rule:nonzero;"/></g><g transform="matrix(20,0,0,20,150.687,52.724)"><path d="M0.253,-0.347l0,0.23c0,0.024 0.004,0.041 0.012,0.051c0.007,0.009 0.024,0.014 0.051,0.014l0.026,0l0,0.052l-0.327,0l0,-0.052l0.017,0c0.028,0 0.045,-0.005 0.052,-0.014c0.008,-0.01 0.011,-0.027 0.011,-0.051l0,-0.23l-0.08,-0l0,-0.053l0.08,0c0,-0.052 0.002,-0.091 0.006,-0.118c0.004,-0.027 0.015,-0.052 0.032,-0.076c0.018,-0.025 0.043,-0.044 0.075,-0.059c0.031,-0.014 0.07,-0.021 0.114,-0.021c0.052,-0 0.091,0.008 0.117,0.026c0.026,0.018 0.04,0.04 0.04,0.067c-0,0.02 -0.008,0.036 -0.022,0.05c-0.014,0.015 -0.031,0.022 -0.051,0.022c-0.038,-0 -0.064,-0.025 -0.076,-0.074c-0.006,-0.024 -0.018,-0.036 -0.036,-0.036c-0.014,0 -0.025,0.008 -0.031,0.023c-0.006,0.015 -0.01,0.041 -0.01,0.077l0,0.119l0.089,0l0,0.053l-0.089,-0Z" style="fill:#212529;fill-rule:nonzero;"/></g><g transform="matrix(20,0,0,20,89.754,82.724)"><path d="M0.062,-0.497l0.542,0l0,0.102l-0.542,0l0,-0.102Zm0,0.233l0.542,0l0,0.102l-0.542,0l0,-0.102Z" style="fill:#212529;fill-rule:nonzero;"/></g><g transform="matrix(20,0,0,20,103.084,82.724)"><path d="M0.062,-0.497l0.542,0l0,0.102l-0.542,0l0,-0.102Zm0,0.233l0.542,0l0,0.102l-0.542,0l0,-0.102Z" style="fill:#212529;fill-rule:nonzero;"/></g><g transform="matrix(20,0,0,20,116.414,82.724)"><path d="M0.062,-0.497l0.542,0l0,0.102l-0.542,0l0,-0.102Zm0,0.233l0.542,0l0,0.102l-0.542,0l0,-0.102Z" style="fill:#212529;fill-rule:nonzero;"/></g><g transform="matrix(20,0,0,20,50.9014,112.724)"><path d="M0.284,-0.293l-0,0.158c-0,0.03 0.005,0.051 0.015,0.063c0.01,0.012 0.032,0.018 0.064,0.018l0.015,-0l0,0.054l-0.358,-0l-0,-0.054l0.011,-0c0.033,-0 0.055,-0.006 0.064,-0.019c0.01,-0.012 0.015,-0.033 0.015,-0.062l0,-0.392c0,-0.03 -0.005,-0.051 -0.015,-0.063c-0.01,-0.012 -0.032,-0.018 -0.064,-0.018l-0.016,0l0,-0.054l0.269,-0.006c0.067,0 0.119,0.002 0.155,0.005c0.037,0.004 0.07,0.014 0.101,0.03c0.031,0.016 0.054,0.038 0.069,0.065c0.016,0.027 0.023,0.056 0.023,0.088c0,0.043 -0.013,0.08 -0.04,0.111c-0.027,0.031 -0.06,0.051 -0.101,0.061c-0.04,0.01 -0.093,0.015 -0.158,0.015l-0.049,0Zm-0,-0.059l0.032,0c0.052,0 0.086,-0.011 0.103,-0.033c0.018,-0.023 0.026,-0.053 0.026,-0.091c0,-0.034 -0.006,-0.061 -0.019,-0.082c-0.012,-0.021 -0.029,-0.035 -0.048,-0.041c-0.02,-0.007 -0.051,-0.01 -0.094,-0.01l-0,0.257Z" style="fill:#212529;fill-rule:nonzero;"/></g><g transform="matrix(20,0,0,20,63.6065,112.724)"><path d="M0.242,-0.315c0.019,-0.034 0.041,-0.059 0.065,-0.076c0.024,-0.017 0.05,-0.025 0.079,-0.025c0.028,-0 0.049,0.009 0.063,0.026c0.015,0.018 0.022,0.036 0.022,0.057c-0,0.019 -0.006,0.036 -0.017,0.049c-0.012,0.014 -0.028,0.021 -0.048,0.021c-0.011,-0 -0.02,-0.002 -0.028,-0.007c-0.007,-0.004 -0.016,-0.013 -0.028,-0.026c-0.012,-0.013 -0.024,-0.019 -0.038,-0.019c-0.021,-0 -0.037,0.013 -0.048,0.038c-0.01,0.026 -0.015,0.065 -0.015,0.117l-0,0.043c-0,0.024 0.003,0.041 0.011,0.051c0.007,0.009 0.025,0.014 0.052,0.014l0.009,0l0,0.052l-0.296,0l-0,-0.052c0.028,0 0.046,-0.004 0.054,-0.014c0.007,-0.009 0.011,-0.026 0.011,-0.051l-0,-0.139c-0,-0.025 -0.004,-0.042 -0.012,-0.051c-0.007,-0.01 -0.025,-0.014 -0.054,-0.014l-0,-0.052l0.203,-0.043c0.009,0.026 0.014,0.06 0.015,0.101Z" style="fill:#212529;fill-rule:nonzero;"/></g><g transform="matrix(20,0,0,20,73.1866,112.724)"><path d="M0.037,-0.201c0,-0.067 0.024,-0.12 0.071,-0.158c0.048,-0.038 0.105,-0.057 0.173,-0.057c0.066,-0 0.123,0.018 0.172,0.055c0.048,0.037 0.073,0.091 0.073,0.16c-0,0.066 -0.024,0.119 -0.072,0.158c-0.048,0.04 -0.106,0.059 -0.174,0.059c-0.066,0 -0.123,-0.019 -0.171,-0.056c-0.048,-0.037 -0.072,-0.091 -0.072,-0.161Zm0.168,-0.005c-0,0.062 0.005,0.106 0.017,0.131c0.011,0.025 0.032,0.037 0.06,0.037c0.023,0 0.042,-0.01 0.056,-0.031c0.013,-0.021 0.02,-0.065 0.02,-0.133c0,-0.062 -0.006,-0.104 -0.018,-0.126c-0.013,-0.022 -0.032,-0.033 -0.059,-0.033c-0.021,0 -0.039,0.01 -0.054,0.028c-0.015,0.019 -0.022,0.061 -0.022,0.127Z" style="fill:#212529;fill-rule:nonzero;"/></g><g transform="matrix(20,0,0,20,84.4366,112.724)"><path d="M0.253,-0.347l0,0.23c0,0.024 0.004,0.041 0.012,0.051c0.007,0.009 0.024,0.014 0.051,0.014l0.026,0l0,0.052l-0.327,0l0,-0.052l0.017,0c0.028,0 0.045,-0.005 0.052,-0.014c0.008,-0.01 0.011,-0.027 0.011,-0.051l0,-0.23l-0.08,-0l0,-0.053l0.08,0c0,-0.052 0.002,-0.091 0.006,-0.118c0.004,-0.027 0.015,-0.052 0.032,-0.076c0.018,-0.025 0.043,-0.044 0.075,-0.059c0.031,-0.014 0.07,-0.021 0.114,-0.021c0.052,-0 0.091,0.008 0.117,0.026c0.026,0.018 0.04,0.04 0.04,0.067c-0,0.02 -0.008,0.036 -0.022,0.05c-0.014,0.015 -0.031,0.022 -0.051,0.022c-0.038,-0 -0.064,-0.025 -0.076,-0.074c-0.006,-0.024 -0.018,-0.036 -0.036,-0.036c-0.014,0 -0.025,0.008 -0.031,0.023c-0.006,0.015 -0.01,0.041 -0.01,0.077l0,0.119l0.089,0l0,0.053l-0.089,-0Z" style="fill:#212529;fill-rule:nonzero;"/></g><g transform="matrix(20,0,0,20,91.5167,112.724)"><path d="M0.213,-0.205c0,0.053 0.009,0.093 0.027,0.12c0.019,0.027 0.046,0.04 0.082,0.04c0.038,0 0.074,-0.019 0.106,-0.059l0.045,0.028c-0.018,0.027 -0.045,0.049 -0.08,0.066c-0.034,0.017 -0.073,0.026 -0.115,0.026c-0.064,0 -0.119,-0.019 -0.165,-0.059c-0.046,-0.039 -0.069,-0.092 -0.069,-0.159c-0,-0.066 0.022,-0.119 0.067,-0.157c0.044,-0.038 0.097,-0.057 0.16,-0.057c0.063,-0 0.114,0.017 0.155,0.052c0.04,0.035 0.06,0.088 0.06,0.159l-0.273,0Zm-0,-0.049l0.123,0c-0.002,-0.072 -0.023,-0.108 -0.063,-0.108c-0.02,0 -0.035,0.009 -0.045,0.027c-0.01,0.018 -0.015,0.045 -0.015,0.081Z" style="fill:#212529;fill-rule:nonzero;"/></g><g transform="matrix(20,0,0,20,101.937,112.724)"><path d="M0.049,0.016l-0.003,-0.133l0.048,0c0.025,0.055 0.072,0.083 0.139,0.083c0.029,-0 0.052,-0.005 0.071,-0.015c0.018,-0.01 0.028,-0.021 0.028,-0.033c-0,-0.011 -0.006,-0.019 -0.016,-0.025c-0.01,-0.005 -0.033,-0.012 -0.069,-0.019c-0.056,-0.012 -0.098,-0.023 -0.124,-0.033c-0.027,-0.01 -0.049,-0.026 -0.065,-0.047c-0.016,-0.022 -0.024,-0.046 -0.024,-0.073c-0,-0.041 0.016,-0.074 0.049,-0.099c0.034,-0.025 0.078,-0.038 0.134,-0.038c0.043,-0 0.087,0.008 0.131,0.025c0.008,-0.007 0.014,-0.016 0.019,-0.025l0.04,-0l0.005,0.121l-0.039,0c-0.026,-0.05 -0.075,-0.075 -0.15,-0.075c-0.025,0 -0.045,0.004 -0.06,0.012c-0.016,0.008 -0.024,0.018 -0.024,0.031c0,0.013 0.007,0.022 0.019,0.029c0.013,0.006 0.043,0.014 0.091,0.023c0.05,0.01 0.088,0.02 0.113,0.031c0.025,0.01 0.045,0.025 0.06,0.046c0.014,0.02 0.021,0.043 0.021,0.069c0,0.043 -0.019,0.078 -0.056,0.105c-0.038,0.027 -0.085,0.04 -0.14,0.04c-0.043,0 -0.088,-0.009 -0.134,-0.027c-0.009,0.006 -0.016,0.015 -0.02,0.027l-0.044,0Z" style="fill:#212529;fill-rule:nonzero;"/></g><g transform="matrix(20,0,0,20,111.517,112.724)"><path d="M0.049,0.016l-0.003,-0.133l0.048,0c0.025,0.055 0.072,0.083 0.139,0.083c0.029,-0 0.052,-0.005 0.071,-0.015c0.018,-0.01 0.028,-0.021 0.028,-0.033c-0,-0.011 -0.006,-0.019 -0.016,-0.025c-0.01,-0.005 -0.033,-0.012 -0.069,-0.019c-0.056,-0.012 -0.098,-0.023 -0.124,-0.033c-0.027,-0.01 -0.049,-0.026 -0.065,-0.047c-0.016,-0.022 -0.024,-0.046 -0.024,-0.073c-0,-0.041 0.016,-0.074 0.049,-0.099c0.034,-0.025 0.078,-0.038 0.134,-0.038c0.043,-0 0.087,0.008 0.131,0.025c0.008,-0.007 0.014,-0.016 0.019,-0.025l0.04,-0l0.005,0.121l-0.039,0c-0.026,-0.05 -0.075,-0.075 -0.15,-0.075c-0.025,0 -0.045,0.004 -0.06,0.012c-0.016,0.008 -0.024,0.018 -0.024,0.031c0,0.013 0.007,0.022 0.019,0.029c0.013,0.006 0.043,0.014 0.091,0.023c0.05,0.01 0.088,0.02 0.113,0.031c0.025,0.01 0.045,0.025 0.06,0.046c0.014,0.02 0.021,0.043 0.021,0.069c0,0.043 -0.019,0.078 -0.056,0.105c-0.038,0.027 -0.085,0.04 -0.14,0.04c-0.043,0 -0.088,-0.009 -0.134,-0.027c-0.009,0.006 -0.016,0.015 -0.02,0.027l-0.044,0Z" style="fill:#212529;fill-rule:nonzero;"/></g><g transform="matrix(20,0,0,20,121.097,112.724)"><path d="M0.085,-0.585c0,-0.025 0.009,-0.045 0.026,-0.063c0.018,-0.017 0.038,-0.026 0.062,-0.026c0.025,0 0.045,0.009 0.062,0.026c0.017,0.017 0.026,0.038 0.026,0.063c-0,0.024 -0.009,0.045 -0.026,0.062c-0.017,0.017 -0.038,0.026 -0.062,0.026c-0.025,-0 -0.046,-0.009 -0.062,-0.027c-0.017,-0.017 -0.026,-0.038 -0.026,-0.061Zm0.165,0.169l0,0.299c0,0.025 0.004,0.042 0.012,0.051c0.008,0.01 0.026,0.014 0.054,0.014l0,0.052l-0.298,-0l-0,-0.052l0.011,0c0.027,0 0.045,-0.005 0.052,-0.014c0.008,-0.01 0.011,-0.027 0.011,-0.051l0,-0.145c0,-0.024 -0.003,-0.041 -0.011,-0.051c-0.007,-0.009 -0.025,-0.014 -0.052,-0.014l-0.011,-0l-0,-0.052l0.232,-0.037Z" style="fill:#212529;fill-rule:nonzero;"/></g><g transform="matrix(20,0,0,20,127.767,112.724)"><path d="M0.037,-0.201c0,-0.067 0.024,-0.12 0.071,-0.158c0.048,-0.038 0.105,-0.057 0.173,-0.057c0.066,-0 0.123,0.018 0.172,0.055c0.048,0.037 0.073,0.091 0.073,0.16c-0,0.066 -0.024,0.119 -0.072,0.158c-0.048,0.04 -0.106,0.059 -0.174,0.059c-0.066,0 -0.123,-0.019 -0.171,-0.056c-0.048,-0.037 -0.072,-0.091 -0.072,-0.161Zm0.168,-0.005c-0,0.062 0.005,0.106 0.017,0.131c0.011,0.025 0.032,0.037 0.06,0.037c0.023,0 0.042,-0.01 0.056,-0.031c0.013,-0.021 0.02,-0.065 0.02,-0.133c0,-0.062 -0.006,-0.104 -0.018,-0.126c-0.013,-0.022 -0.032,-0.033 -0.059,-0.033c-0.021,0 -0.039,0.01 -0.054,0.028c-0.015,0.019 -0.022,0.061 -0.022,0.127Z" style="fill:#212529;fill-rule:nonzero;"/></g><g transform="matrix(20,0,0,20,139.017,112.724)"><path d="M0.247,-0.274l0,0.158c0,0.023 0.003,0.039 0.01,0.049c0.007,0.01 0.019,0.015 0.037,0.015l-0,0.052l-0.273,0l-0,-0.052c0.028,0 0.046,-0.004 0.054,-0.013c0.008,-0.009 0.011,-0.026 0.011,-0.051l0,-0.136c0,-0.025 -0.003,-0.042 -0.011,-0.051c-0.008,-0.01 -0.026,-0.014 -0.054,-0.014l-0,-0.052l0.216,-0.036c0.006,0.013 0.009,0.032 0.01,0.059c0.022,-0.024 0.044,-0.041 0.068,-0.053c0.023,-0.011 0.048,-0.017 0.073,-0.017c0.046,-0 0.082,0.013 0.108,0.038c0.026,0.025 0.039,0.06 0.039,0.104l-0,0.158c-0,0.025 0.004,0.041 0.012,0.051c0.008,0.009 0.025,0.013 0.052,0.013l-0,0.052l-0.272,0l-0,-0.052c0.013,-0 0.025,-0.004 0.034,-0.011c0.009,-0.008 0.014,-0.025 0.014,-0.053l0,-0.146c0,-0.027 -0.004,-0.045 -0.011,-0.055c-0.007,-0.01 -0.018,-0.015 -0.031,-0.015c-0.014,0 -0.028,0.005 -0.042,0.015c-0.015,0.009 -0.029,0.023 -0.044,0.043Z" style="fill:#212529;fill-rule:nonzero;"/></g><g transform="matrix(20,0,0,20,151.097,112.724)"><path d="M0.316,-0.042c-0.023,0.017 -0.048,0.03 -0.074,0.038c-0.026,0.009 -0.053,0.013 -0.081,0.013c-0.038,0 -0.066,-0.008 -0.085,-0.025c-0.018,-0.017 -0.028,-0.038 -0.028,-0.063c0,-0.036 0.019,-0.067 0.056,-0.094c0.038,-0.028 0.106,-0.058 0.204,-0.091l-0,-0.036c-0,-0.026 -0.007,-0.043 -0.019,-0.05c-0.012,-0.007 -0.027,-0.011 -0.044,-0.011c-0.041,0 -0.064,0.015 -0.068,0.045c-0.003,0.021 -0.01,0.035 -0.02,0.045c-0.01,0.009 -0.025,0.014 -0.045,0.014c-0.019,-0 -0.033,-0.005 -0.044,-0.015c-0.011,-0.01 -0.017,-0.022 -0.017,-0.035c0,-0.03 0.02,-0.056 0.06,-0.077c0.04,-0.021 0.094,-0.032 0.161,-0.032c0.037,-0 0.069,0.002 0.094,0.007c0.025,0.004 0.046,0.013 0.061,0.025c0.015,0.013 0.026,0.026 0.031,0.039c0.005,0.014 0.007,0.033 0.007,0.056l0,0.185c0,0.028 0.009,0.042 0.026,0.042c0.014,0 0.024,-0.009 0.028,-0.027l0.04,0c-0.001,0.034 -0.013,0.058 -0.037,0.074c-0.023,0.016 -0.052,0.024 -0.085,0.024c-0.059,0 -0.1,-0.017 -0.121,-0.051Zm-0.008,-0.053l-0,-0.114c-0.046,0.018 -0.075,0.035 -0.089,0.051c-0.014,0.015 -0.021,0.031 -0.021,0.047c0,0.013 0.004,0.024 0.012,0.034c0.009,0.01 0.019,0.015 0.033,0.015c0.011,-0 0.023,-0.003 0.033,-0.009c0.011,-0.005 0.022,-0.013 0.032,-0.024Z" style="fill:#212529;fill-rule:nonzero;"/></g><g transform="matrix(20,0,0,20,162.347,112.724)"><path d="M0.239,-0.674l0,0.557c0,0.025 0.004,0.042 0.012,0.052c0.008,0.009 0.027,0.013 0.056,0.013l0,0.052l-0.297,-0l-0,-0.052c0.026,0 0.044,-0.003 0.055,-0.009c0.011,-0.006 0.016,-0.025 0.016,-0.056l0,-0.404c0,-0.026 -0.004,-0.043 -0.012,-0.052c-0.009,-0.009 -0.028,-0.013 -0.059,-0.013l-0,-0.052l0.229,-0.036Z" style="fill:#212529;fill-rule:nonzero;"/></g></g><g transform="matrix(4.16667,0,0,4.16667,755.333,563.963)"><g transform="matrix(20,0,0,20,61.7315,52.724)"><path d="M0.055,-0.011l0,-0.227l0.059,0c0.016,0.068 0.04,0.116 0.073,0.145c0.033,0.029 0.068,0.044 0.105,0.044c0.028,-0 0.051,-0.009 0.067,-0.025c0.017,-0.017 0.025,-0.036 0.025,-0.059c0,-0.016 -0.005,-0.032 -0.015,-0.048c-0.011,-0.016 -0.036,-0.033 -0.075,-0.053c-0.075,-0.037 -0.126,-0.065 -0.152,-0.082c-0.026,-0.018 -0.047,-0.04 -0.063,-0.067c-0.016,-0.028 -0.024,-0.059 -0.024,-0.095c-0,-0.057 0.02,-0.103 0.061,-0.14c0.041,-0.037 0.088,-0.056 0.142,-0.056c0.056,0 0.104,0.019 0.143,0.057c0.007,-0.01 0.012,-0.025 0.016,-0.045l0.057,-0l-0,0.195l-0.055,0c-0.01,-0.043 -0.028,-0.079 -0.056,-0.107c-0.027,-0.028 -0.058,-0.042 -0.092,-0.042c-0.026,0 -0.046,0.007 -0.061,0.022c-0.015,0.014 -0.023,0.032 -0.023,0.053c0,0.017 0.005,0.032 0.015,0.047c0.009,0.014 0.023,0.025 0.039,0.035c0.017,0.009 0.052,0.026 0.106,0.051c0.048,0.023 0.084,0.043 0.107,0.061c0.023,0.018 0.041,0.041 0.055,0.068c0.013,0.027 0.02,0.057 0.02,0.088c-0,0.059 -0.022,0.107 -0.065,0.146c-0.043,0.039 -0.095,0.059 -0.155,0.059c-0.034,-0 -0.068,-0.007 -0.1,-0.022c-0.033,-0.014 -0.059,-0.033 -0.079,-0.057c-0.007,0.015 -0.013,0.033 -0.016,0.054l-0.059,-0Z" style="fill:#212529;fill-rule:nonzero;"/></g><g transform="matrix(20,0,0,20,72.9815,52.724)"><path d="M0.316,-0.042c-0.023,0.017 -0.048,0.03 -0.074,0.038c-0.026,0.009 -0.053,0.013 -0.081,0.013c-0.038,0 -0.066,-0.008 -0.085,-0.025c-0.018,-0.017 -0.028,-0.038 -0.028,-0.063c0,-0.036 0.019,-0.067 0.056,-0.094c0.038,-0.028 0.106,-0.058 0.204,-0.091l-0,-0.036c-0,-0.026 -0.007,-0.043 -0.019,-0.05c-0.012,-0.007 -0.027,-0.011 -0.044,-0.011c-0.041,0 -0.064,0.015 -0.068,0.045c-0.003,0.021 -0.01,0.035 -0.02,0.045c-0.01,0.009 -0.025,0.014 -0.045,0.014c-0.019,-0 -0.033,-0.005 -0.044,-0.015c-0.011,-0.01 -0.017,-0.022 -0.017,-0.035c0,-0.03 0.02,-0.056 0.06,-0.077c0.04,-0.021 0.094,-0.032 0.161,-0.032c0.037,-0 0.069,0.002 0.094,0.007c0.025,0.004 0.046,0.013 0.061,0.025c0.015,0.013 0.026,0.026 0.031,0.039c0.005,0.014 0.007,0.033 0.007,0.056l0,0.185c0,0.028 0.009,0.042 0.026,0.042c0.014,0 0.024,-0.009 0.028,-0.027l0.04,0c-0.001,0.034 -0.013,0.058 -0.037,0.074c-0.023,0.016 -0.052,0.024 -0.085,0.024c-0.059,0 -0.1,-0.017 -0.121,-0.051Zm-0.008,-0.053l-0,-0.114c-0.046,0.018 -0.075,0.035 -0.089,0.051c-0.014,0.015 -0.021,0.031 -0.021,0.047c0,0.013 0.004,0.024 0.012,0.034c0.009,0.01 0.019,0.015 0.033,0.015c0.011,-0 0.023,-0.003 0.033,-0.009c0.011,-0.005 0.022,-0.013 0.032,-0.024Z" style="fill:#212529;fill-rule:nonzero;"/></g><g transform="matrix(20,0,0,20,84.2315,52.724)"><path d="M0.247,-0.274l0,0.158c0,0.023 0.003,0.039 0.01,0.049c0.007,0.01 0.019,0.015 0.037,0.015l-0,0.052l-0.273,0l-0,-0.052c0.028,0 0.046,-0.004 0.054,-0.013c0.008,-0.009 0.011,-0.026 0.011,-0.051l0,-0.136c0,-0.025 -0.003,-0.042 -0.011,-0.051c-0.008,-0.01 -0.026,-0.014 -0.054,-0.014l-0,-0.052l0.216,-0.036c0.006,0.013 0.009,0.032 0.01,0.059c0.022,-0.024 0.044,-0.041 0.068,-0.053c0.023,-0.011 0.048,-0.017 0.073,-0.017c0.046,-0 0.082,0.013 0.108,0.038c0.026,0.025 0.039,0.06 0.039,0.104l-0,0.158c-0,0.025 0.004,0.041 0.012,0.051c0.008,0.009 0.025,0.013 0.052,0.013l-0,0.052l-0.272,0l-0,-0.052c0.013,-0 0.025,-0.004 0.034,-0.011c0.009,-0.008 0.014,-0.025 0.014,-0.053l0,-0.146c0,-0.027 -0.004,-0.045 -0.011,-0.055c-0.007,-0.01 -0.018,-0.015 -0.031,-0.015c-0.014,0 -0.028,0.005 -0.042,0.015c-0.015,0.009 -0.029,0.023 -0.044,0.043Z" style="fill:#212529;fill-rule:nonzero;"/></g><g transform="matrix(20,0,0,20,96.3116,52.724)"><path d="M0.049,0.016l-0.003,-0.133l0.048,0c0.025,0.055 0.072,0.083 0.139,0.083c0.029,-0 0.052,-0.005 0.071,-0.015c0.018,-0.01 0.028,-0.021 0.028,-0.033c-0,-0.011 -0.006,-0.019 -0.016,-0.025c-0.01,-0.005 -0.033,-0.012 -0.069,-0.019c-0.056,-0.012 -0.098,-0.023 -0.124,-0.033c-0.027,-0.01 -0.049,-0.026 -0.065,-0.047c-0.016,-0.022 -0.024,-0.046 -0.024,-0.073c-0,-0.041 0.016,-0.074 0.049,-0.099c0.034,-0.025 0.078,-0.038 0.134,-0.038c0.043,-0 0.087,0.008 0.131,0.025c0.008,-0.007 0.014,-0.016 0.019,-0.025l0.04,-0l0.005,0.121l-0.039,0c-0.026,-0.05 -0.075,-0.075 -0.15,-0.075c-0.025,0 -0.045,0.004 -0.06,0.012c-0.016,0.008 -0.024,0.018 -0.024,0.031c0,0.013 0.007,0.022 0.019,0.029c0.013,0.006 0.043,0.014 0.091,0.023c0.05,0.01 0.088,0.02 0.113,0.031c0.025,0.01 0.045,0.025 0.06,0.046c0.014,0.02 0.021,0.043 0.021,0.069c0,0.043 -0.019,0.078 -0.056,0.105c-0.038,0.027 -0.085,0.04 -0.14,0.04c-0.043,0 -0.088,-0.009 -0.134,-0.027c-0.009,0.006 -0.016,0.015 -0.02,0.027l-0.044,0Z" style="fill:#212529;fill-rule:nonzero;"/></g><g transform="matrix(20,0,0,20,105.892,52.724)"><rect x="0.03" y="-0.265" width="0.289" height="0.132" style="fill:#212529;fill-rule:nonzero;"/></g><g transform="matrix(20,0,0,20,112.767,52.724)"><path d="M0.055,-0.011l0,-0.227l0.059,0c0.016,0.068 0.04,0.116 0.073,0.145c0.033,0.029 0.068,0.044 0.105,0.044c0.028,-0 0.051,-0.009 0.067,-0.025c0.017,-0.017 0.025,-0.036 0.025,-0.059c0,-0.016 -0.005,-0.032 -0.015,-0.048c-0.011,-0.016 -0.036,-0.033 -0.075,-0.053c-0.075,-0.037 -0.126,-0.065 -0.152,-0.082c-0.026,-0.018 -0.047,-0.04 -0.063,-0.067c-0.016,-0.028 -0.024,-0.059 -0.024,-0.095c-0,-0.057 0.02,-0.103 0.061,-0.14c0.041,-0.037 0.088,-0.056 0.142,-0.056c0.056,0 0.104,0.019 0.143,0.057c0.007,-0.01 0.012,-0.025 0.016,-0.045l0.057,-0l-0,0.195l-0.055,0c-0.01,-0.043 -0.028,-0.079 -0.056,-0.107c-0.027,-0.028 -0.058,-0.042 -0.092,-0.042c-0.026,0 -0.046,0.007 -0.061,0.022c-0.015,0.014 -0.023,0.032 -0.023,0.053c0,0.017 0.005,0.032 0.015,0.047c0.009,0.014 0.023,0.025 0.039,0.035c0.017,0.009 0.052,0.026 0.106,0.051c0.048,0.023 0.084,0.043 0.107,0.061c0.023,0.018 0.041,0.041 0.055,0.068c0.013,0.027 0.02,0.057 0.02,0.088c-0,0.059 -0.022,0.107 -0.065,0.146c-0.043,0.039 -0.095,0.059 -0.155,0.059c-0.034,-0 -0.068,-0.007 -0.1,-0.022c-0.033,-0.014 -0.059,-0.033 -0.079,-0.057c-0.007,0.015 -0.013,0.033 -0.016,0.054l-0.059,-0Z" style="fill:#212529;fill-rule:nonzero;"/></g><g transform="matrix(20,0,0,20,124.017,52.724)"><path d="M0.213,-0.205c0,0.053 0.009,0.093 0.027,0.12c0.019,0.027 0.046,0.04 0.082,0.04c0.038,0 0.074,-0.019 0.106,-0.059l0.045,0.028c-0.018,0.027 -0.045,0.049 -0.08,0.066c-0.034,0.017 -0.073,0.026 -0.115,0.026c-0.064,0 -0.119,-0.019 -0.165,-0.059c-0.046,-0.039 -0.069,-0.092 -0.069,-0.159c-0,-0.066 0.022,-0.119 0.067,-0.157c0.044,-0.038 0.097,-0.057 0.16,-0.057c0.063,-0 0.114,0.017 0.155,0.052c0.04,0.035 0.06,0.088 0.06,0.159l-0.273,0Zm-0,-0.049l0.123,0c-0.002,-0.072 -0.023,-0.108 -0.063,-0.108c-0.02,0 -0.035,0.009 -0.045,0.027c-0.01,0.018 -0.015,0.045 -0.015,0.081Z" style="fill:#212529;fill-rule:nonzero;"/></g><g transform="matrix(20,0,0,20,134.437,52.724)"><path d="M0.242,-0.315c0.019,-0.034 0.041,-0.059 0.065,-0.076c0.024,-0.017 0.05,-0.025 0.079,-0.025c0.028,-0 0.049,0.009 0.063,0.026c0.015,0.018 0.022,0.036 0.022,0.057c-0,0.019 -0.006,0.036 -0.017,0.049c-0.012,0.014 -0.028,0.021 -0.048,0.021c-0.011,-0 -0.02,-0.002 -0.028,-0.007c-0.007,-0.004 -0.016,-0.013 -0.028,-0.026c-0.012,-0.013 -0.024,-0.019 -0.038,-0.019c-0.021,-0 -0.037,0.013 -0.048,0.038c-0.01,0.026 -0.015,0.065 -0.015,0.117l-0,0.043c-0,0.024 0.003,0.041 0.011,0.051c0.007,0.009 0.025,0.014 0.052,0.014l0.009,0l0,0.052l-0.296,0l-0,-0.052c0.028,0 0.046,-0.004 0.054,-0.014c0.007,-0.009 0.011,-0.026 0.011,-0.051l-0,-0.139c-0,-0.025 -0.004,-0.042 -0.012,-0.051c-0.007,-0.01 -0.025,-0.014 -0.054,-0.014l-0,-0.052l0.203,-0.043c0.009,0.026 0.014,0.06 0.015,0.101Z" style="fill:#212529;fill-rule:nonzero;"/></g><g transform="matrix(20,0,0,20,144.017,52.724)"><path d="M0.085,-0.585c0,-0.025 0.009,-0.045 0.026,-0.063c0.018,-0.017 0.038,-0.026 0.062,-0.026c0.025,0 0.045,0.009 0.062,0.026c0.017,0.017 0.026,0.038 0.026,0.063c-0,0.024 -0.009,0.045 -0.026,0.062c-0.017,0.017 -0.038,0.026 -0.062,0.026c-0.025,-0 -0.046,-0.009 -0.062,-0.027c-0.017,-0.017 -0.026,-0.038 -0.026,-0.061Zm0.165,0.169l0,0.299c0,0.025 0.004,0.042 0.012,0.051c0.008,0.01 0.026,0.014 0.054,0.014l0,0.052l-0.298,-0l-0,-0.052l0.011,0c0.027,0 0.045,-0.005 0.052,-0.014c0.008,-0.01 0.011,-0.027 0.011,-0.051l0,-0.145c0,-0.024 -0.003,-0.041 -0.011,-0.051c-0.007,-0.009 -0.025,-0.014 -0.052,-0.014l-0.011,-0l-0,-0.052l0.232,-0.037Z" style="fill:#212529;fill-rule:nonzero;"/></g><g transform="matrix(20,0,0,20,150.687,52.724)"><path d="M0.253,-0.347l0,0.23c0,0.024 0.004,0.041 0.012,0.051c0.007,0.009 0.024,0.014 0.051,0.014l0.026,0l0,0.052l-0.327,0l0,-0.052l0.017,0c0.028,0 0.045,-0.005 0.052,-0.014c0.008,-0.01 0.011,-0.027 0.011,-0.051l0,-0.23l-0.08,-0l0,-0.053l0.08,0c0,-0.052 0.002,-0.091 0.006,-0.118c0.004,-0.027 0.015,-0.052 0.032,-0.076c0.018,-0.025 0.043,-0.044 0.075,-0.059c0.031,-0.014 0.07,-0.021 0.114,-0.021c0.052,-0 0.091,0.008 0.117,0.026c0.026,0.018 0.04,0.04 0.04,0.067c-0,0.02 -0.008,0.036 -0.022,0.05c-0.014,0.015 -0.031,0.022 -0.051,0.022c-0.038,-0 -0.064,-0.025 -0.076,-0.074c-0.006,-0.024 -0.018,-0.036 -0.036,-0.036c-0.014,0 -0.025,0.008 -0.031,0.023c-0.006,0.015 -0.01,0.041 -0.01,0.077l0,0.119l0.089,0l0,0.053l-0.089,-0Z" style="fill:#212529;fill-rule:nonzero;"/></g><g transform="matrix(20,0,0,20,93.0841,82.724)"><path d="M0.139,-0.218l-0.046,-0.332c-0.003,-0.022 -0.004,-0.039 -0.004,-0.049c-0,-0.05 0.025,-0.075 0.077,-0.075c0.052,0 0.078,0.022 0.078,0.067c-0,0.014 -0.002,0.032 -0.005,0.054l-0.046,0.335l-0.054,-0Zm-0.062,0.147c0,-0.024 0.009,-0.045 0.026,-0.062c0.017,-0.017 0.038,-0.026 0.063,-0.026c0.024,-0 0.045,0.009 0.062,0.026c0.017,0.017 0.026,0.038 0.026,0.062c-0,0.025 -0.009,0.045 -0.026,0.063c-0.018,0.017 -0.038,0.026 -0.062,0.026c-0.025,-0 -0.045,-0.009 -0.063,-0.026c-0.017,-0.018 -0.026,-0.038 -0.026,-0.063Z" style="fill:#212529;fill-rule:nonzero;"/></g><g transform="matrix(20,0,0,20,99.754,82.724)"><path d="M0.062,-0.497l0.542,0l0,0.102l-0.542,0l0,-0.102Zm0,0.233l0.542,0l0,0.102l-0.542,0l0,-0.102Z" style="fill:#212529;fill-rule:nonzero;"/></g><g transform="matrix(20,0,0,20,113.084,82.724)"><path d="M0.062,-0.497l0.542,0l0,0.102l-0.542,0l0,-0.102Zm0,0.233l0.542,0l0,0.102l-0.542,0l0,-0.102Z" style="fill:#212529;fill-rule:nonzero;"/></g><g transform="matrix(20,0,0,20,72.0391,112.724)"><path d="M0.414,-0l-0.246,-0.516l-0,0.342c-0,0.031 0.002,0.053 0.006,0.068c0.005,0.014 0.014,0.027 0.03,0.037c0.015,0.01 0.034,0.015 0.056,0.015l0,0.054l-0.238,-0l-0,-0.054c0.021,-0 0.039,-0.006 0.054,-0.017c0.015,-0.01 0.025,-0.023 0.028,-0.037c0.004,-0.014 0.005,-0.037 0.005,-0.068l0,-0.348c0,-0.034 -0.005,-0.056 -0.017,-0.067c-0.012,-0.011 -0.035,-0.017 -0.07,-0.017l-0,-0.054l0.265,-0l0.204,0.435l0.206,-0.435l0.266,-0l0,0.054l-0.013,0c-0.033,0 -0.055,0.006 -0.065,0.018c-0.009,0.013 -0.014,0.034 -0.014,0.063l-0,0.392c-0,0.03 0.005,0.051 0.015,0.063c0.01,0.012 0.032,0.018 0.064,0.018l0.015,-0l0,0.054l-0.36,-0l-0,-0.054l0.013,-0c0.033,-0 0.054,-0.006 0.064,-0.019c0.01,-0.012 0.015,-0.033 0.015,-0.062l0,-0.389l-0.245,0.524l-0.038,-0Z" style="fill:#212529;fill-rule:nonzero;"/></g><g transform="matrix(20,0,0,20,91.8341,112.724)"><path d="M0.037,-0.201c0,-0.067 0.024,-0.12 0.071,-0.158c0.048,-0.038 0.105,-0.057 0.173,-0.057c0.066,-0 0.123,0.018 0.172,0.055c0.048,0.037 0.073,0.091 0.073,0.16c-0,0.066 -0.024,0.119 -0.072,0.158c-0.048,0.04 -0.106,0.059 -0.174,0.059c-0.066,0 -0.123,-0.019 -0.171,-0.056c-0.048,-0.037 -0.072,-0.091 -0.072,-0.161Zm0.168,-0.005c-0,0.062 0.005,0.106 0.017,0.131c0.011,0.025 0.032,0.037 0.06,0.037c0.023,0 0.042,-0.01 0.056,-0.031c0.013,-0.021 0.02,-0.065 0.02,-0.133c0,-0.062 -0.006,-0.104 -0.018,-0.126c-0.013,-0.022 -0.032,-0.033 -0.059,-0.033c-0.021,0 -0.039,0.01 -0.054,0.028c-0.015,0.019 -0.022,0.061 -0.022,0.127Z" style="fill:#212529;fill-rule:nonzero;"/></g><g transform="matrix(20,0,0,20,103.084,112.724)"><path d="M0.376,-0.056c-0.022,0.022 -0.046,0.038 -0.072,0.049c-0.026,0.011 -0.053,0.016 -0.081,0.016c-0.052,0 -0.096,-0.017 -0.131,-0.05c-0.035,-0.034 -0.052,-0.085 -0.052,-0.154c0,-0.077 0.02,-0.133 0.059,-0.168c0.039,-0.035 0.085,-0.053 0.139,-0.053c0.029,-0 0.056,0.004 0.079,0.013c0.023,0.009 0.043,0.022 0.059,0.04l0,-0.158c0,-0.024 -0.003,-0.041 -0.011,-0.051c-0.008,-0.009 -0.025,-0.013 -0.053,-0.013l-0,-0.053l0.222,-0.036l0,0.543c0,0.028 0.005,0.046 0.014,0.054c0.009,0.008 0.027,0.012 0.054,0.012l-0,0.055c-0.095,0.003 -0.167,0.01 -0.214,0.019c-0.008,-0.017 -0.012,-0.038 -0.012,-0.065Zm0,-0.067l0,-0.182c-0.014,-0.013 -0.028,-0.024 -0.042,-0.03c-0.014,-0.007 -0.028,-0.01 -0.042,-0.01c-0.028,-0 -0.05,0.011 -0.064,0.033c-0.014,0.023 -0.021,0.057 -0.021,0.102c0,0.049 0.006,0.085 0.019,0.11c0.013,0.024 0.032,0.037 0.058,0.037c0.018,-0 0.035,-0.006 0.053,-0.017c0.018,-0.011 0.031,-0.025 0.039,-0.043Z" style="fill:#212529;fill-rule:nonzero;"/></g><g transform="matrix(20,0,0,20,115.379,112.724)"><path d="M0.213,-0.205c0,0.053 0.009,0.093 0.027,0.12c0.019,0.027 0.046,0.04 0.082,0.04c0.038,0 0.074,-0.019 0.106,-0.059l0.045,0.028c-0.018,0.027 -0.045,0.049 -0.08,0.066c-0.034,0.017 -0.073,0.026 -0.115,0.026c-0.064,0 -0.119,-0.019 -0.165,-0.059c-0.046,-0.039 -0.069,-0.092 -0.069,-0.159c-0,-0.066 0.022,-0.119 0.067,-0.157c0.044,-0.038 0.097,-0.057 0.16,-0.057c0.063,-0 0.114,0.017 0.155,0.052c0.04,0.035 0.06,0.088 0.06,0.159l-0.273,0Zm-0,-0.049l0.123,0c-0.002,-0.072 -0.023,-0.108 -0.063,-0.108c-0.02,0 -0.035,0.009 -0.045,0.027c-0.01,0.018 -0.015,0.045 -0.015,0.081Z" style="fill:#212529;fill-rule:nonzero;"/></g><g transform="matrix(20,0,0,20,125.799,112.724)"><path d="M0.242,-0.315c0.019,-0.034 0.041,-0.059 0.065,-0.076c0.024,-0.017 0.05,-0.025 0.079,-0.025c0.028,-0 0.049,0.009 0.063,0.026c0.015,0.018 0.022,0.036 0.022,0.057c-0,0.019 -0.006,0.036 -0.017,0.049c-0.012,0.014 -0.028,0.021 -0.048,0.021c-0.011,-0 -0.02,-0.002 -0.028,-0.007c-0.007,-0.004 -0.016,-0.013 -0.028,-0.026c-0.012,-0.013 -0.024,-0.019 -0.038,-0.019c-0.021,-0 -0.037,0.013 -0.048,0.038c-0.01,0.026 -0.015,0.065 -0.015,0.117l-0,0.043c-0,0.024 0.003,0.041 0.011,0.051c0.007,0.009 0.025,0.014 0.052,0.014l0.009,0l0,0.052l-0.296,0l-0,-0.052c0.028,0 0.046,-0.004 0.054,-0.014c0.007,-0.009 0.011,-0.026 0.011,-0.051l-0,-0.139c-0,-0.025 -0.004,-0.042 -0.012,-0.051c-0.007,-0.01 -0.025,-0.014 -0.054,-0.014l-0,-0.052l0.203,-0.043c0.009,0.026 0.014,0.06 0.015,0.101Z" style="fill:#212529;fill-rule:nonzero;"/></g><g transform="matrix(20,0,0,20,135.379,112.724)"><path d="M0.247,-0.274l0,0.158c0,0.023 0.003,0.039 0.01,0.049c0.007,0.01 0.019,0.015 0.037,0.015l-0,0.052l-0.273,0l-0,-0.052c0.028,0 0.046,-0.004 0.054,-0.013c0.008,-0.009 0.011,-0.026 0.011,-0.051l0,-0.136c0,-0.025 -0.003,-0.042 -0.011,-0.051c-0.008,-0.01 -0.026,-0.014 -0.054,-0.014l-0,-0.052l0.216,-0.036c0.006,0.013 0.009,0.032 0.01,0.059c0.022,-0.024 0.044,-0.041 0.068,-0.053c0.023,-0.011 0.048,-0.017 0.073,-0.017c0.046,-0 0.082,0.013 0.108,0.038c0.026,0.025 0.039,0.06 0.039,0.104l-0,0.158c-0,0.025 0.004,0.041 0.012,0.051c0.008,0.009 0.025,0.013 0.052,0.013l-0,0.052l-0.272,0l-0,-0.052c0.013,-0 0.025,-0.004 0.034,-0.011c0.009,-0.008 0.014,-0.025 0.014,-0.053l0,-0.146c0,-0.027 -0.004,-0.045 -0.011,-0.055c-0.007,-0.01 -0.018,-0.015 -0.031,-0.015c-0.014,0 -0.028,0.005 -0.042,0.015c-0.015,0.009 -0.029,0.023 -0.044,0.043Z" style="fill:#212529;fill-rule:nonzero;"/></g></g><g transform="matrix(4.16667,0,0,4.16667,765.701,89.5735)"><g transform="matrix(20,0,0,20,87.8457,52.724)"><path d="M0.486,-0.545c-0.004,-0.036 -0.022,-0.064 -0.052,-0.084c-0.03,-0.02 -0.068,-0.03 -0.112,-0.03c-0.032,-0 -0.06,0.005 -0.084,0.016c-0.024,0.01 -0.043,0.024 -0.056,0.043c-0.013,0.018 -0.02,0.038 -0.02,0.062c-0,0.019 0.005,0.036 0.014,0.05c0.009,0.013 0.021,0.025 0.036,0.034c0.015,0.009 0.03,0.017 0.046,0.022c0.016,0.006 0.031,0.011 0.045,0.014l0.073,0.02c0.019,0.005 0.04,0.012 0.064,0.021c0.023,0.009 0.045,0.021 0.067,0.036c0.021,0.015 0.039,0.034 0.053,0.057c0.014,0.024 0.021,0.052 0.021,0.087c-0,0.039 -0.01,0.074 -0.031,0.106c-0.02,0.032 -0.05,0.057 -0.089,0.076c-0.039,0.018 -0.087,0.028 -0.143,0.028c-0.052,-0 -0.097,-0.009 -0.135,-0.025c-0.038,-0.017 -0.068,-0.041 -0.089,-0.071c-0.022,-0.03 -0.034,-0.065 -0.037,-0.105l0.091,0c0.002,0.028 0.011,0.051 0.028,0.069c0.016,0.017 0.036,0.031 0.061,0.039c0.025,0.009 0.052,0.013 0.081,0.013c0.034,0 0.064,-0.005 0.091,-0.016c0.026,-0.011 0.048,-0.027 0.063,-0.046c0.016,-0.02 0.024,-0.043 0.024,-0.07c-0,-0.024 -0.007,-0.044 -0.021,-0.059c-0.013,-0.015 -0.031,-0.027 -0.053,-0.037c-0.022,-0.009 -0.046,-0.018 -0.071,-0.025l-0.09,-0.025c-0.056,-0.017 -0.101,-0.04 -0.135,-0.07c-0.033,-0.03 -0.049,-0.07 -0.049,-0.119c-0,-0.041 0.011,-0.076 0.033,-0.107c0.022,-0.03 0.052,-0.054 0.089,-0.071c0.038,-0.017 0.08,-0.025 0.126,-0.025c0.047,-0 0.089,0.008 0.125,0.025c0.037,0.017 0.066,0.039 0.087,0.068c0.022,0.029 0.033,0.062 0.034,0.099l-0.085,-0Z" style="fill:#212529;fill-rule:nonzero;"/></g><g transform="matrix(20,0,0,20,100.601,52.724)"><path d="M0.305,0.011c-0.052,0 -0.097,-0.011 -0.135,-0.035c-0.038,-0.023 -0.068,-0.056 -0.088,-0.098c-0.021,-0.042 -0.031,-0.091 -0.031,-0.146c0,-0.056 0.01,-0.106 0.031,-0.148c0.02,-0.043 0.049,-0.076 0.086,-0.101c0.037,-0.024 0.08,-0.036 0.129,-0.036c0.028,0 0.056,0.005 0.084,0.015c0.028,0.009 0.053,0.024 0.076,0.046c0.022,0.021 0.041,0.049 0.054,0.084c0.014,0.034 0.02,0.077 0.02,0.128l0,0.036l-0.42,-0l-0,-0.073l0.335,0c0,-0.031 -0.006,-0.058 -0.018,-0.082c-0.012,-0.024 -0.03,-0.043 -0.052,-0.057c-0.022,-0.014 -0.049,-0.021 -0.079,-0.021c-0.034,-0 -0.062,0.008 -0.087,0.024c-0.024,0.017 -0.043,0.038 -0.056,0.065c-0.013,0.026 -0.019,0.054 -0.019,0.084l-0,0.048c-0,0.042 0.007,0.076 0.021,0.105c0.015,0.028 0.035,0.05 0.06,0.065c0.026,0.015 0.056,0.022 0.089,0.022c0.022,0 0.042,-0.003 0.06,-0.009c0.018,-0.007 0.034,-0.016 0.047,-0.029c0.013,-0.012 0.023,-0.028 0.03,-0.047l0.081,0.023c-0.009,0.027 -0.023,0.051 -0.043,0.072c-0.02,0.021 -0.045,0.037 -0.075,0.048c-0.029,0.012 -0.063,0.017 -0.1,0.017Z" style="fill:#212529;fill-rule:nonzero;"/></g><g transform="matrix(20,0,0,20,112.249,52.724)"><path d="M0.077,-0l-0,-0.545l0.081,-0l-0,0.082l0.005,-0c0.01,-0.027 0.028,-0.049 0.054,-0.066c0.026,-0.017 0.056,-0.025 0.088,-0.025c0.007,0 0.014,0 0.023,0c0.01,0.001 0.017,0.001 0.021,0.001l0,0.086c-0.002,-0.001 -0.009,-0.002 -0.019,-0.004c-0.01,-0.001 -0.021,-0.002 -0.032,-0.002c-0.026,-0 -0.05,0.005 -0.071,0.017c-0.02,0.011 -0.037,0.026 -0.049,0.045c-0.012,0.019 -0.017,0.041 -0.017,0.066l-0,0.345l-0.084,-0Z" style="fill:#212529;fill-rule:nonzero;"/></g><g transform="matrix(20,0,0,20,119.692,52.724)"><path d="M0.077,-0l-0,-0.545l0.084,-0l-0,0.545l-0.084,-0Zm0.042,-0.636c-0.016,-0 -0.03,-0.006 -0.042,-0.017c-0.011,-0.011 -0.017,-0.025 -0.017,-0.04c-0,-0.016 0.006,-0.029 0.017,-0.04c0.012,-0.011 0.026,-0.017 0.042,-0.017c0.017,0 0.031,0.006 0.042,0.017c0.012,0.011 0.018,0.024 0.018,0.04c-0,0.015 -0.006,0.029 -0.018,0.04c-0.011,0.011 -0.025,0.017 -0.042,0.017Z" style="fill:#212529;fill-rule:nonzero;"/></g><g transform="matrix(20,0,0,20,124.437,52.724)"><path d="M0.32,-0.545l-0,0.071l-0.294,-0l-0,-0.071l0.294,-0Zm-0.206,0.545l-0,-0.621c-0,-0.031 0.007,-0.057 0.022,-0.078c0.014,-0.021 0.033,-0.036 0.057,-0.047c0.023,-0.01 0.048,-0.015 0.074,-0.015c0.021,-0 0.037,0.001 0.05,0.005c0.013,0.003 0.023,0.006 0.03,0.009l-0.025,0.072c-0.004,-0.001 -0.01,-0.003 -0.017,-0.005c-0.008,-0.002 -0.017,-0.003 -0.029,-0.003c-0.028,-0 -0.048,0.007 -0.06,0.021c-0.012,0.014 -0.019,0.034 -0.019,0.061l0,0.601l-0.083,-0Z" style="fill:#212529;fill-rule:nonzero;"/></g><g transform="matrix(20,0,0,20,97.2491,82.724)"><rect x="0.248" y="-0.674" width="0.129" height="0.921" style="fill:#212529;fill-rule:nonzero;"/></g><g transform="matrix(20,0,0,20,109.749,82.724)"><rect x="0.248" y="-0.674" width="0.129" height="0.921" style="fill:#212529;fill-rule:nonzero;"/></g><g transform="matrix(20,0,0,20,61.7315,112.724)"><path d="M0.055,-0.011l0,-0.227l0.059,0c0.016,0.068 0.04,0.116 0.073,0.145c0.033,0.029 0.068,0.044 0.105,0.044c0.028,-0 0.051,-0.009 0.067,-0.025c0.017,-0.017 0.025,-0.036 0.025,-0.059c0,-0.016 -0.005,-0.032 -0.015,-0.048c-0.011,-0.016 -0.036,-0.033 -0.075,-0.053c-0.075,-0.037 -0.126,-0.065 -0.152,-0.082c-0.026,-0.018 -0.047,-0.04 -0.063,-0.067c-0.016,-0.028 -0.024,-0.059 -0.024,-0.095c-0,-0.057 0.02,-0.103 0.061,-0.14c0.041,-0.037 0.088,-0.056 0.142,-0.056c0.056,0 0.104,0.019 0.143,0.057c0.007,-0.01 0.012,-0.025 0.016,-0.045l0.057,-0l-0,0.195l-0.055,0c-0.01,-0.043 -0.028,-0.079 -0.056,-0.107c-0.027,-0.028 -0.058,-0.042 -0.092,-0.042c-0.026,0 -0.046,0.007 -0.061,0.022c-0.015,0.014 -0.023,0.032 -0.023,0.053c0,0.017 0.005,0.032 0.015,0.047c0.009,0.014 0.023,0.025 0.039,0.035c0.017,0.009 0.052,0.026 0.106,0.051c0.048,0.023 0.084,0.043 0.107,0.061c0.023,0.018 0.041,0.041 0.055,0.068c0.013,0.027 0.02,0.057 0.02,0.088c-0,0.059 -0.022,0.107 -0.065,0.146c-0.043,0.039 -0.095,0.059 -0.155,0.059c-0.034,-0 -0.068,-0.007 -0.1,-0.022c-0.033,-0.014 -0.059,-0.033 -0.079,-0.057c-0.007,0.015 -0.013,0.033 -0.016,0.054l-0.059,-0Z" style="fill:#212529;fill-rule:nonzero;"/></g><g transform="matrix(20,0,0,20,72.9815,112.724)"><path d="M0.316,-0.042c-0.023,0.017 -0.048,0.03 -0.074,0.038c-0.026,0.009 -0.053,0.013 -0.081,0.013c-0.038,0 -0.066,-0.008 -0.085,-0.025c-0.018,-0.017 -0.028,-0.038 -0.028,-0.063c0,-0.036 0.019,-0.067 0.056,-0.094c0.038,-0.028 0.106,-0.058 0.204,-0.091l-0,-0.036c-0,-0.026 -0.007,-0.043 -0.019,-0.05c-0.012,-0.007 -0.027,-0.011 -0.044,-0.011c-0.041,0 -0.064,0.015 -0.068,0.045c-0.003,0.021 -0.01,0.035 -0.02,0.045c-0.01,0.009 -0.025,0.014 -0.045,0.014c-0.019,-0 -0.033,-0.005 -0.044,-0.015c-0.011,-0.01 -0.017,-0.022 -0.017,-0.035c0,-0.03 0.02,-0.056 0.06,-0.077c0.04,-0.021 0.094,-0.032 0.161,-0.032c0.037,-0 0.069,0.002 0.094,0.007c0.025,0.004 0.046,0.013 0.061,0.025c0.015,0.013 0.026,0.026 0.031,0.039c0.005,0.014 0.007,0.033 0.007,0.056l0,0.185c0,0.028 0.009,0.042 0.026,0.042c0.014,0 0.024,-0.009 0.028,-0.027l0.04,0c-0.001,0.034 -0.013,0.058 -0.037,0.074c-0.023,0.016 -0.052,0.024 -0.085,0.024c-0.059,0 -0.1,-0.017 -0.121,-0.051Zm-0.008,-0.053l-0,-0.114c-0.046,0.018 -0.075,0.035 -0.089,0.051c-0.014,0.015 -0.021,0.031 -0.021,0.047c0,0.013 0.004,0.024 0.012,0.034c0.009,0.01 0.019,0.015 0.033,0.015c0.011,-0 0.023,-0.003 0.033,-0.009c0.011,-0.005 0.022,-0.013 0.032,-0.024Z" style="fill:#212529;fill-rule:nonzero;"/></g><g transform="matrix(20,0,0,20,84.2315,112.724)"><path d="M0.247,-0.274l0,0.158c0,0.023 0.003,0.039 0.01,0.049c0.007,0.01 0.019,0.015 0.037,0.015l-0,0.052l-0.273,0l-0,-0.052c0.028,0 0.046,-0.004 0.054,-0.013c0.008,-0.009 0.011,-0.026 0.011,-0.051l0,-0.136c0,-0.025 -0.003,-0.042 -0.011,-0.051c-0.008,-0.01 -0.026,-0.014 -0.054,-0.014l-0,-0.052l0.216,-0.036c0.006,0.013 0.009,0.032 0.01,0.059c0.022,-0.024 0.044,-0.041 0.068,-0.053c0.023,-0.011 0.048,-0.017 0.073,-0.017c0.046,-0 0.082,0.013 0.108,0.038c0.026,0.025 0.039,0.06 0.039,0.104l-0,0.158c-0,0.025 0.004,0.041 0.012,0.051c0.008,0.009 0.025,0.013 0.052,0.013l-0,0.052l-0.272,0l-0,-0.052c0.013,-0 0.025,-0.004 0.034,-0.011c0.009,-0.008 0.014,-0.025 0.014,-0.053l0,-0.146c0,-0.027 -0.004,-0.045 -0.011,-0.055c-0.007,-0.01 -0.018,-0.015 -0.031,-0.015c-0.014,0 -0.028,0.005 -0.042,0.015c-0.015,0.009 -0.029,0.023 -0.044,0.043Z" style="fill:#212529;fill-rule:nonzero;"/></g><g transform="matrix(20,0,0,20,96.3116,112.724)"><path d="M0.049,0.016l-0.003,-0.133l0.048,0c0.025,0.055 0.072,0.083 0.139,0.083c0.029,-0 0.052,-0.005 0.071,-0.015c0.018,-0.01 0.028,-0.021 0.028,-0.033c-0,-0.011 -0.006,-0.019 -0.016,-0.025c-0.01,-0.005 -0.033,-0.012 -0.069,-0.019c-0.056,-0.012 -0.098,-0.023 -0.124,-0.033c-0.027,-0.01 -0.049,-0.026 -0.065,-0.047c-0.016,-0.022 -0.024,-0.046 -0.024,-0.073c-0,-0.041 0.016,-0.074 0.049,-0.099c0.034,-0.025 0.078,-0.038 0.134,-0.038c0.043,-0 0.087,0.008 0.131,0.025c0.008,-0.007 0.014,-0.016 0.019,-0.025l0.04,-0l0.005,0.121l-0.039,0c-0.026,-0.05 -0.075,-0.075 -0.15,-0.075c-0.025,0 -0.045,0.004 -0.06,0.012c-0.016,0.008 -0.024,0.018 -0.024,0.031c0,0.013 0.007,0.022 0.019,0.029c0.013,0.006 0.043,0.014 0.091,0.023c0.05,0.01 0.088,0.02 0.113,0.031c0.025,0.01 0.045,0.025 0.06,0.046c0.014,0.02 0.021,0.043 0.021,0.069c0,0.043 -0.019,0.078 -0.056,0.105c-0.038,0.027 -0.085,0.04 -0.14,0.04c-0.043,0 -0.088,-0.009 -0.134,-0.027c-0.009,0.006 -0.016,0.015 -0.02,0.027l-0.044,0Z" style="fill:#212529;fill-rule:nonzero;"/></g><g transform="matrix(20,0,0,20,105.892,112.724)"><rect x="0.03" y="-0.265" width="0.289" height="0.132" style="fill:#212529;fill-rule:nonzero;"/></g><g transform="matrix(20,0,0,20,112.767,112.724)"><path d="M0.055,-0.011l0,-0.227l0.059,0c0.016,0.068 0.04,0.116 0.073,0.145c0.033,0.029 0.068,0.044 0.105,0.044c0.028,-0 0.051,-0.009 0.067,-0.025c0.017,-0.017 0.025,-0.036 0.025,-0.059c0,-0.016 -0.005,-0.032 -0.015,-0.048c-0.011,-0.016 -0.036,-0.033 -0.075,-0.053c-0.075,-0.037 -0.126,-0.065 -0.152,-0.082c-0.026,-0.018 -0.047,-0.04 -0.063,-0.067c-0.016,-0.028 -0.024,-0.059 -0.024,-0.095c-0,-0.057 0.02,-0.103 0.061,-0.14c0.041,-0.037 0.088,-0.056 0.142,-0.056c0.056,0 0.104,0.019 0.143,0.057c0.007,-0.01 0.012,-0.025 0.016,-0.045l0.057,-0l-0,0.195l-0.055,0c-0.01,-0.043 -0.028,-0.079 -0.056,-0.107c-0.027,-0.028 -0.058,-0.042 -0.092,-0.042c-0.026,0 -0.046,0.007 -0.061,0.022c-0.015,0.014 -0.023,0.032 -0.023,0.053c0,0.017 0.005,0.032 0.015,0.047c0.009,0.014 0.023,0.025 0.039,0.035c0.017,0.009 0.052,0.026 0.106,0.051c0.048,0.023 0.084,0.043 0.107,0.061c0.023,0.018 0.041,0.041 0.055,0.068c0.013,0.027 0.02,0.057 0.02,0.088c-0,0.059 -0.022,0.107 -0.065,0.146c-0.043,0.039 -0.095,0.059 -0.155,0.059c-0.034,-0 -0.068,-0.007 -0.1,-0.022c-0.033,-0.014 -0.059,-0.033 -0.079,-0.057c-0.007,0.015 -0.013,0.033 -0.016,0.054l-0.059,-0Z" style="fill:#212529;fill-rule:nonzero;"/></g><g transform="matrix(20,0,0,20,124.017,112.724)"><path d="M0.213,-0.205c0,0.053 0.009,0.093 0.027,0.12c0.019,0.027 0.046,0.04 0.082,0.04c0.038,0 0.074,-0.019 0.106,-0.059l0.045,0.028c-0.018,0.027 -0.045,0.049 -0.08,0.066c-0.034,0.017 -0.073,0.026 -0.115,0.026c-0.064,0 -0.119,-0.019 -0.165,-0.059c-0.046,-0.039 -0.069,-0.092 -0.069,-0.159c-0,-0.066 0.022,-0.119 0.067,-0.157c0.044,-0.038 0.097,-0.057 0.16,-0.057c0.063,-0 0.114,0.017 0.155,0.052c0.04,0.035 0.06,0.088 0.06,0.159l-0.273,0Zm-0,-0.049l0.123,0c-0.002,-0.072 -0.023,-0.108 -0.063,-0.108c-0.02,0 -0.035,0.009 -0.045,0.027c-0.01,0.018 -0.015,0.045 -0.015,0.081Z" style="fill:#212529;fill-rule:nonzero;"/></g><g transform="matrix(20,0,0,20,134.437,112.724)"><path d="M0.242,-0.315c0.019,-0.034 0.041,-0.059 0.065,-0.076c0.024,-0.017 0.05,-0.025 0.079,-0.025c0.028,-0 0.049,0.009 0.063,0.026c0.015,0.018 0.022,0.036 0.022,0.057c-0,0.019 -0.006,0.036 -0.017,0.049c-0.012,0.014 -0.028,0.021 -0.048,0.021c-0.011,-0 -0.02,-0.002 -0.028,-0.007c-0.007,-0.004 -0.016,-0.013 -0.028,-0.026c-0.012,-0.013 -0.024,-0.019 -0.038,-0.019c-0.021,-0 -0.037,0.013 -0.048,0.038c-0.01,0.026 -0.015,0.065 -0.015,0.117l-0,0.043c-0,0.024 0.003,0.041 0.011,0.051c0.007,0.009 0.025,0.014 0.052,0.014l0.009,0l0,0.052l-0.296,0l-0,-0.052c0.028,0 0.046,-0.004 0.054,-0.014c0.007,-0.009 0.011,-0.026 0.011,-0.051l-0,-0.139c-0,-0.025 -0.004,-0.042 -0.012,-0.051c-0.007,-0.01 -0.025,-0.014 -0.054,-0.014l-0,-0.052l0.203,-0.043c0.009,0.026 0.014,0.06 0.015,0.101Z" style="fill:#212529;fill-rule:nonzero;"/></g><g transform="matrix(20,0,0,20,144.017,112.724)"><path d="M0.085,-0.585c0,-0.025 0.009,-0.045 0.026,-0.063c0.018,-0.017 0.038,-0.026 0.062,-0.026c0.025,0 0.045,0.009 0.062,0.026c0.017,0.017 0.026,0.038 0.026,0.063c-0,0.024 -0.009,0.045 -0.026,0.062c-0.017,0.017 -0.038,0.026 -0.062,0.026c-0.025,-0 -0.046,-0.009 -0.062,-0.027c-0.017,-0.017 -0.026,-0.038 -0.026,-0.061Zm0.165,0.169l0,0.299c0,0.025 0.004,0.042 0.012,0.051c0.008,0.01 0.026,0.014 0.054,0.014l0,0.052l-0.298,-0l-0,-0.052l0.011,0c0.027,0 0.045,-0.005 0.052,-0.014c0.008,-0.01 0.011,-0.027 0.011,-0.051l0,-0.145c0,-0.024 -0.003,-0.041 -0.011,-0.051c-0.007,-0.009 -0.025,-0.014 -0.052,-0.014l-0.011,-0l-0,-0.052l0.232,-0.037Z" style="fill:#212529;fill-rule:nonzero;"/></g><g transform="matrix(20,0,0,20,150.687,112.724)"><path d="M0.253,-0.347l0,0.23c0,0.024 0.004,0.041 0.012,0.051c0.007,0.009 0.024,0.014 0.051,0.014l0.026,0l0,0.052l-0.327,0l0,-0.052l0.017,0c0.028,0 0.045,-0.005 0.052,-0.014c0.008,-0.01 0.011,-0.027 0.011,-0.051l0,-0.23l-0.08,-0l0,-0.053l0.08,0c0,-0.052 0.002,-0.091 0.006,-0.118c0.004,-0.027 0.015,-0.052 0.032,-0.076c0.018,-0.025 0.043,-0.044 0.075,-0.059c0.031,-0.014 0.07,-0.021 0.114,-0.021c0.052,-0 0.091,0.008 0.117,0.026c0.026,0.018 0.04,0.04 0.04,0.067c-0,0.02 -0.008,0.036 -0.022,0.05c-0.014,0.015 -0.031,0.022 -0.051,0.022c-0.038,-0 -0.064,-0.025 -0.076,-0.074c-0.006,-0.024 -0.018,-0.036 -0.036,-0.036c-0.014,0 -0.025,0.008 -0.031,0.023c-0.006,0.015 -0.01,0.041 -0.01,0.077l0,0.119l0.089,0l0,0.053l-0.089,-0Z" style="fill:#212529;fill-rule:nonzero;"/></g></g><clipPath id="_clip2"><rect id="magnifying-glass--1-.svg" serif:id="magnifying-glass (1).svg" x="331.241" y="691.732" width="348.927" height="325.19"/></clipPath><g clip-path="url(#_clip2)"><path d="M336.35,989.168l95.097,-88.627c-18.931,-22.745 -29.211,-50.727 -29.211,-79.512c0,-71.165 62.835,-129.725 139.195,-129.725c76.36,-0 139.194,58.56 139.194,129.725c0,71.165 -62.834,129.725 -139.194,129.725c-30.885,0 -60.909,-9.58 -85.313,-27.222l-95.098,88.628c-3.27,3.048 -7.71,4.762 -12.335,4.762c-4.624,0 -9.064,-1.714 -12.334,-4.762l-0.001,0c-3.27,-3.047 -5.11,-7.185 -5.11,-11.496c0,-4.31 1.84,-8.448 5.11,-11.496Zm204.849,-70.933c0.001,-0 0.001,-0 0.002,-0c57.092,-0 104.072,-43.784 104.072,-96.992c-0,-53.209 -46.98,-96.992 -104.072,-96.992c-57.093,-0 -104.072,43.783 -104.072,96.992c-0,0 -0,0.001 -0,0.001c0.067,53.184 47.004,96.929 104.07,96.991l0,-0Z" style="fill-rule:nonzero;"/></g><path d="M490.755,806.278l0,-24.242l2.936,-0l-0,21.638l11.269,-0l-0,2.604l-14.205,-0Z" style="fill:#212529;fill-rule:nonzero;"/><path d="M516.513,806.657c-1.642,-0 -3.08,-0.391 -4.315,-1.172c-1.235,-0.781 -2.198,-1.874 -2.888,-3.279c-0.691,-1.405 -1.036,-3.046 -1.036,-4.924c0,-1.894 0.345,-3.547 1.036,-4.96c0.69,-1.413 1.653,-2.509 2.888,-3.291c1.235,-0.781 2.673,-1.172 4.315,-1.172c1.641,0 3.079,0.391 4.314,1.172c1.235,0.782 2.198,1.878 2.889,3.291c0.69,1.413 1.035,3.066 1.035,4.96c0,1.878 -0.345,3.519 -1.035,4.924c-0.691,1.405 -1.654,2.498 -2.889,3.279c-1.235,0.781 -2.673,1.172 -4.314,1.172Zm-0,-2.51c1.247,0 2.272,-0.319 3.077,-0.959c0.805,-0.639 1.401,-1.479 1.788,-2.521c0.386,-1.041 0.58,-2.17 0.58,-3.385c-0,-1.216 -0.194,-2.348 -0.58,-3.398c-0.387,-1.049 -0.983,-1.897 -1.788,-2.544c-0.805,-0.648 -1.83,-0.971 -3.077,-0.971c-1.247,-0 -2.273,0.323 -3.078,0.971c-0.805,0.647 -1.401,1.495 -1.787,2.544c-0.387,1.05 -0.58,2.182 -0.58,3.398c-0,1.215 0.193,2.344 0.58,3.385c0.386,1.042 0.982,1.882 1.787,2.521c0.805,0.64 1.831,0.959 3.078,0.959Z" style="fill:#212529;fill-rule:nonzero;"/><path d="M529.013,806.278l-0,-18.182l2.699,0l-0,2.746l0.189,0c0.331,-0.899 0.931,-1.629 1.799,-2.19c0.868,-0.56 1.847,-0.84 2.936,-0.84c0.205,0 0.462,0.004 0.769,0.012c0.308,0.008 0.541,0.02 0.699,0.035l-0,2.841c-0.095,-0.023 -0.31,-0.061 -0.645,-0.112c-0.336,-0.051 -0.689,-0.077 -1.06,-0.077c-0.884,-0 -1.671,0.183 -2.361,0.55c-0.691,0.367 -1.235,0.872 -1.634,1.515c-0.398,0.644 -0.598,1.376 -0.598,2.196l0,11.506l-2.793,-0Z" style="fill:#212529;fill-rule:nonzero;"/><path d="M548.473,806.657c-1.752,-0 -3.261,-0.389 -4.528,-1.166c-1.266,-0.778 -2.241,-1.867 -2.923,-3.267c-0.683,-1.401 -1.024,-3.033 -1.024,-4.895c-0,-1.862 0.341,-3.506 1.024,-4.93c0.682,-1.424 1.637,-2.537 2.864,-3.338c1.227,-0.801 2.661,-1.202 4.303,-1.202c0.947,0 1.882,0.158 2.805,0.474c0.924,0.316 1.764,0.827 2.522,1.533c0.757,0.706 1.361,1.639 1.811,2.799c0.449,1.16 0.674,2.589 0.674,4.285l0,1.184l-14.015,0l0,-2.415l11.174,0c0,-1.026 -0.203,-1.941 -0.609,-2.746c-0.407,-0.805 -0.983,-1.44 -1.728,-1.906c-0.746,-0.465 -1.624,-0.698 -2.634,-0.698c-1.113,-0 -2.074,0.274 -2.882,0.823c-0.809,0.548 -1.431,1.26 -1.865,2.136c-0.434,0.876 -0.651,1.815 -0.651,2.817l0,1.61c0,1.373 0.239,2.535 0.716,3.486c0.478,0.951 1.143,1.673 1.995,2.166c0.852,0.494 1.843,0.74 2.971,0.74c0.734,0 1.399,-0.104 1.995,-0.313c0.595,-0.21 1.11,-0.525 1.544,-0.947c0.434,-0.423 0.77,-0.949 1.006,-1.581l2.699,0.758c-0.284,0.915 -0.761,1.718 -1.432,2.409c-0.671,0.69 -1.499,1.227 -2.486,1.61c-0.986,0.382 -2.095,0.574 -3.326,0.574Z" style="fill:#212529;fill-rule:nonzero;"/><path d="M560.263,806.278l-0,-18.182l2.699,0l-0,2.841l0.236,0c0.379,-0.971 0.991,-1.726 1.835,-2.267c0.844,-0.54 1.859,-0.811 3.042,-0.811c1.2,0 2.2,0.271 3.001,0.811c0.801,0.541 1.426,1.296 1.876,2.267l0.19,0c0.465,-0.939 1.164,-1.687 2.095,-2.243c0.931,-0.556 2.048,-0.835 3.35,-0.835c1.625,0 2.955,0.507 3.989,1.521c1.033,1.015 1.55,2.591 1.55,4.729l0,12.169l-2.793,-0l-0,-12.169c-0,-1.341 -0.367,-2.3 -1.101,-2.876c-0.734,-0.576 -1.598,-0.864 -2.592,-0.864c-1.279,-0 -2.269,0.385 -2.971,1.154c-0.703,0.769 -1.054,1.742 -1.054,2.918l0,11.837l-2.841,-0l0,-12.453c0,-1.033 -0.335,-1.868 -1.006,-2.503c-0.671,-0.635 -1.535,-0.953 -2.592,-0.953c-0.726,-0 -1.403,0.193 -2.03,0.58c-0.628,0.387 -1.133,0.921 -1.516,1.604c-0.382,0.682 -0.574,1.47 -0.574,2.361l0,11.364l-2.793,-0Z" style="fill:#212529;fill-rule:nonzero;"/><rect x="490.755" y="827.433" width="2.936" height="24.242" style="fill:#212529;fill-rule:nonzero;"/><path d="M499.183,858.494l0,-25l2.699,-0l0,2.888l0.332,0c0.205,-0.316 0.491,-0.72 0.858,-1.213c0.367,-0.493 0.895,-0.935 1.586,-1.326c0.69,-0.391 1.627,-0.586 2.811,-0.586c1.531,0 2.881,0.383 4.048,1.148c1.168,0.766 2.08,1.851 2.735,3.255c0.655,1.405 0.982,3.062 0.982,4.972c0,1.926 -0.327,3.593 -0.982,5.001c-0.655,1.409 -1.563,2.498 -2.723,3.267c-1.16,0.77 -2.497,1.154 -4.012,1.154c-1.168,0 -2.104,-0.195 -2.806,-0.586c-0.702,-0.39 -1.243,-0.836 -1.622,-1.337c-0.378,-0.501 -0.67,-0.917 -0.875,-1.249l-0.237,0l-0,9.612l-2.794,-0Zm2.746,-15.909c0,1.373 0.202,2.582 0.604,3.628c0.403,1.045 0.99,1.862 1.764,2.45c0.773,0.588 1.72,0.882 2.841,0.882c1.168,-0 2.144,-0.31 2.929,-0.929c0.786,-0.62 1.377,-1.456 1.776,-2.51c0.399,-1.053 0.598,-2.227 0.598,-3.521c-0,-1.279 -0.196,-2.433 -0.586,-3.463c-0.391,-1.029 -0.979,-1.846 -1.764,-2.45c-0.785,-0.604 -1.77,-0.905 -2.953,-0.905c-1.137,-0 -2.091,0.286 -2.865,0.858c-0.773,0.572 -1.357,1.369 -1.752,2.391c-0.394,1.022 -0.592,2.211 -0.592,3.569Z" style="fill:#212529;fill-rule:nonzero;"/><path d="M532.374,837.566l-2.509,0.71c-0.158,-0.418 -0.389,-0.827 -0.692,-1.225c-0.304,-0.399 -0.717,-0.728 -1.237,-0.989c-0.521,-0.26 -1.188,-0.39 -2.001,-0.39c-1.113,-0 -2.038,0.254 -2.776,0.763c-0.738,0.509 -1.106,1.154 -1.106,1.936c-0,0.694 0.252,1.243 0.757,1.645c0.505,0.403 1.294,0.738 2.368,1.006l2.698,0.663c1.626,0.395 2.837,0.996 3.634,1.805c0.797,0.809 1.196,1.849 1.196,3.119c-0,1.042 -0.298,1.973 -0.894,2.794c-0.596,0.821 -1.426,1.468 -2.491,1.941c-1.066,0.474 -2.305,0.71 -3.717,0.71c-1.855,0 -3.39,-0.402 -4.605,-1.207c-1.215,-0.805 -1.985,-1.981 -2.308,-3.527l2.651,-0.663c0.253,0.978 0.732,1.712 1.439,2.201c0.706,0.49 1.631,0.734 2.775,0.734c1.302,0 2.338,-0.278 3.108,-0.834c0.769,-0.557 1.154,-1.225 1.154,-2.007c-0,-0.631 -0.221,-1.162 -0.663,-1.592c-0.442,-0.43 -1.121,-0.751 -2.036,-0.964l-3.03,-0.711c-1.666,-0.394 -2.887,-1.008 -3.664,-1.84c-0.777,-0.833 -1.166,-1.877 -1.166,-3.131c-0,-1.026 0.29,-1.934 0.87,-2.723c0.58,-0.789 1.373,-1.408 2.379,-1.858c1.006,-0.45 2.149,-0.675 3.427,-0.675c1.799,0 3.214,0.395 4.244,1.184c1.03,0.789 1.761,1.831 2.195,3.125Z" style="fill:#212529;fill-rule:nonzero;"/><path d="M548.378,844.242l0,-10.748l2.794,-0l-0,18.182l-2.794,-0l0,-3.078l-0.189,-0c-0.426,0.923 -1.089,1.707 -1.989,2.35c-0.899,0.643 -2.036,0.964 -3.409,0.964c-1.136,0 -2.146,-0.25 -3.03,-0.751c-0.884,-0.501 -1.578,-1.259 -2.083,-2.273c-0.506,-1.014 -0.758,-2.294 -0.758,-3.841l-0,-11.553l2.794,-0l-0,11.363c-0,1.326 0.372,2.384 1.118,3.173c0.746,0.789 1.699,1.184 2.859,1.184c0.694,-0 1.402,-0.178 2.125,-0.533c0.722,-0.355 1.329,-0.9 1.822,-1.634c0.494,-0.734 0.74,-1.669 0.74,-2.805Z" style="fill:#212529;fill-rule:nonzero;"/><path d="M556.285,851.676l0,-18.182l2.699,-0l0,2.841l0.237,-0c0.379,-0.971 0.99,-1.727 1.835,-2.267c0.844,-0.541 1.858,-0.811 3.042,-0.811c1.199,0 2.2,0.27 3.001,0.811c0.801,0.54 1.426,1.296 1.876,2.267l0.189,-0c0.466,-0.939 1.164,-1.687 2.095,-2.243c0.932,-0.557 2.048,-0.835 3.35,-0.835c1.626,0 2.956,0.507 3.989,1.521c1.034,1.014 1.551,2.591 1.551,4.729l0,12.169l-2.793,-0l-0,-12.169c-0,-1.341 -0.367,-2.3 -1.101,-2.876c-0.734,-0.576 -1.598,-0.864 -2.593,-0.864c-1.278,-0 -2.268,0.384 -2.971,1.154c-0.702,0.769 -1.053,1.742 -1.053,2.918l-0,11.837l-2.841,-0l-0,-12.453c-0,-1.034 -0.336,-1.868 -1.006,-2.504c-0.671,-0.635 -1.535,-0.952 -2.593,-0.952c-0.726,-0 -1.402,0.193 -2.03,0.58c-0.627,0.386 -1.132,0.921 -1.515,1.603c-0.383,0.683 -0.574,1.47 -0.574,2.362l0,11.364l-2.794,-0Z" style="fill:#212529;fill-rule:nonzero;"/></g></svg>