<?xml version="1.0" encoding="UTF-8" standalone="no"?>
<!DOCTYPE svg PUBLIC "-//W3C//DTD SVG 1.1//EN" "http://www.w3.org/Graphics/SVG/1.1/DTD/svg11.dtd">
<svg width="100%" height="100%" viewBox="0 0 420 298" version="1.1" xmlns="http://www.w3.org/2000/svg" xmlns:xlink="http://www.w3.org/1999/xlink" xml:space="preserve" xmlns:serif="http://www.serif.com/" style="fill-rule:evenodd;clip-rule:evenodd;stroke-linecap:round;stroke-linejoin:round;stroke-miterlimit:1.5;">
    <g id="Artboard1" transform="matrix(1.17911,0,0,1.62776,-206.48,876.003)">
        <rect x="175.115" y="-538.165" width="355.799" height="182.851" style="fill:none;"/>
        <clipPath id="_clip1">
            <rect x="175.115" y="-538.165" width="355.799" height="182.851"/>
        </clipPath>
        <g clip-path="url(#_clip1)">
            <g transform="matrix(0.203543,0,0,0.147442,175.115,-538.165)">
                <rect x="-0" y="0" width="1748.03" height="1240.16" style="fill:rgb(173,167,255);"/>
            </g>
            <g transform="matrix(2.45261,0,0,1.61211,96.5448,-590.785)">
                <path d="M167.878,50.088C167.878,44.67 163.887,40.271 158.971,40.271L50.169,40.271C45.252,40.271 41.261,44.67 41.261,50.088L41.261,128.617C41.261,134.035 45.252,138.434 50.169,138.434L158.971,138.434C163.887,138.434 167.878,134.035 167.878,128.617L167.878,50.088Z" style="fill:white;stroke:rgb(33,37,41);stroke-width:1.09px;"/>
            </g>
            <g transform="matrix(0.848094,0,0,1.33893,185.509,-596.547)">
                <path d="M189.857,61.696C189.857,162.597 189.857,162.077 189.857,162.077" style="fill:none;stroke:rgb(33,37,41);stroke-width:0.88px;"/>
            </g>
            <g transform="matrix(5.19308e-17,-0.614342,2.62253,1.16323e-16,61.2709,-331.206)">
                <path d="M189.857,61.696C189.857,162.597 189.857,162.077 189.857,162.077" style="fill:none;stroke:rgb(33,37,41);stroke-width:0.65px;"/>
            </g>
            <g transform="matrix(0.848094,0,0,0.614342,187.265,-517.628)">
                <g transform="matrix(20,0,0,20,40.6866,52.724)">
                    <path d="M0.055,-0.011L0.055,-0.238L0.114,-0.238C0.13,-0.17 0.154,-0.122 0.187,-0.093C0.22,-0.064 0.255,-0.049 0.292,-0.049C0.32,-0.049 0.343,-0.058 0.359,-0.074C0.376,-0.091 0.384,-0.11 0.384,-0.133C0.384,-0.149 0.379,-0.165 0.369,-0.181C0.358,-0.197 0.333,-0.214 0.294,-0.234C0.219,-0.271 0.168,-0.299 0.142,-0.316C0.116,-0.334 0.095,-0.356 0.079,-0.383C0.063,-0.411 0.055,-0.442 0.055,-0.478C0.055,-0.535 0.075,-0.581 0.116,-0.618C0.157,-0.655 0.204,-0.674 0.258,-0.674C0.314,-0.674 0.362,-0.655 0.401,-0.617C0.408,-0.627 0.413,-0.642 0.417,-0.662L0.474,-0.662L0.474,-0.467L0.419,-0.467C0.409,-0.51 0.391,-0.546 0.363,-0.574C0.336,-0.602 0.305,-0.616 0.271,-0.616C0.245,-0.616 0.225,-0.609 0.21,-0.594C0.195,-0.58 0.187,-0.562 0.187,-0.541C0.187,-0.524 0.192,-0.509 0.202,-0.494C0.211,-0.48 0.225,-0.469 0.241,-0.459C0.258,-0.45 0.293,-0.433 0.347,-0.408C0.395,-0.385 0.431,-0.365 0.454,-0.347C0.477,-0.329 0.495,-0.306 0.509,-0.279C0.522,-0.252 0.529,-0.222 0.529,-0.191C0.529,-0.132 0.507,-0.084 0.464,-0.045C0.421,-0.006 0.369,0.014 0.309,0.014C0.275,0.014 0.241,0.007 0.209,-0.008C0.176,-0.022 0.15,-0.041 0.13,-0.065C0.123,-0.05 0.117,-0.032 0.114,-0.011L0.055,-0.011Z" style="fill:rgb(33,37,41);fill-rule:nonzero;"/>
                </g>
                <g transform="matrix(20,0,0,20,51.9366,52.724)">
                    <path d="M0.213,-0.205C0.213,-0.152 0.222,-0.112 0.24,-0.085C0.259,-0.058 0.286,-0.045 0.322,-0.045C0.36,-0.045 0.396,-0.064 0.428,-0.104L0.473,-0.076C0.455,-0.049 0.428,-0.027 0.393,-0.01C0.359,0.007 0.32,0.016 0.278,0.016C0.214,0.016 0.159,-0.003 0.113,-0.043C0.067,-0.082 0.044,-0.135 0.044,-0.202C0.044,-0.268 0.066,-0.321 0.111,-0.359C0.155,-0.397 0.208,-0.416 0.271,-0.416C0.334,-0.416 0.385,-0.399 0.426,-0.364C0.466,-0.329 0.486,-0.276 0.486,-0.205L0.213,-0.205ZM0.213,-0.254L0.336,-0.254C0.334,-0.326 0.313,-0.362 0.273,-0.362C0.253,-0.362 0.238,-0.353 0.228,-0.335C0.218,-0.317 0.213,-0.29 0.213,-0.254Z" style="fill:rgb(33,37,41);fill-rule:nonzero;"/>
                </g>
                <g transform="matrix(20,0,0,20,62.3565,52.724)">
                    <path d="M0.242,-0.315C0.261,-0.349 0.283,-0.374 0.307,-0.391C0.331,-0.408 0.357,-0.416 0.386,-0.416C0.414,-0.416 0.435,-0.407 0.449,-0.39C0.464,-0.372 0.471,-0.354 0.471,-0.333C0.471,-0.314 0.465,-0.297 0.454,-0.284C0.442,-0.27 0.426,-0.263 0.406,-0.263C0.395,-0.263 0.386,-0.265 0.378,-0.27C0.371,-0.274 0.362,-0.283 0.35,-0.296C0.338,-0.309 0.326,-0.315 0.312,-0.315C0.291,-0.315 0.275,-0.302 0.264,-0.277C0.254,-0.251 0.249,-0.212 0.249,-0.16L0.249,-0.117C0.249,-0.093 0.252,-0.076 0.26,-0.066C0.267,-0.057 0.285,-0.052 0.312,-0.052L0.321,-0.052L0.321,-0L0.025,-0L0.025,-0.052C0.053,-0.052 0.071,-0.056 0.079,-0.066C0.086,-0.075 0.09,-0.092 0.09,-0.117L0.09,-0.256C0.09,-0.281 0.086,-0.298 0.078,-0.307C0.071,-0.317 0.053,-0.321 0.024,-0.321L0.024,-0.373L0.227,-0.416C0.236,-0.39 0.241,-0.356 0.242,-0.315Z" style="fill:rgb(33,37,41);fill-rule:nonzero;"/>
                </g>
                <g transform="matrix(20,0,0,20,71.9366,52.724)">
                    <path d="M0.085,-0.585C0.085,-0.61 0.094,-0.63 0.111,-0.648C0.129,-0.665 0.149,-0.674 0.173,-0.674C0.198,-0.674 0.218,-0.665 0.235,-0.648C0.252,-0.631 0.261,-0.61 0.261,-0.585C0.261,-0.561 0.252,-0.54 0.235,-0.523C0.218,-0.506 0.197,-0.497 0.173,-0.497C0.148,-0.497 0.127,-0.506 0.111,-0.524C0.094,-0.541 0.085,-0.562 0.085,-0.585ZM0.25,-0.416L0.25,-0.117C0.25,-0.092 0.254,-0.075 0.262,-0.066C0.27,-0.056 0.288,-0.052 0.316,-0.052L0.316,-0L0.018,-0L0.018,-0.052L0.029,-0.052C0.056,-0.052 0.074,-0.057 0.081,-0.066C0.089,-0.076 0.092,-0.093 0.092,-0.117L0.092,-0.262C0.092,-0.286 0.089,-0.303 0.081,-0.313C0.074,-0.322 0.056,-0.327 0.029,-0.327L0.018,-0.327L0.018,-0.379L0.25,-0.416Z" style="fill:rgb(33,37,41);fill-rule:nonzero;"/>
                </g>
                <g transform="matrix(20,0,0,20,78.6065,52.724)">
                    <path d="M0.253,-0.347L0.253,-0.117C0.253,-0.093 0.257,-0.076 0.265,-0.066C0.272,-0.057 0.289,-0.052 0.316,-0.052L0.342,-0.052L0.342,-0L0.015,-0L0.015,-0.052L0.032,-0.052C0.06,-0.052 0.077,-0.057 0.084,-0.066C0.092,-0.076 0.095,-0.093 0.095,-0.117L0.095,-0.347L0.015,-0.347L0.015,-0.4L0.095,-0.4C0.095,-0.452 0.097,-0.491 0.101,-0.518C0.105,-0.545 0.116,-0.57 0.133,-0.594C0.151,-0.619 0.176,-0.638 0.208,-0.653C0.239,-0.667 0.278,-0.674 0.322,-0.674C0.374,-0.674 0.413,-0.666 0.439,-0.648C0.465,-0.63 0.479,-0.608 0.479,-0.581C0.479,-0.561 0.471,-0.545 0.457,-0.531C0.443,-0.516 0.426,-0.509 0.406,-0.509C0.368,-0.509 0.342,-0.534 0.33,-0.583C0.324,-0.607 0.312,-0.619 0.294,-0.619C0.28,-0.619 0.269,-0.611 0.263,-0.596C0.257,-0.581 0.253,-0.555 0.253,-0.519L0.253,-0.4L0.342,-0.4L0.342,-0.347L0.253,-0.347Z" style="fill:rgb(33,37,41);fill-rule:nonzero;"/>
                </g>
                <g transform="matrix(20,0,0,20,90.6866,52.724)">
                    <path d="M0.287,-0.316L0.287,-0.135C0.287,-0.105 0.292,-0.084 0.303,-0.072C0.313,-0.06 0.335,-0.054 0.368,-0.054L0.381,-0.054L0.381,-0L0.025,-0L0.025,-0.054L0.035,-0.054C0.068,-0.054 0.089,-0.06 0.099,-0.073C0.109,-0.085 0.114,-0.106 0.114,-0.135L0.114,-0.528C0.114,-0.558 0.109,-0.579 0.098,-0.591C0.088,-0.603 0.067,-0.609 0.035,-0.609L0.023,-0.609L0.023,-0.662L0.578,-0.662L0.583,-0.487L0.527,-0.487C0.519,-0.517 0.509,-0.541 0.496,-0.56C0.483,-0.578 0.47,-0.59 0.457,-0.596C0.443,-0.601 0.422,-0.604 0.394,-0.604L0.287,-0.604L0.287,-0.375L0.339,-0.375C0.364,-0.375 0.381,-0.381 0.391,-0.391C0.4,-0.402 0.406,-0.424 0.409,-0.457L0.463,-0.457L0.463,-0.229L0.409,-0.229C0.407,-0.264 0.401,-0.288 0.392,-0.299C0.382,-0.31 0.364,-0.316 0.338,-0.316L0.287,-0.316Z" style="fill:rgb(33,37,41);fill-rule:nonzero;"/>
                </g>
                <g transform="matrix(20,0,0,20,102.357,52.724)">
                    <path d="M0.037,-0.201C0.037,-0.268 0.061,-0.321 0.108,-0.359C0.156,-0.397 0.213,-0.416 0.281,-0.416C0.347,-0.416 0.404,-0.398 0.453,-0.361C0.501,-0.324 0.526,-0.27 0.526,-0.201C0.526,-0.135 0.502,-0.082 0.454,-0.043C0.406,-0.003 0.348,0.016 0.28,0.016C0.214,0.016 0.157,-0.003 0.109,-0.04C0.061,-0.077 0.037,-0.131 0.037,-0.201ZM0.205,-0.206C0.205,-0.144 0.21,-0.1 0.222,-0.075C0.233,-0.05 0.254,-0.038 0.282,-0.038C0.305,-0.038 0.324,-0.048 0.338,-0.069C0.351,-0.09 0.358,-0.134 0.358,-0.202C0.358,-0.264 0.352,-0.306 0.34,-0.328C0.327,-0.35 0.308,-0.361 0.281,-0.361C0.26,-0.361 0.242,-0.351 0.227,-0.333C0.212,-0.314 0.205,-0.272 0.205,-0.206Z" style="fill:rgb(33,37,41);fill-rule:nonzero;"/>
                </g>
                <g transform="matrix(20,0,0,20,113.607,52.724)">
                    <path d="M0.247,-0.274L0.247,-0.116C0.247,-0.093 0.25,-0.077 0.257,-0.067C0.264,-0.057 0.276,-0.052 0.294,-0.052L0.294,-0L0.021,-0L0.021,-0.052C0.049,-0.052 0.067,-0.056 0.075,-0.065C0.083,-0.074 0.086,-0.091 0.086,-0.116L0.086,-0.252C0.086,-0.277 0.083,-0.294 0.075,-0.303C0.067,-0.313 0.049,-0.317 0.021,-0.317L0.021,-0.369L0.237,-0.405C0.243,-0.392 0.246,-0.373 0.247,-0.346C0.269,-0.37 0.291,-0.387 0.315,-0.399C0.338,-0.41 0.363,-0.416 0.388,-0.416C0.434,-0.416 0.47,-0.403 0.496,-0.378C0.522,-0.353 0.535,-0.318 0.535,-0.274L0.535,-0.116C0.535,-0.091 0.539,-0.075 0.547,-0.065C0.555,-0.056 0.572,-0.052 0.599,-0.052L0.599,-0L0.327,-0L0.327,-0.052C0.34,-0.052 0.352,-0.056 0.361,-0.063C0.37,-0.071 0.375,-0.088 0.375,-0.116L0.375,-0.262C0.375,-0.289 0.371,-0.307 0.364,-0.317C0.357,-0.327 0.346,-0.332 0.333,-0.332C0.319,-0.332 0.305,-0.327 0.291,-0.317C0.276,-0.308 0.262,-0.294 0.247,-0.274Z" style="fill:rgb(33,37,41);fill-rule:nonzero;"/>
                </g>
                <g transform="matrix(20,0,0,20,125.687,52.724)">
                    <path d="M0.236,-0.347L0.236,-0.139C0.236,-0.104 0.238,-0.081 0.243,-0.07C0.247,-0.058 0.257,-0.053 0.271,-0.053C0.292,-0.053 0.31,-0.066 0.323,-0.093L0.371,-0.077C0.346,-0.015 0.293,0.016 0.212,0.016C0.167,0.016 0.134,0.005 0.111,-0.016C0.089,-0.038 0.078,-0.07 0.078,-0.114L0.078,-0.347L0.02,-0.347L0.02,-0.4L0.032,-0.399C0.071,-0.399 0.105,-0.412 0.133,-0.437C0.161,-0.462 0.178,-0.494 0.184,-0.533L0.236,-0.533L0.236,-0.4L0.356,-0.4L0.356,-0.347L0.236,-0.347Z" style="fill:rgb(33,37,41);fill-rule:nonzero;"/>
                </g>
                <g transform="matrix(20,0,0,20,132.982,52.724)">
                    <path d="M0.049,0.016L0.046,-0.117L0.094,-0.117C0.119,-0.062 0.166,-0.034 0.233,-0.034C0.262,-0.034 0.285,-0.039 0.304,-0.049C0.322,-0.059 0.332,-0.07 0.332,-0.082C0.332,-0.093 0.326,-0.101 0.316,-0.107C0.306,-0.112 0.283,-0.119 0.247,-0.126C0.191,-0.138 0.149,-0.149 0.123,-0.159C0.096,-0.169 0.074,-0.185 0.058,-0.206C0.042,-0.228 0.034,-0.252 0.034,-0.279C0.034,-0.32 0.05,-0.353 0.083,-0.378C0.117,-0.403 0.161,-0.416 0.217,-0.416C0.26,-0.416 0.304,-0.408 0.348,-0.391C0.356,-0.398 0.362,-0.407 0.367,-0.416L0.407,-0.416L0.412,-0.295L0.373,-0.295C0.347,-0.345 0.298,-0.37 0.223,-0.37C0.198,-0.37 0.178,-0.366 0.163,-0.358C0.147,-0.35 0.139,-0.34 0.139,-0.327C0.139,-0.314 0.146,-0.305 0.158,-0.298C0.171,-0.292 0.201,-0.284 0.249,-0.275C0.299,-0.265 0.337,-0.255 0.362,-0.244C0.387,-0.234 0.407,-0.219 0.422,-0.198C0.436,-0.178 0.443,-0.155 0.443,-0.129C0.443,-0.086 0.424,-0.051 0.387,-0.024C0.349,0.003 0.302,0.016 0.247,0.016C0.204,0.016 0.159,0.007 0.113,-0.011C0.104,-0.005 0.097,0.004 0.093,0.016L0.049,0.016Z" style="fill:rgb(33,37,41);fill-rule:nonzero;"/>
                </g>
                <g transform="matrix(20,0,0,20,147.562,52.724)">
                    <path d="M0.316,-0.042C0.293,-0.025 0.268,-0.012 0.242,-0.004C0.216,0.005 0.189,0.009 0.161,0.009C0.123,0.009 0.095,0.001 0.076,-0.016C0.058,-0.033 0.048,-0.054 0.048,-0.079C0.048,-0.115 0.067,-0.146 0.104,-0.173C0.142,-0.201 0.21,-0.231 0.308,-0.264L0.308,-0.3C0.308,-0.326 0.301,-0.343 0.289,-0.35C0.277,-0.357 0.262,-0.361 0.245,-0.361C0.204,-0.361 0.181,-0.346 0.177,-0.316C0.174,-0.295 0.167,-0.281 0.157,-0.271C0.147,-0.262 0.132,-0.257 0.112,-0.257C0.093,-0.257 0.079,-0.262 0.068,-0.272C0.057,-0.282 0.051,-0.294 0.051,-0.307C0.051,-0.337 0.071,-0.363 0.111,-0.384C0.151,-0.405 0.205,-0.416 0.272,-0.416C0.309,-0.416 0.341,-0.414 0.366,-0.409C0.391,-0.405 0.412,-0.396 0.427,-0.384C0.442,-0.371 0.453,-0.358 0.458,-0.345C0.463,-0.331 0.465,-0.313 0.465,-0.289L0.465,-0.104C0.465,-0.076 0.474,-0.062 0.491,-0.062C0.505,-0.062 0.515,-0.071 0.519,-0.089L0.559,-0.089C0.558,-0.055 0.546,-0.031 0.522,-0.015C0.499,0.001 0.47,0.009 0.438,0.009C0.378,0.009 0.337,-0.008 0.316,-0.042ZM0.308,-0.095L0.308,-0.209C0.262,-0.191 0.233,-0.174 0.219,-0.158C0.205,-0.143 0.198,-0.127 0.198,-0.111C0.198,-0.098 0.202,-0.087 0.21,-0.077C0.219,-0.067 0.229,-0.063 0.243,-0.063C0.254,-0.063 0.266,-0.065 0.276,-0.071C0.287,-0.076 0.298,-0.084 0.308,-0.095Z" style="fill:rgb(33,37,41);fill-rule:nonzero;"/>
                </g>
                <g transform="matrix(20,0,0,20,158.812,52.724)">
                    <path d="M0.242,-0.315C0.261,-0.349 0.283,-0.374 0.307,-0.391C0.331,-0.408 0.357,-0.416 0.386,-0.416C0.414,-0.416 0.435,-0.407 0.449,-0.39C0.464,-0.372 0.471,-0.354 0.471,-0.333C0.471,-0.314 0.465,-0.297 0.454,-0.284C0.442,-0.27 0.426,-0.263 0.406,-0.263C0.395,-0.263 0.386,-0.265 0.378,-0.27C0.371,-0.274 0.362,-0.283 0.35,-0.296C0.338,-0.309 0.326,-0.315 0.312,-0.315C0.291,-0.315 0.275,-0.302 0.264,-0.277C0.254,-0.251 0.249,-0.212 0.249,-0.16L0.249,-0.117C0.249,-0.093 0.252,-0.076 0.26,-0.066C0.267,-0.057 0.285,-0.052 0.312,-0.052L0.321,-0.052L0.321,-0L0.025,-0L0.025,-0.052C0.053,-0.052 0.071,-0.056 0.079,-0.066C0.086,-0.075 0.09,-0.092 0.09,-0.117L0.09,-0.256C0.09,-0.281 0.086,-0.298 0.078,-0.307C0.071,-0.317 0.053,-0.321 0.024,-0.321L0.024,-0.373L0.227,-0.416C0.236,-0.39 0.241,-0.356 0.242,-0.315Z" style="fill:rgb(33,37,41);fill-rule:nonzero;"/>
                </g>
                <g transform="matrix(20,0,0,20,168.392,52.724)">
                    <path d="M0.213,-0.205C0.213,-0.152 0.222,-0.112 0.24,-0.085C0.259,-0.058 0.286,-0.045 0.322,-0.045C0.36,-0.045 0.396,-0.064 0.428,-0.104L0.473,-0.076C0.455,-0.049 0.428,-0.027 0.393,-0.01C0.359,0.007 0.32,0.016 0.278,0.016C0.214,0.016 0.159,-0.003 0.113,-0.043C0.067,-0.082 0.044,-0.135 0.044,-0.202C0.044,-0.268 0.066,-0.321 0.111,-0.359C0.155,-0.397 0.208,-0.416 0.271,-0.416C0.334,-0.416 0.385,-0.399 0.426,-0.364C0.466,-0.329 0.486,-0.276 0.486,-0.205L0.213,-0.205ZM0.213,-0.254L0.336,-0.254C0.334,-0.326 0.313,-0.362 0.273,-0.362C0.253,-0.362 0.238,-0.353 0.228,-0.335C0.218,-0.317 0.213,-0.29 0.213,-0.254Z" style="fill:rgb(33,37,41);fill-rule:nonzero;"/>
                </g>
                <g transform="matrix(20,0,0,20,50.9014,82.724)">
                    <path d="M0.284,-0.293L0.284,-0.135C0.284,-0.105 0.289,-0.084 0.299,-0.072C0.309,-0.06 0.331,-0.054 0.363,-0.054L0.378,-0.054L0.378,-0L0.02,-0L0.02,-0.054L0.031,-0.054C0.064,-0.054 0.086,-0.06 0.095,-0.073C0.105,-0.085 0.11,-0.106 0.11,-0.135L0.11,-0.527C0.11,-0.557 0.105,-0.578 0.095,-0.59C0.085,-0.602 0.063,-0.608 0.031,-0.608L0.015,-0.608L0.015,-0.662L0.284,-0.668C0.351,-0.668 0.403,-0.666 0.439,-0.663C0.476,-0.659 0.509,-0.649 0.54,-0.633C0.571,-0.617 0.594,-0.595 0.609,-0.568C0.625,-0.541 0.632,-0.512 0.632,-0.48C0.632,-0.437 0.619,-0.4 0.592,-0.369C0.565,-0.338 0.532,-0.318 0.491,-0.308C0.451,-0.298 0.398,-0.293 0.333,-0.293L0.284,-0.293ZM0.284,-0.352L0.316,-0.352C0.368,-0.352 0.402,-0.363 0.419,-0.385C0.437,-0.408 0.445,-0.438 0.445,-0.476C0.445,-0.51 0.439,-0.537 0.426,-0.558C0.414,-0.579 0.397,-0.593 0.378,-0.599C0.358,-0.606 0.327,-0.609 0.284,-0.609L0.284,-0.352Z" style="fill:rgb(33,37,41);fill-rule:nonzero;"/>
                </g>
                <g transform="matrix(20,0,0,20,63.6065,82.724)">
                    <path d="M0.242,-0.315C0.261,-0.349 0.283,-0.374 0.307,-0.391C0.331,-0.408 0.357,-0.416 0.386,-0.416C0.414,-0.416 0.435,-0.407 0.449,-0.39C0.464,-0.372 0.471,-0.354 0.471,-0.333C0.471,-0.314 0.465,-0.297 0.454,-0.284C0.442,-0.27 0.426,-0.263 0.406,-0.263C0.395,-0.263 0.386,-0.265 0.378,-0.27C0.371,-0.274 0.362,-0.283 0.35,-0.296C0.338,-0.309 0.326,-0.315 0.312,-0.315C0.291,-0.315 0.275,-0.302 0.264,-0.277C0.254,-0.251 0.249,-0.212 0.249,-0.16L0.249,-0.117C0.249,-0.093 0.252,-0.076 0.26,-0.066C0.267,-0.057 0.285,-0.052 0.312,-0.052L0.321,-0.052L0.321,-0L0.025,-0L0.025,-0.052C0.053,-0.052 0.071,-0.056 0.079,-0.066C0.086,-0.075 0.09,-0.092 0.09,-0.117L0.09,-0.256C0.09,-0.281 0.086,-0.298 0.078,-0.307C0.071,-0.317 0.053,-0.321 0.024,-0.321L0.024,-0.373L0.227,-0.416C0.236,-0.39 0.241,-0.356 0.242,-0.315Z" style="fill:rgb(33,37,41);fill-rule:nonzero;"/>
                </g>
                <g transform="matrix(20,0,0,20,73.1866,82.724)">
                    <path d="M0.037,-0.201C0.037,-0.268 0.061,-0.321 0.108,-0.359C0.156,-0.397 0.213,-0.416 0.281,-0.416C0.347,-0.416 0.404,-0.398 0.453,-0.361C0.501,-0.324 0.526,-0.27 0.526,-0.201C0.526,-0.135 0.502,-0.082 0.454,-0.043C0.406,-0.003 0.348,0.016 0.28,0.016C0.214,0.016 0.157,-0.003 0.109,-0.04C0.061,-0.077 0.037,-0.131 0.037,-0.201ZM0.205,-0.206C0.205,-0.144 0.21,-0.1 0.222,-0.075C0.233,-0.05 0.254,-0.038 0.282,-0.038C0.305,-0.038 0.324,-0.048 0.338,-0.069C0.351,-0.09 0.358,-0.134 0.358,-0.202C0.358,-0.264 0.352,-0.306 0.34,-0.328C0.327,-0.35 0.308,-0.361 0.281,-0.361C0.26,-0.361 0.242,-0.351 0.227,-0.333C0.212,-0.314 0.205,-0.272 0.205,-0.206Z" style="fill:rgb(33,37,41);fill-rule:nonzero;"/>
                </g>
                <g transform="matrix(20,0,0,20,84.4366,82.724)">
                    <path d="M0.253,-0.347L0.253,-0.117C0.253,-0.093 0.257,-0.076 0.265,-0.066C0.272,-0.057 0.289,-0.052 0.316,-0.052L0.342,-0.052L0.342,-0L0.015,-0L0.015,-0.052L0.032,-0.052C0.06,-0.052 0.077,-0.057 0.084,-0.066C0.092,-0.076 0.095,-0.093 0.095,-0.117L0.095,-0.347L0.015,-0.347L0.015,-0.4L0.095,-0.4C0.095,-0.452 0.097,-0.491 0.101,-0.518C0.105,-0.545 0.116,-0.57 0.133,-0.594C0.151,-0.619 0.176,-0.638 0.208,-0.653C0.239,-0.667 0.278,-0.674 0.322,-0.674C0.374,-0.674 0.413,-0.666 0.439,-0.648C0.465,-0.63 0.479,-0.608 0.479,-0.581C0.479,-0.561 0.471,-0.545 0.457,-0.531C0.443,-0.516 0.426,-0.509 0.406,-0.509C0.368,-0.509 0.342,-0.534 0.33,-0.583C0.324,-0.607 0.312,-0.619 0.294,-0.619C0.28,-0.619 0.269,-0.611 0.263,-0.596C0.257,-0.581 0.253,-0.555 0.253,-0.519L0.253,-0.4L0.342,-0.4L0.342,-0.347L0.253,-0.347Z" style="fill:rgb(33,37,41);fill-rule:nonzero;"/>
                </g>
                <g transform="matrix(20,0,0,20,91.5167,82.724)">
                    <path d="M0.213,-0.205C0.213,-0.152 0.222,-0.112 0.24,-0.085C0.259,-0.058 0.286,-0.045 0.322,-0.045C0.36,-0.045 0.396,-0.064 0.428,-0.104L0.473,-0.076C0.455,-0.049 0.428,-0.027 0.393,-0.01C0.359,0.007 0.32,0.016 0.278,0.016C0.214,0.016 0.159,-0.003 0.113,-0.043C0.067,-0.082 0.044,-0.135 0.044,-0.202C0.044,-0.268 0.066,-0.321 0.111,-0.359C0.155,-0.397 0.208,-0.416 0.271,-0.416C0.334,-0.416 0.385,-0.399 0.426,-0.364C0.466,-0.329 0.486,-0.276 0.486,-0.205L0.213,-0.205ZM0.213,-0.254L0.336,-0.254C0.334,-0.326 0.313,-0.362 0.273,-0.362C0.253,-0.362 0.238,-0.353 0.228,-0.335C0.218,-0.317 0.213,-0.29 0.213,-0.254Z" style="fill:rgb(33,37,41);fill-rule:nonzero;"/>
                </g>
                <g transform="matrix(20,0,0,20,101.937,82.724)">
                    <path d="M0.049,0.016L0.046,-0.117L0.094,-0.117C0.119,-0.062 0.166,-0.034 0.233,-0.034C0.262,-0.034 0.285,-0.039 0.304,-0.049C0.322,-0.059 0.332,-0.07 0.332,-0.082C0.332,-0.093 0.326,-0.101 0.316,-0.107C0.306,-0.112 0.283,-0.119 0.247,-0.126C0.191,-0.138 0.149,-0.149 0.123,-0.159C0.096,-0.169 0.074,-0.185 0.058,-0.206C0.042,-0.228 0.034,-0.252 0.034,-0.279C0.034,-0.32 0.05,-0.353 0.083,-0.378C0.117,-0.403 0.161,-0.416 0.217,-0.416C0.26,-0.416 0.304,-0.408 0.348,-0.391C0.356,-0.398 0.362,-0.407 0.367,-0.416L0.407,-0.416L0.412,-0.295L0.373,-0.295C0.347,-0.345 0.298,-0.37 0.223,-0.37C0.198,-0.37 0.178,-0.366 0.163,-0.358C0.147,-0.35 0.139,-0.34 0.139,-0.327C0.139,-0.314 0.146,-0.305 0.158,-0.298C0.171,-0.292 0.201,-0.284 0.249,-0.275C0.299,-0.265 0.337,-0.255 0.362,-0.244C0.387,-0.234 0.407,-0.219 0.422,-0.198C0.436,-0.178 0.443,-0.155 0.443,-0.129C0.443,-0.086 0.424,-0.051 0.387,-0.024C0.349,0.003 0.302,0.016 0.247,0.016C0.204,0.016 0.159,0.007 0.113,-0.011C0.104,-0.005 0.097,0.004 0.093,0.016L0.049,0.016Z" style="fill:rgb(33,37,41);fill-rule:nonzero;"/>
                </g>
                <g transform="matrix(20,0,0,20,111.517,82.724)">
                    <path d="M0.049,0.016L0.046,-0.117L0.094,-0.117C0.119,-0.062 0.166,-0.034 0.233,-0.034C0.262,-0.034 0.285,-0.039 0.304,-0.049C0.322,-0.059 0.332,-0.07 0.332,-0.082C0.332,-0.093 0.326,-0.101 0.316,-0.107C0.306,-0.112 0.283,-0.119 0.247,-0.126C0.191,-0.138 0.149,-0.149 0.123,-0.159C0.096,-0.169 0.074,-0.185 0.058,-0.206C0.042,-0.228 0.034,-0.252 0.034,-0.279C0.034,-0.32 0.05,-0.353 0.083,-0.378C0.117,-0.403 0.161,-0.416 0.217,-0.416C0.26,-0.416 0.304,-0.408 0.348,-0.391C0.356,-0.398 0.362,-0.407 0.367,-0.416L0.407,-0.416L0.412,-0.295L0.373,-0.295C0.347,-0.345 0.298,-0.37 0.223,-0.37C0.198,-0.37 0.178,-0.366 0.163,-0.358C0.147,-0.35 0.139,-0.34 0.139,-0.327C0.139,-0.314 0.146,-0.305 0.158,-0.298C0.171,-0.292 0.201,-0.284 0.249,-0.275C0.299,-0.265 0.337,-0.255 0.362,-0.244C0.387,-0.234 0.407,-0.219 0.422,-0.198C0.436,-0.178 0.443,-0.155 0.443,-0.129C0.443,-0.086 0.424,-0.051 0.387,-0.024C0.349,0.003 0.302,0.016 0.247,0.016C0.204,0.016 0.159,0.007 0.113,-0.011C0.104,-0.005 0.097,0.004 0.093,0.016L0.049,0.016Z" style="fill:rgb(33,37,41);fill-rule:nonzero;"/>
                </g>
                <g transform="matrix(20,0,0,20,121.097,82.724)">
                    <path d="M0.085,-0.585C0.085,-0.61 0.094,-0.63 0.111,-0.648C0.129,-0.665 0.149,-0.674 0.173,-0.674C0.198,-0.674 0.218,-0.665 0.235,-0.648C0.252,-0.631 0.261,-0.61 0.261,-0.585C0.261,-0.561 0.252,-0.54 0.235,-0.523C0.218,-0.506 0.197,-0.497 0.173,-0.497C0.148,-0.497 0.127,-0.506 0.111,-0.524C0.094,-0.541 0.085,-0.562 0.085,-0.585ZM0.25,-0.416L0.25,-0.117C0.25,-0.092 0.254,-0.075 0.262,-0.066C0.27,-0.056 0.288,-0.052 0.316,-0.052L0.316,-0L0.018,-0L0.018,-0.052L0.029,-0.052C0.056,-0.052 0.074,-0.057 0.081,-0.066C0.089,-0.076 0.092,-0.093 0.092,-0.117L0.092,-0.262C0.092,-0.286 0.089,-0.303 0.081,-0.313C0.074,-0.322 0.056,-0.327 0.029,-0.327L0.018,-0.327L0.018,-0.379L0.25,-0.416Z" style="fill:rgb(33,37,41);fill-rule:nonzero;"/>
                </g>
                <g transform="matrix(20,0,0,20,127.767,82.724)">
                    <path d="M0.037,-0.201C0.037,-0.268 0.061,-0.321 0.108,-0.359C0.156,-0.397 0.213,-0.416 0.281,-0.416C0.347,-0.416 0.404,-0.398 0.453,-0.361C0.501,-0.324 0.526,-0.27 0.526,-0.201C0.526,-0.135 0.502,-0.082 0.454,-0.043C0.406,-0.003 0.348,0.016 0.28,0.016C0.214,0.016 0.157,-0.003 0.109,-0.04C0.061,-0.077 0.037,-0.131 0.037,-0.201ZM0.205,-0.206C0.205,-0.144 0.21,-0.1 0.222,-0.075C0.233,-0.05 0.254,-0.038 0.282,-0.038C0.305,-0.038 0.324,-0.048 0.338,-0.069C0.351,-0.09 0.358,-0.134 0.358,-0.202C0.358,-0.264 0.352,-0.306 0.34,-0.328C0.327,-0.35 0.308,-0.361 0.281,-0.361C0.26,-0.361 0.242,-0.351 0.227,-0.333C0.212,-0.314 0.205,-0.272 0.205,-0.206Z" style="fill:rgb(33,37,41);fill-rule:nonzero;"/>
                </g>
                <g transform="matrix(20,0,0,20,139.017,82.724)">
                    <path d="M0.247,-0.274L0.247,-0.116C0.247,-0.093 0.25,-0.077 0.257,-0.067C0.264,-0.057 0.276,-0.052 0.294,-0.052L0.294,-0L0.021,-0L0.021,-0.052C0.049,-0.052 0.067,-0.056 0.075,-0.065C0.083,-0.074 0.086,-0.091 0.086,-0.116L0.086,-0.252C0.086,-0.277 0.083,-0.294 0.075,-0.303C0.067,-0.313 0.049,-0.317 0.021,-0.317L0.021,-0.369L0.237,-0.405C0.243,-0.392 0.246,-0.373 0.247,-0.346C0.269,-0.37 0.291,-0.387 0.315,-0.399C0.338,-0.41 0.363,-0.416 0.388,-0.416C0.434,-0.416 0.47,-0.403 0.496,-0.378C0.522,-0.353 0.535,-0.318 0.535,-0.274L0.535,-0.116C0.535,-0.091 0.539,-0.075 0.547,-0.065C0.555,-0.056 0.572,-0.052 0.599,-0.052L0.599,-0L0.327,-0L0.327,-0.052C0.34,-0.052 0.352,-0.056 0.361,-0.063C0.37,-0.071 0.375,-0.088 0.375,-0.116L0.375,-0.262C0.375,-0.289 0.371,-0.307 0.364,-0.317C0.357,-0.327 0.346,-0.332 0.333,-0.332C0.319,-0.332 0.305,-0.327 0.291,-0.317C0.276,-0.308 0.262,-0.294 0.247,-0.274Z" style="fill:rgb(33,37,41);fill-rule:nonzero;"/>
                </g>
                <g transform="matrix(20,0,0,20,151.097,82.724)">
                    <path d="M0.316,-0.042C0.293,-0.025 0.268,-0.012 0.242,-0.004C0.216,0.005 0.189,0.009 0.161,0.009C0.123,0.009 0.095,0.001 0.076,-0.016C0.058,-0.033 0.048,-0.054 0.048,-0.079C0.048,-0.115 0.067,-0.146 0.104,-0.173C0.142,-0.201 0.21,-0.231 0.308,-0.264L0.308,-0.3C0.308,-0.326 0.301,-0.343 0.289,-0.35C0.277,-0.357 0.262,-0.361 0.245,-0.361C0.204,-0.361 0.181,-0.346 0.177,-0.316C0.174,-0.295 0.167,-0.281 0.157,-0.271C0.147,-0.262 0.132,-0.257 0.112,-0.257C0.093,-0.257 0.079,-0.262 0.068,-0.272C0.057,-0.282 0.051,-0.294 0.051,-0.307C0.051,-0.337 0.071,-0.363 0.111,-0.384C0.151,-0.405 0.205,-0.416 0.272,-0.416C0.309,-0.416 0.341,-0.414 0.366,-0.409C0.391,-0.405 0.412,-0.396 0.427,-0.384C0.442,-0.371 0.453,-0.358 0.458,-0.345C0.463,-0.331 0.465,-0.313 0.465,-0.289L0.465,-0.104C0.465,-0.076 0.474,-0.062 0.491,-0.062C0.505,-0.062 0.515,-0.071 0.519,-0.089L0.559,-0.089C0.558,-0.055 0.546,-0.031 0.522,-0.015C0.499,0.001 0.47,0.009 0.438,0.009C0.378,0.009 0.337,-0.008 0.316,-0.042ZM0.308,-0.095L0.308,-0.209C0.262,-0.191 0.233,-0.174 0.219,-0.158C0.205,-0.143 0.198,-0.127 0.198,-0.111C0.198,-0.098 0.202,-0.087 0.21,-0.077C0.219,-0.067 0.229,-0.063 0.243,-0.063C0.254,-0.063 0.266,-0.065 0.276,-0.071C0.287,-0.076 0.298,-0.084 0.308,-0.095Z" style="fill:rgb(33,37,41);fill-rule:nonzero;"/>
                </g>
                <g transform="matrix(20,0,0,20,162.347,82.724)">
                    <path d="M0.239,-0.674L0.239,-0.117C0.239,-0.092 0.243,-0.075 0.251,-0.065C0.259,-0.056 0.278,-0.052 0.307,-0.052L0.307,-0L0.01,-0L0.01,-0.052C0.036,-0.052 0.054,-0.055 0.065,-0.061C0.076,-0.067 0.081,-0.086 0.081,-0.117L0.081,-0.521C0.081,-0.547 0.077,-0.564 0.069,-0.573C0.06,-0.582 0.041,-0.586 0.01,-0.586L0.01,-0.638L0.239,-0.674Z" style="fill:rgb(33,37,41);fill-rule:nonzero;"/>
                </g>
            </g>
            <g transform="matrix(0.848094,0,0,0.614342,332.116,-450.579)">
                <g transform="matrix(20,0,0,20,31.2832,52.724)">
                    <path d="M0.458,-0.518C0.455,-0.547 0.443,-0.569 0.421,-0.585C0.399,-0.601 0.37,-0.609 0.334,-0.609C0.308,-0.609 0.287,-0.605 0.27,-0.598C0.252,-0.591 0.239,-0.581 0.23,-0.569C0.221,-0.557 0.217,-0.543 0.216,-0.527C0.216,-0.514 0.219,-0.503 0.225,-0.493C0.231,-0.483 0.239,-0.475 0.25,-0.468C0.261,-0.461 0.273,-0.455 0.287,-0.45C0.301,-0.445 0.316,-0.441 0.332,-0.437L0.397,-0.422C0.429,-0.414 0.458,-0.405 0.484,-0.393C0.511,-0.381 0.534,-0.367 0.553,-0.349C0.573,-0.332 0.588,-0.312 0.599,-0.288C0.609,-0.265 0.615,-0.238 0.615,-0.208C0.615,-0.163 0.604,-0.125 0.581,-0.092C0.559,-0.06 0.527,-0.034 0.485,-0.017C0.443,0.001 0.392,0.01 0.333,0.01C0.274,0.01 0.223,0.001 0.179,-0.017C0.136,-0.035 0.102,-0.061 0.078,-0.097C0.054,-0.132 0.041,-0.176 0.04,-0.228L0.189,-0.228C0.19,-0.204 0.197,-0.184 0.21,-0.168C0.222,-0.151 0.239,-0.139 0.26,-0.131C0.281,-0.123 0.304,-0.119 0.331,-0.119C0.357,-0.119 0.38,-0.123 0.399,-0.13C0.418,-0.138 0.433,-0.148 0.444,-0.162C0.454,-0.175 0.46,-0.191 0.46,-0.208C0.46,-0.225 0.455,-0.238 0.445,-0.249C0.436,-0.261 0.422,-0.27 0.403,-0.278C0.385,-0.286 0.363,-0.293 0.336,-0.299L0.257,-0.319C0.196,-0.334 0.147,-0.357 0.112,-0.389C0.076,-0.421 0.059,-0.463 0.059,-0.517C0.059,-0.561 0.071,-0.6 0.094,-0.632C0.118,-0.665 0.151,-0.691 0.193,-0.71C0.234,-0.728 0.282,-0.737 0.335,-0.737C0.389,-0.737 0.436,-0.728 0.476,-0.71C0.516,-0.691 0.548,-0.665 0.57,-0.632C0.593,-0.599 0.604,-0.561 0.605,-0.518L0.458,-0.518Z" style="fill:rgb(33,37,41);fill-rule:nonzero;"/>
                </g>
                <g transform="matrix(20,0,0,20,44.0389,52.724)">
                    <path d="M0.216,0.01C0.181,0.01 0.15,0.004 0.123,-0.008C0.096,-0.02 0.074,-0.038 0.059,-0.062C0.043,-0.086 0.035,-0.116 0.035,-0.152C0.035,-0.183 0.04,-0.208 0.051,-0.229C0.063,-0.249 0.078,-0.266 0.097,-0.278C0.116,-0.291 0.138,-0.3 0.162,-0.307C0.187,-0.313 0.213,-0.318 0.24,-0.32C0.271,-0.324 0.297,-0.327 0.316,-0.33C0.336,-0.333 0.35,-0.337 0.359,-0.343C0.367,-0.349 0.372,-0.358 0.372,-0.369L0.372,-0.371C0.372,-0.394 0.365,-0.411 0.351,-0.424C0.336,-0.436 0.317,-0.442 0.291,-0.442C0.264,-0.442 0.242,-0.436 0.226,-0.424C0.21,-0.412 0.199,-0.397 0.194,-0.379L0.054,-0.391C0.061,-0.424 0.075,-0.452 0.096,-0.477C0.117,-0.501 0.144,-0.52 0.177,-0.533C0.21,-0.546 0.248,-0.553 0.291,-0.553C0.322,-0.553 0.351,-0.549 0.379,-0.542C0.407,-0.535 0.431,-0.524 0.453,-0.509C0.474,-0.494 0.492,-0.475 0.504,-0.452C0.517,-0.428 0.523,-0.4 0.523,-0.368L0.523,-0L0.38,-0L0.38,-0.076L0.375,-0.076C0.366,-0.059 0.355,-0.044 0.34,-0.031C0.326,-0.018 0.308,-0.008 0.287,-0.001C0.267,0.007 0.243,0.01 0.216,0.01ZM0.259,-0.094C0.282,-0.094 0.301,-0.098 0.318,-0.107C0.335,-0.116 0.349,-0.128 0.358,-0.144C0.368,-0.159 0.373,-0.176 0.373,-0.195L0.373,-0.253C0.368,-0.25 0.362,-0.247 0.354,-0.245C0.345,-0.242 0.336,-0.24 0.326,-0.238C0.316,-0.236 0.306,-0.234 0.296,-0.233C0.285,-0.231 0.276,-0.23 0.268,-0.228C0.25,-0.226 0.235,-0.222 0.221,-0.216C0.208,-0.21 0.198,-0.203 0.19,-0.193C0.183,-0.183 0.179,-0.172 0.179,-0.157C0.179,-0.137 0.187,-0.121 0.202,-0.11C0.217,-0.099 0.236,-0.094 0.259,-0.094Z" style="fill:rgb(33,37,41);fill-rule:nonzero;"/>
                </g>
                <g transform="matrix(20,0,0,20,55.3173,52.724)">
                    <path d="M0.212,-0.315L0.212,-0L0.061,-0L0.061,-0.545L0.205,-0.545L0.205,-0.449L0.211,-0.449C0.223,-0.481 0.243,-0.506 0.272,-0.525C0.3,-0.543 0.335,-0.553 0.375,-0.553C0.413,-0.553 0.446,-0.544 0.474,-0.528C0.502,-0.511 0.524,-0.487 0.54,-0.457C0.555,-0.426 0.563,-0.39 0.563,-0.347L0.563,-0L0.412,-0L0.412,-0.32C0.412,-0.354 0.404,-0.38 0.386,-0.399C0.369,-0.418 0.345,-0.427 0.315,-0.427C0.295,-0.427 0.277,-0.423 0.261,-0.414C0.246,-0.405 0.234,-0.392 0.225,-0.376C0.216,-0.359 0.212,-0.339 0.212,-0.315Z" style="fill:rgb(33,37,41);fill-rule:nonzero;"/>
                </g>
                <g transform="matrix(20,0,0,20,67.0218,52.724)">
                    <path d="M0.514,-0.39L0.376,-0.382C0.373,-0.393 0.368,-0.404 0.361,-0.413C0.353,-0.423 0.343,-0.431 0.33,-0.437C0.317,-0.442 0.302,-0.445 0.284,-0.445C0.261,-0.445 0.241,-0.44 0.225,-0.43C0.209,-0.421 0.201,-0.408 0.201,-0.391C0.201,-0.378 0.206,-0.367 0.217,-0.358C0.227,-0.349 0.245,-0.342 0.27,-0.337L0.369,-0.317C0.422,-0.306 0.462,-0.288 0.488,-0.264C0.514,-0.24 0.527,-0.208 0.527,-0.169C0.527,-0.133 0.516,-0.102 0.495,-0.075C0.474,-0.048 0.446,-0.027 0.409,-0.012C0.373,0.003 0.331,0.011 0.284,0.011C0.212,0.011 0.154,-0.005 0.111,-0.035C0.068,-0.065 0.044,-0.106 0.036,-0.158L0.185,-0.166C0.19,-0.144 0.2,-0.127 0.218,-0.116C0.235,-0.104 0.257,-0.098 0.284,-0.098C0.311,-0.098 0.332,-0.103 0.348,-0.114C0.364,-0.124 0.373,-0.137 0.373,-0.154C0.373,-0.168 0.367,-0.179 0.356,-0.188C0.344,-0.197 0.327,-0.203 0.303,-0.208L0.209,-0.227C0.155,-0.238 0.116,-0.256 0.09,-0.282C0.064,-0.309 0.051,-0.342 0.051,-0.383C0.051,-0.418 0.06,-0.448 0.079,-0.473C0.098,-0.499 0.125,-0.518 0.16,-0.532C0.195,-0.546 0.235,-0.553 0.282,-0.553C0.351,-0.553 0.405,-0.538 0.445,-0.509C0.484,-0.48 0.508,-0.44 0.514,-0.39Z" style="fill:rgb(33,37,41);fill-rule:nonzero;"/>
                </g>
                <g transform="matrix(20,0,0,20,77.4764,52.724)">
                    <rect x="0.068" y="-0.359" width="0.332" height="0.12" style="fill:rgb(33,37,41);fill-rule:nonzero;"/>
                </g>
                <g transform="matrix(20,0,0,20,86.6809,52.724)">
                    <path d="M0.458,-0.518C0.455,-0.547 0.443,-0.569 0.421,-0.585C0.399,-0.601 0.37,-0.609 0.334,-0.609C0.308,-0.609 0.287,-0.605 0.27,-0.598C0.252,-0.591 0.239,-0.581 0.23,-0.569C0.221,-0.557 0.217,-0.543 0.216,-0.527C0.216,-0.514 0.219,-0.503 0.225,-0.493C0.231,-0.483 0.239,-0.475 0.25,-0.468C0.261,-0.461 0.273,-0.455 0.287,-0.45C0.301,-0.445 0.316,-0.441 0.332,-0.437L0.397,-0.422C0.429,-0.414 0.458,-0.405 0.484,-0.393C0.511,-0.381 0.534,-0.367 0.553,-0.349C0.573,-0.332 0.588,-0.312 0.599,-0.288C0.609,-0.265 0.615,-0.238 0.615,-0.208C0.615,-0.163 0.604,-0.125 0.581,-0.092C0.559,-0.06 0.527,-0.034 0.485,-0.017C0.443,0.001 0.392,0.01 0.333,0.01C0.274,0.01 0.223,0.001 0.179,-0.017C0.136,-0.035 0.102,-0.061 0.078,-0.097C0.054,-0.132 0.041,-0.176 0.04,-0.228L0.189,-0.228C0.19,-0.204 0.197,-0.184 0.21,-0.168C0.222,-0.151 0.239,-0.139 0.26,-0.131C0.281,-0.123 0.304,-0.119 0.331,-0.119C0.357,-0.119 0.38,-0.123 0.399,-0.13C0.418,-0.138 0.433,-0.148 0.444,-0.162C0.454,-0.175 0.46,-0.191 0.46,-0.208C0.46,-0.225 0.455,-0.238 0.445,-0.249C0.436,-0.261 0.422,-0.27 0.403,-0.278C0.385,-0.286 0.363,-0.293 0.336,-0.299L0.257,-0.319C0.196,-0.334 0.147,-0.357 0.112,-0.389C0.076,-0.421 0.059,-0.463 0.059,-0.517C0.059,-0.561 0.071,-0.6 0.094,-0.632C0.118,-0.665 0.151,-0.691 0.193,-0.71C0.234,-0.728 0.282,-0.737 0.335,-0.737C0.389,-0.737 0.436,-0.728 0.476,-0.71C0.516,-0.691 0.548,-0.665 0.57,-0.632C0.593,-0.599 0.604,-0.561 0.605,-0.518L0.458,-0.518Z" style="fill:rgb(33,37,41);fill-rule:nonzero;"/>
                </g>
                <g transform="matrix(20,0,0,20,99.4366,52.724)">
                    <path d="M0.309,0.011C0.253,0.011 0.205,-0.001 0.164,-0.024C0.124,-0.046 0.093,-0.079 0.071,-0.121C0.049,-0.163 0.038,-0.213 0.038,-0.27C0.038,-0.326 0.049,-0.376 0.071,-0.418C0.093,-0.46 0.124,-0.493 0.163,-0.517C0.203,-0.541 0.249,-0.553 0.303,-0.553C0.339,-0.553 0.373,-0.547 0.404,-0.535C0.435,-0.524 0.462,-0.507 0.485,-0.484C0.509,-0.461 0.527,-0.432 0.54,-0.397C0.553,-0.362 0.559,-0.322 0.559,-0.276L0.559,-0.234L0.099,-0.234L0.099,-0.328L0.417,-0.328C0.417,-0.35 0.412,-0.369 0.403,-0.386C0.393,-0.402 0.38,-0.416 0.363,-0.425C0.347,-0.435 0.327,-0.44 0.305,-0.44C0.283,-0.44 0.262,-0.434 0.245,-0.424C0.227,-0.413 0.213,-0.399 0.203,-0.381C0.193,-0.364 0.188,-0.344 0.188,-0.323L0.188,-0.234C0.188,-0.207 0.193,-0.183 0.203,-0.164C0.213,-0.144 0.227,-0.129 0.246,-0.118C0.264,-0.108 0.286,-0.102 0.311,-0.102C0.328,-0.102 0.344,-0.105 0.358,-0.109C0.371,-0.114 0.383,-0.121 0.393,-0.131C0.404,-0.14 0.411,-0.152 0.416,-0.165L0.556,-0.156C0.549,-0.123 0.534,-0.093 0.513,-0.068C0.491,-0.043 0.463,-0.024 0.428,-0.01C0.394,0.004 0.354,0.011 0.309,0.011Z" style="fill:rgb(33,37,41);fill-rule:nonzero;"/>
                </g>
                <g transform="matrix(20,0,0,20,111.084,52.724)">
                    <path d="M0.061,-0L0.061,-0.545L0.207,-0.545L0.207,-0.45L0.213,-0.45C0.223,-0.484 0.239,-0.51 0.263,-0.527C0.286,-0.544 0.313,-0.553 0.344,-0.553C0.351,-0.553 0.359,-0.553 0.368,-0.552C0.377,-0.551 0.385,-0.55 0.391,-0.548L0.391,-0.414C0.384,-0.416 0.374,-0.418 0.362,-0.419C0.349,-0.421 0.338,-0.422 0.327,-0.422C0.305,-0.422 0.285,-0.417 0.268,-0.407C0.25,-0.398 0.237,-0.385 0.227,-0.368C0.217,-0.351 0.212,-0.331 0.212,-0.309L0.212,-0L0.061,-0Z" style="fill:rgb(33,37,41);fill-rule:nonzero;"/>
                </g>
                <g transform="matrix(20,0,0,20,118.528,52.724)">
                    <path d="M0.06,-0L0.06,-0.545L0.212,-0.545L0.212,-0L0.06,-0ZM0.137,-0.616C0.114,-0.616 0.095,-0.623 0.079,-0.638C0.063,-0.653 0.055,-0.671 0.055,-0.692C0.055,-0.713 0.063,-0.731 0.079,-0.746C0.095,-0.761 0.114,-0.769 0.136,-0.769C0.159,-0.769 0.178,-0.761 0.194,-0.746C0.21,-0.731 0.218,-0.713 0.218,-0.692C0.218,-0.671 0.21,-0.653 0.194,-0.638C0.178,-0.623 0.159,-0.616 0.137,-0.616Z" style="fill:rgb(33,37,41);fill-rule:nonzero;"/>
                </g>
                <g transform="matrix(20,0,0,20,123.272,52.724)">
                    <path d="M0.354,-0.545L0.354,-0.432L0.017,-0.432L0.017,-0.545L0.354,-0.545ZM0.094,-0L0.094,-0.585C0.094,-0.624 0.102,-0.657 0.117,-0.683C0.133,-0.709 0.154,-0.729 0.181,-0.742C0.208,-0.755 0.239,-0.761 0.273,-0.761C0.296,-0.761 0.317,-0.76 0.337,-0.756C0.356,-0.752 0.37,-0.749 0.38,-0.746L0.353,-0.633C0.347,-0.635 0.34,-0.637 0.331,-0.638C0.323,-0.64 0.314,-0.641 0.305,-0.641C0.282,-0.641 0.267,-0.635 0.258,-0.625C0.25,-0.615 0.245,-0.601 0.245,-0.582L0.245,-0L0.094,-0Z" style="fill:rgb(33,37,41);fill-rule:nonzero;"/>
                </g>
                <g transform="matrix(20,0,0,20,136.113,52.724)">
                    <path d="M0.063,-0L0.063,-0.727L0.545,-0.727L0.545,-0.601L0.217,-0.601L0.217,-0.427L0.513,-0.427L0.513,-0.301L0.217,-0.301L0.217,-0L0.063,-0Z" style="fill:rgb(33,37,41);fill-rule:nonzero;"/>
                </g>
                <g transform="matrix(20,0,0,20,147.05,52.724)">
                    <path d="M0.307,0.011C0.252,0.011 0.204,-0.001 0.164,-0.025C0.124,-0.048 0.093,-0.081 0.071,-0.123C0.049,-0.166 0.038,-0.215 0.038,-0.271C0.038,-0.327 0.049,-0.376 0.071,-0.419C0.093,-0.461 0.124,-0.494 0.164,-0.517C0.204,-0.541 0.252,-0.553 0.307,-0.553C0.362,-0.553 0.41,-0.541 0.45,-0.517C0.49,-0.494 0.521,-0.461 0.543,-0.419C0.564,-0.376 0.575,-0.327 0.575,-0.271C0.575,-0.215 0.564,-0.166 0.543,-0.123C0.521,-0.081 0.49,-0.048 0.45,-0.025C0.41,-0.001 0.362,0.011 0.307,0.011ZM0.308,-0.107C0.333,-0.107 0.353,-0.114 0.37,-0.128C0.387,-0.142 0.4,-0.162 0.409,-0.187C0.417,-0.212 0.422,-0.24 0.422,-0.272C0.422,-0.303 0.417,-0.332 0.409,-0.357C0.4,-0.381 0.387,-0.401 0.37,-0.416C0.353,-0.43 0.333,-0.437 0.308,-0.437C0.282,-0.437 0.261,-0.43 0.244,-0.416C0.226,-0.401 0.214,-0.381 0.205,-0.357C0.196,-0.332 0.192,-0.303 0.192,-0.272C0.192,-0.24 0.196,-0.212 0.205,-0.187C0.214,-0.162 0.226,-0.142 0.244,-0.128C0.261,-0.114 0.282,-0.107 0.308,-0.107Z" style="fill:rgb(33,37,41);fill-rule:nonzero;"/>
                </g>
                <g transform="matrix(20,0,0,20,158.982,52.724)">
                    <path d="M0.212,-0.315L0.212,-0L0.061,-0L0.061,-0.545L0.205,-0.545L0.205,-0.449L0.211,-0.449C0.223,-0.481 0.243,-0.506 0.272,-0.525C0.3,-0.543 0.335,-0.553 0.375,-0.553C0.413,-0.553 0.446,-0.544 0.474,-0.528C0.502,-0.511 0.524,-0.487 0.54,-0.457C0.555,-0.426 0.563,-0.39 0.563,-0.347L0.563,-0L0.412,-0L0.412,-0.32C0.412,-0.354 0.404,-0.38 0.386,-0.399C0.369,-0.418 0.345,-0.427 0.315,-0.427C0.295,-0.427 0.277,-0.423 0.261,-0.414C0.246,-0.405 0.234,-0.392 0.225,-0.376C0.216,-0.359 0.212,-0.339 0.212,-0.315Z" style="fill:rgb(33,37,41);fill-rule:nonzero;"/>
                </g>
                <g transform="matrix(20,0,0,20,170.687,52.724)">
                    <path d="M0.351,-0.545L0.351,-0.432L0.022,-0.432L0.022,-0.545L0.351,-0.545ZM0.097,-0.676L0.248,-0.676L0.248,-0.168C0.248,-0.154 0.25,-0.143 0.254,-0.135C0.259,-0.127 0.265,-0.122 0.272,-0.119C0.28,-0.116 0.289,-0.114 0.299,-0.114C0.306,-0.114 0.313,-0.115 0.32,-0.116C0.328,-0.118 0.333,-0.119 0.337,-0.119L0.361,-0.007C0.353,-0.004 0.342,-0.001 0.329,0.002C0.315,0.005 0.298,0.007 0.278,0.008C0.242,0.009 0.21,0.004 0.183,-0.007C0.155,-0.018 0.134,-0.035 0.119,-0.059C0.104,-0.082 0.096,-0.112 0.097,-0.148L0.097,-0.676Z" style="fill:rgb(33,37,41);fill-rule:nonzero;"/>
                </g>
                <g transform="matrix(20,0,0,20,177.76,52.724)">
                    <path d="M0.514,-0.39L0.376,-0.382C0.373,-0.393 0.368,-0.404 0.361,-0.413C0.353,-0.423 0.343,-0.431 0.33,-0.437C0.317,-0.442 0.302,-0.445 0.284,-0.445C0.261,-0.445 0.241,-0.44 0.225,-0.43C0.209,-0.421 0.201,-0.408 0.201,-0.391C0.201,-0.378 0.206,-0.367 0.217,-0.358C0.227,-0.349 0.245,-0.342 0.27,-0.337L0.369,-0.317C0.422,-0.306 0.462,-0.288 0.488,-0.264C0.514,-0.24 0.527,-0.208 0.527,-0.169C0.527,-0.133 0.516,-0.102 0.495,-0.075C0.474,-0.048 0.446,-0.027 0.409,-0.012C0.373,0.003 0.331,0.011 0.284,0.011C0.212,0.011 0.154,-0.005 0.111,-0.035C0.068,-0.065 0.044,-0.106 0.036,-0.158L0.185,-0.166C0.19,-0.144 0.2,-0.127 0.218,-0.116C0.235,-0.104 0.257,-0.098 0.284,-0.098C0.311,-0.098 0.332,-0.103 0.348,-0.114C0.364,-0.124 0.373,-0.137 0.373,-0.154C0.373,-0.168 0.367,-0.179 0.356,-0.188C0.344,-0.197 0.327,-0.203 0.303,-0.208L0.209,-0.227C0.155,-0.238 0.116,-0.256 0.09,-0.282C0.064,-0.309 0.051,-0.342 0.051,-0.383C0.051,-0.418 0.06,-0.448 0.079,-0.473C0.098,-0.499 0.125,-0.518 0.16,-0.532C0.195,-0.546 0.235,-0.553 0.282,-0.553C0.351,-0.553 0.405,-0.538 0.445,-0.509C0.484,-0.48 0.508,-0.44 0.514,-0.39Z" style="fill:rgb(33,37,41);fill-rule:nonzero;"/>
                </g>
                <g transform="matrix(20,0,0,20,34.394,82.724)">
                    <path d="M0.189,-0L0.024,-0L0.275,-0.727L0.473,-0.727L0.724,-0L0.559,-0L0.377,-0.561L0.371,-0.561L0.189,-0ZM0.178,-0.286L0.568,-0.286L0.568,-0.166L0.178,-0.166L0.178,-0.286Z" style="fill:rgb(33,37,41);fill-rule:nonzero;"/>
                </g>
                <g transform="matrix(20,0,0,20,47.9167,82.724)">
                    <path d="M0.061,-0L0.061,-0.545L0.207,-0.545L0.207,-0.45L0.213,-0.45C0.223,-0.484 0.239,-0.51 0.263,-0.527C0.286,-0.544 0.313,-0.553 0.344,-0.553C0.351,-0.553 0.359,-0.553 0.368,-0.552C0.377,-0.551 0.385,-0.55 0.391,-0.548L0.391,-0.414C0.384,-0.416 0.374,-0.418 0.362,-0.419C0.349,-0.421 0.338,-0.422 0.327,-0.422C0.305,-0.422 0.285,-0.417 0.268,-0.407C0.25,-0.398 0.237,-0.385 0.227,-0.368C0.217,-0.351 0.212,-0.331 0.212,-0.309L0.212,-0L0.061,-0Z" style="fill:rgb(33,37,41);fill-rule:nonzero;"/>
                </g>
                <g transform="matrix(20,0,0,20,55.019,82.724)">
                    <path d="M0.309,0.011C0.253,0.011 0.205,-0.001 0.164,-0.024C0.124,-0.046 0.093,-0.079 0.071,-0.121C0.049,-0.163 0.038,-0.213 0.038,-0.27C0.038,-0.326 0.049,-0.376 0.071,-0.418C0.093,-0.46 0.124,-0.493 0.163,-0.517C0.203,-0.541 0.249,-0.553 0.303,-0.553C0.339,-0.553 0.373,-0.547 0.404,-0.535C0.435,-0.524 0.462,-0.507 0.485,-0.484C0.509,-0.461 0.527,-0.432 0.54,-0.397C0.553,-0.362 0.559,-0.322 0.559,-0.276L0.559,-0.234L0.099,-0.234L0.099,-0.328L0.417,-0.328C0.417,-0.35 0.412,-0.369 0.403,-0.386C0.393,-0.402 0.38,-0.416 0.363,-0.425C0.347,-0.435 0.327,-0.44 0.305,-0.44C0.283,-0.44 0.262,-0.434 0.245,-0.424C0.227,-0.413 0.213,-0.399 0.203,-0.381C0.193,-0.364 0.188,-0.344 0.188,-0.323L0.188,-0.234C0.188,-0.207 0.193,-0.183 0.203,-0.164C0.213,-0.144 0.227,-0.129 0.246,-0.118C0.264,-0.108 0.286,-0.102 0.311,-0.102C0.328,-0.102 0.344,-0.105 0.358,-0.109C0.371,-0.114 0.383,-0.121 0.393,-0.131C0.404,-0.14 0.411,-0.152 0.416,-0.165L0.556,-0.156C0.549,-0.123 0.534,-0.093 0.513,-0.068C0.491,-0.043 0.463,-0.024 0.428,-0.01C0.394,0.004 0.354,0.011 0.309,0.011Z" style="fill:rgb(33,37,41);fill-rule:nonzero;"/>
                </g>
                <g transform="matrix(20,0,0,20,72.2917,82.724)">
                    <path d="M0.672,-0.727L0.672,-0L0.539,-0L0.222,-0.458L0.217,-0.458L0.217,-0L0.063,-0L0.063,-0.727L0.198,-0.727L0.512,-0.27L0.518,-0.27L0.518,-0.727L0.672,-0.727Z" style="fill:rgb(33,37,41);fill-rule:nonzero;"/>
                </g>
                <g transform="matrix(20,0,0,20,87.3485,82.724)">
                    <path d="M0.307,0.011C0.252,0.011 0.204,-0.001 0.164,-0.025C0.124,-0.048 0.093,-0.081 0.071,-0.123C0.049,-0.166 0.038,-0.215 0.038,-0.271C0.038,-0.327 0.049,-0.376 0.071,-0.419C0.093,-0.461 0.124,-0.494 0.164,-0.517C0.204,-0.541 0.252,-0.553 0.307,-0.553C0.362,-0.553 0.41,-0.541 0.45,-0.517C0.49,-0.494 0.521,-0.461 0.543,-0.419C0.564,-0.376 0.575,-0.327 0.575,-0.271C0.575,-0.215 0.564,-0.166 0.543,-0.123C0.521,-0.081 0.49,-0.048 0.45,-0.025C0.41,-0.001 0.362,0.011 0.307,0.011ZM0.308,-0.107C0.333,-0.107 0.353,-0.114 0.37,-0.128C0.387,-0.142 0.4,-0.162 0.409,-0.187C0.417,-0.212 0.422,-0.24 0.422,-0.272C0.422,-0.303 0.417,-0.332 0.409,-0.357C0.4,-0.381 0.387,-0.401 0.37,-0.416C0.353,-0.43 0.333,-0.437 0.308,-0.437C0.282,-0.437 0.261,-0.43 0.244,-0.416C0.226,-0.401 0.214,-0.381 0.205,-0.357C0.196,-0.332 0.192,-0.303 0.192,-0.272C0.192,-0.24 0.196,-0.212 0.205,-0.187C0.214,-0.162 0.226,-0.142 0.244,-0.128C0.261,-0.114 0.282,-0.107 0.308,-0.107Z" style="fill:rgb(33,37,41);fill-rule:nonzero;"/>
                </g>
                <g transform="matrix(20,0,0,20,99.2803,82.724)">
                    <path d="M0.351,-0.545L0.351,-0.432L0.022,-0.432L0.022,-0.545L0.351,-0.545ZM0.097,-0.676L0.248,-0.676L0.248,-0.168C0.248,-0.154 0.25,-0.143 0.254,-0.135C0.259,-0.127 0.265,-0.122 0.272,-0.119C0.28,-0.116 0.289,-0.114 0.299,-0.114C0.306,-0.114 0.313,-0.115 0.32,-0.116C0.328,-0.118 0.333,-0.119 0.337,-0.119L0.361,-0.007C0.353,-0.004 0.342,-0.001 0.329,0.002C0.315,0.005 0.298,0.007 0.278,0.008C0.242,0.009 0.21,0.004 0.183,-0.007C0.155,-0.018 0.134,-0.035 0.119,-0.059C0.104,-0.082 0.096,-0.112 0.097,-0.148L0.097,-0.676Z" style="fill:rgb(33,37,41);fill-rule:nonzero;"/>
                </g>
                <g transform="matrix(20,0,0,20,112.178,82.724)">
                    <path d="M0.063,-0.727L0.253,-0.727L0.453,-0.239L0.462,-0.239L0.662,-0.727L0.851,-0.727L0.851,-0L0.703,-0L0.703,-0.473L0.696,-0.473L0.508,-0.003L0.407,-0.003L0.218,-0.475L0.212,-0.475L0.212,-0L0.063,-0L0.063,-0.727Z" style="fill:rgb(33,37,41);fill-rule:nonzero;"/>
                </g>
                <g transform="matrix(20,0,0,20,129.962,82.724)">
                    <path d="M0.307,0.011C0.252,0.011 0.204,-0.001 0.164,-0.025C0.124,-0.048 0.093,-0.081 0.071,-0.123C0.049,-0.166 0.038,-0.215 0.038,-0.271C0.038,-0.327 0.049,-0.376 0.071,-0.419C0.093,-0.461 0.124,-0.494 0.164,-0.517C0.204,-0.541 0.252,-0.553 0.307,-0.553C0.362,-0.553 0.41,-0.541 0.45,-0.517C0.49,-0.494 0.521,-0.461 0.543,-0.419C0.564,-0.376 0.575,-0.327 0.575,-0.271C0.575,-0.215 0.564,-0.166 0.543,-0.123C0.521,-0.081 0.49,-0.048 0.45,-0.025C0.41,-0.001 0.362,0.011 0.307,0.011ZM0.308,-0.107C0.333,-0.107 0.353,-0.114 0.37,-0.128C0.387,-0.142 0.4,-0.162 0.409,-0.187C0.417,-0.212 0.422,-0.24 0.422,-0.272C0.422,-0.303 0.417,-0.332 0.409,-0.357C0.4,-0.381 0.387,-0.401 0.37,-0.416C0.353,-0.43 0.333,-0.437 0.308,-0.437C0.282,-0.437 0.261,-0.43 0.244,-0.416C0.226,-0.401 0.214,-0.381 0.205,-0.357C0.196,-0.332 0.192,-0.303 0.192,-0.272C0.192,-0.24 0.196,-0.212 0.205,-0.187C0.214,-0.162 0.226,-0.142 0.244,-0.128C0.261,-0.114 0.282,-0.107 0.308,-0.107Z" style="fill:rgb(33,37,41);fill-rule:nonzero;"/>
                </g>
                <g transform="matrix(20,0,0,20,141.894,82.724)">
                    <path d="M0.261,0.009C0.22,0.009 0.182,-0.002 0.149,-0.023C0.116,-0.045 0.089,-0.076 0.069,-0.118C0.05,-0.16 0.04,-0.211 0.04,-0.272C0.04,-0.335 0.05,-0.387 0.07,-0.428C0.09,-0.47 0.117,-0.501 0.151,-0.522C0.184,-0.542 0.221,-0.553 0.261,-0.553C0.291,-0.553 0.317,-0.547 0.337,-0.537C0.358,-0.527 0.375,-0.514 0.387,-0.499C0.4,-0.484 0.409,-0.469 0.416,-0.454L0.421,-0.454L0.421,-0.727L0.572,-0.727L0.572,-0L0.423,-0L0.423,-0.087L0.416,-0.087C0.409,-0.072 0.399,-0.057 0.386,-0.043C0.373,-0.028 0.356,-0.016 0.336,-0.006C0.316,0.004 0.291,0.009 0.261,0.009ZM0.309,-0.112C0.334,-0.112 0.354,-0.118 0.371,-0.132C0.388,-0.145 0.401,-0.164 0.41,-0.188C0.419,-0.212 0.424,-0.24 0.424,-0.273C0.424,-0.305 0.419,-0.333 0.41,-0.357C0.402,-0.381 0.389,-0.399 0.372,-0.413C0.355,-0.426 0.334,-0.432 0.309,-0.432C0.284,-0.432 0.263,-0.425 0.246,-0.412C0.229,-0.399 0.216,-0.38 0.208,-0.356C0.199,-0.332 0.195,-0.304 0.195,-0.273C0.195,-0.241 0.199,-0.213 0.208,-0.189C0.217,-0.165 0.23,-0.146 0.247,-0.132C0.264,-0.118 0.285,-0.112 0.309,-0.112Z" style="fill:rgb(33,37,41);fill-rule:nonzero;"/>
                </g>
                <g transform="matrix(20,0,0,20,154.309,82.724)">
                    <path d="M0.309,0.011C0.253,0.011 0.205,-0.001 0.164,-0.024C0.124,-0.046 0.093,-0.079 0.071,-0.121C0.049,-0.163 0.038,-0.213 0.038,-0.27C0.038,-0.326 0.049,-0.376 0.071,-0.418C0.093,-0.46 0.124,-0.493 0.163,-0.517C0.203,-0.541 0.249,-0.553 0.303,-0.553C0.339,-0.553 0.373,-0.547 0.404,-0.535C0.435,-0.524 0.462,-0.507 0.485,-0.484C0.509,-0.461 0.527,-0.432 0.54,-0.397C0.553,-0.362 0.559,-0.322 0.559,-0.276L0.559,-0.234L0.099,-0.234L0.099,-0.328L0.417,-0.328C0.417,-0.35 0.412,-0.369 0.403,-0.386C0.393,-0.402 0.38,-0.416 0.363,-0.425C0.347,-0.435 0.327,-0.44 0.305,-0.44C0.283,-0.44 0.262,-0.434 0.245,-0.424C0.227,-0.413 0.213,-0.399 0.203,-0.381C0.193,-0.364 0.188,-0.344 0.188,-0.323L0.188,-0.234C0.188,-0.207 0.193,-0.183 0.203,-0.164C0.213,-0.144 0.227,-0.129 0.246,-0.118C0.264,-0.108 0.286,-0.102 0.311,-0.102C0.328,-0.102 0.344,-0.105 0.358,-0.109C0.371,-0.114 0.383,-0.121 0.393,-0.131C0.404,-0.14 0.411,-0.152 0.416,-0.165L0.556,-0.156C0.549,-0.123 0.534,-0.093 0.513,-0.068C0.491,-0.043 0.463,-0.024 0.428,-0.01C0.394,0.004 0.354,0.011 0.309,0.011Z" style="fill:rgb(33,37,41);fill-rule:nonzero;"/>
                </g>
                <g transform="matrix(20,0,0,20,165.956,82.724)">
                    <path d="M0.061,-0L0.061,-0.545L0.207,-0.545L0.207,-0.45L0.213,-0.45C0.223,-0.484 0.239,-0.51 0.263,-0.527C0.286,-0.544 0.313,-0.553 0.344,-0.553C0.351,-0.553 0.359,-0.553 0.368,-0.552C0.377,-0.551 0.385,-0.55 0.391,-0.548L0.391,-0.414C0.384,-0.416 0.374,-0.418 0.362,-0.419C0.349,-0.421 0.338,-0.422 0.327,-0.422C0.305,-0.422 0.285,-0.417 0.268,-0.407C0.25,-0.398 0.237,-0.385 0.227,-0.368C0.217,-0.351 0.212,-0.331 0.212,-0.309L0.212,-0L0.061,-0Z" style="fill:rgb(33,37,41);fill-rule:nonzero;"/>
                </g>
                <g transform="matrix(20,0,0,20,173.4,82.724)">
                    <path d="M0.212,-0.315L0.212,-0L0.061,-0L0.061,-0.545L0.205,-0.545L0.205,-0.449L0.211,-0.449C0.223,-0.481 0.243,-0.506 0.272,-0.525C0.3,-0.543 0.335,-0.553 0.375,-0.553C0.413,-0.553 0.446,-0.544 0.474,-0.528C0.502,-0.511 0.524,-0.487 0.54,-0.457C0.555,-0.426 0.563,-0.39 0.563,-0.347L0.563,-0L0.412,-0L0.412,-0.32C0.412,-0.354 0.404,-0.38 0.386,-0.399C0.369,-0.418 0.345,-0.427 0.315,-0.427C0.295,-0.427 0.277,-0.423 0.261,-0.414C0.246,-0.405 0.234,-0.392 0.225,-0.376C0.216,-0.359 0.212,-0.339 0.212,-0.315Z" style="fill:rgb(33,37,41);fill-rule:nonzero;"/>
                </g>
            </g>
            <g transform="matrix(0.848094,0,0,0.614342,330.967,-524.958)">
                <g transform="matrix(20,0,0,20,87.8457,52.724)">
                    <path d="M0.458,-0.518C0.455,-0.547 0.443,-0.569 0.421,-0.585C0.399,-0.601 0.37,-0.609 0.334,-0.609C0.308,-0.609 0.287,-0.605 0.27,-0.598C0.252,-0.591 0.239,-0.581 0.23,-0.569C0.221,-0.557 0.217,-0.543 0.216,-0.527C0.216,-0.514 0.219,-0.503 0.225,-0.493C0.231,-0.483 0.239,-0.475 0.25,-0.468C0.261,-0.461 0.273,-0.455 0.287,-0.45C0.301,-0.445 0.316,-0.441 0.332,-0.437L0.397,-0.422C0.429,-0.414 0.458,-0.405 0.484,-0.393C0.511,-0.381 0.534,-0.367 0.553,-0.349C0.573,-0.332 0.588,-0.312 0.599,-0.288C0.609,-0.265 0.615,-0.238 0.615,-0.208C0.615,-0.163 0.604,-0.125 0.581,-0.092C0.559,-0.06 0.527,-0.034 0.485,-0.017C0.443,0.001 0.392,0.01 0.333,0.01C0.274,0.01 0.223,0.001 0.179,-0.017C0.136,-0.035 0.102,-0.061 0.078,-0.097C0.054,-0.132 0.041,-0.176 0.04,-0.228L0.189,-0.228C0.19,-0.204 0.197,-0.184 0.21,-0.168C0.222,-0.151 0.239,-0.139 0.26,-0.131C0.281,-0.123 0.304,-0.119 0.331,-0.119C0.357,-0.119 0.38,-0.123 0.399,-0.13C0.418,-0.138 0.433,-0.148 0.444,-0.162C0.454,-0.175 0.46,-0.191 0.46,-0.208C0.46,-0.225 0.455,-0.238 0.445,-0.249C0.436,-0.261 0.422,-0.27 0.403,-0.278C0.385,-0.286 0.363,-0.293 0.336,-0.299L0.257,-0.319C0.196,-0.334 0.147,-0.357 0.112,-0.389C0.076,-0.421 0.059,-0.463 0.059,-0.517C0.059,-0.561 0.071,-0.6 0.094,-0.632C0.118,-0.665 0.151,-0.691 0.193,-0.71C0.234,-0.728 0.282,-0.737 0.335,-0.737C0.389,-0.737 0.436,-0.728 0.476,-0.71C0.516,-0.691 0.548,-0.665 0.57,-0.632C0.593,-0.599 0.604,-0.561 0.605,-0.518L0.458,-0.518Z" style="fill:rgb(33,37,41);fill-rule:nonzero;"/>
                </g>
                <g transform="matrix(20,0,0,20,100.601,52.724)">
                    <path d="M0.309,0.011C0.253,0.011 0.205,-0.001 0.164,-0.024C0.124,-0.046 0.093,-0.079 0.071,-0.121C0.049,-0.163 0.038,-0.213 0.038,-0.27C0.038,-0.326 0.049,-0.376 0.071,-0.418C0.093,-0.46 0.124,-0.493 0.163,-0.517C0.203,-0.541 0.249,-0.553 0.303,-0.553C0.339,-0.553 0.373,-0.547 0.404,-0.535C0.435,-0.524 0.462,-0.507 0.485,-0.484C0.509,-0.461 0.527,-0.432 0.54,-0.397C0.553,-0.362 0.559,-0.322 0.559,-0.276L0.559,-0.234L0.099,-0.234L0.099,-0.328L0.417,-0.328C0.417,-0.35 0.412,-0.369 0.403,-0.386C0.393,-0.402 0.38,-0.416 0.363,-0.425C0.347,-0.435 0.327,-0.44 0.305,-0.44C0.283,-0.44 0.262,-0.434 0.245,-0.424C0.227,-0.413 0.213,-0.399 0.203,-0.381C0.193,-0.364 0.188,-0.344 0.188,-0.323L0.188,-0.234C0.188,-0.207 0.193,-0.183 0.203,-0.164C0.213,-0.144 0.227,-0.129 0.246,-0.118C0.264,-0.108 0.286,-0.102 0.311,-0.102C0.328,-0.102 0.344,-0.105 0.358,-0.109C0.371,-0.114 0.383,-0.121 0.393,-0.131C0.404,-0.14 0.411,-0.152 0.416,-0.165L0.556,-0.156C0.549,-0.123 0.534,-0.093 0.513,-0.068C0.491,-0.043 0.463,-0.024 0.428,-0.01C0.394,0.004 0.354,0.011 0.309,0.011Z" style="fill:rgb(33,37,41);fill-rule:nonzero;"/>
                </g>
                <g transform="matrix(20,0,0,20,112.249,52.724)">
                    <path d="M0.061,-0L0.061,-0.545L0.207,-0.545L0.207,-0.45L0.213,-0.45C0.223,-0.484 0.239,-0.51 0.263,-0.527C0.286,-0.544 0.313,-0.553 0.344,-0.553C0.351,-0.553 0.359,-0.553 0.368,-0.552C0.377,-0.551 0.385,-0.55 0.391,-0.548L0.391,-0.414C0.384,-0.416 0.374,-0.418 0.362,-0.419C0.349,-0.421 0.338,-0.422 0.327,-0.422C0.305,-0.422 0.285,-0.417 0.268,-0.407C0.25,-0.398 0.237,-0.385 0.227,-0.368C0.217,-0.351 0.212,-0.331 0.212,-0.309L0.212,-0L0.061,-0Z" style="fill:rgb(33,37,41);fill-rule:nonzero;"/>
                </g>
                <g transform="matrix(20,0,0,20,119.692,52.724)">
                    <path d="M0.06,-0L0.06,-0.545L0.212,-0.545L0.212,-0L0.06,-0ZM0.137,-0.616C0.114,-0.616 0.095,-0.623 0.079,-0.638C0.063,-0.653 0.055,-0.671 0.055,-0.692C0.055,-0.713 0.063,-0.731 0.079,-0.746C0.095,-0.761 0.114,-0.769 0.136,-0.769C0.159,-0.769 0.178,-0.761 0.194,-0.746C0.21,-0.731 0.218,-0.713 0.218,-0.692C0.218,-0.671 0.21,-0.653 0.194,-0.638C0.178,-0.623 0.159,-0.616 0.137,-0.616Z" style="fill:rgb(33,37,41);fill-rule:nonzero;"/>
                </g>
                <g transform="matrix(20,0,0,20,124.437,52.724)">
                    <path d="M0.354,-0.545L0.354,-0.432L0.017,-0.432L0.017,-0.545L0.354,-0.545ZM0.094,-0L0.094,-0.585C0.094,-0.624 0.102,-0.657 0.117,-0.683C0.133,-0.709 0.154,-0.729 0.181,-0.742C0.208,-0.755 0.239,-0.761 0.273,-0.761C0.296,-0.761 0.317,-0.76 0.337,-0.756C0.356,-0.752 0.37,-0.749 0.38,-0.746L0.353,-0.633C0.347,-0.635 0.34,-0.637 0.331,-0.638C0.323,-0.64 0.314,-0.641 0.305,-0.641C0.282,-0.641 0.267,-0.635 0.258,-0.625C0.25,-0.615 0.245,-0.601 0.245,-0.582L0.245,-0L0.094,-0Z" style="fill:rgb(33,37,41);fill-rule:nonzero;"/>
                </g>
                <g transform="matrix(14,0,0,14,102.968,82.724)">
                    <path d="M0.298,0.011C0.249,0.011 0.206,-0 0.169,-0.024C0.132,-0.047 0.103,-0.08 0.082,-0.122C0.061,-0.164 0.051,-0.214 0.051,-0.27C0.051,-0.327 0.061,-0.376 0.082,-0.419C0.103,-0.461 0.132,-0.494 0.169,-0.517C0.206,-0.541 0.249,-0.553 0.298,-0.553C0.348,-0.553 0.391,-0.541 0.428,-0.517C0.465,-0.494 0.494,-0.461 0.514,-0.419C0.535,-0.376 0.545,-0.327 0.545,-0.27C0.545,-0.214 0.535,-0.164 0.514,-0.122C0.494,-0.08 0.465,-0.047 0.428,-0.024C0.391,-0 0.348,0.011 0.298,0.011ZM0.298,-0.064C0.336,-0.064 0.366,-0.074 0.391,-0.093C0.415,-0.112 0.433,-0.137 0.444,-0.168C0.456,-0.2 0.462,-0.233 0.462,-0.27C0.462,-0.306 0.456,-0.34 0.444,-0.372C0.433,-0.403 0.415,-0.429 0.391,-0.448C0.366,-0.468 0.336,-0.477 0.298,-0.477C0.261,-0.477 0.23,-0.468 0.206,-0.448C0.182,-0.429 0.164,-0.403 0.152,-0.372C0.141,-0.34 0.135,-0.306 0.135,-0.27C0.135,-0.233 0.141,-0.2 0.152,-0.168C0.164,-0.137 0.182,-0.112 0.206,-0.093C0.23,-0.074 0.261,-0.064 0.298,-0.064Z" style="fill:rgb(33,37,41);fill-rule:nonzero;"/>
                </g>
                <g transform="matrix(14,0,0,14,111.32,82.724)">
                    <path d="M0.077,-0L0.077,-0.545L0.158,-0.545L0.158,-0.463L0.163,-0.463C0.173,-0.49 0.191,-0.512 0.217,-0.529C0.243,-0.546 0.273,-0.554 0.305,-0.554C0.312,-0.554 0.319,-0.554 0.328,-0.554C0.338,-0.553 0.345,-0.553 0.349,-0.553L0.349,-0.467C0.347,-0.468 0.34,-0.469 0.33,-0.471C0.32,-0.472 0.309,-0.473 0.298,-0.473C0.272,-0.473 0.248,-0.468 0.227,-0.456C0.207,-0.445 0.19,-0.43 0.178,-0.411C0.166,-0.392 0.161,-0.37 0.161,-0.345L0.161,-0L0.077,-0Z" style="fill:rgb(33,37,41);fill-rule:nonzero;"/>
                </g>
                <g transform="matrix(20,0,0,20,61.7315,112.724)">
                    <path d="M0.055,-0.011L0.055,-0.238L0.114,-0.238C0.13,-0.17 0.154,-0.122 0.187,-0.093C0.22,-0.064 0.255,-0.049 0.292,-0.049C0.32,-0.049 0.343,-0.058 0.359,-0.074C0.376,-0.091 0.384,-0.11 0.384,-0.133C0.384,-0.149 0.379,-0.165 0.369,-0.181C0.358,-0.197 0.333,-0.214 0.294,-0.234C0.219,-0.271 0.168,-0.299 0.142,-0.316C0.116,-0.334 0.095,-0.356 0.079,-0.383C0.063,-0.411 0.055,-0.442 0.055,-0.478C0.055,-0.535 0.075,-0.581 0.116,-0.618C0.157,-0.655 0.204,-0.674 0.258,-0.674C0.314,-0.674 0.362,-0.655 0.401,-0.617C0.408,-0.627 0.413,-0.642 0.417,-0.662L0.474,-0.662L0.474,-0.467L0.419,-0.467C0.409,-0.51 0.391,-0.546 0.363,-0.574C0.336,-0.602 0.305,-0.616 0.271,-0.616C0.245,-0.616 0.225,-0.609 0.21,-0.594C0.195,-0.58 0.187,-0.562 0.187,-0.541C0.187,-0.524 0.192,-0.509 0.202,-0.494C0.211,-0.48 0.225,-0.469 0.241,-0.459C0.258,-0.45 0.293,-0.433 0.347,-0.408C0.395,-0.385 0.431,-0.365 0.454,-0.347C0.477,-0.329 0.495,-0.306 0.509,-0.279C0.522,-0.252 0.529,-0.222 0.529,-0.191C0.529,-0.132 0.507,-0.084 0.464,-0.045C0.421,-0.006 0.369,0.014 0.309,0.014C0.275,0.014 0.241,0.007 0.209,-0.008C0.176,-0.022 0.15,-0.041 0.13,-0.065C0.123,-0.05 0.117,-0.032 0.114,-0.011L0.055,-0.011Z" style="fill:rgb(33,37,41);fill-rule:nonzero;"/>
                </g>
                <g transform="matrix(20,0,0,20,72.9815,112.724)">
                    <path d="M0.316,-0.042C0.293,-0.025 0.268,-0.012 0.242,-0.004C0.216,0.005 0.189,0.009 0.161,0.009C0.123,0.009 0.095,0.001 0.076,-0.016C0.058,-0.033 0.048,-0.054 0.048,-0.079C0.048,-0.115 0.067,-0.146 0.104,-0.173C0.142,-0.201 0.21,-0.231 0.308,-0.264L0.308,-0.3C0.308,-0.326 0.301,-0.343 0.289,-0.35C0.277,-0.357 0.262,-0.361 0.245,-0.361C0.204,-0.361 0.181,-0.346 0.177,-0.316C0.174,-0.295 0.167,-0.281 0.157,-0.271C0.147,-0.262 0.132,-0.257 0.112,-0.257C0.093,-0.257 0.079,-0.262 0.068,-0.272C0.057,-0.282 0.051,-0.294 0.051,-0.307C0.051,-0.337 0.071,-0.363 0.111,-0.384C0.151,-0.405 0.205,-0.416 0.272,-0.416C0.309,-0.416 0.341,-0.414 0.366,-0.409C0.391,-0.405 0.412,-0.396 0.427,-0.384C0.442,-0.371 0.453,-0.358 0.458,-0.345C0.463,-0.331 0.465,-0.313 0.465,-0.289L0.465,-0.104C0.465,-0.076 0.474,-0.062 0.491,-0.062C0.505,-0.062 0.515,-0.071 0.519,-0.089L0.559,-0.089C0.558,-0.055 0.546,-0.031 0.522,-0.015C0.499,0.001 0.47,0.009 0.438,0.009C0.378,0.009 0.337,-0.008 0.316,-0.042ZM0.308,-0.095L0.308,-0.209C0.262,-0.191 0.233,-0.174 0.219,-0.158C0.205,-0.143 0.198,-0.127 0.198,-0.111C0.198,-0.098 0.202,-0.087 0.21,-0.077C0.219,-0.067 0.229,-0.063 0.243,-0.063C0.254,-0.063 0.266,-0.065 0.276,-0.071C0.287,-0.076 0.298,-0.084 0.308,-0.095Z" style="fill:rgb(33,37,41);fill-rule:nonzero;"/>
                </g>
                <g transform="matrix(20,0,0,20,84.2315,112.724)">
                    <path d="M0.247,-0.274L0.247,-0.116C0.247,-0.093 0.25,-0.077 0.257,-0.067C0.264,-0.057 0.276,-0.052 0.294,-0.052L0.294,-0L0.021,-0L0.021,-0.052C0.049,-0.052 0.067,-0.056 0.075,-0.065C0.083,-0.074 0.086,-0.091 0.086,-0.116L0.086,-0.252C0.086,-0.277 0.083,-0.294 0.075,-0.303C0.067,-0.313 0.049,-0.317 0.021,-0.317L0.021,-0.369L0.237,-0.405C0.243,-0.392 0.246,-0.373 0.247,-0.346C0.269,-0.37 0.291,-0.387 0.315,-0.399C0.338,-0.41 0.363,-0.416 0.388,-0.416C0.434,-0.416 0.47,-0.403 0.496,-0.378C0.522,-0.353 0.535,-0.318 0.535,-0.274L0.535,-0.116C0.535,-0.091 0.539,-0.075 0.547,-0.065C0.555,-0.056 0.572,-0.052 0.599,-0.052L0.599,-0L0.327,-0L0.327,-0.052C0.34,-0.052 0.352,-0.056 0.361,-0.063C0.37,-0.071 0.375,-0.088 0.375,-0.116L0.375,-0.262C0.375,-0.289 0.371,-0.307 0.364,-0.317C0.357,-0.327 0.346,-0.332 0.333,-0.332C0.319,-0.332 0.305,-0.327 0.291,-0.317C0.276,-0.308 0.262,-0.294 0.247,-0.274Z" style="fill:rgb(33,37,41);fill-rule:nonzero;"/>
                </g>
                <g transform="matrix(20,0,0,20,96.3116,112.724)">
                    <path d="M0.049,0.016L0.046,-0.117L0.094,-0.117C0.119,-0.062 0.166,-0.034 0.233,-0.034C0.262,-0.034 0.285,-0.039 0.304,-0.049C0.322,-0.059 0.332,-0.07 0.332,-0.082C0.332,-0.093 0.326,-0.101 0.316,-0.107C0.306,-0.112 0.283,-0.119 0.247,-0.126C0.191,-0.138 0.149,-0.149 0.123,-0.159C0.096,-0.169 0.074,-0.185 0.058,-0.206C0.042,-0.228 0.034,-0.252 0.034,-0.279C0.034,-0.32 0.05,-0.353 0.083,-0.378C0.117,-0.403 0.161,-0.416 0.217,-0.416C0.26,-0.416 0.304,-0.408 0.348,-0.391C0.356,-0.398 0.362,-0.407 0.367,-0.416L0.407,-0.416L0.412,-0.295L0.373,-0.295C0.347,-0.345 0.298,-0.37 0.223,-0.37C0.198,-0.37 0.178,-0.366 0.163,-0.358C0.147,-0.35 0.139,-0.34 0.139,-0.327C0.139,-0.314 0.146,-0.305 0.158,-0.298C0.171,-0.292 0.201,-0.284 0.249,-0.275C0.299,-0.265 0.337,-0.255 0.362,-0.244C0.387,-0.234 0.407,-0.219 0.422,-0.198C0.436,-0.178 0.443,-0.155 0.443,-0.129C0.443,-0.086 0.424,-0.051 0.387,-0.024C0.349,0.003 0.302,0.016 0.247,0.016C0.204,0.016 0.159,0.007 0.113,-0.011C0.104,-0.005 0.097,0.004 0.093,0.016L0.049,0.016Z" style="fill:rgb(33,37,41);fill-rule:nonzero;"/>
                </g>
                <g transform="matrix(20,0,0,20,105.892,112.724)">
                    <rect x="0.03" y="-0.265" width="0.289" height="0.132" style="fill:rgb(33,37,41);fill-rule:nonzero;"/>
                </g>
                <g transform="matrix(20,0,0,20,112.767,112.724)">
                    <path d="M0.055,-0.011L0.055,-0.238L0.114,-0.238C0.13,-0.17 0.154,-0.122 0.187,-0.093C0.22,-0.064 0.255,-0.049 0.292,-0.049C0.32,-0.049 0.343,-0.058 0.359,-0.074C0.376,-0.091 0.384,-0.11 0.384,-0.133C0.384,-0.149 0.379,-0.165 0.369,-0.181C0.358,-0.197 0.333,-0.214 0.294,-0.234C0.219,-0.271 0.168,-0.299 0.142,-0.316C0.116,-0.334 0.095,-0.356 0.079,-0.383C0.063,-0.411 0.055,-0.442 0.055,-0.478C0.055,-0.535 0.075,-0.581 0.116,-0.618C0.157,-0.655 0.204,-0.674 0.258,-0.674C0.314,-0.674 0.362,-0.655 0.401,-0.617C0.408,-0.627 0.413,-0.642 0.417,-0.662L0.474,-0.662L0.474,-0.467L0.419,-0.467C0.409,-0.51 0.391,-0.546 0.363,-0.574C0.336,-0.602 0.305,-0.616 0.271,-0.616C0.245,-0.616 0.225,-0.609 0.21,-0.594C0.195,-0.58 0.187,-0.562 0.187,-0.541C0.187,-0.524 0.192,-0.509 0.202,-0.494C0.211,-0.48 0.225,-0.469 0.241,-0.459C0.258,-0.45 0.293,-0.433 0.347,-0.408C0.395,-0.385 0.431,-0.365 0.454,-0.347C0.477,-0.329 0.495,-0.306 0.509,-0.279C0.522,-0.252 0.529,-0.222 0.529,-0.191C0.529,-0.132 0.507,-0.084 0.464,-0.045C0.421,-0.006 0.369,0.014 0.309,0.014C0.275,0.014 0.241,0.007 0.209,-0.008C0.176,-0.022 0.15,-0.041 0.13,-0.065C0.123,-0.05 0.117,-0.032 0.114,-0.011L0.055,-0.011Z" style="fill:rgb(33,37,41);fill-rule:nonzero;"/>
                </g>
                <g transform="matrix(20,0,0,20,124.017,112.724)">
                    <path d="M0.213,-0.205C0.213,-0.152 0.222,-0.112 0.24,-0.085C0.259,-0.058 0.286,-0.045 0.322,-0.045C0.36,-0.045 0.396,-0.064 0.428,-0.104L0.473,-0.076C0.455,-0.049 0.428,-0.027 0.393,-0.01C0.359,0.007 0.32,0.016 0.278,0.016C0.214,0.016 0.159,-0.003 0.113,-0.043C0.067,-0.082 0.044,-0.135 0.044,-0.202C0.044,-0.268 0.066,-0.321 0.111,-0.359C0.155,-0.397 0.208,-0.416 0.271,-0.416C0.334,-0.416 0.385,-0.399 0.426,-0.364C0.466,-0.329 0.486,-0.276 0.486,-0.205L0.213,-0.205ZM0.213,-0.254L0.336,-0.254C0.334,-0.326 0.313,-0.362 0.273,-0.362C0.253,-0.362 0.238,-0.353 0.228,-0.335C0.218,-0.317 0.213,-0.29 0.213,-0.254Z" style="fill:rgb(33,37,41);fill-rule:nonzero;"/>
                </g>
                <g transform="matrix(20,0,0,20,134.437,112.724)">
                    <path d="M0.242,-0.315C0.261,-0.349 0.283,-0.374 0.307,-0.391C0.331,-0.408 0.357,-0.416 0.386,-0.416C0.414,-0.416 0.435,-0.407 0.449,-0.39C0.464,-0.372 0.471,-0.354 0.471,-0.333C0.471,-0.314 0.465,-0.297 0.454,-0.284C0.442,-0.27 0.426,-0.263 0.406,-0.263C0.395,-0.263 0.386,-0.265 0.378,-0.27C0.371,-0.274 0.362,-0.283 0.35,-0.296C0.338,-0.309 0.326,-0.315 0.312,-0.315C0.291,-0.315 0.275,-0.302 0.264,-0.277C0.254,-0.251 0.249,-0.212 0.249,-0.16L0.249,-0.117C0.249,-0.093 0.252,-0.076 0.26,-0.066C0.267,-0.057 0.285,-0.052 0.312,-0.052L0.321,-0.052L0.321,-0L0.025,-0L0.025,-0.052C0.053,-0.052 0.071,-0.056 0.079,-0.066C0.086,-0.075 0.09,-0.092 0.09,-0.117L0.09,-0.256C0.09,-0.281 0.086,-0.298 0.078,-0.307C0.071,-0.317 0.053,-0.321 0.024,-0.321L0.024,-0.373L0.227,-0.416C0.236,-0.39 0.241,-0.356 0.242,-0.315Z" style="fill:rgb(33,37,41);fill-rule:nonzero;"/>
                </g>
                <g transform="matrix(20,0,0,20,144.017,112.724)">
                    <path d="M0.085,-0.585C0.085,-0.61 0.094,-0.63 0.111,-0.648C0.129,-0.665 0.149,-0.674 0.173,-0.674C0.198,-0.674 0.218,-0.665 0.235,-0.648C0.252,-0.631 0.261,-0.61 0.261,-0.585C0.261,-0.561 0.252,-0.54 0.235,-0.523C0.218,-0.506 0.197,-0.497 0.173,-0.497C0.148,-0.497 0.127,-0.506 0.111,-0.524C0.094,-0.541 0.085,-0.562 0.085,-0.585ZM0.25,-0.416L0.25,-0.117C0.25,-0.092 0.254,-0.075 0.262,-0.066C0.27,-0.056 0.288,-0.052 0.316,-0.052L0.316,-0L0.018,-0L0.018,-0.052L0.029,-0.052C0.056,-0.052 0.074,-0.057 0.081,-0.066C0.089,-0.076 0.092,-0.093 0.092,-0.117L0.092,-0.262C0.092,-0.286 0.089,-0.303 0.081,-0.313C0.074,-0.322 0.056,-0.327 0.029,-0.327L0.018,-0.327L0.018,-0.379L0.25,-0.416Z" style="fill:rgb(33,37,41);fill-rule:nonzero;"/>
                </g>
                <g transform="matrix(20,0,0,20,150.687,112.724)">
                    <path d="M0.253,-0.347L0.253,-0.117C0.253,-0.093 0.257,-0.076 0.265,-0.066C0.272,-0.057 0.289,-0.052 0.316,-0.052L0.342,-0.052L0.342,-0L0.015,-0L0.015,-0.052L0.032,-0.052C0.06,-0.052 0.077,-0.057 0.084,-0.066C0.092,-0.076 0.095,-0.093 0.095,-0.117L0.095,-0.347L0.015,-0.347L0.015,-0.4L0.095,-0.4C0.095,-0.452 0.097,-0.491 0.101,-0.518C0.105,-0.545 0.116,-0.57 0.133,-0.594C0.151,-0.619 0.176,-0.638 0.208,-0.653C0.239,-0.667 0.278,-0.674 0.322,-0.674C0.374,-0.674 0.413,-0.666 0.439,-0.648C0.465,-0.63 0.479,-0.608 0.479,-0.581C0.479,-0.561 0.471,-0.545 0.457,-0.531C0.443,-0.516 0.426,-0.509 0.406,-0.509C0.368,-0.509 0.342,-0.534 0.33,-0.583C0.324,-0.607 0.312,-0.619 0.294,-0.619C0.28,-0.619 0.269,-0.611 0.263,-0.596C0.257,-0.581 0.253,-0.555 0.253,-0.519L0.253,-0.4L0.342,-0.4L0.342,-0.347L0.253,-0.347Z" style="fill:rgb(33,37,41);fill-rule:nonzero;"/>
                </g>
            </g>
            <g transform="matrix(0.848094,0,0,0.614342,185.911,-459.828)">
                <g transform="matrix(20,0,0,20,69.4934,52.724)">
                    <path d="M0.189,-0L0.024,-0L0.275,-0.727L0.473,-0.727L0.724,-0L0.559,-0L0.377,-0.561L0.371,-0.561L0.189,-0ZM0.178,-0.286L0.568,-0.286L0.568,-0.166L0.178,-0.166L0.178,-0.286Z" style="fill:rgb(33,37,41);fill-rule:nonzero;"/>
                </g>
                <g transform="matrix(20,0,0,20,83.0161,52.724)">
                    <rect x="0.061" y="-0.727" width="0.151" height="0.727" style="fill:rgb(33,37,41);fill-rule:nonzero;"/>
                </g>
                <g transform="matrix(20,0,0,20,87.7605,52.724)">
                    <rect x="0.061" y="-0.727" width="0.151" height="0.727" style="fill:rgb(33,37,41);fill-rule:nonzero;"/>
                </g>
                <g transform="matrix(20,0,0,20,98.1298,52.724)">
                    <path d="M0.287,-0.316L0.287,-0.135C0.287,-0.105 0.292,-0.084 0.303,-0.072C0.313,-0.06 0.335,-0.054 0.368,-0.054L0.381,-0.054L0.381,-0L0.025,-0L0.025,-0.054L0.035,-0.054C0.068,-0.054 0.089,-0.06 0.099,-0.073C0.109,-0.085 0.114,-0.106 0.114,-0.135L0.114,-0.528C0.114,-0.558 0.109,-0.579 0.098,-0.591C0.088,-0.603 0.067,-0.609 0.035,-0.609L0.023,-0.609L0.023,-0.662L0.578,-0.662L0.583,-0.487L0.527,-0.487C0.519,-0.517 0.509,-0.541 0.496,-0.56C0.483,-0.578 0.47,-0.59 0.457,-0.596C0.443,-0.601 0.422,-0.604 0.394,-0.604L0.287,-0.604L0.287,-0.375L0.339,-0.375C0.364,-0.375 0.381,-0.381 0.391,-0.391C0.4,-0.402 0.406,-0.424 0.409,-0.457L0.463,-0.457L0.463,-0.229L0.409,-0.229C0.407,-0.264 0.401,-0.288 0.392,-0.299C0.382,-0.31 0.364,-0.316 0.338,-0.316L0.287,-0.316Z" style="fill:rgb(33,37,41);fill-rule:nonzero;"/>
                </g>
                <g transform="matrix(20,0,0,20,109.8,52.724)">
                    <path d="M0.037,-0.201C0.037,-0.268 0.061,-0.321 0.108,-0.359C0.156,-0.397 0.213,-0.416 0.281,-0.416C0.347,-0.416 0.404,-0.398 0.453,-0.361C0.501,-0.324 0.526,-0.27 0.526,-0.201C0.526,-0.135 0.502,-0.082 0.454,-0.043C0.406,-0.003 0.348,0.016 0.28,0.016C0.214,0.016 0.157,-0.003 0.109,-0.04C0.061,-0.077 0.037,-0.131 0.037,-0.201ZM0.205,-0.206C0.205,-0.144 0.21,-0.1 0.222,-0.075C0.233,-0.05 0.254,-0.038 0.282,-0.038C0.305,-0.038 0.324,-0.048 0.338,-0.069C0.351,-0.09 0.358,-0.134 0.358,-0.202C0.358,-0.264 0.352,-0.306 0.34,-0.328C0.327,-0.35 0.308,-0.361 0.281,-0.361C0.26,-0.361 0.242,-0.351 0.227,-0.333C0.212,-0.314 0.205,-0.272 0.205,-0.206Z" style="fill:rgb(33,37,41);fill-rule:nonzero;"/>
                </g>
                <g transform="matrix(20,0,0,20,121.05,52.724)">
                    <path d="M0.247,-0.274L0.247,-0.116C0.247,-0.093 0.25,-0.077 0.257,-0.067C0.264,-0.057 0.276,-0.052 0.294,-0.052L0.294,-0L0.021,-0L0.021,-0.052C0.049,-0.052 0.067,-0.056 0.075,-0.065C0.083,-0.074 0.086,-0.091 0.086,-0.116L0.086,-0.252C0.086,-0.277 0.083,-0.294 0.075,-0.303C0.067,-0.313 0.049,-0.317 0.021,-0.317L0.021,-0.369L0.237,-0.405C0.243,-0.392 0.246,-0.373 0.247,-0.346C0.269,-0.37 0.291,-0.387 0.315,-0.399C0.338,-0.41 0.363,-0.416 0.388,-0.416C0.434,-0.416 0.47,-0.403 0.496,-0.378C0.522,-0.353 0.535,-0.318 0.535,-0.274L0.535,-0.116C0.535,-0.091 0.539,-0.075 0.547,-0.065C0.555,-0.056 0.572,-0.052 0.599,-0.052L0.599,-0L0.327,-0L0.327,-0.052C0.34,-0.052 0.352,-0.056 0.361,-0.063C0.37,-0.071 0.375,-0.088 0.375,-0.116L0.375,-0.262C0.375,-0.289 0.371,-0.307 0.364,-0.317C0.357,-0.327 0.346,-0.332 0.333,-0.332C0.319,-0.332 0.305,-0.327 0.291,-0.317C0.276,-0.308 0.262,-0.294 0.247,-0.274Z" style="fill:rgb(33,37,41);fill-rule:nonzero;"/>
                </g>
                <g transform="matrix(20,0,0,20,133.13,52.724)">
                    <path d="M0.236,-0.347L0.236,-0.139C0.236,-0.104 0.238,-0.081 0.243,-0.07C0.247,-0.058 0.257,-0.053 0.271,-0.053C0.292,-0.053 0.31,-0.066 0.323,-0.093L0.371,-0.077C0.346,-0.015 0.293,0.016 0.212,0.016C0.167,0.016 0.134,0.005 0.111,-0.016C0.089,-0.038 0.078,-0.07 0.078,-0.114L0.078,-0.347L0.02,-0.347L0.02,-0.4L0.032,-0.399C0.071,-0.399 0.105,-0.412 0.133,-0.437C0.161,-0.462 0.178,-0.494 0.184,-0.533L0.236,-0.533L0.236,-0.4L0.356,-0.4L0.356,-0.347L0.236,-0.347Z" style="fill:rgb(33,37,41);fill-rule:nonzero;"/>
                </g>
                <g transform="matrix(20,0,0,20,140.425,52.724)">
                    <path d="M0.049,0.016L0.046,-0.117L0.094,-0.117C0.119,-0.062 0.166,-0.034 0.233,-0.034C0.262,-0.034 0.285,-0.039 0.304,-0.049C0.322,-0.059 0.332,-0.07 0.332,-0.082C0.332,-0.093 0.326,-0.101 0.316,-0.107C0.306,-0.112 0.283,-0.119 0.247,-0.126C0.191,-0.138 0.149,-0.149 0.123,-0.159C0.096,-0.169 0.074,-0.185 0.058,-0.206C0.042,-0.228 0.034,-0.252 0.034,-0.279C0.034,-0.32 0.05,-0.353 0.083,-0.378C0.117,-0.403 0.161,-0.416 0.217,-0.416C0.26,-0.416 0.304,-0.408 0.348,-0.391C0.356,-0.398 0.362,-0.407 0.367,-0.416L0.407,-0.416L0.412,-0.295L0.373,-0.295C0.347,-0.345 0.298,-0.37 0.223,-0.37C0.198,-0.37 0.178,-0.366 0.163,-0.358C0.147,-0.35 0.139,-0.34 0.139,-0.327C0.139,-0.314 0.146,-0.305 0.158,-0.298C0.171,-0.292 0.201,-0.284 0.249,-0.275C0.299,-0.265 0.337,-0.255 0.362,-0.244C0.387,-0.234 0.407,-0.219 0.422,-0.198C0.436,-0.178 0.443,-0.155 0.443,-0.129C0.443,-0.086 0.424,-0.051 0.387,-0.024C0.349,0.003 0.302,0.016 0.247,0.016C0.204,0.016 0.159,0.007 0.113,-0.011C0.104,-0.005 0.097,0.004 0.093,0.016L0.049,0.016Z" style="fill:rgb(33,37,41);fill-rule:nonzero;"/>
                </g>
                <g transform="matrix(20,0,0,20,64.4002,82.724)">
                    <path d="M0.514,-0.39L0.376,-0.382C0.373,-0.393 0.368,-0.404 0.361,-0.413C0.353,-0.423 0.343,-0.431 0.33,-0.437C0.317,-0.442 0.302,-0.445 0.284,-0.445C0.261,-0.445 0.241,-0.44 0.225,-0.43C0.209,-0.421 0.201,-0.408 0.201,-0.391C0.201,-0.378 0.206,-0.367 0.217,-0.358C0.227,-0.349 0.245,-0.342 0.27,-0.337L0.369,-0.317C0.422,-0.306 0.462,-0.288 0.488,-0.264C0.514,-0.24 0.527,-0.208 0.527,-0.169C0.527,-0.133 0.516,-0.102 0.495,-0.075C0.474,-0.048 0.446,-0.027 0.409,-0.012C0.373,0.003 0.331,0.011 0.284,0.011C0.212,0.011 0.154,-0.005 0.111,-0.035C0.068,-0.065 0.044,-0.106 0.036,-0.158L0.185,-0.166C0.19,-0.144 0.2,-0.127 0.218,-0.116C0.235,-0.104 0.257,-0.098 0.284,-0.098C0.311,-0.098 0.332,-0.103 0.348,-0.114C0.364,-0.124 0.373,-0.137 0.373,-0.154C0.373,-0.168 0.367,-0.179 0.356,-0.188C0.344,-0.197 0.327,-0.203 0.303,-0.208L0.209,-0.227C0.155,-0.238 0.116,-0.256 0.09,-0.282C0.064,-0.309 0.051,-0.342 0.051,-0.383C0.051,-0.418 0.06,-0.448 0.079,-0.473C0.098,-0.499 0.125,-0.518 0.16,-0.532C0.195,-0.546 0.235,-0.553 0.282,-0.553C0.351,-0.553 0.405,-0.538 0.445,-0.509C0.484,-0.48 0.508,-0.44 0.514,-0.39Z" style="fill:rgb(33,37,41);fill-rule:nonzero;"/>
                </g>
                <g transform="matrix(20,0,0,20,74.8547,82.724)">
                    <path d="M0.212,-0.315L0.212,-0L0.061,-0L0.061,-0.727L0.207,-0.727L0.207,-0.449L0.214,-0.449C0.226,-0.481 0.246,-0.507 0.274,-0.525C0.301,-0.543 0.335,-0.553 0.377,-0.553C0.415,-0.553 0.448,-0.544 0.476,-0.528C0.504,-0.511 0.526,-0.488 0.542,-0.457C0.558,-0.427 0.565,-0.39 0.565,-0.347L0.565,-0L0.414,-0L0.414,-0.32C0.414,-0.354 0.406,-0.38 0.389,-0.399C0.372,-0.418 0.348,-0.427 0.317,-0.427C0.296,-0.427 0.278,-0.423 0.262,-0.414C0.246,-0.405 0.234,-0.392 0.225,-0.376C0.216,-0.359 0.212,-0.339 0.212,-0.315Z" style="fill:rgb(33,37,41);fill-rule:nonzero;"/>
                </g>
                <g transform="matrix(20,0,0,20,86.6729,82.724)">
                    <path d="M0.307,0.011C0.252,0.011 0.204,-0.001 0.164,-0.025C0.124,-0.048 0.093,-0.081 0.071,-0.123C0.049,-0.166 0.038,-0.215 0.038,-0.271C0.038,-0.327 0.049,-0.376 0.071,-0.419C0.093,-0.461 0.124,-0.494 0.164,-0.517C0.204,-0.541 0.252,-0.553 0.307,-0.553C0.362,-0.553 0.41,-0.541 0.45,-0.517C0.49,-0.494 0.521,-0.461 0.543,-0.419C0.564,-0.376 0.575,-0.327 0.575,-0.271C0.575,-0.215 0.564,-0.166 0.543,-0.123C0.521,-0.081 0.49,-0.048 0.45,-0.025C0.41,-0.001 0.362,0.011 0.307,0.011ZM0.308,-0.107C0.333,-0.107 0.353,-0.114 0.37,-0.128C0.387,-0.142 0.4,-0.162 0.409,-0.187C0.417,-0.212 0.422,-0.24 0.422,-0.272C0.422,-0.303 0.417,-0.332 0.409,-0.357C0.4,-0.381 0.387,-0.401 0.37,-0.416C0.353,-0.43 0.333,-0.437 0.308,-0.437C0.282,-0.437 0.261,-0.43 0.244,-0.416C0.226,-0.401 0.214,-0.381 0.205,-0.357C0.196,-0.332 0.192,-0.303 0.192,-0.272C0.192,-0.24 0.196,-0.212 0.205,-0.187C0.214,-0.162 0.226,-0.142 0.244,-0.128C0.261,-0.114 0.282,-0.107 0.308,-0.107Z" style="fill:rgb(33,37,41);fill-rule:nonzero;"/>
                </g>
                <g transform="matrix(20,0,0,20,98.6047,82.724)">
                    <path d="M0.41,-0.232L0.41,-0.545L0.561,-0.545L0.561,-0L0.416,-0L0.416,-0.099L0.411,-0.099C0.398,-0.067 0.378,-0.041 0.349,-0.022C0.321,-0.003 0.286,0.007 0.245,0.007C0.209,0.007 0.177,-0.001 0.149,-0.018C0.121,-0.034 0.099,-0.058 0.084,-0.088C0.068,-0.119 0.061,-0.156 0.061,-0.198L0.061,-0.545L0.212,-0.545L0.212,-0.225C0.212,-0.193 0.22,-0.167 0.238,-0.149C0.255,-0.13 0.278,-0.121 0.306,-0.121C0.324,-0.121 0.341,-0.125 0.357,-0.133C0.373,-0.142 0.386,-0.154 0.396,-0.171C0.406,-0.187 0.41,-0.208 0.41,-0.232Z" style="fill:rgb(33,37,41);fill-rule:nonzero;"/>
                </g>
                <g transform="matrix(20,0,0,20,110.224,82.724)">
                    <rect x="0.061" y="-0.727" width="0.151" height="0.727" style="fill:rgb(33,37,41);fill-rule:nonzero;"/>
                </g>
                <g transform="matrix(20,0,0,20,114.968,82.724)">
                    <path d="M0.261,0.009C0.22,0.009 0.182,-0.002 0.149,-0.023C0.116,-0.045 0.089,-0.076 0.069,-0.118C0.05,-0.16 0.04,-0.211 0.04,-0.272C0.04,-0.335 0.05,-0.387 0.07,-0.428C0.09,-0.47 0.117,-0.501 0.151,-0.522C0.184,-0.542 0.221,-0.553 0.261,-0.553C0.291,-0.553 0.317,-0.547 0.337,-0.537C0.358,-0.527 0.375,-0.514 0.387,-0.499C0.4,-0.484 0.409,-0.469 0.416,-0.454L0.421,-0.454L0.421,-0.727L0.572,-0.727L0.572,-0L0.423,-0L0.423,-0.087L0.416,-0.087C0.409,-0.072 0.399,-0.057 0.386,-0.043C0.373,-0.028 0.356,-0.016 0.336,-0.006C0.316,0.004 0.291,0.009 0.261,0.009ZM0.309,-0.112C0.334,-0.112 0.354,-0.118 0.371,-0.132C0.388,-0.145 0.401,-0.164 0.41,-0.188C0.419,-0.212 0.424,-0.24 0.424,-0.273C0.424,-0.305 0.419,-0.333 0.41,-0.357C0.402,-0.381 0.389,-0.399 0.372,-0.413C0.355,-0.426 0.334,-0.432 0.309,-0.432C0.284,-0.432 0.263,-0.425 0.246,-0.412C0.229,-0.399 0.216,-0.38 0.208,-0.356C0.199,-0.332 0.195,-0.304 0.195,-0.273C0.195,-0.241 0.199,-0.213 0.208,-0.189C0.217,-0.165 0.23,-0.146 0.247,-0.132C0.264,-0.118 0.285,-0.112 0.309,-0.112Z" style="fill:rgb(33,37,41);fill-rule:nonzero;"/>
                </g>
                <g transform="matrix(20,0,0,20,132.383,82.724)">
                    <path d="M0.207,-0.06L0.12,0.011L0.079,0.011L0.079,-0.523C0.079,-0.548 0.075,-0.565 0.068,-0.574C0.06,-0.584 0.042,-0.588 0.013,-0.588L0.013,-0.64L0.237,-0.674L0.237,-0.366C0.259,-0.383 0.281,-0.395 0.304,-0.404C0.327,-0.412 0.351,-0.416 0.376,-0.416C0.432,-0.416 0.48,-0.397 0.52,-0.358C0.559,-0.319 0.579,-0.268 0.579,-0.205C0.579,-0.139 0.559,-0.087 0.518,-0.047C0.478,-0.008 0.429,0.012 0.372,0.012C0.341,0.012 0.312,0.006 0.284,-0.006C0.257,-0.018 0.231,-0.036 0.207,-0.06ZM0.237,-0.11C0.251,-0.092 0.265,-0.078 0.28,-0.069C0.295,-0.059 0.311,-0.055 0.327,-0.055C0.355,-0.055 0.376,-0.067 0.39,-0.091C0.404,-0.116 0.411,-0.152 0.411,-0.201C0.411,-0.25 0.404,-0.287 0.391,-0.311C0.377,-0.335 0.356,-0.347 0.329,-0.347C0.313,-0.347 0.297,-0.343 0.281,-0.335C0.266,-0.327 0.251,-0.315 0.237,-0.299L0.237,-0.11Z" style="fill:rgb(33,37,41);fill-rule:nonzero;"/>
                </g>
                <g transform="matrix(20,0,0,20,144.678,82.724)">
                    <path d="M0.213,-0.205C0.213,-0.152 0.222,-0.112 0.24,-0.085C0.259,-0.058 0.286,-0.045 0.322,-0.045C0.36,-0.045 0.396,-0.064 0.428,-0.104L0.473,-0.076C0.455,-0.049 0.428,-0.027 0.393,-0.01C0.359,0.007 0.32,0.016 0.278,0.016C0.214,0.016 0.159,-0.003 0.113,-0.043C0.067,-0.082 0.044,-0.135 0.044,-0.202C0.044,-0.268 0.066,-0.321 0.111,-0.359C0.155,-0.397 0.208,-0.416 0.271,-0.416C0.334,-0.416 0.385,-0.399 0.426,-0.364C0.466,-0.329 0.486,-0.276 0.486,-0.205L0.213,-0.205ZM0.213,-0.254L0.336,-0.254C0.334,-0.326 0.313,-0.362 0.273,-0.362C0.253,-0.362 0.238,-0.353 0.228,-0.335C0.218,-0.317 0.213,-0.29 0.213,-0.254Z" style="fill:rgb(33,37,41);fill-rule:nonzero;"/>
                </g>
                <g transform="matrix(20,0,0,20,68.4849,112.724)">
                    <path d="M0.061,-0L0.061,-0.545L0.207,-0.545L0.207,-0.45L0.213,-0.45C0.223,-0.484 0.239,-0.51 0.263,-0.527C0.286,-0.544 0.313,-0.553 0.344,-0.553C0.351,-0.553 0.359,-0.553 0.368,-0.552C0.377,-0.551 0.385,-0.55 0.391,-0.548L0.391,-0.414C0.384,-0.416 0.374,-0.418 0.362,-0.419C0.349,-0.421 0.338,-0.422 0.327,-0.422C0.305,-0.422 0.285,-0.417 0.268,-0.407C0.25,-0.398 0.237,-0.385 0.227,-0.368C0.217,-0.351 0.212,-0.331 0.212,-0.309L0.212,-0L0.061,-0Z" style="fill:rgb(33,37,41);fill-rule:nonzero;"/>
                </g>
                <g transform="matrix(20,0,0,20,75.5872,112.724)">
                    <path d="M0.309,0.011C0.253,0.011 0.205,-0.001 0.164,-0.024C0.124,-0.046 0.093,-0.079 0.071,-0.121C0.049,-0.163 0.038,-0.213 0.038,-0.27C0.038,-0.326 0.049,-0.376 0.071,-0.418C0.093,-0.46 0.124,-0.493 0.163,-0.517C0.203,-0.541 0.249,-0.553 0.303,-0.553C0.339,-0.553 0.373,-0.547 0.404,-0.535C0.435,-0.524 0.462,-0.507 0.485,-0.484C0.509,-0.461 0.527,-0.432 0.54,-0.397C0.553,-0.362 0.559,-0.322 0.559,-0.276L0.559,-0.234L0.099,-0.234L0.099,-0.328L0.417,-0.328C0.417,-0.35 0.412,-0.369 0.403,-0.386C0.393,-0.402 0.38,-0.416 0.363,-0.425C0.347,-0.435 0.327,-0.44 0.305,-0.44C0.283,-0.44 0.262,-0.434 0.245,-0.424C0.227,-0.413 0.213,-0.399 0.203,-0.381C0.193,-0.364 0.188,-0.344 0.188,-0.323L0.188,-0.234C0.188,-0.207 0.193,-0.183 0.203,-0.164C0.213,-0.144 0.227,-0.129 0.246,-0.118C0.264,-0.108 0.286,-0.102 0.311,-0.102C0.328,-0.102 0.344,-0.105 0.358,-0.109C0.371,-0.114 0.383,-0.121 0.393,-0.131C0.404,-0.14 0.411,-0.152 0.416,-0.165L0.556,-0.156C0.549,-0.123 0.534,-0.093 0.513,-0.068C0.491,-0.043 0.463,-0.024 0.428,-0.01C0.394,0.004 0.354,0.011 0.309,0.011Z" style="fill:rgb(33,37,41);fill-rule:nonzero;"/>
                </g>
                <g transform="matrix(20,0,0,20,87.2349,112.724)">
                    <path d="M0.216,0.01C0.181,0.01 0.15,0.004 0.123,-0.008C0.096,-0.02 0.074,-0.038 0.059,-0.062C0.043,-0.086 0.035,-0.116 0.035,-0.152C0.035,-0.183 0.04,-0.208 0.051,-0.229C0.063,-0.249 0.078,-0.266 0.097,-0.278C0.116,-0.291 0.138,-0.3 0.162,-0.307C0.187,-0.313 0.213,-0.318 0.24,-0.32C0.271,-0.324 0.297,-0.327 0.316,-0.33C0.336,-0.333 0.35,-0.337 0.359,-0.343C0.367,-0.349 0.372,-0.358 0.372,-0.369L0.372,-0.371C0.372,-0.394 0.365,-0.411 0.351,-0.424C0.336,-0.436 0.317,-0.442 0.291,-0.442C0.264,-0.442 0.242,-0.436 0.226,-0.424C0.21,-0.412 0.199,-0.397 0.194,-0.379L0.054,-0.391C0.061,-0.424 0.075,-0.452 0.096,-0.477C0.117,-0.501 0.144,-0.52 0.177,-0.533C0.21,-0.546 0.248,-0.553 0.291,-0.553C0.322,-0.553 0.351,-0.549 0.379,-0.542C0.407,-0.535 0.431,-0.524 0.453,-0.509C0.474,-0.494 0.492,-0.475 0.504,-0.452C0.517,-0.428 0.523,-0.4 0.523,-0.368L0.523,-0L0.38,-0L0.38,-0.076L0.375,-0.076C0.366,-0.059 0.355,-0.044 0.34,-0.031C0.326,-0.018 0.308,-0.008 0.287,-0.001C0.267,0.007 0.243,0.01 0.216,0.01ZM0.259,-0.094C0.282,-0.094 0.301,-0.098 0.318,-0.107C0.335,-0.116 0.349,-0.128 0.358,-0.144C0.368,-0.159 0.373,-0.176 0.373,-0.195L0.373,-0.253C0.368,-0.25 0.362,-0.247 0.354,-0.245C0.345,-0.242 0.336,-0.24 0.326,-0.238C0.316,-0.236 0.306,-0.234 0.296,-0.233C0.285,-0.231 0.276,-0.23 0.268,-0.228C0.25,-0.226 0.235,-0.222 0.221,-0.216C0.208,-0.21 0.198,-0.203 0.19,-0.193C0.183,-0.183 0.179,-0.172 0.179,-0.157C0.179,-0.137 0.187,-0.121 0.202,-0.11C0.217,-0.099 0.236,-0.094 0.259,-0.094Z" style="fill:rgb(33,37,41);fill-rule:nonzero;"/>
                </g>
                <g transform="matrix(20,0,0,20,98.5133,112.724)">
                    <path d="M0.261,0.009C0.22,0.009 0.182,-0.002 0.149,-0.023C0.116,-0.045 0.089,-0.076 0.069,-0.118C0.05,-0.16 0.04,-0.211 0.04,-0.272C0.04,-0.335 0.05,-0.387 0.07,-0.428C0.09,-0.47 0.117,-0.501 0.151,-0.522C0.184,-0.542 0.221,-0.553 0.261,-0.553C0.291,-0.553 0.317,-0.547 0.337,-0.537C0.358,-0.527 0.375,-0.514 0.387,-0.499C0.4,-0.484 0.409,-0.469 0.416,-0.454L0.421,-0.454L0.421,-0.727L0.572,-0.727L0.572,-0L0.423,-0L0.423,-0.087L0.416,-0.087C0.409,-0.072 0.399,-0.057 0.386,-0.043C0.373,-0.028 0.356,-0.016 0.336,-0.006C0.316,0.004 0.291,0.009 0.261,0.009ZM0.309,-0.112C0.334,-0.112 0.354,-0.118 0.371,-0.132C0.388,-0.145 0.401,-0.164 0.41,-0.188C0.419,-0.212 0.424,-0.24 0.424,-0.273C0.424,-0.305 0.419,-0.333 0.41,-0.357C0.402,-0.381 0.389,-0.399 0.372,-0.413C0.355,-0.426 0.334,-0.432 0.309,-0.432C0.284,-0.432 0.263,-0.425 0.246,-0.412C0.229,-0.399 0.216,-0.38 0.208,-0.356C0.199,-0.332 0.195,-0.304 0.195,-0.273C0.195,-0.241 0.199,-0.213 0.208,-0.189C0.217,-0.165 0.23,-0.146 0.247,-0.132C0.264,-0.118 0.285,-0.112 0.309,-0.112Z" style="fill:rgb(33,37,41);fill-rule:nonzero;"/>
                </g>
                <g transform="matrix(20,0,0,20,110.928,112.724)">
                    <path d="M0.216,0.01C0.181,0.01 0.15,0.004 0.123,-0.008C0.096,-0.02 0.074,-0.038 0.059,-0.062C0.043,-0.086 0.035,-0.116 0.035,-0.152C0.035,-0.183 0.04,-0.208 0.051,-0.229C0.063,-0.249 0.078,-0.266 0.097,-0.278C0.116,-0.291 0.138,-0.3 0.162,-0.307C0.187,-0.313 0.213,-0.318 0.24,-0.32C0.271,-0.324 0.297,-0.327 0.316,-0.33C0.336,-0.333 0.35,-0.337 0.359,-0.343C0.367,-0.349 0.372,-0.358 0.372,-0.369L0.372,-0.371C0.372,-0.394 0.365,-0.411 0.351,-0.424C0.336,-0.436 0.317,-0.442 0.291,-0.442C0.264,-0.442 0.242,-0.436 0.226,-0.424C0.21,-0.412 0.199,-0.397 0.194,-0.379L0.054,-0.391C0.061,-0.424 0.075,-0.452 0.096,-0.477C0.117,-0.501 0.144,-0.52 0.177,-0.533C0.21,-0.546 0.248,-0.553 0.291,-0.553C0.322,-0.553 0.351,-0.549 0.379,-0.542C0.407,-0.535 0.431,-0.524 0.453,-0.509C0.474,-0.494 0.492,-0.475 0.504,-0.452C0.517,-0.428 0.523,-0.4 0.523,-0.368L0.523,-0L0.38,-0L0.38,-0.076L0.375,-0.076C0.366,-0.059 0.355,-0.044 0.34,-0.031C0.326,-0.018 0.308,-0.008 0.287,-0.001C0.267,0.007 0.243,0.01 0.216,0.01ZM0.259,-0.094C0.282,-0.094 0.301,-0.098 0.318,-0.107C0.335,-0.116 0.349,-0.128 0.358,-0.144C0.368,-0.159 0.373,-0.176 0.373,-0.195L0.373,-0.253C0.368,-0.25 0.362,-0.247 0.354,-0.245C0.345,-0.242 0.336,-0.24 0.326,-0.238C0.316,-0.236 0.306,-0.234 0.296,-0.233C0.285,-0.231 0.276,-0.23 0.268,-0.228C0.25,-0.226 0.235,-0.222 0.221,-0.216C0.208,-0.21 0.198,-0.203 0.19,-0.193C0.183,-0.183 0.179,-0.172 0.179,-0.157C0.179,-0.137 0.187,-0.121 0.202,-0.11C0.217,-0.099 0.236,-0.094 0.259,-0.094Z" style="fill:rgb(33,37,41);fill-rule:nonzero;"/>
                </g>
                <g transform="matrix(20,0,0,20,122.206,112.724)">
                    <path d="M0.063,-0L0.063,-0.727L0.214,-0.727L0.214,-0.454L0.219,-0.454C0.226,-0.469 0.235,-0.484 0.248,-0.499C0.261,-0.514 0.277,-0.527 0.298,-0.537C0.318,-0.547 0.344,-0.553 0.374,-0.553C0.414,-0.553 0.451,-0.542 0.484,-0.522C0.518,-0.501 0.545,-0.47 0.565,-0.428C0.585,-0.387 0.595,-0.335 0.595,-0.272C0.595,-0.211 0.585,-0.16 0.566,-0.118C0.546,-0.076 0.52,-0.045 0.486,-0.023C0.453,-0.002 0.415,0.009 0.374,0.009C0.345,0.009 0.32,0.004 0.299,-0.006C0.279,-0.016 0.262,-0.028 0.249,-0.043C0.236,-0.057 0.226,-0.072 0.219,-0.087L0.212,-0.087L0.212,-0L0.063,-0ZM0.211,-0.273C0.211,-0.24 0.216,-0.212 0.225,-0.188C0.234,-0.164 0.247,-0.145 0.264,-0.132C0.281,-0.118 0.302,-0.112 0.326,-0.112C0.351,-0.112 0.372,-0.118 0.389,-0.132C0.406,-0.146 0.419,-0.165 0.427,-0.189C0.436,-0.213 0.441,-0.241 0.441,-0.273C0.441,-0.304 0.436,-0.332 0.428,-0.356C0.419,-0.38 0.406,-0.399 0.389,-0.412C0.372,-0.425 0.351,-0.432 0.326,-0.432C0.301,-0.432 0.281,-0.426 0.264,-0.413C0.247,-0.399 0.234,-0.381 0.225,-0.357C0.216,-0.333 0.211,-0.305 0.211,-0.273Z" style="fill:rgb(33,37,41);fill-rule:nonzero;"/>
                </g>
                <g transform="matrix(20,0,0,20,134.621,112.724)">
                    <rect x="0.061" y="-0.727" width="0.151" height="0.727" style="fill:rgb(33,37,41);fill-rule:nonzero;"/>
                </g>
                <g transform="matrix(20,0,0,20,139.366,112.724)">
                    <path d="M0.309,0.011C0.253,0.011 0.205,-0.001 0.164,-0.024C0.124,-0.046 0.093,-0.079 0.071,-0.121C0.049,-0.163 0.038,-0.213 0.038,-0.27C0.038,-0.326 0.049,-0.376 0.071,-0.418C0.093,-0.46 0.124,-0.493 0.163,-0.517C0.203,-0.541 0.249,-0.553 0.303,-0.553C0.339,-0.553 0.373,-0.547 0.404,-0.535C0.435,-0.524 0.462,-0.507 0.485,-0.484C0.509,-0.461 0.527,-0.432 0.54,-0.397C0.553,-0.362 0.559,-0.322 0.559,-0.276L0.559,-0.234L0.099,-0.234L0.099,-0.328L0.417,-0.328C0.417,-0.35 0.412,-0.369 0.403,-0.386C0.393,-0.402 0.38,-0.416 0.363,-0.425C0.347,-0.435 0.327,-0.44 0.305,-0.44C0.283,-0.44 0.262,-0.434 0.245,-0.424C0.227,-0.413 0.213,-0.399 0.203,-0.381C0.193,-0.364 0.188,-0.344 0.188,-0.323L0.188,-0.234C0.188,-0.207 0.193,-0.183 0.203,-0.164C0.213,-0.144 0.227,-0.129 0.246,-0.118C0.264,-0.108 0.286,-0.102 0.311,-0.102C0.328,-0.102 0.344,-0.105 0.358,-0.109C0.371,-0.114 0.383,-0.121 0.393,-0.131C0.404,-0.14 0.411,-0.152 0.416,-0.165L0.556,-0.156C0.549,-0.123 0.534,-0.093 0.513,-0.068C0.491,-0.043 0.463,-0.024 0.428,-0.01C0.394,0.004 0.354,0.011 0.309,0.011Z" style="fill:rgb(33,37,41);fill-rule:nonzero;"/>
                </g>
            </g>
        </g>
    </g>
</svg>
