<?xml version="1.0" encoding="UTF-8" standalone="no"?><!DOCTYPE svg PUBLIC "-//W3C//DTD SVG 1.1//EN" "http://www.w3.org/Graphics/SVG/1.1/DTD/svg11.dtd"><svg width="100%" height="100%" viewBox="0 0 1749 1241" version="1.1" xmlns="http://www.w3.org/2000/svg" xmlns:xlink="http://www.w3.org/1999/xlink" xml:space="preserve" xmlns:serif="http://www.serif.com/" style="fill-rule:evenodd;clip-rule:evenodd;stroke-linecap:round;stroke-linejoin:round;stroke-miterlimit:1.5;"><rect id="Artboard1" x="0" y="-0" width="1748.03" height="1240.16" style="fill:none;"/><clipPath id="_clip1"><rect x="0" y="-0" width="1748.03" height="1240.16"/></clipPath><g clip-path="url(#_clip1)"><g><rect x="0" y="0" width="1748.03" height="1240.16" style="fill:#ada7ff;"/><path d="M1548.46,259.368c0,-49.771 -40.407,-90.178 -90.178,-90.178l-1168.54,-0c-49.77,-0 -90.178,40.407 -90.178,90.178l0,721.425c0,49.771 40.408,90.179 90.178,90.179l1168.54,-0c49.771,-0 90.178,-40.408 90.178,-90.179l0,-721.425Z" style="fill:#fff;stroke:#212529;stroke-width:12.5px;"/></g><g><path d="M1242.26,913.829l18.75,18.75l-18.75,18.75" style="fill:none;stroke:#212529;stroke-width:12.5px;stroke-linejoin:miter;stroke-miterlimit:10;"/><path d="M561.516,932.579l699.494,-0" style="fill:none;stroke:#212529;stroke-width:12.5px;"/><path d="M542.766,251.834l18.75,-18.75l18.75,18.75" style="fill:none;stroke:#212529;stroke-width:12.5px;stroke-linejoin:miter;stroke-miterlimit:10;"/><path d="M561.516,932.579l-0,-699.495" style="fill:none;stroke:#212529;stroke-width:12.5px;"/><path d="M1011.93,467.682l13.258,0l0,13.258" style="fill:none;stroke:#212529;stroke-width:6.25px;stroke-linejoin:miter;stroke-miterlimit:10;"/><path d="M939.928,552.946c59.378,-59.379 78.867,-78.867 85.263,-85.264" style="fill:none;stroke:#212529;stroke-width:6.25px;"/><path d="M559.851,935.579l88.388,-88.388" style="fill:none;stroke:#212529;stroke-width:6.25px;"/></g><path d="M785.756,1008.5l-12.884,0l0,-36.364l12.997,0c3.656,0 6.804,0.725 9.445,2.175c2.641,1.451 4.674,3.531 6.1,6.243c1.427,2.712 2.14,5.957 2.14,9.736c-0,3.788 -0.714,7.042 -2.141,9.764c-1.428,2.721 -3.471,4.809 -6.13,6.264c-2.658,1.455 -5.834,2.182 -9.527,2.182Zm-5.199,-6.591l4.872,0c2.282,0 4.2,-0.406 5.755,-1.218c1.554,-0.812 2.726,-2.072 3.515,-3.782c0.79,-1.709 1.185,-3.916 1.185,-6.619c-0,-2.694 -0.396,-4.893 -1.188,-6.595c-0.792,-1.702 -1.962,-2.955 -3.509,-3.76c-1.547,-0.805 -3.457,-1.208 -5.73,-1.208l-4.9,0l-0,23.182Z" style="fill:#212529;fill-rule:nonzero;"/><path d="M808.66,1008.5l0,-27.273l7.564,0l0,27.273l-7.564,0Zm3.818,-30.788c-1.125,-0 -2.089,-0.376 -2.894,-1.128c-0.805,-0.751 -1.208,-1.654 -1.208,-2.708c0,-1.041 0.403,-1.938 1.208,-2.69c0.805,-0.751 1.764,-1.127 2.876,-1.127c1.137,-0 2.104,0.376 2.903,1.127c0.799,0.752 1.199,1.649 1.199,2.69c-0,1.054 -0.4,1.957 -1.199,2.708c-0.799,0.752 -1.761,1.128 -2.885,1.128Z" style="fill:#212529;fill-rule:nonzero;"/><path d="M843.213,988.998l-6.917,0.426c-0.124,-0.584 -0.379,-1.117 -0.768,-1.598c-0.388,-0.48 -0.9,-0.864 -1.535,-1.152c-0.636,-0.288 -1.393,-0.432 -2.271,-0.432c-1.172,0 -2.161,0.245 -2.966,0.736c-0.805,0.49 -1.204,1.14 -1.197,1.949c-0.007,0.658 0.25,1.211 0.769,1.659c0.52,0.447 1.414,0.808 2.683,1.083l4.944,0.994c2.651,0.542 4.626,1.416 5.924,2.623c1.299,1.206 1.952,2.794 1.959,4.763c-0.007,1.79 -0.532,3.359 -1.575,4.707c-1.043,1.349 -2.475,2.397 -4.297,3.147c-1.822,0.749 -3.913,1.124 -6.273,1.124c-3.612,-0 -6.488,-0.753 -8.627,-2.259c-2.139,-1.506 -3.387,-3.56 -3.745,-6.165l7.429,-0.397c0.229,1.105 0.775,1.945 1.635,2.519c0.861,0.574 1.968,0.861 3.322,0.861c1.321,0 2.388,-0.259 3.202,-0.777c0.813,-0.519 1.223,-1.183 1.23,-1.993c-0.007,-0.691 -0.294,-1.258 -0.861,-1.701c-0.567,-0.442 -1.445,-0.784 -2.633,-1.026l-4.716,-0.937c-2.668,-0.528 -4.651,-1.45 -5.948,-2.767c-1.297,-1.316 -1.943,-2.993 -1.935,-5.032c-0.008,-1.752 0.467,-3.26 1.422,-4.526c0.955,-1.265 2.301,-2.24 4.037,-2.926c1.737,-0.685 3.766,-1.028 6.089,-1.028c3.444,0 6.159,0.727 8.144,2.181c1.985,1.453 3.144,3.435 3.475,5.944Z" style="fill:#212529;fill-rule:nonzero;"/><path d="M861.168,981.228l-0,5.682l-16.435,0l-0,-5.682l16.435,0Zm-12.699,-6.534l7.556,0l0,25.419c0,0.701 0.109,1.245 0.327,1.632c0.218,0.387 0.519,0.657 0.902,0.81c0.384,0.152 0.827,0.229 1.328,0.229c0.363,-0 0.722,-0.032 1.078,-0.096c0.356,-0.064 0.627,-0.117 0.812,-0.16l1.193,5.639c-0.377,0.121 -0.91,0.261 -1.6,0.419c-0.69,0.159 -1.525,0.256 -2.505,0.292c-1.823,0.071 -3.419,-0.172 -4.787,-0.727c-1.369,-0.555 -2.432,-1.421 -3.189,-2.597c-0.758,-1.177 -1.129,-2.654 -1.115,-4.432l-0,-26.428Z" style="fill:#212529;fill-rule:nonzero;"/><path d="M872.617,1009.01c-1.736,0 -3.285,-0.303 -4.647,-0.91c-1.363,-0.608 -2.437,-1.513 -3.223,-2.715c-0.786,-1.203 -1.179,-2.703 -1.179,-4.5c0,-1.519 0.276,-2.793 0.828,-3.819c0.551,-1.026 1.307,-1.853 2.265,-2.48c0.959,-0.628 2.052,-1.103 3.28,-1.428c1.227,-0.324 2.517,-0.552 3.869,-0.682c1.579,-0.156 2.854,-0.308 3.826,-0.456c0.972,-0.148 1.678,-0.37 2.118,-0.668c0.441,-0.297 0.661,-0.736 0.661,-1.319l-0,-0.099c-0,-1.127 -0.354,-1.998 -1.062,-2.614c-0.708,-0.615 -1.703,-0.923 -2.986,-0.923c-1.362,-0 -2.445,0.298 -3.252,0.893c-0.806,0.595 -1.337,1.344 -1.592,2.246l-7.003,-0.568c0.355,-1.657 1.053,-3.093 2.093,-4.306c1.041,-1.213 2.387,-2.148 4.04,-2.805c1.652,-0.657 3.566,-0.986 5.742,-0.986c1.522,0 2.977,0.178 4.364,0.535c1.388,0.356 2.622,0.905 3.704,1.647c1.082,0.742 1.937,1.697 2.566,2.862c0.628,1.166 0.943,2.563 0.943,4.189l-0,18.395l-7.174,0l0,-3.778l-0.213,-0c-0.44,0.847 -1.025,1.594 -1.756,2.24c-0.73,0.647 -1.612,1.15 -2.645,1.51c-1.034,0.359 -2.223,0.539 -3.567,0.539Zm2.173,-5.213c1.11,0 2.091,-0.222 2.942,-0.667c0.851,-0.445 1.518,-1.048 2.001,-1.808c0.483,-0.76 0.725,-1.616 0.725,-2.567l-0,-2.898c-0.228,0.149 -0.548,0.286 -0.961,0.412c-0.413,0.125 -0.872,0.238 -1.378,0.337c-0.505,0.1 -1.012,0.188 -1.52,0.267c-0.508,0.078 -0.969,0.146 -1.383,0.206c-0.89,0.127 -1.667,0.334 -2.331,0.619c-0.664,0.285 -1.181,0.668 -1.549,1.147c-0.368,0.48 -0.552,1.074 -0.552,1.785c0,1.037 0.377,1.824 1.129,2.361c0.753,0.538 1.712,0.806 2.877,0.806Z" style="fill:#212529;fill-rule:nonzero;"/><path d="M900.599,992.734l0,15.767l-7.556,0l-0,-27.273l7.201,0l0,4.816l0.313,-0c0.61,-1.591 1.626,-2.851 3.045,-3.779c1.419,-0.928 3.141,-1.392 5.165,-1.392c1.896,0 3.549,0.415 4.959,1.245c1.41,0.83 2.505,2.01 3.285,3.542c0.78,1.532 1.166,3.355 1.159,5.469l0,17.372l-7.556,0l-0,-16.023c0.007,-1.666 -0.42,-2.971 -1.281,-3.913c-0.86,-0.942 -2.048,-1.414 -3.563,-1.414c-1.018,0 -1.916,0.221 -2.694,0.663c-0.777,0.441 -1.383,1.078 -1.816,1.91c-0.433,0.832 -0.653,1.836 -0.661,3.01Z" style="fill:#212529;fill-rule:nonzero;"/><path d="M934.619,1009.03c-2.798,-0 -5.199,-0.595 -7.201,-1.785c-2.003,-1.19 -3.541,-2.842 -4.613,-4.957c-1.073,-2.115 -1.609,-4.556 -1.609,-7.321c0,-2.784 0.542,-5.235 1.627,-7.353c1.084,-2.117 2.626,-3.77 4.627,-4.957c2,-1.187 4.381,-1.781 7.141,-1.781c2.372,0 4.454,0.432 6.245,1.295c1.79,0.862 3.206,2.077 4.245,3.643c1.039,1.566 1.61,3.4 1.712,5.503l-7.131,-0c-0.206,-1.357 -0.735,-2.454 -1.589,-3.291c-0.853,-0.837 -1.976,-1.255 -3.368,-1.255c-1.165,0 -2.184,0.317 -3.058,0.95c-0.874,0.633 -1.553,1.553 -2.038,2.759c-0.486,1.206 -0.728,2.669 -0.728,4.388c-0,1.737 0.24,3.215 0.721,4.433c0.48,1.218 1.157,2.148 2.031,2.788c0.873,0.641 1.897,0.961 3.072,0.961c0.869,-0 1.647,-0.177 2.336,-0.531c0.689,-0.354 1.261,-0.87 1.717,-1.549c0.456,-0.678 0.757,-1.5 0.904,-2.466l7.131,-0c-0.116,2.086 -0.68,3.92 -1.691,5.503c-1.011,1.582 -2.404,2.815 -4.181,3.698c-1.777,0.883 -3.877,1.325 -6.302,1.325Z" style="fill:#212529;fill-rule:nonzero;"/><path d="M962.631,1009.03c-2.799,-0 -5.208,-0.569 -7.229,-1.707c-2.02,-1.137 -3.574,-2.756 -4.662,-4.858c-1.088,-2.101 -1.632,-4.591 -1.632,-7.469c0,-2.808 0.546,-5.272 1.637,-7.39c1.092,-2.119 2.627,-3.771 4.606,-4.954c1.979,-1.184 4.306,-1.776 6.981,-1.776c1.804,0 3.484,0.287 5.04,0.86c1.555,0.572 2.915,1.435 4.08,2.587c1.165,1.151 2.074,2.594 2.727,4.327c0.654,1.733 0.98,3.758 0.98,6.076l0,2.073l-23.025,0l-0,-4.687l15.909,-0c-0.007,-1.084 -0.248,-2.047 -0.723,-2.889c-0.474,-0.841 -1.129,-1.503 -1.964,-1.985c-0.834,-0.482 -1.8,-0.723 -2.896,-0.723c-1.143,0 -2.157,0.266 -3.04,0.797c-0.883,0.532 -1.573,1.238 -2.072,2.119c-0.498,0.881 -0.754,1.86 -0.768,2.937l-0,4.46c-0,1.349 0.253,2.515 0.759,3.498c0.507,0.982 1.222,1.739 2.145,2.269c0.924,0.53 2.015,0.795 3.275,0.795c0.845,0 1.615,-0.119 2.31,-0.358c0.695,-0.239 1.293,-0.594 1.795,-1.064c0.502,-0.47 0.881,-1.047 1.136,-1.731l6.989,0.455c-0.355,1.685 -1.079,3.152 -2.17,4.401c-1.091,1.249 -2.499,2.217 -4.224,2.905c-1.725,0.688 -3.713,1.032 -5.964,1.032Z" style="fill:#212529;fill-rule:nonzero;"/><path d="M389.806,609.008l-0,-6.335l29.872,-0l-0,6.335l-11.137,0l0,30.029l-7.599,-0l0,-30.029l-11.136,0Z" style="fill:#212529;fill-rule:nonzero;"/><path d="M423.151,639.037l0,-27.273l7.564,-0l-0,27.273l-7.564,-0Zm3.817,-30.789c-1.124,0 -2.089,-0.376 -2.894,-1.127c-0.805,-0.752 -1.207,-1.655 -1.207,-2.708c-0,-1.042 0.402,-1.938 1.207,-2.69c0.805,-0.752 1.764,-1.128 2.877,-1.128c1.136,0 2.104,0.376 2.903,1.128c0.799,0.752 1.198,1.648 1.198,2.69c0,1.053 -0.399,1.956 -1.198,2.708c-0.799,0.751 -1.761,1.127 -2.886,1.127Z" style="fill:#212529;fill-rule:nonzero;"/><path d="M435.019,639.037l0,-27.273l7.202,-0l-0,4.815l0.312,0c0.568,-1.605 1.518,-2.868 2.848,-3.789c1.33,-0.921 2.919,-1.381 4.766,-1.381c1.87,-0 3.461,0.465 4.772,1.397c1.312,0.932 2.188,2.189 2.628,3.773l0.284,0c0.557,-1.565 1.565,-2.818 3.026,-3.759c1.461,-0.941 3.189,-1.411 5.185,-1.411c2.545,-0 4.615,0.808 6.212,2.425c1.597,1.617 2.395,3.905 2.395,6.865l0,18.338l-7.556,-0l-0,-16.847c-0,-1.522 -0.402,-2.661 -1.204,-3.415c-0.803,-0.754 -1.808,-1.131 -3.015,-1.131c-1.371,0 -2.443,0.435 -3.216,1.305c-0.773,0.871 -1.159,2.017 -1.159,3.44l-0,16.648l-7.33,-0l0,-17.018c0,-1.337 -0.382,-2.401 -1.147,-3.19c-0.764,-0.79 -1.769,-1.185 -3.015,-1.185c-0.84,0 -1.594,0.209 -2.262,0.625c-0.667,0.417 -1.196,1.002 -1.585,1.756c-0.39,0.755 -0.584,1.637 -0.584,2.648l-0,16.364l-7.557,-0Z" style="fill:#212529;fill-rule:nonzero;"/><path d="M490.9,639.562c-2.799,0 -5.208,-0.569 -7.229,-1.706c-2.02,-1.138 -3.575,-2.757 -4.662,-4.858c-1.088,-2.101 -1.632,-4.591 -1.632,-7.47c-0,-2.808 0.546,-5.271 1.637,-7.39c1.091,-2.119 2.627,-3.77 4.606,-4.954c1.979,-1.183 4.306,-1.775 6.981,-1.775c1.804,-0 3.484,0.286 5.039,0.859c1.556,0.573 2.916,1.435 4.081,2.587c1.164,1.152 2.073,2.594 2.727,4.327c0.653,1.733 0.98,3.758 0.98,6.076l0,2.074l-23.025,-0l-0,-4.688l15.909,0c-0.008,-1.084 -0.248,-2.047 -0.723,-2.888c-0.475,-0.842 -1.129,-1.504 -1.964,-1.986c-0.834,-0.481 -1.8,-0.722 -2.896,-0.722c-1.143,-0 -2.157,0.266 -3.04,0.797c-0.883,0.531 -1.574,1.238 -2.072,2.118c-0.498,0.881 -0.754,1.86 -0.769,2.937l0,4.46c0,1.35 0.254,2.516 0.76,3.498c0.507,0.983 1.222,1.739 2.145,2.27c0.923,0.53 2.015,0.795 3.274,0.795c0.846,-0 1.616,-0.12 2.311,-0.359c0.694,-0.239 1.293,-0.593 1.795,-1.063c0.502,-0.47 0.88,-1.047 1.136,-1.731l6.988,0.454c-0.355,1.686 -1.078,3.153 -2.169,4.402c-1.091,1.249 -2.5,2.217 -4.224,2.905c-1.725,0.687 -3.713,1.031 -5.964,1.031Z" style="fill:#212529;fill-rule:nonzero;"/><path d="M785.756,1008.5l-12.884,0l0,-36.364l12.997,0c3.656,0 6.804,0.725 9.445,2.175c2.641,1.451 4.674,3.531 6.1,6.243c1.427,2.712 2.14,5.957 2.14,9.736c-0,3.788 -0.714,7.042 -2.141,9.764c-1.428,2.721 -3.471,4.809 -6.13,6.264c-2.658,1.455 -5.834,2.182 -9.527,2.182Zm-5.199,-6.591l4.872,0c2.282,0 4.2,-0.406 5.755,-1.218c1.554,-0.812 2.726,-2.072 3.515,-3.782c0.79,-1.709 1.185,-3.916 1.185,-6.619c-0,-2.694 -0.396,-4.893 -1.188,-6.595c-0.792,-1.702 -1.962,-2.955 -3.509,-3.76c-1.547,-0.805 -3.457,-1.208 -5.73,-1.208l-4.9,0l-0,23.182Z" style="fill:#212529;fill-rule:nonzero;"/><path d="M808.66,1008.5l0,-27.273l7.564,0l0,27.273l-7.564,0Zm3.818,-30.788c-1.125,-0 -2.089,-0.376 -2.894,-1.128c-0.805,-0.751 -1.208,-1.654 -1.208,-2.708c0,-1.041 0.403,-1.938 1.208,-2.69c0.805,-0.751 1.764,-1.127 2.876,-1.127c1.137,-0 2.104,0.376 2.903,1.127c0.799,0.752 1.199,1.649 1.199,2.69c-0,1.054 -0.4,1.957 -1.199,2.708c-0.799,0.752 -1.761,1.128 -2.885,1.128Z" style="fill:#212529;fill-rule:nonzero;"/><path d="M843.213,988.998l-6.917,0.426c-0.124,-0.584 -0.379,-1.117 -0.768,-1.598c-0.388,-0.48 -0.9,-0.864 -1.535,-1.152c-0.636,-0.288 -1.393,-0.432 -2.271,-0.432c-1.172,0 -2.161,0.245 -2.966,0.736c-0.805,0.49 -1.204,1.14 -1.197,1.949c-0.007,0.658 0.25,1.211 0.769,1.659c0.52,0.447 1.414,0.808 2.683,1.083l4.944,0.994c2.651,0.542 4.626,1.416 5.924,2.623c1.299,1.206 1.952,2.794 1.959,4.763c-0.007,1.79 -0.532,3.359 -1.575,4.707c-1.043,1.349 -2.475,2.397 -4.297,3.147c-1.822,0.749 -3.913,1.124 -6.273,1.124c-3.612,-0 -6.488,-0.753 -8.627,-2.259c-2.139,-1.506 -3.387,-3.56 -3.745,-6.165l7.429,-0.397c0.229,1.105 0.775,1.945 1.635,2.519c0.861,0.574 1.968,0.861 3.322,0.861c1.321,0 2.388,-0.259 3.202,-0.777c0.813,-0.519 1.223,-1.183 1.23,-1.993c-0.007,-0.691 -0.294,-1.258 -0.861,-1.701c-0.567,-0.442 -1.445,-0.784 -2.633,-1.026l-4.716,-0.937c-2.668,-0.528 -4.651,-1.45 -5.948,-2.767c-1.297,-1.316 -1.943,-2.993 -1.935,-5.032c-0.008,-1.752 0.467,-3.26 1.422,-4.526c0.955,-1.265 2.301,-2.24 4.037,-2.926c1.737,-0.685 3.766,-1.028 6.089,-1.028c3.444,0 6.159,0.727 8.144,2.181c1.985,1.453 3.144,3.435 3.475,5.944Z" style="fill:#212529;fill-rule:nonzero;"/><path d="M861.168,981.228l-0,5.682l-16.435,0l-0,-5.682l16.435,0Zm-12.699,-6.534l7.556,0l0,25.419c0,0.701 0.109,1.245 0.327,1.632c0.218,0.387 0.519,0.657 0.902,0.81c0.384,0.152 0.827,0.229 1.328,0.229c0.363,-0 0.722,-0.032 1.078,-0.096c0.356,-0.064 0.627,-0.117 0.812,-0.16l1.193,5.639c-0.377,0.121 -0.91,0.261 -1.6,0.419c-0.69,0.159 -1.525,0.256 -2.505,0.292c-1.823,0.071 -3.419,-0.172 -4.787,-0.727c-1.369,-0.555 -2.432,-1.421 -3.189,-2.597c-0.758,-1.177 -1.129,-2.654 -1.115,-4.432l-0,-26.428Z" style="fill:#212529;fill-rule:nonzero;"/><path d="M872.617,1009.01c-1.736,0 -3.285,-0.303 -4.647,-0.91c-1.363,-0.608 -2.437,-1.513 -3.223,-2.715c-0.786,-1.203 -1.179,-2.703 -1.179,-4.5c0,-1.519 0.276,-2.793 0.828,-3.819c0.551,-1.026 1.307,-1.853 2.265,-2.48c0.959,-0.628 2.052,-1.103 3.28,-1.428c1.227,-0.324 2.517,-0.552 3.869,-0.682c1.579,-0.156 2.854,-0.308 3.826,-0.456c0.972,-0.148 1.678,-0.37 2.118,-0.668c0.441,-0.297 0.661,-0.736 0.661,-1.319l-0,-0.099c-0,-1.127 -0.354,-1.998 -1.062,-2.614c-0.708,-0.615 -1.703,-0.923 -2.986,-0.923c-1.362,-0 -2.445,0.298 -3.252,0.893c-0.806,0.595 -1.337,1.344 -1.592,2.246l-7.003,-0.568c0.355,-1.657 1.053,-3.093 2.093,-4.306c1.041,-1.213 2.387,-2.148 4.04,-2.805c1.652,-0.657 3.566,-0.986 5.742,-0.986c1.522,0 2.977,0.178 4.364,0.535c1.388,0.356 2.622,0.905 3.704,1.647c1.082,0.742 1.937,1.697 2.566,2.862c0.628,1.166 0.943,2.563 0.943,4.189l-0,18.395l-7.174,0l0,-3.778l-0.213,-0c-0.44,0.847 -1.025,1.594 -1.756,2.24c-0.73,0.647 -1.612,1.15 -2.645,1.51c-1.034,0.359 -2.223,0.539 -3.567,0.539Zm2.173,-5.213c1.11,0 2.091,-0.222 2.942,-0.667c0.851,-0.445 1.518,-1.048 2.001,-1.808c0.483,-0.76 0.725,-1.616 0.725,-2.567l-0,-2.898c-0.228,0.149 -0.548,0.286 -0.961,0.412c-0.413,0.125 -0.872,0.238 -1.378,0.337c-0.505,0.1 -1.012,0.188 -1.52,0.267c-0.508,0.078 -0.969,0.146 -1.383,0.206c-0.89,0.127 -1.667,0.334 -2.331,0.619c-0.664,0.285 -1.181,0.668 -1.549,1.147c-0.368,0.48 -0.552,1.074 -0.552,1.785c0,1.037 0.377,1.824 1.129,2.361c0.753,0.538 1.712,0.806 2.877,0.806Z" style="fill:#212529;fill-rule:nonzero;"/><path d="M900.599,992.734l0,15.767l-7.556,0l-0,-27.273l7.201,0l0,4.816l0.313,-0c0.61,-1.591 1.626,-2.851 3.045,-3.779c1.419,-0.928 3.141,-1.392 5.165,-1.392c1.896,0 3.549,0.415 4.959,1.245c1.41,0.83 2.505,2.01 3.285,3.542c0.78,1.532 1.166,3.355 1.159,5.469l0,17.372l-7.556,0l-0,-16.023c0.007,-1.666 -0.42,-2.971 -1.281,-3.913c-0.86,-0.942 -2.048,-1.414 -3.563,-1.414c-1.018,0 -1.916,0.221 -2.694,0.663c-0.777,0.441 -1.383,1.078 -1.816,1.91c-0.433,0.832 -0.653,1.836 -0.661,3.01Z" style="fill:#212529;fill-rule:nonzero;"/><path d="M934.619,1009.03c-2.798,-0 -5.199,-0.595 -7.201,-1.785c-2.003,-1.19 -3.541,-2.842 -4.613,-4.957c-1.073,-2.115 -1.609,-4.556 -1.609,-7.321c0,-2.784 0.542,-5.235 1.627,-7.353c1.084,-2.117 2.626,-3.77 4.627,-4.957c2,-1.187 4.381,-1.781 7.141,-1.781c2.372,0 4.454,0.432 6.245,1.295c1.79,0.862 3.206,2.077 4.245,3.643c1.039,1.566 1.61,3.4 1.712,5.503l-7.131,-0c-0.206,-1.357 -0.735,-2.454 -1.589,-3.291c-0.853,-0.837 -1.976,-1.255 -3.368,-1.255c-1.165,0 -2.184,0.317 -3.058,0.95c-0.874,0.633 -1.553,1.553 -2.038,2.759c-0.486,1.206 -0.728,2.669 -0.728,4.388c-0,1.737 0.24,3.215 0.721,4.433c0.48,1.218 1.157,2.148 2.031,2.788c0.873,0.641 1.897,0.961 3.072,0.961c0.869,-0 1.647,-0.177 2.336,-0.531c0.689,-0.354 1.261,-0.87 1.717,-1.549c0.456,-0.678 0.757,-1.5 0.904,-2.466l7.131,-0c-0.116,2.086 -0.68,3.92 -1.691,5.503c-1.011,1.582 -2.404,2.815 -4.181,3.698c-1.777,0.883 -3.877,1.325 -6.302,1.325Z" style="fill:#212529;fill-rule:nonzero;"/><path d="M962.631,1009.03c-2.799,-0 -5.208,-0.569 -7.229,-1.707c-2.02,-1.137 -3.574,-2.756 -4.662,-4.858c-1.088,-2.101 -1.632,-4.591 -1.632,-7.469c0,-2.808 0.546,-5.272 1.637,-7.39c1.092,-2.119 2.627,-3.771 4.606,-4.954c1.979,-1.184 4.306,-1.776 6.981,-1.776c1.804,0 3.484,0.287 5.04,0.86c1.555,0.572 2.915,1.435 4.08,2.587c1.165,1.151 2.074,2.594 2.727,4.327c0.654,1.733 0.98,3.758 0.98,6.076l0,2.073l-23.025,0l-0,-4.687l15.909,-0c-0.007,-1.084 -0.248,-2.047 -0.723,-2.889c-0.474,-0.841 -1.129,-1.503 -1.964,-1.985c-0.834,-0.482 -1.8,-0.723 -2.896,-0.723c-1.143,0 -2.157,0.266 -3.04,0.797c-0.883,0.532 -1.573,1.238 -2.072,2.119c-0.498,0.881 -0.754,1.86 -0.768,2.937l-0,4.46c-0,1.349 0.253,2.515 0.759,3.498c0.507,0.982 1.222,1.739 2.145,2.269c0.924,0.53 2.015,0.795 3.275,0.795c0.845,0 1.615,-0.119 2.31,-0.358c0.695,-0.239 1.293,-0.594 1.795,-1.064c0.502,-0.47 0.881,-1.047 1.136,-1.731l6.989,0.455c-0.355,1.685 -1.079,3.152 -2.17,4.401c-1.091,1.249 -2.499,2.217 -4.224,2.905c-1.725,0.688 -3.713,1.032 -5.964,1.032Z" style="fill:#212529;fill-rule:nonzero;"/><path d="M389.806,609.008l-0,-6.335l29.872,-0l-0,6.335l-11.137,0l0,30.029l-7.599,-0l0,-30.029l-11.136,0Z" style="fill:#212529;fill-rule:nonzero;"/><path d="M423.151,639.037l0,-27.273l7.564,-0l-0,27.273l-7.564,-0Zm3.817,-30.789c-1.124,0 -2.089,-0.376 -2.894,-1.127c-0.805,-0.752 -1.207,-1.655 -1.207,-2.708c-0,-1.042 0.402,-1.938 1.207,-2.69c0.805,-0.752 1.764,-1.128 2.877,-1.128c1.136,0 2.104,0.376 2.903,1.128c0.799,0.752 1.198,1.648 1.198,2.69c0,1.053 -0.399,1.956 -1.198,2.708c-0.799,0.751 -1.761,1.127 -2.886,1.127Z" style="fill:#212529;fill-rule:nonzero;"/><path d="M435.019,639.037l0,-27.273l7.202,-0l-0,4.815l0.312,0c0.568,-1.605 1.518,-2.868 2.848,-3.789c1.33,-0.921 2.919,-1.381 4.766,-1.381c1.87,-0 3.461,0.465 4.772,1.397c1.312,0.932 2.188,2.189 2.628,3.773l0.284,0c0.557,-1.565 1.565,-2.818 3.026,-3.759c1.461,-0.941 3.189,-1.411 5.185,-1.411c2.545,-0 4.615,0.808 6.212,2.425c1.597,1.617 2.395,3.905 2.395,6.865l0,18.338l-7.556,-0l-0,-16.847c-0,-1.522 -0.402,-2.661 -1.204,-3.415c-0.803,-0.754 -1.808,-1.131 -3.015,-1.131c-1.371,0 -2.443,0.435 -3.216,1.305c-0.773,0.871 -1.159,2.017 -1.159,3.44l-0,16.648l-7.33,-0l0,-17.018c0,-1.337 -0.382,-2.401 -1.147,-3.19c-0.764,-0.79 -1.769,-1.185 -3.015,-1.185c-0.84,0 -1.594,0.209 -2.262,0.625c-0.667,0.417 -1.196,1.002 -1.585,1.756c-0.39,0.755 -0.584,1.637 -0.584,2.648l-0,16.364l-7.557,-0Z" style="fill:#212529;fill-rule:nonzero;"/><path d="M490.9,639.562c-2.799,0 -5.208,-0.569 -7.229,-1.706c-2.02,-1.138 -3.575,-2.757 -4.662,-4.858c-1.088,-2.101 -1.632,-4.591 -1.632,-7.47c-0,-2.808 0.546,-5.271 1.637,-7.39c1.091,-2.119 2.627,-3.77 4.606,-4.954c1.979,-1.183 4.306,-1.775 6.981,-1.775c1.804,-0 3.484,0.286 5.039,0.859c1.556,0.573 2.916,1.435 4.081,2.587c1.164,1.152 2.073,2.594 2.727,4.327c0.653,1.733 0.98,3.758 0.98,6.076l0,2.074l-23.025,-0l-0,-4.688l15.909,0c-0.008,-1.084 -0.248,-2.047 -0.723,-2.888c-0.475,-0.842 -1.129,-1.504 -1.964,-1.986c-0.834,-0.481 -1.8,-0.722 -2.896,-0.722c-1.143,-0 -2.157,0.266 -3.04,0.797c-0.883,0.531 -1.574,1.238 -2.072,2.118c-0.498,0.881 -0.754,1.86 -0.769,2.937l0,4.46c0,1.35 0.254,2.516 0.76,3.498c0.507,0.983 1.222,1.739 2.145,2.27c0.923,0.53 2.015,0.795 3.274,0.795c0.846,-0 1.616,-0.12 2.311,-0.359c0.694,-0.239 1.293,-0.593 1.795,-1.063c0.502,-0.47 0.88,-1.047 1.136,-1.731l6.988,0.454c-0.355,1.686 -1.078,3.153 -2.169,4.402c-1.091,1.249 -2.5,2.217 -4.224,2.905c-1.725,0.687 -3.713,1.031 -5.964,1.031Z" style="fill:#212529;fill-rule:nonzero;"/><path d="M939.536,599.736c0,-23.525 -19.098,-42.624 -42.623,-42.624l-198.908,0c-23.525,0 -42.624,19.099 -42.624,42.624l0,198.908c0,23.524 19.099,42.623 42.624,42.623l198.908,0c23.525,0 42.623,-19.099 42.623,-42.623l0,-198.908Z" style="fill:#76f5c0;stroke:#212529;stroke-width:6.25px;"/></g></svg>